<?xml version="1.0" encoding="UTF-8" standalone="no"?>
<svg
   viewBox="0 0 512 512"
   version="1.1"
   id="svg1"
   sodipodi:docname="Billing.svg"
   inkscape:version="1.4-beta (62f545ba5e, 2024-04-22)"
   xmlns:inkscape="http://www.inkscape.org/namespaces/inkscape"
   xmlns:sodipodi="http://sodipodi.sourceforge.net/DTD/sodipodi-0.dtd"
   xmlns="http://www.w3.org/2000/svg"
   xmlns:svg="http://www.w3.org/2000/svg">
  <defs
     id="defs1" />
  <sodipodi:namedview
     id="namedview1"
     pagecolor="#ffffff"
     bordercolor="#000000"
     borderopacity="0.25"
     inkscape:showpageshadow="2"
     inkscape:pageopacity="0.0"
     inkscape:pagecheckerboard="0"
     inkscape:deskcolor="#d1d1d1"
     inkscape:zoom="1.2626953"
     inkscape:cx="447.05955"
     inkscape:cy="205.51276"
     inkscape:window-width="2560"
     inkscape:window-height="1529"
     inkscape:window-x="1912"
     inkscape:window-y="-8"
     inkscape:window-maximized="1"
     inkscape:current-layer="svg1" />
  <g
     id="g1">
    <path
       d="M176 448h64V64h-64v384zm16-368h32v352h-32V80zM80 448h64V288H80v160zm16-144h32v128H96V304zM272 448h64V224h-64v224zm16-208h32v192h-32V240zM368 128v320h64V128h-64zm48 304h-32V144h32v288z"
       id="path1" />
    <path
       d="m 150.9061,126.10523 c -0.66454,-2.22945 -1.68049,-4.32062 -3.04577,-6.27421 -1.36804,-1.95127 -3.06642,-3.68416 -5.09686,-5.19825 -2.03193,-1.51314 -4.4136,-2.70736 -7.14669,-3.58499 -1.09541,-0.31753 -3.02233,-0.8164 -5.55991,-1.49452 -1.81404,-0.48258 -3.51434,-0.97773 -5.43126,-1.48196 V 83.459835 c 1.91692,0.557772 3.24811,1.443774 4.66983,2.42802 3.0415,2.104441 4.9482,5.704566 5.50686,10.593197 h 14.73341 c -0.13929,-4.190256 -0.9904,-7.626265 -2.55503,-10.713085 -1.71884,-3.385492 -4.04192,-6.290969 -6.97118,-8.603059 -2.92862,-2.309761 -6.43764,-4.071531 -10.30385,-5.227342 -1.679,-0.501436 -3.16291,-0.923021 -5.07982,-1.206795 v -7.771756 h -13.6314 v 7.721009 c -1.49093,0.243033 -3.22638,0.569175 -4.77652,0.989366 -3.67239,0.997047 -6.898347,2.529983 -9.786927,4.600899 -2.890708,2.073245 -5.186956,4.682145 -6.944557,7.828325 -1.757597,3.148051 -2.622549,6.872025 -2.622549,11.174018 0,2.231307 0.299678,4.421415 0.8854,6.572878 0.586152,2.15101 1.585074,4.18258 2.990816,6.0945 1.406376,1.91238 3.300285,3.64552 5.684075,5.19894 2.381873,1.55319 5.261932,2.8084 8.855302,3.76424 1.97783,0.54614 4.01061,1.05572 5.71453,1.53107 v 27.83866 c -2.34289,-0.67974 -4.66236,-1.72265 -6.53455,-3.13803 -1.95312,-1.47287 -3.42169,-3.24814 -4.514757,-5.56 -1.018096,-2.14867 -1.506483,-4.77829 -1.577625,-7.57179 h -14.63543 c 0.148028,4.88863 1.118198,9.19388 2.912005,12.88969 1.874315,3.86551 4.373337,6.97445 7.498122,9.44274 3.122867,2.47062 6.686405,4.27313 10.904695,5.46828 1.89242,0.53659 4.03105,0.92186 5.94797,1.2175 v 8.2285 h 13.6314 v -8.04063 c 2.1299,-0.24909 4.03766,-0.62622 6.07598,-1.13603 3.98292,-0.99448 7.59205,-2.56886 10.71684,-4.71986 3.12286,-2.15099 5.6698,-4.91842 7.58458,-8.30602 1.91266,-3.38525 2.88518,-7.46936 2.88518,-12.24951 0,-2.22968 -0.31991,-4.46122 -0.98253,-6.69276 z m -39.91167,-21.77909 c -2.55588,-0.87157 -5.09303,-2.11608 -6.82635,-3.73631 -1.8364,-1.711945 -2.69944,-4.081535 -2.69944,-7.110395 0,-2.150996 0.51416,-3.943497 1.49178,-5.37796 0.9755,-1.433994 2.11117,-2.569557 3.59529,-3.405745 1.31628,-0.742609 2.94779,-1.295717 4.43872,-1.662137 z m 25.32501,34.86526 c -0.6262,1.55365 -1.64003,2.92782 -3.04641,4.12321 -1.40637,1.19492 -3.35354,2.17148 -5.61826,2.92782 -0.95846,0.32056 -1.75142,0.56871 -3.02937,0.75308 v -24.93434 c 2.12991,0.61084 3.87217,1.24124 5.60698,1.8926 1.71713,0.63901 3.35418,1.7329 4.80017,3.28632 1.44514,1.55412 2.19593,3.96445 2.19593,7.23052 0,1.59462 -0.28498,3.16714 -0.90946,4.72102 z"
       id="path1-8"
       style="stroke-width:0.222672" />
  </g>
</svg>
