<?xml version="1.0" encoding="utf-8"?>
<!-- Generator: Adobe Illustrator 16.2.0, SVG Export Plug-In . SVG Version: 6.00 Build 0)  -->
<!DOCTYPE svg PUBLIC "-//W3C//DTD SVG 1.1//EN" "http://www.w3.org/Graphics/SVG/1.1/DTD/svg11.dtd">
<svg version="1.1" id="Layer_1" xmlns="http://www.w3.org/2000/svg" xmlns:xlink="http://www.w3.org/1999/xlink" x="0px" y="0px"
	 width="576px" height="756px" viewBox="0 0 576 756" enable-background="new 0 0 576 756" xml:space="preserve">
<path fill="#336699" d="M480.15,162H95.85C82.688,162,72,172.688,72,185.85v384.3C72,583.313,82.688,594,95.85,594H288V423h-51.638
	v-63H288v-46.575c0-55.8,38.7-86.175,88.537-86.175c23.851,0,49.5,1.8,55.463,2.587v58.275h-39.713
	c-27.112,0-32.287,12.825-32.287,31.725V360h64.575l-8.438,63H360v171h120.15c13.162,0,23.85-10.688,23.85-23.85v-384.3
	C504,172.688,493.313,162,480.15,162z"/>
</svg>
