<?xml version="1.0" encoding="utf-8"?>
<!-- Generator: Adobe Illustrator 16.2.0, SVG Export Plug-In . SVG Version: 6.00 Build 0)  -->
<!DOCTYPE svg PUBLIC "-//W3C//DTD SVG 1.1//EN" "http://www.w3.org/Graphics/SVG/1.1/DTD/svg11.dtd">
<svg version="1.1" id="Layer_1" xmlns="http://www.w3.org/2000/svg" xmlns:xlink="http://www.w3.org/1999/xlink" x="0px" y="0px"
	 width="576px" height="756px" viewBox="0 0 576 756" enable-background="new 0 0 576 756" xml:space="preserve">
<path fill="#CC3333" d="M357.975,349.763l-1.8-7.875H180V414h102.038c-10.575,50.625-54.45,71.55-94.613,71.55
	c-29.25,0-56.475-8.774-76.837-28.462c-20.925-20.363-32.512-48.488-32.512-79.2c0-30.488,11.025-58.275,31.05-78.3
	c19.913-19.913,47.25-28.575,77.288-28.575c34.313,0,56.137,15.525,65.362,23.737l54-53.663
	c-15.188-13.163-56.588-46.462-121.163-46.462c-49.837,0-97.537,18.9-132.412,53.775C17.888,282.712,0,332.1,0,378
	c0,45.9,16.875,92.925,50.175,127.463c35.663,36.787,86.175,55.912,138.263,55.912c47.362,0,92.138-18.563,124.088-52.088
	c31.5-33.074,47.699-78.862,47.699-126.787C360.112,362.25,358.088,350.212,357.975,349.763L357.975,349.763z M576,342h-64.125
	v-64.125H465.75V342h-64.125v46.125h64.125v64.125h46.125v-64.125H576V342z"/>
</svg>
