<svg width="624" height="351" xmlns="http://www.w3.org/2000/svg" xmlns:xlink="http://www.w3.org/1999/xlink" xml:space="preserve" overflow="hidden"><defs><clipPath id="clip0"><rect x="0" y="0" width="624" height="351"/></clipPath></defs><g clip-path="url(#clip0)"><path d="M403.387 0.0156 408.852 0.0156 408.852 351.016 403.387 351.016Z" fill="#D2D2D2"/><path d="M246.061 351.016 213.787 0.0156 231.016 0.0156 266.051 351.016Z" fill="#E6E6E6"/><path d="M271.194 351.016 243.988 0.0156 260.297 0.0156 299.941 351.016Z" fill="#E6E6E6"/><path d="M294.933 305.825 267.576 305.825 267.627 306.475 295.007 306.475Z" fill="#FFFFFF"/><path d="M365.495 351.016 358.537 0.0156 373.08 0.0156 392.272 351.016Z" fill="#E6E6E6"/><path d="M387.972 269.75 363.75 269.75 363.763 270.4 388.008 270.4Z" fill="#FFFFFF"/><path d="M374.345 21.45 358.881 21.45 358.894 22.1 374.384 22.1Z" fill="#FFFFFF"/><path d="M291.332 101.188 272.324 101.188 243.948 72.812 243.948 7.14967C243.948 7.14967 238.748 21.9186 238.748 40.1372 238.748 56.34 242.861 69.8129 243.771 72.5962 243.779 72.6206 243.776 72.6199 243.764 72.5965 243.232 71.5084 236.504 58.0196 224.151 45.6667 211.269 32.7844 197.148 26.0179 197.148 26.0179 197.148 26.0179 203.914 40.1381 216.797 53.0205 226.755 62.9785 237.451 69.2809 241.794 71.6297L243.392 73.3463 271.233 101.188 248.405 101.188C247.225 98.8448 240.58 86.204 228.947 74.5709 216.065 61.6886 201.944 54.9221 201.944 54.9221 201.944 54.9221 208.71 69.0424 221.593 81.9247 233.498 93.8294 248.357 101.959 248.357 101.959L272.005 101.959 272.122 102.077 272.239 101.959 291.332 101.959 291.332 101.188Z" fill="#D2D2D2"/><path d="M348.738 67.2958C348.715 67.2847 348.715 67.2828 348.741 67.2906 352.167 68.407 368.092 73.2355 387.221 73.2355 408.853 73.2355 426.387 67.0615 426.387 67.0615 426.387 67.0615 408.853 60.8874 387.221 60.8874 368.14 60.8874 352.251 65.6903 348.767 66.8232 348.715 66.8405 348.679 66.8518 348.679 66.8518L338.182 66.8518 361.673 43.3631 369.489 43.3631C369.489 43.3631 369.635 43.4099 369.902 43.4908 373.821 44.6693 384.163 47.3817 396.308 47.3817 411.82 47.3817 424.398 42.9536 424.398 42.9536 424.398 42.9536 411.82 38.5255 396.308 38.5255 384.072 38.5255 373.672 41.2779 369.818 42.4421 369.583 42.5129 369.33 42.5912 369.33 42.5912L362.203 42.5912 400.244 4.55C400.244 4.55 388.222 10.3116 377.25 21.2817 368.751 29.7817 363.379 38.91 361.39 42.5916L361.351 42.5916 293.897 110.047 294.443 110.593 337.412 67.6244 348.809 67.6244C348.809 67.6244 348.949 67.9013 348.952 67.9094 350.613 71.1743 358.455 85.8078 371.946 99.2989 387.244 114.594 404.007 122.628 404.007 122.628 404.007 122.628 395.973 105.863 380.679 90.5677 366.122 76.0117 350.24 68.0339 348.738 67.2958Z" fill="#D2D2D2"/><path d="M409.009 310.131C394.332 310.131 381.895 313.505 377.614 314.818 377.598 314.823 377.598 314.82 377.611 314.812 382.262 312.251 392.496 306.062 402.048 296.509 414.931 283.627 421.697 269.506 421.697 269.506 421.697 269.506 407.576 276.272 394.693 289.155 384.309 299.541 377.9 310.729 375.804 314.676L358.062 332.42C358.043 332.439 358.056 332.475 358.085 332.475L359.099 332.475 375.788 315.786C376.025 315.664 376.314 315.513 376.655 315.331L441.997 315.331C441.997 315.331 427.225 310.131 409.009 310.131Z" fill="#D2D2D2"/><path d="M319.677 351.016 269.915 0.0156 302.013 0.0156 362.294 351.016Z" fill="#D2D2D2"/><path d="M281.079 79.546 315.545 78.0728 315.434 77.427 280.987 78.8993Z" fill="#FFFFFF"/><path d="M359.235 332.475 316.937 332.475 317.029 333.125 359.346 333.125Z" fill="#FFFFFF"/><path d="M225.356 350.912 183.198 305.449C143.565 272.358 87.6759 264.973 40.8063 286.636L40.5337 286.046C63.7643 275.309 89.4533 271.407 114.824 274.76 140.196 278.115 163.988 288.559 183.631 304.963L183.661 304.992 225.833 350.47 225.356 350.912Z" fill="#FFFFFF"/><path d="M229.189 350.802 215.69 313.702C182.497 255.238 117.899 222.432 51.1069 230.113L51.0325 229.468C83.8715 225.688 116.807 231.606 146.279 246.577 175.75 261.548 199.952 284.657 216.269 313.405L216.292 313.454 229.8 350.581 229.189 350.802Z" fill="#FFFFFF"/><path d="M131.726 192.523 132.284 192.188 227.512 350.533 226.955 350.868Z" fill="#E6E6E6"/><path d="M115.055 201.908 115.567 201.507 232.018 350.503 231.506 350.904Z" fill="#E6E6E6"/><path d="M258.095 280.354C258.095 280.354 247.526 280.445 233.128 285.689 219.785 290.549 210.075 298.08 208.723 299.158 206.173 293.837 203.703 288.477 201.311 283.082 203.28 282.904 213.569 281.781 224.51 277.044 236.68 271.775 245.043 264.03 245.043 264.03 245.043 264.03 233.672 264.828 221.502 270.096 210.558 274.835 202.697 281.571 201.223 282.882 198.825 277.468 196.505 272.021 194.269 266.541 196.345 266.167 204.675 264.463 213.288 259.877 223.231 254.582 229.781 247.452 229.781 247.452 229.781 247.452 220.209 248.906 210.266 254.201 201.7 258.762 195.656 264.681 194.146 266.235 191.934 260.804 189.804 255.341 187.754 249.851 189.427 249.348 196.156 247.15 202.846 242.536 210.563 237.217 215.299 230.701 215.299 230.701 215.299 230.701 207.525 232.811 199.81 238.132 193.21 242.682 188.793 248.103 187.652 249.578 186.145 245.536 184.68 241.48 183.262 237.408L181.8 233.208C183.064 232.581 188.199 229.884 192.968 225.239 198.457 219.894 201.381 213.994 201.381 213.994 201.381 213.994 195.406 216.761 189.917 222.106 185.273 226.628 182.466 231.547 181.711 232.954L180.707 230.069 179.763 230.397 180.774 233.301C179.213 232.682 173.956 230.766 167.575 230.295 159.934 229.731 153.579 231.456 153.579 231.456 153.579 231.456 159.613 234.093 167.253 234.657 173.808 235.14 179.413 233.941 180.875 233.59L182.318 237.736C183.737 241.812 185.204 245.872 186.712 249.918 184.747 249.499 177.979 248.248 170.142 248.994 160.812 249.882 153.502 253.265 153.502 253.265 153.502 253.265 161.319 255.208 170.649 254.32 178.619 253.561 185.111 250.983 186.835 250.248 188.884 255.734 191.013 261.192 193.223 266.619 190.928 266.393 182.592 265.791 173.229 267.779 162.209 270.119 153.944 275.162 153.944 275.162 153.944 275.162 163.545 276.41 174.565 274.07 184.028 272.06 191.455 268.06 193.365 266.97 205.175 295.914 219.263 323.97 235.42 350.691L236.275 350.174C226.306 333.687 217.127 316.688 208.785 299.288 210.597 299.24 222.835 298.746 236.121 293.908 250.519 288.664 258.095 280.354 258.095 280.354Z" fill="#E6E6E6"/><path d="M180.15 229.943C180.15 229.943 180.079 223.359 177.457 216.159 174.835 208.96 170.655 203.873 170.655 203.873 170.655 203.873 170.726 210.457 173.348 217.656 175.97 224.855 180.15 229.943 180.15 229.943Z" fill="#E6E6E6"/><path d="M213.344 337.395C202.473 331.233 191.889 324.525 181.647 317.332 183.117 316.437 189.544 312.335 195.257 305.692 201.755 298.137 204.867 290.157 204.867 290.157 204.867 290.157 197.442 294.427 190.944 301.983 185.203 308.658 182.107 315.66 181.463 317.202 178.326 314.996 175.221 312.745 172.15 310.447 173.508 309.498 178.728 305.661 183.232 299.749 188.459 292.887 190.738 285.834 190.738 285.834 190.738 285.834 184.542 289.904 179.315 296.765 174.808 302.681 172.495 308.736 171.943 310.293 168.924 308.032 165.936 305.731 162.985 303.384 164.282 302.293 168.215 298.778 171.467 293.708 175.422 287.541 176.869 281.412 176.869 281.412 176.869 281.412 171.902 285.283 167.946 291.45 164.721 296.478 163.165 301.479 162.7 303.155 159.759 300.811 156.856 298.421 153.986 295.994 154.975 294.946 157.868 291.68 160.059 287.212 162.743 281.739 163.357 276.536 163.357 276.536 163.357 276.536 159.619 280.207 156.935 285.68 154.786 290.061 153.965 294.267 153.723 295.77 151.595 293.968 149.482 292.148 147.395 290.3L145.279 288.428C145.953 287.411 147.805 284.408 148.945 280.553 150.357 275.775 150.138 271.498 150.138 271.498 150.138 271.498 147.629 274.969 146.217 279.747 145.123 283.447 145.008 286.845 145.011 288.19L143.61 286.95 143.179 287.437 144.685 288.77C143.431 288.95 140.003 289.561 136.414 291.24 131.901 293.352 128.844 296.351 128.844 296.351 128.844 296.351 133.106 295.928 137.619 293.816 141.337 292.077 144.061 289.738 144.908 288.967L146.963 290.786C149.074 292.654 151.21 294.494 153.362 296.316 151.979 296.754 147.87 298.198 143.789 301.026 138.78 304.499 135.71 308.744 135.71 308.744 135.71 308.744 140.762 307.359 145.772 303.886 149.934 301.001 152.755 297.585 153.591 296.511 156.469 298.944 159.379 301.34 162.328 303.69 160.793 304.373 156.029 306.666 151.49 310.65 145.984 315.484 142.9 320.974 142.9 320.974 142.9 320.974 148.743 318.627 154.249 313.793 158.843 309.76 161.749 305.273 162.586 303.897 165.545 306.25 168.542 308.557 171.568 310.825 170.231 311.535 164.484 314.747 159.223 320.177 153.221 326.371 150.123 333.105 150.123 333.105 150.123 333.105 156.757 329.797 162.759 323.603 168.056 318.136 171.089 312.252 171.729 310.944 174.811 313.251 177.928 315.51 181.077 317.725 179.658 318.586 173.191 322.696 167.443 329.378 160.945 336.934 157.834 344.913 157.834 344.913 157.834 344.913 165.258 340.645 171.756 333.089 177.529 326.375 180.627 319.334 181.247 317.844 191.515 325.058 202.124 331.783 213.023 337.961L236.048 351.016 236.369 350.451 213.344 337.395Z" fill="#E6E6E6"/><path d="M135.429 282.283C139.207 285.532 143.197 287.088 143.197 287.088 143.197 287.088 141.061 283.376 137.284 280.126 133.506 276.877 129.516 275.321 129.516 275.321 129.516 275.321 131.651 279.034 135.429 282.283Z" fill="#E6E6E6"/><path d="M550.121 197.809C561.646 199.993 571.613 198.473 571.613 198.473 571.613 198.473 562.893 193.412 551.366 191.228 541.716 189.4 533.162 190.167 530.631 190.466 533.006 185.542 535.33 180.594 537.595 175.622L539.861 170.649C541.242 171.132 548.33 173.461 556.923 173.622 566.511 173.801 574.337 171.21 574.337 171.21 574.337 171.21 566.615 168.327 557.024 168.148 548.6 167.991 541.538 169.972 539.948 170.455L541.369 167.339C541.512 167.024 541.372 166.653 541.057 166.51L541.057 166.51C540.745 166.367 540.374 166.506 540.228 166.82L538.824 169.904C538.132 168.244 535.19 161.634 529.799 155.315 523.575 148.019 516.448 143.881 516.448 143.881 516.448 143.881 519.409 151.573 525.635 158.869 531.151 165.334 537.371 169.316 538.717 170.141L536.458 175.105C534.176 180.114 531.833 185.097 529.441 190.057 528.115 187.982 523.26 180.812 515.655 174.46 506.649 166.938 497.204 163.411 497.204 163.411 497.204 163.411 502.356 172.078 511.358 179.6 519.083 186.052 527.127 189.563 529.259 190.431 526.113 196.945 522.87 203.416 519.535 209.839 517.894 207.801 511.017 199.655 500.792 192.932 489.011 185.185 477.246 182.268 477.246 182.268 477.246 182.268 484.588 191.912 496.369 199.658 506.646 206.414 516.903 209.496 519.36 210.174 515.944 216.742 512.424 223.26 508.813 229.726 507.507 228.312 498.352 218.687 484.89 211.318 470.33 203.345 456.248 201.039 456.248 201.039 456.248 201.039 465.78 211.658 480.34 219.63 493.779 226.987 506.805 229.519 508.735 229.866 505.118 236.343 501.407 242.768 497.595 249.135 496.034 247.635 484.802 237.127 468.731 229.53 451.389 221.332 434.993 219.637 434.993 219.637 434.993 219.637 446.709 231.232 464.051 239.429 480.051 246.994 495.251 249.022 497.503 249.291 485.098 270.017 471.695 290.144 457.366 309.545L427.473 350.022C427.268 350.298 427.326 350.691 427.602 350.896L427.602 350.896C427.882 351.101 428.272 351.042 428.48 350.763L458.373 310.288C472.764 290.803 486.223 270.587 498.677 249.767 500.23 251.26 511.465 261.775 527.543 269.375 544.869 277.564 561.281 279.269 561.281 279.269 561.281 279.269 560.609 278.602 559.357 277.487 555.363 273.921 545.421 265.714 532.223 259.476 516.21 251.906 501.004 249.88 498.768 249.614 502.547 243.292 506.233 236.914 509.824 230.484 511.654 232.028 521.742 240.246 535.649 245.837 551.031 252.023 565.305 252.655 565.305 252.655 565.305 252.655 564.652 252.082 563.456 251.138 559.757 248.223 550.803 241.716 539.181 237.045 525.343 231.48 512.434 230.412 509.954 230.252 513.555 223.801 517.065 217.3 520.474 210.748 522.483 212.167 531.414 218.191 543.231 221.867 556.696 226.056 568.808 225.608 568.808 225.608 568.808 225.608 559.088 218.369 545.623 214.181 533.904 210.536 523.217 210.402 520.637 210.428 524.001 203.958 527.264 197.439 530.436 190.877 532.529 192.006 540.306 195.949 550.121 197.809Z" fill="#E6E6E6"/><path d="M556.046 134.534C556.046 134.534 550.248 140.393 546.149 149.064 542.051 157.735 541.203 165.934 541.203 165.934 541.203 165.934 547.001 160.075 551.099 151.404 555.201 142.733 556.046 134.534 556.046 134.534Z" fill="#E6E6E6"/><path d="M527.462 43.0144 491.835 140.38 486.145 128.121C485.303 121.69 481.865 100.099 471.338 77.4238 458.767 50.3402 440.843 31.9732 440.843 31.9732 440.843 31.9732 443.303 57.5172 455.877 84.6007 466.008 106.423 479.609 122.583 484.51 128.039 484.698 128.246 484.845 128.411 484.845 128.411L491.059 141.798 468.065 200.348 460.561 184.184C460.024 179.37 455.865 146.307 439.663 111.407 422.133 73.6443 397.143 48.035 397.143 48.035 397.143 48.035 400.576 83.6514 418.106 121.414 432.698 152.851 452.458 175.861 458.672 182.69L458.523 182.884C452.572 178.236 427.225 159.352 393.152 146.884 354.055 132.578 318.274 132.139 318.274 132.139 318.274 132.139 345.888 154.897 384.985 169.203 420.556 182.22 453.378 183.756 459.007 183.927L467.409 202.021 409.081 350.542 410.29 351.016 492.469 141.763C497.247 135.37 508.901 118.539 516.886 96.7161 527.147 68.6748 527.462 43.0144 527.462 43.0144Z" fill="#E6E6E6"/><path d="M584.675 202.828C584.675 202.828 554.677 205.719 522.87 220.484 499.265 231.442 481.299 245.86 473.606 252.566 473.603 252.568 473.6 252.565 473.6 252.561 478.79 245.712 493.135 225.45 502.853 198.893 514.901 165.963 515.271 135.829 515.271 135.829L472.053 253.936C471.877 254.127 470.151 255.972 469.869 256.257L373.1 350.464 373.639 351.016 471.126 256.108C477.779 255.276 503.867 251.375 531.3 238.64 563.105 223.875 584.675 202.828 584.675 202.828Z" fill="#D2D2D2"/><path d="M213.57 135.83 213.57 135.18 202.46 135.18 209.252 128.258 208.787 127.803 191.983 144.93 173.48 144.93 187.901 129.005 193.095 129.005 193.095 128.355 188.489 128.355 199.887 115.769 199.405 115.332 188.22 127.685 188.22 116.98 187.57 116.98 187.57 128.403 173.27 144.195 173.27 125.89 190.074 109.085 189.615 108.626 178.133 120.107 178.133 111.265 177.483 111.265 177.483 120.757 173.27 124.971 173.27 105.28 172.62 105.28 172.62 124.971 163.52 115.871 163.52 111.265 168.299 106.485 167.84 106.026 163.52 110.346 163.52 104.955 162.87 104.955 162.87 115.221 156.274 108.626 155.815 109.085 162.41 115.68 153.445 115.68 153.445 116.33 163.06 116.33 172.62 125.89 172.62 144.383 146.72 114.96 146.232 115.389 159.282 130.214 146.474 129.362 143.449 125.912 143.891 119.167 143.243 119.124 142.843 125.221 140.146 122.145 139.657 122.574 145.556 129.301 136.241 128.681 136.198 129.33 145.539 129.951 138.784 135.874 139.213 136.363 146.456 130.012 159.891 130.906 172.235 144.93 132.32 144.93 132.32 145.58 152.67 145.58 143.695 154.725 143.695 154.68 138.954 154.68 134.174 149.901 133.715 150.36 138.035 154.68 131.345 154.68 131.345 155.33 143.101 155.33 135.987 162.578 136.452 163.033 153.581 145.58 172.015 145.58 159.322 159.597 152.596 158.262 152.469 158.899 158.813 160.159 146.351 173.921 146.833 174.358 172.62 145.881 172.62 164.296 170.767 166.148 154.842 181.748 155.297 182.213 162.87 174.794 162.87 184.58 163.52 184.58 163.52 174.18 163.496 174.18 171.224 166.61 172.62 165.215 172.62 185.555 173.27 185.555 173.27 165.215 174.667 166.613 177.483 169.37 177.483 178.92 178.133 178.92 178.133 170.006 182.396 174.18 182.37 174.18 182.37 184.905 183.02 184.905 183.02 174.791 190.267 181.888 190.722 181.423 175.124 166.151 173.27 164.296 173.27 146.105 199.332 175.714 199.82 175.284 186.41 160.049 199.142 160.836 202.234 164.239 201.783 173.189 202.432 173.222 202.851 164.918 205.854 168.224 206.335 167.787 200.073 160.893 209.975 161.505 210.015 160.856 185.803 159.361 173.673 145.58 191.985 145.58 199.04 152.635 199.499 152.176 192.904 145.58 213.245 145.58 213.245 144.93 192.894 144.93 201.87 135.782 201.87 135.83Z" fill="#E6E6E6"/><path d="M241.385 350.945C237.943 319.792 232.201 289.568 224.318 261.112 219.298 242.989 213.402 225.549 206.745 209.09L213.637 202.197 213.177 201.738 206.481 208.433C204.859 204.441 203.193 200.507 201.482 196.636 186.416 162.545 173.011 144.907 172.878 144.733L172.362 145.128C172.495 145.301 185.778 162.787 200.757 196.605L195.695 196.605 195.695 197.255 201.044 197.255C211.982 222.07 225.545 259.757 234.592 309.055L228.195 309.055 228.195 309.705 234.712 309.705C237.078 322.683 239.131 336.46 240.739 351.016L241.385 350.945Z" fill="#E6E6E6"/><path d="M154.42 103.655C154.42 105.45 152.964 106.905 151.17 106.905 149.375 106.905 147.92 105.45 147.919 103.655 147.919 101.86 149.375 100.405 151.169 100.405 152.964 100.405 154.419 101.86 154.42 103.655Z" fill="#0E9DD4"/><path d="M147.27 111.455C147.27 113.25 145.814 114.705 144.02 114.705 142.225 114.705 140.77 113.25 140.77 111.455 140.769 109.66 142.225 108.205 144.019 108.205 145.814 108.205 147.269 109.66 147.27 111.455Z" fill="#0E9DD4"/><path d="M130.37 117.955C130.37 119.75 128.914 121.205 127.12 121.205 125.325 121.205 123.87 119.75 123.869 117.955 123.869 116.16 125.325 114.705 127.119 114.705 128.914 114.705 130.369 116.16 130.37 117.955Z" fill="#0E9DD4"/><path d="M138.495 138.105C138.495 139.9 137.039 141.355 135.245 141.355 133.45 141.355 131.995 139.9 131.994 138.105 131.994 136.31 133.45 134.855 135.244 134.855 137.039 134.855 138.494 136.31 138.495 138.105Z" fill="#0E9DD4"/><path d="M154.095 138.105C154.095 139.9 152.639 141.355 150.845 141.355 149.05 141.355 147.595 139.9 147.594 138.105 147.594 136.31 149.05 134.855 150.844 134.855 152.639 134.855 154.094 136.31 154.095 138.105Z" fill="#0E9DD4"/><path d="M131.995 128.68C131.995 130.475 130.539 131.93 128.745 131.93 126.95 131.93 125.495 130.475 125.494 128.68 125.494 126.885 126.95 125.43 128.744 125.43 130.539 125.43 131.994 126.885 131.995 128.68Z" fill="#0E9DD4"/><path d="M218.445 135.505C218.444 137.3 216.989 138.755 215.194 138.755 213.4 138.755 211.944 137.3 211.944 135.505 211.944 133.71 213.4 132.255 215.194 132.255 216.989 132.255 218.444 133.71 218.445 135.505Z" fill="#0E9DD4"/><path d="M211.945 169.955C211.944 171.75 210.489 173.205 208.694 173.205 206.9 173.205 205.444 171.75 205.444 169.955 205.444 168.16 206.9 166.705 208.694 166.705 210.489 166.705 211.944 168.16 211.945 169.955Z" fill="#0E9DD4"/><path d="M195.695 105.93C195.694 107.725 194.239 109.18 192.444 109.18 190.65 109.18 189.194 107.725 189.194 105.93 189.194 104.135 190.65 102.68 192.444 102.68 194.239 102.68 195.694 104.135 195.695 105.93Z" fill="#0E9DD4"/><path d="M152.795 157.93C152.795 159.724 151.34 161.18 149.545 161.18 147.751 161.179 146.295 159.724 146.295 157.929 146.295 156.135 147.751 154.679 149.545 154.679 151.34 154.679 152.795 156.135 152.795 157.93Z" fill="#0E9DD4"/><path d="M134.27 168.33C134.27 170.125 132.814 171.58 131.02 171.58 129.225 171.58 127.77 170.125 127.77 168.33 127.769 166.535 129.225 165.08 131.019 165.08 132.814 165.08 134.269 166.535 134.27 168.33Z" fill="#0E9DD4"/><path d="M132.645 155.005C132.645 156.8 131.189 158.255 129.395 158.255 127.6 158.255 126.145 156.8 126.145 155.005 126.144 153.21 127.6 151.755 129.394 151.755 131.189 151.755 132.644 153.21 132.645 155.005Z" fill="#0E9DD4"/><path d="M140.77 119.905C140.77 121.7 139.314 123.155 137.52 123.155 135.725 123.155 134.27 121.7 134.27 119.905 134.269 118.11 135.725 116.655 137.519 116.655 139.314 116.655 140.769 118.11 140.77 119.905Z" fill="#0E9DD4"/><path d="M137.52 108.855C137.52 110.65 136.064 112.105 134.27 112.105 132.475 112.105 131.02 110.65 131.02 108.855 131.019 107.06 132.475 105.605 134.269 105.605 136.064 105.605 137.519 107.06 137.52 108.855Z" fill="#0E9DD4"/><path d="M166.445 102.355C166.444 104.15 164.989 105.605 163.195 105.605 161.4 105.605 159.945 104.15 159.945 102.355 159.944 100.56 161.4 99.1051 163.194 99.1051 164.989 99.1051 166.444 100.56 166.445 102.355Z" fill="#0E9DD4"/><path d="M103.72 216.43C103.72 218.225 102.264 219.68 100.47 219.68 98.6746 219.68 97.2195 218.225 97.2195 216.43 97.2195 214.635 98.6746 213.18 100.469 213.18 102.264 213.18 103.719 214.635 103.72 216.43Z" fill="#FFFFFF"/><path d="M128.095 253.155C128.095 254.95 126.639 256.405 124.845 256.405 123.05 256.405 121.595 254.95 121.594 253.155 121.594 251.36 123.05 249.905 124.844 249.905 126.639 249.905 128.094 251.36 128.095 253.155Z" fill="#FFFFFF"/><path d="M108.595 254.455C108.595 256.25 107.139 257.705 105.345 257.705 103.55 257.705 102.095 256.25 102.094 254.455 102.094 252.66 103.55 251.205 105.344 251.205 107.139 251.205 108.594 252.66 108.595 254.455Z" fill="#FFFFFF"/></g></svg>