<svg width="624" height="624" xmlns="http://www.w3.org/2000/svg" xmlns:xlink="http://www.w3.org/1999/xlink" xml:space="preserve" overflow="hidden"><g><path d="M401.5 162.054 401.5 162.054C393.4 162.054 386.727 168.416 386.342 176.507L382.087 233.387C381.549 244.687 377.58 255.036 371.231 263.473L365.628 146.082C364.894 130.717 352.222 118.637 336.839 118.637L336.839 118.637C320.833 118.637 307.893 131.678 308.018 147.684L305.323 226.135C284.201 220.157 268.035 201.898 265.504 179.113L262.109 148.561C261.522 143.279 257.057 139.283 251.743 139.283L251.743 139.283C245.983 139.283 241.314 143.953 241.314 149.713L241.314 219.955C241.314 250.443 266.029 275.159 296.517 275.159L303.638 275.159 298.135 435.336 379.434 435.336 374.059 322.729 383.193 318.923C403.468 310.475 416.675 290.664 416.675 268.7L416.675 177.23C416.676 168.849 409.882 162.054 401.5 162.054Z" fill="#E6E6E6"/><path d="M407.631 277.977C407.272 277.977 406.981 277.686 406.981 277.327L406.981 267.445C406.981 267.086 407.272 266.795 407.631 266.795 407.991 266.795 408.281 267.086 408.281 267.445L408.281 277.327C408.281 277.686 407.991 277.977 407.631 277.977Z" fill="#D2D2D2"/><path d="M383.536 289.351C383.177 289.351 382.886 289.06 382.886 288.701L382.886 278.819C382.886 278.461 383.177 278.169 383.536 278.169 383.896 278.169 384.186 278.461 384.186 278.819L384.186 288.701C384.186 289.061 383.896 289.351 383.536 289.351Z" fill="#D2D2D2"/><path d="M377.573 310.138C377.406 310.138 377.24 310.075 377.113 309.948 376.859 309.694 376.859 309.283 377.113 309.029L384.101 302.041C384.355 301.787 384.766 301.787 385.02 302.041 385.274 302.296 385.274 302.706 385.02 302.96L378.032 309.948C377.905 310.075 377.739 310.138 377.573 310.138Z" fill="#D2D2D2"/><path d="M396.912 216.685C396.553 216.685 396.262 216.394 396.262 216.035L396.262 206.153C396.262 205.795 396.553 205.503 396.912 205.503 397.272 205.503 397.562 205.795 397.562 206.153L397.562 216.035C397.562 216.394 397.272 216.685 396.912 216.685Z" fill="#D2D2D2"/><path d="M253.249 221.452C252.89 221.452 252.599 221.161 252.599 220.802L252.599 210.92C252.599 210.562 252.89 210.27 253.249 210.27 253.608 210.27 253.899 210.562 253.899 210.92L253.899 220.802C253.899 221.161 253.608 221.452 253.249 221.452Z" fill="#D2D2D2"/><path d="M286.807 237.986C286.64 237.986 286.474 237.922 286.347 237.795L279.36 230.808C279.105 230.554 279.105 230.143 279.36 229.889 279.614 229.635 280.025 229.635 280.279 229.889L287.266 236.876C287.52 237.13 287.52 237.541 287.266 237.795 287.139 237.922 286.972 237.986 286.807 237.986Z" fill="#D2D2D2"/><path d="M269.513 242.927C269.347 242.927 269.181 242.863 269.054 242.737L262.066 235.749C261.812 235.495 261.812 235.084 262.066 234.83 262.32 234.576 262.731 234.576 262.985 234.83L269.973 241.818C270.227 242.072 270.227 242.482 269.973 242.737 269.846 242.863 269.679 242.927 269.513 242.927Z" fill="#D2D2D2"/><path d="M332.721 391.037C332.362 391.037 332.071 390.746 332.071 390.387L332.071 380.505C332.071 380.145 332.362 379.855 332.721 379.855 333.081 379.855 333.371 380.145 333.371 380.505L333.371 390.387C333.371 390.746 333.081 391.037 332.721 391.037Z" fill="#D2D2D2"/><path d="M318.438 187.138C318.271 187.138 318.105 187.075 317.978 186.948L310.991 179.96C310.736 179.706 310.736 179.295 310.991 179.041 311.245 178.787 311.655 178.787 311.91 179.041L318.897 186.029C319.151 186.283 319.151 186.694 318.897 186.948 318.77 187.075 318.604 187.138 318.438 187.138Z" fill="#D2D2D2"/><path d="M348.557 298.727C348.391 298.727 348.224 298.663 348.098 298.537L341.11 291.549C340.856 291.295 340.856 290.884 341.11 290.63 341.364 290.376 341.775 290.376 342.029 290.63L349.017 297.617C349.271 297.872 349.271 298.282 349.017 298.537 348.89 298.664 348.724 298.727 348.557 298.727Z" fill="#D2D2D2"/><path d="M326.468 222.03C326.302 222.03 326.136 221.966 326.009 221.839 325.755 221.585 325.755 221.174 326.009 220.92L332.996 213.933C333.25 213.678 333.661 213.678 333.915 213.933 334.17 214.187 334.17 214.597 333.915 214.852L326.928 221.839C326.801 221.966 326.635 222.03 326.468 222.03Z" fill="#D2D2D2"/><path d="M363.743 372.019C363.577 372.019 363.41 371.955 363.284 371.829L356.296 364.841C356.042 364.587 356.042 364.176 356.296 363.922 356.55 363.668 356.961 363.668 357.215 363.922L364.203 370.909C364.457 371.164 364.457 371.574 364.203 371.829 364.076 371.955 363.91 372.019 363.743 372.019Z" fill="#D2D2D2"/><path d="M352.746 181.053C354.167 186.128 355.634 191.376 356.073 201.8 356.511 212.223 355.488 217.576 354.498 222.752 353.494 228 352.456 233.428 352.901 244.002 353.345 254.577 354.834 259.899 356.274 265.045 357.695 270.12 359.163 275.368 359.601 285.791 360.04 296.215 359.016 301.568 358.026 306.745 357.023 311.994 355.985 317.422 356.429 327.997 356.874 338.573 358.363 343.894 359.803 349.041 361.224 354.117 362.692 359.365 363.13 369.79 363.568 380.215 362.545 385.568 361.555 390.744 360.552 395.994 359.514 401.422 359.958 411.997 359.973 412.346 360.261 412.62 360.607 412.62 360.617 412.62 360.625 412.62 360.635 412.619 360.994 412.604 361.272 412.301 361.257 411.943 360.819 401.518 361.842 396.165 362.832 390.989 363.836 385.739 364.874 380.31 364.429 369.736 363.984 359.159 362.495 353.838 361.055 348.691 359.635 343.615 358.166 338.367 357.728 327.943 357.29 317.518 358.313 312.166 359.303 306.989 360.307 301.74 361.345 296.312 360.9 285.737 360.456 275.162 358.966 269.84 357.527 264.694 356.106 259.619 354.637 254.371 354.199 243.948 353.761 233.524 354.784 228.171 355.774 222.995 356.778 217.747 357.816 212.319 357.371 201.745 356.927 191.17 355.438 185.849 353.998 180.702 352.578 175.627 351.109 170.379 350.671 159.956 350.233 149.532 351.256 144.18 352.246 139.003 353.02 134.956 353.811 130.792 353.93 124.257 353.509 123.946 353.081 123.644 352.643 123.356 352.583 130.305 351.766 134.592 350.969 138.758 349.965 144.007 348.927 149.435 349.372 160.01 349.816 170.585 351.305 175.907 352.746 181.053Z" fill="#D2D2D2"/><path d="M345.682 178.567C346.931 183.683 348.223 188.973 348.31 199.397 348.398 209.821 347.196 215.132 346.033 220.268 344.854 225.477 343.634 230.862 343.723 241.437 343.811 252.011 345.121 257.375 346.388 262.563 347.637 267.678 348.928 272.968 349.016 283.392 349.104 293.815 347.901 299.125 346.739 304.26 345.559 309.468 344.34 314.853 344.428 325.428 344.518 336.003 345.827 341.367 347.094 346.554 348.343 351.669 349.634 356.959 349.722 367.383 349.81 377.807 348.607 383.118 347.445 388.253 346.265 393.461 345.046 398.846 345.134 409.421 345.138 409.778 345.428 410.065 345.784 410.065 345.786 410.065 345.788 410.065 345.79 410.065 346.149 410.062 346.438 409.769 346.434 409.41 346.347 398.986 347.549 393.675 348.712 388.54 349.891 383.332 351.11 377.946 351.022 367.372 350.933 356.797 349.624 351.433 348.356 346.246 347.108 341.13 345.816 335.841 345.728 325.417 345.641 314.993 346.843 309.683 348.006 304.548 349.185 299.34 350.405 293.955 350.316 283.38 350.227 272.806 348.918 267.442 347.651 262.254 346.402 257.139 345.11 251.849 345.023 241.425 344.935 231.001 346.137 225.69 347.3 220.554 348.479 215.346 349.699 209.96 349.61 199.386 349.521 188.809 348.212 183.446 346.945 178.257 345.696 173.141 344.404 167.851 344.317 157.427 344.229 147.002 345.431 141.691 346.594 136.555 347.534 132.407 348.496 128.138 348.805 121.235 348.385 121.043 347.959 120.861 347.528 120.689 347.248 127.779 346.274 132.082 345.327 136.267 344.148 141.476 342.928 146.862 343.017 157.437 343.105 168.013 344.415 173.379 345.682 178.567Z" fill="#D2D2D2"/><path d="M308.585 393.918C307.145 399.065 305.655 404.387 305.211 414.963 305.196 415.321 305.474 415.624 305.833 415.639 305.842 415.64 305.851 415.64 305.86 415.64 306.207 415.64 306.494 415.366 306.509 415.017 306.948 404.592 308.417 399.344 309.837 394.269 311.277 389.122 312.766 383.8 313.211 373.224 313.656 362.649 312.617 357.221 311.614 351.972 310.625 346.794 309.601 341.442 310.039 331.017 310.477 320.593 311.946 315.345 313.366 310.27 314.807 305.124 316.296 299.801 316.74 289.227 317.184 278.652 316.146 273.224 315.143 267.975 314.153 262.798 313.13 257.446 313.568 247.022 314.006 236.599 315.475 231.351 316.895 226.276 318.336 221.13 319.825 215.808 320.269 205.234 320.713 194.659 319.675 189.232 318.672 183.983 317.682 178.807 316.659 173.454 317.097 163.03 317.535 152.606 319.004 147.358 320.424 142.284 321.84 137.226 323.3 131.987 323.771 121.772 323.318 122.002 322.873 122.245 322.434 122.499 321.931 132.052 320.531 137.078 319.171 141.933 317.731 147.079 316.242 152.402 315.798 162.976 315.354 173.551 316.391 178.979 317.395 184.228 318.384 189.404 319.408 194.756 318.97 205.18 318.532 215.604 317.063 220.851 315.643 225.926 314.202 231.072 312.713 236.394 312.269 246.968 311.824 257.543 312.863 262.97 313.866 268.22 314.856 273.396 315.879 278.749 315.441 289.173 315.003 299.597 313.534 304.845 312.114 309.92 310.673 315.067 309.184 320.388 308.74 330.963 308.296 341.539 309.334 346.967 310.337 352.216 311.327 357.393 312.35 362.745 311.912 373.17 311.474 383.595 310.005 388.842 308.585 393.918Z" fill="#D2D2D2"/><path d="M311.649 412.803C311.662 412.803 311.675 412.804 311.688 412.804 312.029 412.804 312.316 412.537 312.336 412.192 312.95 401.769 314.506 396.542 316.012 391.487 317.539 386.361 319.117 381.061 319.739 370.486 320.361 359.911 319.415 354.463 318.499 349.193 317.596 343.996 316.664 338.623 317.277 328.199 317.89 317.775 319.447 312.549 320.952 307.494 322.479 302.368 324.057 297.068 324.679 286.493 325.301 275.918 324.355 270.47 323.44 265.201 322.537 260.004 321.604 254.63 322.217 244.206 322.83 233.782 324.388 228.554 325.892 223.499 327.419 218.373 328.997 213.073 329.62 202.498 330.242 191.923 329.296 186.473 328.381 181.204 327.478 176.006 326.545 170.633 327.158 160.207 327.771 149.783 329.328 144.555 330.833 139.5 332.348 134.413 333.913 129.148 334.545 118.735 334.105 118.77 333.668 118.815 333.234 118.869 332.602 128.99 331.071 134.148 329.588 139.129 328.061 144.256 326.483 149.557 325.861 160.132 325.239 170.708 326.184 176.156 327.099 181.427 328.002 186.624 328.935 191.998 328.322 202.422 327.709 212.846 326.152 218.074 324.647 223.129 323.12 228.255 321.542 233.556 320.92 244.131 320.298 254.705 321.244 260.154 322.159 265.424 323.062 270.62 323.994 275.994 323.382 286.418 322.769 296.841 321.211 302.068 319.706 307.123 318.18 312.249 316.601 317.549 315.979 328.123 315.357 338.697 316.304 344.146 317.219 349.416 318.121 354.613 319.054 359.986 318.441 370.41 317.829 380.834 316.271 386.062 314.766 391.116 313.239 396.242 311.66 401.543 311.039 412.117 311.017 412.474 311.291 412.782 311.649 412.803Z" fill="#D2D2D2"/><path d="M337.631 84.55C319.182 84.55 303.871 89.5401 303.769 89.5277 305.296 92.1362 307.399 95.1028 309.711 97.4155 316.2 103.904 324.655 106.983 330.56 108.423 334.307 109.337 337.02 109.592 337.554 109.635 337.554 109.635 337.554 109.633 337.554 109.632 337.615 109.634 337.661 109.632 337.661 109.635 338.203 109.591 340.981 109.33 344.805 108.386 350.704 106.93 359.069 103.85 365.505 97.4155 367.817 95.1028 369.915 92.1446 371.443 89.5362 371.466 89.2957 356.08 84.55 337.631 84.55Z" fill="#D2D2D2"/><path d="M331.228 107.828C329.233 110.389 328.524 113.656 328.844 116.718 329.328 121.347 330.72 126.151 338.062 126.151 344.24 126.151 346.367 121.521 346.842 116.596 347.145 113.446 346.367 110.095 344.219 107.526L337.618 99.6313C337.616 99.63 337.615 99.63 337.614 99.6313L331.228 107.828Z" fill="#D2D2D2"/><path d="M341.509 103.733C341.823 103.365 342.148 103.002 342.48 102.643 342.484 102.636 342.488 102.63 342.492 102.623 342.756 102.34 343.026 102.06 343.302 101.783 354.396 90.688 371.251 89.555 371.251 89.555L371.251 89.555 371.252 89.555 371.443 89.5388C371.443 89.5388 371.587 89.2892 371.658 89.1611 377.054 79.4865 377.733 69.4661 377.733 69.4661 377.733 69.4661 360.877 70.5991 349.783 81.6939 349.424 82.0527 349.079 82.4187 348.741 82.7885 348.765 82.2737 348.778 81.7557 348.778 81.2337 348.778 65.5434 337.661 52.8235 337.661 52.8235 337.661 52.8235 326.544 65.5434 326.544 81.2337 326.544 81.7999 326.563 82.3608 326.591 82.9185 326.215 82.5045 325.833 82.0944 325.433 81.6939 314.339 70.5991 297.484 69.4661 297.484 69.4661 297.484 69.4661 298.162 79.482 303.555 89.1553 303.626 89.2833 303.774 89.5414 303.774 89.5414L303.965 89.5557 303.965 89.5557 303.965 89.5557C303.965 89.5557 320.82 90.6893 331.915 101.783 331.97 101.839 332.374 102.272 332.429 102.327 332.723 102.626 332.87 102.788 333.037 102.978 333.309 103.28 333.577 103.586 333.837 103.895 335.284 105.607 336.537 107.407 337.608 109.234 338.714 107.349 340.006 105.492 341.509 103.733L341.509 103.733Z" fill="#E6E6E6"/><path d="M240.513 434.855 230.63 147.684C230.755 131.678 217.815 118.637 201.809 118.637L201.809 118.637C186.426 118.637 173.755 130.717 173.02 146.082L166.518 282.076C146.273 274.878 131.474 256.02 130.396 233.387L126.14 176.507C125.755 168.416 119.083 162.054 110.982 162.054 102.601 162.054 95.8067 168.849 95.8067 177.23L95.8067 268.699C95.8067 290.664 109.014 310.474 129.289 318.922L164.064 333.412 159.214 434.855 240.513 434.855Z" fill="#737373"/><path d="M106.712 269.588C106.353 269.588 106.062 269.297 106.062 268.938L106.062 259.056C106.062 258.697 106.353 258.406 106.712 258.406 107.071 258.406 107.362 258.697 107.362 259.056L107.362 268.938C107.362 269.297 107.071 269.588 106.712 269.588Z" fill="#505050"/><path d="M128.946 289.351C128.587 289.351 128.296 289.06 128.296 288.701L128.296 278.819C128.296 278.461 128.587 278.169 128.946 278.169 129.304 278.169 129.596 278.461 129.596 278.819L129.596 288.701C129.596 289.061 129.304 289.351 128.946 289.351Z" fill="#505050"/><path d="M134.91 310.138C134.744 310.138 134.577 310.075 134.451 309.948L127.463 302.96C127.209 302.706 127.209 302.296 127.463 302.041 127.717 301.787 128.128 301.787 128.382 302.041L135.37 309.029C135.624 309.283 135.624 309.694 135.37 309.948 135.243 310.075 135.076 310.138 134.91 310.138Z" fill="#505050"/><path d="M169.497 315.756C169.33 315.756 169.164 315.693 169.037 315.566L162.05 308.578C161.795 308.324 161.795 307.913 162.05 307.659 162.304 307.405 162.714 307.405 162.969 307.659L169.956 314.647C170.21 314.901 170.21 315.312 169.956 315.566 169.829 315.693 169.663 315.756 169.497 315.756Z" fill="#505050"/><path d="M115.571 216.685C115.212 216.685 114.921 216.394 114.921 216.035L114.921 206.153C114.921 205.795 115.212 205.503 115.571 205.503 115.929 205.503 116.221 205.795 116.221 206.153L116.221 216.035C116.221 216.394 115.929 216.685 115.571 216.685Z" fill="#505050"/><path d="M191.104 265.044C190.745 265.044 190.454 264.753 190.454 264.394L190.454 254.512C190.454 254.153 190.745 253.862 191.104 253.862 191.463 253.862 191.754 254.153 191.754 254.512L191.754 264.394C191.754 264.753 191.463 265.044 191.104 265.044Z" fill="#505050"/><path d="M220.264 185.372C220.098 185.372 219.931 185.308 219.805 185.181 219.55 184.927 219.55 184.516 219.805 184.262L226.792 177.275C227.046 177.02 227.457 177.02 227.711 177.275 227.965 177.529 227.965 177.939 227.711 178.194L220.724 185.181C220.597 185.308 220.431 185.372 220.264 185.372Z" fill="#505050"/><path d="M225.25 348.05C225.083 348.05 224.917 347.987 224.79 347.86 224.536 347.606 224.536 347.195 224.79 346.941L231.778 339.953C232.032 339.699 232.443 339.699 232.697 339.953 232.951 340.207 232.951 340.618 232.697 340.872L225.709 347.86C225.582 347.987 225.416 348.05 225.25 348.05Z" fill="#505050"/><path d="M208.632 218.791C208.465 218.791 208.299 218.727 208.172 218.6L201.185 211.613C200.931 211.359 200.931 210.948 201.185 210.694 201.439 210.439 201.85 210.439 202.104 210.694L209.091 217.681C209.345 217.935 209.345 218.346 209.091 218.6 208.964 218.727 208.798 218.791 208.632 218.791Z" fill="#505050"/><path d="M184.116 368.505C183.95 368.505 183.784 368.441 183.657 368.315 183.403 368.061 183.403 367.65 183.657 367.396L190.644 360.408C190.898 360.154 191.309 360.154 191.563 360.408 191.818 360.662 191.818 361.073 191.563 361.327L184.576 368.315C184.449 368.442 184.283 368.505 184.116 368.505Z" fill="#505050"/><path d="M205.926 391.037C205.568 391.037 205.276 390.746 205.276 390.387L205.276 380.505C205.276 380.145 205.568 379.855 205.926 379.855 206.285 379.855 206.576 380.145 206.576 380.505L206.576 390.387C206.576 390.746 206.285 391.037 205.926 391.037Z" fill="#505050"/><path d="M110.122 296.505C109.764 296.505 109.472 296.214 109.472 295.855L109.472 285.974C109.472 285.615 109.764 285.324 110.122 285.324 110.481 285.324 110.772 285.615 110.772 285.974L110.772 295.856C110.772 296.215 110.482 296.505 110.122 296.505Z" fill="#505050"/><path d="M163.904 418.108C163.913 418.109 163.922 418.109 163.931 418.109 164.278 418.109 164.566 417.835 164.581 417.486 165.019 407.061 166.488 401.812 167.908 396.737 169.348 391.59 170.838 386.268 171.282 375.693 171.727 365.117 170.689 359.689 169.685 354.44 168.695 349.263 167.672 343.91 168.11 333.486 168.548 323.062 170.017 317.814 171.438 312.738 172.878 307.592 174.367 302.27 174.812 291.695 175.256 281.12 174.218 275.692 173.215 270.443 172.225 265.267 171.202 259.914 171.64 249.49 172.078 239.067 173.547 233.819 174.967 228.744 176.407 223.598 177.897 218.276 178.34 207.702 178.785 197.127 177.747 191.7 176.743 186.451 175.754 181.275 174.73 175.922 175.168 165.498 175.607 155.074 177.076 149.826 178.496 144.752 179.787 140.139 181.115 135.373 181.696 126.823 181.207 127.3 180.735 127.794 180.281 128.305 179.658 135.756 178.435 140.146 177.244 144.402 175.804 149.548 174.314 154.87 173.87 165.445 173.425 176.019 174.463 181.447 175.467 186.696 176.457 191.872 177.48 197.225 177.042 207.649 176.604 218.072 175.135 223.32 173.714 228.395 172.274 233.541 170.785 238.863 170.341 249.437 169.896 260.012 170.934 265.439 171.938 270.689 172.928 275.865 173.951 281.217 173.513 291.641 173.075 302.066 171.606 307.314 170.186 312.389 168.745 317.535 167.256 322.857 166.811 333.432 166.367 344.008 167.405 349.436 168.408 354.685 169.398 359.862 170.422 365.215 169.983 375.64 169.545 386.064 168.076 391.312 166.656 396.388 165.216 401.535 163.727 406.856 163.282 417.433 163.266 417.79 163.545 418.092 163.904 418.108Z" fill="#505050"/><path d="M180.767 393.938C179.5 399.125 178.19 404.49 178.101 415.065 178.099 415.424 178.387 415.717 178.746 415.72 178.748 415.72 178.749 415.72 178.751 415.72 179.107 415.72 179.399 415.433 179.401 415.076 179.489 404.652 180.781 399.363 182.029 394.247 183.296 389.06 184.606 383.696 184.695 373.121 184.784 362.546 183.565 357.161 182.385 351.953 181.222 346.817 180.019 341.507 180.107 331.083 180.195 320.66 181.486 315.37 182.735 310.255 184.002 305.068 185.312 299.704 185.401 289.13 185.49 278.555 184.27 273.17 183.091 267.962 181.928 262.826 180.725 257.516 180.813 247.092 180.901 236.668 182.192 231.378 183.441 226.262 184.708 221.075 186.018 215.71 186.107 205.135 186.196 194.561 184.976 189.174 183.797 183.966 182.634 178.829 181.431 173.519 181.519 163.094 181.607 152.669 182.898 147.379 184.147 142.264 185.342 137.368 186.575 132.31 186.785 122.87 186.335 123.146 185.893 123.432 185.459 123.732 185.196 132.46 184.024 137.287 182.884 141.955 181.617 147.143 180.307 152.508 180.218 163.084 180.129 173.659 181.349 179.045 182.528 184.254 183.691 189.39 184.894 194.7 184.806 205.125 184.718 215.549 183.427 220.839 182.178 225.955 180.911 231.143 179.601 236.507 179.512 247.082 179.423 257.657 180.643 263.042 181.823 268.25 182.985 273.385 184.188 278.696 184.1 289.12 184.012 299.543 182.721 304.832 181.472 309.948 180.205 315.135 178.896 320.499 178.807 331.073 178.717 341.648 179.937 347.033 181.117 352.241 182.279 357.376 183.482 362.687 183.394 373.11 183.308 383.534 182.016 388.823 180.767 393.938Z" fill="#505050"/><path d="M219.593 184.031C221.03 189.276 222.516 194.7 222.986 205.474 223.456 216.248 222.448 221.78 221.474 227.13 220.486 232.551 219.466 238.156 219.942 249.076 220.419 259.996 221.924 265.492 223.38 270.806 224.816 276.052 226.302 281.475 226.772 292.25 227.242 303.024 226.234 308.557 225.26 313.907 224.273 319.328 223.252 324.934 223.729 335.855 224.205 346.776 225.71 352.272 227.166 357.587 228.602 362.833 230.088 368.257 230.558 379.032 231.028 389.807 230.021 395.34 229.046 400.691 228.059 406.112 227.038 411.718 227.515 422.639 227.53 422.987 227.818 423.26 228.164 423.26 228.173 423.26 228.183 423.26 228.192 423.26 228.551 423.244 228.829 422.941 228.814 422.582 228.344 411.807 229.351 406.274 230.326 400.924 231.313 395.502 232.333 389.896 231.857 378.975 231.38 368.054 229.876 362.558 228.42 357.243 226.983 351.998 225.497 346.573 225.027 335.798 224.557 325.023 225.565 319.491 226.539 314.14 227.527 308.719 228.547 303.114 228.071 292.193 227.594 281.273 226.089 275.777 224.633 270.463 223.197 265.218 221.711 259.794 221.241 249.02 220.771 238.246 221.779 232.714 222.753 227.363 223.74 221.943 224.761 216.338 224.284 205.418 223.808 194.498 222.303 189.002 220.847 183.688 219.411 178.443 217.925 173.019 217.455 162.245 216.985 151.47 217.992 145.938 218.967 140.587 219.718 136.46 220.487 132.22 220.602 125.616 220.182 125.254 219.755 124.903 219.314 124.565 219.265 131.669 218.467 136.074 217.688 140.354 216.7 145.775 215.68 151.38 216.156 162.3 216.633 173.22 218.138 178.717 219.593 184.031Z" fill="#505050"/><path d="M216.608 418.756C216.267 418.756 215.98 418.49 215.959 418.144 215.337 407.57 216.284 402.121 217.199 396.851 218.101 391.655 219.034 386.281 218.421 375.857 217.808 365.433 216.252 360.206 214.746 355.152 213.219 350.026 211.641 344.725 211.019 334.15 210.397 323.576 211.343 318.128 212.258 312.858 213.16 307.662 214.094 302.288 213.48 291.865 212.867 281.441 211.31 276.214 209.805 271.159 208.278 266.033 206.7 260.733 206.078 250.158 205.456 239.583 206.402 234.134 207.318 228.864 208.22 223.668 209.153 218.294 208.54 207.869 207.927 197.444 206.37 192.217 204.864 187.162 203.338 182.036 201.759 176.734 201.137 166.16 200.515 155.585 201.461 150.135 202.376 144.865 203.278 139.668 204.212 134.294 203.599 123.869 203.577 123.511 203.851 123.204 204.209 123.182 204.577 123.154 204.875 123.434 204.896 123.792 205.518 134.367 204.572 139.817 203.657 145.087 202.754 150.284 201.821 155.657 202.435 166.083 203.048 176.507 204.604 181.735 206.11 186.79 207.637 191.916 209.215 197.217 209.837 207.793 210.459 218.367 209.513 223.816 208.597 229.086 207.695 234.283 206.762 239.656 207.375 250.081 207.988 260.505 209.545 265.732 211.05 270.787 212.577 275.913 214.155 281.213 214.778 291.788 215.4 302.362 214.453 307.81 213.538 313.08 212.636 318.276 211.702 323.649 212.316 334.073 212.929 344.497 214.486 349.724 215.991 354.778 217.518 359.904 219.096 365.205 219.718 375.779 220.34 386.354 219.394 391.802 218.479 397.073 217.576 402.269 216.643 407.643 217.256 418.067 217.277 418.425 217.004 418.733 216.646 418.754 216.633 418.755 216.621 418.756 216.608 418.756Z" fill="#505050"/><path d="M201.063 84.5864C182.614 84.5864 167.303 89.5765 167.201 89.5641 168.728 92.1726 170.83 95.1392 173.142 97.4519 179.632 103.941 188.087 107.019 193.992 108.46 197.738 109.374 200.452 109.628 200.986 109.672 200.986 109.672 200.986 109.669 200.986 109.669 201.046 109.671 201.092 109.669 201.093 109.672 201.635 109.628 204.413 109.366 208.237 108.423 214.135 106.967 222.501 103.886 228.936 97.4519 231.249 95.1392 233.347 92.181 234.874 89.5726 234.898 89.3321 219.513 84.5864 201.063 84.5864Z" fill="#737373"/><path d="M194.659 107.865C192.665 110.425 191.955 113.692 192.276 116.754 192.76 121.384 194.152 126.187 201.493 126.187 207.672 126.187 209.799 121.557 210.274 116.632 210.577 113.482 209.799 110.131 207.65 107.562L201.05 99.6677C201.048 99.6664 201.046 99.6664 201.046 99.6677L194.659 107.865Z" fill="#505050"/><path d="M204.94 103.77C205.255 103.401 205.579 103.039 205.912 102.679 205.916 102.672 205.92 102.666 205.924 102.66 206.188 102.376 206.458 102.096 206.734 101.819 217.828 90.7244 234.683 89.5914 234.683 89.5914L234.683 89.5914 234.684 89.5914 234.878 89.5746C234.878 89.5746 235.002 89.3548 235.063 89.2456 240.484 79.5561 241.164 69.5025 241.164 69.5025 241.164 69.5025 224.309 70.6355 213.215 81.7303 212.856 82.0891 212.511 82.4551 212.172 82.8249 212.196 82.3101 212.21 81.7921 212.21 81.2701 212.21 65.5798 201.093 52.8599 201.093 52.8599 201.093 52.8599 189.976 65.5798 189.976 81.2701 189.976 81.8363 189.994 82.3972 190.022 82.9549 189.647 82.5409 189.265 82.1308 188.865 81.7303 177.77 70.6355 160.915 69.5025 160.915 69.5025 160.915 69.5025 161.601 79.6237 167.071 89.3425 167.114 89.4198 167.205 89.5746 167.205 89.5746L167.396 89.5914 167.396 89.5914 167.396 89.5914C167.396 89.5914 184.252 90.725 195.346 101.819 195.401 101.874 195.805 102.307 195.86 102.363 196.154 102.662 196.301 102.824 196.468 103.013 196.74 103.316 197.008 103.622 197.268 103.93 198.715 105.643 199.968 107.443 201.039 109.27 202.145 107.386 203.438 105.529 204.94 103.77L204.94 103.77Z" fill="#0E9DD4"/><path d="M217.287 441.628C215.663 460.699 184.551 460.545 159.608 458.424 134.665 456.302 125.336 453.016 126.959 433.945 128.582 414.874 150.117 401.134 175.061 403.256 200.004 405.378 218.91 422.558 217.287 441.628Z" fill="#D2D2D2"/><path d="M492.53 364.311C492.53 394.768 467.84 419.457 437.384 419.457 406.927 419.457 382.238 394.768 382.238 364.311 382.238 333.855 406.927 309.165 437.384 309.165 467.84 309.165 492.53 333.855 492.53 364.311Z" fill="#737373"/><path d="M407.943 394.971C407.84 394.971 407.737 394.931 407.657 394.853 407.498 394.696 407.496 394.438 407.654 394.279 408.268 393.658 409.443 392.81 410.932 391.737 414.36 389.265 419.541 385.53 420.705 382.147 422.94 375.651 421.687 370.655 420.477 365.823 419.342 361.299 418.271 357.026 420.504 352.253 422.378 348.246 425.216 346.834 428.221 345.341 431.447 343.737 435.105 341.919 438.287 336.422 439.823 333.768 440.52 331.529 441.135 329.555 441.971 326.875 442.692 324.561 445.209 322.429 448.889 319.312 454.34 318.284 461.409 319.376 461.631 319.409 461.783 319.617 461.748 319.839 461.714 320.06 461.507 320.211 461.285 320.178 454.459 319.125 449.226 320.091 445.734 323.048 443.396 325.028 442.74 327.133 441.91 329.797 441.282 331.812 440.571 334.096 438.989 336.829 435.685 342.538 431.911 344.414 428.582 346.07 425.584 347.56 422.994 348.847 421.24 352.597 419.129 357.109 420.118 361.056 421.264 365.627 422.447 370.343 423.786 375.688 421.473 382.413 420.225 386.038 415.128 389.714 411.407 392.397 410.007 393.407 408.799 394.278 408.232 394.852 408.153 394.93 408.048 394.971 407.943 394.971Z" fill="#505050"/><path d="M410.621 402.392C408.472 402.392 406.948 402.32 406.298 402.282 406.074 402.269 405.901 402.077 405.914 401.853 405.927 401.629 406.115 401.473 406.341 401.471 410.088 401.69 443.279 403.072 456.128 384.771 456.267 384.573 459.547 379.866 461.907 373.381 464.901 365.152 465.109 357.952 462.524 351.978 461.311 349.175 459.67 347.218 458.223 345.49 456.188 343.062 454.431 340.964 454.301 337.386 454.029 329.893 458.704 322.665 465.933 319.402 466.138 319.308 466.378 319.4 466.471 319.604 466.563 319.808 466.472 320.049 466.268 320.141 459.335 323.272 454.853 330.19 455.112 337.357 455.232 340.657 456.906 342.654 458.845 344.968 460.328 346.738 462.009 348.744 463.269 351.655 469.717 366.554 457.323 384.482 456.792 385.237 445.938 400.7 421.006 402.392 410.621 402.392Z" fill="#505050"/><path d="M420.942 405.113C418.588 405.113 417.021 405.042 416.811 405.033 412.792 404.839 408.697 404.459 404.638 403.904 404.416 403.874 404.26 403.668 404.29 403.446 404.321 403.224 404.526 403.07 404.748 403.098 408.783 403.65 412.855 404.028 416.85 404.22 417.027 404.227 434.752 405.023 444.048 400.995 445.73 400.267 446.471 399.816 447.409 399.246 448.458 398.607 449.765 397.812 452.873 396.334 457.591 394.092 461.515 392.623 464.668 391.443 470.233 389.36 473.298 388.213 474.136 385.349 474.48 384.173 474.211 383.527 473.804 382.549 473.425 381.637 472.953 380.502 472.784 378.558 472.319 373.209 474.908 369.689 477.192 366.584 479.096 363.993 480.895 361.547 480.751 358.378 480.568 354.345 477.36 351.914 473.964 349.34 470.39 346.631 466.695 343.83 465.718 338.865 464.742 333.897 466.847 328.342 471.975 322.353 472.121 322.182 472.377 322.162 472.547 322.308 472.718 322.454 472.738 322.711 472.592 322.881 467.634 328.671 465.59 333.996 466.515 338.708 467.432 343.369 471.002 346.076 474.455 348.693 478.007 351.385 481.362 353.928 481.563 358.342 481.72 361.797 479.838 364.356 477.846 367.065 475.54 370.202 473.155 373.445 473.593 378.488 473.751 380.307 474.196 381.378 474.555 382.238 474.993 383.293 475.34 384.127 474.915 385.577 473.964 388.832 470.571 390.101 464.952 392.204 461.814 393.379 457.908 394.84 453.222 397.068 450.151 398.529 448.864 399.311 447.83 399.94 446.866 400.527 446.104 400.99 444.371 401.742 437.609 404.672 426.823 405.113 420.942 405.113Z" fill="#505050"/><path d="M451.818 374.576 423.469 374.576C423.463 374.576 423.461 374.569 423.465 374.565L448.36 349.67C448.519 349.512 448.519 349.254 448.36 349.095 448.202 348.938 447.944 348.938 447.786 349.095L422.185 374.695C422.181 374.699 422.066 374.815 422.066 374.964 422.066 375.155 422.15 375.235 422.185 375.27L433.649 386.733C433.728 386.812 433.832 386.852 433.936 386.852 434.04 386.852 434.144 386.812 434.223 386.733 434.382 386.574 434.382 386.317 434.223 386.159L423.464 375.399C423.46 375.395 423.463 375.389 423.468 375.389L451.818 375.389C452.042 375.389 452.224 375.207 452.224 374.982 452.224 374.758 452.042 374.576 451.818 374.576Z" fill="#505050"/><path d="M508.693 404.656 473.537 404.656C473.511 404.656 473.383 404.65 473.26 404.763 473.14 404.875 473.131 405.012 473.131 405.062L473.131 414.474C473.131 414.699 473.313 414.881 473.537 414.881 473.762 414.881 473.944 414.699 473.944 414.474L473.944 406.058C473.944 406.052 473.95 406.049 473.954 406.053L488.829 420.928C488.908 421.007 489.012 421.047 489.116 421.047 489.22 421.047 489.324 421.006 489.403 420.928 489.562 420.769 489.562 420.512 489.403 420.353L474.529 405.478C474.525 405.475 474.527 405.468 474.533 405.468L508.693 405.468C508.917 405.468 509.099 405.286 509.099 405.062 509.099 404.838 508.917 404.656 508.693 404.656Z" fill="#505050"/><path d="M438.926 296.596C438.767 296.438 438.509 296.438 438.351 296.596L424.155 310.793C424.151 310.797 424.145 310.794 424.145 310.788L424.145 294.626C424.145 294.402 423.962 294.22 423.738 294.22 423.514 294.22 423.332 294.402 423.332 294.626L423.332 310.788C423.332 310.794 423.326 310.796 423.322 310.792L416.894 304.364C416.735 304.206 416.478 304.206 416.319 304.364 416.161 304.523 416.161 304.78 416.319 304.939L423.452 312.071C423.455 312.075 423.561 312.19 423.737 312.19 423.912 312.19 424.011 312.087 424.026 312.071 424.026 312.071 424.026 312.071 424.027 312.071L438.927 297.172C439.084 297.013 439.084 296.755 438.926 296.596Z" fill="#505050"/><path d="M394.761 329.617C394.618 329.76 394.474 329.764 394.415 329.764L385.328 329.764C385.065 329.764 384.853 329.551 384.853 329.289 384.853 329.026 385.065 328.813 385.328 328.813L393.253 328.813C393.258 328.813 393.261 328.806 393.257 328.802L387.693 323.238C387.507 323.053 387.507 322.751 387.693 322.566 387.785 322.473 387.907 322.426 388.029 322.426 388.15 322.426 388.272 322.473 388.365 322.566L393.929 328.13C393.933 328.134 393.94 328.132 393.94 328.126L393.94 319.855C393.94 319.592 394.152 319.379 394.415 319.379 394.677 319.379 394.89 319.592 394.89 319.855L394.89 329.289C394.891 329.32 394.886 329.491 394.761 329.617Z" fill="#505050"/><path d="M471.658 302.698C462.773 302.156 456.921 312.064 461.926 319.425 462.326 320.013 462.766 320.585 463.243 321.141 463.403 321.327 463.565 321.511 463.729 321.69 470.168 328.678 481.892 324.296 482.438 314.809L483.095 303.395 471.658 302.698Z" fill="#505050"/><path d="M528.193 314.634C528.193 314.634 522.171 307.973 513.313 303.814 516.859 297.65 518.275 292.159 518.275 292.159 518.275 292.159 507.881 288.304 496.775 289.712 498.184 278.607 494.328 268.213 494.328 268.213 494.328 268.213 488.814 269.634 482.634 273.197 478.479 264.278 471.764 258.205 471.764 258.205 471.764 258.205 457.632 270.887 457.612 286.572 457.601 295.172 463.919 305.924 464.77 307.284 465.621 308.643 467.448 311.295 468.149 312.074 469.604 313.691 472.367 316.447 473.702 317.674 474.646 318.542 477.805 320.79 479.948 322.089 482.091 323.387 491.297 328.797 499.826 328.786 515.512 328.766 528.193 314.634 528.193 314.634Z" fill="#0E9DD4"/><path d="M489.534 302.468C488.796 301.235 487.876 300.077 486.802 299.003 485.921 298.122 484.984 297.345 483.996 296.686 481.943 302.422 478.57 307.254 475.872 310.517 475.851 310.543 475.854 310.547 475.88 310.525 479.109 307.854 483.88 304.526 489.534 302.468Z" fill="#FFFFFF"/><path d="M502.898 330.283C497.901 325.625 485.705 315.784 471.315 315.132 471.284 315.131 471.259 315.106 471.257 315.074 470.602 300.594 460.641 288.336 456.019 283.399 454.685 281.973 453.792 281.161 453.697 281.082 453.692 281.077 453.69 281.082 453.69 281.09 454.291 298.986 469.236 313.574 471.082 315.31 472.835 317.171 487.422 332.09 505.306 332.691 505.315 332.691 505.319 332.689 505.313 332.683 505.224 332.585 504.376 331.661 502.898 330.283Z" fill="#505050"/><path d="M397.279 463.937C397.279 515.99 355.082 558.187 303.029 558.187 250.976 558.187 208.779 515.99 208.779 463.937 208.779 411.885 250.976 369.687 303.029 369.687 355.082 369.687 397.279 411.885 397.279 463.937Z" fill="#505050"/><path d="M280.279 527.313C280.138 527.313 279.995 527.276 279.865 527.199 255.873 512.991 239.804 489.813 238.845 479.45 238.278 473.309 239.763 468.289 241.819 461.339 243.738 454.854 246.126 446.781 247.786 434.579 248.733 427.623 248.587 423.667 248.481 420.777 248.371 417.821 248.293 415.684 249.452 412.475 254.269 399.135 269.773 389.394 295.536 383.521 295.974 383.419 296.409 383.695 296.509 384.132 296.609 384.57 296.335 385.005 295.898 385.105 270.709 390.847 255.598 400.241 250.981 413.026 249.93 415.939 249.996 417.738 250.105 420.718 250.214 423.665 250.362 427.703 249.397 434.797 247.719 447.123 245.311 455.261 243.377 461.8 241.372 468.575 239.924 473.471 240.463 479.301 241.259 487.911 255.384 510.814 280.693 525.801 281.079 526.03 281.206 526.529 280.978 526.915 280.827 527.17 280.556 527.313 280.279 527.313Z" fill="#737373"/><path d="M309.53 550.875C309.514 550.875 309.498 550.874 309.483 550.873 309.035 550.848 308.692 550.463 308.718 550.015 309.314 539.694 307.435 530.549 303.132 522.833 300.071 517.342 296.897 514.585 291.64 510.019 290.283 508.839 288.744 507.502 287.048 505.979 285.297 504.406 283.61 502.898 281.988 501.449 264.003 485.379 254.095 476.526 255.095 465.489 255.531 460.675 257.644 457.222 259.881 453.565 262.503 449.281 265.474 444.424 266.473 436.215 267.312 429.32 266.211 424.751 265.241 420.72 264.256 416.629 263.405 413.095 264.88 408.442 267.932 398.811 279.061 391.52 297.956 386.775 298.391 386.662 298.833 386.929 298.942 387.365 299.051 387.8 298.787 388.242 298.352 388.351 280.04 392.95 269.3 399.875 266.428 408.933 265.091 413.154 265.854 416.325 266.82 420.339 267.823 424.504 268.96 429.224 268.085 436.411 267.044 444.971 263.975 449.988 261.267 454.414 259.039 458.056 257.115 461.2 256.713 465.636 255.787 475.859 265.478 484.518 283.07 500.237 284.693 501.687 286.382 503.196 288.134 504.77 289.819 506.285 291.353 507.616 292.705 508.792 298.096 513.476 301.35 516.302 304.55 522.042 309.006 530.031 310.953 539.475 310.339 550.109 310.315 550.541 309.957 550.875 309.53 550.875Z" fill="#737373"/><path d="M315.217 540.312C315.18 540.312 315.143 540.309 315.105 540.305 314.66 540.244 314.35 539.833 314.411 539.389 315.425 532.051 314.89 525.065 312.818 518.624 309.234 507.48 302.416 501.938 295.824 496.579 289.622 491.536 283.764 486.774 281.921 477.915 280.374 470.472 282.82 465.617 285.41 460.478 288.175 454.993 291.308 448.776 290.035 438.032 289.42 432.841 288.083 429.071 286.905 425.745 285.296 421.205 283.906 417.285 285.174 411.755 287.025 403.688 293.45 396.674 304.271 390.907 304.668 390.697 305.159 390.846 305.371 391.242 305.582 391.638 305.432 392.13 305.036 392.341 294.648 397.877 288.499 404.531 286.758 412.119 285.595 417.188 286.849 420.724 288.436 425.203 289.643 428.609 291.011 432.469 291.648 437.842 292.978 449.071 289.728 455.52 286.861 461.209 284.294 466.3 282.079 470.696 283.511 477.584 285.236 485.878 290.618 490.252 296.848 495.318 303.309 500.57 310.632 506.523 314.364 518.125 316.511 524.801 317.068 532.03 316.02 539.61 315.965 540.018 315.617 540.312 315.217 540.312Z" fill="#737373"/><path d="M329.03 551.688C328.767 551.688 328.508 551.559 328.351 551.323 328.104 550.948 328.206 550.445 328.581 550.196 330.076 549.208 365.176 525.526 363.967 485.9 363.92 484.356 362.547 447.947 339.188 434.58 334.674 431.997 330.433 431.001 326.691 430.122 321.398 428.878 316.828 427.805 312.959 423.01 304.758 412.843 303.77 398.456 310.443 386.357 310.66 385.964 311.153 385.822 311.546 386.038 311.939 386.255 312.082 386.749 311.865 387.142 305.611 398.483 306.558 412.487 314.224 421.99 317.742 426.351 322.061 427.365 327.062 428.54 330.912 429.445 335.275 430.47 339.995 433.17 364.134 446.982 365.543 484.27 365.591 485.85 366.827 526.372 331.003 550.543 329.477 551.552 329.339 551.644 329.184 551.688 329.03 551.688Z" fill="#737373"/><path d="M330.054 494.812C330.054 497.954 327.507 500.5 324.366 500.5 321.225 500.5 318.679 497.954 318.679 494.812 318.679 491.671 321.225 489.125 324.366 489.125 327.507 489.125 330.054 491.671 330.054 494.812Z" fill="#737373"/><path d="M346.303 510.25C346.303 512.942 344.12 515.125 341.428 515.125 338.736 515.125 336.553 512.942 336.553 510.25 336.553 507.557 338.736 505.375 341.428 505.375 344.12 505.375 346.303 507.557 346.303 510.25Z" fill="#737373"/><path d="M348.741 493.594C348.741 496.51 346.376 498.875 343.459 498.875 340.543 498.875 338.178 496.51 338.178 493.594 338.178 490.677 340.542 488.312 343.459 488.312 346.376 488.312 348.74 490.677 348.741 493.594Z" fill="#737373"/><path d="M406.994 386.012 360.221 386.012C360.215 386.012 360.212 386.006 360.216 386.002L382.012 364.206C382.329 363.888 382.329 363.375 382.012 363.057 381.695 362.74 381.181 362.74 380.863 363.057L359.067 384.853C359.063 384.857 359.057 384.854 359.057 384.848L359.057 371.313C359.057 370.864 358.693 370.501 358.244 370.501 357.796 370.501 357.432 370.865 357.432 371.313L357.432 386.825C357.432 387.016 357.499 387.235 357.655 387.39 357.822 387.557 358.026 387.637 358.244 387.637L406.994 387.637C407.443 387.637 407.807 387.273 407.807 386.825 407.807 386.376 407.443 386.012 406.994 386.012Z" fill="#505050"/><path d="M212.009 451.16 200.634 402.004C200.532 401.567 200.095 401.292 199.659 401.396 199.221 401.497 198.949 401.934 199.05 402.371L210.193 450.523C210.194 450.527 210.191 450.531 210.187 450.531L178.682 450.531C178.234 450.531 177.87 450.895 177.87 451.344 177.87 451.792 178.234 452.156 178.682 452.156L209.241 452.156C209.247 452.156 209.249 452.163 209.245 452.167L177.923 483.49C177.605 483.807 177.605 484.321 177.923 484.639 178.081 484.797 178.289 484.877 178.497 484.877 178.705 484.877 178.913 484.797 179.072 484.639L211.792 451.918C211.852 451.859 211.953 451.735 211.997 451.577 212.043 451.409 212.036 451.27 212.009 451.16Z" fill="#737373"/><path d="M341.003 434.06C340.835 433.893 340.634 433.8 340.404 433.8L305.432 433.8C304.984 433.8 304.62 434.164 304.62 434.613 304.62 435.062 304.984 435.425 305.432 435.425L338.428 435.425C338.434 435.425 338.436 435.432 338.432 435.436L310.119 463.748C309.802 464.066 309.802 464.58 310.119 464.898 310.277 465.056 310.486 465.135 310.693 465.135 310.901 465.135 311.109 465.056 311.268 464.898L339.581 436.584C339.585 436.58 339.592 436.583 339.592 436.589L339.592 469.625C339.592 470.074 339.956 470.437 340.404 470.437 340.853 470.437 341.217 470.074 341.217 469.625L341.217 434.613C341.217 434.48 341.168 434.225 341.003 434.06Z" fill="#737373"/><path d="M243.318 488.842C243.192 488.538 242.897 488.34 242.568 488.34L192.321 488.34C191.873 488.34 191.509 488.704 191.509 489.152 191.509 489.601 191.873 489.965 192.321 489.965L240.591 489.965C240.597 489.965 240.599 489.971 240.596 489.975L197.776 532.795C197.459 533.112 197.459 533.626 197.776 533.944 197.935 534.102 198.143 534.182 198.351 534.182 198.559 534.182 198.767 534.102 198.925 533.944L241.745 491.124C241.749 491.12 241.755 491.123 241.755 491.129L241.755 516.574C241.755 517.023 242.119 517.386 242.568 517.386 243.016 517.386 243.38 517.023 243.38 516.574L243.38 489.761C243.38 489.374 243.413 489.069 243.318 488.842Z" fill="#737373"/><path d="M291.03 359.38C280.345 370.412 286.95 389.093 302.229 390.645 303.336 390.758 304.463 390.812 305.605 390.812 305.983 390.812 306.358 390.807 306.732 390.794 323.023 390.269 330.483 370.16 318.737 358.86L304.658 345.316C304.656 345.314 304.652 345.314 304.65 345.316L291.03 359.38Z" fill="#737373"/><path d="M309.637 374.067C318.588 373.199 342.226 370.928 357.308 355.809 376.168 336.9 374.499 304.666 374.486 304.426 374.486 304.422 374.487 304.424 374.484 304.424 374.304 304.415 359.073 303.686 343.439 309.327 343.435 309.328 343.431 309.327 343.431 309.323 340.29 297.671 335.408 289.368 335.339 289.252 335.337 289.249 335.34 289.25 335.337 289.251 335.173 289.327 318.065 297.212 306.404 312.253 306.401 312.256 306.396 312.256 306.394 312.253 294.732 297.212 277.624 289.327 277.46 289.251 277.458 289.25 277.46 289.249 277.458 289.252 277.39 289.368 272.488 297.705 269.348 309.395 269.347 309.399 269.343 309.401 269.34 309.399 253.636 303.681 238.278 304.415 238.099 304.424 238.096 304.424 238.098 304.422 238.097 304.426 238.084 304.666 236.415 336.9 255.275 355.809 270.38 370.951 294.181 373.069 303.117 374.068 304.723 374.248 307.336 374.289 309.637 374.067Z" fill="#0E9DD4"/><path d="M306.298 362.666C306.974 355.538 308.717 345.748 313.059 336.441 310.679 335.843 308.17 335.556 305.575 335.556 303.447 335.556 301.377 335.749 299.388 336.147 303.83 345.542 305.603 355.463 306.286 362.666 306.289 362.7 306.294 362.7 306.298 362.666Z" fill="#FFFFFF"/><path d="M298.121 334.426C297.83 334.426 297.549 334.27 297.403 333.995 295.03 329.541 292.17 325.62 288.901 322.343 284.353 317.784 278.602 314.045 271.809 311.23 271.395 311.058 271.198 310.582 271.37 310.168 271.541 309.753 272.017 309.557 272.431 309.728 279.423 312.625 285.351 316.483 290.051 321.195 293.433 324.585 296.39 328.635 298.837 333.231 299.049 333.627 298.899 334.119 298.502 334.33 298.38 334.396 298.249 334.426 298.121 334.426Z" fill="#FFFFFF"/><path d="M314.691 334.426C314.562 334.426 314.432 334.395 314.309 334.33 313.914 334.12 313.763 333.627 313.974 333.231 316.422 328.635 319.378 324.586 322.76 321.195 327.46 316.483 333.388 312.625 340.38 309.728 340.795 309.557 341.27 309.752 341.442 310.168 341.613 310.582 341.416 311.057 341.002 311.23 334.209 314.045 328.459 317.784 323.911 322.343 320.642 325.62 317.781 329.541 315.409 333.995 315.263 334.27 314.982 334.426 314.691 334.426Z" fill="#FFFFFF"/><path d="M368.66 354.192C368.664 354.188 368.666 354.182 368.66 354.181 368.446 354.162 364.77 353.972 359.091 354.341 346.136 355.181 322.762 358.871 306.322 373.907 306.299 373.928 306.263 373.928 306.24 373.907 289.771 358.845 266.343 355.168 253.402 354.337 247.763 353.974 244.116 354.162 243.902 354.181 243.897 354.182 243.898 354.188 243.902 354.192 266.248 375.094 301.931 374.669 306.281 374.535 310.638 374.669 346.315 375.092 368.66 354.192Z" fill="#505050"/><path d="M422.143 412.531C422.143 419.513 412.471 419.38 403.341 419.38 394.21 419.38 389.079 419.513 389.079 412.531 389.079 405.549 396.48 399.888 405.611 399.888 414.742 399.888 422.143 405.549 422.143 412.531Z" fill="#505050"/><path d="M430.756 460.574C430.756 464.388 426.208 467.48 420.599 467.48 414.99 467.48 410.443 464.388 410.443 460.574 410.443 456.759 414.99 453.667 420.599 453.667 426.208 453.667 430.755 456.759 430.756 460.574Z" fill="#D2D2D2"/><path d="M308.654 542.524C308.654 555.101 294.226 558.751 277.779 558.751 261.332 558.751 249.094 555.101 249.094 542.524 249.094 529.946 259.707 523.814 276.154 523.814 292.601 523.814 308.654 529.946 308.654 542.524Z" fill="#737373"/><path d="M346.941 559.471C346.941 571.404 330.411 571.176 314.806 571.176 299.201 571.176 290.431 571.403 290.431 559.471 290.431 547.538 303.081 537.863 318.686 537.863 334.29 537.863 346.941 547.537 346.941 559.471Z" fill="#D2D2D2"/><path d="M471.491 427.987C471.491 439.921 454.961 439.693 439.356 439.693 423.752 439.693 414.981 439.92 414.981 427.987 414.981 416.055 427.632 406.38 443.236 406.38 458.841 406.38 471.491 416.054 471.491 427.987Z" fill="#D2D2D2"/></g></svg>