<svg width="624" height="624" xmlns="http://www.w3.org/2000/svg" xmlns:xlink="http://www.w3.org/1999/xlink" xml:space="preserve" overflow="hidden"><g><path d="M79.3 312C79.3 405.216 133.805 485.701 212.684 523.324 243.163 537.862 277.281 544.916 313.3 544.916 348.823 544.916 382.496 538.084 412.653 523.921 492.212 486.558 547.3 405.712 547.3 312 547.3 182.765 442.535 78 313.3 78 184.065 78 79.3 182.765 79.3 312Z" fill="#505050"/><path d="M366.925 203.125C366.925 266.922 418.827 318.825 482.625 318.825 506.414 318.825 528.547 311.605 546.955 299.245 546.941 298.995 546.926 298.745 546.912 298.495 528.546 310.915 506.417 318.175 482.625 318.175 419.186 318.175 367.575 266.564 367.575 203.125 367.575 161.678 389.607 125.285 422.573 105.03 422.351 104.912 422.129 104.796 421.907 104.679 388.937 125.089 366.925 161.582 366.925 203.125Z" fill="#737373"/><path d="M395.769 203.125C395.769 251.018 434.732 289.981 482.625 289.981 505.927 289.981 527.114 280.755 542.729 265.766 542.678 265.513 542.63 265.258 542.578 265.006 527.052 280.053 505.903 289.331 482.625 289.331 435.09 289.331 396.419 250.66 396.419 203.125 396.419 166.702 419.125 135.483 451.126 122.877 450.919 122.726 450.711 122.578 450.503 122.427 418.465 135.226 395.769 166.574 395.769 203.125Z" fill="#737373"/><path d="M281.775 80.275C281.775 80.2197 281.773 80.1651 281.773 80.1105 281.557 80.1398 281.34 80.1671 281.124 80.197 281.124 80.223 281.125 80.249 281.125 80.275 281.125 143.714 229.514 195.325 166.075 195.325 148.583 195.325 131.995 191.394 117.136 184.382 117.016 184.565 116.897 184.748 116.778 184.932 131.742 192.009 148.453 195.976 166.075 195.976 229.872 195.975 281.775 144.072 281.775 80.275Z" fill="#737373"/><path d="M252.743 85.915C252.523 85.9742 252.301 86.0307 252.081 86.0899 249.08 130.923 211.655 166.481 166.075 166.481 155.069 166.481 144.539 164.404 134.852 160.628 134.703 160.803 134.554 160.978 134.406 161.153 144.223 165.011 154.905 167.131 166.075 167.131 212.072 167.131 249.827 131.188 252.743 85.915Z" fill="#737373"/><path d="M257.895 397.305C257.895 333.508 205.993 281.605 142.195 281.605 119.149 281.605 97.6566 288.381 79.6009 300.041 79.5873 300.308 79.5775 300.576 79.5652 300.843 97.5994 289.093 119.112 282.255 142.195 282.255 205.634 282.255 257.245 333.866 257.245 397.305 257.245 446.922 225.672 489.304 181.561 505.415 181.78 505.565 181.999 505.716 182.218 505.865 226.35 489.544 257.895 447.039 257.895 397.305Z" fill="#737373"/><path d="M229.052 397.305C229.052 349.412 190.088 310.448 142.195 310.448 118.11 310.448 96.2858 320.306 80.5369 336.194 80.5655 336.473 80.5974 336.752 80.6273 337.031 96.2858 321.04 118.1 311.098 142.195 311.098 189.73 311.098 228.402 349.77 228.402 397.305 228.402 441.061 195.632 477.305 153.346 482.791 153.549 482.981 153.75 483.172 153.954 483.362 196.305 477.604 229.052 441.21 229.052 397.305Z" fill="#737373"/><path d="M312.588 445.9C263.916 445.9 223.151 478.915 212.526 523.245 243.045 537.83 277.218 546.823 313.3 546.823 348.878 546.823 382.599 538.057 412.792 523.853 402.395 479.218 361.481 445.9 312.588 445.9Z" fill="#737373"/><path d="M380.206 454.13C380.182 454.13 380.157 454.129 380.132 454.126L289.132 443.726C288.775 443.685 288.519 443.363 288.56 443.007 288.601 442.65 288.923 442.391 289.279 442.435L380.279 452.835C380.636 452.876 380.892 453.198 380.851 453.554 380.814 453.886 380.532 454.13 380.206 454.13Z" fill="#737373"/><path d="M292.499 449.8C292.207 449.8 291.941 449.601 291.869 449.305 291.783 448.956 291.997 448.604 292.345 448.518L361.245 431.618C361.594 431.534 361.946 431.746 362.031 432.095 362.117 432.443 361.903 432.795 361.555 432.881L292.655 449.781C292.603 449.794 292.551 449.8 292.499 449.8Z" fill="#737373"/><path d="M208.65 482.95C208.398 482.95 208.159 482.803 208.053 482.557 207.91 482.228 208.063 481.845 208.393 481.704L269.519 455.371C269.849 455.229 270.231 455.381 270.373 455.71 270.515 456.04 270.362 456.423 270.033 456.564L208.907 482.897C208.824 482.933 208.736 482.95 208.65 482.95Z" fill="#737373"/><path d="M416.372 496.424C416.332 496.424 416.292 496.42 416.252 496.413L375.14 488.717C374.787 488.65 374.555 488.311 374.621 487.959 374.687 487.605 375.026 487.377 375.38 487.439L416.491 495.134C416.844 495.201 417.076 495.54 417.01 495.893 416.952 496.207 416.679 496.424 416.372 496.424Z" fill="#737373"/><path d="M202.15 527.15C201.883 527.15 201.633 526.984 201.538 526.718 201.417 526.38 201.593 526.009 201.931 525.888L292.931 493.388C293.27 493.266 293.641 493.444 293.762 493.782 293.883 494.12 293.706 494.491 293.368 494.612L202.368 527.112C202.296 527.138 202.223 527.15 202.15 527.15Z" fill="#2F2F2F"/><path d="M238.55 529.75C238.382 529.75 238.215 529.685 238.088 529.557 237.836 529.301 237.838 528.89 238.094 528.638L292.044 475.338C292.299 475.084 292.711 475.089 292.963 475.343 293.215 475.599 293.212 476.01 292.957 476.262L239.007 529.562C238.88 529.688 238.715 529.75 238.55 529.75Z" fill="#2F2F2F"/><path d="M386.1 497.9C385.934 497.9 385.767 497.836 385.64 497.71L359.64 471.71C359.386 471.455 359.386 471.045 359.64 470.79 359.894 470.536 360.306 470.536 360.56 470.79L386.56 496.79C386.814 497.045 386.814 497.455 386.56 497.71 386.433 497.836 386.266 497.9 386.1 497.9Z" fill="#2F2F2F"/><path d="M416 516.75 373.1 516.75C372.741 516.75 372.45 516.459 372.45 516.1 372.45 515.741 372.741 515.45 373.1 515.45L416 515.45C416.359 515.45 416.65 515.741 416.65 516.1 416.65 516.459 416.359 516.75 416 516.75Z" fill="#2F2F2F"/><path d="M146.979 310.558 147.588 310.813 147.588 310.813C124.038 320.024 123.687 353.395 147.133 362.899 154.321 365.812 162.248 367.282 170.556 366.946 199.454 365.778 222.982 342.391 224.307 313.503 225.785 281.27 200.08 254.66 168.169 254.649 160.754 254.646 153.675 256.08 147.195 258.688 123.995 268.024 123.906 300.879 146.979 310.558Z" fill="#2F2F2F"/><path d="M216.585 282.32 167.283 310.171 156.54 310.167 192.132 260.011C191.734 259.823 191.332 259.639 190.928 259.461L166.006 294.581 158.803 255.439C158.376 255.51 157.946 255.576 157.522 255.657L164.938 295.959 165.043 295.939 154.947 310.167 146.113 310.164C146.098 310.164 146.096 310.169 146.11 310.176 146.414 310.331 147.196 310.814 147.196 310.814L147.196 310.814C146.859 311.009 146.596 311.197 146.077 311.451 146.063 311.458 146.064 311.464 146.08 311.464L154.715 311.467 157.778 334.142 138.362 357.315C138.678 357.612 138.992 357.908 139.325 358.192L158.014 335.886 162.172 366.667C162.614 366.714 163.057 366.757 163.501 366.794L156.027 311.468 159.217 311.47 177.3 329.55 177.111 329.55 177.114 366.276C177.547 366.207 177.984 366.145 178.414 366.065L178.411 330.66 202.774 355.021C203.117 354.752 203.463 354.485 203.8 354.208L161.056 311.47 179.733 311.477 206.14 352.173C206.464 351.875 206.781 351.568 207.098 351.263L181.282 311.478 224.36 311.494C224.364 311.059 224.366 310.626 224.361 310.194L169.926 310.174 217.235 283.45C217.023 283.068 216.806 282.693 216.585 282.32Z" fill="#505050"/><path d="M361.074 101.382C353.659 101.38 346.579 102.814 340.099 105.422 316.899 114.757 316.811 147.614 339.884 157.292L340.493 157.548 340.493 157.548C316.943 166.759 316.592 200.129 340.038 209.633 347.225 212.547 355.153 214.016 363.46 213.68 392.359 212.512 415.887 189.125 417.212 160.238 418.69 128.004 392.984 101.394 361.074 101.382ZM339.067 180.699C336.302 180.751 334.049 178.498 334.101 175.733 334.149 173.126 336.276 170.999 338.882 170.951 341.648 170.9 343.9 173.152 343.849 175.918 343.801 178.524 341.674 180.651 339.067 180.699Z" fill="#737373"/><path d="M409.49 129.054 360.188 156.905 349.445 156.901 385.037 106.745C384.639 106.556 384.237 106.373 383.833 106.194L358.91 141.315 351.708 102.173C351.28 102.244 350.85 102.31 350.426 102.391L357.842 142.693 357.947 142.673 347.851 156.9 339.011 156.897C338.995 156.897 338.993 156.902 339.007 156.909 339.314 157.057 340.096 157.548 340.096 157.548L340.096 157.548C339.617 157.847 339.45 157.969 338.981 158.185 338.966 158.191 338.967 158.197 338.983 158.197L347.618 158.2 350.681 180.875 331.266 204.048C331.581 204.344 331.896 204.641 332.229 204.924L350.918 182.618 355.076 213.399C355.517 213.446 355.961 213.489 356.405 213.526L348.93 158.2 352.121 158.201 370.204 176.281 370.014 176.281 370.018 213.008C370.451 212.939 370.887 212.877 371.318 212.797L371.314 177.392 395.678 201.753C396.021 201.484 396.367 201.217 396.703 200.94L353.96 158.202 372.637 158.208 399.043 198.905C399.368 198.606 399.684 198.299 400.002 197.994L374.186 158.209 417.264 158.225C417.268 157.791 417.269 157.357 417.264 156.925L362.83 156.905 410.138 130.181C409.927 129.802 409.711 129.427 409.49 129.054Z" fill="#505050"/><path d="M419.065 418.677 419.674 418.933 419.674 418.933C396.124 428.144 395.773 461.514 419.219 471.018 426.407 473.931 434.335 475.401 442.642 475.065 471.541 473.897 495.069 450.51 496.393 421.622 497.871 389.389 472.166 362.779 440.255 362.768 432.84 362.765 425.761 364.199 419.281 366.807 396.081 376.143 395.993 408.999 419.065 418.677Z" fill="#2F2F2F"/><path d="M488.672 390.439 439.369 418.289 428.627 418.285 464.219 368.129C463.82 367.941 463.419 367.758 463.015 367.579L438.092 402.699 430.89 363.557C430.462 363.628 430.032 363.694 429.608 363.775L437.024 404.076 437.129 404.057 427.032 418.285 418.194 418.281C418.181 418.281 418.179 418.287 418.191 418.293 418.491 418.459 419.201 418.931 419.201 418.931L419.201 418.931C418.749 419.214 418.598 419.303 418.155 419.569 418.144 419.576 418.146 419.581 418.159 419.581L426.801 419.585 429.865 442.259 410.448 465.433C410.764 465.73 411.078 466.026 411.411 466.309L430.1 444.003 434.259 474.785C434.7 474.832 435.143 474.874 435.587 474.911L428.113 419.586 431.304 419.587 449.387 437.668 449.197 437.668 449.201 474.394C449.634 474.324 450.07 474.263 450.501 474.183L450.497 438.779 474.861 463.139C475.204 462.87 475.55 462.603 475.886 462.326L433.143 419.587 451.82 419.594 478.226 460.29C478.55 459.992 478.867 459.685 479.184 459.38L453.368 419.595 496.446 419.609C496.451 419.175 496.452 418.742 496.447 418.309L442.012 418.291 489.321 391.566C489.109 391.188 488.892 390.812 488.672 390.439Z" fill="#505050"/><path d="M191.75 353.925C191.75 356.617 189.567 358.8 186.875 358.8 184.183 358.8 182 356.617 182 353.925 182 351.233 184.183 349.05 186.875 349.05 189.567 349.05 191.75 351.232 191.75 353.925Z" fill="#737373"/><path d="M157.95 366.6C157.95 374.139 151.839 380.25 144.3 380.25 136.761 380.25 130.65 374.139 130.65 366.6 130.65 359.061 136.761 352.95 144.3 352.95 151.839 352.95 157.95 359.061 157.95 366.6Z" fill="#737373"/><path d="M219.05 404.95C219.05 412.489 212.939 418.6 205.4 418.6 197.861 418.6 191.75 412.489 191.75 404.95 191.75 397.411 197.861 391.3 205.4 391.3 212.939 391.3 219.05 397.411 219.05 404.95Z" fill="#737373"/><path d="M490.1 247C490.1 254.539 483.989 260.65 476.45 260.65 468.911 260.65 462.8 254.539 462.8 247 462.8 239.461 468.911 233.35 476.45 233.35 483.989 233.35 490.1 239.461 490.1 247Z" fill="#737373"/><path d="M452.4 238.225C452.4 241.635 449.635 244.4 446.225 244.4 442.815 244.4 440.05 241.635 440.05 238.225 440.05 234.815 442.815 232.05 446.225 232.05 449.635 232.05 452.4 234.815 452.4 238.225Z" fill="#737373"/><path d="M334.138 313.41C334.138 303.68 314.643 291.071 300.04 286.65 282.034 281.199 255.71 278.98 250.787 293.036 265.231 305.714 284.156 313.41 304.886 313.41L334.138 313.41Z" fill="#FFFFFF"/><path d="M318.87 302.25 316.738 529.75 311.902 529.75 309.771 302.25Z" fill="#2F2F2F"/><path d="M345.142 304.258 407.54 369.088 291.91 420.864 282.368 461.809 264.571 448.341 288.189 416.775 395.169 366.86 338.658 310.642Z" fill="#2F2F2F"/><path d="M244.432 50.269C237.835 53.495 234.975 58.955 235.17 65.26L239.846 70.8454C239.848 70.848 239.852 70.8487 239.855 70.8467L259.805 56.485C262.665 54.5812 261.365 48.945 257.595 48.945 254.942 48.945 248.885 48.165 244.432 50.269Z" fill="#FFFFFF"/><path d="M357.892 313.41 386.95 313.41C386.95 268.087 350.209 231.345 304.886 231.345L256.37 231.345 246.778 231.345C229.095 230.095 217.108 214.98 228.604 198.134 230.615 194.888 233.208 191.878 235.862 189.127 255.115 170.182 280.961 144.741 300.136 125.872 324.054 103.684 312.438 63.2197 282.809 55.9773 279.661 47.5793 271.564 41.6 262.067 41.6 254.896 41.6 248.5 44.9962 244.432 50.269 246.537 50.2918 248.535 50.3165 250.392 50.3438 254.154 50.3991 255.984 54.9614 253.303 57.6017L239.861 70.8396C239.855 70.8454 239.857 70.8506 239.866 70.8506L275.532 70.8506C293.74 73.7776 301.396 99.1367 286.391 111.058 266.064 128.821 238.753 152.731 218.352 170.557 214.142 174.405 210.182 178.559 206.859 183.219 185.311 212.217 199.079 245.176 227.101 257.567 231.768 271.417 240.039 283.604 250.787 293.037 263.274 287.777 280.491 287.109 298.133 292.225L331.862 325.954C337.098 331.191 345.311 331.611 351.044 327.245L368.667 344.869C374.379 350.58 383.638 350.58 389.35 344.869L389.35 344.869 357.892 313.41Z" fill="#0E9DD4"/><path d="M435.155 350.011 435.155 350.011C423.844 361.322 405.505 361.322 394.194 350.011L344.167 299.984 344.167 299.984C355.478 288.673 373.817 288.673 385.128 299.984L435.155 350.011Z" fill="#2F2F2F"/><path d="M426.37 318.97 395.345 287.945C383.923 276.522 365.402 276.522 353.98 287.945L353.98 287.945 395.193 329.159C400.905 334.87 410.165 334.87 415.876 329.159L405.688 318.97C411.399 324.681 420.659 324.681 426.37 318.97Z" fill="#D2D2D2"/><path d="M380.687 314.361 344.878 278.552C336.097 269.771 321.861 269.771 313.08 278.553L308.296 283.336 349.51 324.55C355.221 330.261 364.481 330.261 370.193 324.55L360.004 314.361C365.715 320.072 374.975 320.072 380.687 314.361Z" fill="#F2F2F2"/><path d="M393.14 305.246C389.333 309.053 383.159 309.053 379.351 305.247 375.543 301.441 375.542 295.27 379.349 291.464L393.14 305.246Z" fill="#FFFFFF"/><path d="M406.986 319.093C403.179 322.899 397.005 322.899 393.197 319.093 389.388 315.287 389.388 309.116 393.195 305.31L406.986 319.093Z" fill="#FFFFFF"/><path d="M199.475 70.0648 199.343 85.1714C199.336 85.9969 200.334 86.4149 200.917 85.8312L209.993 76.7552C212.521 74.2267 215.654 72.4438 219.05 71.537 219.05 71.537 224.835 67.925 224.835 60.84 224.835 53.755 219.05 50.0916 219.05 50.0916 208.258 50.4016 199.569 59.1929 199.475 70.0648Z" fill="#2F2F2F"/><path d="M244.432 50.269C233.969 50.1572 230.616 50.1026 219.066 50.076 219.06 50.0825 219.056 50.0857 219.05 50.0916L219.05 71.537C220.732 71.0879 222.478 70.85 224.25 70.85L239.85 70.85 239.85 63.7C239.85 58.641 241.562 53.989 244.432 50.269Z" fill="#D2D2D2"/><path d="M206.769 63.375C206.519 63.375 206.27 63.2801 206.079 63.0896 205.698 62.7087 205.698 62.0919 206.079 61.711L210.56 57.2292C210.941 56.8483 211.559 56.8483 211.939 57.2292 212.32 57.6101 212.32 58.227 211.939 58.6079L207.458 63.0896C207.268 63.2801 207.018 63.375 206.769 63.375Z" fill="#D2D2D2"/><path d="M256.75 53.3C256.75 54.7359 255.586 55.9 254.15 55.9 252.714 55.9 251.55 54.7359 251.55 53.3 251.55 51.864 252.714 50.7 254.15 50.7 255.586 50.7 256.75 51.864 256.75 53.3Z" fill="#2F2F2F"/><path d="M361.209 484.515C366.894 499.751 342.528 522.914 325.307 529.339 308.086 535.764 289.516 528.622 283.831 513.385 278.146 498.148 287.498 480.587 304.719 474.162 321.941 467.736 355.524 469.278 361.209 484.515Z" fill="#FFFFFF"/><path d="M362.602 523.908 324.334 529.75 263.9 529.75C263.541 529.75 263.25 530.041 263.25 530.4 263.25 530.759 263.541 531.05 263.9 531.05L315.819 531.05 277.452 536.908C277.097 536.962 276.853 537.293 276.907 537.649 276.956 537.97 277.233 538.201 277.549 538.201 277.581 538.201 277.614 538.198 277.647 538.193L324.431 531.05 352.3 531.05C352.659 531.05 352.95 530.759 352.95 530.4 352.95 530.041 352.659 529.75 352.3 529.75L332.946 529.75 362.798 525.192C363.153 525.138 363.397 524.807 363.343 524.451 363.288 524.098 362.957 523.853 362.602 523.908Z" fill="#2F2F2F"/></g></svg>