<svg width="624" height="351" xmlns="http://www.w3.org/2000/svg" xmlns:xlink="http://www.w3.org/1999/xlink" xml:space="preserve" overflow="hidden"><g><path d="M0 0 624 0 624 351 0 351Z" fill="#737373"/><path d="M181.968 127.373C181.968 177.534 141.304 218.198 91.1427 218.198 40.9811 218.198 0.317189 177.534 0.317189 127.373 0.317189 77.2112 40.9811 36.5472 91.1426 36.5472 141.304 36.5472 181.968 77.2112 181.968 127.373Z" fill="#505050"/><path d="M75.0912 43.4707C75.0912 93.6322 115.755 134.296 165.917 134.296 216.078 134.296 256.742 93.6322 256.742 43.4707 256.742 27.7225 252.732 12.9116 245.681 9.23705e-15L86.1529 9.23705e-15C79.1014 12.9116 75.0912 27.7225 75.0912 43.4707Z" fill="#505050"/><path d="M428.017 212.076C428.017 272.431 379.091 321.358 318.736 321.358 258.382 321.358 209.455 272.431 209.455 212.076 209.455 151.722 258.382 102.795 318.736 102.795 379.091 102.795 428.017 151.722 428.017 212.076Z" fill="#505050"/><path d="M298.342 267.001C298.342 308.06 265.058 341.345 223.999 341.345 182.94 341.345 149.655 308.06 149.655 267.001 149.655 225.942 182.94 192.658 223.999 192.658 265.058 192.658 298.342 225.942 298.342 267.001Z" fill="#505050"/><path d="M624 346.986 624 134.529C614.484 131.854 604.448 130.42 594.077 130.42 533.14 130.42 483.74 179.82 483.74 240.757 483.74 300.22 530.78 348.689 589.673 351L598.478 351C607.288 350.655 615.836 349.281 624 346.986Z"/><path d="M367.13 246.77C325.01 246.77 290.868 280.914 290.868 323.033 290.868 332.907 292.744 342.342 296.159 351L438.1 351C441.516 342.342 443.391 332.907 443.391 323.033 443.391 280.914 409.246 246.77 367.13 246.77Z" fill="#2F2F2F"/><path d="M70.6677 193.145C42.118 193.145 16.6501 206.322 0 226.921L0 341.022C2.87527 344.578 6.01088 347.916 9.38242 351L131.953 351C150.106 334.392 161.493 310.513 161.493 283.971 161.493 233.809 120.829 193.145 70.6677 193.145Z" fill="#2F2F2F"/><path d="M32.8338 99.4763C32.5452 99.5036 32.2731 99.5299 32.2731 99.5299L19.8913 96.9966 0 64.9935 0 67.1024 19.1971 97.9882C21.1692 104.534 26.8294 121.125 37.7933 137.729 51.8833 159.068 69.3963 172.345 69.3963 172.345L20.4724 98.2514 31.8123 100.572C36.6684 103.265 53.2893 111.887 74.2635 116.178 99.3154 121.304 121.087 118.308 121.087 118.308 121.087 118.308 102.241 107.003 77.1894 101.877 57.148 97.7769 39.209 98.8735 32.8338 99.4763Z" fill="#2F2F2F"/><path d="M99.1117 0 71.9186 0C66.4212 2.9042 60.7139 6.22245 55.0049 9.99212 27.8713 27.9084 10.0896 49.7903 7.1682 53.5051L0 52.2346 0 53.3653 6.34465 54.4898C10.3412 56.7947 35.0408 70.5315 66.9805 77.0663 101.911 84.213 132.268 80.0368 132.268 80.0368 132.268 80.0368 105.991 64.2733 71.0603 57.1262 41.9692 51.1742 16.0543 53.0757 8.2017 53.8778L8.14742 53.6786C14.3699 51.9473 40.2831 44.1025 66.2197 26.9766 79.7277 18.0576 90.9181 8.1549 99.1117 0Z" fill="#2F2F2F"/><path d="M140.784 275.331C140.784 275.331 121.282 285.461 103.793 304.117 86.3037 322.772 77.4507 342.888 77.4507 342.888 77.4507 342.888 96.953 332.754 114.442 314.1 131.931 295.445 140.784 275.331 140.784 275.331Z" fill="#505050"/><path d="M62.4624 285.896C42.1541 307.558 30.1993 330.629 26.7686 337.737L26.5704 337.681C28.3553 331.471 35.2466 305.289 34.2446 274.226 33.0951 238.59 21.9921 210.03 21.9921 210.03 21.9921 210.03 12.753 239.246 13.9022 274.882 14.9503 307.375 24.2723 333.98 25.9087 338.423L14.6877 351 16.1801 351 26.3097 339.645C30.3449 337.46 55.0004 323.614 77.3107 299.816 101.696 273.805 114.04 245.759 114.04 245.759 114.04 245.759 86.8478 259.885 62.4624 285.896Z" fill="#505050"/><path d="M127.392 23.6577C127.392 27.6963 124.118 30.9702 120.08 30.9702 116.041 30.9702 112.767 27.6963 112.767 23.6577 112.767 19.6191 116.041 16.3452 120.08 16.3452 124.118 16.3452 127.392 19.6191 127.392 23.6577Z" fill="#737373"/><path d="M427.043 313.558C427.043 317.596 423.77 320.87 419.731 320.87 415.692 320.87 412.418 317.596 412.418 313.558 412.418 309.519 415.692 306.245 419.731 306.245 423.769 306.245 427.043 309.519 427.043 313.558Z" fill="#505050"/><path d="M195.485 330.2C195.485 334.239 192.211 337.512 188.172 337.512 184.133 337.512 180.86 334.239 180.86 330.2 180.86 326.161 184.133 322.887 188.172 322.887 192.211 322.887 195.484 326.161 195.485 330.2Z" fill="#CFCFCF"/><path d="M238.062 128.034C238.062 132.072 234.788 135.346 230.75 135.346 226.711 135.346 223.437 132.072 223.437 128.034 223.437 123.995 226.711 120.721 230.75 120.721 234.788 120.721 238.062 123.995 238.062 128.034Z" fill="#D2D2D2"/><path d="M350.633 21.9039C364.975 36.2458 364.975 59.4986 350.633 73.8404 336.291 88.1823 313.038 88.1823 298.696 73.8405 284.354 59.4986 284.354 36.2458 298.696 21.904 313.038 7.5621 336.291 7.5621 350.633 21.9039Z" fill="#505050"/><path d="M101.392 37.6327C101.392 44.5432 95.7901 50.1452 88.8797 50.1452 81.9692 50.1452 76.3672 44.5432 76.3672 37.6327 76.3672 30.7223 81.9692 25.1202 88.8797 25.1202 95.7901 25.1202 101.392 30.7222 101.392 37.6327Z" fill="#737373"/><path d="M295.092 218.658C295.092 225.568 289.49 231.17 282.58 231.17 275.669 231.17 270.067 225.568 270.067 218.658 270.067 211.747 275.669 206.145 282.58 206.145 289.49 206.145 295.092 211.747 295.092 218.658Z" fill="#737373"/><path d="M389.607 61.684C389.607 69.0149 383.665 74.9577 376.334 74.9577 369.003 74.9577 363.06 69.0148 363.06 61.684 363.06 54.3532 369.003 48.4104 376.334 48.4104 383.665 48.4104 389.607 54.3532 389.607 61.684Z" fill="#2F2F2F"/><path d="M264.624 219.308C242.639 219.308 221.97 210.746 206.424 195.201 190.879 179.655 182.318 158.986 182.318 137.001 182.318 115.016 190.879 94.3475 206.424 78.8018 221.97 63.2561 242.639 54.6949 264.624 54.6949 286.609 54.6949 307.277 63.2564 322.823 78.8018 338.367 94.3475 346.931 115.016 346.931 137.001 346.931 158.986 338.367 179.655 322.823 195.201 307.277 210.746 286.608 219.308 264.624 219.308ZM264.624 55.3449C219.598 55.3449 182.968 91.9757 182.968 137.001 182.968 182.027 219.598 218.657 264.624 218.657 309.649 218.657 346.281 182.026 346.281 137.001 346.281 91.976 309.649 55.3449 264.624 55.3449Z" fill="#737373"/><path d="M264.624 198.812C230.541 198.812 202.813 171.084 202.813 137.001 202.813 102.918 230.541 75.19 264.624 75.19 298.707 75.19 326.433 102.918 326.433 137.001 326.433 171.084 298.706 198.812 264.624 198.812ZM264.624 75.8404C230.9 75.8404 203.463 103.277 203.463 137.001 203.463 170.726 230.899 198.163 264.624 198.163 298.348 198.163 325.783 170.726 325.783 137.001 325.783 103.277 298.348 75.8404 264.624 75.8404Z" fill="#737373"/><path d="M143.758 182.934C124.144 182.934 105.704 175.296 91.8356 161.427 77.9665 147.558 70.3287 129.119 70.3287 109.505 70.3287 89.8911 77.9665 71.4516 91.8356 57.5825 105.704 43.7138 124.144 36.0756 143.758 36.0756 163.371 36.0756 181.811 43.7135 195.68 57.5825 209.549 71.4516 217.186 89.8911 217.186 109.505 217.186 129.119 209.549 147.558 195.68 161.427 181.811 175.296 163.371 182.934 143.758 182.934ZM143.758 36.4536C103.477 36.4536 70.7063 69.2243 70.7063 109.505 70.7063 149.786 103.477 182.556 143.758 182.556 184.038 182.556 216.809 149.786 216.809 109.505 216.809 69.2243 184.038 36.4536 143.758 36.4536Z" fill="#2F2F2F"/><path d="M143.758 164.624C113.365 164.624 88.6385 139.898 88.6385 109.505 88.6385 79.1121 113.365 54.3858 143.758 54.3858 174.15 54.3858 198.877 79.1121 198.877 109.505 198.877 139.898 174.15 164.624 143.758 164.624ZM143.758 54.7635C113.573 54.7635 89.0162 79.3205 89.0162 109.505 89.0162 139.689 113.573 164.246 143.758 164.246 173.942 164.246 198.499 139.689 198.499 109.505 198.499 79.3205 173.942 54.7635 143.758 54.7635Z" fill="#2F2F2F"/><path d="M135.548 339.131C105.962 339.131 81.8922 315.062 81.8922 285.476 81.8922 255.89 105.962 231.82 135.548 231.82 165.134 231.82 189.205 255.89 189.205 285.476 189.205 315.062 165.134 339.131 135.548 339.131ZM135.548 232.145C106.141 232.145 82.2172 256.069 82.2172 285.476 82.2172 314.883 106.141 338.806 135.548 338.806 164.955 338.806 188.88 314.883 188.88 285.476 188.88 256.069 164.955 232.145 135.548 232.145Z" fill="#CFCFCF"/><path d="M135.548 325.76C113.336 325.76 95.2656 307.688 95.2656 285.476 95.2656 263.264 113.336 245.194 135.548 245.194 157.761 245.194 175.831 263.265 175.831 285.476 175.831 307.688 157.761 325.76 135.548 325.76ZM135.548 245.518C113.516 245.518 95.5906 263.443 95.5906 285.476 95.5906 307.509 113.516 325.432 135.548 325.432 157.581 325.432 175.506 307.509 175.506 285.476 175.506 263.443 157.581 245.518 135.548 245.518Z" fill="#CFCFCF"/><path d="M419.243 81.1707C419.243 131.332 459.907 171.996 510.068 171.996 560.229 171.996 600.892 131.332 600.892 81.1707 600.892 45.6758 580.528 14.9412 550.849 9.23705e-15L469.284 9.23705e-15C439.605 14.9412 419.243 45.6758 419.243 81.1707Z" fill="#2F2F2F"/><path d="M452.514 299.098C424.811 299.098 398.765 288.31 379.174 268.72 359.583 249.13 348.796 223.084 348.796 195.38 348.796 167.675 359.583 141.629 379.174 122.039 398.765 102.449 424.811 91.6604 452.514 91.6604 480.22 91.6604 506.265 102.449 525.857 122.039 545.444 141.629 556.234 167.675 556.234 195.38 556.234 223.084 545.444 249.13 525.857 268.72 506.265 288.31 480.22 299.098 452.514 299.098ZM452.514 92.4797C395.775 92.4797 349.615 138.64 349.615 195.38 349.615 252.119 395.775 298.279 452.514 298.279 509.252 298.279 555.415 252.119 555.415 195.38 555.415 138.64 509.252 92.4797 452.514 92.4797Z" fill="#737373"/><path d="M452.514 273.271C431.707 273.271 412.149 265.169 397.436 250.457 382.723 235.745 374.624 216.185 374.624 195.38 374.624 174.574 382.726 155.014 397.436 140.302 412.149 125.59 431.707 117.488 452.514 117.488 473.32 117.488 492.879 125.59 507.591 140.302 522.304 155.014 530.406 174.574 530.406 195.38 530.406 216.185 522.304 235.745 507.591 250.457 492.879 265.169 473.32 273.271 452.514 273.271ZM452.514 118.307C410.017 118.307 375.443 152.881 375.443 195.379 375.443 237.877 410.017 272.452 452.514 272.452 495.011 272.452 529.587 237.877 529.587 195.379 529.587 152.882 495.011 118.307 452.514 118.307Z" fill="#737373"/><path d="M452.514 244.215C425.587 244.215 403.679 222.308 403.679 195.38 403.679 168.451 425.587 146.543 452.514 146.543 479.443 146.543 501.351 168.451 501.351 195.38 501.348 222.307 479.443 244.215 452.514 244.215ZM452.514 147.363C426.039 147.363 404.498 168.903 404.498 195.38 404.498 221.856 426.039 243.396 452.514 243.396 478.991 243.396 500.532 221.856 500.532 195.38 500.532 168.903 478.991 147.363 452.514 147.363Z" fill="#737373"/><path d="M54.0481 223.516 54.8155 223.838 54.8155 223.838C25.1387 235.446 24.6961 277.498 54.2425 289.474 63.3002 293.146 73.2901 294.997 83.759 294.573 120.176 293.101 149.825 263.629 151.494 227.226 153.357 186.606 120.963 153.073 80.7508 153.06 71.4064 153.056 62.4855 154.864 54.3198 158.15 25.0832 169.916 24.9723 211.32 54.0481 223.516Z" fill="#737373"/><path d="M148.219 202.321 110.942 223.378 97.9056 223.374 132.123 175.154C131.9 174.918 131.673 174.686 131.447 174.453L111.393 202.711 102.909 156.608C102.566 156.495 102.221 156.384 101.875 156.276L110.621 203.8 96.7304 223.373 53.6936 223.359C53.6903 223.359 53.689 223.363 53.6919 223.364 53.8824 223.473 54.5379 223.838 54.5379 223.838 54.5379 223.838 54.0322 224.106 53.6598 224.308 53.6568 224.31 53.6581 224.315 53.6614 224.315L64.0936 224.318 68.014 253.337 43.4262 282.683C43.6602 282.898 43.9007 283.109 44.1418 283.319L68.1873 254.62 73.5423 294.257C73.8679 294.29 74.1939 294.323 74.5205 294.351L65.0595 224.319 69.6111 224.32 92.3601 247.066 92.3647 293.689C92.6845 293.637 93.003 293.58 93.3215 293.522L93.3169 248.023 124.641 279.343C124.893 279.144 125.14 278.94 125.388 278.737L70.9644 224.321 95.5074 224.329 128.855 275.722C129.093 275.502 129.331 275.282 129.566 275.059L96.6485 224.33 151.563 224.348C151.565 224.03 151.57 223.71 151.568 223.392L112.873 223.379 148.509 203.251C148.415 202.94 148.318 202.63 148.219 202.321Z" fill="#505050"/><path d="M108.226 272.928C108.226 275.174 106.405 276.995 104.159 276.995 101.913 276.995 100.092 275.174 100.092 272.928 100.092 270.682 101.913 268.862 104.159 268.862 106.405 268.862 108.226 270.682 108.226 272.928Z" fill="#E6E6E6"/><path d="M87.9008 284.312C87.9008 285.927 86.5912 287.237 84.9758 287.237 83.3603 287.237 82.0508 285.927 82.0508 284.312 82.0508 282.696 83.3603 281.387 84.9758 281.387 86.5912 281.387 87.9008 282.696 87.9008 284.312Z" fill="#E6E6E6"/><path d="M81.0821 266.968C83.2991 267.328 84.8047 269.417 84.4449 271.634 84.0851 273.851 81.9961 275.356 79.7791 274.997 77.5621 274.637 76.0565 272.548 76.4164 270.331 76.7762 268.114 78.8651 266.608 81.0821 266.968Z" fill="#CFCFCF"/><path d="M624 35.8465C612.092 26.7612 597.223 21.3593 581.093 21.3538 571.75 21.3505 562.828 23.1579 554.664 26.4439 525.427 38.2096 525.317 79.6139 554.391 91.8099L555.159 92.1316 555.159 92.1316C525.483 103.74 525.041 145.792 554.586 157.768 563.644 161.44 573.635 163.291 584.103 162.868 599.027 162.264 612.81 156.957 624 148.401L624 35.8465 624 35.8465Z" fill="#737373"/><path d="M624 91.6766 613.223 91.6731 624 85.5862 624 84.4902 611.286 91.6721 598.25 91.6675 624 55.3803 624 53.7254 611.738 71.0057 603.252 24.9028C602.911 24.7894 602.566 24.6785 602.218 24.5706L610.964 72.0951 597.074 91.6679 554.037 91.6533C554.183 91.7468 554.814 92.0991 554.859 92.1251 554.863 92.1264 554.863 92.1268 554.859 92.1281 554.82 92.1498 554.362 92.405 554.001 92.61L564.437 92.6136 568.357 121.633 543.771 150.978C544.004 151.194 544.245 151.404 544.485 151.614L568.532 122.915 573.885 162.552C574.213 162.585 574.538 162.617 574.863 162.646L565.402 92.6139 569.956 92.6156 592.702 115.362 592.709 161.985C593.027 161.932 593.346 161.875 593.664 161.818L593.661 116.318 624 146.654 624 145.3 571.308 92.6159 595.852 92.624 624 136.004 624 134.245 596.992 92.6243 624 92.6334 624 91.6766Z" fill="#505050"/><path d="M567.776 144.562C567.776 146.808 565.955 148.628 563.709 148.628 561.463 148.628 559.642 146.808 559.642 144.562 559.642 142.316 561.463 140.495 563.709 140.495 565.955 140.495 567.776 142.316 567.776 144.562Z" fill="#CFCFCF"/><path d="M587.926 139.362C587.926 141.608 586.105 143.428 583.859 143.428 581.613 143.428 579.792 141.608 579.792 139.362 579.792 137.116 581.613 135.295 583.859 135.295 586.105 135.295 587.926 137.116 587.926 139.362Z" fill="#CFCFCF"/><path d="M328.087 267.684 327.564 267.898 327.564 267.898C336.245 248.067 316.257 227.654 296.311 236.094 290.197 238.682 284.509 242.591 279.684 247.823 262.898 266.023 262.813 294.422 279.498 312.71 298.115 333.115 329.784 333.664 349.105 314.355 353.597 309.867 357.012 304.714 359.356 299.214 367.747 279.518 347.912 259.576 328.087 267.684Z" fill="#737373"/><path d="M325.923 288.372 354.438 308.025C354.565 307.848 354.685 307.669 354.809 307.491L325.77 287.477 323.254 272.665 328.325 267.593C328.328 267.591 328.325 267.586 328.321 267.587 328.201 267.626 327.675 267.786 327.675 267.786 327.675 267.786 327.85 267.24 327.892 267.118 327.892 267.115 327.889 267.112 327.886 267.115L322.877 272.123 307.054 260.068 304.769 234.161C304.553 234.17 304.336 234.184 304.12 234.199L306.355 259.535 284.743 243.067C284.571 243.208 284.399 243.349 284.228 243.492L322.413 272.588 320.225 274.773 298.37 274.775 275.974 252.381C275.846 252.56 275.721 252.74 275.595 252.921L297.453 274.774 267.362 274.776C267.337 274.993 267.316 275.209 267.294 275.426L319.575 275.423 307.782 287.208 267.077 278.54C267.068 278.76 267.059 278.98 267.054 279.2L307.234 287.756 280.847 314.125C281 314.28 281.15 314.436 281.304 314.588L314.892 281.023 302.195 326.687C302.404 326.745 302.614 326.797 302.824 326.852L315.826 280.089 322.691 273.228 331.575 325.536C331.783 325.461 331.987 325.38 332.195 325.302L325.923 288.372Z" fill="#505050"/><path d="M496.372 253.946 496.665 254.655 496.665 254.655C469.771 242.885 442.091 269.99 453.534 297.038 457.044 305.33 462.345 313.043 469.44 319.587 494.12 342.352 532.633 342.465 557.433 319.84 585.104 294.594 585.848 251.648 559.663 225.445 553.579 219.355 546.588 214.722 539.129 211.543 512.421 200.162 485.378 227.061 496.372 253.946Z" fill="#2F2F2F"/><path d="M513.136 270.679 503.652 261.189 574.785 249.107C574.707 248.9 574.629 248.694 574.551 248.487L524.176 257.043 550.985 218.144C550.807 218.019 550.628 217.897 550.449 217.775L523.286 257.195 503.087 260.625 496.356 253.888C496.353 253.886 496.35 253.888 496.35 253.891 496.389 254.016 496.512 254.506 496.512 254.506 496.512 254.506 496.015 254.362 495.885 254.322 495.882 254.321 495.878 254.325 495.882 254.328L502.547 261.002 486.106 282.58 450.915 285.684C450.924 285.899 450.944 286.116 450.957 286.332L485.576 283.276 463.066 312.818C463.206 312.991 463.346 313.163 463.489 313.334L503.012 261.466 506.103 264.56 506.103 294.291 475.715 324.684C475.897 324.812 476.076 324.938 476.258 325.065L506.103 295.21 506.106 336.31C506.324 336.333 506.538 336.352 506.756 336.375L506.753 265.21 522.977 281.445 511.212 336.687C511.433 336.693 511.651 336.706 511.872 336.713L523.523 281.993 559.432 317.929C559.588 317.776 559.744 317.626 559.897 317.472L514.072 271.616 576.417 288.949C576.475 288.74 576.527 288.529 576.582 288.32L513.136 270.679Z" fill="#505050"/><path d="M482.017 114.514 481.494 114.728 481.494 114.728C490.171 94.8964 470.184 74.4841 450.239 82.9241 444.125 85.5114 438.438 89.4208 433.612 94.653 416.826 112.853 416.741 141.252 433.426 159.54 452.042 179.947 483.71 180.494 503.035 161.184 507.523 156.697 510.942 151.544 513.285 146.043 521.677 126.348 501.842 106.406 482.017 114.514Z" fill="#2F2F2F"/><path d="M479.849 135.201 508.368 154.855C508.492 154.678 508.615 154.499 508.739 154.32L479.697 134.308 477.181 119.495 482.251 114.43C482.254 114.427 482.251 114.423 482.248 114.424 482.134 114.465 481.676 114.599 481.643 114.569 481.614 114.538 481.712 114.217 481.812 113.957 481.816 113.954 481.809 113.951 481.806 113.954L476.804 118.954 460.983 106.898 458.695 80.9903C458.481 80.9994 458.263 81.0137 458.045 81.029L460.278 106.361 438.672 89.8969C438.5 90.0373 438.327 90.1787 438.155 90.3217L476.34 119.417 474.152 121.603 452.302 121.604 429.904 99.2101C429.773 99.3892 429.65 99.5696 429.523 99.7503L451.379 121.604 421.291 121.606C421.265 121.822 421.245 122.039 421.223 122.256L473.502 122.253 461.711 134.038 421.005 125.37C420.995 125.59 420.985 125.81 420.982 126.03L461.162 134.586 434.775 160.955C434.928 161.109 435.077 161.265 435.233 161.417L468.819 127.852 456.124 173.516C456.332 173.574 456.54 173.628 456.752 173.683L469.755 126.918 476.619 120.058 485.504 172.366C485.709 172.291 485.917 172.21 486.122 172.132L479.849 135.201Z" fill="#505050"/><path d="M488.228 0.095225 483.099 9.12762C479.586 12.1235 458.367 30.8119 441.509 58.7379 423.078 89.2785 416.851 119.298 416.851 119.298 416.851 119.298 440.512 99.8013 458.945 69.2607 473.847 44.5724 480.769 20.228 482.875 11.8033L483.249 11.1426C483.252 11.1397 483.255 11.141 483.255 11.1442 482.804 17.6693 481.546 44.6725 488.992 74.7916 497.552 109.422 514.377 135.051 514.377 135.051 514.377 135.051 517.322 104.535 508.758 69.9046 500.961 38.3562 486.304 14.2811 483.759 10.2459L489.515 0.095225 488.228 0.095225Z" fill="#505050"/><path d="M437.145 7.86727 431.158 17.7772C426.985 21.461 413.309 34.2339 402.252 52.5509 389.041 74.4432 384.576 95.9618 384.576 95.9618 384.576 95.9618 401.537 81.9861 414.752 60.0938 425.633 42.067 430.579 24.296 431.987 18.5815L438.526 7.73305 473.492 0.101075C473.499 0.1001 473.496 0.094575 473.492 0.094575L468.302 0.094575 437.824 6.74668C430.995 6.41452 413.465 6.19613 394.15 10.9713 369.327 17.108 350.954 29.1681 350.954 29.1681L437.141 7.8624C437.141 7.865 437.141 7.865 437.145 7.86727Z" fill="#505050"/><path d="M567.141 294.22C567.141 298.179 563.931 301.389 559.972 301.389 556.012 301.389 552.803 298.179 552.803 294.22 552.803 290.261 556.012 287.051 559.972 287.051 563.931 287.051 567.141 290.261 567.141 294.22Z" fill="#737373"/><path d="M621.166 296.253C621.166 300.288 617.895 303.559 613.86 303.559 609.825 303.559 606.554 300.288 606.554 296.253 606.554 292.219 609.825 288.948 613.86 288.948 617.895 288.948 621.166 292.219 621.166 296.253Z" fill="#505050"/><path d="M588.347 324.846C588.347 330.495 583.768 335.074 578.12 335.074 572.471 335.074 567.892 330.495 567.892 324.846 567.892 319.197 572.471 314.618 578.12 314.618 583.768 314.618 588.347 319.197 588.347 324.846Z" fill="#505050"/><path d="M172.107 55.1999C172.107 55.1999 178.789 67.5555 176.176 76.7458 174.695 81.9549 169.271 84.9774 164.062 83.4964L172.107 55.1999Z" fill="#737373"/><path d="M171.372 26.0803C171.372 26.0803 163.255 10.9775 152.131 7.47662 145.825 5.49217 139.105 8.99502 137.12 15.3007L171.372 26.0803Z" fill="#D2D2D2"/><path d="M137.709 68.7811C137.709 68.7811 140.094 77.4501 137.14 82.8051 135.465 85.8403 131.646 86.9434 128.611 85.2683L137.709 68.7811Z" fill="#D2D2D2"/><path d="M101.083 150.419C101.083 150.419 111.253 147.591 112.151 140.012 112.545 136.681 111.857 133.867 110.66 131.541 110.658 131.537 110.66 131.535 110.664 131.538 113.025 133.057 115.552 134.177 117.918 134.23 125.544 134.4 128.596 123.416 128.596 123.416L101.423 122.811C101.422 122.811 101.42 122.81 101.42 122.809 101.896 114.521 103.828 106.17 107.224 98.5124 106.847 95.8253 105.368 93.429 103.838 92.4059 102.079 91.2294 99.1198 90.5596 97.5913 91.8148 96.3709 102.988 97.4581 114.495 101.08 125.596L101.083 150.419Z" fill="#737373"/><path d="M137.918 68.9084C145.213 66.0894 150.986 64.9551 158.229 63.8131 159.229 62.7276 161.988 60.331 166.204 59.8552 170.189 59.4058 173.179 60.539 174.505 61.309 182.465 59.7174 190.322 56.6026 195.662 52.2028 196.515 52.5447 197.51 52.5031 198.361 51.9984 199.721 51.1927 200.228 49.4994 199.584 48.0945 199.767 47.8413 199.944 47.5862 200.111 47.3271 200.743 46.3437 201.512 45.4311 202.513 44.8266 204.303 43.746 205.963 40.8912 205.562 37.7345 205.181 34.7223 202.874 32.3443 201.041 31.2565 200.186 30.7489 199.377 30.1593 198.772 29.3699 198.376 28.8545 197.949 28.3634 197.5 27.8918 194.447 26.8258 187.701 23.8261 183.369 22.7913 178.787 21.697 172.085 20.8081 167.903 19.9644 166.182 20.1376 164.46 20.3963 162.75 20.7275 158.682 22.3811 154.119 31.5416 142.543 37.6305 129.414 44.5373 121.55 45.6999 114.923 49.8391 112.453 52.9207 110.229 56.1665 108.253 59.5423 107.257 62.4539 110.938 68.4586 114.369 69.8396 119.977 72.096 133.585 69.4973 137.918 68.9084Z" fill="#737373"/><path d="M138.694 55.3494C155.208 53.4865 167.446 41.7869 166.028 29.2181 165.678 26.1176 164.529 23.2547 162.75 20.7275 154.323 22.359 146.167 25.738 139.691 29.2299 129.828 34.5468 121.514 41.614 114.923 49.8391 120.966 54.1664 129.524 56.3839 138.694 55.3494Z" fill="#D2D2D2"/><path d="M107.224 98.5124C112.712 86.136 122.021 75.5706 135.18 70.0147 136.12 69.6179 137.029 69.252 137.918 68.9084 133.606 61.5092 124.439 56.9575 114.441 58.0856 112.269 58.3307 110.195 58.8296 108.253 59.5423 102.464 69.432 98.8328 80.4492 97.5917 91.8148 100.054 94.7762 103.385 97.0931 107.224 98.5124Z" fill="#E6E6E6"/><path d="M190.634 29.6072C193.059 29.3335 195.362 28.7446 197.496 27.8934 197.498 27.8928 197.498 27.8905 197.497 27.8892 191.59 21.696 181.188 19.2458 170.493 19.7675 169.632 19.8094 168.77 19.8773 167.907 19.9641 167.905 19.9644 167.904 19.9667 167.905 19.9683 172.471 26.662 181.18 30.6735 190.634 29.6072Z" fill="#E6E6E6"/><path d="M165.648 55.6731C161.432 56.1486 158.307 59.683 158.229 63.8128 161.307 63.3275 164.65 62.8404 168.491 62.2206 170.476 62.0168 172.494 61.711 174.505 61.3086 173.278 57.6553 169.633 55.2237 165.648 55.6731Z" fill="#D2D2D2"/><path d="M193.423 33.1887C193.423 33.0899 193.474 32.9933 193.565 32.9394 194.335 32.4831 195.236 32.3541 196.103 32.5757 196.97 32.7974 197.698 33.3434 198.154 34.113 199.096 35.7025 198.569 37.7608 196.981 38.7026 196.843 38.7842 196.666 38.7387 196.584 38.6012 196.502 38.4637 196.548 38.286 196.686 38.2044 198 37.4257 198.436 35.7227 197.656 34.4084 197.279 33.7717 196.676 33.3203 195.959 33.137 195.242 32.9537 194.497 33.0606 193.861 33.438 193.723 33.5195 193.545 33.474 193.464 33.3365 193.436 33.2897 193.423 33.2387 193.423 33.1887Z" fill="#505050"/><path d="M116.104 63.8886C117.402 64.9621 117.584 66.8845 116.511 68.1824 115.437 69.4804 113.515 69.6624 112.217 68.589 110.919 67.5155 110.737 65.5931 111.81 64.2952 112.884 62.9972 114.806 62.8152 116.104 63.8886Z" fill="#737373"/><path d="M117.528 72.3468C118.149 72.8978 118.207 73.8486 117.656 74.4704 117.105 75.0923 116.154 75.1497 115.532 74.5986 114.91 74.0476 114.853 73.0968 115.404 72.475 115.955 71.8531 116.906 71.7958 117.528 72.3468Z" fill="#737373"/><path d="M159.103 36.8886C160.401 37.9621 160.583 39.8845 159.51 41.1825 158.436 42.4804 156.514 42.6624 155.216 41.589 153.918 40.5156 153.736 38.5932 154.81 37.2952 155.883 35.9972 157.805 35.8152 159.103 36.8886Z" fill="#737373"/><path d="M146.281 39.8753C147.199 40.627 147.334 41.9805 146.582 42.8983 145.83 43.8161 144.477 43.9508 143.559 43.1991 142.641 42.4474 142.506 41.0939 143.258 40.1761 144.01 39.2582 145.363 39.1236 146.281 39.8753Z" fill="#737373"/><path d="M153.903 43.7372C154.953 44.5965 155.106 46.1434 154.247 47.1925 153.388 48.2415 151.841 48.3954 150.792 47.5362 149.743 46.677 149.589 45.1301 150.448 44.081 151.307 43.032 152.854 42.8781 153.903 43.7372Z" fill="#737373"/><path d="M138.686 46.1709C139.272 46.6948 139.323 47.5949 138.799 48.1814 138.275 48.7678 137.375 48.8186 136.788 48.2947 136.202 47.7708 136.151 46.8707 136.675 46.2843 137.199 45.6978 138.099 45.6471 138.686 46.1709Z" fill="#737373"/><path d="M253.646 176.758C253.596 177.897 253.667 179.013 253.844 180.095 253.869 180.248 253.899 180.399 253.928 180.551 254.33 182.632 255.133 184.576 256.257 186.298 256.349 186.438 256.441 186.577 256.536 186.713 257.005 187.385 257.524 188.018 258.087 188.611 258.221 188.751 258.355 188.891 258.494 189.026 261.241 191.717 264.95 193.444 269.094 193.626 277.42 193.993 286.176 189.85 292.579 185.865 292.865 185.687 293.144 185.51 293.42 185.333 295.04 184.296 296.489 183.285 297.719 182.383 297.917 182.237 298.109 182.094 298.296 181.954 299.119 181.339 299.829 180.785 300.404 180.323 300.659 180.118 300.886 179.933 301.087 179.767 301.755 179.215 302.12 178.889 302.12 178.889L253.646 176.758Z" fill="#737373"/><path d="M258.494 189.027 292.579 185.865C292.865 185.687 293.144 185.51 293.42 185.333L258.087 188.611C258.221 188.752 258.355 188.891 258.494 189.027Z" fill="#505050"/><path d="M301.087 179.767 288.798 181.557 253.844 180.095C253.869 180.248 253.898 180.399 253.928 180.551L286.351 181.907C286.37 181.908 286.37 181.911 286.352 181.914L256.257 186.298C256.349 186.438 256.441 186.577 256.536 186.714L288.82 182.011 297.719 182.383C297.917 182.237 298.109 182.095 298.296 181.955L291.266 181.661C291.247 181.66 291.247 181.657 291.266 181.655L300.404 180.323C300.659 180.118 300.886 179.933 301.087 179.767Z" fill="#505050"/><path d="M155.282 118.89C155.28 118.891 155.278 118.891 155.278 118.892 155.367 119.052 162.235 131.371 172.413 130.194 176.917 129.673 180.402 127.89 183.086 125.59 183.091 125.586 183.093 125.588 183.091 125.594 181.83 129.173 181.146 132.846 181.815 135.972 183.959 145.991 199.183 146.629 199.363 146.637 199.365 146.637 199.364 146.635 199.364 146.633L191.206 109.539C191.202 109.519 191.18 109.508 191.162 109.516L186.368 111.508 155.282 118.89Z" fill="#2F2F2F"/><path d="M176.401 113.874 165.776 129.089C165.915 129.152 166.054 129.218 166.196 129.277L177.062 113.717 176.401 113.874Z" fill="#505050"/><path d="M168.813 115.699 157.029 121.538C157.118 121.658 157.209 121.779 157.304 121.903L170.729 115.251C170.744 115.244 170.743 115.241 170.727 115.245L168.813 115.699Z" fill="#505050"/><path d="M190.69 110.357 182.144 126.308C182.14 126.316 182.143 126.317 182.149 126.313 182.452 126.083 182.746 125.847 183.031 125.606L191.345 110.192 190.69 110.357Z" fill="#505050"/><path d="M181.211 112.732 167.185 129.639C167.34 129.69 167.496 129.736 167.653 129.782L181.942 112.559 181.211 112.732Z" fill="#505050"/><path d="M188.178 111 170.435 130.254C170.634 130.265 170.837 130.264 171.04 130.264L188.989 110.783 188.178 111Z" fill="#505050"/><path d="M355.134 121.124C355.017 120.971 354.893 120.821 354.77 120.672 354.247 120.044 353.675 119.456 353.064 118.913 352.937 118.802 352.81 118.694 352.684 118.587 351.104 117.272 349.264 116.25 347.243 115.609 347.097 115.563 346.951 115.515 346.801 115.473 345.745 115.172 344.646 114.973 343.509 114.891L340.025 163.287C340.025 163.287 340.389 162.962 341.016 162.362 341.204 162.182 341.412 161.978 341.646 161.749 342.173 161.231 342.803 160.59 343.512 159.843 343.671 159.673 343.834 159.499 344.003 159.319 345.043 158.201 346.213 156.878 347.431 155.39 347.636 155.136 347.848 154.878 348.055 154.615 352.755 148.716 357.88 140.497 358.478 132.185 358.777 128.048 357.49 124.164 355.134 121.124Z" fill="#2F2F2F"/><path d="M352.684 118.587 344.851 147.973C344.845 147.991 344.841 147.991 344.845 147.972L347.243 115.61C347.097 115.563 346.951 115.516 346.801 115.473L344.214 150.361 341.016 162.363C341.201 162.182 341.412 161.978 341.646 161.749L344.026 152.823C344.029 152.805 344.032 152.805 344.032 152.824L343.512 159.843C343.671 159.674 343.834 159.499 344.003 159.319L344.659 150.435 353.064 118.913C352.937 118.802 352.81 118.694 352.684 118.587Z" fill="#505050"/><path d="M354.77 120.672 347.431 155.39C347.639 155.136 347.848 154.879 348.055 154.616L355.134 121.125C355.017 120.971 354.893 120.821 354.77 120.672Z" fill="#505050"/><path d="M343.483 211.656C343.047 210.497 342.384 209.485 341.559 208.645 340.402 207.468 339.973 204.858 339.973 204.858 339.973 204.858 344.542 196.413 343.005 185.705 340.62 169.07 330.658 146.264 321.252 135.698 303.253 115.485 274.827 101.883 246.805 99.645 230.421 98.3365 214.565 102.245 200.005 106.405 197.986 106.982 194.372 108.398 192.432 109.127 191.973 109.299 191.246 109.696 191.355 110.191 219.988 105.421 252.18 113.843 270.435 138.738 270.428 138.745 270.437 138.736 270.43 138.743L256.298 129.632C253.76 133.569 254.894 138.819 258.831 141.357 263.348 144.269 269.96 144.266 274.034 143.907 281.605 155.409 284.682 164.666 291.084 180.111 297.273 197.868 310.419 216.177 324.685 218.045 324.744 218.245 324.799 218.445 324.873 218.642 326.661 223.408 330.161 222.641 335.302 220.711 340.441 218.782 345.273 216.421 343.483 211.656Z" fill="#737373"/><path d="M308.746 146.842C326.206 166.45 336.014 190.215 338.4 214.487 338.4 214.49 338.403 214.491 338.403 214.489 351.286 206.023 352.68 187.308 347.526 169.494 343.372 155.147 334.1 141.64 325.471 131.95 289.601 91.6659 230.664 84.1357 186.299 111.52 186.288 111.527 186.289 111.529 186.302 111.526 229.108 99.1568 277.138 111.345 308.746 146.842Z" fill="#CDCDCD"/><path d="M330.949 157.447C332.558 159.056 332.558 161.665 330.949 163.275 329.34 164.884 326.731 164.884 325.121 163.275 323.512 161.666 323.512 159.056 325.121 157.447 326.73 155.838 329.34 155.838 330.949 157.447Z" fill="#E1E1E1"/><path d="M320.126 142.575C321.736 144.185 321.736 146.794 320.126 148.403 318.517 150.012 315.908 150.013 314.298 148.403 312.689 146.794 312.689 144.185 314.298 142.575 315.908 140.966 318.517 140.966 320.126 142.575Z" fill="#E1E1E1"/><path d="M303.484 124.527C304.611 125.654 304.611 127.481 303.484 128.608 302.357 129.735 300.53 129.735 299.403 128.608 298.276 127.481 298.276 125.654 299.403 124.527 300.53 123.4 302.357 123.4 303.484 124.527Z" fill="#E1E1E1"/><path d="M327.082 145.238C327.833 145.99 327.833 147.208 327.082 147.959 326.33 148.711 325.112 148.711 324.361 147.959 323.609 147.208 323.609 145.99 324.361 145.238 325.112 144.487 326.33 144.487 327.082 145.238Z" fill="#E1E1E1"/><path d="M317.509 133.045C318.385 133.922 318.385 135.343 317.509 136.22 316.632 137.097 315.211 137.097 314.334 136.22 313.458 135.343 313.458 133.922 314.334 133.045 315.211 132.169 316.632 132.169 317.509 133.045Z" fill="#E1E1E1"/><path d="M300.754 150.931C301.888 152.065 301.888 153.903 300.754 155.036 299.621 156.17 297.783 156.17 296.649 155.036 295.516 153.903 295.516 152.065 296.649 150.931 297.783 149.797 299.621 149.797 300.754 150.931Z" fill="#505050"/><path d="M310.479 165.594C311.612 166.727 311.612 168.565 310.479 169.699 309.345 170.833 307.507 170.833 306.374 169.699 305.24 168.565 305.24 166.727 306.374 165.594 307.507 164.46 309.345 164.46 310.479 165.594Z" fill="#505050"/><path d="M319.913 171.712C321.047 172.845 321.047 174.683 319.913 175.817 318.78 176.95 316.942 176.95 315.808 175.817 314.674 174.683 314.674 172.845 315.808 171.712 316.941 170.578 318.779 170.578 319.913 171.712Z" fill="#505050"/><path d="M310.178 155.279C311.474 156.575 311.474 158.675 310.178 159.971 308.883 161.267 306.782 161.267 305.486 159.971 304.191 158.675 304.191 156.575 305.486 155.279 306.782 153.984 308.883 153.984 310.178 155.279Z" fill="#505050"/><path d="M299.435 144.634C300.053 145.251 300.053 146.252 299.435 146.87 298.818 147.487 297.817 147.487 297.199 146.87 296.582 146.252 296.582 145.251 297.199 144.634 297.817 144.016 298.818 144.016 299.435 144.634Z" fill="#505050"/><path d="M304.003 162.672C304.797 163.466 304.797 164.753 304.003 165.547 303.209 166.341 301.921 166.342 301.128 165.548 300.334 164.754 300.334 163.467 301.128 162.673 301.922 161.879 303.209 161.878 304.003 162.672Z" fill="#505050"/><path d="M323.848 211.752C323.414 211.861 322.956 211.907 322.487 211.88 320 211.736 318.094 209.595 318.238 207.108L319.14 207.161C319.025 209.15 320.55 210.863 322.539 210.978 324.53 211.094 326.241 209.568 326.355 207.579L327.259 207.631C327.142 209.648 325.712 211.283 323.848 211.752Z" fill="#505050"/><path d="M247.318 238.479C243.17 233.949 236.448 231.545 231.035 230.285 230.793 230.229 230.555 230.175 230.319 230.124 228.935 229.82 227.653 229.592 226.542 229.421 226.362 229.394 226.188 229.368 226.017 229.343 225.268 229.235 224.609 229.155 224.069 229.095 223.829 229.069 223.614 229.048 223.423 229.029 222.787 228.968 222.427 228.948 222.427 228.948L246.577 255.319C247.197 254.752 247.741 254.133 248.213 253.477 248.28 253.384 248.343 253.29 248.407 253.195 249.282 251.901 249.877 250.47 250.188 248.987 250.213 248.866 250.237 248.746 250.259 248.625 250.365 248.031 250.425 247.43 250.44 246.828 250.443 246.685 250.446 246.542 250.445 246.399 250.414 243.566 249.382 240.733 247.318 238.479Z" fill="#737373"/><path d="M231.035 230.286C230.793 230.229 230.555 230.176 230.319 230.124L250.439 246.828C250.443 246.685 250.445 246.543 250.444 246.4L231.035 230.286Z" fill="#505050"/><path d="M226.542 229.422C226.362 229.394 226.188 229.368 226.018 229.344L229.522 233.154C229.535 233.168 229.533 233.17 229.518 233.159L224.069 229.096C223.829 229.07 223.615 229.048 223.424 229.03L230.761 234.501 248.214 253.478C248.28 253.385 248.344 253.29 248.407 253.196L232.224 235.6C232.211 235.586 232.213 235.584 232.228 235.595L250.188 248.987C250.213 248.867 250.237 248.746 250.259 248.625L230.985 234.253 226.542 229.422Z" fill="#505050"/><path d="M193.547 217.292C193.355 217.288 193.139 217.285 192.899 217.284 192.355 217.28 191.691 217.284 190.933 217.305 190.761 217.31 190.585 217.315 190.404 217.322 189.28 217.363 187.98 217.441 186.571 217.583 186.33 217.607 186.088 217.633 185.841 217.661 180.318 218.287 173.364 219.898 168.721 223.918 166.41 225.919 165.057 228.613 164.7 231.424 164.682 231.566 164.668 231.708 164.655 231.85 164.601 232.45 164.59 233.054 164.627 233.656 164.634 233.779 164.644 233.901 164.656 234.024 164.794 235.533 165.219 237.023 165.938 238.41 165.991 238.511 166.042 238.612 166.098 238.712 166.491 239.418 166.961 240.096 167.511 240.731L194.546 217.327C194.546 217.327 194.186 217.305 193.547 217.292Z" fill="#737373"/><path d="M192.899 217.283 187.015 220.69C186.999 220.7 186.997 220.697 187.011 220.685L190.933 217.304C190.761 217.309 190.585 217.315 190.404 217.321L185.431 221.607 164.627 233.655C164.634 233.778 164.644 233.901 164.656 234.023L184.042 222.797C184.059 222.787 184.061 222.789 184.046 222.802L165.939 238.41C165.991 238.511 166.043 238.612 166.098 238.712L185.626 221.879 193.547 217.292C193.355 217.288 193.139 217.285 192.899 217.283Z" fill="#505050"/><path d="M164.655 231.85 186.571 217.583C186.33 217.607 186.088 217.633 185.841 217.661L164.7 231.424C164.682 231.566 164.668 231.708 164.655 231.85Z" fill="#505050"/><path d="M217.948 190.319C217.66 190.953 217.485 191.612 217.416 192.275 217.268 193.696 214.045 196.235 213.005 197.665 198.792 204.252 192.503 228.57 191.512 245.678 190.377 265.259 197.279 285.831 210.232 300.105 220.4 311.31 234.39 319.8 247.634 324.381L267.683 336.732C267.683 336.732 270.6 326.635 264.643 321.914 262.026 319.84 259.282 318.953 256.686 318.752 256.679 318.751 256.679 318.749 256.685 318.746 259.206 317.538 261.475 315.981 262.755 314.004 266.883 307.628 259.167 299.302 259.167 299.302L244.516 322.138C244.515 322.14 244.513 322.14 244.512 322.139 227.105 309.705 214.558 288.872 218.016 266.388 218.026 266.387 218.012 266.388 218.022 266.387L220.637 278.495C224.012 277.766 226.156 274.439 225.427 271.065 224.591 267.194 221.144 263.75 218.834 261.814 220.882 251.875 224.103 245.447 228.815 234.063 234.844 221.585 237.534 205.194 231.073 196.786 231.146 196.651 231.222 196.518 231.287 196.376 232.837 192.961 230.614 191.537 226.931 189.864 223.247 188.191 219.499 186.904 217.948 190.319Z" fill="#F2F2F2"/><path d="M254.061 328.341 267.526 325.949C267.486 325.845 267.449 325.738 267.405 325.634L253.635 328.078 254.061 328.341Z" fill="#CDCDCD"/><path d="M259.043 331.37 268.149 334.445C268.165 334.334 268.181 334.227 268.196 334.113L257.83 330.616C257.814 330.609 257.813 330.613 257.827 330.622L259.043 331.37Z" fill="#CDCDCD"/><path d="M244.41 322.837 257.589 318.857C257.598 318.855 257.597 318.852 257.589 318.851 257.312 318.812 257.036 318.782 256.762 318.76L243.996 322.576C243.99 322.578 243.989 322.586 243.994 322.589L244.41 322.837Z" fill="#CDCDCD"/><path d="M250.959 326.43 267.078 324.928C267.024 324.822 266.967 324.716 266.909 324.61L250.488 326.141 250.959 326.43Z" fill="#CDCDCD"/><path d="M245.882 323.726 265.698 322.914C265.701 322.914 265.702 322.911 265.7 322.908 265.603 322.801 265.499 322.697 265.395 322.594L245.371 323.415C245.363 323.416 245.361 323.425 245.368 323.429L245.882 323.726Z" fill="#CDCDCD"/><path d="M202.275 242.196C203.395 222.88 210.668 205.385 222.072 191.494 222.073 191.492 222.072 191.489 222.07 191.489 210.946 189.189 200.467 198.215 193.872 210.184 188.56 219.825 186.353 231.695 185.8 241.24 183.499 280.922 210.285 315.557 247.67 324.408 247.683 324.411 247.684 324.409 247.672 324.403 218.923 308.54 200.248 277.162 202.275 242.196Z" fill="#CDCDCD"/><path d="M212.836 243.928C212.999 245.099 212.182 246.179 211.012 246.342 209.841 246.505 208.761 245.688 208.598 244.517 208.435 243.347 209.252 242.266 210.423 242.104 211.593 241.941 212.674 242.758 212.836 243.928Z" fill="#CDCDCD"/><path d="M215.409 231.22C215.572 232.39 214.755 233.471 213.584 233.633 212.414 233.796 211.334 232.979 211.171 231.808 211.008 230.638 211.825 229.557 212.996 229.395 214.166 229.232 215.247 230.049 215.409 231.22Z" fill="#CDCDCD"/><path d="M213.681 223.115C213.843 224.286 213.026 225.366 211.856 225.529 210.686 225.692 209.605 224.875 209.443 223.704 209.28 222.534 210.097 221.453 211.267 221.291 212.438 221.128 213.518 221.945 213.681 223.115Z" fill="#CDCDCD"/><path d="M210.799 236.709C210.985 238.047 210.052 239.282 208.714 239.468 207.377 239.653 206.142 238.72 205.956 237.382 205.77 236.045 206.704 234.81 208.041 234.624 209.379 234.438 210.614 235.372 210.799 236.709Z" fill="#CDCDCD"/><path d="M208.305 248.197C208.304 248.841 207.783 249.363 207.139 249.363 206.495 249.363 205.974 248.841 205.974 248.197 205.974 247.554 206.495 247.032 207.139 247.032 207.783 247.032 208.304 247.554 208.305 248.197Z" fill="#CDCDCD"/><path d="M216.001 236.249C216.093 237.072 215.502 237.813 214.679 237.906 213.857 237.998 213.115 237.406 213.023 236.584 212.931 235.761 213.522 235.02 214.345 234.928 215.167 234.835 215.909 235.427 216.001 236.249Z" fill="#CDCDCD"/><path d="M202.257 224.688C202.482 226.35 201.317 227.88 199.655 228.105 197.993 228.33 196.463 227.165 196.238 225.503 196.013 223.841 197.178 222.311 198.84 222.086 200.502 221.86 202.032 223.025 202.257 224.688Z" fill="#E1E1E1"/><path d="M200.146 238.076C200.371 239.739 199.206 241.268 197.544 241.494 195.882 241.719 194.352 240.554 194.127 238.892 193.902 237.23 195.067 235.7 196.729 235.475 198.391 235.249 199.921 236.414 200.146 238.076Z" fill="#E1E1E1"/><path d="M197.616 256.326C197.744 257.493 196.901 258.543 195.734 258.671 194.566 258.799 193.516 257.957 193.388 256.789 193.26 255.622 194.102 254.571 195.27 254.443 196.438 254.315 197.488 255.158 197.616 256.326Z" fill="#E1E1E1"/><path d="M194.699 233.314C194.785 234.092 194.223 234.793 193.445 234.878 192.666 234.963 191.966 234.402 191.88 233.623 191.795 232.845 192.357 232.144 193.135 232.059 193.914 231.974 194.614 232.536 194.699 233.314Z" fill="#E1E1E1"/><path d="M193.804 244.63C193.904 245.538 193.248 246.355 192.34 246.455 191.432 246.554 190.615 245.899 190.516 244.991 190.416 244.083 191.072 243.266 191.98 243.166 192.888 243.066 193.705 243.722 193.804 244.63Z" fill="#E1E1E1"/><path d="M228.23 200.501C228.513 200.671 228.776 200.885 229.006 201.144 230.227 202.515 230.105 204.624 228.734 205.845L228.291 205.347C229.388 204.371 229.485 202.684 228.509 201.587 227.532 200.489 225.845 200.393 224.748 201.369L224.305 200.871C225.418 199.882 227.015 199.775 228.23 200.501Z" fill="#CDCDCD"/><path d="M423.498 194.614C423.498 194.614 400.309 187.541 392.376 173.085 387.878 164.891 390.874 154.602 399.068 150.104L423.498 194.614Z" fill="#0E9DD4"/><path d="M397.277 151.245 420.657 193.627C420.895 193.716 421.122 193.799 421.333 193.876L397.663 150.968C397.53 151.058 397.404 151.152 397.277 151.245Z" fill="#505050"/><path d="M392.733 156.178 421.385 190.851C421.398 190.866 421.401 190.864 421.392 190.848L420.202 188.678 392.993 155.753C392.905 155.893 392.821 156.036 392.733 156.178Z" fill="#505050"/><path d="M391.446 158.792 415.597 191.335 415.977 191.053 391.657 158.282C391.586 158.451 391.514 158.62 391.446 158.792Z" fill="#505050"/><path d="M459.15 218.244C459.15 218.244 482.323 225.378 496.993 217.849 505.31 213.582 508.592 203.381 504.325 195.064L459.15 218.244Z" fill="#E6E6E6"/><path d="M464.86 219.646 505.713 198.795C505.674 198.638 505.638 198.481 505.593 198.325L464.126 219.491C464.363 219.542 464.61 219.594 464.86 219.646Z" fill="#505050"/><path d="M461.409 218.859 505.921 205.795C505.953 205.623 505.979 205.45 506.005 205.277L460.515 218.628C460.782 218.698 461.077 218.775 461.409 218.859Z" fill="#505050"/><path d="M471.27 220.715 505.069 208.85C505.141 208.66 505.209 208.468 505.274 208.276L470.239 220.576C470.577 220.624 470.922 220.67 471.27 220.715Z" fill="#505050"/><path d="M441.974 147.414C441.974 147.414 430.96 141.061 428.613 132.737 427.284 128.019 430.03 123.116 434.749 121.786L441.974 147.414Z" fill="#E3E3E3"/><path d="M422.396 52.884 397.728 27.9038C397.728 27.9038 390.302 40.8522 396.929 49.3701 399.841 53.1147 403.328 55.2623 406.845 56.4138 406.848 56.4148 406.848 56.419 406.845 56.4197 402.958 57.2367 399.301 58.6206 396.87 60.9174 389.028 68.3222 396.867 82.4067 396.867 82.4067L424.811 56.0212C424.811 56.0199 424.814 56.0199 424.814 56.0215 432.572 64.8355 438.922 75.1514 443.112 86.2339 443.228 86.5436 445.503 87.114 445.617 87.4247 452.078 105.083 453.898 122.735 446.313 141.071 445.981 141.87 444.996 144.125 444.665 144.885 444.444 145.393 441.857 146.023 441.636 146.516 438.656 153.134 435.581 158.42 432.104 163.595 431.483 164.519 432.403 167.877 431.753 168.805 428.132 173.962 423.995 178.812 419.013 185.618 411.388 194.865 405.967 204.61 403.497 215.431 403.292 216.332 400.627 217.183 400.478 218.07 399.425 224.311 399.809 230.131 402.158 234.949 401.105 238.719 402.493 243.07 405.974 245.805 409.701 248.732 414.661 248.887 418.132 246.499 422.49 247.384 427.017 247.072 431.535 245.813 431.662 245.777 431.915 245.704 431.915 245.704L431.938 245.747C433.04 247.822 435.614 248.612 437.69 247.51 439.523 246.537 440.352 244.415 439.761 242.503 446.134 239.171 452.273 234.202 457.675 228.323 460.145 225.636 462.423 222.714 464.513 219.664 465.085 218.825 463.271 216.636 463.817 215.778 469.797 206.392 473.59 196.902 476.385 187.785 480.707 173.679 482.56 160.315 481.497 146.445 481.422 145.458 483.818 143.842 483.717 142.859 483.142 137.262 482.163 131.859 480.789 126.459 480.688 126.068 478.049 125.861 477.945 125.471 473.934 110.405 468.653 98.6277 459.053 86.3843 458.929 86.2296 459.579 83.5591 459.459 83.4051 449.589 70.953 437.063 60.4558 422.396 52.884Z" fill="#0E9DD4"/><path d="M430.524 204.826C440.944 191.926 441.298 174.518 432.107 163.595 428.041 169.638 423.377 175.608 417.514 183.616 409.246 193.644 402.415 206.517 400.478 218.071 411.099 219.226 422.669 214.552 430.524 204.826Z" fill="#FFFFFF"/><path d="M454.324 160.93C439.559 179.21 438.867 203.14 452.78 214.378 456.212 217.151 460.213 218.89 464.513 219.666 471.37 209.653 476.223 198.15 479.271 188.203 483.912 173.055 485.257 157.684 483.717 142.86 473.34 144.508 462.524 150.78 454.324 160.93Z" fill="#FFFFFF"/><path d="M476.011 134.083C477.955 131.676 479.541 129.11 480.789 126.46 476.788 110.762 469.498 96.0719 459.459 83.4047 454.038 82.8711 448.386 83.8487 443.112 86.2345 449.884 104.14 451.012 124.018 443.29 142.681 442.741 144.015 442.188 145.286 441.636 146.515 453.323 149.677 467.07 145.151 476.011 134.083Z" fill="#FFFFFF"/><path d="M424.941 55.4616 424.424 54.938 405.607 55.9643C405.983 56.1138 406.36 56.2503 406.734 56.3761L423.917 55.4388C423.92 55.4385 423.923 55.4434 423.92 55.445L393.403 70.5871C393.409 70.7583 393.419 70.9293 393.432 71.0999L424.937 55.4671C424.941 55.4658 424.941 55.4632 424.941 55.4616Z" fill="#505050"/><path d="M396.133 31.3495 409.331 39.7121C409.344 39.7205 409.347 39.7182 409.334 39.7069L407.895 38.247 396.311 30.9068C396.253 31.0502 396.195 31.198 396.133 31.3495Z" fill="#505050"/><path d="M414.19 44.5747 413.689 44.069 394.303 42.833C394.323 42.9926 394.345 43.1519 394.371 43.3111L414.19 44.5747Z" fill="#505050"/><path d="M422.445 53.0007 395.798 47.6333C395.895 47.8156 395.999 47.997 396.107 48.1764L423.026 53.5987C423.03 53.5993 423.03 53.5954 423.03 53.5931L422.445 53.0007Z" fill="#505050"/><path d="M417.326 47.7506 394.582 44.3921C394.618 44.5582 394.66 44.7236 394.706 44.8887L417.878 48.3103 417.326 47.7506Z" fill="#505050"/><path d="M394.023 74.8611 410.777 69.2068 411.583 68.446C411.586 68.4434 411.583 68.4391 411.58 68.4404L393.919 74.4006C393.952 74.5553 393.988 74.709 394.023 74.8611Z" fill="#505050"/><path d="M410.348 231.475C409.88 231.475 409.412 231.406 408.957 231.265 407.748 230.895 406.757 230.077 406.165 228.962 405.574 227.846 405.451 226.567 405.821 225.36 406.191 224.152 407.007 223.161 408.125 222.569L408.567 223.404C407.677 223.878 407.02 224.671 406.724 225.636 406.429 226.603 406.526 227.626 407.001 228.518 407.475 229.41 408.268 230.065 409.233 230.361 410.199 230.657 411.223 230.559 412.116 230.085L412.558 230.92C411.866 231.288 411.109 231.475 410.348 231.475Z" fill="#505050"/><path d="M476.197 175.544C477.977 177.127 478.137 179.852 476.555 181.633 474.972 183.413 472.246 183.573 470.466 181.99 468.686 180.408 468.526 177.682 470.108 175.902 471.691 174.122 474.417 173.962 476.197 175.544Z" fill="#E3E3E3"/><path d="M458.152 168.85C459.932 170.433 460.093 173.159 458.51 174.939 456.928 176.719 454.202 176.879 452.422 175.297 450.642 173.714 450.482 170.988 452.064 169.208 453.646 167.428 456.372 167.268 458.152 168.85Z" fill="#E3E3E3"/><path d="M463.899 205.15C465.15 206.268 465.258 208.188 464.141 209.44 463.023 210.691 461.103 210.799 459.851 209.682 458.6 208.564 458.492 206.643 459.609 205.392 460.727 204.141 462.648 204.033 463.899 205.15Z" fill="#E3E3E3"/><path d="M462.504 194.235C463.755 195.352 463.864 197.273 462.746 198.524 461.628 199.775 459.708 199.884 458.457 198.766 457.205 197.648 457.097 195.728 458.215 194.476 459.333 193.225 461.253 193.117 462.504 194.235Z" fill="#E3E3E3"/><path d="M474.27 194.101C475.521 195.219 475.629 197.139 474.511 198.391 473.394 199.642 471.473 199.75 470.222 198.632 468.971 197.515 468.863 195.594 469.98 194.343 471.098 193.092 473.018 192.984 474.27 194.101Z" fill="#E3E3E3"/><path d="M456.469 185.525C457.899 186.802 458.023 188.997 456.746 190.426 455.468 191.856 453.274 191.98 451.844 190.703 450.414 189.426 450.29 187.231 451.567 185.801 452.845 184.371 455.039 184.247 456.469 185.525Z" fill="#E3E3E3"/><path d="M454.713 195.223C455.605 195.988 455.708 197.331 454.943 198.223 454.178 199.114 452.835 199.217 451.943 198.452 451.051 197.687 450.948 196.344 451.713 195.452 452.478 194.56 453.822 194.458 454.713 195.223Z" fill="#E3E3E3"/><path d="M464.673 166.6C465.519 167.322 465.619 168.593 464.897 169.438 464.175 170.284 462.904 170.384 462.058 169.662 461.213 168.94 461.113 167.669 461.835 166.823 462.557 165.978 463.828 165.878 464.673 166.6Z" fill="#E3E3E3"/><path d="M302.862 45.9365 302.339 46.1503 302.339 46.1503C311.018 26.3188 291.031 5.90655 271.085 14.3465 264.971 16.9338 259.283 20.8432 254.457 26.0754 237.672 44.2757 237.586 72.6745 254.271 90.9626 272.888 111.369 304.556 111.916 323.879 92.6065 328.37 88.1192 331.786 82.966 334.129 77.4654 342.521 57.77 322.687 37.8284 302.862 45.9365Z" fill="#2F2F2F"/><path d="M300.695 66.624 329.215 86.2777C329.339 86.1003 329.459 85.9215 329.582 85.7431L300.543 65.729 298.028 50.9181 303.098 45.8517C303.1 45.849 303.098 45.8451 303.094 45.8461 302.982 45.8854 302.527 46.0054 302.505 45.9833 302.483 45.9608 302.557 45.6388 302.659 45.3794 302.66 45.3762 302.656 45.3736 302.654 45.3762L297.651 50.376 281.828 38.3201 279.543 12.4127C279.327 12.4218 279.111 12.4361 278.894 12.4511L281.129 37.7871 259.517 21.3197C259.344 21.4601 259.173 21.6011 259.002 21.7444L297.186 50.8397 294.999 53.0254 273.145 53.027 250.748 30.6339C250.62 30.8129 250.494 30.9933 250.369 31.1737L272.227 53.0273 242.135 53.0293C242.11 53.2457 242.09 53.4625 242.067 53.6793L294.349 53.6757 282.555 65.4612 241.85 56.7934C241.842 57.0134 241.832 57.2332 241.827 57.4532L282.007 66.0091 255.62 92.3783C255.772 92.5327 255.923 92.6887 256.077 92.8405L289.665 59.2758 276.969 104.939C277.178 104.997 277.387 105.051 277.597 105.106L290.599 58.342 297.464 51.4813 306.349 103.789C306.556 103.714 306.762 103.633 306.968 103.555L300.695 66.624Z" fill="#505050"/><path d="M45.6394 198.062C53.8304 209.328 53.5486 223.515 53.5447 223.697 53.5447 223.7 53.545 223.699 53.5431 223.699 53.3689 223.646 39.7868 219.54 31.5958 208.274 23.3519 196.935 23.6905 182.637 23.6905 182.637 23.6905 182.637 37.3951 186.723 45.6394 198.062Z" fill="#F1F1F1"/><path d="M62.2131 198.312C62.2177 212.242 53.6507 223.554 53.5405 223.699 53.5392 223.7 53.5395 223.7 53.5382 223.699 53.428 223.554 44.8536 212.249 44.8487 198.32 44.8441 184.301 53.5223 172.932 53.5223 172.932 53.5223 172.932 62.2086 184.293 62.2131 198.312Z" fill="#F1F1F1"/><path d="M75.4793 208.259C67.2958 219.531 53.7153 223.647 53.5411 223.7 53.5392 223.7 53.5395 223.701 53.5395 223.698 53.5353 223.516 53.2435 209.331 61.4269 198.059 69.6634 186.714 83.3667 182.618 83.3667 182.618 83.3667 182.618 83.7161 196.915 75.4793 208.259Z" fill="#FFFFFF"/><path d="M61.1195 219.103C61.1195 214.75 57.5906 211.221 53.2373 211.221 48.8839 211.221 45.355 214.75 45.355 219.103L53.5366 223.7C53.5376 223.701 53.5389 223.701 53.5398 223.7L61.1195 219.103Z" fill="#0E9DD4"/><path d="M80.3644 218.177C67.1612 222.472 53.7989 223.678 53.5428 223.7 53.5402 223.701 53.5402 223.699 53.5418 223.697 53.7092 223.456 61.7994 211.884 74.9918 207.592 88.3233 203.256 101.817 207.996 101.817 207.996 101.817 207.996 93.6959 213.84 80.3644 218.177Z" fill="#CDCDCD"/><path d="M32.0739 207.607C45.2692 211.889 53.3686 223.456 53.5359 223.697 53.5376 223.7 53.5376 223.701 53.535 223.701 53.2785 223.678 39.921 222.482 26.715 218.196 13.3806 213.868 5.25005 208.029 5.25005 208.029 5.25005 208.029 18.7392 203.279 32.0739 207.607Z" fill="#CDCDCD"/><path d="M546.055 66.6107C554.245 77.8768 553.962 92.0644 553.959 92.2464 553.959 92.2486 553.959 92.2483 553.959 92.2477 553.784 92.1954 540.202 88.0893 532.012 76.8232 523.767 65.4843 524.105 51.1859 524.105 51.1859 524.105 51.1859 537.81 55.2714 546.055 66.6107Z" fill="#F1F1F1"/><path d="M562.627 66.8613C562.633 80.7904 554.066 92.1027 553.956 92.2477 553.953 92.2493 553.953 92.2493 553.953 92.2477 553.842 92.1031 545.269 80.7979 545.262 66.8687 545.259 52.8495 553.937 41.481 553.937 41.481 553.937 41.481 562.624 52.8421 562.627 66.8613Z" fill="#F1F1F1"/><path d="M575.893 76.8082C567.71 88.0799 554.131 92.196 553.956 92.2486 553.953 92.2493 553.953 92.2496 553.953 92.2474 553.949 92.0654 553.657 77.8794 561.84 66.6078 570.079 55.2633 583.781 51.167 583.781 51.167 583.781 51.167 584.132 65.4634 575.893 76.8082Z" fill="#FFFFFF"/><path d="M561.535 87.6518C561.535 83.2985 558.005 79.7696 553.654 79.7696 549.299 79.7696 545.769 83.2985 545.769 87.6518L553.953 92.249C553.953 92.2496 553.953 92.2496 553.956 92.249L561.535 87.6518Z" fill="#0E9DD4"/><path d="M580.778 86.7256C567.577 91.0205 554.213 92.2265 553.956 92.2493 553.956 92.2496 553.956 92.248 553.956 92.2457 554.125 92.0046 562.214 80.4326 575.406 76.1413 588.737 71.8048 602.232 76.5453 602.232 76.5453 602.232 76.5453 594.11 82.3891 580.778 86.7256Z" fill="#CDCDCD"/><path d="M532.49 76.1556C545.685 80.4381 553.784 92.0052 553.949 92.2464 553.953 92.2486 553.953 92.2503 553.949 92.2499 553.693 92.2272 540.335 91.0305 527.13 86.7444 513.796 82.4167 505.664 76.5778 505.664 76.5778 505.664 76.5778 519.155 71.8276 532.49 76.1556Z" fill="#EDEDED"/></g></svg>