<?xml version="1.0" encoding="utf-8"?>
<!-- Generator: Adobe Illustrator 16.0.3, SVG Export Plug-In . SVG Version: 6.00 Build 0)  -->
<!DOCTYPE svg PUBLIC "-//W3C//DTD SVG 1.1//EN" "http://www.w3.org/Graphics/SVG/1.1/DTD/svg11.dtd">
<svg version="1.1" id="Layer_1" xmlns="http://www.w3.org/2000/svg" xmlns:xlink="http://www.w3.org/1999/xlink" x="0px" y="0px"
	 width="624px" height="351px" viewBox="0 0 624 351" enable-background="new 0 0 624 351" xml:space="preserve">
<path fill="#737373" d="M0,0h624v351H0V0z"/>
<path fill="#505050" d="M181.968,127.373c0,50.161-40.664,90.825-90.825,90.825S0.317,177.534,0.317,127.373
	c0-50.162,40.664-90.826,90.825-90.826S181.968,77.211,181.968,127.373z"/>
<path fill="#505050" d="M75.091,43.471c0,50.162,40.664,90.825,90.826,90.825c50.161,0,90.825-40.664,90.825-90.825
	c0-15.748-4.01-30.559-11.061-43.471H86.153C79.102,12.912,75.091,27.723,75.091,43.471z"/>
<path fill="#505050" d="M428.017,212.076c0,60.355-48.926,109.281-109.28,109.281s-109.281-48.926-109.281-109.281
	c0-60.354,48.927-109.281,109.281-109.281S428.017,151.722,428.017,212.076z"/>
<path fill="#505050" d="M298.342,267.001c0,41.06-33.284,74.344-74.343,74.344s-74.344-33.284-74.344-74.344
	s33.285-74.343,74.344-74.343S298.342,225.941,298.342,267.001z"/>
<path d="M624,346.986V134.529c-9.516-2.675-19.552-4.109-29.923-4.109c-60.938,0-110.337,49.4-110.337,110.337
	c0,59.463,47.04,107.933,105.933,110.243h8.806C607.288,350.655,615.836,349.281,624,346.986z"/>
<path fill="#2F2F2F" d="M367.13,246.77c-42.12,0-76.262,34.145-76.262,76.264c0,9.874,1.876,19.309,5.291,27.967H438.1
	c3.416-8.658,5.291-18.093,5.291-27.967C443.391,280.914,409.246,246.77,367.13,246.77z"/>
<path fill="#2F2F2F" d="M70.667,193.145c-28.549,0-54.018,13.178-70.667,33.776v114.101c2.875,3.557,6.011,6.895,9.382,9.979
	h122.571c18.153-16.607,29.54-40.486,29.54-67.029C161.493,233.809,120.829,193.145,70.667,193.145z"/>
<path fill="#2F2F2F" d="M32.834,99.477c-0.289,0.027-0.561,0.053-0.561,0.053l-12.382-2.533L0,64.994v2.109l19.197,30.886
	c1.972,6.546,7.632,23.137,18.596,39.741c14.09,21.339,31.603,34.616,31.603,34.616L20.473,98.251l11.34,2.321
	c4.856,2.693,21.477,11.315,42.451,15.605c25.052,5.126,46.823,2.13,46.823,2.13s-18.846-11.305-43.897-16.431
	C57.148,97.777,39.209,98.874,32.834,99.477z"/>
<path fill="#2F2F2F" d="M99.112,0H71.918c-5.497,2.904-11.205,6.223-16.914,9.992C27.871,27.908,10.09,49.79,7.168,53.505L0,52.234
	v1.131l6.345,1.125c3.997,2.305,28.696,16.042,60.636,22.577c34.931,7.146,65.288,2.97,65.288,2.97s-26.277-15.763-61.208-22.911
	c-29.091-5.952-55.006-4.05-62.859-3.248l-0.054-0.199c6.223-1.731,32.136-9.576,58.072-26.702C79.728,18.058,90.918,8.155,99.112,0
	z"/>
<path fill="#505050" d="M140.784,275.331c0,0-19.502,10.13-36.991,28.786c-17.489,18.654-26.342,38.771-26.342,38.771
	s19.502-10.135,36.991-28.789C131.931,295.445,140.784,275.331,140.784,275.331z"/>
<path fill="#505050" d="M62.462,285.896c-20.308,21.662-32.263,44.732-35.694,51.84l-0.198-0.055
	c1.785-6.211,8.676-32.393,7.674-63.455c-1.149-35.637-12.252-64.196-12.252-64.196s-9.239,29.216-8.09,64.852
	c1.048,32.493,10.37,59.099,12.006,63.541L14.688,351h1.493l10.129-11.355c4.035-2.185,28.691-16.03,51.001-39.828
	c24.385-26.012,36.729-54.058,36.729-54.058S86.848,259.885,62.462,285.896z"/>
<path fill="#737373" d="M127.392,23.658c0,4.039-3.274,7.313-7.312,7.313c-4.039,0-7.313-3.274-7.313-7.313s3.274-7.313,7.313-7.313
	C124.118,16.345,127.392,19.619,127.392,23.658z"/>
<path fill="#505050" d="M427.043,313.559c0,4.037-3.273,7.312-7.313,7.312c-4.038,0-7.313-3.274-7.313-7.312
	c0-4.039,3.274-7.313,7.313-7.313C423.77,306.245,427.043,309.52,427.043,313.559z"/>
<path fill="#CFCFCF" d="M195.485,330.2c0,4.039-3.274,7.312-7.313,7.312s-7.312-3.272-7.312-7.312s3.273-7.313,7.312-7.313
	S195.484,326.161,195.485,330.2z"/>
<path fill="#D2D2D2" d="M238.062,128.034c0,4.038-3.274,7.312-7.312,7.312c-4.039,0-7.313-3.274-7.313-7.312
	c0-4.039,3.274-7.313,7.313-7.313C234.788,120.721,238.062,123.995,238.062,128.034z"/>
<path fill="#505050" d="M350.633,21.904c14.342,14.342,14.342,37.595,0,51.937s-37.595,14.342-51.937,0
	c-14.342-14.342-14.342-37.595,0-51.937C313.038,7.562,336.291,7.562,350.633,21.904z"/>
<path fill="#737373" d="M101.392,37.633c0,6.91-5.602,12.512-12.512,12.512c-6.911,0-12.513-5.602-12.513-12.512
	c0-6.911,5.602-12.513,12.513-12.513C95.79,25.12,101.392,30.722,101.392,37.633z"/>
<path fill="#737373" d="M295.092,218.658c0,6.91-5.602,12.512-12.512,12.512c-6.911,0-12.513-5.602-12.513-12.512
	c0-6.911,5.602-12.514,12.513-12.514C289.49,206.145,295.092,211.747,295.092,218.658z"/>
<path fill="#2F2F2F" d="M389.607,61.684c0,7.331-5.942,13.273-13.273,13.273s-13.274-5.943-13.274-13.273
	c0-7.331,5.943-13.274,13.274-13.274S389.607,54.353,389.607,61.684z"/>
<path fill="#E600FF" d="M264.624,219.309c-21.985,0-42.654-8.563-58.2-24.107c-15.545-15.546-24.106-36.215-24.106-58.2
	s8.561-42.653,24.106-58.199c15.546-15.546,36.215-24.107,58.2-24.107s42.653,8.562,58.199,24.107
	c15.544,15.546,24.107,36.214,24.107,58.199s-8.563,42.654-24.107,58.2C307.277,210.746,286.608,219.309,264.624,219.309z
	 M264.624,55.345c-45.026,0-81.656,36.631-81.656,81.656c0,45.026,36.63,81.656,81.656,81.656c45.025,0,81.657-36.632,81.657-81.656
	C346.281,91.976,309.649,55.345,264.624,55.345z"/>
<path fill="#E600FF" d="M264.624,198.813c-34.083,0-61.811-27.729-61.811-61.812s27.728-61.811,61.811-61.811
	s61.809,27.728,61.809,61.811S298.706,198.813,264.624,198.813z M264.624,75.84c-33.724,0-61.161,27.437-61.161,61.161
	c0,33.725,27.436,61.162,61.161,61.162c33.724,0,61.159-27.437,61.159-61.162C325.783,103.277,298.348,75.84,264.624,75.84z"/>
<path fill="#E600FF" d="M143.758,182.934c-19.614,0-38.054-7.638-51.922-21.507c-13.869-13.869-21.507-32.308-21.507-51.922
	c0-19.614,7.638-38.053,21.507-51.922c13.869-13.869,32.309-21.507,51.922-21.507c19.613,0,38.053,7.638,51.922,21.507
	c13.869,13.869,21.506,32.309,21.506,51.922c0,19.614-7.637,38.053-21.506,51.922C181.811,175.296,163.371,182.934,143.758,182.934z
	 M143.758,36.454c-40.281,0-73.052,32.771-73.052,73.051c0,40.281,32.771,73.052,73.052,73.052c40.28,0,73.051-32.771,73.051-73.052
	C216.809,69.224,184.038,36.454,143.758,36.454z"/>
<path fill="#E600FF" d="M143.758,164.624c-30.393,0-55.119-24.726-55.119-55.119c0-30.393,24.727-55.119,55.119-55.119
	c30.392,0,55.119,24.727,55.119,55.119C198.877,139.898,174.15,164.624,143.758,164.624z M143.758,54.764
	c-30.185,0-54.742,24.557-54.742,54.741c0,30.184,24.557,54.741,54.742,54.741c30.184,0,54.741-24.557,54.741-54.741
	C198.499,79.32,173.942,54.764,143.758,54.764z"/>
<path fill="#E600FF" d="M135.548,339.131c-29.586,0-53.656-24.068-53.656-53.654s24.07-53.656,53.656-53.656
	s53.657,24.07,53.657,53.656S165.134,339.131,135.548,339.131z M135.548,232.145c-29.407,0-53.331,23.924-53.331,53.332
	c0,29.406,23.924,53.33,53.331,53.33c29.407,0,53.332-23.924,53.332-53.33C188.88,256.068,164.955,232.145,135.548,232.145z"/>
<path fill="#E600FF" d="M135.548,325.76c-22.212,0-40.282-18.072-40.282-40.283c0-22.213,18.07-40.283,40.282-40.283
	c22.213,0,40.283,18.072,40.283,40.283S157.761,325.76,135.548,325.76z M135.548,245.518c-22.032,0-39.957,17.926-39.957,39.959
	c0,22.032,17.925,39.955,39.957,39.955c22.033,0,39.958-17.923,39.958-39.955C175.506,263.443,157.581,245.518,135.548,245.518z"/>
<path fill="#2F2F2F" d="M419.243,81.171c0,50.161,40.664,90.825,90.825,90.825c50.16,0,90.823-40.664,90.823-90.825
	c0-35.495-20.363-66.229-50.043-81.171h-81.564C439.605,14.941,419.243,45.676,419.243,81.171z"/>
<path fill="#E600FF" d="M452.514,299.098c-27.703,0-53.749-10.787-73.34-30.378c-19.591-19.59-30.378-45.636-30.378-73.34
	c0-27.705,10.787-53.751,30.378-73.341s45.637-30.379,73.34-30.379c27.706,0,53.751,10.789,73.344,30.379
	c19.587,19.59,30.377,45.636,30.377,73.341c0,27.704-10.79,53.75-30.377,73.34C506.265,288.311,480.22,299.098,452.514,299.098z
	 M452.514,92.479c-56.738,0-102.898,46.161-102.898,102.9c0,56.739,46.16,102.899,102.898,102.899s102.901-46.16,102.901-102.899
	C555.415,138.64,509.252,92.479,452.514,92.479z"/>
<path fill="#E600FF" d="M452.514,273.271c-20.807,0-40.364-8.103-55.078-22.814c-14.713-14.712-22.812-34.271-22.812-55.077
	s8.102-40.366,22.812-55.078c14.714-14.712,34.271-22.814,55.078-22.814s40.365,8.102,55.077,22.814
	c14.713,14.712,22.815,34.272,22.815,55.078s-8.103,40.365-22.815,55.077C492.879,265.169,473.32,273.271,452.514,273.271z
	 M452.514,118.307c-42.497,0-77.07,34.574-77.07,77.072s34.573,77.073,77.07,77.073s77.073-34.575,77.073-77.073
	C529.587,152.882,495.011,118.307,452.514,118.307z"/>
<path fill="#E600FF" d="M452.514,244.215c-26.927,0-48.835-21.906-48.835-48.835s21.908-48.837,48.835-48.837
	c26.93,0,48.837,21.908,48.837,48.837C501.348,222.307,479.443,244.215,452.514,244.215z M452.514,147.363
	c-26.475,0-48.016,21.54-48.016,48.017c0,26.476,21.541,48.017,48.016,48.017c26.478,0,48.019-21.541,48.019-48.017
	C500.532,168.903,478.991,147.363,452.514,147.363z"/>
<path fill="#737373" d="M54.048,223.516l0.768,0.322l0,0c-29.677,11.607-30.119,53.66-0.573,65.637
	c9.058,3.672,19.047,5.522,29.516,5.099c36.417-1.472,66.066-30.944,67.735-67.347c1.863-40.621-30.531-74.153-70.743-74.167
	c-9.345-0.004-18.266,1.804-26.431,5.09C25.083,169.916,24.972,211.32,54.048,223.516z"/>
<path fill="#505050" d="M148.219,202.32l-37.277,21.058l-13.036-0.004l34.217-48.22c-0.223-0.236-0.45-0.468-0.676-0.701
	l-20.054,28.258l-8.484-46.103c-0.343-0.113-0.688-0.224-1.034-0.332l8.746,47.524L96.73,223.373l-43.037-0.014
	c-0.003,0-0.004,0.004-0.001,0.005c0.19,0.108,0.846,0.474,0.846,0.474s-0.506,0.268-0.878,0.471
	c-0.003,0.002-0.001,0.006,0.002,0.006l10.432,0.004l3.92,29.019l-24.588,29.347c0.234,0.215,0.475,0.426,0.715,0.635l24.046-28.698
	l5.355,39.637c0.325,0.033,0.651,0.066,0.978,0.095l-9.461-70.033l4.552,0.002l22.749,22.746l0.004,46.623
	c0.32-0.053,0.638-0.109,0.957-0.168l-0.004-45.498l31.324,31.319c0.252-0.198,0.499-0.403,0.747-0.606L70.964,224.32l24.543,0.009
	l33.348,51.394c0.238-0.221,0.476-0.44,0.711-0.664L96.648,224.33l54.915,0.018c0.002-0.317,0.007-0.638,0.005-0.955l-38.695-0.014
	l35.636-20.128C148.415,202.939,148.318,202.63,148.219,202.32z"/>
<path fill="#E6E6E6" d="M108.226,272.928c0,2.246-1.821,4.067-4.067,4.067c-2.246,0-4.067-1.821-4.067-4.067
	s1.821-4.066,4.067-4.066C106.405,268.861,108.226,270.682,108.226,272.928z"/>
<path fill="#E6E6E6" d="M87.901,284.313c0,1.614-1.31,2.924-2.925,2.924c-1.615,0-2.925-1.31-2.925-2.924
	c0-1.616,1.31-2.926,2.925-2.926C86.591,281.387,87.901,282.696,87.901,284.313z"/>
<path fill="#CFCFCF" d="M81.082,266.968c2.217,0.36,3.723,2.449,3.363,4.666c-0.36,2.218-2.449,3.722-4.666,3.363
	c-2.217-0.36-3.723-2.449-3.363-4.666S78.865,266.607,81.082,266.968z"/>
<path fill="#737373" d="M624,35.847c-11.908-9.085-26.777-14.487-42.907-14.493c-9.343-0.003-18.265,1.804-26.429,5.09
	c-29.237,11.766-29.347,53.17-0.273,65.366l0.769,0.322l0,0c-29.676,11.608-30.118,53.66-0.573,65.636
	c9.058,3.672,19.049,5.523,29.518,5.1c14.924-0.604,28.706-5.911,39.896-14.467V35.847L624,35.847z"/>
<path fill="#505050" d="M624,91.677l-10.777-0.004L624,85.586V84.49l-12.714,7.182l-13.036-0.004L624,55.38v-1.655l-12.262,17.28
	l-8.486-46.103c-0.341-0.113-0.686-0.224-1.034-0.332l8.746,47.524l-13.89,19.573l-43.037-0.015
	c0.146,0.094,0.777,0.446,0.822,0.472c0.004,0.001,0.004,0.002,0,0.003c-0.039,0.022-0.497,0.277-0.858,0.482l10.437,0.004
	l3.92,29.019l-24.586,29.345c0.232,0.216,0.474,0.426,0.714,0.636l24.047-28.699l5.353,39.637c0.328,0.033,0.653,0.065,0.979,0.094
	l-9.461-70.032l4.554,0.002l22.746,22.746l0.007,46.623c0.318-0.053,0.637-0.11,0.955-0.167l-0.003-45.5L624,146.654V145.3
	l-52.692-52.684l24.544,0.008L624,136.004v-1.759l-27.008-41.621L624,92.633V91.677z"/>
<path fill="#CFCFCF" d="M567.776,144.562c0,2.246-1.821,4.066-4.067,4.066s-4.067-1.82-4.067-4.066s1.821-4.067,4.067-4.067
	S567.776,142.316,567.776,144.562z"/>
<path fill="#CFCFCF" d="M587.926,139.362c0,2.246-1.82,4.066-4.066,4.066s-4.067-1.82-4.067-4.066c0-2.246,1.821-4.067,4.067-4.067
	S587.926,137.116,587.926,139.362z"/>
<path fill="#737373" d="M328.087,267.684l-0.522,0.215l0,0c8.681-19.832-11.308-40.244-31.253-31.805
	c-6.114,2.588-11.802,6.497-16.627,11.729c-16.786,18.2-16.871,46.599-0.186,64.887c18.617,20.405,50.286,20.954,69.607,1.646
	c4.491-4.488,7.906-9.642,10.25-15.142C367.747,279.518,347.912,259.576,328.087,267.684z"/>
<path fill="#505050" d="M325.923,288.372l28.515,19.653c0.128-0.178,0.247-0.356,0.371-0.534l-29.039-20.015l-2.516-14.812
	l5.071-5.072c0.003-0.002,0-0.007-0.004-0.006c-0.12,0.039-0.646,0.199-0.646,0.199s0.175-0.546,0.217-0.668
	c0-0.003-0.003-0.007-0.006-0.003l-5.009,5.008l-15.823-12.055l-2.285-25.907c-0.216,0.009-0.433,0.022-0.649,0.038l2.235,25.336
	l-21.612-16.469c-0.172,0.142-0.344,0.283-0.515,0.426l38.185,29.096l-2.188,2.186l-21.854,0.002l-22.396-22.395
	c-0.128,0.18-0.253,0.359-0.379,0.54l21.858,21.853l-30.091,0.002c-0.025,0.218-0.046,0.434-0.068,0.65l52.281-0.003l-11.793,11.785
	l-40.705-8.668c-0.009,0.22-0.018,0.44-0.023,0.66l40.181,8.556l-26.387,26.369c0.153,0.155,0.303,0.311,0.457,0.463l33.588-33.564
	l-12.697,45.664c0.209,0.058,0.419,0.109,0.629,0.164l13.002-46.763l6.865-6.86l8.884,52.308c0.208-0.075,0.412-0.156,0.62-0.234
	L325.923,288.372z"/>
<path fill="#2F2F2F" d="M496.372,253.945l0.293,0.71l0,0c-26.894-11.771-54.574,15.335-43.131,42.383
	c3.51,8.292,8.811,16.005,15.906,22.549c24.68,22.765,63.192,22.878,87.992,0.253c27.671-25.246,28.415-68.191,2.23-94.395
	c-6.084-6.09-13.075-10.723-20.534-13.902C512.421,200.162,485.378,227.061,496.372,253.945z"/>
<path fill="#505050" d="M513.136,270.679l-9.483-9.489l71.133-12.082c-0.078-0.207-0.156-0.414-0.234-0.621l-50.375,8.557
	l26.81-38.898c-0.179-0.125-0.357-0.248-0.536-0.369l-27.163,39.42l-20.199,3.43l-6.731-6.736c-0.002-0.003-0.006,0-0.006,0.002
	c0.039,0.125,0.162,0.615,0.162,0.615s-0.497-0.145-0.627-0.184c-0.003-0.002-0.007,0.003-0.003,0.006l6.665,6.674l-16.441,21.578
	l-35.19,3.104c0.009,0.215,0.029,0.433,0.042,0.648l34.619-3.057l-22.51,29.543c0.14,0.173,0.279,0.345,0.423,0.516l39.522-51.868
	l3.092,3.095v29.73l-30.389,30.393c0.182,0.129,0.361,0.254,0.543,0.381l29.846-29.854l0.002,41.101
	c0.219,0.022,0.433,0.041,0.65,0.064l-0.003-71.165l16.224,16.235l-11.765,55.242c0.221,0.006,0.439,0.019,0.66,0.025l11.651-54.72
	l35.908,35.936c0.156-0.153,0.313-0.303,0.465-0.456l-45.824-45.856l62.345,17.333c0.058-0.209,0.11-0.42,0.165-0.629
	L513.136,270.679z"/>
<path fill="#2F2F2F" d="M482.017,114.514l-0.522,0.214l0,0c8.677-19.832-11.311-40.244-31.255-31.804
	c-6.114,2.587-11.802,6.497-16.627,11.729c-16.786,18.2-16.871,46.599-0.187,64.887c18.616,20.407,50.284,20.954,69.609,1.644
	c4.488-4.487,7.907-9.64,10.25-15.141C521.677,126.348,501.842,106.406,482.017,114.514z"/>
<path fill="#505050" d="M479.849,135.201l28.52,19.654c0.124-0.177,0.247-0.356,0.371-0.535l-29.042-20.012l-2.517-14.813
	l5.07-5.065c0.003-0.003,0-0.007-0.003-0.006c-0.114,0.041-0.572,0.175-0.605,0.145c-0.028-0.031,0.069-0.352,0.17-0.612
	c0.004-0.003-0.004-0.006-0.007-0.003l-5.002,5l-15.82-12.056l-2.288-25.908c-0.215,0.009-0.433,0.023-0.65,0.039l2.233,25.332
	l-21.606-16.464c-0.172,0.14-0.345,0.282-0.517,0.425l38.185,29.095l-2.188,2.186l-21.851,0.001L429.904,99.21
	c-0.131,0.179-0.254,0.359-0.381,0.541l21.855,21.854l-30.088,0.002c-0.026,0.216-0.046,0.433-0.068,0.65l52.279-0.003
	l-11.791,11.785l-40.706-8.668c-0.01,0.22-0.02,0.44-0.022,0.66l40.18,8.556l-26.387,26.369c0.152,0.154,0.302,0.31,0.458,0.462
	l33.586-33.565l-12.695,45.664c0.208,0.058,0.416,0.112,0.628,0.167l13.003-46.765l6.864-6.86l8.885,52.308
	c0.205-0.075,0.413-0.156,0.618-0.234L479.849,135.201z"/>
<path fill="#505050" d="M488.229,0.095l-5.13,9.032c-3.513,2.996-24.731,21.685-41.59,49.61
	c-18.431,30.541-24.658,60.56-24.658,60.56s23.661-19.497,42.095-50.037c14.901-24.688,21.824-49.033,23.93-57.458l0.374-0.661
	c0.003-0.003,0.006-0.001,0.006,0.001c-0.451,6.525-1.709,33.528,5.737,63.647c8.56,34.63,25.385,60.259,25.385,60.259
	s2.945-30.516-5.619-65.146c-7.797-31.548-22.454-55.624-24.999-59.659l5.756-10.151H488.229z"/>
<path fill="#505050" d="M437.145,7.867l-5.986,9.91c-4.173,3.684-17.85,16.457-28.906,34.773
	c-13.211,21.893-17.676,43.411-17.676,43.411s16.961-13.976,30.176-35.868c10.881-18.027,15.827-35.798,17.235-41.512l6.539-10.849
	l34.966-7.632c0.007-0.001,0.004-0.006,0-0.006h-5.19l-30.478,6.652c-6.829-0.332-24.359-0.55-43.674,4.225
	c-24.823,6.137-43.196,18.197-43.196,18.197l86.187-21.306C437.141,7.865,437.141,7.865,437.145,7.867z"/>
<path fill="#737373" d="M567.141,294.22c0,3.959-3.21,7.169-7.169,7.169c-3.96,0-7.169-3.21-7.169-7.169s3.209-7.169,7.169-7.169
	C563.931,287.051,567.141,290.261,567.141,294.22z"/>
<path fill="#505050" d="M621.166,296.253c0,4.035-3.271,7.306-7.306,7.306c-4.035,0-7.307-3.271-7.307-7.306
	c0-4.034,3.271-7.305,7.307-7.305C617.895,288.948,621.166,292.219,621.166,296.253z"/>
<path fill="#505050" d="M588.347,324.846c0,5.649-4.579,10.229-10.227,10.229c-5.649,0-10.229-4.579-10.229-10.229
	c0-5.648,4.579-10.228,10.229-10.228C583.768,314.618,588.347,319.197,588.347,324.846z"/>
<path fill="#737373" d="M172.107,55.2c0,0,6.682,12.356,4.069,21.546c-1.481,5.209-6.905,8.232-12.114,6.751L172.107,55.2z"/>
<path fill="#D2D2D2" d="M171.372,26.08c0,0-8.117-15.103-19.241-18.604c-6.306-1.984-13.026,1.519-15.011,7.824L171.372,26.08z"/>
<path fill="#D2D2D2" d="M137.709,68.781c0,0,2.385,8.669-0.569,14.024c-1.675,3.035-5.494,4.138-8.529,2.463L137.709,68.781z"/>
<path fill="#737373" d="M101.083,150.419c0,0,10.17-2.828,11.068-10.407c0.394-3.331-0.294-6.145-1.491-8.471
	c-0.002-0.004,0-0.006,0.004-0.003c2.361,1.519,4.888,2.639,7.254,2.692c7.626,0.17,10.678-10.814,10.678-10.814l-27.173-0.605
	c-0.001,0-0.003-0.001-0.003-0.002c0.476-8.288,2.408-16.639,5.804-24.297c-0.377-2.687-1.856-5.083-3.386-6.106
	c-1.759-1.176-4.718-1.846-6.247-0.591c-1.22,11.173-0.133,22.68,3.489,33.781L101.083,150.419z"/>
<path fill="#737373" d="M137.918,68.908c7.295-2.819,13.068-3.953,20.311-5.095c1-1.085,3.759-3.482,7.975-3.958
	c3.985-0.45,6.975,0.684,8.301,1.454c7.96-1.592,15.817-4.707,21.157-9.106c0.853,0.342,1.848,0.3,2.699-0.204
	c1.36-0.806,1.867-2.499,1.223-3.904c0.183-0.253,0.36-0.509,0.527-0.768c0.632-0.983,1.401-1.896,2.402-2.5
	c1.79-1.081,3.45-3.936,3.049-7.092c-0.381-3.012-2.688-5.39-4.521-6.478c-0.855-0.507-1.664-1.097-2.269-1.886
	c-0.396-0.516-0.823-1.007-1.272-1.479c-3.053-1.066-9.799-4.065-14.131-5.1c-4.582-1.094-11.284-1.983-15.466-2.827
	c-1.721,0.173-3.443,0.432-5.153,0.763c-4.068,1.653-8.631,10.814-20.207,16.903c-13.129,6.907-20.993,8.069-27.62,12.208
	c-2.47,3.082-4.694,6.328-6.67,9.704c-0.996,2.912,2.685,8.916,6.116,10.297C119.977,72.096,133.585,69.497,137.918,68.908z"/>
<path fill="#D2D2D2" d="M138.694,55.35c16.514-1.863,28.752-13.563,27.334-26.131c-0.35-3.101-1.499-5.963-3.278-8.491
	c-8.427,1.631-16.583,5.01-23.059,8.502c-9.863,5.317-18.177,12.384-24.768,20.609C120.966,54.167,129.524,56.384,138.694,55.35z"/>
<path fill="#E6E6E6" d="M107.224,98.512c5.488-12.376,14.797-22.941,27.956-28.498c0.94-0.396,1.849-0.763,2.738-1.106
	c-4.312-7.399-13.479-11.951-23.477-10.823c-2.172,0.245-4.246,0.744-6.188,1.457c-5.789,9.89-9.42,20.907-10.661,32.272
	C100.054,94.776,103.385,97.093,107.224,98.512z"/>
<path fill="#E6E6E6" d="M190.634,29.607c2.425-0.274,4.728-0.863,6.862-1.714c0.002-0.001,0.002-0.003,0.001-0.004
	c-5.907-6.193-16.309-8.643-27.004-8.122c-0.861,0.042-1.723,0.11-2.586,0.196c-0.002,0-0.003,0.003-0.002,0.004
	C172.471,26.662,181.18,30.673,190.634,29.607z"/>
<path fill="#D2D2D2" d="M165.648,55.673c-4.216,0.476-7.341,4.01-7.419,8.14c3.078-0.485,6.421-0.973,10.262-1.592
	c1.985-0.204,4.003-0.51,6.014-0.912C173.278,57.655,169.633,55.224,165.648,55.673z"/>
<path fill="#505050" d="M193.423,33.188c0-0.099,0.051-0.195,0.142-0.249c0.77-0.457,1.671-0.585,2.538-0.364
	c0.867,0.222,1.595,0.768,2.051,1.537c0.942,1.59,0.415,3.648-1.173,4.59c-0.138,0.082-0.315,0.036-0.397-0.102
	c-0.082-0.137-0.036-0.315,0.102-0.396c1.314-0.779,1.75-2.482,0.97-3.796c-0.377-0.637-0.98-1.088-1.697-1.271
	c-0.717-0.184-1.462-0.077-2.098,0.301c-0.138,0.082-0.316,0.036-0.397-0.102C193.436,33.29,193.423,33.239,193.423,33.188z"/>
<path fill="#737373" d="M116.104,63.889c1.298,1.073,1.48,2.996,0.407,4.294c-1.074,1.298-2.996,1.48-4.294,0.406
	c-1.298-1.073-1.48-2.996-0.407-4.294C112.884,62.997,114.806,62.815,116.104,63.889z"/>
<path fill="#737373" d="M117.528,72.347c0.621,0.551,0.679,1.502,0.128,2.124c-0.551,0.622-1.502,0.68-2.124,0.128
	c-0.622-0.551-0.679-1.502-0.128-2.124C115.955,71.853,116.906,71.796,117.528,72.347z"/>
<path fill="#737373" d="M159.103,36.889c1.298,1.073,1.48,2.996,0.407,4.294c-1.074,1.298-2.996,1.48-4.294,0.406
	c-1.298-1.073-1.48-2.996-0.406-4.293C155.883,35.997,157.805,35.815,159.103,36.889z"/>
<path fill="#737373" d="M146.281,39.875c0.918,0.751,1.053,2.105,0.301,3.023c-0.752,0.917-2.105,1.052-3.023,0.301
	c-0.918-0.752-1.053-2.105-0.301-3.023C144.01,39.258,145.363,39.124,146.281,39.875z"/>
<path fill="#737373" d="M153.903,43.737c1.05,0.859,1.203,2.406,0.344,3.455c-0.859,1.049-2.406,1.203-3.455,0.344
	s-1.203-2.406-0.344-3.455C151.307,43.032,152.854,42.878,153.903,43.737z"/>
<path fill="#737373" d="M138.686,46.171c0.586,0.524,0.637,1.424,0.113,2.011c-0.524,0.586-1.424,0.637-2.011,0.113
	c-0.586-0.524-0.637-1.424-0.113-2.011C137.199,45.698,138.099,45.647,138.686,46.171z"/>
<path fill="#737373" d="M253.646,176.758c-0.05,1.139,0.021,2.256,0.198,3.337c0.025,0.153,0.055,0.304,0.084,0.456
	c0.402,2.081,1.205,4.025,2.329,5.747c0.092,0.14,0.184,0.279,0.279,0.415c0.469,0.672,0.988,1.305,1.551,1.898
	c0.134,0.14,0.268,0.279,0.407,0.414c2.747,2.691,6.456,4.418,10.6,4.601c8.326,0.367,17.082-3.776,23.485-7.761
	c0.286-0.178,0.565-0.355,0.841-0.532c1.62-1.037,3.069-2.048,4.299-2.95c0.198-0.146,0.39-0.289,0.577-0.429
	c0.823-0.615,1.533-1.169,2.108-1.631c0.255-0.205,0.482-0.39,0.683-0.556c0.668-0.553,1.033-0.879,1.033-0.879L253.646,176.758z"/>
<path fill="#505050" d="M258.494,189.027l34.085-3.162c0.286-0.178,0.565-0.355,0.841-0.532l-35.333,3.278
	C258.221,188.752,258.355,188.891,258.494,189.027z"/>
<path fill="#505050" d="M301.087,179.768l-12.289,1.789l-34.954-1.462c0.025,0.153,0.054,0.304,0.084,0.456l32.423,1.356
	c0.019,0.001,0.019,0.004,0.001,0.007l-30.095,4.384c0.092,0.14,0.184,0.279,0.279,0.416l32.284-4.703l8.899,0.372
	c0.198-0.146,0.39-0.288,0.577-0.428l-7.03-0.294c-0.019-0.001-0.019-0.004,0-0.006l9.138-1.332
	C300.659,180.118,300.886,179.934,301.087,179.768z"/>
<path fill="#2F2F2F" d="M155.282,118.89c-0.002,0.001-0.004,0.001-0.004,0.002c0.089,0.16,6.957,12.479,17.135,11.302
	c4.504-0.521,7.989-2.304,10.673-4.604c0.005-0.004,0.007-0.002,0.005,0.004c-1.261,3.579-1.945,7.252-1.276,10.378
	c2.144,10.019,17.368,10.657,17.548,10.665c0.002,0,0.001-0.002,0.001-0.004l-8.158-37.094c-0.004-0.02-0.026-0.031-0.044-0.023
	l-4.794,1.992L155.282,118.89z"/>
<path fill="#505050" d="M176.401,113.874l-10.625,15.215c0.139,0.063,0.278,0.129,0.42,0.188l10.866-15.56L176.401,113.874z"/>
<path fill="#505050" d="M168.813,115.699l-11.784,5.839c0.089,0.12,0.18,0.241,0.275,0.365l13.425-6.652
	c0.015-0.007,0.014-0.01-0.002-0.006L168.813,115.699z"/>
<path fill="#505050" d="M190.69,110.357l-8.546,15.951c-0.004,0.008-0.001,0.009,0.005,0.005c0.303-0.23,0.597-0.466,0.882-0.707
	l8.313-15.414L190.69,110.357z"/>
<path fill="#505050" d="M181.211,112.732l-14.026,16.907c0.155,0.051,0.311,0.097,0.468,0.143l14.289-17.223L181.211,112.732z"/>
<path fill="#505050" d="M188.178,111l-17.743,19.254c0.199,0.011,0.402,0.01,0.605,0.01l17.949-19.481L188.178,111z"/>
<path fill="#2F2F2F" d="M355.134,121.124c-0.117-0.153-0.241-0.303-0.364-0.452c-0.522-0.628-1.095-1.216-1.705-1.759
	c-0.127-0.111-0.255-0.219-0.381-0.326c-1.58-1.315-3.42-2.337-5.44-2.978c-0.146-0.046-0.292-0.094-0.442-0.136
	c-1.056-0.301-2.154-0.5-3.292-0.582l-3.483,48.396c0,0,0.363-0.325,0.99-0.925c0.188-0.18,0.396-0.384,0.631-0.613
	c0.526-0.518,1.156-1.159,1.865-1.906c0.159-0.17,0.322-0.344,0.491-0.524c1.04-1.118,2.21-2.441,3.428-3.929
	c0.205-0.254,0.417-0.512,0.624-0.775c4.7-5.899,9.825-14.118,10.424-22.43C358.777,128.048,357.49,124.164,355.134,121.124z"/>
<path fill="#505050" d="M352.684,118.587l-7.833,29.386c-0.006,0.018-0.01,0.018-0.006-0.001l2.398-32.362
	c-0.146-0.047-0.292-0.094-0.442-0.137l-2.587,34.888l-3.198,12.002c0.186-0.181,0.396-0.385,0.631-0.614l2.38-8.926
	c0.003-0.018,0.006-0.018,0.006,0.001l-0.521,7.019c0.159-0.169,0.322-0.344,0.491-0.524l0.656-8.884l8.405-31.522
	C352.938,118.802,352.81,118.694,352.684,118.587z"/>
<path fill="#505050" d="M354.77,120.672l-7.339,34.718c0.208-0.254,0.417-0.511,0.624-0.774l7.079-33.491
	C355.017,120.971,354.893,120.821,354.77,120.672z"/>
<path fill="#737373" d="M343.483,211.656c-0.437-1.159-1.1-2.172-1.925-3.012c-1.156-1.177-1.586-3.787-1.586-3.787
	s4.569-8.444,3.032-19.152c-2.385-16.635-12.347-39.441-21.753-50.007c-17.999-20.213-46.425-33.815-74.447-36.053
	c-16.384-1.309-32.24,2.6-46.8,6.76c-2.019,0.577-5.633,1.993-7.573,2.722c-0.459,0.172-1.186,0.569-1.077,1.064
	c28.633-4.77,60.825,3.652,79.08,28.547c-0.007,0.007,0.002-0.002-0.005,0.005l-14.132-9.111c-2.538,3.937-1.404,9.187,2.533,11.725
	c4.517,2.912,11.129,2.909,15.203,2.55c7.571,11.502,10.648,20.759,17.05,36.204c6.189,17.757,19.335,36.065,33.601,37.934
	c0.06,0.2,0.114,0.4,0.188,0.598c1.788,4.766,5.288,3.998,10.429,2.068C340.441,218.782,345.273,216.421,343.483,211.656z"/>
<path fill="#CDCDCD" d="M308.746,146.842c17.46,19.608,27.268,43.373,29.654,67.645c0,0.004,0.003,0.005,0.003,0.003
	c12.883-8.466,14.276-27.181,9.123-44.995c-4.154-14.347-13.427-27.854-22.056-37.544c-35.87-40.284-94.807-47.814-139.172-20.43
	c-0.011,0.007-0.01,0.009,0.003,0.006C229.108,99.157,277.138,111.345,308.746,146.842z"/>
<path fill="#E1E1E1" d="M330.949,157.447c1.608,1.609,1.608,4.218,0,5.828c-1.609,1.609-4.219,1.609-5.828,0s-1.609-4.219,0-5.828
	C326.73,155.838,329.34,155.838,330.949,157.447z"/>
<path fill="#E1E1E1" d="M320.126,142.575c1.61,1.61,1.61,4.219,0,5.828c-1.609,1.609-4.218,1.61-5.828,0
	c-1.608-1.609-1.608-4.218,0-5.828C315.908,140.966,318.517,140.966,320.126,142.575z"/>
<path fill="#E1E1E1" d="M303.484,124.527c1.127,1.127,1.127,2.954,0,4.081s-2.954,1.127-4.081,0c-1.127-1.127-1.127-2.954,0-4.081
	C300.53,123.4,302.357,123.4,303.484,124.527z"/>
<path fill="#E1E1E1" d="M327.082,145.238c0.751,0.752,0.751,1.97,0,2.721c-0.752,0.752-1.97,0.752-2.721,0
	c-0.752-0.751-0.752-1.969,0-2.721C325.112,144.487,326.33,144.487,327.082,145.238z"/>
<path fill="#E1E1E1" d="M317.509,133.045c0.876,0.877,0.876,2.298,0,3.175c-0.877,0.877-2.298,0.877-3.175,0
	c-0.876-0.877-0.876-2.298,0-3.175C315.211,132.169,316.632,132.169,317.509,133.045z"/>
<path fill="#505050" d="M300.754,150.931c1.134,1.134,1.134,2.972,0,4.105c-1.133,1.134-2.971,1.134-4.105,0
	c-1.133-1.133-1.133-2.971,0-4.105C297.783,149.797,299.621,149.797,300.754,150.931z"/>
<path fill="#505050" d="M310.479,165.594c1.134,1.133,1.134,2.971,0,4.105c-1.134,1.134-2.972,1.134-4.104,0
	c-1.134-1.134-1.134-2.972,0-4.105C307.507,164.46,309.345,164.46,310.479,165.594z"/>
<path fill="#505050" d="M319.913,171.712c1.134,1.133,1.134,2.971,0,4.105c-1.133,1.133-2.971,1.133-4.105,0
	c-1.134-1.134-1.134-2.972,0-4.105C316.941,170.578,318.779,170.578,319.913,171.712z"/>
<path fill="#505050" d="M310.178,155.279c1.296,1.296,1.296,3.396,0,4.692c-1.295,1.296-3.396,1.296-4.692,0
	c-1.295-1.296-1.295-3.396,0-4.692C306.782,153.984,308.883,153.984,310.178,155.279z"/>
<path fill="#505050" d="M299.435,144.634c0.618,0.617,0.618,1.618,0,2.236c-0.617,0.617-1.618,0.617-2.236,0
	c-0.617-0.618-0.617-1.619,0-2.236C297.817,144.016,298.818,144.016,299.435,144.634z"/>
<path fill="#505050" d="M304.003,162.672c0.794,0.794,0.794,2.081,0,2.875s-2.082,0.795-2.875,0.001
	c-0.794-0.794-0.794-2.081,0-2.875S303.209,161.878,304.003,162.672z"/>
<path fill="#505050" d="M323.848,211.752c-0.434,0.109-0.892,0.155-1.36,0.128c-2.487-0.144-4.394-2.285-4.249-4.772l0.901,0.054
	c-0.114,1.989,1.41,3.702,3.399,3.817c1.991,0.115,3.702-1.41,3.816-3.399l0.903,0.052
	C327.142,209.648,325.712,211.283,323.848,211.752z"/>
<path fill="#737373" d="M247.318,238.479c-4.148-4.529-10.87-6.934-16.283-8.193c-0.242-0.057-0.48-0.11-0.716-0.161
	c-1.384-0.304-2.666-0.532-3.777-0.703c-0.18-0.026-0.354-0.053-0.525-0.078c-0.749-0.108-1.408-0.188-1.948-0.248
	c-0.24-0.026-0.455-0.047-0.646-0.065c-0.636-0.062-0.996-0.081-0.996-0.081l24.15,26.37c0.62-0.566,1.164-1.186,1.636-1.842
	c0.067-0.093,0.13-0.187,0.194-0.281c0.875-1.295,1.47-2.726,1.781-4.209c0.025-0.12,0.049-0.24,0.071-0.361
	c0.106-0.594,0.166-1.195,0.181-1.797c0.003-0.143,0.006-0.286,0.005-0.43C250.414,243.566,249.382,240.732,247.318,238.479z"/>
<path fill="#505050" d="M231.035,230.286c-0.242-0.058-0.48-0.11-0.716-0.162l20.12,16.704c0.004-0.143,0.006-0.285,0.005-0.428
	L231.035,230.286z"/>
<path fill="#505050" d="M226.542,229.422c-0.18-0.027-0.354-0.054-0.524-0.078l3.504,3.811c0.013,0.014,0.011,0.016-0.004,0.005
	l-5.449-4.063c-0.24-0.025-0.454-0.048-0.645-0.065l7.337,5.471l17.453,18.978c0.066-0.094,0.13-0.188,0.193-0.283L232.224,235.6
	c-0.013-0.014-0.011-0.016,0.004-0.005l17.96,13.392c0.025-0.119,0.049-0.24,0.071-0.361l-19.274-14.372L226.542,229.422z"/>
<path fill="#737373" d="M193.547,217.292c-0.192-0.004-0.408-0.007-0.648-0.008c-0.544-0.004-1.208,0-1.966,0.021
	c-0.172,0.006-0.348,0.01-0.529,0.018c-1.124,0.041-2.424,0.119-3.833,0.261c-0.241,0.024-0.483,0.05-0.73,0.078
	c-5.523,0.626-12.477,2.237-17.12,6.257c-2.311,2.001-3.664,4.695-4.021,7.506c-0.018,0.143-0.032,0.284-0.045,0.426
	c-0.054,0.601-0.065,1.205-0.028,1.807c0.007,0.123,0.017,0.244,0.029,0.367c0.138,1.51,0.563,3,1.282,4.387
	c0.053,0.101,0.104,0.201,0.16,0.302c0.393,0.706,0.863,1.384,1.413,2.019l27.035-23.403
	C194.546,217.327,194.186,217.305,193.547,217.292z"/>
<path fill="#505050" d="M192.899,217.283l-5.884,3.406c-0.016,0.011-0.018,0.008-0.004-0.004l3.922-3.381
	c-0.172,0.004-0.348,0.01-0.529,0.016l-4.973,4.287l-20.804,12.048c0.007,0.122,0.017,0.245,0.029,0.368l19.386-11.227
	c0.017-0.01,0.019-0.008,0.004,0.005l-18.107,15.608c0.052,0.101,0.104,0.201,0.159,0.302l19.528-16.833l7.921-4.587
	C193.355,217.288,193.139,217.285,192.899,217.283z"/>
<path fill="#505050" d="M164.655,231.85l21.916-14.267c-0.241,0.024-0.483,0.05-0.73,0.078L164.7,231.424
	C164.682,231.566,164.668,231.708,164.655,231.85z"/>
<path fill="#F2F2F2" d="M217.948,190.318c-0.288,0.635-0.463,1.293-0.532,1.957c-0.148,1.42-3.371,3.959-4.411,5.39
	c-14.213,6.587-20.502,30.905-21.493,48.013c-1.135,19.581,5.767,40.153,18.72,54.428c10.168,11.205,24.158,19.694,37.402,24.275
	l20.049,12.352c0,0,2.917-10.098-3.04-14.818c-2.617-2.074-5.361-2.961-7.957-3.162c-0.007-0.001-0.007-0.003-0.001-0.006
	c2.521-1.208,4.79-2.766,6.07-4.742c4.128-6.376-3.588-14.702-3.588-14.702l-14.651,22.837c-0.001,0.002-0.003,0.002-0.004,0
	c-17.407-12.434-29.954-33.267-26.496-55.75c0.01-0.002-0.004,0,0.006-0.002l2.615,12.108c3.375-0.729,5.52-4.056,4.79-7.431
	c-0.836-3.871-4.283-7.314-6.593-9.25c2.048-9.939,5.269-16.367,9.981-27.752c6.029-12.478,8.719-28.869,2.258-37.276
	c0.073-0.136,0.149-0.269,0.214-0.41c1.55-3.415-0.673-4.839-4.356-6.512C223.247,188.191,219.499,186.904,217.948,190.318z"/>
<path fill="#CDCDCD" d="M254.061,328.341l13.465-2.392c-0.04-0.104-0.077-0.211-0.121-0.315l-13.771,2.444L254.061,328.341z"/>
<path fill="#CDCDCD" d="M259.043,331.37l9.106,3.075c0.016-0.111,0.032-0.219,0.047-0.332l-10.366-3.497
	c-0.016-0.007-0.017-0.003-0.003,0.006L259.043,331.37z"/>
<path fill="#CDCDCD" d="M244.41,322.837l13.179-3.979c0.009-0.002,0.008-0.006,0-0.006c-0.277-0.039-0.553-0.069-0.827-0.092
	l-12.766,3.816c-0.006,0.002-0.007,0.01-0.002,0.013L244.41,322.837z"/>
<path fill="#CDCDCD" d="M250.959,326.43l16.119-1.502c-0.054-0.105-0.111-0.212-0.169-0.318l-16.421,1.531L250.959,326.43z"/>
<path fill="#CDCDCD" d="M245.882,323.727l19.816-0.813c0.003,0,0.004-0.003,0.002-0.006c-0.097-0.107-0.201-0.211-0.305-0.314
	l-20.024,0.821c-0.008,0.001-0.01,0.01-0.003,0.014L245.882,323.727z"/>
<path fill="#CDCDCD" d="M202.275,242.195c1.12-19.315,8.393-36.811,19.797-50.701c0.001-0.002,0-0.005-0.002-0.005
	c-11.124-2.3-21.603,6.726-28.198,18.694c-5.312,9.642-7.519,21.512-8.072,31.057c-2.301,39.682,24.485,74.316,61.87,83.168
	c0.013,0.003,0.014,0.001,0.002-0.006C218.923,308.54,200.248,277.162,202.275,242.195z"/>
<path fill="#CDCDCD" d="M212.836,243.928c0.163,1.172-0.654,2.252-1.824,2.414c-1.171,0.163-2.251-0.654-2.414-1.824
	c-0.163-1.17,0.654-2.252,1.825-2.414C211.593,241.941,212.674,242.758,212.836,243.928z"/>
<path fill="#CDCDCD" d="M215.409,231.22c0.163,1.171-0.654,2.251-1.825,2.413c-1.17,0.163-2.25-0.654-2.413-1.824
	s0.654-2.252,1.825-2.414C214.166,229.232,215.247,230.049,215.409,231.22z"/>
<path fill="#CDCDCD" d="M213.681,223.115c0.162,1.171-0.655,2.251-1.825,2.414c-1.17,0.162-2.251-0.654-2.413-1.825
	c-0.163-1.17,0.654-2.251,1.824-2.413C212.438,221.128,213.518,221.945,213.681,223.115z"/>
<path fill="#CDCDCD" d="M210.799,236.709c0.186,1.338-0.747,2.573-2.085,2.759c-1.337,0.185-2.572-0.748-2.758-2.086
	c-0.186-1.337,0.748-2.571,2.085-2.758C209.379,234.438,210.614,235.372,210.799,236.709z"/>
<path fill="#CDCDCD" d="M208.305,248.197c-0.001,0.644-0.522,1.166-1.166,1.166s-1.165-0.522-1.165-1.166
	c0-0.643,0.521-1.165,1.165-1.165S208.304,247.555,208.305,248.197z"/>
<path fill="#CDCDCD" d="M216.001,236.249c0.092,0.823-0.499,1.563-1.322,1.657c-0.822,0.092-1.564-0.5-1.656-1.322
	c-0.092-0.823,0.499-1.564,1.322-1.656C215.167,234.835,215.909,235.427,216.001,236.249z"/>
<path fill="#E1E1E1" d="M202.257,224.688c0.225,1.662-0.94,3.192-2.602,3.418c-1.662,0.225-3.192-0.94-3.417-2.603
	c-0.225-1.662,0.939-3.192,2.602-3.417C200.502,221.859,202.032,223.025,202.257,224.688z"/>
<path fill="#E1E1E1" d="M200.146,238.076c0.225,1.663-0.94,3.191-2.602,3.418c-1.662,0.225-3.192-0.939-3.417-2.602
	s0.94-3.192,2.602-3.418S199.921,236.414,200.146,238.076z"/>
<path fill="#E1E1E1" d="M197.616,256.326c0.128,1.167-0.715,2.217-1.882,2.345c-1.168,0.128-2.218-0.714-2.346-1.882
	c-0.128-1.167,0.714-2.219,1.882-2.346C196.438,254.314,197.488,255.158,197.616,256.326z"/>
<path fill="#E1E1E1" d="M194.699,233.314c0.086,0.777-0.476,1.479-1.254,1.563c-0.779,0.085-1.479-0.476-1.565-1.255
	c-0.085-0.778,0.477-1.479,1.255-1.564C193.914,231.975,194.614,232.536,194.699,233.314z"/>
<path fill="#E1E1E1" d="M193.804,244.63c0.1,0.908-0.556,1.726-1.464,1.825c-0.908,0.1-1.725-0.557-1.824-1.464
	c-0.1-0.908,0.556-1.726,1.464-1.825C192.888,243.066,193.705,243.723,193.804,244.63z"/>
<path fill="#CDCDCD" d="M228.23,200.501c0.283,0.17,0.546,0.384,0.776,0.644c1.221,1.371,1.099,3.479-0.272,4.7l-0.443-0.497
	c1.097-0.977,1.194-2.664,0.218-3.761c-0.977-1.098-2.664-1.194-3.761-0.218l-0.443-0.498
	C225.418,199.882,227.015,199.775,228.23,200.501z"/>
<path fill="#0E9DD4" d="M423.498,194.614c0,0-23.189-7.073-31.122-21.529c-4.498-8.194-1.502-18.483,6.692-22.981L423.498,194.614z"
	/>
<path fill="#505050" d="M397.277,151.245l23.38,42.382c0.237,0.089,0.465,0.172,0.676,0.249l-23.67-42.908
	C397.53,151.058,397.404,151.152,397.277,151.245z"/>
<path fill="#505050" d="M392.733,156.178l28.651,34.674c0.014,0.015,0.017,0.013,0.007-0.004l-1.189-2.17l-27.209-32.925
	C392.905,155.893,392.821,156.036,392.733,156.178z"/>
<path fill="#505050" d="M391.446,158.792l24.15,32.543l0.38-0.282l-24.319-32.771C391.586,158.451,391.514,158.62,391.446,158.792z"
	/>
<path fill="#E6E6E6" d="M459.15,218.244c0,0,23.173,7.134,37.843-0.395c8.316-4.268,11.599-14.469,7.332-22.785L459.15,218.244z"/>
<path fill="#505050" d="M464.86,219.646l40.853-20.852c-0.039-0.156-0.075-0.314-0.12-0.47l-41.467,21.166
	C464.363,219.542,464.61,219.594,464.86,219.646z"/>
<path fill="#505050" d="M461.409,218.859l44.512-13.064c0.032-0.172,0.058-0.345,0.084-0.518l-45.49,13.351
	C460.782,218.698,461.077,218.775,461.409,218.859z"/>
<path fill="#505050" d="M471.27,220.715l33.8-11.865c0.071-0.189,0.14-0.382,0.205-0.574l-35.035,12.301
	C470.577,220.624,470.922,220.67,471.27,220.715z"/>
<path fill="#E3E3E3" d="M441.974,147.414c0,0-11.014-6.353-13.36-14.677c-1.329-4.718,1.417-9.621,6.136-10.951L441.974,147.414z"/>
<path fill="#0E9DD4" d="M422.396,52.884l-24.668-24.98c0,0-7.427,12.948-0.8,21.466c2.912,3.745,6.399,5.892,9.916,7.044
	c0.003,0.001,0.003,0.005,0,0.006c-3.887,0.817-7.544,2.201-9.975,4.498c-7.842,7.405-0.003,21.489-0.003,21.489l27.943-26.386
	c0-0.001,0.004-0.001,0.004,0c7.758,8.814,14.107,19.13,18.298,30.212c0.116,0.31,2.391,0.88,2.505,1.191
	c6.461,17.658,8.281,35.31,0.695,53.646c-0.332,0.799-1.316,3.054-1.647,3.814c-0.221,0.508-2.808,1.138-3.029,1.631
	c-2.979,6.618-6.055,11.904-9.532,17.079c-0.62,0.924,0.3,4.282-0.351,5.21c-3.621,5.157-7.758,10.007-12.74,16.813
	c-7.625,9.247-13.046,18.991-15.516,29.813c-0.205,0.9-2.87,1.752-3.019,2.639c-1.054,6.24-0.67,12.061,1.68,16.879
	c-1.053,3.77,0.335,8.121,3.815,10.855c3.728,2.928,8.688,3.082,12.158,0.694c4.358,0.885,8.885,0.573,13.403-0.687
	c0.127-0.035,0.38-0.108,0.38-0.108l0.022,0.043c1.103,2.075,3.677,2.864,5.753,1.763c1.833-0.973,2.661-3.095,2.07-5.007
	c6.373-3.332,12.513-8.301,17.914-14.18c2.47-2.688,4.748-5.609,6.838-8.659c0.572-0.839-1.241-3.028-0.695-3.887
	c5.979-9.385,9.772-18.875,12.567-27.992c4.322-14.106,6.175-27.47,5.112-41.34c-0.075-0.987,2.321-2.603,2.22-3.586
	c-0.575-5.597-1.554-11-2.928-16.4c-0.102-0.391-2.74-0.598-2.844-0.988c-4.012-15.066-9.292-26.843-18.893-39.087
	c-0.124-0.155,0.526-2.825,0.406-2.979C449.589,70.953,437.063,60.456,422.396,52.884z"/>
<path fill="#FFFFFF" d="M430.524,204.826c10.42-12.9,10.773-30.308,1.583-41.231c-4.066,6.043-8.73,12.013-14.594,20.021
	c-8.268,10.028-15.099,22.901-17.035,34.454C411.099,219.227,422.669,214.552,430.524,204.826z"/>
<path fill="#FFFFFF" d="M454.324,160.93c-14.766,18.28-15.457,42.21-1.544,53.448c3.432,2.772,7.433,4.513,11.732,5.288
	c6.857-10.014,11.71-21.516,14.759-31.463c4.641-15.148,5.985-30.519,4.445-45.343C473.34,144.508,462.524,150.78,454.324,160.93z"
	/>
<path fill="#FFFFFF" d="M476.011,134.083c1.944-2.407,3.53-4.973,4.778-7.623c-4.001-15.698-11.291-30.388-21.33-43.055
	c-5.421-0.534-11.073,0.444-16.347,2.83c6.771,17.906,7.899,37.784,0.178,56.447c-0.549,1.334-1.103,2.605-1.654,3.834
	C453.323,149.677,467.07,145.151,476.011,134.083z"/>
<path fill="#505050" d="M424.941,55.461l-0.518-0.523l-18.816,1.026c0.376,0.149,0.753,0.286,1.127,0.412l17.183-0.937
	c0.003,0,0.006,0.004,0.003,0.006l-30.517,15.142c0.006,0.171,0.016,0.342,0.028,0.513l31.506-15.633
	C424.941,55.466,424.941,55.463,424.941,55.461z"/>
<path fill="#505050" d="M396.133,31.35l13.198,8.362c0.013,0.009,0.016,0.006,0.003-0.005l-1.439-1.46l-11.584-7.34
	C396.253,31.05,396.195,31.198,396.133,31.35z"/>
<path fill="#505050" d="M414.19,44.575l-0.501-0.506l-19.387-1.236c0.021,0.16,0.042,0.319,0.068,0.478L414.19,44.575z"/>
<path fill="#505050" d="M422.445,53.001l-26.647-5.368c0.097,0.182,0.201,0.364,0.31,0.543l26.919,5.422
	c0.004,0,0.004-0.003,0.004-0.005L422.445,53.001z"/>
<path fill="#505050" d="M417.326,47.75l-22.744-3.358c0.036,0.166,0.078,0.332,0.124,0.497l23.172,3.422L417.326,47.75z"/>
<path fill="#505050" d="M394.023,74.861l16.754-5.654l0.806-0.761c0.003-0.002,0-0.007-0.003-0.005l-17.661,5.96
	C393.952,74.555,393.988,74.709,394.023,74.861z"/>
<path fill="#505050" d="M410.348,231.475c-0.468,0-0.936-0.068-1.391-0.209c-1.209-0.371-2.2-1.188-2.792-2.304
	c-0.591-1.116-0.714-2.396-0.344-3.603s1.186-2.198,2.304-2.791l0.442,0.836c-0.891,0.474-1.548,1.267-1.844,2.231
	c-0.295,0.968-0.197,1.99,0.277,2.882c0.474,0.893,1.267,1.547,2.232,1.844c0.966,0.296,1.989,0.197,2.883-0.276l0.441,0.835
	C411.866,231.288,411.109,231.475,410.348,231.475z"/>
<path fill="#E3E3E3" d="M476.197,175.544c1.779,1.583,1.939,4.308,0.357,6.089c-1.583,1.78-4.309,1.94-6.089,0.357
	c-1.78-1.582-1.939-4.309-0.357-6.088C471.691,174.122,474.417,173.962,476.197,175.544z"/>
<path fill="#E3E3E3" d="M458.152,168.85c1.779,1.583,1.94,4.309,0.357,6.089c-1.582,1.78-4.308,1.94-6.088,0.358
	c-1.78-1.583-1.939-4.309-0.357-6.089S456.372,167.268,458.152,168.85z"/>
<path fill="#E3E3E3" d="M463.899,205.15c1.251,1.117,1.358,3.037,0.241,4.289s-3.037,1.359-4.29,0.242
	c-1.251-1.117-1.358-3.039-0.241-4.289C460.727,204.141,462.648,204.033,463.899,205.15z"/>
<path fill="#E3E3E3" d="M462.504,194.234c1.251,1.117,1.36,3.039,0.242,4.289c-1.118,1.252-3.038,1.36-4.289,0.242
	c-1.252-1.117-1.36-3.037-0.242-4.289S461.253,193.117,462.504,194.234z"/>
<path fill="#E3E3E3" d="M474.27,194.102c1.252,1.117,1.359,3.037,0.241,4.289c-1.116,1.252-3.038,1.359-4.289,0.241
	c-1.251-1.116-1.358-3.038-0.241-4.289S473.018,192.984,474.27,194.102z"/>
<path fill="#E3E3E3" d="M456.469,185.525c1.431,1.276,1.555,3.472,0.277,4.9c-1.278,1.43-3.472,1.555-4.902,0.277
	c-1.43-1.277-1.554-3.473-0.276-4.902S455.039,184.247,456.469,185.525z"/>
<path fill="#E3E3E3" d="M454.713,195.223c0.893,0.766,0.995,2.108,0.23,3c-0.766,0.892-2.108,0.994-3,0.229
	c-0.893-0.765-0.995-2.108-0.23-3C452.479,194.561,453.822,194.458,454.713,195.223z"/>
<path fill="#E3E3E3" d="M464.673,166.6c0.847,0.722,0.946,1.993,0.224,2.838c-0.722,0.846-1.992,0.946-2.839,0.224
	c-0.845-0.722-0.944-1.993-0.223-2.839C462.557,165.978,463.828,165.878,464.673,166.6z"/>
<path fill="#2F2F2F" d="M302.862,45.937l-0.523,0.214l0,0c8.679-19.832-11.308-40.244-31.254-31.804
	c-6.114,2.587-11.802,6.497-16.628,11.729c-16.785,18.201-16.871,46.599-0.186,64.887c18.617,20.407,50.285,20.954,69.608,1.644
	c4.491-4.487,7.907-9.641,10.25-15.141C342.521,57.77,322.688,37.828,302.862,45.937z"/>
<path fill="#505050" d="M300.695,66.624l28.52,19.654c0.124-0.178,0.244-0.356,0.367-0.535l-29.039-20.014l-2.515-14.811l5.07-5.066
	c0.002-0.002,0-0.006-0.004-0.005c-0.112,0.039-0.567,0.159-0.589,0.137c-0.022-0.022,0.052-0.345,0.154-0.604
	c0.001-0.003-0.003-0.006-0.005-0.003l-5.003,5L281.828,38.32l-2.285-25.908c-0.216,0.009-0.432,0.023-0.649,0.039l2.235,25.336
	L259.517,21.32c-0.173,0.14-0.344,0.281-0.515,0.424l38.184,29.096l-2.187,2.186l-21.854,0.001l-22.397-22.393
	c-0.128,0.179-0.254,0.359-0.379,0.54l21.858,21.854l-30.092,0.002c-0.025,0.216-0.045,0.433-0.068,0.65l52.282-0.003
	l-11.794,11.785l-40.705-8.667c-0.008,0.22-0.018,0.44-0.023,0.66l40.18,8.556L255.62,92.378c0.152,0.154,0.303,0.31,0.457,0.462
	l33.588-33.564l-12.696,45.663c0.209,0.058,0.418,0.112,0.628,0.167l13.002-46.764l6.865-6.86l8.885,52.308
	c0.207-0.075,0.413-0.156,0.619-0.234L300.695,66.624z"/>
<path fill="#F1F1F1" d="M45.64,198.063c8.191,11.266,7.909,25.453,7.905,25.635c0,0.003,0,0.002-0.002,0.002
	c-0.174-0.053-13.756-4.159-21.947-15.426c-8.244-11.338-7.905-25.637-7.905-25.637S37.395,186.723,45.64,198.063z"/>
<path fill="#F1F1F1" d="M62.213,198.313c0.005,13.93-8.562,25.242-8.672,25.387c-0.001,0.001-0.001,0.001-0.002,0
	c-0.11-0.145-8.685-11.45-8.689-25.379c-0.004-14.02,8.674-25.388,8.674-25.388S62.208,184.293,62.213,198.313z"/>
<path fill="#FFFFFF" d="M75.479,208.259c-8.184,11.272-21.764,15.388-21.938,15.441c-0.002,0-0.001,0.001-0.001-0.002
	c-0.004-0.183-0.296-14.367,7.887-25.64c8.237-11.345,21.94-15.44,21.94-15.44S83.716,196.915,75.479,208.259z"/>
<path fill="#0E9DD4" d="M61.12,219.104c0-4.354-3.529-7.883-7.882-7.883s-7.882,3.529-7.882,7.883l8.182,4.597
	c0.001,0.001,0.002,0.001,0.003,0L61.12,219.104z"/>
<path fill="#CDCDCD" d="M80.364,218.177c-13.203,4.296-26.565,5.501-26.821,5.523c-0.003,0.001-0.003-0.001-0.001-0.003
	c0.167-0.241,8.257-11.813,21.45-16.105c13.332-4.336,26.825,0.404,26.825,0.404S93.696,213.84,80.364,218.177z"/>
<path fill="#CDCDCD" d="M32.074,207.607c13.195,4.281,21.295,15.849,21.462,16.09c0.001,0.003,0.001,0.004-0.001,0.004
	c-0.257-0.023-13.614-1.219-26.82-5.506C13.381,213.868,5.25,208.029,5.25,208.029S18.739,203.279,32.074,207.607z"/>
<path fill="#F1F1F1" d="M546.055,66.611c8.19,11.266,7.907,25.454,7.904,25.636c0,0.002,0,0.001,0,0.001
	c-0.175-0.052-13.757-4.158-21.947-15.424c-8.245-11.339-7.906-25.637-7.906-25.637S537.81,55.271,546.055,66.611z"/>
<path fill="#F1F1F1" d="M562.627,66.861c0.006,13.929-8.561,25.241-8.671,25.386c-0.003,0.001-0.003,0.001-0.003,0
	c-0.111-0.145-8.685-11.45-8.691-25.379c-0.003-14.019,8.676-25.388,8.676-25.388S562.624,52.842,562.627,66.861z"/>
<path fill="#FFFFFF" d="M575.893,76.808c-8.183,11.272-21.762,15.388-21.937,15.44c-0.003,0-0.003,0.001-0.003-0.001
	c-0.004-0.182-0.296-14.368,7.887-25.64c8.239-11.345,21.941-15.441,21.941-15.441S584.132,65.463,575.893,76.808z"/>
<path fill="#0E9DD4" d="M561.535,87.652c0-4.354-3.53-7.882-7.881-7.882c-4.355,0-7.886,3.529-7.886,7.882l8.185,4.597
	c0,0,0,0,0.003,0L561.535,87.652z"/>
<path fill="#CDCDCD" d="M580.778,86.726c-13.201,4.295-26.565,5.501-26.822,5.523c0,0,0-0.001,0-0.003
	c0.169-0.241,8.258-11.813,21.45-16.104c13.331-4.336,26.826,0.404,26.826,0.404S594.11,82.389,580.778,86.726z"/>
<path fill="#EDEDED" d="M532.49,76.156c13.194,4.282,21.294,15.85,21.459,16.091c0.004,0.002,0.004,0.004,0,0.003
	c-0.256-0.023-13.614-1.22-26.819-5.506c-13.334-4.328-21.466-10.167-21.466-10.167S519.155,71.828,532.49,76.156z"/>
</svg>
