<?xml version="1.0" encoding="utf-8"?>
<!-- Generator: Adobe Illustrator 16.0.3, SVG Export Plug-In . SVG Version: 6.00 Build 0)  -->
<!DOCTYPE svg PUBLIC "-//W3C//DTD SVG 1.1//EN" "http://www.w3.org/Graphics/SVG/1.1/DTD/svg11.dtd">
<svg version="1.1" id="Layer_1" xmlns="http://www.w3.org/2000/svg" xmlns:xlink="http://www.w3.org/1999/xlink" x="0px" y="0px"
	 width="1390.375px" height="1778.793px" viewBox="0 0 1390.375 1778.793" enable-background="new 0 0 1390.375 1778.793"
	 xml:space="preserve">
<path fill="#838384" d="M-855.497,150.11h624v351h-624V150.11z"/>
<path fill="#636363" d="M-855.497,592.768h624v351h-624V592.768z"/>
<path fill="#737373" d="M-855.497,1058.952h624v351h-624V1058.952z"/>
<path fill="#A34343" d="M-1620.802,150.11h624v351h-624V150.11z"/>
<g>
	<path fill="#505050" d="M-1439.905,277.482c0,50.161-40.663,90.825-90.825,90.825c-50.16,0-90.826-40.664-90.826-90.825
		c0-50.162,40.664-90.826,90.826-90.826C-1480.57,186.656-1439.905,227.32-1439.905,277.482z"/>
	<path fill="#505050" d="M-1546.782,193.58c0,50.162,40.664,90.825,90.826,90.825c50.161,0,90.825-40.664,90.825-90.825
		c0-15.748-4.01-30.559-11.061-43.471h-159.529C-1542.771,163.021-1546.782,177.832-1546.782,193.58z"/>
	<path fill="#505050" d="M-1193.856,362.186c0,60.355-48.926,109.281-109.279,109.281c-60.354,0-109.281-48.926-109.281-109.281
		c0-60.354,48.927-109.281,109.281-109.281C-1242.782,252.904-1193.856,301.832-1193.856,362.186z"/>
	<path fill="#505050" d="M-1323.531,417.11c0,41.06-33.283,74.344-74.343,74.344s-74.345-33.284-74.345-74.344
		c0-41.061,33.285-74.343,74.345-74.343S-1323.531,376.051-1323.531,417.11z"/>
	<path d="M-997.873,497.096V284.639c-9.516-2.676-19.552-4.109-29.923-4.109c-60.938,0-110.337,49.4-110.337,110.337
		c0,59.464,47.04,107.933,105.933,110.243h8.806C-1014.584,500.765-1006.037,499.391-997.873,497.096z"/>
	<path fill="#2F2F2F" d="M-1254.743,396.879c-42.12,0-76.262,34.146-76.262,76.265c0,9.874,1.876,19.31,5.291,27.968h141.94
		c3.416-8.658,5.291-18.094,5.291-27.968C-1178.482,431.023-1212.626,396.879-1254.743,396.879z"/>
	<path fill="#2F2F2F" d="M-1551.206,343.254c-28.549,0-54.019,13.179-70.667,33.776v114.101c2.875,3.559,6.011,6.896,9.382,9.979
		h122.571c18.152-16.606,29.54-40.485,29.54-67.028C-1460.379,383.918-1501.043,343.254-1551.206,343.254z"/>
	<path fill="#505050" d="M-1271.24,172.014c14.342,14.342,14.342,37.595,0,51.937c-14.342,14.343-37.595,14.343-51.938,0
		c-14.342-14.342-14.342-37.595,0-51.937C-1308.834,157.672-1285.582,157.672-1271.24,172.014z"/>
	<path fill="#2F2F2F" d="M-1202.629,231.28c0,50.161,40.664,90.825,90.825,90.825c50.159,0,90.822-40.664,90.822-90.825
		c0-35.495-20.362-66.229-50.043-81.171h-81.563C-1182.267,165.051-1202.629,195.785-1202.629,231.28z"/>
</g>
<g>
	<path fill="#2F2F2F" d="M-822.663,1158.428c-0.289,0.027-0.561,0.055-0.561,0.055l-12.384-2.533l-19.89-32.002v2.107l19.197,30.887
		c1.972,6.545,7.633,23.137,18.596,39.738c14.09,21.342,31.604,34.617,31.604,34.617l-48.924-74.094l11.34,2.32
		c4.855,2.691,21.478,11.313,42.451,15.604c25.053,5.127,46.823,2.131,46.823,2.131s-18.846-11.305-43.896-16.432
		C-798.349,1156.729-816.288,1157.825-822.663,1158.428z"/>
	<path fill="#2F2F2F" d="M-756.386,1058.952h-27.193c-5.496,2.904-11.204,6.225-16.913,9.992
		c-27.134,17.916-44.915,39.799-47.837,43.514l-7.168-1.27v1.131l6.345,1.125c3.997,2.305,28.696,16.041,60.636,22.576
		c34.932,7.145,65.287,2.971,65.287,2.971s-26.275-15.766-61.207-22.91c-29.092-5.953-55.006-4.051-62.858-3.248l-0.054-0.199
		c6.223-1.73,32.136-9.576,58.071-26.703C-775.769,1077.01-764.579,1067.106-756.386,1058.952z"/>
	<path fill="#505050" d="M-714.713,1334.284c0,0-19.502,10.131-36.991,28.785c-17.489,18.654-26.342,38.771-26.342,38.771
		s19.502-10.135,36.99-28.789C-723.565,1354.397-714.713,1334.284-714.713,1334.284z"/>
	<path fill="#505050" d="M-793.034,1344.848c-20.309,21.662-32.264,44.732-35.693,51.842l-0.198-0.057
		c1.784-6.211,8.676-32.393,7.674-63.455c-1.148-35.637-12.252-64.195-12.252-64.195s-9.239,29.217-8.09,64.854
		c1.048,32.492,10.37,59.098,12.006,63.541l-11.222,12.576h1.492l10.131-11.355c4.034-2.184,28.689-16.029,51-39.826
		c24.386-26.014,36.729-54.059,36.729-54.059S-768.649,1318.836-793.034,1344.848z"/>
	<path fill="#505050" d="M-367.269,1059.047l-5.13,9.031c-3.513,2.996-24.73,21.686-41.59,49.611
		c-18.431,30.539-24.657,60.559-24.657,60.559s23.66-19.496,42.095-50.035c14.9-24.688,21.823-49.033,23.93-57.459l0.374-0.66
		c0.003-0.002,0.006-0.002,0.006,0.002c-0.451,6.525-1.709,33.527,5.737,63.646c8.56,34.631,25.385,60.26,25.385,60.26
		s2.945-30.516-5.619-65.145c-7.797-31.549-22.454-55.623-24.999-59.658l5.756-10.15L-367.269,1059.047L-367.269,1059.047z"/>
	<path fill="#505050" d="M-418.353,1066.819l-5.985,9.91c-4.173,3.684-17.851,16.457-28.906,34.773
		c-13.211,21.893-17.676,43.41-17.676,43.41s16.961-13.977,30.176-35.867c10.881-18.027,15.827-35.799,17.235-41.512l6.539-10.852
		l34.966-7.631c0.007-0.002,0.004-0.008,0-0.008h-5.19l-30.478,6.65c-6.829-0.332-24.359-0.549-43.674,4.227
		c-24.823,6.137-43.196,18.195-43.196,18.195l86.187-21.305C-418.356,1066.817-418.356,1066.817-418.353,1066.819z"/>
</g>
<g>
	<path fill="#D2D2D2" d="M-571.118-165.949c-4.216,0.476-7.341,4.01-7.419,8.14c3.078-0.485,6.421-0.974,10.262-1.592
		c1.985-0.204,4.003-0.511,6.014-0.912C-563.488-163.967-567.133-166.398-571.118-165.949z"/>
	<path fill="#737373" d="M-598.848-152.715c7.295-2.818,13.068-3.953,20.311-5.095c1-1.085,3.759-3.481,7.975-3.958
		c3.985-0.45,6.975,0.684,8.301,1.454c7.96-1.593,15.817-4.707,21.157-9.106c0.853,0.342,1.848,0.301,2.699-0.203
		c1.36-0.807,1.867-2.5,1.223-3.904c0.183-0.254,0.36-0.51,0.527-0.768c0.632-0.984,1.401-1.896,2.402-2.5
		c1.79-1.081,3.45-3.936,3.049-7.092c-0.381-3.012-2.688-5.39-4.521-6.479c-0.855-0.507-1.664-1.097-2.269-1.886
		c-0.396-0.516-0.823-1.007-1.272-1.479c-3.053-1.066-9.799-4.065-14.131-5.1c-4.582-1.094-11.284-1.983-15.466-2.827
		c-1.721,0.173-3.443,0.432-5.153,0.763c-4.068,1.653-8.631,10.814-20.207,16.903c-13.129,6.907-20.993,8.069-27.62,12.208
		c-2.47,3.082-4.694,6.328-6.67,9.703c-0.996,2.912,2.685,8.916,6.116,10.297C-616.789-149.526-603.181-152.125-598.848-152.715z"/>
	<path fill="#737373" d="M-564.659-166.422c0,0,6.682,12.355,4.069,21.545c-1.481,5.209-6.905,8.232-12.114,6.752L-564.659-166.422z
		"/>
	<path fill="#D2D2D2" d="M-565.394-195.542c0,0-8.117-15.103-19.241-18.604c-6.306-1.984-13.026,1.519-15.011,7.824
		L-565.394-195.542z"/>
	<path fill="#D2D2D2" d="M-599.057-152.842c0,0,2.385,8.67-0.569,14.024c-1.675,3.034-5.494,4.138-8.529,2.463L-599.057-152.842z"/>
	<path fill="#737373" d="M-635.683-71.203c0,0,10.17-2.828,11.068-10.407c0.394-3.331-0.294-6.146-1.491-8.472
		c-0.002-0.004,0-0.006,0.004-0.002c2.361,1.519,4.888,2.639,7.254,2.691c7.626,0.17,10.678-10.814,10.678-10.814l-27.173-0.604
		c-0.001,0-0.003-0.001-0.003-0.002c0.476-8.288,2.408-16.64,5.804-24.297c-0.377-2.687-1.856-5.083-3.386-6.106
		c-1.759-1.176-4.718-1.846-6.247-0.591c-1.22,11.173-0.133,22.681,3.489,33.781L-635.683-71.203z"/>
	<path fill="#D2D2D2" d="M-598.072-166.272c16.514-1.863,28.752-13.563,27.334-26.131c-0.35-3.101-1.499-5.963-3.278-8.491
		c-8.427,1.631-16.583,5.01-23.059,8.502c-9.863,5.317-18.177,12.384-24.768,20.609C-615.8-167.455-607.242-165.238-598.072-166.272
		z"/>
	<path fill="#E6E6E6" d="M-629.542-123.11c5.488-12.376,14.797-22.941,27.956-28.498c0.94-0.396,1.849-0.763,2.738-1.106
		c-4.312-7.398-13.479-11.951-23.477-10.822c-2.172,0.244-4.246,0.744-6.188,1.457c-5.789,9.89-9.42,20.906-10.661,32.271
		C-636.711-126.847-633.381-124.529-629.542-123.11z"/>
	<path fill="#E6E6E6" d="M-546.132-192.016c2.425-0.274,4.728-0.863,6.862-1.714c0.002-0.001,0.002-0.003,0.001-0.004
		c-5.907-6.193-16.309-8.643-27.004-8.122c-0.861,0.042-1.723,0.11-2.586,0.196c-0.002,0-0.003,0.003-0.002,0.004
		C-564.294-194.96-555.585-190.95-546.132-192.016z"/>
	<path fill="#505050" d="M-543.343-188.435c0-0.099,0.051-0.195,0.142-0.249c0.77-0.457,1.671-0.585,2.538-0.364
		c0.867,0.222,1.595,0.768,2.051,1.537c0.942,1.59,0.415,3.647-1.173,4.59c-0.138,0.082-0.315,0.036-0.396-0.102
		c-0.082-0.137-0.036-0.315,0.102-0.396c1.314-0.779,1.75-2.482,0.97-3.796c-0.377-0.637-0.98-1.088-1.697-1.271
		c-0.717-0.184-1.462-0.077-2.098,0.301c-0.138,0.082-0.316,0.036-0.397-0.102C-543.33-188.333-543.343-188.383-543.343-188.435z"/>
	<path fill="#737373" d="M-620.662-157.733c1.298,1.073,1.48,2.995,0.407,4.294c-1.074,1.298-2.996,1.48-4.294,0.406
		c-1.298-1.073-1.48-2.996-0.407-4.295C-623.882-158.625-621.959-158.808-620.662-157.733z"/>
	<path fill="#737373" d="M-619.238-149.275c0.621,0.551,0.679,1.502,0.128,2.124c-0.551,0.622-1.502,0.68-2.124,0.128
		c-0.622-0.551-0.679-1.502-0.128-2.124C-620.811-149.77-619.859-149.826-619.238-149.275z"/>
	<path fill="#737373" d="M-577.663-184.733c1.298,1.073,1.48,2.996,0.407,4.294c-1.074,1.298-2.996,1.48-4.294,0.406
		c-1.298-1.073-1.48-2.996-0.406-4.293C-580.883-185.625-578.96-185.808-577.663-184.733z"/>
	<path fill="#737373" d="M-590.484-181.748c0.918,0.751,1.053,2.105,0.301,3.023c-0.752,0.917-2.105,1.052-3.023,0.301
		c-0.918-0.752-1.053-2.105-0.301-3.023S-591.403-182.499-590.484-181.748z"/>
	<path fill="#737373" d="M-582.863-177.886c1.05,0.859,1.203,2.406,0.344,3.455c-0.859,1.05-2.406,1.203-3.455,0.345
		c-1.049-0.859-1.203-2.407-0.344-3.456C-585.458-178.59-583.912-178.745-582.863-177.886z"/>
	<path fill="#737373" d="M-598.08-175.452c0.586,0.524,0.637,1.424,0.113,2.011c-0.524,0.586-1.424,0.637-2.011,0.112
		c-0.586-0.523-0.637-1.424-0.113-2.01C-599.566-175.924-598.667-175.976-598.08-175.452z"/>
</g>
<g>
	<path fill="#737373" d="M-336.544-104.688c-0.051,1.139,0.021,2.256,0.197,3.337c0.025,0.153,0.055,0.304,0.084,0.456
		c0.402,2.081,1.205,4.025,2.329,5.747c0.093,0.14,0.185,0.279,0.279,0.415c0.469,0.672,0.987,1.305,1.551,1.898
		c0.134,0.14,0.269,0.279,0.407,0.414c2.747,2.69,6.456,4.418,10.6,4.601c8.326,0.367,17.082-3.776,23.485-7.761
		c0.286-0.178,0.565-0.355,0.841-0.532c1.62-1.037,3.069-2.048,4.299-2.95c0.198-0.146,0.391-0.289,0.577-0.429
		c0.823-0.615,1.533-1.169,2.108-1.631c0.255-0.205,0.481-0.39,0.683-0.556c0.668-0.554,1.033-0.879,1.033-0.879L-336.544-104.688z"
		/>
	<path fill="#505050" d="M-331.696-92.419l34.085-3.162c0.286-0.178,0.565-0.355,0.841-0.532l-35.333,3.278
		C-331.97-92.694-331.835-92.556-331.696-92.419z"/>
	<path fill="#505050" d="M-289.104-101.679l-12.289,1.789l-34.954-1.462c0.025,0.153,0.055,0.304,0.084,0.456l32.424,1.356
		c0.019,0.001,0.019,0.004,0,0.007l-30.095,4.384c0.093,0.14,0.185,0.279,0.279,0.416l32.284-4.703l8.898,0.372
		c0.198-0.146,0.391-0.288,0.577-0.428l-7.03-0.294c-0.019-0.001-0.019-0.004,0-0.006l9.139-1.332
		C-289.531-101.328-289.305-101.513-289.104-101.679z"/>
	<path fill="#2F2F2F" d="M-434.908-162.557c-0.003,0.002-0.005,0.002-0.005,0.002c0.09,0.16,6.957,12.479,17.136,11.303
		c4.504-0.521,7.989-2.305,10.673-4.604c0.005-0.004,0.007-0.002,0.005,0.004c-1.261,3.579-1.944,7.253-1.276,10.378
		c2.145,10.02,17.369,10.657,17.549,10.665c0.002,0,0.001-0.002,0.001-0.004l-8.158-37.094c-0.004-0.021-0.026-0.031-0.044-0.021
		l-4.794,1.991L-434.908-162.557z"/>
	<path fill="#505050" d="M-413.79-167.572l-10.625,15.215c0.14,0.063,0.279,0.129,0.42,0.188l10.867-15.56L-413.79-167.572z"/>
	<path fill="#505050" d="M-421.378-165.747l-11.783,5.839c0.089,0.12,0.18,0.24,0.275,0.365l13.424-6.652
		c0.016-0.007,0.015-0.01-0.002-0.006L-421.378-165.747z"/>
	<path fill="#505050" d="M-399.501-171.09l-8.545,15.951c-0.004,0.008-0.002,0.01,0.004,0.006c0.304-0.23,0.598-0.467,0.883-0.707
		l8.313-15.414L-399.501-171.09z"/>
	<path fill="#505050" d="M-408.979-168.715l-14.025,16.908c0.154,0.051,0.311,0.096,0.467,0.143l14.289-17.223L-408.979-168.715z"/>
	<path fill="#505050" d="M-402.013-170.446l-17.742,19.254c0.198,0.011,0.401,0.011,0.604,0.011l17.949-19.481L-402.013-170.446z"/>
	<path fill="#2F2F2F" d="M-235.057-160.322c-0.117-0.152-0.241-0.303-0.364-0.452c-0.521-0.628-1.095-1.216-1.704-1.759
		c-0.128-0.111-0.256-0.219-0.382-0.326c-1.58-1.314-3.42-2.337-5.439-2.979c-0.146-0.045-0.292-0.094-0.442-0.135
		c-1.056-0.302-2.153-0.5-3.292-0.582l-3.482,48.396c0,0,0.362-0.325,0.989-0.925c0.188-0.18,0.396-0.385,0.632-0.613
		c0.525-0.518,1.155-1.159,1.864-1.906c0.159-0.17,0.322-0.344,0.491-0.523c1.04-1.118,2.21-2.441,3.428-3.93
		c0.205-0.254,0.417-0.512,0.624-0.774c4.7-5.899,9.825-14.118,10.425-22.431C-231.413-153.398-232.7-157.282-235.057-160.322z"/>
	<path fill="#505050" d="M-237.507-162.859l-7.833,29.387c-0.006,0.018-0.01,0.018-0.006-0.002l2.398-32.361
		c-0.146-0.047-0.292-0.094-0.442-0.137l-2.587,34.887l-3.198,12.002c0.187-0.18,0.396-0.385,0.631-0.613l2.381-8.926
		c0.003-0.018,0.006-0.018,0.006,0.001l-0.521,7.019c0.159-0.169,0.322-0.344,0.491-0.523l0.656-8.885l8.405-31.521
		C-237.253-162.645-237.381-162.752-237.507-162.859z"/>
	<path fill="#505050" d="M-235.421-160.774l-7.339,34.718c0.208-0.254,0.417-0.511,0.624-0.773l7.079-33.491
		C-235.174-160.475-235.298-160.625-235.421-160.774z"/>
	<path fill="#737373" d="M-246.707-69.79c-0.438-1.159-1.101-2.172-1.926-3.012c-1.155-1.178-1.586-3.787-1.586-3.787
		s4.569-8.444,3.032-19.152c-2.385-16.636-12.347-39.44-21.753-50.007c-17.999-20.213-46.425-33.815-74.446-36.053
		c-16.385-1.31-32.24,2.6-46.801,6.76c-2.02,0.576-5.633,1.992-7.572,2.722c-0.459,0.172-1.187,0.569-1.078,1.063
		c28.634-4.77,60.826,3.652,79.08,28.548c-0.006,0.007,0.002-0.003-0.004,0.005l-14.133-9.111
		c-2.538,3.938-1.404,9.188,2.533,11.725c4.518,2.912,11.129,2.91,15.203,2.551c7.57,11.502,10.648,20.759,17.05,36.204
		c6.188,17.757,19.335,36.064,33.601,37.934c0.061,0.2,0.114,0.4,0.188,0.598c1.788,4.767,5.288,3.998,10.429,2.068
		C-249.749-62.664-244.917-65.025-246.707-69.79z"/>
	<path fill="#CDCDCD" d="M-281.444-134.604c17.46,19.608,27.268,43.373,29.654,67.645c0,0.005,0.003,0.006,0.003,0.004
		c12.883-8.467,14.275-27.182,9.123-44.995c-4.154-14.348-13.428-27.854-22.057-37.544c-35.87-40.284-94.807-47.813-139.172-20.431
		c-0.011,0.008-0.01,0.01,0.003,0.006C-361.083-182.289-313.052-170.102-281.444-134.604z"/>
	<path fill="#E1E1E1" d="M-259.241-123.999c1.607,1.608,1.607,4.218,0,5.827c-1.609,1.609-4.219,1.609-5.828,0
		c-1.609-1.608-1.609-4.219,0-5.827C-263.46-125.608-260.851-125.608-259.241-123.999z"/>
	<path fill="#E1E1E1" d="M-270.064-138.871c1.61,1.609,1.61,4.219,0,5.828c-1.609,1.608-4.218,1.609-5.828,0
		c-1.607-1.609-1.607-4.219,0-5.828C-274.282-140.48-271.674-140.48-270.064-138.871z"/>
	<path fill="#E1E1E1" d="M-286.706-156.92c1.127,1.127,1.127,2.955,0,4.082s-2.954,1.127-4.082,0c-1.127-1.127-1.127-2.955,0-4.082
		C-289.66-158.047-287.833-158.047-286.706-156.92z"/>
	<path fill="#E1E1E1" d="M-263.108-136.208c0.751,0.752,0.751,1.97,0,2.721c-0.752,0.752-1.97,0.752-2.721,0
		c-0.752-0.751-0.752-1.969,0-2.721C-265.078-136.959-263.86-136.959-263.108-136.208z"/>
	<path fill="#E1E1E1" d="M-272.682-148.401c0.876,0.877,0.876,2.298,0,3.175c-0.877,0.877-2.298,0.877-3.175,0
		c-0.876-0.877-0.876-2.298,0-3.175C-274.979-149.277-273.559-149.277-272.682-148.401z"/>
	<path fill="#505050" d="M-289.437-130.516c1.135,1.135,1.135,2.973,0,4.105c-1.133,1.134-2.971,1.134-4.105,0
		c-1.133-1.133-1.133-2.971,0-4.105C-292.407-131.649-290.569-131.649-289.437-130.516z"/>
	<path fill="#505050" d="M-279.712-115.853c1.135,1.134,1.135,2.972,0,4.105c-1.134,1.134-2.972,1.134-4.104,0
		c-1.134-1.134-1.134-2.972,0-4.105C-282.684-116.986-280.846-116.986-279.712-115.853z"/>
	<path fill="#505050" d="M-270.277-109.734c1.134,1.133,1.134,2.971,0,4.105c-1.133,1.133-2.971,1.133-4.105,0
		c-1.134-1.135-1.134-2.973,0-4.105C-273.249-110.868-271.411-110.868-270.277-109.734z"/>
	<path fill="#505050" d="M-280.013-126.168c1.296,1.297,1.296,3.396,0,4.693c-1.295,1.295-3.396,1.295-4.691,0
		c-1.295-1.297-1.295-3.396,0-4.693C-283.408-127.463-281.308-127.463-280.013-126.168z"/>
	<path fill="#505050" d="M-290.755-136.813c0.617,0.617,0.617,1.618,0,2.236c-0.617,0.617-1.619,0.617-2.236,0
		c-0.617-0.618-0.617-1.619,0-2.236C-292.374-137.43-291.372-137.43-290.755-136.813z"/>
	<path fill="#505050" d="M-286.188-118.774c0.794,0.794,0.794,2.081,0,2.875s-2.082,0.795-2.875,0.001
		c-0.794-0.794-0.794-2.081,0-2.875S-286.981-119.568-286.188-118.774z"/>
	<path fill="#505050" d="M-266.343-69.694c-0.434,0.109-0.892,0.155-1.359,0.128c-2.487-0.144-4.395-2.285-4.249-4.772l0.9,0.055
		c-0.113,1.988,1.41,3.702,3.399,3.816c1.991,0.115,3.702-1.41,3.816-3.398l0.902,0.052
		C-263.049-71.798-264.479-70.163-266.343-69.694z"/>
</g>
<path fill="#737373" d="M-712.583-157.455c-4.148-4.528-10.87-6.934-16.283-8.192c-0.242-0.058-0.48-0.11-0.717-0.161
	c-1.383-0.304-2.666-0.532-3.776-0.703c-0.181-0.025-0.354-0.053-0.524-0.078c-0.75-0.107-1.408-0.188-1.949-0.248
	c-0.239-0.025-0.454-0.047-0.646-0.064c-0.636-0.063-0.996-0.081-0.996-0.081l24.15,26.37c0.62-0.565,1.164-1.187,1.636-1.842
	c0.067-0.094,0.13-0.188,0.194-0.281c0.875-1.295,1.47-2.727,1.78-4.209c0.025-0.12,0.049-0.24,0.071-0.361
	c0.106-0.594,0.166-1.195,0.181-1.797c0.004-0.143,0.006-0.286,0.006-0.43C-709.487-152.367-710.519-155.201-712.583-157.455z"/>
<path fill="#505050" d="M-728.866-165.647c-0.242-0.058-0.48-0.11-0.717-0.162l20.121,16.704c0.004-0.143,0.006-0.285,0.004-0.428
	L-728.866-165.647z"/>
<path fill="#505050" d="M-733.359-166.512c-0.181-0.027-0.354-0.054-0.524-0.078l3.504,3.812c0.014,0.014,0.012,0.016-0.004,0.005
	l-5.449-4.063c-0.239-0.025-0.453-0.049-0.645-0.065l7.337,5.471l17.453,18.978c0.066-0.094,0.13-0.188,0.193-0.282l-16.183-17.599
	c-0.014-0.014-0.012-0.016,0.004-0.005l17.959,13.392c0.025-0.118,0.049-0.239,0.071-0.36l-19.274-14.372L-733.359-166.512z"/>
<path fill="#737373" d="M-766.354-178.642c-0.191-0.004-0.408-0.007-0.648-0.008c-0.543-0.004-1.207,0-1.965,0.021
	c-0.173,0.006-0.349,0.01-0.529,0.019c-1.124,0.041-2.424,0.118-3.834,0.261c-0.24,0.023-0.482,0.05-0.729,0.078
	c-5.522,0.626-12.477,2.236-17.12,6.257c-2.311,2.001-3.664,4.695-4.021,7.506c-0.019,0.144-0.032,0.284-0.045,0.427
	c-0.054,0.601-0.065,1.205-0.028,1.807c0.007,0.123,0.018,0.244,0.029,0.367c0.138,1.51,0.563,3,1.281,4.387
	c0.054,0.102,0.104,0.201,0.16,0.302c0.394,0.706,0.863,1.384,1.414,2.019l27.034-23.402
	C-765.355-178.606-765.715-178.629-766.354-178.642z"/>
<path fill="#505050" d="M-767.002-178.65l-5.883,3.406c-0.017,0.011-0.019,0.008-0.005-0.004l3.923-3.381
	c-0.173,0.004-0.349,0.01-0.529,0.016l-4.973,4.287l-20.805,12.048c0.007,0.122,0.018,0.245,0.029,0.368l19.386-11.228
	c0.017-0.01,0.019-0.008,0.004,0.005l-18.106,15.608c0.052,0.101,0.104,0.2,0.158,0.302l19.528-16.833l7.921-4.587
	C-766.545-178.646-766.762-178.648-767.002-178.65z"/>
<path fill="#505050" d="M-795.247-164.084l21.916-14.267c-0.24,0.024-0.482,0.05-0.729,0.078l-21.141,13.763
	C-795.219-164.367-795.233-164.226-795.247-164.084z"/>
<path fill="#F2F2F2" d="M-741.953-205.615c-0.288,0.635-0.464,1.293-0.532,1.957c-0.148,1.42-3.371,3.959-4.411,5.39
	c-14.213,6.587-20.502,30.905-21.493,48.013c-1.135,19.581,5.768,40.153,18.721,54.428c10.168,11.205,24.158,19.694,37.401,24.275
	l20.05,12.352c0,0,2.916-10.098-3.041-14.817c-2.617-2.074-5.36-2.961-7.957-3.162c-0.006-0.001-0.006-0.003,0-0.006
	c2.521-1.208,4.789-2.767,6.069-4.742c4.128-6.376-3.588-14.702-3.588-14.702l-14.651,22.838c0,0.002-0.002,0.002-0.004,0
	c-17.406-12.435-29.953-33.268-26.496-55.75c0.01-0.003-0.004,0,0.006-0.003l2.615,12.108c3.375-0.729,5.521-4.057,4.79-7.432
	c-0.836-3.871-4.282-7.313-6.593-9.25c2.048-9.938,5.27-16.366,9.98-27.752c6.029-12.478,8.72-28.869,2.259-37.275
	c0.073-0.137,0.149-0.27,0.214-0.41c1.55-3.415-0.673-4.839-4.355-6.512C-736.654-207.742-740.402-209.029-741.953-205.615z"/>
<path fill="#CDCDCD" d="M-705.84-67.593l13.465-2.392c-0.039-0.104-0.076-0.211-0.12-0.315l-13.771,2.444L-705.84-67.593z"/>
<path fill="#CDCDCD" d="M-700.858-64.563l9.105,3.075c0.017-0.111,0.033-0.219,0.047-0.332l-10.365-3.497
	c-0.016-0.007-0.018-0.003-0.003,0.006L-700.858-64.563z"/>
<path fill="#CDCDCD" d="M-715.491-73.097l13.179-3.979c0.009-0.002,0.009-0.006,0-0.006c-0.276-0.039-0.553-0.068-0.827-0.092
	l-12.766,3.816c-0.006,0.002-0.007,0.01-0.002,0.013L-715.491-73.097z"/>
<path fill="#CDCDCD" d="M-708.942-69.504l16.119-1.502c-0.055-0.104-0.111-0.212-0.169-0.318l-16.421,1.531L-708.942-69.504z"/>
<path fill="#CDCDCD" d="M-714.019-72.207l19.816-0.813c0.003,0,0.004-0.003,0.002-0.006c-0.097-0.107-0.201-0.211-0.306-0.314
	l-20.023,0.821c-0.008,0.001-0.01,0.01-0.003,0.015L-714.019-72.207z"/>
<path fill="#CDCDCD" d="M-757.625-153.738c1.119-19.314,8.393-36.812,19.797-50.701c0.001-0.002,0-0.005-0.002-0.005
	c-11.125-2.3-21.604,6.726-28.198,18.694c-5.312,9.642-7.519,21.512-8.072,31.057c-2.301,39.682,24.485,74.316,61.87,83.168
	c0.014,0.003,0.014,0.001,0.002-0.006C-740.978-87.394-759.653-118.771-757.625-153.738z"/>
<path fill="#CDCDCD" d="M-747.065-152.006c0.163,1.172-0.654,2.252-1.824,2.414c-1.171,0.163-2.251-0.654-2.414-1.824
	c-0.162-1.17,0.654-2.252,1.825-2.414C-748.308-153.992-747.227-153.176-747.065-152.006z"/>
<path fill="#CDCDCD" d="M-744.492-164.714c0.163,1.171-0.654,2.251-1.825,2.413c-1.17,0.163-2.25-0.654-2.413-1.824
	s0.654-2.252,1.825-2.414C-745.735-166.701-744.654-165.885-744.492-164.714z"/>
<path fill="#CDCDCD" d="M-746.219-172.818c0.161,1.171-0.656,2.251-1.826,2.414c-1.17,0.162-2.25-0.654-2.412-1.825
	c-0.163-1.17,0.654-2.251,1.824-2.413C-747.463-174.806-746.383-173.988-746.219-172.818z"/>
<path fill="#CDCDCD" d="M-749.102-159.225c0.186,1.338-0.747,2.573-2.085,2.759c-1.337,0.185-2.571-0.748-2.758-2.086
	c-0.187-1.337,0.748-2.571,2.085-2.758C-750.522-161.496-749.287-160.562-749.102-159.225z"/>
<path fill="#CDCDCD" d="M-751.596-147.736c-0.001,0.644-0.521,1.166-1.166,1.166c-0.644,0-1.164-0.522-1.164-1.166
	c0-0.643,0.521-1.165,1.164-1.165C-752.118-148.901-751.596-148.379-751.596-147.736z"/>
<path fill="#CDCDCD" d="M-743.9-159.685c0.092,0.823-0.499,1.563-1.321,1.657c-0.822,0.092-1.564-0.5-1.656-1.322
	c-0.092-0.823,0.498-1.564,1.321-1.656C-744.734-161.099-743.992-160.507-743.9-159.685z"/>
<path fill="#E1E1E1" d="M-757.644-171.246c0.226,1.662-0.94,3.192-2.602,3.418c-1.662,0.226-3.192-0.939-3.417-2.603
	c-0.225-1.662,0.938-3.192,2.602-3.417C-759.399-174.074-757.869-172.908-757.644-171.246z"/>
<path fill="#E1E1E1" d="M-759.754-157.857c0.225,1.663-0.94,3.191-2.603,3.418c-1.662,0.225-3.192-0.939-3.417-2.602
	c-0.225-1.664,0.939-3.192,2.602-3.418C-761.51-160.686-759.98-159.52-759.754-157.857z"/>
<path fill="#E1E1E1" d="M-762.285-139.607c0.128,1.167-0.716,2.217-1.882,2.345c-1.168,0.128-2.219-0.714-2.346-1.882
	c-0.129-1.167,0.713-2.219,1.881-2.346C-763.463-141.619-762.413-140.775-762.285-139.607z"/>
<path fill="#E1E1E1" d="M-765.202-162.619c0.086,0.776-0.477,1.479-1.254,1.563c-0.779,0.085-1.479-0.477-1.565-1.255
	c-0.085-0.778,0.478-1.479,1.255-1.563C-765.987-163.959-765.287-163.397-765.202-162.619z"/>
<path fill="#E1E1E1" d="M-766.096-151.304c0.1,0.908-0.557,1.726-1.465,1.825s-1.725-0.557-1.824-1.464
	c-0.1-0.908,0.557-1.726,1.465-1.825S-766.196-152.211-766.096-151.304z"/>
<path fill="#CDCDCD" d="M-731.67-195.433c0.283,0.17,0.545,0.384,0.775,0.644c1.221,1.371,1.1,3.479-0.271,4.7l-0.443-0.497
	c1.098-0.977,1.193-2.664,0.218-3.761c-0.977-1.098-2.664-1.194-3.761-0.218l-0.443-0.498
	C-734.483-196.052-732.885-196.158-731.67-195.433z"/>
<g>
	<path fill="#0E9DD4" d="M-984.612-86.368c0,0-23.189-7.073-31.122-21.529c-4.498-8.194-1.502-18.483,6.692-22.981L-984.612-86.368z
		"/>
	<path fill="#505050" d="M-1010.833-129.737l23.38,42.382c0.237,0.089,0.465,0.172,0.676,0.249l-23.67-42.908
		C-1010.58-129.924-1010.706-129.83-1010.833-129.737z"/>
	<path fill="#505050" d="M-1015.376-124.805l28.65,34.674c0.015,0.016,0.018,0.014,0.007-0.004l-1.188-2.17l-27.209-32.925
		C-1015.205-125.09-1015.289-124.946-1015.376-124.805z"/>
	<path fill="#505050" d="M-1016.664-122.19l24.149,32.543l0.38-0.282l-24.318-32.771
		C-1016.524-122.531-1016.596-122.362-1016.664-122.19z"/>
	<path fill="#E6E6E6" d="M-948.959-62.738c0,0,23.173,7.134,37.843-0.395c8.315-4.269,11.599-14.47,7.332-22.785L-948.959-62.738z"
		/>
	<path fill="#505050" d="M-943.25-61.336l40.853-20.853c-0.039-0.155-0.075-0.313-0.12-0.47l-41.467,21.166
		C-943.747-61.44-943.5-61.389-943.25-61.336z"/>
	<path fill="#505050" d="M-946.701-62.123l44.512-13.064c0.032-0.172,0.058-0.345,0.084-0.518l-45.49,13.351
		C-947.328-62.284-947.033-62.207-946.701-62.123z"/>
	<path fill="#505050" d="M-936.84-60.268l33.801-11.865c0.07-0.188,0.14-0.382,0.205-0.574l-35.035,12.302
		C-937.533-60.358-937.188-60.313-936.84-60.268z"/>
	<path fill="#E3E3E3" d="M-966.136-133.568c0,0-11.014-6.354-13.359-14.678c-1.329-4.717,1.417-9.62,6.136-10.95L-966.136-133.568z"
		/>
	<path fill="#0E9DD4" d="M-985.713-228.099l-24.668-24.979c0,0-7.428,12.947-0.801,21.466c2.912,3.745,6.399,5.893,9.916,7.044
		c0.003,0.001,0.003,0.005,0,0.006c-3.887,0.816-7.544,2.201-9.975,4.498c-7.842,7.405-0.003,21.489-0.003,21.489l27.942-26.386
		c0-0.002,0.004-0.002,0.004,0c7.759,8.813,14.107,19.129,18.299,30.211c0.115,0.311,2.391,0.881,2.505,1.191
		c6.461,17.658,8.28,35.311,0.694,53.646c-0.332,0.799-1.315,3.054-1.646,3.813c-0.221,0.509-2.809,1.138-3.029,1.632
		c-2.979,6.617-6.055,11.903-9.531,17.078c-0.62,0.924,0.3,4.282-0.352,5.21c-3.621,5.157-7.758,10.007-12.74,16.813
		c-7.625,9.247-13.046,18.99-15.516,29.813c-0.205,0.899-2.87,1.752-3.02,2.639c-1.054,6.24-0.67,12.062,1.681,16.88
		c-1.054,3.77,0.335,8.12,3.814,10.854c3.729,2.928,8.688,3.082,12.158,0.694c4.358,0.885,8.885,0.573,13.403-0.687
		c0.127-0.035,0.38-0.108,0.38-0.108l0.021,0.043c1.104,2.075,3.678,2.864,5.753,1.763c1.834-0.973,2.661-3.095,2.07-5.007
		c6.373-3.332,12.514-8.301,17.914-14.181c2.47-2.688,4.748-5.608,6.838-8.658c0.572-0.839-1.241-3.028-0.695-3.887
		c5.979-9.385,9.772-18.875,12.567-27.992c4.322-14.106,6.175-27.471,5.112-41.34c-0.075-0.987,2.32-2.604,2.22-3.586
		c-0.575-5.598-1.554-11-2.928-16.4c-0.103-0.391-2.74-0.598-2.844-0.988c-4.013-15.066-9.292-26.843-18.894-39.087
		c-0.124-0.155,0.526-2.825,0.406-2.979C-958.521-210.029-971.047-220.526-985.713-228.099z"/>
	<path fill="#FFFFFF" d="M-977.585-76.156c10.42-12.9,10.772-30.309,1.583-41.23c-4.066,6.044-8.73,12.013-14.595,20.021
		c-8.268,10.028-15.099,22.901-17.034,34.454C-997.011-61.756-985.441-66.431-977.585-76.156z"/>
	<path fill="#FFFFFF" d="M-953.786-120.053c-14.767,18.28-15.457,42.211-1.544,53.448c3.432,2.772,7.433,4.513,11.731,5.288
		c6.857-10.014,11.71-21.516,14.76-31.463c4.641-15.147,5.984-30.52,4.444-45.344C-934.77-136.475-945.585-130.202-953.786-120.053z
		"/>
	<path fill="#FFFFFF" d="M-932.099-146.899c1.944-2.407,3.53-4.974,4.778-7.623c-4.001-15.698-11.291-30.388-21.33-43.056
		c-5.421-0.533-11.073,0.445-16.347,2.83c6.771,17.906,7.898,37.785,0.178,56.447c-0.549,1.334-1.103,2.604-1.654,3.834
		C-954.787-131.306-941.04-135.832-932.099-146.899z"/>
	<path fill="#505050" d="M-983.168-225.521l-0.519-0.523l-18.815,1.026c0.376,0.149,0.753,0.286,1.127,0.412l17.183-0.937
		c0.003,0,0.006,0.004,0.003,0.006l-30.517,15.142c0.006,0.171,0.016,0.343,0.027,0.513l31.507-15.633
		C-983.168-225.517-983.168-225.52-983.168-225.521z"/>
	<path fill="#505050" d="M-1011.977-249.633l13.198,8.362c0.013,0.009,0.016,0.006,0.003-0.005l-1.439-1.46l-11.584-7.34
		C-1011.857-249.933-1011.915-249.784-1011.977-249.633z"/>
	<path fill="#505050" d="M-993.919-236.407l-0.501-0.507l-19.388-1.235c0.021,0.16,0.042,0.319,0.068,0.478L-993.919-236.407z"/>
	<path fill="#505050" d="M-985.665-227.981l-26.647-5.368c0.097,0.182,0.201,0.364,0.311,0.543l26.919,5.422
		c0.004,0,0.004-0.003,0.004-0.005L-985.665-227.981z"/>
	<path fill="#505050" d="M-990.784-233.232l-22.744-3.357c0.036,0.166,0.078,0.332,0.124,0.496l23.172,3.422L-990.784-233.232z"/>
	<path fill="#505050" d="M-1014.086-206.121l16.754-5.654l0.806-0.762c0.003-0.002,0-0.006-0.003-0.004l-17.661,5.959
		C-1014.158-206.428-1014.122-206.273-1014.086-206.121z"/>
	<path fill="#505050" d="M-997.762-49.508c-0.468,0-0.936-0.067-1.391-0.209c-1.209-0.371-2.2-1.188-2.792-2.304
		c-0.591-1.116-0.714-2.396-0.344-3.603s1.186-2.198,2.304-2.791l0.442,0.836c-0.892,0.474-1.549,1.267-1.845,2.23
		c-0.295,0.969-0.196,1.99,0.277,2.883c0.473,0.893,1.267,1.547,2.232,1.844c0.966,0.296,1.988,0.197,2.883-0.276l0.44,0.835
		C-996.244-49.694-997-49.508-997.762-49.508z"/>
	<path fill="#E3E3E3" d="M-931.913-105.438c1.778,1.583,1.938,4.308,0.356,6.089c-1.583,1.78-4.309,1.94-6.089,0.357
		c-1.78-1.582-1.938-4.309-0.356-6.088C-936.418-106.86-933.693-107.021-931.913-105.438z"/>
	<path fill="#E3E3E3" d="M-949.958-112.133c1.778,1.584,1.939,4.31,0.356,6.09c-1.582,1.779-4.308,1.939-6.088,0.357
		c-1.78-1.583-1.938-4.309-0.356-6.089S-951.738-113.715-949.958-112.133z"/>
	<path fill="#E3E3E3" d="M-944.21-75.832c1.251,1.117,1.357,3.037,0.24,4.289c-1.116,1.252-3.036,1.358-4.29,0.242
		c-1.251-1.117-1.357-3.039-0.24-4.289C-947.383-76.842-945.461-76.949-944.21-75.832z"/>
	<path fill="#E3E3E3" d="M-945.606-86.748c1.251,1.117,1.36,3.039,0.242,4.289c-1.118,1.252-3.038,1.359-4.289,0.242
		c-1.252-1.117-1.36-3.037-0.242-4.289S-946.857-87.865-945.606-86.748z"/>
	<path fill="#E3E3E3" d="M-933.84-86.881c1.252,1.117,1.359,3.037,0.241,4.289c-1.116,1.252-3.038,1.359-4.289,0.241
		c-1.251-1.116-1.357-3.038-0.241-4.289C-937.012-87.891-935.092-87.998-933.84-86.881z"/>
	<path fill="#E3E3E3" d="M-951.641-95.457c1.432,1.275,1.556,3.472,0.277,4.899c-1.278,1.431-3.472,1.556-4.902,0.277
		c-1.43-1.277-1.554-3.474-0.275-4.902C-955.264-96.611-953.071-96.735-951.641-95.457z"/>
	<path fill="#E3E3E3" d="M-953.397-85.76c0.894,0.767,0.995,2.108,0.23,3c-0.767,0.893-2.108,0.994-3,0.229
		c-0.894-0.765-0.995-2.108-0.23-3C-955.631-86.422-954.288-86.524-953.397-85.76z"/>
	<path fill="#E3E3E3" d="M-943.437-114.383c0.847,0.723,0.946,1.993,0.224,2.838c-0.722,0.847-1.991,0.946-2.839,0.225
		c-0.845-0.723-0.943-1.993-0.223-2.839C-945.553-115.004-944.282-115.104-943.437-114.383z"/>
</g>
<g>
	<g>
		<path fill="#737373" d="M-590.873,812.075c-21.985,0-42.654-8.563-58.2-24.105c-15.545-15.547-24.104-36.216-24.104-58.2
			s8.561-42.652,24.104-58.199c15.546-15.545,36.215-24.106,58.2-24.106s42.653,8.563,58.199,24.106
			c15.544,15.547,24.106,36.215,24.106,58.199s-8.563,42.653-24.106,58.2C-548.22,803.513-568.89,812.075-590.873,812.075z
			 M-590.873,648.112c-45.026,0-81.656,36.631-81.656,81.655c0,45.025,36.63,81.656,81.656,81.656
			c45.025,0,81.657-36.633,81.657-81.656C-509.216,684.743-545.848,648.112-590.873,648.112z"/>
		<path fill="#737373" d="M-590.873,791.579c-34.083,0-61.812-27.729-61.812-61.812c0-34.084,27.729-61.812,61.812-61.812
			s61.809,27.728,61.809,61.812C-529.064,763.851-556.791,791.579-590.873,791.579z M-590.873,668.606
			c-33.724,0-61.161,27.438-61.161,61.161c0,33.725,27.436,61.162,61.161,61.162c33.724,0,61.159-27.438,61.159-61.162
			C-529.714,696.044-557.149,668.606-590.873,668.606z"/>
		<path fill="#2F2F2F" d="M-711.739,775.7c-19.613,0-38.054-7.638-51.922-21.506c-13.869-13.869-21.507-32.31-21.507-51.922
			c0-19.614,7.638-38.054,21.507-51.923c13.869-13.868,32.309-21.508,51.922-21.508c19.613,0,38.053,7.64,51.922,21.508
			c13.869,13.869,21.506,32.31,21.506,51.923c0,19.612-7.637,38.053-21.506,51.922C-673.686,768.063-692.126,775.7-711.739,775.7z
			 M-711.739,629.222c-40.281,0-73.052,32.771-73.052,73.052s32.771,73.051,73.052,73.051c40.28,0,73.051-32.771,73.051-73.051
			C-638.688,661.992-671.459,629.222-711.739,629.222z"/>
		<path fill="#2F2F2F" d="M-711.739,757.392c-30.393,0-55.119-24.727-55.119-55.118c0-30.395,24.728-55.119,55.119-55.119
			c30.393,0,55.119,24.727,55.119,55.119C-656.62,732.665-681.347,757.392-711.739,757.392z M-711.739,647.531
			c-30.185,0-54.742,24.557-54.742,54.741c0,30.184,24.558,54.739,54.742,54.739c30.184,0,54.741-24.557,54.741-54.739
			C-656.998,672.087-681.556,647.531-711.739,647.531z"/>
		<path fill="#CFCFCF" d="M-719.949,931.897c-29.586,0-53.655-24.068-53.655-53.654c0-29.586,24.069-53.654,53.655-53.654
			c29.586,0,53.657,24.068,53.657,53.654C-666.292,907.829-690.363,931.897-719.949,931.897z M-719.949,824.911
			c-29.407,0-53.331,23.924-53.331,53.332c0,29.406,23.924,53.33,53.331,53.33c29.407,0,53.332-23.924,53.332-53.33
			C-666.617,848.835-690.542,824.911-719.949,824.911z"/>
		<path fill="#CFCFCF" d="M-719.949,918.526c-22.212,0-40.282-18.072-40.282-40.283c0-22.213,18.07-40.283,40.282-40.283
			c22.213,0,40.283,18.072,40.283,40.283C-679.666,900.454-697.736,918.526-719.949,918.526z M-719.949,838.284
			c-22.032,0-39.957,17.926-39.957,39.959c0,22.033,17.925,39.955,39.957,39.955c22.033,0,39.958-17.922,39.958-39.955
			C-679.991,856.21-697.916,838.284-719.949,838.284z"/>
		<path fill="#737373" d="M-402.983,891.864c-27.703,0-53.749-10.787-73.34-30.376c-19.591-19.591-30.378-45.638-30.378-73.341
			c0-27.704,10.787-53.752,30.378-73.342c19.591-19.59,45.637-30.379,73.34-30.379c27.706,0,53.751,10.789,73.345,30.379
			c19.587,19.59,30.377,45.638,30.377,73.342c0,27.703-10.79,53.75-30.377,73.341C-349.232,881.077-375.277,891.864-402.983,891.864
			z M-402.983,685.246c-56.737,0-102.897,46.161-102.897,102.898c0,56.74,46.16,102.899,102.897,102.899
			c56.738,0,102.901-46.159,102.901-102.899C-300.082,731.407-346.245,685.246-402.983,685.246z"/>
		<path fill="#737373" d="M-402.983,866.038c-20.807,0-40.363-8.104-55.078-22.814c-14.713-14.711-22.812-34.271-22.812-55.075
			c0-20.808,8.102-40.366,22.812-55.078c14.715-14.713,34.271-22.814,55.078-22.814c20.808,0,40.365,8.103,55.077,22.814
			c14.713,14.712,22.815,34.271,22.815,55.078c0,20.805-8.104,40.364-22.815,55.075
			C-362.618,857.938-382.177,866.038-402.983,866.038z M-402.983,711.074c-42.497,0-77.069,34.572-77.069,77.07
			s34.572,77.074,77.069,77.074s77.073-34.576,77.073-77.074C-325.91,745.649-360.486,711.074-402.983,711.074z"/>
		<path fill="#737373" d="M-402.983,836.981c-26.927,0-48.835-21.906-48.835-48.834c0-26.931,21.908-48.839,48.835-48.839
			c26.931,0,48.837,21.908,48.837,48.839C-354.149,815.073-376.054,836.981-402.983,836.981z M-402.983,740.13
			c-26.475,0-48.016,21.54-48.016,48.019c0,26.475,21.541,48.016,48.016,48.016c26.479,0,48.02-21.541,48.02-48.016
			C-354.965,761.67-376.506,740.13-402.983,740.13z"/>
	</g>
	<rect x="-855.497" y="592.767" fill="none" width="70.329" height="351"/>
</g>
<path fill="#4D4C4D" d="M-1620.802,594.583h624v351h-624V594.583z"/>
<g>
	<g>
		<g>
			<path fill="#2F2F2F" d="M-1138.785,709.097l-0.521,0.216l0,0c8.676-19.832-11.313-40.244-31.256-31.806
				c-6.113,2.587-11.803,6.497-16.627,11.729c-16.785,18.201-16.871,46.6-0.188,64.888c18.617,20.407,50.285,20.954,69.609,1.644
				c4.488-4.485,7.908-9.64,10.25-15.141C-1099.125,720.931-1118.961,700.989-1138.785,709.097z"/>
			<path fill="#515050" d="M-1140.953,729.784l28.52,19.653c0.125-0.178,0.248-0.355,0.371-0.534l-29.041-20.013l-2.518-14.813
				l5.07-5.065c0.002-0.003,0-0.007-0.004-0.006c-0.113,0.041-0.572,0.176-0.605,0.146c-0.027-0.03,0.07-0.353,0.17-0.611
				c0.006-0.003-0.004-0.006-0.006-0.003l-5.002,5l-15.82-12.056l-2.287-25.908c-0.215,0.009-0.434,0.022-0.65,0.039l2.232,25.332
				l-21.605-16.465c-0.172,0.141-0.346,0.282-0.518,0.426l38.186,29.095l-2.188,2.188h-21.853l-22.397-22.395
				c-0.131,0.179-0.254,0.358-0.381,0.541l21.855,21.854l-30.088,0.002c-0.027,0.216-0.047,0.433-0.068,0.648l52.279-0.003
				l-11.791,11.785l-40.707-8.668c-0.01,0.22-0.02,0.438-0.021,0.66l40.18,8.556l-26.387,26.369c0.152,0.153,0.303,0.31,0.459,0.462
				l33.586-33.563l-12.695,45.663c0.207,0.059,0.416,0.111,0.627,0.166l13.004-46.765l6.863-6.86l8.885,52.31
				c0.205-0.075,0.414-0.156,0.619-0.234L-1140.953,729.784z"/>
		</g>
		<g>
			<path fill="#737374" d="M-1566.756,818.1l0.768,0.322l0,0c-29.677,11.607-30.119,53.66-0.573,65.637
				c9.058,3.673,19.047,5.522,29.516,5.101c36.417-1.474,66.066-30.944,67.735-67.349c1.863-40.62-30.531-74.151-70.743-74.167
				c-9.345-0.004-18.266,1.806-26.431,5.091C-1595.721,764.5-1595.832,805.904-1566.756,818.1z"/>
			<path fill="#515050" d="M-1472.585,796.904l-37.277,21.058l-13.036-0.004l34.217-48.221c-0.223-0.235-0.45-0.468-0.676-0.7
				l-20.054,28.258l-8.484-46.104c-0.343-0.112-0.688-0.225-1.034-0.331l8.746,47.522l-13.891,19.573l-43.037-0.014
				c-0.003,0-0.004,0.004-0.001,0.005c0.19,0.107,0.846,0.474,0.846,0.474s-0.506,0.269-0.878,0.471
				c-0.003,0.002-0.001,0.007,0.002,0.007l10.432,0.004l3.92,29.02l-24.588,29.348c0.234,0.216,0.475,0.427,0.715,0.636
				l24.046-28.698l5.355,39.637c0.325,0.033,0.651,0.066,0.978,0.096l-9.461-70.032l4.552,0.002l22.749,22.745l0.004,46.623
				c0.32-0.054,0.638-0.108,0.957-0.168l-0.004-45.498l31.324,31.319c0.252-0.198,0.499-0.403,0.747-0.605l-54.424-54.419
				l24.543,0.009l33.348,51.394c0.238-0.221,0.476-0.438,0.711-0.664l-32.918-50.729l54.915,0.018
				c0.002-0.315,0.007-0.638,0.005-0.955l-38.695-0.014l35.636-20.128C-1472.389,797.523-1472.486,797.214-1472.585,796.904z"/>
		</g>
		<g>
			<path fill="#737374" d="M-996.805,630.431c-11.908-9.084-26.777-14.485-42.908-14.491c-9.342-0.005-18.264,1.804-26.428,5.09
				c-29.238,11.766-29.348,53.17-0.273,65.365l0.77,0.321l0,0c-29.676,11.608-30.119,53.66-0.574,65.638
				c9.059,3.672,19.049,5.521,29.52,5.1c14.924-0.604,28.705-5.911,39.896-14.467V630.431H-996.805z"/>
			<path fill="#515050" d="M-996.805,686.261l-10.777-0.004l10.777-6.087v-1.096l-12.713,7.182l-13.037-0.004l25.75-36.288v-1.654
				l-12.262,17.279l-8.486-46.104c-0.342-0.112-0.686-0.225-1.035-0.332l8.748,47.523l-13.891,19.573l-43.037-0.016
				c0.145,0.095,0.775,0.446,0.822,0.473c0.004,0.001,0.004,0.002,0,0.003c-0.039,0.022-0.498,0.276-0.859,0.481l10.438,0.004
				l3.92,29.02l-24.586,29.346c0.232,0.216,0.475,0.427,0.715,0.636l24.047-28.698l5.352,39.637c0.328,0.033,0.654,0.065,0.98,0.096
				l-9.461-70.033l4.553,0.003l22.746,22.745l0.008,46.623c0.318-0.054,0.637-0.109,0.955-0.166l-0.004-45.5l30.338,30.336v-1.354
				l-52.693-52.684l24.545,0.008l28.148,43.38v-1.759l-27.008-41.621l27.008,0.009L-996.805,686.261L-996.805,686.261z"/>
		</g>
		<g>
			<path fill="#737374" d="M-1292.717,862.268l-0.521,0.216l0,0c8.68-19.832-11.309-40.244-31.254-31.806
				c-6.114,2.588-11.802,6.497-16.627,11.729c-16.786,18.2-16.871,46.599-0.186,64.886c18.617,20.406,50.286,20.955,69.606,1.646
				c4.49-4.486,7.906-9.643,10.25-15.143C-1253.059,874.102-1272.893,854.16-1292.717,862.268z"/>
			<path fill="#515050" d="M-1294.881,882.956l28.514,19.654c0.129-0.18,0.246-0.357,0.371-0.535l-29.039-20.015l-2.516-14.813
				l5.072-5.072c0.002-0.002,0-0.007-0.004-0.006c-0.121,0.039-0.646,0.199-0.646,0.199s0.174-0.546,0.217-0.668
				c0-0.003-0.004-0.008-0.006-0.003l-5.01,5.008l-15.823-12.057l-2.285-25.905c-0.216,0.009-0.433,0.021-0.649,0.038l2.235,25.336
				l-21.612-16.471c-0.172,0.144-0.344,0.283-0.515,0.428l38.186,29.096l-2.189,2.188l-21.853,0.002l-22.396-22.396
				c-0.128,0.182-0.253,0.359-0.379,0.54l21.858,21.854l-30.091,0.002c-0.025,0.218-0.046,0.434-0.068,0.648l52.281-0.003
				l-11.792,11.785l-40.705-8.668c-0.009,0.22-0.018,0.438-0.023,0.66l40.181,8.556l-26.387,26.37
				c0.153,0.154,0.303,0.311,0.457,0.463l33.588-33.563l-12.697,45.663c0.209,0.059,0.419,0.109,0.629,0.164l13.001-46.763
				l6.865-6.859l8.885,52.308c0.207-0.074,0.412-0.156,0.619-0.232L-1294.881,882.956z"/>
		</g>
		<g>
			<path fill="#2F2F2F" d="M-1124.434,848.529l0.293,0.71l0,0c-26.893-11.771-54.574,15.335-43.131,42.382
				c3.51,8.293,8.811,16.006,15.906,22.549c24.68,22.766,63.191,22.879,87.992,0.254c27.672-25.247,28.414-68.191,2.23-94.395
				c-6.084-6.09-13.076-10.724-20.535-13.902C-1108.385,794.746-1135.428,821.645-1124.434,848.529z"/>
			<path fill="#515050" d="M-1107.67,865.263l-9.482-9.488l71.133-12.082c-0.078-0.207-0.156-0.414-0.234-0.621l-50.375,8.558
				l26.811-38.896c-0.18-0.125-0.357-0.248-0.535-0.369l-27.164,39.42l-20.199,3.43l-6.73-6.736c-0.002-0.003-0.006,0-0.006,0.002
				c0.039,0.125,0.162,0.615,0.162,0.615s-0.498-0.145-0.627-0.184c-0.004-0.002-0.008,0.003-0.004,0.006l6.666,6.674
				l-16.441,21.578l-35.189,3.104c0.008,0.216,0.029,0.435,0.041,0.648l34.619-3.057l-22.51,29.543
				c0.141,0.172,0.279,0.344,0.424,0.516l39.521-51.869l3.092,3.096v29.729l-30.389,30.393c0.182,0.129,0.361,0.254,0.543,0.381
				l29.846-29.854l0.002,41.102c0.219,0.021,0.434,0.041,0.65,0.063l-0.004-71.165l16.225,16.235l-11.766,55.242
				c0.221,0.006,0.438,0.02,0.66,0.023l11.652-54.719l35.906,35.936c0.156-0.152,0.314-0.303,0.467-0.457l-45.824-45.854
				l62.344,17.333c0.059-0.209,0.111-0.42,0.166-0.629L-1107.67,865.263z"/>
		</g>
		<g>
			<path fill="#2F2F2F" d="M-1317.942,640.521l-0.523,0.215l0,0c8.679-19.832-11.308-40.244-31.254-31.806
				c-6.114,2.589-11.802,6.497-16.628,11.729c-16.785,18.2-16.871,46.599-0.186,64.887c18.617,20.407,50.285,20.954,69.607,1.645
				c4.492-4.486,7.908-9.642,10.25-15.142C-1278.283,652.354-1298.117,632.412-1317.942,640.521z"/>
			<path fill="#515050" d="M-1320.109,661.208l28.52,19.654c0.125-0.179,0.244-0.356,0.367-0.535l-29.039-20.014l-2.515-14.813
				l5.07-5.065c0.002-0.002,0-0.006-0.004-0.006c-0.112,0.039-0.567,0.159-0.589,0.138c-0.022-0.021,0.052-0.345,0.154-0.604
				c0.001-0.003-0.003-0.006-0.005-0.003l-5.003,5l-15.823-12.058l-2.285-25.907c-0.216,0.009-0.432,0.022-0.649,0.039l2.235,25.336
				l-21.612-16.468c-0.173,0.141-0.344,0.281-0.515,0.425l38.184,29.096l-2.187,2.188h-21.854l-22.397-22.394
				c-0.128,0.181-0.254,0.359-0.379,0.54l21.858,21.854l-30.092,0.002c-0.025,0.216-0.045,0.433-0.068,0.649l52.282-0.004
				l-11.794,11.785l-40.705-8.667c-0.008,0.22-0.018,0.44-0.023,0.66l40.18,8.556l-26.387,26.367
				c0.152,0.154,0.303,0.312,0.457,0.462l33.588-33.563l-12.696,45.662c0.209,0.059,0.418,0.111,0.628,0.168l13.002-46.766
				l6.865-6.859l8.885,52.309c0.207-0.075,0.413-0.156,0.619-0.234L-1320.109,661.208z"/>
		</g>
	</g>
	<rect x="-1620.802" y="594.583" fill="none" width="624" height="12.391"/>
</g>
<path fill="#737374" d="M-1621.872,1058.952h624v351h-624V1058.952z"/>
<g>
	<rect x="-1621.873" y="1058.952" fill="none" width="624" height="41.48"/>
	<g>
		<g>
			<path fill="#F1F1F1" d="M-1568.223,1263.233c8.189,11.266,7.908,25.453,7.904,25.635c0,0.004,0,0.002-0.002,0.002
				c-0.174-0.053-13.756-4.158-21.947-15.426c-8.244-11.338-7.904-25.639-7.904-25.639S-1576.469,1251.893-1568.223,1263.233z"/>
			<path fill="#F1F1F1" d="M-1551.65,1263.483c0.004,13.93-8.563,25.242-8.672,25.387c-0.002,0.002-0.002,0.002-0.002,0
				c-0.109-0.145-8.686-11.449-8.688-25.379c-0.004-14.021,8.674-25.389,8.674-25.389S-1551.656,1249.463-1551.65,1263.483z"/>
			<path fill="#FFFFFF" d="M-1538.385,1273.428c-8.184,11.273-21.764,15.391-21.938,15.441c-0.002,0-0.002,0.002-0.002-0.002
				c-0.004-0.182-0.295-14.367,7.887-25.639c8.238-11.348,21.94-15.441,21.94-15.441S-1530.148,1262.084-1538.385,1273.428z"/>
			<path fill="#0F9CD3" d="M-1552.744,1284.274c0-4.354-3.529-7.883-7.881-7.883c-4.354,0-7.883,3.529-7.883,7.883l8.182,4.598
				c0.002,0,0.002,0,0.004,0L-1552.744,1284.274z"/>
			<path fill="#CDCCCC" d="M-1533.5,1283.346c-13.204,4.299-26.565,5.502-26.821,5.523c-0.004,0.002-0.004,0-0.002-0.002
				c0.168-0.242,8.258-11.814,21.451-16.105c13.331-4.336,26.823,0.404,26.823,0.404S-1520.169,1279.01-1533.5,1283.346z"/>
			<path fill="#CDCCCC" d="M-1581.789,1272.778c13.195,4.281,21.295,15.848,21.461,16.09c0.002,0.002,0.002,0.004,0,0.004
				c-0.258-0.023-13.615-1.219-26.82-5.506c-13.334-4.328-21.465-10.166-21.465-10.166S-1595.125,1268.45-1581.789,1272.778z"/>
		</g>
		<g>
			<path fill="#F1F1F1" d="M-1051.23,1125.793c0.006,13.93-8.561,25.242-8.672,25.387c-0.002,0-0.002,0-0.002,0
				c-0.111-0.145-8.686-11.449-8.691-25.379c-0.004-14.02,8.676-25.389,8.676-25.389S-1051.234,1111.774-1051.23,1125.793z"/>
			<path fill="#F1F1F1" d="M-1067.81,1131.78c8.191,11.268,7.908,25.455,7.904,25.637c0,0.002,0,0.002,0,0.002
				c-0.174-0.053-13.756-4.158-21.947-15.424c-8.244-11.34-7.906-25.639-7.906-25.639S-1076.054,1120.44-1067.81,1131.78z"/>
			<path fill="#FFFFFF" d="M-1037.972,1141.979c-8.182,11.271-21.762,15.389-21.936,15.439c-0.004,0-0.004,0-0.004-0.002
				c-0.004-0.182-0.295-14.367,7.887-25.641c8.24-11.344,21.941-15.439,21.941-15.439S-1029.732,1130.633-1037.972,1141.979z"/>
			<path fill="#0F9CD3" d="M-1052.33,1152.821c0-4.354-3.529-7.881-7.881-7.881c-4.355,0-7.887,3.527-7.887,7.881l8.186,4.598
				c0,0,0,0,0.004,0L-1052.33,1152.821z"/>
			<path fill="#CDCCCC" d="M-1033.085,1151.897c-13.201,4.295-26.566,5.502-26.822,5.521c0,0,0,0,0-0.002
				c0.168-0.242,8.258-11.814,21.449-16.105c13.332-4.336,26.826,0.404,26.826,0.404S-1019.753,1147.561-1033.085,1151.897z"/>
			<path fill="#ECECEC" d="M-1081.375,1141.327c13.193,4.281,21.295,15.85,21.459,16.09c0.004,0.002,0.004,0.004,0,0.004
				c-0.256-0.021-13.613-1.221-26.818-5.506c-13.334-4.328-21.467-10.168-21.467-10.168S-1094.708,1136.999-1081.375,1141.327z"/>
		</g>
	</g>
</g>
<path fill="#737373" d="M-728.104,173.769c0,4.039-3.274,7.313-7.313,7.313s-7.313-3.273-7.313-7.313s3.273-7.313,7.313-7.313
	C-731.378,166.455-728.104,169.729-728.104,173.769z"/>
<path fill="#505050" d="M-428.454,463.669c0,4.037-3.273,7.313-7.313,7.313c-4.038,0-7.313-3.273-7.313-7.313
	s3.274-7.313,7.313-7.313C-431.727,456.355-428.454,459.63-428.454,463.669z"/>
<path fill="#CFCFCF" d="M-660.012,480.311c0,4.039-3.273,7.313-7.313,7.313s-7.313-3.271-7.313-7.313s3.273-7.313,7.313-7.313
	S-660.012,476.271-660.012,480.311z"/>
<path fill="#D2D2D2" d="M-617.434,278.145c0,4.038-3.274,7.312-7.313,7.312s-7.313-3.273-7.313-7.312s3.273-7.313,7.313-7.313
	C-620.708,270.831-617.434,274.105-617.434,278.145z"/>
<path fill="#737373" d="M-754.104,187.743c0,6.91-5.603,12.512-12.513,12.512c-6.911,0-12.513-5.602-12.513-12.512
	c0-6.91,5.602-12.513,12.513-12.513C-759.707,175.23-754.104,180.833-754.104,187.743z"/>
<path fill="#737373" d="M-560.405,368.769c0,6.91-5.602,12.512-12.512,12.512c-6.911,0-12.514-5.602-12.514-12.512
	c0-6.911,5.603-12.514,12.514-12.514S-560.405,361.857-560.405,368.769z"/>
<path fill="#2F2F2F" d="M-465.889,211.794c0,7.332-5.942,13.273-13.273,13.273s-13.274-5.943-13.274-13.273
	s5.943-13.273,13.274-13.273S-465.889,204.464-465.889,211.794z"/>
<path fill="#E6E6E6" d="M-747.27,423.038c0,2.246-1.822,4.067-4.067,4.067c-2.246,0-4.067-1.821-4.067-4.067
	s1.821-4.066,4.067-4.066C-749.092,418.972-747.27,420.792-747.27,423.038z"/>
<path fill="#E6E6E6" d="M-767.596,434.423c0,1.614-1.31,2.924-2.924,2.924c-1.615,0-2.926-1.31-2.926-2.924
	c0-1.615,1.311-2.926,2.926-2.926C-768.906,431.497-767.596,432.807-767.596,434.423z"/>
<path fill="#CFCFCF" d="M-774.415,417.078c2.217,0.359,3.723,2.449,3.363,4.666c-0.36,2.218-2.449,3.722-4.666,3.363
	c-2.217-0.36-3.723-2.449-3.363-4.666C-778.721,418.224-776.631,416.718-774.415,417.078z"/>
<path fill="#CFCFCF" d="M-287.72,294.673c0,2.246-1.822,4.065-4.068,4.065s-4.066-1.819-4.066-4.065s1.82-4.067,4.066-4.067
	S-287.72,292.427-287.72,294.673z"/>
<path fill="#CFCFCF" d="M-267.571,289.472c0,2.246-1.818,4.066-4.064,4.066c-2.246,0-4.068-1.82-4.068-4.066
	c0-2.245,1.822-4.066,4.068-4.066C-269.389,285.406-267.571,287.227-267.571,289.472z"/>
<path fill="#737373" d="M-288.356,444.33c0,3.96-3.209,7.169-7.168,7.169c-3.961,0-7.17-3.209-7.17-7.169
	c0-3.959,3.209-7.169,7.17-7.169C-291.565,437.161-288.356,440.371-288.356,444.33z"/>
<path fill="#505050" d="M-234.331,446.363c0,4.035-3.271,7.306-7.305,7.306c-4.035,0-7.309-3.271-7.309-7.306
	c0-4.034,3.271-7.306,7.309-7.306C-237.603,439.059-234.331,442.329-234.331,446.363z"/>
<path fill="#505050" d="M-267.149,474.956c0,5.649-4.58,10.229-10.227,10.229c-5.65,0-10.23-4.579-10.23-10.229
	c0-5.647,4.58-10.228,10.23-10.228C-271.729,464.729-267.149,469.308-267.149,474.956z"/>
<circle fill="#49494A" cx="-1308.802" cy="-181.079" r="131.236"/>
<circle fill="none" stroke="#405EAA" stroke-miterlimit="10" cx="-1308.803" cy="-181.079" r="187.262"/>
<path fill="#907A41" d="M-1132.144-127.809l0.014-0.007c-0.039-0.155-0.075-0.313-0.12-0.47l-0.001,0.001
	c-0.304-1.107-0.722-2.199-1.267-3.261l-35.979,18.461c4.859-8.398,8.482-17.354,10.925-25.322
	c4.641-15.147,5.984-30.52,4.444-45.344c-0.001,0-0.002,0-0.002,0s0-0.001,0-0.002c-0.575-5.596-1.553-10.996-2.926-16.395
	c0-0.001,0-0.002,0.001-0.003c-4.001-15.698-11.291-30.388-21.33-43.056c-0.001,0-0.003,0-0.003,0c-0.001,0-0.001-0.002-0.001-0.002
	c-9.866-12.449-22.393-22.946-37.059-30.519l-24.668-24.979c0,0-0.663,1.159-1.415,3.005l-0.003-0.002
	c-0.058,0.143-0.115,0.291-0.178,0.442l0.004,0.002c-1.131,2.891-2.355,7.217-1.827,11.481l-0.008-0.001
	c0.02,0.149,0.04,0.298,0.063,0.444c0.058,0.373,0.132,0.745,0.218,1.115h-0.001c0.036,0.166,0.078,0.332,0.124,0.496h0.004
	c0.255,0.936,0.609,1.855,1.088,2.744l0,0c0.001,0.002,0.003,0.004,0.004,0.007c0.052,0.095,0.107,0.189,0.162,0.284
	c0.049,0.084,0.094,0.169,0.145,0.252l0.009,0.002c0.245,0.404,0.509,0.805,0.811,1.192c2.57,3.306,5.589,5.363,8.681,6.594h-0.001
	c0.376,0.149,0.753,0.286,1.127,0.412h0.005c0.034,0.012,0.069,0.026,0.104,0.038c0.003,0.001,0.003,0.005,0,0.006
	c-3.887,0.816-7.544,2.201-9.975,4.498c-2.835,2.677-3.615,6.227-3.463,9.668l-0.003,0.001c0.003,0.082,0.009,0.165,0.014,0.247
	c0.003,0.063,0.006,0.126,0.01,0.189c0.002,0.025,0.002,0.051,0.004,0.076l0.002-0.001c0.08,1.129,0.254,2.241,0.486,3.302l0,0
	c0,0.002,0,0.003,0.001,0.004c0.009,0.041,0.019,0.08,0.027,0.12c0.024,0.112,0.051,0.226,0.076,0.337l0.003-0.001
	c1.006,4.245,2.84,7.547,2.84,7.547l27.942-26.386c0-0.002,0.004-0.002,0.004,0c7.759,8.813,14.107,19.129,18.299,30.211
	c0,0,0.001,0.001,0.002,0.002c-0.001,0-0.001,0-0.001,0c6.771,17.906,7.898,37.785,0.178,56.447
	c-0.531,1.292-1.068,2.524-1.603,3.717l-6.938-24.612c-4.719,1.33-7.465,6.233-6.136,10.95c2.021,7.17,10.466,12.874,12.771,14.318
	c-2.901,6.362-5.901,11.509-9.281,16.539c-0.005,0.007-0.007,0.017-0.012,0.023c-4.063,6.036-8.722,12-14.579,19.999
	c-0.01,0.013-0.02,0.025-0.03,0.038l-18.414-33.551c-0.487,0.268-0.954,0.559-1.404,0.866l-0.001-0.002
	c-0.007,0.005-0.014,0.01-0.021,0.015c-0.054,0.037-0.104,0.076-0.157,0.113c-0.069,0.05-0.14,0.1-0.208,0.149l0.004,0.007
	c-1.731,1.253-3.177,2.781-4.286,4.503l-0.002-0.002c-0.088,0.14-0.172,0.283-0.26,0.425l0.009,0.011
	c-0.409,0.677-0.77,1.379-1.078,2.103l-0.007-0.009c-0.036,0.086-0.07,0.172-0.106,0.258c-0.028,0.07-0.06,0.139-0.087,0.209
	c-0.006,0.015-0.012,0.028-0.018,0.043l0.002,0.003c-1.753,4.504-1.58,9.722,0.928,14.29c4.305,7.846,13.1,13.512,20.247,17.058
	c-5.975,8.747-10.601,18.741-12.142,27.91c0,0.005-0.004,0.011-0.005,0.016c-1.054,6.24-0.67,12.062,1.681,16.88
	c-1.054,3.77,0.335,8.12,3.814,10.854c3.729,2.928,8.688,3.082,12.158,0.694c4.358,0.885,8.885,0.573,13.403-0.687
	c0.127-0.035,0.38-0.108,0.38-0.108l0.021,0.043c1.104,2.075,3.678,2.864,5.753,1.763c1.834-0.973,2.661-3.095,2.07-5.007
	c6.373-3.332,12.514-8.301,17.914-14.181c2.469-2.687,4.747-5.606,6.836-8.655c0.001,0,0.003,0.001,0.004,0.001
	c0.02-0.027,0.035-0.056,0.054-0.082c0.099,0.021,0.194,0.041,0.295,0.063l0.002-0.001c1.564,0.322,3.389,0.65,5.382,0.931
	l-0.004,0.001c0.197,0.027,0.401,0.054,0.604,0.081c0.132,0.018,0.261,0.035,0.395,0.053c0.011,0.001,0.021,0.003,0.031,0.004h0.001
	c7.829,0.996,17.965,1.116,25.723-2.865c3.854-1.979,6.611-5.24,8.053-8.991l0.024-0.009c0.07-0.188,0.14-0.382,0.205-0.574
	l-0.013,0.004c0.277-0.809,0.488-1.637,0.641-2.479l0.018-0.005c0.032-0.172,0.058-0.345,0.084-0.518l-0.014,0.004
	C-1131.532-123.456-1131.619-125.653-1132.144-127.809z"/>
<g>
	<line fill="none" stroke="#231F20" stroke-miterlimit="10" x1="-1308.803" y1="-181.079" x2="-1496.438" y2="-181.079"/>
	<line fill="none" stroke="#231F20" stroke-miterlimit="10" x1="-1121.167" y1="-181.079" x2="-1308.803" y2="-181.079"/>
</g>
<text transform="matrix(1 0 0 1 -673.0039 818.2993)" font-family="'Roboto-Light'" font-size="60">z-index: 0;</text>
<text transform="matrix(1 0 0 1 -640.2358 696.7241)" font-family="'Roboto-Light'" font-size="60">Ripples</text>
<linearGradient id="SVGID_1_" gradientUnits="userSpaceOnUse" x1="-920.3516" y1="-340.4912" x2="-804.4609" y2="-340.4912">
	<stop  offset="0" style="stop-color:#FFFFFF;stop-opacity:0.46"/>
	<stop  offset="0.871" style="stop-color:#424242"/>
</linearGradient>
<path fill="url(#SVGID_1_)" d="M-804.939-279.718l0.014-0.007c-0.039-0.155-0.075-0.313-0.12-0.47l-0.001,0.001
	c-0.304-1.107-0.722-2.199-1.267-3.261l-35.979,18.461c4.859-8.398,8.482-17.354,10.925-25.322
	c4.641-15.147,5.984-30.52,4.444-45.344c-0.001,0-0.002,0-0.002,0s0-0.001,0-0.002c-0.575-5.596-1.553-10.996-2.926-16.395
	c0-0.001,0-0.002,0.001-0.003c-4.001-15.698-11.291-30.388-21.33-43.056c-0.001,0-0.003,0-0.003,0c-0.001,0-0.001-0.002-0.001-0.002
	c-9.866-12.449-22.393-22.946-37.059-30.519l-24.668-24.979c0,0-0.663,1.159-1.415,3.005l-0.003-0.002
	c-0.058,0.143-0.115,0.291-0.178,0.442l0.004,0.002c-1.131,2.891-2.355,7.217-1.827,11.481l-0.008-0.001
	c0.02,0.149,0.04,0.298,0.063,0.444c0.058,0.373,0.132,0.745,0.218,1.115h-0.001c0.036,0.166,0.078,0.332,0.124,0.496h0.004
	c0.255,0.936,0.609,1.855,1.088,2.744l0,0c0.001,0.002,0.003,0.004,0.004,0.007c0.052,0.095,0.107,0.189,0.162,0.284
	c0.049,0.084,0.094,0.169,0.145,0.252l0.009,0.002c0.245,0.404,0.509,0.805,0.811,1.192c2.57,3.306,5.589,5.363,8.681,6.594h-0.001
	c0.376,0.149,0.753,0.286,1.127,0.412h0.005c0.034,0.012,0.069,0.026,0.104,0.038c0.003,0.001,0.003,0.005,0,0.006
	c-3.887,0.816-7.544,2.201-9.975,4.498c-2.835,2.677-3.615,6.227-3.463,9.668l-0.003,0.001c0.003,0.082,0.009,0.165,0.014,0.247
	c0.003,0.063,0.006,0.126,0.01,0.189c0.002,0.025,0.002,0.051,0.004,0.076l0.002-0.001c0.08,1.129,0.254,2.241,0.486,3.302l0,0
	c0,0.002,0,0.003,0.001,0.004c0.009,0.041,0.019,0.08,0.027,0.12c0.024,0.112,0.051,0.226,0.076,0.337l0.003-0.001
	c1.006,4.245,2.84,7.547,2.84,7.547l27.942-26.386c0-0.002,0.004-0.002,0.004,0c7.759,8.813,14.107,19.129,18.299,30.211
	c0,0,0.001,0.001,0.002,0.002c-0.001,0-0.001,0-0.001,0c6.771,17.906,7.898,37.785,0.178,56.447
	c-0.531,1.292-1.068,2.524-1.603,3.717l-6.938-24.612c-4.719,1.33-7.465,6.233-6.136,10.95c2.021,7.17,10.466,12.874,12.771,14.318
	c-2.901,6.362-5.901,11.509-9.281,16.539c-0.005,0.007-0.007,0.017-0.012,0.023c-4.063,6.036-8.722,12-14.579,19.999
	c-0.01,0.013-0.02,0.025-0.03,0.038l-18.414-33.551c-0.487,0.268-0.954,0.559-1.404,0.866l-0.001-0.002
	c-0.007,0.005-0.014,0.01-0.021,0.015c-0.054,0.037-0.104,0.076-0.157,0.113c-0.069,0.05-0.14,0.1-0.208,0.149l0.004,0.007
	c-1.731,1.253-3.177,2.781-4.286,4.503l-0.002-0.002c-0.088,0.14-0.172,0.283-0.26,0.425l0.009,0.011
	c-0.409,0.677-0.77,1.379-1.078,2.103l-0.007-0.009c-0.036,0.086-0.07,0.172-0.106,0.258c-0.028,0.07-0.06,0.139-0.087,0.209
	c-0.006,0.015-0.012,0.028-0.018,0.043l0.002,0.003c-1.753,4.504-1.58,9.722,0.928,14.29c4.305,7.846,13.1,13.512,20.247,17.058
	c-5.975,8.747-10.601,18.741-12.142,27.91c0,0.005-0.004,0.011-0.005,0.016c-1.054,6.24-0.67,12.062,1.681,16.88
	c-1.054,3.77,0.335,8.12,3.814,10.854c3.729,2.928,8.688,3.082,12.158,0.694c4.358,0.885,8.885,0.573,13.403-0.687
	c0.127-0.035,0.38-0.108,0.38-0.108l0.021,0.043c1.104,2.075,3.678,2.864,5.753,1.763c1.834-0.973,2.661-3.095,2.07-5.007
	c6.373-3.332,12.514-8.301,17.914-14.181c2.469-2.687,4.747-5.606,6.836-8.655c0.001,0,0.003,0.001,0.004,0.001
	c0.02-0.027,0.035-0.056,0.054-0.082c0.099,0.021,0.194,0.041,0.295,0.063l0.002-0.001c1.564,0.322,3.389,0.65,5.382,0.931
	l-0.004,0.001c0.197,0.027,0.401,0.054,0.604,0.081c0.132,0.018,0.261,0.035,0.395,0.053c0.011,0.001,0.021,0.003,0.031,0.004h0.001
	c7.829,0.996,17.965,1.116,25.723-2.865c3.854-1.979,6.611-5.24,8.053-8.991l0.024-0.009c0.07-0.188,0.14-0.382,0.205-0.574
	l-0.013,0.004c0.277-0.809,0.488-1.637,0.641-2.479l0.018-0.005c0.032-0.172,0.058-0.345,0.084-0.518l-0.014,0.004
	C-804.328-275.365-804.415-277.562-804.939-279.718z"/>
<linearGradient id="SVGID_2_" gradientUnits="userSpaceOnUse" x1="-735.5947" y1="-335.6821" x2="-674.04" y2="-335.6821">
	<stop  offset="0" style="stop-color:#FFFFFF;stop-opacity:0.46"/>
	<stop  offset="0.9839" style="stop-color:#424242"/>
</linearGradient>
<path fill="url(#SVGID_2_)" d="M-697.349-307.354c-7.47,24.532-21.157,45.02-38.245,59.722c-0.001,0.002-0.001,0.007,0,0.008
	c11.557,6.043,26.052-2.66,37.204-16.225c8.983-10.93,15.254-25.584,18.946-37.709c15.349-50.402-3.085-102.378-41.556-124.132
	c-0.014-0.008-0.016-0.006-0.004,0.007C-694.342-397.306-683.824-351.767-697.349-307.354z"/>
</svg>
