<svg width="480" height="480" xmlns="http://www.w3.org/2000/svg" xmlns:xlink="http://www.w3.org/1999/xlink" xml:space="preserve" overflow="hidden"><g><path d="M208.718 261.407C208.081 263.537 207.683 265.681 207.503 267.812 207.477 268.113 207.462 268.413 207.445 268.714 207.216 272.841 207.809 276.9 209.115 280.69 209.221 280.998 209.33 281.305 209.445 281.609 210.012 283.101 210.691 284.547 211.475 285.935 211.661 286.264 211.849 286.592 212.046 286.915 215.961 293.309 222.152 298.341 229.901 300.657 245.471 305.312 263.999 301.645 278.003 297.156 278.628 296.956 279.242 296.754 279.847 296.551 283.402 295.361 286.624 294.139 289.379 293.017 289.824 292.836 290.255 292.658 290.675 292.483 292.524 291.711 294.13 291 295.437 290.4 296.016 290.134 296.534 289.892 296.993 289.674 298.52 288.948 299.365 288.506 299.365 288.506L208.718 261.407Z" fill="#737373"/><path d="M279.847 296.551 211.475 285.935C211.661 286.264 211.849 286.592 212.046 286.915L278.003 297.156C278.628 296.955 279.242 296.754 279.847 296.551Z" fill="#505050"/><path d="M296.993 289.674 272.902 287.211 207.502 267.812C207.476 268.113 207.461 268.413 207.444 268.714L268.071 286.697C268.128 286.714 268.126 286.723 268.067 286.717L209.114 280.69C209.22 280.998 209.329 281.305 209.444 281.609L272.727 288.079 289.377 293.018C289.822 292.837 290.253 292.659 290.673 292.484L277.557 288.594C277.5 288.577 277.502 288.568 277.561 288.574L295.435 290.401C296.017 290.134 296.534 289.892 296.993 289.674Z" fill="#505050"/><path d="M427.1 204.505C426.949 204.159 426.787 203.817 426.623 203.476 425.932 202.04 425.136 200.655 424.235 199.337 424.051 199.068 423.862 198.804 423.67 198.541 421.308 195.301 418.318 192.494 414.801 190.321 414.545 190.163 414.29 190.004 414.029 189.852 412.178 188.781 410.192 187.881 408.08 187.185L378.461 277.041C378.461 277.041 379.307 276.601 380.775 275.763 381.216 275.511 381.711 275.225 382.26 274.903 383.5 274.173 385.002 273.263 386.694 272.187 387.078 271.943 387.47 271.691 387.873 271.43 390.369 269.812 393.214 267.868 396.223 265.632 396.736 265.251 397.253 264.863 397.774 264.465 409.465 255.545 423.07 242.444 428.158 227.01 430.692 219.33 430.106 211.373 427.1 204.505Z" fill="#737373"/><path d="M423.671 198.541 394.896 250.345C394.867 250.396 394.859 250.393 394.878 250.337L414.803 190.321C414.547 190.163 414.292 190.004 414.031 189.852L392.538 254.591 380.778 275.764C381.219 275.512 381.714 275.226 382.263 274.904L390.99 259.192C391.019 259.141 391.027 259.144 391.008 259.2L386.696 272.188C387.08 271.944 387.472 271.692 387.875 271.431L393.348 254.946 424.236 199.338C424.052 199.068 423.863 198.804 423.671 198.541Z" fill="#505050"/><path d="M426.626 203.476 396.397 265.286C396.392 265.296 396.404 265.305 396.412 265.299 396.912 264.928 397.414 264.55 397.922 264.163L427.1 204.5C426.95 204.155 426.789 203.815 426.626 203.476Z" fill="#505050"/><path d="M361.986 370.149C361.866 369.088 361.649 368.061 361.342 367.074 359.986 362.699 372.218 351.319 375.684 326.562 379.417 299.895 379.061 258.494 358.084 218.295 319.138 143.659 228.484 92.695 135.717 102.962 127.895 103.828 113.45 106.008 112.548 106.008L50.246 105.174C50.246 105.174 57.334 132.068 77.269 134.702 86.028 135.859 93.462 134.149 99.63 131.082 99.647 131.073 99.653 131.08 99.642 131.096 95.558 137.261 92.521 143.876 92.298 150.102 91.579 170.186 120.408 178.62 120.408 178.62L122.673 106.869C122.673 106.863 122.678 106.859 122.684 106.859 179.094 111.463 235.87 141.734 258.547 197.486 258.559 197.514 258.551 197.519 258.53 197.497L236.157 173.558C229.484 179.795 229.13 190.261 235.367 196.934 242.522 204.59 255.027 207.73 262.901 208.992 271.745 234.343 273.157 253.312 277.912 285.564 281.164 322.087 297.31 362.963 323.398 373.286 323.414 373.691 323.422 374.096 323.469 374.505 324.584 384.367 331.568 384.583 342.203 383.38 352.838 382.177 363.102 380.011 361.986 370.149Z" fill="#737373"/><path d="M92.577 105.74 65.245 129.454C65.479 129.64 65.709 129.83 65.95 130.009L93.9 105.758 92.577 105.74Z" fill="#505050"/><path d="M77.531 105.539 52.301 111.009C52.413 111.279 52.528 111.553 52.649 111.836L81.36 105.611C81.372 105.608 81.37 105.591 81.358 105.59L77.531 105.539Z" fill="#505050"/><path d="M121.272 105.889 97.563 131.942C97.546 131.961 97.551 131.968 97.575 131.958 98.251 131.672 98.913 131.367 99.561 131.049L122.588 105.889 121.272 105.889Z" fill="#505050"/><path d="M102.217 105.869 67.648 131.164C67.917 131.334 68.19 131.497 68.466 131.657L103.681 105.889 102.217 105.869Z" fill="#505050"/><path d="M116.214 105.91 73.501 133.875C73.874 133.99 74.258 134.085 74.641 134.182L117.852 105.886 116.214 105.91Z" fill="#505050"/><path d="M327.143 231.061C350.825 276.445 358.063 326.048 351.026 373.077 351.025 373.085 351.032 373.091 351.039 373.088 379.421 363.206 390.964 328.483 389.69 292.348 388.664 263.241 377.559 233.289 365.856 210.86 317.192 117.602 209.303 75.316 112.37 106.013 199.216 102.976 284.26 148.881 327.143 231.061Z" fill="#CDCDCD"/><path d="M324.811 360.987C323.938 360.987 323.051 360.856 322.176 360.581 317.542 359.125 314.957 354.17 316.412 349.536L318.094 350.064C316.929 353.771 318.997 357.735 322.703 358.9 326.413 360.067 330.375 357.995 331.54 354.289L333.222 354.817C332.04 358.576 328.557 360.987 324.811 360.987Z" fill="#505050"/><path d="M310.061 234.945C311.691 237.613 310.85 241.097 308.182 242.727 305.514 244.357 302.03 243.516 300.4 240.848 298.769 238.181 299.611 234.696 302.278 233.066 304.946 231.436 308.43 232.277 310.061 234.945Z" fill="#505050"/><path d="M321.471 267.301C323.101 269.969 322.26 273.453 319.592 275.083 316.924 276.713 313.44 275.872 311.81 273.204 310.18 270.536 311.021 267.052 313.689 265.422 316.357 263.792 319.841 264.633 321.471 267.301Z" fill="#505050"/><path d="M336.399 283.359C338.029 286.027 337.188 289.511 334.52 291.141 331.852 292.771 328.368 291.93 326.738 289.262 325.108 286.594 325.949 283.11 328.617 281.48 331.285 279.85 334.769 280.691 336.399 283.359Z" fill="#505050"/><path d="M325.807 247.646C327.669 250.695 326.708 254.676 323.66 256.539 320.611 258.402 316.63 257.441 314.767 254.392 312.904 251.343 313.865 247.362 316.914 245.499 319.962 243.636 323.944 244.597 325.807 247.646Z" fill="#505050"/><path d="M311.032 224.035C311.032 225.738 309.652 227.118 307.949 227.118 306.246 227.118 304.866 225.738 304.866 224.035 304.866 222.332 306.246 220.952 307.949 220.952 309.652 220.952 311.032 222.332 311.032 224.035Z" fill="#505050"/><path d="M311.21 260.771C311.21 262.96 309.435 264.735 307.246 264.735 305.057 264.735 303.282 262.96 303.282 260.771 303.282 258.582 305.057 256.807 307.246 256.807 309.435 256.807 311.21 258.582 311.21 260.771Z" fill="#505050"/><path d="M364.036 261.636C366.344 265.426 365.143 270.37 361.353 272.679 357.563 274.987 352.619 273.786 350.31 269.996 348.001 266.206 349.202 261.262 352.993 258.953 356.783 256.644 361.727 257.845 364.036 261.636Z" fill="#E1E1E1"/><path d="M350.649 228.363C352.958 232.153 351.757 237.097 347.967 239.406 344.177 241.715 339.233 240.514 336.924 236.724 334.615 232.933 335.816 227.989 339.606 225.681 343.396 223.372 348.341 224.573 350.649 228.363Z" fill="#E1E1E1"/><path d="M327.817 186.38C329.407 189.05 328.531 192.503 325.861 194.093 323.191 195.683 319.737 194.807 318.147 192.137 316.558 189.467 317.433 186.014 320.103 184.424 322.774 182.834 326.227 183.71 327.817 186.38Z" fill="#E1E1E1"/><path d="M363.116 238.678C363.116 240.75 361.436 242.43 359.364 242.43 357.292 242.43 355.612 240.75 355.612 238.678 355.612 236.606 357.292 234.926 359.364 234.926 361.436 234.926 363.116 236.606 363.116 238.678Z" fill="#E1E1E1"/><path d="M350.282 209.161C351.519 211.238 350.838 213.924 348.761 215.161 346.684 216.397 343.998 215.716 342.761 213.639 341.524 211.562 342.205 208.876 344.282 207.639 346.359 206.403 349.046 207.084 350.282 209.161Z" fill="#E1E1E1"/></g></svg>