<svg width="624" height="624" xmlns="http://www.w3.org/2000/svg" xmlns:xlink="http://www.w3.org/1999/xlink" xml:space="preserve" overflow="hidden"><g><path d="M226.073 376.001C190.97 389.937 179.095 408.966 175.81 415.821 174.634 416.942 173.488 418.098 172.385 419.294 168.894 423.078 165.798 427.234 163.132 431.644 160.462 436.053 158.216 440.708 156.318 445.486 154.42 450.266 152.862 455.168 151.539 460.121L153.501 460.611C154.801 455.722 156.331 450.895 158.19 446.202 160.049 441.511 162.242 436.955 164.844 432.65 167.442 428.345 170.452 424.298 173.848 420.61 174.405 420.005 174.975 419.413 175.552 418.827 180.011 420.893 202.426 429.447 241.182 414.061 284.723 396.775 312.466 363.732 312.466 363.732 312.466 363.732 269.614 358.715 226.073 376.001Z" fill="#D1D1D1"/><path d="M422.917 292.939C390.638 270.117 389.225 247.958 389.225 247.958 389.225 247.958 410.587 241.902 442.866 264.724 475.145 287.546 491.338 320.155 491.338 320.155 491.338 320.155 455.197 315.762 422.917 292.939Z" fill="#F1F1F1"/><path d="M418.475 297.959C401.71 313.443 308.674 342.521 274.149 313.888 272.752 312.729 271.012 312.083 269.197 312.112 258.493 312.286 247.779 308.833 239.119 302.53 239.657 301.824 237.901 304.104 240.324 300.945 242.752 297.79 241.001 300.073 241.545 299.37 249.245 305.629 258.97 309.332 268.886 309.779 270.568 309.855 272.171 309.105 273.25 307.813 302.468 272.841 399.269 285.765 418.475 297.959Z" fill="#E5E5E5"/><path d="M258.049 163.725C239.065 176.39 188.975 260.01 208.712 300.287 209.511 301.917 209.73 303.761 209.276 305.518 206.595 315.882 207.44 327.107 211.535 337.004 212.348 336.647 209.72 337.818 213.359 336.205 216.996 334.585 214.365 335.751 215.176 335.387 210.898 326.433 209.58 316.111 211.471 306.366 211.792 304.714 212.896 303.332 214.406 302.585 255.256 282.387 265.398 185.255 258.049 163.725Z" fill="#D1D1D1"/><path d="M150.831 345.162C165.758 389.568 151.617 411.758 151.617 411.758 151.617 411.758 126.943 402.616 112.015 358.21 97.0872 313.804 104.394 271.283 104.394 271.283 104.394 271.283 135.903 300.756 150.831 345.162Z" fill="#D1D1D1"/><path d="M217.862 283.902 216.982 283.483C225.218 266.193 232.161 248.019 237.619 229.468L238.555 229.742C233.082 248.344 226.12 266.565 217.862 283.902Z" fill="#E6E6E6"/><path d="M142.88 386.362C142.789 385.938 133.513 343.47 117.406 302.989L118.312 302.629C134.449 343.188 143.742 385.731 143.834 386.156L142.88 386.362Z" fill="#E6E6E6"/><path d="M239.112 446.53C240.402 455.185 230.115 463.892 216.134 465.976 202.153 468.061 189.773 462.735 188.482 454.08 187.191 445.426 197.479 436.719 211.46 434.634 225.441 432.549 237.821 437.875 239.112 446.53Z" fill="#0E9DD4"/><path d="M389.753 257.329C400.212 262.679 406.002 272.271 402.686 278.754 399.37 285.238 388.203 286.156 377.744 280.807 367.285 275.457 361.495 265.864 364.811 259.381 368.128 252.898 379.294 251.979 389.753 257.329Z" fill="#0E9DD4"/><path d="M171.771 435.165 319.025 420.863C319.025 420.863 279.246 404.155 232.617 408.684 196.007 412.24 179.224 426.549 173.701 432.535 136.078 443.244 128.89 482.431 139.955 515.956L141.794 515.075C131.371 483.4 137.439 446.557 171.771 435.165Z" fill="#737373"/><path d="M467.686 190.568C435.264 211.06 431.89 232.43 431.718 233.685 413.756 233.802 395.793 235.54 378.132 238.924 362.273 241.959 346.661 246.325 331.508 251.95 331.504 251.952 331.499 251.948 331.5 251.943 332.522 245.9 334.683 240.778 338.088 235.476 338.693 234.534 339.717 233.936 340.836 233.895 386.159 232.205 438.771 150.897 441.939 127.596 418.504 130.961 336.056 183.351 337.244 229.985 337.274 231.171 336.901 232.332 336.193 233.283 331.751 239.249 328.711 246.256 327.278 253.558 325.844 254.116 324.414 254.681 322.989 255.261 318.209 257.206 313.483 259.284 308.812 261.482 308.808 261.484 308.805 261.481 308.803 261.477 302.325 233.513 300.08 197.492 273.164 181.23L272.369 183.011C291.839 195.803 297.016 219.322 300.864 241.911 300.867 241.928 300.862 241.93 300.852 241.915 297.524 236.46 293.167 231.63 288.021 227.808L286.794 229.323C294.12 235.115 299.647 243.073 302.54 251.917 302.997 254.612 303.464 257.266 303.962 259.86 304.372 261.986 303.321 264.13 301.388 265.108 274.145 278.886 249.038 296.943 227.28 318.444 212.839 332.702 200.189 348.611 189.091 365.602 189.088 365.607 189.081 365.606 189.08 365.6 186.042 355.935 186.221 345.314 189.582 335.723L187.741 335.079C183.257 345.992 182.829 358.439 186.489 369.644 182.565 375.848 178.842 382.189 175.309 388.64 175.306 388.645 175.299 388.644 175.297 388.639 162.892 356.601 171.642 239.961 169.161 210.601 155.673 227.903 135.092 322.874 166.704 355.262 167.68 356.261 168.254 357.585 168.294 358.981 168.564 368.399 169.249 377.695 171.186 387.34 172.028 391.53 171.422 395.879 169.492 399.693 167.167 404.288 164.932 408.929 162.785 413.609 155.156 430.238 148.167 458.482 146.067 467.354 145.9 468.062 144.891 468.065 144.721 467.357 143.197 461.002 140.062 445.218 144.251 437.18 144.251 437.18 144.39 436.38 143.656 436.093 142.922 435.805 142.411 436.535 142.411 436.535 140.882 440.635 139.938 444.943 139.566 449.304 139.565 449.311 139.556 449.312 139.554 449.305 135.692 437.083 129.912 425.781 119.508 416.903 118.599 416.008 117.25 417.478 118.163 418.315 122.955 422.905 127.024 428.191 130.234 433.935 137.639 447.252 139.718 463.91 142.262 479.503 142.737 482.417 142.775 485.385 142.379 488.311 140.664 500.961 139.764 513.727 139.679 526.501L149.429 526.501C149.178 507.777 150.729 489.011 154.118 470.553L154.126 470.508C154.679 467.496 156.49 464.862 159.106 463.269 161.281 461.943 163.542 460.752 165.84 459.672 174.808 455.521 184.732 453.498 194.596 453.46 195.896 453.515 195.904 451.494 194.628 451.51 183.071 451.239 171.265 453.671 160.901 458.897 158.926 459.894 156.682 458.12 157.195 455.968 160.392 442.536 164.566 429.322 169.688 416.47 179.54 391.704 192.928 368.302 209.276 347.117 218.08 342.791 228.182 341.435 238.008 340.564 241.282 340.273 244.546 341.301 247.031 343.451 281.361 373.153 372.673 356.533 392.348 342.741 392.348 342.741 354.987 321.161 308.16 319.788 275.905 318.841 256.98 328.342 248.323 334.349 244.917 336.712 240.932 338.101 236.794 338.33 228.916 338.764 220.893 339.537 213.421 341.89 213.415 341.892 213.41 341.885 213.414 341.88 218.952 335.035 224.802 328.433 230.951 322.115 257.336 294.98 289.15 272.991 324.105 257.952 327.554 256.466 331.035 255.05 334.541 253.699 335.886 253.423 337.348 253.22 338.772 253.08 340.237 252.936 341.712 252.849 343.188 252.823 346.14 252.778 349.103 252.943 352.021 253.408 354.939 253.862 357.822 254.588 360.58 255.653 363.349 256.692 365.969 258.112 368.395 259.815L368.402 259.82C368.615 259.969 368.909 259.925 369.069 259.717 369.232 259.503 369.192 259.197 368.978 259.033 366.554 257.182 363.903 255.605 361.083 254.415 358.273 253.198 355.319 252.327 352.317 251.735 349.918 251.254 347.485 250.97 345.043 250.836 344.438 250.802 343.321 250.749 342.564 250.76 342.557 250.76 342.556 250.75 342.562 250.748 354.29 246.624 366.293 243.249 378.477 240.665 396.787 236.777 415.498 234.675 434.264 234.34 440.807 235.49 459.551 236.592 486.149 219.781 519.566 198.66 537.426 166.934 537.426 166.934 537.426 166.934 501.104 169.448 467.686 190.568Z" fill="#737373"/><path d="M331.514 342.245C291.687 342.245 256.177 340.7 255.748 340.681L255.791 339.707C256.31 339.73 308.306 341.992 357.075 341.033L357.094 342.008C348.569 342.176 339.944 342.245 331.514 342.245Z" fill="#505050"/><path d="M345.531 225.89 344.746 225.311C370.254 190.757 413.8 151.821 414.237 151.432L414.885 152.16C414.449 152.548 370.977 191.418 345.531 225.89Z" fill="#505050"/><path d="M447.768 225.95 447.09 225.25C447.292 225.054 467.809 205.348 505.92 185.914L506.363 186.783C468.393 206.145 447.97 225.754 447.768 225.95Z" fill="#505050"/><path d="M402.282 227.492C383.468 244.791 358.22 248.207 332.952 247.23L332.851 248.654C357.571 249.609 382.107 246.577 401.095 230.393 406.688 229.941 430.002 226.167 456.069 194.792 486.006 158.757 494.525 116.462 494.525 116.462L402.282 227.492Z" fill="#D1D1D1"/><path d="M406.245 278.474C369.171 264.957 347.334 272.457 341.369 275.158 329.175 266.028 313.156 269.304 306.344 271.335 336.933 250.844 318.337 97.5 318.337 97.5 318.337 97.5 297.862 135.478 297.862 182.325 297.862 222.802 313.145 240.642 317.302 244.746 315.027 267.929 296.302 282.491 270.245 283.793L270.278 285.22C282.168 284.543 294.207 280.985 303.702 273.61 308.912 271.957 327.058 267.238 339.879 276.49 341.33 280.034 351.819 302.217 392.218 316.946 436.231 332.994 478.925 326.766 478.925 326.766 478.925 326.766 450.258 294.521 406.245 278.474Z" fill="#D1D1D1"/><path d="M435.501 312.869C391.358 302.986 357.189 284.307 356.849 284.12L357.32 283.266C357.659 283.453 391.714 302.067 435.715 311.917L435.501 312.869Z" fill="#E6E6E6"/><path d="M200.224 319.719C200.224 331.027 194.549 340.194 187.549 340.194 180.549 340.194 174.874 331.027 174.874 319.719 174.874 308.411 180.549 299.244 187.549 299.244 194.549 299.244 200.224 308.411 200.224 319.719Z" fill="#0E9DD4"/><path d="M282.569 209.495C289.343 216.01 291.561 224.695 287.523 228.894 283.484 233.093 274.719 231.216 267.945 224.702 261.171 218.187 258.954 209.502 262.992 205.303 267.03 201.104 275.795 202.981 282.569 209.495Z" fill="#505050"/><path d="M156.032 416.756C156.032 428.064 150.357 437.231 143.357 437.231 136.357 437.231 130.682 428.064 130.682 416.756 130.682 405.448 136.357 396.281 143.357 396.281 150.357 396.281 156.032 405.448 156.032 416.756Z" fill="#505050"/><path d="M272.001 157.64C281.48 168.126 283.902 181.383 277.411 187.25 270.92 193.118 257.974 189.375 248.495 178.89 239.016 168.404 236.594 155.147 243.085 149.28 249.576 143.412 262.522 147.155 272.001 157.64Z" fill="#0E9DD4"/><path d="M119.062 394.389C129.057 404.384 132.144 417.502 125.957 423.689 119.769 429.877 106.651 426.79 96.6561 416.795 86.6611 406.8 83.5745 393.682 89.7618 387.495 95.9491 381.307 109.067 384.394 119.062 394.389Z" fill="#505050"/><path d="M270.075 253.855C272.972 277.347 244.046 370.612 198.749 381.726 197.587 382.012 196.552 382.671 195.812 383.612 191.057 389.671 184.816 394.584 177.858 397.89 177.856 397.891 177.854 397.886 177.851 397.887 177.347 398.111 176.055 397.803 175.592 396.941 175.116 396.052 175.614 394.709 176.266 394.243 176.269 394.241 176.266 394.237 176.27 394.236 182.718 391.581 188.577 387.491 193.249 382.304 193.97 381.503 194.265 380.403 194.02 379.354 183.691 335.18 248.41 263.026 270.075 253.855Z" fill="#737373"/><path d="M201.52 373.636 200.76 373.025C221.608 347.105 234.738 323.246 248.041 295.396L248.921 295.816C235.589 323.728 222.427 347.643 201.52 373.636Z" fill="#505050"/></g></svg>