<svg width="480" height="480" xmlns="http://www.w3.org/2000/svg" xmlns:xlink="http://www.w3.org/1999/xlink" xml:space="preserve" overflow="hidden"><g><path d="M310.896 184.074C325.705 178.959 340.334 173.287 354.74 167.038 382.83 136.107 392.684 99.578 392.684 99.578 392.684 99.578 353.697 111.472 323.112 143.068 305.879 160.871 296.325 174.78 292.66 184.893 285.412 188.005 278.185 191.173 270.995 194.436 254.293 202.01 237.767 210.082 221.636 218.94 221.629 218.944 221.621 218.939 221.622 218.931 221.951 213.855 222.137 208.326 222.154 202.308 222.285 158.335 202.652 122.61 202.652 122.61 202.652 122.61 182.807 158.18 182.676 202.153 182.628 218.272 183.782 230.939 185.796 240.544 169.044 251.686 153.024 263.987 138.023 277.44 118.42 294.996 100.506 314.374 84.082 334.849L84.04 334.902C82.73 336.562 82.563 338.901 83.738 340.659 85.773 343.705 89.884 343.667 91.921 341.058 94.082 338.29 96.275 335.547 98.488 332.823 108.975 334.688 126.541 332.238 152.303 323.378 193.886 309.076 221.19 278.811 221.19 278.811 221.19 278.811 182.964 272.842 143.597 284.521 143.575 284.528 143.57 284.52 143.587 284.504 153.183 275.612 163.252 267.237 173.682 259.328 182.453 252.672 191.508 246.384 200.785 240.42 210.223 245.261 229.846 247.81 258.636 244.914 302.389 240.514 335.898 217.305 335.898 217.305 335.898 217.305 304.143 203.689 264.947 204.971 264.936 204.971 264.932 204.957 264.942 204.952 267.915 203.517 270.896 202.098 273.884 200.695 286.101 194.937 298.471 189.463 310.896 184.074Z" fill="#D1D1D1"/><path d="M204.612 222.738C203.533 222.738 202.643 221.878 202.614 220.792L201.199 168.466C201.169 167.362 202.04 166.443 203.144 166.413 203.162 166.412 203.18 166.412 203.199 166.412 204.278 166.412 205.168 167.272 205.197 168.358L206.612 220.684C206.642 221.788 205.771 222.707 204.667 222.737 204.649 222.738 204.631 222.738 204.612 222.738Z" fill="#E5E5E5"/><path d="M240.735 229.644C239.916 229.644 239.147 229.137 238.853 228.321 238.479 227.282 239.018 226.136 240.057 225.762 241.518 225.236 276.183 212.911 307.383 215.753 308.484 215.853 309.294 216.826 309.195 217.926 309.094 219.026 308.116 219.839 307.022 219.737 276.698 216.982 241.762 229.401 241.413 229.527 241.189 229.606 240.96 229.644 240.735 229.644Z" fill="#E5E5E5"/><path d="M334.073 164.59C333.561 164.59 333.05 164.395 332.659 164.004 331.878 163.223 331.878 161.957 332.659 161.176L353.872 139.963C354.653 139.182 355.919 139.182 356.7 139.963 357.481 140.744 357.481 142.01 356.7 142.791L335.487 164.004C335.097 164.395 334.585 164.59 334.073 164.59Z" fill="#E5E5E5"/><path d="M270.716 167.919C270.716 172.761 266.79 176.687 261.948 176.687 257.106 176.687 253.18 172.761 253.18 167.919 253.18 163.077 257.105 159.151 261.948 159.151 266.79 159.151 270.716 163.077 270.716 167.919Z" fill="#0E9DD4"/><path d="M250.917 284.54C250.917 289.382 246.991 293.308 242.149 293.308 237.307 293.308 233.381 289.382 233.381 284.54 233.381 279.698 237.307 275.772 242.149 275.772 246.991 275.772 250.917 279.697 250.917 284.54Z" fill="#0E9DD4"/><path d="M286.273 288.127C286.273 292.969 282.347 296.895 277.505 296.895 272.663 296.895 268.737 292.969 268.737 288.127 268.737 283.285 272.663 279.359 277.505 279.359 282.347 279.359 286.273 283.284 286.273 288.127Z" fill="#0E9DD4"/><path d="M272.13 263.327C272.13 268.169 268.204 272.095 263.362 272.095 258.52 272.095 254.594 268.169 254.594 263.327 254.594 258.485 258.52 254.559 263.362 254.559 268.204 254.559 272.13 258.484 272.13 263.327Z" fill="#0E9DD4"/><path d="M222.718 326.053 168.61 326.053C167.506 326.053 166.61 326.949 166.61 328.053 166.61 329.157 167.506 330.053 168.61 330.053L175.777 330.053 195.637 349.913C196.028 350.304 196.539 350.499 197.051 350.499 197.563 350.499 198.074 350.304 198.465 349.913 199.246 349.132 199.246 347.866 198.465 347.085L181.433 330.053 222.717 330.053C223.821 330.053 224.717 329.157 224.717 328.053 224.717 326.949 223.822 326.053 222.718 326.053Z" fill="#D1D1D1"/><path d="M256.292 313.573C253.294 310.576 249.58 308.739 245.701 308.043 239.474 306.925 224.2 313.5 224.2 327.6 224.2 340.3 238.479 348.212 244.282 347.593 244.282 347.592 244.283 347.592 244.283 347.591 244.283 347.592 244.283 347.592 244.283 347.593 248.669 347.125 252.93 345.22 256.292 341.858 264.102 334.047 264.102 321.384 256.292 313.573Z" fill="#D1D1D1"/><path d="M228.007 313.573C226.293 315.288 224.978 317.244 224.016 319.323 223 324.6 224.714 329.72 228.9 330.5 234.8 331.6 238.3 328.4 240.872 325.7 245.383 320.785 246.999 314.176 245.701 308.043 239.474 306.925 232.82 308.761 228.007 313.573Z" fill="#505050"/><path d="M244.282 347.593C247.587 340.449 246.45 331.779 240.871 325.701 240.677 325.487 240.498 325.265 240.291 325.058 235.843 320.61 229.819 318.705 224.016 319.323 222.189 323.271 221.71 327.682 222.598 331.873 223.371 335.532 225.165 339.017 228.007 341.858 232.456 346.307 238.479 348.212 244.282 347.593Z" fill="#737373"/><path d="M227.452 350.601C223.84 345.407 207.9 339.5 198.1 349.3 189.6 357.8 193.941 373.898 198.483 377.564 198.483 377.564 198.483 377.564 198.484 377.564 201.916 380.334 206.276 382 211.03 382 222.076 382 231.03 373.046 231.03 362 231.03 357.761 229.703 353.836 227.452 350.601Z" fill="#0E9DD4"/><path d="M211.03 342C208.605 342 206.292 342.454 204.142 343.244 198.9 346.4 198.239 350.939 199.8 354.9 201.1 358.2 207.7 359.9 211.552 359.672 218.217 359.387 224.034 355.856 227.452 350.601 223.84 345.407 217.837 342 211.03 342Z" fill="#505050"/><path d="M198.483 377.564C205.871 374.848 211.198 367.914 211.552 359.672 211.564 359.383 211.596 359.1 211.596 358.807 211.596 352.515 208.684 346.91 204.142 343.244 200.06 344.744 196.602 347.524 194.266 351.114 192.227 354.248 191.03 357.982 191.031 361.999 191.03 368.292 193.941 373.898 198.483 377.564Z" fill="#737373"/><path d="M129.949 252.231C129.949 257.073 126.023 260.999 121.181 260.999 116.339 260.999 112.413 257.073 112.413 252.231 112.413 247.389 116.339 243.463 121.181 243.463 126.023 243.463 129.949 247.389 129.949 252.231Z" fill="#0E9DD4"/><path d="M149.886 171.494C149.804 171.569 146.908 174.244 144.214 178.46 141.539 174.233 138.654 171.545 138.573 171.469 138.569 171.465 138.573 171.465 138.569 171.469 138.487 171.544 135.591 174.219 132.898 178.435 130.223 174.208 127.338 171.52 127.257 171.445 127.253 171.441 127.257 171.442 127.253 171.445 127.089 171.596 117.03 180.884 117.005 192.346 116.98 203.902 121.529 213.281 127.165 213.293 129.258 213.298 136.387 213.313 138.481 213.318 140.574 213.323 147.703 213.338 149.797 213.342 155.433 213.354 160.023 203.996 160.047 192.439 160.072 180.977 150.053 171.645 149.889 171.494 149.886 171.491 149.89 171.491 149.886 171.494Z" fill="#0E9DD4"/><path d="M142.014 243.908C133.133 244.6 131.119 234.799 131.133 228.333 131.155 218.427 134.333 206.866 138.931 199.108 144.595 187.32 153.893 179.628 164.396 179.651 165.47 179.653 166.531 179.736 167.577 179.896 169.187 185.485 170.076 191.639 170.062 198.105 170.01 221.975 157.717 241.581 142.014 243.908Z" fill="#505050"/><path d="M135.65 243.941C136.696 244.101 137.757 244.184 138.831 244.186 139.905 244.188 140.967 244.11 142.014 243.955 143.65 238.373 144.565 232.223 144.579 225.757 144.6 215.851 142.504 206.678 138.93 199.155 133.318 187.342 124.055 179.609 113.551 179.588 112.477 179.586 111.416 179.663 110.37 179.818 108.734 185.4 107.819 191.55 107.805 198.016 107.751 221.887 119.958 241.546 135.65 243.941Z" fill="#D1D1D1"/><path d="M147.818 242.207 130.002 242.21C130.002 246.44 132.956 249.972 136.912 250.879L136.912 265.217C136.912 265.226 136.901 265.23 136.895 265.224L124.77 253.1C123.911 252.241 122.466 252.326 121.724 253.356 121.141 254.164 121.312 255.298 122.016 256.002L137.498 271.483C137.881 271.866 138.392 272.069 138.912 272.069 139.17 272.069 139.43 272.019 139.678 271.917 140.425 271.607 140.912 270.878 140.912 270.069L140.912 250.877C144.867 249.968 147.818 246.435 147.818 242.207Z" fill="#D1D1D1"/></g></svg>