<svg width="624" height="624" xmlns="http://www.w3.org/2000/svg" xmlns:xlink="http://www.w3.org/1999/xlink" xml:space="preserve" overflow="hidden"><g><path d="M491.4 265.149 258.7 265.149C256.546 265.149 254.8 266.895 254.8 269.049L254.8 417.249C254.8 419.403 256.546 421.149 258.7 421.149L491.4 421.149C493.554 421.149 495.3 419.403 495.3 417.249L495.3 269.049C495.3 266.895 493.554 265.149 491.4 265.149Z" fill="#505050"/><path d="M261.95 265.149C259.796 265.149 258.05 266.895 258.05 269.049L258.05 417.249C258.05 419.403 259.796 421.149 261.95 421.149L364 421.149 364 265.149 261.95 265.149 261.95 265.149Z" fill="#737373"/><path d="M488.15 265.149 384.8 265.149 384.8 421.149 488.15 421.149C490.304 421.149 492.05 419.403 492.05 417.249L492.05 269.049C492.05 266.895 490.304 265.149 488.15 265.149Z" fill="#737373"/><path d="M273.65 265.149 334.1 265.149 334.1 276.776 273.65 276.776Z" fill="#505050"/><path d="M280.8 259.167 341.25 259.167 341.25 285.299 280.8 285.299Z" fill="#D2D2D2"/><path d="M318.5 265.149 334.1 265.149 334.1 274.249 318.5 274.249Z" fill="#FFFFFF"/><path d="M263.9 274.899 272.171 274.899 272.171 411.399 263.9 411.399Z" fill="#E6E6E6"/><path d="M374.4 274.899 271.05 274.899 271.05 411.399 374.4 411.399 477.75 411.399 477.75 274.899Z" fill="#F2F2F2"/><path d="M476.586 274.899 484.9 274.899 484.9 411.399 476.586 411.399Z" fill="#E6E6E6"/><path d="M265.156 274.899 265.806 274.899 265.806 382.149 265.156 382.149Z" fill="#D2D2D2"/><path d="M267.106 274.899 267.756 274.899 267.756 382.149 267.106 382.149Z" fill="#D2D2D2"/><path d="M269.056 274.899 269.706 274.899 269.706 382.149 269.056 382.149Z" fill="#D2D2D2"/><path d="M482.3 274.899 482.95 274.899 482.95 411.399 482.3 411.399Z" fill="#D2D2D2"/><path d="M480.35 274.899 481 274.899 481 411.399 480.35 411.399Z" fill="#D2D2D2"/><path d="M478.4 274.899 479.05 274.899 479.05 411.399 478.4 411.399Z" fill="#D2D2D2"/><path d="M374.407 411.398 469.073 405.13 469.073 268.63 374.4 274.899 374.4 411.391C374.4 411.395 374.403 411.399 374.407 411.398Z" fill="#D2D2D2"/><path d="M374.407 411.398 457.042 401.417 457.042 264.917 374.4 274.899 374.4 411.391C374.4 411.395 374.403 411.398 374.407 411.398Z" fill="#FFFFFF"/><path d="M340.6 292.449 282.1 292.449C281.382 292.449 280.8 291.866 280.8 291.149 280.8 290.431 281.382 289.849 282.1 289.849L340.6 289.849C341.318 289.849 341.9 290.431 341.9 291.149 341.9 291.866 341.318 292.449 340.6 292.449ZM341.9 300.574C341.9 299.856 341.318 299.274 340.6 299.274L282.1 299.274C281.382 299.274 280.8 299.856 280.8 300.574 280.8 301.291 281.382 301.874 282.1 301.874L340.6 301.874C341.318 301.874 341.9 301.291 341.9 300.574ZM341.9 309.999C341.9 309.281 341.318 308.699 340.6 308.699L282.1 308.699C281.382 308.699 280.8 309.281 280.8 309.999 280.8 310.716 281.382 311.299 282.1 311.299L340.6 311.299C341.318 311.299 341.9 310.716 341.9 309.999ZM341.9 319.424C341.9 318.706 341.318 318.124 340.6 318.124L282.1 318.124C281.382 318.124 280.8 318.706 280.8 319.424 280.8 320.141 281.382 320.724 282.1 320.724L340.6 320.724C341.318 320.724 341.9 320.141 341.9 319.424ZM341.9 328.849C341.9 328.131 341.318 327.549 340.6 327.549L282.1 327.549C281.382 327.549 280.8 328.131 280.8 328.849 280.8 329.566 281.382 330.149 282.1 330.149L340.6 330.149C341.318 330.149 341.9 329.566 341.9 328.849ZM319.15 338.274C319.15 337.556 318.568 336.974 317.85 336.974L282.1 336.974C281.382 336.974 280.8 337.556 280.8 338.274 280.8 338.991 281.382 339.574 282.1 339.574L317.85 339.574C318.568 339.574 319.15 338.991 319.15 338.274ZM341.9 347.699C341.9 346.981 341.318 346.399 340.6 346.399L282.1 346.399C281.382 346.399 280.8 346.981 280.8 347.699 280.8 348.416 281.382 348.999 282.1 348.999L340.6 348.999C341.318 348.999 341.9 348.416 341.9 347.699ZM341.9 357.124C341.9 356.406 341.318 355.824 340.6 355.824L282.1 355.824C281.382 355.824 280.8 356.406 280.8 357.124 280.8 357.841 281.382 358.424 282.1 358.424L340.6 358.424C341.318 358.424 341.9 357.841 341.9 357.124ZM341.9 366.549C341.9 365.831 341.318 365.249 340.6 365.249L282.1 365.249C281.382 365.249 280.8 365.831 280.8 366.549 280.8 367.266 281.382 367.849 282.1 367.849L340.6 367.849C341.318 367.849 341.9 367.266 341.9 366.549ZM341.9 375.974C341.9 375.256 341.318 374.674 340.6 374.674L282.1 374.674C281.382 374.674 280.8 375.256 280.8 375.974 280.8 376.691 281.382 377.274 282.1 377.274L340.6 377.274C341.318 377.274 341.9 376.691 341.9 375.974ZM341.9 385.399C341.9 384.681 341.318 384.099 340.6 384.099L282.1 384.099C281.382 384.099 280.8 384.681 280.8 385.399 280.8 386.116 281.382 386.699 282.1 386.699L340.6 386.699C341.318 386.699 341.9 386.116 341.9 385.399Z" fill="#E6E6E6"/><path d="M387.724 292.449C387.093 292.449 386.54 291.989 386.441 291.347 386.331 290.638 386.817 289.973 387.527 289.864L446.352 280.764C447.06 280.655 447.725 281.14 447.835 281.85 447.945 282.56 447.459 283.223 446.749 283.333L387.924 292.433C387.856 292.444 387.789 292.449 387.724 292.449ZM387.79 301.859 446.81 292.889C447.52 292.781 448.008 292.118 447.9 291.408 447.792 290.698 447.131 290.213 446.419 290.318L387.399 299.288C386.69 299.396 386.201 300.059 386.309 300.769 386.407 301.412 386.961 301.874 387.593 301.874 387.658 301.874 387.724 301.869 387.79 301.859ZM387.657 311.284 446.872 302.444C447.582 302.338 448.072 301.677 447.966 300.967 447.86 300.257 447.203 299.766 446.489 299.873L387.274 308.713C386.564 308.819 386.074 309.481 386.18 310.19 386.276 310.835 386.831 311.299 387.464 311.299 387.527 311.299 387.592 311.294 387.657 311.284ZM387.523 320.71 446.934 312C447.644 311.896 448.135 311.236 448.031 310.525 447.927 309.815 447.265 309.324 446.556 309.427L387.146 318.137C386.436 318.241 385.945 318.902 386.049 319.612 386.144 320.259 386.699 320.724 387.334 320.724 387.396 320.724 387.46 320.719 387.523 320.71ZM387.39 330.135 410.985 326.739C411.696 326.637 412.189 325.978 412.086 325.266 411.984 324.556 411.326 324.061 410.614 324.165L387.019 327.562C386.309 327.664 385.815 328.323 385.918 329.034 386.012 329.682 386.567 330.149 387.203 330.149 387.265 330.149 387.328 330.145 387.39 330.135ZM387.124 348.986 447.119 340.666C447.83 340.568 448.326 339.911 448.228 339.2 448.129 338.489 447.473 337.99 446.761 338.091L386.766 346.411C386.055 346.51 385.559 347.166 385.657 347.877 385.748 348.528 386.305 348.999 386.944 348.999 387.003 348.999 387.063 348.995 387.124 348.986ZM386.99 358.412 447.18 350.222C447.892 350.125 448.39 349.47 448.293 348.759 448.196 348.048 447.54 347.551 446.83 347.646L386.64 355.836C385.928 355.933 385.43 356.588 385.527 357.299 385.616 357.951 386.174 358.424 386.814 358.424 386.872 358.424 386.931 358.42 386.99 358.412ZM386.857 367.837 447.242 359.777C447.954 359.682 448.454 359.028 448.359 358.316 448.264 357.605 447.615 357.103 446.898 357.2L386.513 365.26C385.802 365.355 385.302 366.009 385.397 366.72 385.484 367.373 386.042 367.848 386.684 367.848 386.74 367.849 386.799 367.845 386.857 367.837ZM386.724 377.263 447.304 369.333C448.016 369.24 448.518 368.587 448.424 367.875 448.33 367.163 447.681 366.659 446.966 366.755L386.386 374.685C385.674 374.778 385.172 375.43 385.266 376.143 385.352 376.797 385.91 377.274 386.553 377.274 386.61 377.274 386.667 377.27 386.724 377.263ZM386.59 386.688 447.365 378.888C448.077 378.797 448.581 378.145 448.489 377.434 448.397 376.721 447.744 376.222 447.034 376.31L386.259 384.11C385.547 384.201 385.044 384.853 385.135 385.564 385.22 386.22 385.779 386.699 386.423 386.699 386.479 386.699 386.534 386.695 386.59 386.688Z" fill="#E6E6E6"/><path d="M364 347.026 355.55 341.176 347.1 347.026 347.1 274.876 364 274.876Z" fill="#0E9DD4"/><path d="M317.2 411.362 434.2 411.362 434.2 425.012 317.2 425.012Z" fill="#D2D2D2"/><path d="M529.996 307.24 529.996 423.686 553.286 423.686 553.286 307.24 529.996 307.24ZM541.353 314.991C540.174 314.991 539.219 314.035 539.219 312.856 539.219 311.677 540.174 310.721 541.353 310.721 542.532 310.721 543.488 311.677 543.488 312.856 543.488 314.035 542.532 314.991 541.353 314.991Z" fill="#737373"/><path d="M549.795 308.844 553.288 308.844 553.288 309.494 549.795 309.494Z" fill="#D2D2D2"/><path d="M549.795 310.784 553.288 310.784 553.288 311.434 549.795 311.434Z" fill="#D2D2D2"/><path d="M549.795 312.725 553.288 312.725 553.288 313.375 549.795 313.375Z" fill="#D2D2D2"/><path d="M547.078 314.666 553.288 314.666 553.288 315.316 547.078 315.316Z" fill="#D2D2D2"/><path d="M549.795 316.607 553.288 316.607 553.288 317.257 549.795 317.257Z" fill="#D2D2D2"/><path d="M549.795 318.547 553.288 318.547 553.288 319.197 549.795 319.197Z" fill="#D2D2D2"/><path d="M549.795 320.488 553.288 320.488 553.288 321.138 549.795 321.138Z" fill="#D2D2D2"/><path d="M547.078 322.429 553.288 322.429 553.288 323.079 547.078 323.079Z" fill="#D2D2D2"/><path d="M549.795 324.369 553.288 324.369 553.288 325.02 549.795 325.02Z" fill="#D2D2D2"/><path d="M549.795 326.31 553.288 326.31 553.288 326.96 549.795 326.96Z" fill="#D2D2D2"/><path d="M549.795 328.251 553.288 328.251 553.288 328.901 549.795 328.901Z" fill="#D2D2D2"/><path d="M547.078 330.192 553.288 330.192 553.288 330.842 547.078 330.842Z" fill="#D2D2D2"/><path d="M549.795 332.133 553.288 332.133 553.288 332.783 549.795 332.783Z" fill="#D2D2D2"/><path d="M549.795 334.073 553.288 334.073 553.288 334.723 549.795 334.723Z" fill="#D2D2D2"/><path d="M549.795 336.014 553.288 336.014 553.288 336.664 549.795 336.664Z" fill="#D2D2D2"/><path d="M547.078 337.955 553.288 337.955 553.288 338.605 547.078 338.605Z" fill="#D2D2D2"/><path d="M549.795 339.896 553.288 339.896 553.288 340.546 549.795 340.546Z" fill="#D2D2D2"/><path d="M549.795 341.836 553.288 341.836 553.288 342.486 549.795 342.486Z" fill="#D2D2D2"/><path d="M549.795 343.777 553.288 343.777 553.288 344.427 549.795 344.427Z" fill="#D2D2D2"/><path d="M547.078 345.718 553.288 345.718 553.288 346.368 547.078 346.368Z" fill="#D2D2D2"/><path d="M549.795 347.659 553.288 347.659 553.288 348.309 549.795 348.309Z" fill="#D2D2D2"/><path d="M549.795 349.6 553.288 349.6 553.288 350.25 549.795 350.25Z" fill="#D2D2D2"/><path d="M549.795 351.541 553.288 351.541 553.288 352.191 549.795 352.191Z" fill="#D2D2D2"/><path d="M547.078 353.481 553.288 353.481 553.288 354.131 547.078 354.131Z" fill="#D2D2D2"/><path d="M549.795 355.422 553.288 355.422 553.288 356.072 549.795 356.072Z" fill="#D2D2D2"/><path d="M549.795 357.363 553.288 357.363 553.288 358.013 549.795 358.013Z" fill="#D2D2D2"/><path d="M549.795 359.304 553.288 359.304 553.288 359.954 549.795 359.954Z" fill="#D2D2D2"/><path d="M547.078 361.245 553.288 361.245 553.288 361.895 547.078 361.895Z" fill="#D2D2D2"/><path d="M549.795 363.185 553.288 363.185 553.288 363.835 549.795 363.835Z" fill="#D2D2D2"/><path d="M549.795 365.126 553.288 365.126 553.288 365.776 549.795 365.776Z" fill="#D2D2D2"/><path d="M549.795 367.067 553.288 367.067 553.288 367.717 549.795 367.717Z" fill="#D2D2D2"/><path d="M547.078 369.008 553.288 369.008 553.288 369.658 547.078 369.658Z" fill="#D2D2D2"/><path d="M549.795 370.948 553.288 370.948 553.288 371.598 549.795 371.598Z" fill="#D2D2D2"/><path d="M549.795 372.889 553.288 372.889 553.288 373.539 549.795 373.539Z" fill="#D2D2D2"/><path d="M549.795 374.83 553.288 374.83 553.288 375.48 549.795 375.48Z" fill="#D2D2D2"/><path d="M547.078 376.771 553.288 376.771 553.288 377.421 547.078 377.421Z" fill="#D2D2D2"/><path d="M549.795 378.711 553.288 378.711 553.288 379.361 549.795 379.361Z" fill="#D2D2D2"/><path d="M549.795 380.652 553.288 380.652 553.288 381.302 549.795 381.302Z" fill="#D2D2D2"/><path d="M549.795 382.593 553.288 382.593 553.288 383.243 549.795 383.243Z" fill="#D2D2D2"/><path d="M547.078 384.533 553.288 384.533 553.288 385.183 547.078 385.183Z" fill="#D2D2D2"/><path d="M549.795 386.474 553.288 386.474 553.288 387.124 549.795 387.124Z" fill="#D2D2D2"/><path d="M549.795 388.415 553.288 388.415 553.288 389.065 549.795 389.065Z" fill="#D2D2D2"/><path d="M549.795 390.356 553.288 390.356 553.288 391.006 549.795 391.006Z" fill="#D2D2D2"/><path d="M547.078 392.296 553.288 392.296 553.288 392.946 547.078 392.946Z" fill="#D2D2D2"/><path d="M549.795 394.237 553.288 394.237 553.288 394.887 549.795 394.887Z" fill="#D2D2D2"/><path d="M549.795 396.178 553.288 396.178 553.288 396.828 549.795 396.828Z" fill="#D2D2D2"/><path d="M549.795 398.119 553.288 398.119 553.288 398.769 549.795 398.769Z" fill="#D2D2D2"/><path d="M547.078 400.06 553.288 400.06 553.288 400.71 547.078 400.71Z" fill="#D2D2D2"/><path d="M549.795 402 553.288 402 553.288 402.65 549.795 402.65Z" fill="#D2D2D2"/><path d="M549.795 403.941 553.288 403.941 553.288 404.591 549.795 404.591Z" fill="#D2D2D2"/><path d="M549.795 405.882 553.288 405.882 553.288 406.532 549.795 406.532Z" fill="#D2D2D2"/><path d="M547.078 407.823 553.288 407.823 553.288 408.473 547.078 408.473Z" fill="#D2D2D2"/><path d="M549.795 409.764 553.288 409.764 553.288 410.414 549.795 410.414Z" fill="#D2D2D2"/><path d="M549.795 411.704 553.288 411.704 553.288 412.354 549.795 412.354Z" fill="#D2D2D2"/><path d="M549.795 413.645 553.288 413.645 553.288 414.295 549.795 414.295Z" fill="#D2D2D2"/><path d="M547.078 415.586 553.288 415.586 553.288 416.236 547.078 416.236Z" fill="#D2D2D2"/><path d="M549.795 417.527 553.288 417.527 553.288 418.177 549.795 418.177Z" fill="#D2D2D2"/><path d="M549.795 419.467 553.288 419.467 553.288 420.117 549.795 420.117Z" fill="#D2D2D2"/><path d="M549.795 421.408 553.288 421.408 553.288 422.058 549.795 422.058Z" fill="#D2D2D2"/><path d="M516.115 317.829 516.115 317.837C516.087 317.836 516.061 317.829 516.033 317.829L514.165 317.829 514.165 319.779 516.115 319.779 516.115 343.193C516.115 344.271 516.988 345.143 518.065 345.143L518.065 319.779C518.065 318.701 517.192 317.829 516.115 317.829Z" fill="#D2D2D2"/><path d="M508.282 399.079 514.192 399.079 514.192 402.79 508.282 402.79Z" fill="#2F2F2F"/><path d="M514.815 317.829C514.815 317.829 513.321 318.662 511.306 318.662 509.291 318.662 507.665 317.829 507.665 317.829L507.665 312.304 514.815 312.304 514.815 317.829Z" fill="#505050"/><path d="M514.815 319.779C514.815 319.779 513.143 320.45 511.339 320.45 509.535 320.45 507.665 319.779 507.665 319.779L507.665 317.829 514.814 317.829 514.815 319.779 514.815 319.779Z" fill="#737373"/><path d="M507.665 319.779 514.815 319.779 514.815 400.379 507.665 400.379Z" fill="#D2D2D2"/><path d="M507.665 343.032 514.815 343.032 514.815 345.349 507.665 345.349Z" fill="#737373"/><path d="M507.665 346.429 514.815 346.429 514.815 347.079 507.665 347.079Z" fill="#F2F2F2"/><path d="M525.215 399.533C525.215 399.533 524.407 400.725 522.29 400.725 520.173 400.725 519.365 399.533 519.365 399.533L519.365 320.897C519.365 320.893 519.368 320.89 519.371 320.89L525.208 320.89C525.212 320.89 525.215 320.893 525.215 320.897L525.215 399.533Z" fill="#0E9DD4"/><path d="M520.015 407.015 524.565 407.015 524.565 411.89 520.015 411.89Z" fill="#0E9DD4"/><path d="M519.365 399.532 525.215 399.532 525.215 408.933 519.365 408.933Z" fill="#D2D2D2"/><path d="M523.113 313.415 522.283 312.515 521.468 313.415 519.366 320.89C519.366 321.698 520.02 322.353 520.828 322.353 521.609 322.353 522.246 321.742 522.289 320.971 522.291 320.927 522.291 320.927 522.293 320.971 522.335 321.741 522.973 322.353 523.754 322.353 524.562 322.353 525.216 321.698 525.216 320.89L523.113 313.415Z" fill="#D2D2D2"/><path d="M522.29 310.49 521.468 313.415 523.113 313.415Z" fill="#505050"/><path d="M562.915 374.19C560.544 374.19 558.328 374.835 556.415 375.943L556.415 366.39 504.415 366.39 504.415 418.859C504.415 425.149 509.514 430.249 515.805 430.249L545.025 430.249C551.316 430.249 556.415 425.149 556.415 418.859L556.415 398.437C558.328 399.545 560.544 400.19 562.915 400.19 570.095 400.19 575.915 394.37 575.915 387.19 575.915 380.01 570.095 374.19 562.915 374.19ZM562.915 392.39C560.043 392.39 557.715 390.062 557.715 387.19 557.715 384.318 560.043 381.99 562.915 381.99 565.787 381.99 568.115 384.318 568.115 387.19 568.115 390.062 565.787 392.39 562.915 392.39Z" fill="#0E9DD4"/><path d="M205.425 194.299C204.707 194.299 204.125 193.716 204.125 192.999L204.125 187.2C204.125 186.482 204.707 185.9 205.425 185.9 206.142 185.9 206.725 186.482 206.725 187.2L206.725 192.999C206.725 193.716 206.142 194.299 205.425 194.299Z" fill="#505050"/><path d="M201.529 191.699 209.319 191.699 209.319 195.599 201.529 195.599Z" fill="#737373"/><path d="M175.5 242.399 161.85 228.749 161.85 221.599 190.234 221.599Z" fill="#737373"/><path d="M252.14 265.149 216.17 213.762 216.17 194.172 194.005 194.172 194.005 214.727 158.709 265.149Z" fill="#0E9DD4"/><path d="M222.3 259.299C221.582 259.299 221 258.716 221 257.999L221 246.299C221 245.581 221.582 244.999 222.3 244.999 223.018 244.999 223.6 245.581 223.6 246.299L223.6 257.999C223.6 258.716 223.018 259.299 222.3 259.299Z" fill="#FFFFFF"/><path d="M215.8 259.299C215.082 259.299 214.5 258.716 214.5 257.999L214.5 246.299C214.5 245.581 215.082 244.999 215.8 244.999 216.518 244.999 217.1 245.581 217.1 246.299L217.1 257.999C217.1 258.716 216.518 259.299 215.8 259.299Z" fill="#FFFFFF"/><path d="M209.3 259.299C208.582 259.299 208 258.716 208 257.999L208 246.299C208 245.581 208.582 244.999 209.3 244.999 210.018 244.999 210.6 245.581 210.6 246.299L210.6 257.999C210.6 258.716 210.018 259.299 209.3 259.299Z" fill="#FFFFFF"/><path d="M148.85 293.099C148.132 293.099 147.55 292.516 147.55 291.799L147.55 265.162C147.55 264.868 147.649 264.583 147.833 264.353L173.183 232.489C173.629 231.928 174.447 231.834 175.009 232.281 175.571 232.729 175.664 233.546 175.217 234.108L150.15 265.617 150.15 291.799C150.15 292.516 149.568 293.099 148.85 293.099Z" fill="#D2D2D2"/><path d="M139.1 383.463C138.603 383.463 138.129 383.177 137.913 382.694L70.9638 233.18C70.7837 232.777 70.8195 232.311 71.0586 231.941 71.2985 231.572 71.7086 231.348 72.15 231.348L119.6 231.348C120.318 231.348 120.9 231.93 120.9 232.648 120.9 233.366 120.318 233.948 119.6 233.948L74.1565 233.948 140.286 381.631C140.579 382.286 140.286 383.055 139.63 383.349 139.458 383.427 139.277 383.463 139.1 383.463Z" fill="#E6E6E6"/><path d="M60.45 222.249 166.725 222.249 166.725 228.749 60.45 228.749Z" fill="#D2D2D2"/><path d="M152.1 404.249C152.1 400.659 149.19 397.749 145.6 397.749L140.417 397.749 63.0935 224.176 57.1558 226.821 138.45 409.306 138.45 421.799 146.25 421.799 146.25 410.715C149.534 410.39 152.1 407.619 152.1 404.249Z" fill="#D2D2D2"/><path d="M102.05 418.549 186.55 418.549 186.55 430.249 102.05 430.249Z" fill="#0E9DD4"/><path d="M170.3 225.499C170.3 229.088 167.39 231.999 163.8 231.999 160.21 231.999 157.3 229.088 157.3 225.499 157.3 221.909 160.21 218.999 163.8 218.999 167.39 218.999 170.3 221.909 170.3 225.499Z" fill="#505050"/><path d="M66.95 225.499C66.95 229.268 63.8943 232.324 60.125 232.324 56.3556 232.324 53.3 229.268 53.3 225.499 53.3 221.729 56.3556 218.674 60.125 218.674 63.8943 218.674 66.95 221.729 66.95 225.499Z" fill="#505150"/><path d="M146.25 404.249C146.25 407.838 143.34 410.749 139.75 410.749 136.16 410.749 133.25 407.838 133.25 404.249 133.25 400.659 136.16 397.749 139.75 397.749 143.34 397.748 146.25 400.659 146.25 404.249Z" fill="#505050"/><path d="M317.2 426.917 264.125 426.917C256.996 426.917 251.314 420.655 251.314 413.17L251.314 413.17C251.314 405.685 257.093 399.617 264.222 399.617L317.2 399.806 317.2 426.917 317.2 426.917Z" fill="#FFFFFF"/><path d="M269.1 425.049C262.64 425.049 257.49 419.644 257.49 413.184 257.49 406.723 262.727 401.486 269.188 401.486L323.05 401.649 323.048 396.446 203.425 396.446C194.091 396.446 186.524 404.013 186.524 413.347L186.524 413.347C186.524 422.682 194.091 430.249 203.426 430.249L323.049 430.249 323.049 425.048 269.1 425.049 269.1 425.049Z" fill="#0E9DD4"/><path d="M269.1 406.361 317.2 406.361 317.2 407.336 269.1 407.336Z" fill="#CFCFCF"/><path d="M269.1 409.611 308.75 409.611 308.75 410.586 269.1 410.586Z" fill="#CFCFCF"/><path d="M269.1 416.111 297.05 416.111 297.05 417.086 269.1 417.086Z" fill="#CFCFCF"/><path d="M212.594 396.44 213.894 396.44 213.894 430.296 212.594 430.296Z" fill="#FFFFFF"/><path d="M311.35 393.126 260.929 393.126C254.156 393.126 248.759 386.864 248.759 379.379L248.759 379.379C248.759 371.894 254.249 365.826 261.021 365.826L311.351 366.005 311.351 393.126 311.35 393.126Z" fill="#E3E3E3"/><path d="M263.25 391.258C256.79 391.258 251.64 385.853 251.64 379.393 251.64 372.932 256.877 367.695 263.338 367.695L317.2 367.858 317.198 362.655 197.575 362.655C188.241 362.655 180.674 370.222 180.674 379.556L180.674 379.556C180.674 388.891 188.241 396.458 197.576 396.458L317.199 396.458 317.199 391.258 263.25 391.258Z" fill="#505050"/><path d="M263.25 372.57 311.35 372.57 311.35 373.545 263.25 373.545Z" fill="#CFCFCF"/><path d="M263.25 375.82 302.9 375.82 302.9 376.795 263.25 376.795Z" fill="#CFCFCF"/><path d="M263.25 382.32 291.2 382.32 291.2 383.295 263.25 383.295Z" fill="#CFCFCF"/><path d="M208.65 362.643 209.95 362.643 209.95 396.458 208.65 396.458Z" fill="#737373"/><path d="M212.55 362.643 213.85 362.643 213.85 396.458 212.55 396.458Z" fill="#737373"/><path d="M240.136 352.616C239.466 352.616 238.813 352.27 238.451 351.65L226.285 330.85C225.741 329.921 226.054 328.726 226.984 328.182 227.914 327.638 229.108 327.952 229.651 328.881L241.818 349.681C242.362 350.611 242.048 351.805 241.119 352.349 240.809 352.53 240.47 352.616 240.136 352.616Z" fill="#D2D2D2"/><path d="M233.768 324.453C233.768 330.657 228.738 335.687 222.534 335.687 216.33 335.687 211.3 330.657 211.3 324.453 211.3 318.248 216.33 313.219 222.534 313.219 228.738 313.219 233.768 318.248 233.768 324.453Z" fill="#0E9DD4"/><path d="M204.932 353.365C204.567 353.365 204.197 353.262 203.868 353.048 202.966 352.459 202.712 351.25 203.3 350.349L220.901 323.387C221.489 322.486 222.698 322.232 223.599 322.82 224.502 323.409 224.755 324.617 224.167 325.519L206.567 352.48C206.193 353.053 205.569 353.365 204.932 353.365Z" fill="#737373"/><path d="M216.168 351.415C216.168 357.619 211.138 362.649 204.934 362.649 198.73 362.649 193.7 357.619 193.7 351.415 193.7 345.21 198.73 340.181 204.934 340.181 211.138 340.181 216.168 345.21 216.168 351.415Z" fill="#0E9DD4"/><path d="M251.46 351.415C251.46 357.619 246.431 362.649 240.226 362.649 234.022 362.649 228.992 357.619 228.992 351.415 228.992 345.21 234.022 340.181 240.226 340.181 246.431 340.181 251.46 345.21 251.46 351.415Z" fill="#0E9DD4"/><path d="M240.318 353.265 205.026 353.265C203.949 353.265 203.076 352.392 203.076 351.315 203.076 350.238 203.949 349.365 205.026 349.365L240.318 349.365C241.395 349.365 242.268 350.238 242.268 351.315 242.268 352.392 241.395 353.265 240.318 353.265Z" fill="#737373"/></g></svg>