<?xml version="1.0" encoding="utf-8"?>
<!-- Generator: Adobe Illustrator 16.0.3, SVG Export Plug-In . SVG Version: 6.00 Build 0)  -->
<!DOCTYPE svg PUBLIC "-//W3C//DTD SVG 1.1//EN" "http://www.w3.org/Graphics/SVG/1.1/DTD/svg11.dtd">
<svg version="1.1" id="Layer_1" xmlns="http://www.w3.org/2000/svg" xmlns:xlink="http://www.w3.org/1999/xlink" x="0px" y="0px"
	 width="192.168px" height="183.472px" viewBox="0 0 192.168 183.472" style="enable-background:new 0 0 192.168 183.472;"
	 xml:space="preserve">
<style type="text/css">
<![CDATA[
	.st0{fill-rule:evenodd;clip-rule:evenodd;fill:#092E4B;}
	.st1{opacity:0.8;fill-rule:evenodd;clip-rule:evenodd;fill:#FDC328;}
	.st2{fill-rule:evenodd;clip-rule:evenodd;fill:#3F4D23;}
	.st3{opacity:0.5;fill-rule:evenodd;clip-rule:evenodd;fill:#E7A725;}
	.st4{opacity:0.5;fill-rule:evenodd;clip-rule:evenodd;fill:#4EC7E9;}
	.st5{fill-rule:evenodd;clip-rule:evenodd;fill:#DA5828;}
	.st6{fill-rule:evenodd;clip-rule:evenodd;fill:#DB5828;}
	.st7{fill-rule:evenodd;clip-rule:evenodd;fill:#A99F4F;}
	.st8{fill-rule:evenodd;clip-rule:evenodd;fill:#404E22;}
	.st9{fill-rule:evenodd;clip-rule:evenodd;fill:#404F27;}
	.st10{fill-rule:evenodd;clip-rule:evenodd;fill:#414F24;}
	.st11{fill-rule:evenodd;clip-rule:evenodd;fill:#424E22;}
	.st12{fill-rule:evenodd;clip-rule:evenodd;fill:#439745;}
	.st13{fill-rule:evenodd;clip-rule:evenodd;fill:#469846;}
	.st14{fill-rule:evenodd;clip-rule:evenodd;fill:#7BA340;}
	.st15{fill-rule:evenodd;clip-rule:evenodd;fill:#13723E;}
	.st16{fill-rule:evenodd;clip-rule:evenodd;fill:#1474AE;}
	.st17{fill-rule:evenodd;clip-rule:evenodd;fill:#1474AF;}
	.st18{fill-rule:evenodd;clip-rule:evenodd;fill:#1574AE;}
	.st19{opacity:0.5;fill-rule:evenodd;clip-rule:evenodd;fill:#F27D22;}
	.st20{fill-rule:evenodd;clip-rule:evenodd;fill:#E7A725;}
	.st21{fill-rule:evenodd;clip-rule:evenodd;fill:#B1E1EF;}
	.st22{fill-rule:evenodd;clip-rule:evenodd;fill:#B2BC37;}
	.st23{fill-rule:evenodd;clip-rule:evenodd;fill:#B2E1EF;}
	.st24{fill-rule:evenodd;clip-rule:evenodd;fill:#1B4925;}
	.st25{fill-rule:evenodd;clip-rule:evenodd;fill:#50C8E9;}
	.st26{fill-rule:evenodd;clip-rule:evenodd;fill:#51C8E9;}
	.st27{fill-rule:evenodd;clip-rule:evenodd;fill:#527134;}
	.st28{opacity:0.8;}
	.st29{fill-rule:evenodd;clip-rule:evenodd;fill:#F27D22;}
	.st30{opacity:0.8;fill-rule:evenodd;clip-rule:evenodd;fill:#4EC7E9;}
	.st31{fill-rule:evenodd;clip-rule:evenodd;fill:#FDC32B;}
	.st32{opacity:0.5;fill-rule:evenodd;clip-rule:evenodd;fill:#0F73AE;}
	.st33{opacity:0.5;fill-rule:evenodd;clip-rule:evenodd;fill:#419644;}
]]>
</style>
<g>
	<g class="st28">
		<path class="st31" d="M96.242,20.01c8.828-6.613,18.873-11.211,28.174-17.041c1.342-0.84,3.225-1.082,3.764-2.969
			c0.666,0,1.334,0,2,0c-0.018,10.979-0.036,21.959-0.055,32.939c0.417,0.377,0.516,0.822,0.298,1.342
			c-0.256,0.443-0.595,0.812-1.008,1.111c-1.832,1.333-3.811,2.438-5.831,3.436c-1.549,0.764-3.246,1.742-4.805-0.102
			c-0.145-5.287,0.941-10.516,0.659-15.834c-0.173-3.255-1.272-3.807-3.895-2.162c-0.421,0.264-0.853,0.527-1.312,0.711
			c-8.584,3.41-12.793,9.246-11.401,18.889c0.466,3.229,1.147,7.015-1.703,9.922c-0.594,0.105-1.091-0.059-1.509-0.489
			c-0.412-0.537-0.808-1.109-0.892-1.771C97.548,38.697,99.293,29.142,96.242,20.01z"/>
		<path class="st20" d="M121.167,135.035c-0.3-0.303-0.601-0.606-0.901-0.91c-1.606-7.205-1.81-14.41,0.014-21.614
			c3.84-1.858,6.699-0.794,10.855,4.026c1.437,4.7,1.018,9.566,0.743,14.322c-0.329,5.707,1.743,9.604,6.806,12.051
			c2.938,1.42,6.115,5.235,8.643,3.814c2.596-1.46,0.631-6.119,1.048-9.339c0.464-3.589-2.298-7.063-0.314-10.687
			c3.351-1.357,6.572-0.801,9.736,0.645c0.178,0.221,0.354,0.444,0.528,0.668c1.145,11.619,0.16,23.266,0.473,34.894
			c0.096,3.554-1.224,3.489-3.766,1.987c-7.984-4.72-16.027-9.337-24.69-14.367c-1.375,11.103,0.469,21.658-1.022,32.055
			c-0.1-10.916-0.203-21.83-0.305-32.744C127.451,144.344,124.744,139.459,121.167,135.035z"/>
		<path class="st20" d="M60.929,32.107c0.415,0.852,1.218,0.711,1.945,0.76c0.487,0.155,0.878,0.438,1.165,0.863
			c0.693,5.542,3.225,10.119,7.327,13.874c0.536,0.663,0.894,1.405,1.086,2.234c0.431,5.656,0.22,11.317,0.177,16.974
			c-0.047,6.076-1.471,6.785-6.801,3.873c-1.672-0.913-3.115-1.887-3.82-3.705c-1.082-4.416-0.616-8.928-0.603-13.398
			c0.018-5.671-2.017-9.902-7.187-12.631c-3.494-1.843-6.828-3.992-9.997-5.626c1.658,6.859-0.281,13.913,0.602,20.833
			c-3.25,2.953-6.685,1.81-10.132,0.457c-0.172-0.225-0.34-0.453-0.51-0.682c-1.351-12.738-0.013-25.463-0.333-38.962
			C43.358,22.287,52.144,27.197,60.929,32.107z"/>
		<path class="st26" d="M62.261,150.922c-8.598,3.958-16.427,9.283-24.687,13.84c-1.064,0.588-2.139,2.164-3.487,1.164
			c-1.233-0.914-0.385-2.451-0.257-3.739c0.523-5.311-0.178-10.584-0.42-15.878c-0.281-6.117-0.3-12.268,0.696-18.355
			c0.175-0.207,0.351-0.414,0.523-0.625c3.015-1.41,6.126-1.771,9.351-0.85c1.553,1.293,1.129,2.997,0.868,4.615
			c-0.854,5.301,0.364,10.525,0.047,16.546c5.667-2.459,10.265-5.2,14.431-8.743c1.248-1.061,2.338-3.125,4.552-1.502
			c1.298,1.951,0.476,4.222,0.989,6.292c0.279,1.979-0.107,3.882-0.672,5.765C63.789,150.255,63.166,150.773,62.261,150.922z"/>
		<path class="st31" d="M62.261,150.922c0.249-0.379,0.497-0.756,0.746-1.135c2.763-3.238,5.372-6.753,10.464-5.76
			c1.556,4.459-0.891,8.701-0.701,13.158c0.342,8.023,0.017,7.796,6.983,4.376c4.763-2.339,8.027-6.353,12.231-9.257
			c-0.11,4.363,1.791,7.982,4.216,11.408c-9.774,6.949-20.571,12.189-30.787,18.402c-3.009,1.83-2.879-0.333-2.897-2.277
			C62.426,170.199,62.346,160.561,62.261,150.922z"/>
		<path class="st21" d="M30.097,91.149c-5.458-0.846-9.462-4.647-14.151-7.044c-4.273-2.184-8.335-4.789-12.447-7.279
			c-1.474-0.894-3.204-2.181-0.609-3.573C13.396,67.616,23.1,60.526,34.182,55.935c0-0.001,0.383-0.013,0.383-0.013
			c2.502,2.748,5.945,4.922,5.721,9.344c-5.409,1.989-10.529,4.539-15.421,7.614c-2.521,1.585-2.44,2.624,0.007,4.144
			c4.91,3.048,10.195,5.314,15.406,7.76c0.295,3.275-2.828,3.734-4.458,5.436C34.024,91.207,32.27,92.49,30.097,91.149z"/>
		<path class="st25" d="M163.512,91.891c9.285,5.451,18.57,10.904,28.623,16.807c-11.387,6.998-22.457,13.394-33.811,19.314
			c-0.156-0.145-0.324-0.274-0.504-0.388c-2.895-2.358-5.936-4.623-5.658-8.982c6.202-2.603,12.193-5.6,18.088-9.704
			c-5.314-4.629-11.757-6.854-17.182-10.67c-0.431-3.32,3.087-3.303,4.367-5.186c1.424-1.019,2.973-1.712,4.754-1.789
			C162.677,91.385,163.115,91.591,163.512,91.891z"/>
		<path class="st23" d="M129.57,33.878c0.185-0.313,0.369-0.625,0.555-0.938c8.361-4.775,16.717-9.562,25.089-14.318
			c1.741-0.99,3.989-2.564,3.878,1.32c-0.344,11.941,1.115,23.932-0.926,35.827c-0.149,0.241-0.299,0.483-0.444,0.728
			c-2.562,1.729-5.3,1.461-8.077,0.729c-2.446-1.042-2.146-3.105-1.766-5.094c0.633-3.297,0.598-6.619,0.588-9.944
			c-0.022-6.808-0.189-6.772-6.054-3.735c-4.254,2.203-7.729,5.746-12.468,7.08c-0.562-0.12-0.961-0.436-1.213-0.948
			C128.772,40.993,128.191,37.358,129.57,33.878z"/>
		<path class="st22" d="M163.512,91.891c-0.35-0.006-0.699-0.012-1.049-0.018c-4.471-0.8-8.547-2.206-10.531-6.836
			c4.964-2.514,10.283-4.338,14.877-7.587c1.061-0.751,2.402-1.128,3.479-2.935c-5.763-3.66-11.545-7.203-18.156-9.256
			c-0.106-4.407,2.84-6.811,5.976-9.09c0,0,0.058-0.402,0.059-0.402c11.616,5.354,22.183,12.546,34.003,18.949
			C182.209,80.685,172.86,86.287,163.512,91.891z"/>
		<path class="st22" d="M34.106,127.953C23.01,121.752,11.914,115.553,0,108.896c10.654-6.041,19.92-12.121,29.905-16.967
			c4.163,0.412,7.79,1.688,9.558,5.947c-3.473,3.418-8.299,4.59-12.192,7.324c-1.598,1.121-3.577,1.676-5.309,3.672
			c5.77,3.927,11.743,7.148,18.13,9.653c0.52,4.476-2.551,6.714-5.599,8.968C34.385,127.665,34.256,127.817,34.106,127.953z"/>
		<path class="st27" d="M39.381,98.055c-3.158-2.041-6.316-4.084-9.475-6.125c0.096-0.254,0.161-0.514,0.192-0.781
			c1.519-0.689,3.038-1.38,4.559-2.07c4.413-2.202,8.572-1.348,12.606,1.029c5.363,3.105,10.704,6.258,16.154,9.221
			c1.572,0.854,3.252,1.588,4.051,3.377c-0.712,4.543-4.958,5.002-7.969,6.896c-0.484,0.121-0.977,0.157-1.475,0.118
			c-6.164-2.187-11.243-6.382-17.029-9.282C40.105,99.991,39.479,99.148,39.381,98.055z"/>
		<path class="st27" d="M100.834,49.95c6.407-2.909,12.349-6.632,18.244-10.424c3.352-1.741,6.707-3.487,10.062-5.233
			c1.907,7.836-1.874,12.865-8.2,16.643c-7.233,3.875-14.316,7.986-20.594,13.357c-0.523-0.258-0.919-0.635-1.212-1.139
			c-1.419-4.203-1.533-8.291,1.032-12.146c0.099-0.283,0.186-0.569,0.26-0.859C100.428,50.147,100.834,49.95,100.834,49.95z"/>
		<path class="st13" d="M120.207,49.471c5.757-3.424,9.534-8.012,8.934-15.178c0.129-0.152,0.271-0.291,0.43-0.414
			c0.238,3.678,0.393,7.355-0.164,11.023c2.439,7.426,1.4,15.019,0.668,22.499c-0.313,3.186-4.789,4.938-9.258,4.579
			C117.89,64.553,118.893,57.016,120.207,49.471z"/>
		<path class="st29" d="M127.982,147.2c-3.262-3.403-5.088-7.464-5.797-12.077c-0.309-0.704-0.727-1.332-1.268-1.881
			c-6.346-4.891-14.209-7.554-19.8-13.532c-1.129-0.015-1.707,0.712-2.159,1.608c-1.264,4.095-3.768,7.327-6.963,10.074
			c-1.016,0.924-1.639,2.038-1.623,3.451c-0.271,5.578-0.148,11.16-0.018,16.739c0.863,4.569-0.003,9.961,5.846,12.13
			c6.109,3.702,12.125,7.577,18.361,11.053c4.857,2.707,9.201,6.424,14.758,7.813c0.856-10.352,0.049-20.725,0.416-31.092
			C130.244,149.605,129.099,148.363,127.982,147.2z M120.891,168.189c-6.069-3.521-11.235-6.482-16.361-9.51
			c-2.295-1.355-3.661-3.447-3.74-6.113c-0.162-5.473-0.158-10.951-0.225-16.426c-0.029-2.305,0.954-2.508,2.758-1.437
			c4.563,2.71,9.178,5.335,13.748,8.035c2.506,1.479,3.713,3.87,3.777,6.644C120.986,155.316,120.891,161.255,120.891,168.189z"/>
		<path class="st27" d="M91.695,133.394c-6.129,3.581-12.258,7.161-18.387,10.743c-3.434,1.883-6.867,3.768-10.302,5.65
			c0.05-1.897,0.101-3.795,0.151-5.693c0.768-5.27,3.4-9.143,8.399-11.254c3.292-2.157,6.724-4.074,10.146-6.012
			c2.986-1.691,6.03-3.301,7.974-6.371c0.742-1.173,1.782-2.701,3.412-0.771c1.656,4.145,1.176,8.288,0.014,12.432
			C92.634,132.543,92.164,132.969,91.695,133.394z"/>
		<path class="st14" d="M100.83,99.955c-0.025,6.778-0.051,13.557-0.076,20.336c-0.252,0.645-0.503,1.29-0.754,1.936
			c-4.657,1.588-6.303-2.371-8.802-4.771c-1.734-5.53-0.759-11.187-0.779-16.799c0.229-2.703,2.23-3.673,4.392-4.494
			c0.81-0.214,1.625-0.22,2.444-0.049C99.118,96.764,100.688,97.697,100.83,99.955z"/>
		<path class="st8" d="M92.113,118.083c2.629,1.381,5.258,2.761,7.887,4.143c-0.716,4.4-3.107,7.632-6.896,9.892
			c-2.119-4.297-0.33-8.902-1.053-13.309l-0.197-0.383L92.113,118.083z"/>
		<path class="st5" d="M121.167,135.035c6.008,3.137,8.833,7.96,7.847,14.802C123.905,146.224,120.516,141.701,121.167,135.035z"/>
		<path class="st27" d="M147.72,127.007c-5.905-3.37-11.812-6.741-17.718-10.111c-2.738-2.198-5.779-3.881-8.98-5.299
			c-0.188-0.175-0.229-0.377-0.123-0.609c3.275-3.091,8.105-0.966,11.559-3.453c0.484-0.183,0.986-0.251,1.502-0.22
			c5.646,2.277,10.644,5.739,15.867,8.789c1.133,0.661,2.2,1.468,2.388,2.94c2.27,2.599,4.899,4.962,5.606,8.581
			C154.382,128.593,151.057,127.699,147.72,127.007z"/>
		<path class="st7" d="M44.287,56.127c6.057,3.59,11.51,8.3,18.569,10.037c0.255,0.427,0.409,1.012,0.784,1.244
			c2.2,1.363,4.527,4.316,6.696,3.436c2.225-0.901,0.757-4.434,0.854-6.787c0.204-4.945,0.109-9.902,0.139-14.854
			c0.231,0.221,0.463,0.439,0.694,0.658c1.329,1.353,2.151,2.973,2.093,4.871c-0.176,5.737,0.902,11.535-0.777,17.199
			c-0.953,1.877-2.68,2.239-4.552,2.215c-3.153-0.041-6.14,0.762-9.102,1.71c-0.772,0.198-1.551,0.2-2.328,0.038
			c-4.797-2.079-9.126-5.027-13.71-7.512c-1.424-0.773-2.835-1.683-3.137-3.516c-2.453-2.67-5.191-5.149-5.947-8.945
			C37.805,55.99,41.046,56.059,44.287,56.127z"/>
		<path class="st6" d="M63.188,34.001c3.384,2.253,6.004,5.149,7.443,8.997c0.649,1.732,1.104,3.506-0.449,5.07
			C65.352,44.623,62.533,40.176,63.188,34.001z"/>
		<path class="st12" d="M62.279,116.828c-5.927,3.398-11.854,6.795-17.777,10.191c-3.313,0.642-6.609,1.659-10.01,0.475
			c1-3.392,3.439-5.813,5.656-8.382c4.705-5.552,10.658-8.942,17.799-10.272c0.406,0.055,0.813,0.11,1.219,0.166
			c3.984-0.668,7.826,0.01,11.611,1.225c0.445,0.314,0.705,0.746,0.786,1.285C69.607,115.27,66.313,116.695,62.279,116.828z"/>
		<path class="st14" d="M62.279,116.828c2.876-1.83,5.72-3.721,8.967-4.867c1.285,1.001,1.785,2.445,1.785,3.941
			c-0.002,6.085,1.021,12.23-0.951,18.213c-4.256,2.179-6.88,5.818-8.922,9.978c-0.164-2.357-0.328-4.716-0.492-7.074
			C62.661,130.286,63.383,123.54,62.279,116.828z"/>
		<path class="st17" d="M40.281,85.063c6.072-2.936,11.835-6.406,17.482-10.078c0.361,0.009,0.722,0.017,1.082,0.025
			c4.193,0.371,7.746,1.785,9.627,5.92c-6.601,4.433-13.02,9.225-21.07,10.845c-3.992-2.108-8.322-2.626-12.745-2.696
			C36.532,87.74,38.407,86.401,40.281,85.063z"/>
		<path class="st27" d="M152.308,85.25c3.384,2.207,6.769,4.416,10.155,6.623c-1.318,0.734-2.639,1.469-3.957,2.203
			c-4.396,1.984-8.735,2.107-13.002-0.367c-5.33-3.205-10.781-6.217-16.188-9.307c-1.555-0.889-3.304-1.502-4.34-3.115
			c0.414-4.868,4.736-5.283,7.945-6.977c1.033-0.232,2.01,0.102,2.999,0.302C141.658,77.729,148.096,79.777,152.308,85.25z"/>
		<path class="st17" d="M145.132,91.894c4.218,2.184,8.72,2.64,13.371,2.184c-1.841,1.308-3.684,2.616-5.528,3.926
			c-6.24,3.5-12.479,7-18.717,10.5c-0.342-0.038-0.683-0.076-1.023-0.114c-4.564-0.338-8.478-1.707-10.256-6.467
			c6.261-2.859,12.318-6.115,18.311-9.5C142.473,91.752,143.805,91.738,145.132,91.894z"/>
		<path class="st14" d="M130.039,45.236c-0.065,6.098-0.051,12.197-0.228,18.293c-0.103,3.502,1.267,2.915,3.437,1.634
			c5.24-3.095,10.567-6.046,15.857-9.056c3.002-0.268,6.008-0.928,9.002,0.063c-1.324,3.287-3.393,6.05-5.96,8.461
			c-3.495,5.214-9.462,6.836-14.445,9.873c-0.813,0.496-1.843,0.695-2.675,1.248c-0.55-0.299-1.1-0.598-1.65-0.897
			c-3.961,0.457-7.756-1.433-11.73-0.822c-0.474-0.114-0.903-0.321-1.295-0.61c-0.551-0.799-0.362-1.287,0.611-1.44
			c6.578-1.758,9.26-5.729,8.332-12.729c-0.623-4.699,0.029-9.566,0.111-14.354C129.637,44.979,129.848,45.09,130.039,45.236z"/>
		<path class="st2" d="M66.781,103.119c1.186-0.411,2.371-0.822,3.558-1.233c3.636,1.824,2.74,4.941,2.269,7.94
			c-0.336,0.485-0.799,0.768-1.383,0.852c-4.2,0.744-8.299,0.762-12.059-1.672C60.924,106.033,64.93,105.971,66.781,103.119z"/>
		<path class="st14" d="M91.708,83.832c-0.076-7.586,1.153-15.226-0.937-22.729c0.46-0.125,0.92-0.251,1.379-0.377
			c3.477-0.751,5.492,2.225,8.273,3.246l0.25,0.261c2.297,1.009,1.416,3.075,1.459,4.732c0.118,4.601-0.393,9.221,0.49,13.8
			c-0.689,3.676-3.599,4.14-6.561,4.534C93.906,87.031,91.956,86.498,91.708,83.832z"/>
		<path class="st11" d="M100.424,63.973c-3.85,1.701-5.51-2.181-8.273-3.245c1.749-4.002,3.631-7.894,8.016-9.72
			C100.252,55.329,100.338,59.65,100.424,63.973z"/>
		<path class="st16" d="M100.83,99.955c-1.367-0.988-2.736-1.976-4.104-2.964c0.634-4.21,4.412-4.508,7.321-5.9
			c0.786-0.167,1.57-0.155,2.355,0.014c4.525,1.673,8.478,4.411,12.579,6.862c1.557,0.931,2.997,2.109,3.209,4.161
			c0.429,3.028,2.601,6.547-2.29,8.053C113.543,106.772,107.188,103.363,100.83,99.955z"/>
		<path class="st24" d="M119.9,110.181c2.273-2.696,0.32-6.015,1.311-8.899c1.191-0.818,1.737-0.064,2.193,0.904
			c3.276,2.066,6.552,4.135,9.828,6.203c-3.492,3.793-8.096,2.327-12.332,2.6C120.566,110.719,120.232,110.449,119.9,110.181z"/>
		<path class="st15" d="M91.384,99.932c-4.846,2.744-9.679,5.51-14.544,8.22c-1.542,0.858-2.953,2.152-4.947,1.831
			c-1.216-2.564,0.194-5.633-1.557-8.096c5.477-3.344,10.95-6.688,16.424-10.031c0.598-0.482,1.281-0.572,2.014-0.453
			c2.609,1.289,6.172,1.455,6.501,5.463C93.978,97.887,92.681,98.91,91.384,99.932z"/>
		<path class="st0" d="M95.274,96.865c-1.888-2.463-5.208-2.834-7.3-4.999c1.078-4.351,4.701-4.769,8.232-5.331
			c3.459,0.651,7.336,0.658,8.197,5.316c-2.559,1.713-5.117,3.427-7.678,5.141C96.242,96.949,95.758,96.906,95.274,96.865z"/>
		<path class="st9" d="M71.298,82.3c-1.015-0.399-2.028-0.798-3.042-1.196c-3.135-2.031-6.271-4.063-9.41-6.094
			c3.941-3.086,8.406-2.902,12.974-2.078c0.237,0.176,0.476,0.354,0.714,0.53C74.202,76.699,73.852,79.653,71.298,82.3z"/>
		<path class="st10" d="M125.594,80.5c-1.447,0.56-2.896,1.119-4.344,1.68c-2.771-2.979-2.469-5.996-0.115-9.04
			c4.373-1.518,8.436-0.821,12.241,1.716C130.783,76.736,128.188,78.618,125.594,80.5z"/>
		<path class="st15" d="M121.135,73.14c0.039,3.013,0.077,6.026,0.115,9.04c-5.198,3.229-10.396,6.456-15.596,9.685
			c-0.418-0.004-0.836-0.009-1.252-0.013c-2.508-2.245-5.482-3.668-8.584-4.869c0.043-0.199,0.086-0.398,0.129-0.598
			c1.888-0.906,3.775-1.813,5.658-2.717c6.191-3.563,12.389-7.128,18.588-10.693C120.507,73.033,120.82,73.088,121.135,73.14z"/>
		<path class="st18" d="M95.947,86.385c-0.129,0.182-0.172,0.38-0.128,0.598c-2.614,1.627-5.228,3.256-7.843,4.883
			c-0.408-0.002-0.814-0.006-1.219-0.009c-5.152-3.187-10.307-6.372-15.461-9.557c0.887-2.88-0.305-6.05,1.234-8.839
			c6.394,3.457,12.785,6.914,19.177,10.371C93.121,84.683,94.534,85.534,95.947,86.385z"/>
		<path class="st29" d="M100.428,50.147c-0.08-5.599-0.434-11.21-0.156-16.792c0.25-5.043-0.918-9.43-4.029-13.346
			C86.877,13.335,76.461,8.414,66.758,2.309c-3.648-2.295-4.022-0.663-3.98,2.598c0.121,9.319,0.076,18.641,0.098,27.959
			c0.105,0.378,0.209,0.757,0.313,1.136c2.337,4.687,6.584,8.425,6.995,14.068c0.383,0.378,0.765,0.757,1.147,1.136
			c0.328,0.613,0.652,1.229,1.125,1.749c5.97,3.979,12.067,7.74,18.543,10.849c0.475-0.006,0.934-0.089,1.375-0.264
			c3.044-3.068,4.826-7.146,8.072-10.041C100.602,51.045,100.597,50.596,100.428,50.147z M91.746,50.438
			c-5.905-3.421-10.927-6.334-15.953-9.239c-2.491-1.44-4.016-3.624-4.123-6.446c-0.205-5.481-0.125-10.973-0.212-16.459
			c-0.04-2.555,1.136-2.269,2.752-1.319c4.587,2.693,9.198,5.347,13.784,8.042c2.338,1.374,3.629,3.574,3.699,6.165
			C91.857,37.273,91.746,43.372,91.746,50.438z"/>
	</g>
	<path class="st33" d="M115.906,73.74l38.924,22.473l37.338-21.517L153.497,52.25L115.906,73.74z M158.462,82.842
		c-2.618,1.396-5.167,0.938-8.185-0.844l-14.757-8.451l14.685-8.396c1.879-1.087,5.214-2.239,8.18-0.527l16.035,9.258
		L158.462,82.842z"/>
	<path class="st19" d="M92.453,116.949v44.945l37.304,21.577l0.104-44.713L92.453,116.949z M105.85,158.354
		c-2.518-1.569-3.396-4.007-3.361-7.511l-0.06-17.005l14.613,8.52c1.881,1.083,4.547,3.396,4.547,6.82v18.515L105.85,158.354z"/>
	<path class="st19" d="M63.511,43.657l38.773,22.268l-0.035-43.096L63.325,0.356L63.511,43.657z M92.703,50.961l-16.032-9.256
		c-2.968-1.714-3.637-5.179-3.634-7.349l-0.071-16.915l14.697,8.552c3.05,1.724,4.724,3.702,4.824,6.668L92.703,50.961z"/>
	<path class="st3" d="M33.732,59.81l38.773,22.268l-0.032-43.096L33.55,16.509L33.732,59.81z M62.927,67.115l-16.034-9.259
		c-2.966-1.712-3.635-5.177-3.634-7.348l-0.071-16.915l14.697,8.554c3.052,1.723,4.725,3.701,4.823,6.665L62.927,67.115z"/>
	<path class="st33" d="M37.591,130.725l38.671-22.446L38.924,86.762L0,109.234L37.591,130.725z M58.514,109.094l-16.035,9.258
		c-2.966,1.712-6.301,0.56-8.18-0.527l-14.685-8.396l14.757-8.451c3.018-1.781,5.566-2.239,8.185-0.844L58.514,109.094z"/>
	<path class="st4" d="M37.59,96.213l38.672-22.445L38.923,52.25L0,74.723L37.59,96.213z M58.513,74.582L42.479,83.84
		c-2.966,1.713-6.301,0.561-8.18-0.527l-14.686-8.396l14.758-8.451c3.017-1.781,5.566-2.239,8.185-0.845L58.513,74.582z"/>
	<path class="st30" d="M33.713,166.257l38.857-22.588l-0.092-43.093L33.77,122.958L33.713,166.257z M62.777,133.868
		c-0.092,2.964-1.757,4.947-4.803,6.68l-14.672,8.6l0.021-16.917c-0.01-2.171,0.65-5.638,3.609-7.358l16.008-9.305L62.777,133.868z"
		/>
	<path class="st1" d="M62.323,182.745l38.779-22.723l-0.243-43.094l-38.63,22.518L62.323,182.745z M91.275,150.254
		c-0.082,2.966-1.741,4.955-4.781,6.697l-14.643,8.65l-0.037-16.917c-0.016-2.171,0.631-5.64,3.586-7.371l15.976-9.36
		L91.275,150.254z"/>
	<path class="st30" d="M158.051,61.686l0.029-44.714l-37.365,21.467l-0.133,44.945L158.051,61.686z M149.866,32.727l-0.054,18.516
		c-0.012,3.423-2.684,5.728-4.568,6.806l-14.64,8.477l0.111-17.006c-0.022-3.504,0.862-5.938,3.384-7.5L149.866,32.727z"/>
	<path class="st1" d="M129.836,44.713L130.021,0L92.58,21.336l-0.289,44.945L129.836,44.713z M121.752,15.725l-0.118,18.516
		c-0.022,3.426-2.702,5.72-4.591,6.791l-14.669,8.427l0.17-17.006c-0.011-3.504,0.882-5.936,3.41-7.489L121.752,15.725z"/>
	<path class="st32" d="M29.654,91.684l39.066,22.223l37.199-21.758L67.104,69.953L29.654,91.684z M72.268,100.512
		c-2.609,1.412-5.162,0.969-8.19-0.793l-14.813-8.355l14.632-8.49c1.872-1.1,5.199-2.273,8.177-0.58l16.093,9.155L72.268,100.512z"
		/>
	<path class="st33" d="M89.763,98.319l39.358-21.705l0.882-43.084L90.798,55.032L89.763,98.319z M119.552,66.596
		c-0.158,2.961-1.867,4.904-4.952,6.568l-14.862,8.268l0.403-16.913c0.04-2.171,0.777-5.622,3.774-7.275l16.215-8.941
		L119.552,66.596z"/>
	<path class="st33" d="M61.66,150.143l39.282-21.84l0.729-43.089l-39.127,21.641L61.66,150.143z M91.34,118.315
		c-0.149,2.962-1.854,4.913-4.934,6.587l-14.833,8.315l0.345-16.913c0.033-2.17,0.758-5.623,3.752-7.287l16.182-8.997L91.34,118.315
		z"/>
	<path class="st32" d="M84.847,90.593l38.99,22.357l37.273-21.626l-38.738-22.332L84.847,90.593z M127.428,99.569
		c-2.612,1.402-5.162,0.951-8.186-0.82l-14.784-8.406l14.662-8.439c1.875-1.094,5.207-2.256,8.177-0.554l16.063,9.211
		L127.428,99.569z"/>
	<path class="st4" d="M115.906,108.012l38.923,22.473l37.339-21.518l-38.672-22.445L115.906,108.012z M158.462,117.113
		c-2.618,1.395-5.168,0.937-8.185-0.845l-14.758-8.451l14.686-8.396c1.879-1.088,5.214-2.24,8.18-0.527l16.034,9.258
		L158.462,117.113z"/>
	<path class="st3" d="M122.521,101.827v44.945l37.304,21.577l0.104-44.713L122.521,101.827z M135.918,143.232
		c-2.518-1.569-3.396-4.007-3.361-7.511l-0.06-17.005l14.613,8.52c1.881,1.083,4.547,3.396,4.547,6.82v18.515L135.918,143.232z"/>
</g>
</svg>
