<?xml version="1.0" encoding="UTF-8" standalone="no"?>
<svg
   xmlns:dc="http://purl.org/dc/elements/1.1/"
   xmlns:cc="http://creativecommons.org/ns#"
   xmlns:rdf="http://www.w3.org/1999/02/22-rdf-syntax-ns#"
   xmlns:svg="http://www.w3.org/2000/svg"
   xmlns="http://www.w3.org/2000/svg"
   viewBox="0 0 512 512"
   height="512"
   width="512"
   id="svg4496"
   version="1.1">
  <metadata
     id="metadata4502">
    <rdf:RDF>
      <cc:Work
         rdf:about="">
        <dc:format>image/svg+xml</dc:format>
        <dc:type
           rdf:resource="http://purl.org/dc/dcmitype/StillImage" />
        <dc:title></dc:title>
      </cc:Work>
    </rdf:RDF>
  </metadata>
  <defs
     id="defs4500" />
  <path
     id="path5049"
     d="m 13.453147,499.50439 c -2.490731,-2.49086 -2.553145,-4.25534 -2.553145,-72.18389 v -69.63066 l 3.133379,-3.13345 3.133372,-3.13346 h 44.821694 c 44.395963,0 48.680163,0.3622 51.336053,4.34006 0.51625,0.77257 0.94688,33.05421 0.95773,71.73641 0.014,66.52976 -0.10677,70.44683 -2.31498,72.44543 -2.08307,1.88481 -7.37918,2.11257 -49.147943,2.11257 -45.110964,0 -46.905888,-0.0931 -49.36616,-2.55301 z m 128.492333,0.21855 c -1.93186,-2.13479 -2.11272,-11.85881 -2.11272,-113.61408 0,-109.57744 0.039,-111.31852 2.55322,-113.83228 2.45857,-2.45921 4.25507,-2.55351 48.56713,-2.55351 h 46.01443 l 3.13349,3.13331 3.13348,3.13352 v 109.28793 c 0,109.82311 -0.11891,112.98394 -4.34023,115.80251 -0.77241,0.51603 -22.42653,0.94675 -48.12034,0.95753 -43.65025,0.0149 -46.85443,-0.13355 -48.82846,-2.31493 z m 128.09669,-0.21855 c -2.50429,-2.50438 -2.5532,-4.25534 -2.5532,-91.33217 v -88.77934 l 3.13341,-3.13315 3.13326,-3.13336 h 44.82182 c 44.39584,0 48.68015,0.36195 51.3361,4.3397 0.51575,0.77262 0.94672,41.67087 0.95732,90.88523 0.0155,85.07979 -0.0961,89.58467 -2.31492,91.59353 -2.08277,1.88481 -7.37875,2.11257 -49.14737,2.11257 -45.11118,0 -46.90611,-0.0931 -49.36642,-2.55301 z m 129.76881,-1.0581 c -1.93841,-2.1419 -2.11242,-13.71628 -2.11242,-140.34947 V 220.08178 l 2.83742,-1.9872 c 2.44059,-1.70969 9.294,-1.98712 49.09742,-1.98712 45.94541,0 46.27836,0.0149 48.86381,2.7939 2.58593,2.77558 2.60279,3.68595 2.60279,139.78344 0,135.28762 -0.0309,137.02153 -2.55302,139.54302 -2.46096,2.46049 -4.25539,2.55331 -49.58824,2.55331 -43.94538,0 -47.17364,-0.1537 -49.14776,-2.33484 z M 46.674724,253.71557 c -9.649789,-2.70516 -16.583719,-7.04323 -23.430977,-14.65899 -8.143119,-9.05723 -11.49801,-18.28032 -11.597915,-31.88501 -0.07052,-9.61961 0.378592,-11.82148 3.958706,-19.40457 4.955993,-10.49761 13.473627,-19.25554 23.128997,-23.78135 6.51175,-3.05244 8.794002,-3.4151 21.831642,-3.47072 l 14.56003,-0.062 30.249673,-33.02316 30.24965,-33.023155 -1.81807,-5.849878 c -2.7327,-8.792886 -1.60078,-23.327505 2.51759,-32.323086 16.93425,-36.989423 68.73864,-37.853453 86.66231,-1.445413 5.02425,10.206611 6.29898,24.096586 3.14489,34.271186 -1.92189,6.198971 -1.89747,6.430538 0.99054,9.574204 1.62785,1.771942 14.60381,16.395102 28.83524,32.496022 l 25.87564,29.27437 14.2104,0.22328 c 7.81597,0.12239 15.20511,0.4487 16.42093,0.72475 1.51831,0.34482 16.56074,-13.38921 48.07713,-43.89539 l 45.86732,-44.397011 -1.30767,-4.736068 c -0.71897,-2.604875 -1.0661,-9.338378 -0.77064,-14.963209 0.44781,-8.532387 1.24184,-11.549634 4.79134,-18.208282 4.93818,-9.264151 12.33775,-16.545243 21.97146,-21.619016 6.21902,-3.275445 7.99341,-3.590472 20.22101,-3.590472 11.23749,0 14.41942,0.468214 19.68526,2.896681 13.8672,6.395153 23.27213,17.620419 27.0197,32.249032 5.6671,22.119279 -5.00417,44.787308 -25.93364,55.091005 -6.97225,3.43235 -9.70446,4.06025 -18.00582,4.13762 -5.38242,0.0497 -12.22897,-0.39024 -15.2143,-0.97879 l -5.42772,-1.06994 -45.40404,44.38223 -45.4041,44.38196 0.93939,6.47382 c 3.72883,25.69905 -7.80557,46.3616 -30.76154,55.10508 -8.22247,3.13177 -23.13697,3.2097 -31.91408,0.16647 -14.65111,-5.07942 -27.02813,-18.96534 -30.85715,-34.61884 -2.09887,-8.58219 -1.6838,-16.29426 1.51912,-28.2211 1.01757,-3.78982 -55.92596,-67.8183 -59.84209,-67.28717 -3.35364,0.45474 -19.40716,0.43388 -23.85473,-0.0304 -2.77342,-0.28987 -7.70859,4.49475 -33.62193,32.59649 l -30.37105,32.93589 1.54543,6.44145 c 2.46832,10.28951 1.06209,24.96948 -3.23334,33.74854 -9.966102,20.37038 -34.059182,31.38471 -55.502595,25.37331 z M 69.671317,227.5714 c 5.85486,-2.987 10.88937,-10.01147 12.14444,-16.94441 1.78855,-9.88111 -5.98551,-21.63348 -16.63556,-25.14826 -13.29262,-4.3871 -28.748951,7.20371 -28.748951,21.55892 0,17.46223 17.757811,28.43221 33.240071,20.53375 z M 459.84768,78.157622 c 16.69189,-6.306608 19.41615,-30.393658 4.52597,-40.012464 -9.82211,-6.344899 -20.33814,-5.267418 -28.52862,2.923089 -8.18801,8.188127 -9.26795,18.706482 -2.92765,28.521563 5.41932,8.38933 17.35328,12.186128 26.9303,8.567812 z"
     style="fill:#000000;stroke-width:1.27656317" />
</svg>
