<?xml version="1.0" encoding="UTF-8" standalone="no"?>
<svg
   xmlns:dc="http://purl.org/dc/elements/1.1/"
   xmlns:cc="http://creativecommons.org/ns#"
   xmlns:rdf="http://www.w3.org/1999/02/22-rdf-syntax-ns#"
   xmlns:svg="http://www.w3.org/2000/svg"
   xmlns="http://www.w3.org/2000/svg"
   id="svg4524"
   version="1.1"
   viewBox="0 0 512 512">
  <metadata
     id="metadata4530">
    <rdf:RDF>
      <cc:Work
         rdf:about="">
        <dc:format>image/svg+xml</dc:format>
        <dc:type
           rdf:resource="http://purl.org/dc/dcmitype/StillImage" />
        <dc:title></dc:title>
      </cc:Work>
    </rdf:RDF>
  </metadata>
  <defs
     id="defs4528" />
  <g
     id="flowRoot5075"
     style="font-style:normal;font-weight:normal;font-size:40px;line-height:1.25;font-family:sans-serif;letter-spacing:0px;word-spacing:0px;fill:#000000;fill-opacity:1;stroke:none"
     transform="matrix(13.164228,0,0,13.164228,76.328857,1697.5858)"
     aria-label="⑧">
    <path
       id="path5110"
       style=""
       d="m 27.242187,-123.10156 q 5.625,5.625 5.625,13.59375 0,7.96875 -5.625,13.593748 -5.625,5.625 -13.593749,5.625 -7.9687505,0 -13.5937505,-5.625 -5.625,-5.624998 -5.625,-13.593748 0,-7.96875 5.625,-13.59375 5.625,-5.625 13.5937505,-5.625 7.968749,0 13.593749,5.625 z m -1.09375,26.093748 q 5.15625,-5.156248 5.15625,-12.499998 0,-7.34375 -5.15625,-12.5 -5.15625,-5.15625 -12.499999,-5.15625 -7.3437505,0 -12.5000005,5.15625 -5.15625,5.15625 -5.15625,12.5 0,7.34375 5.15625,12.499998 5.15625,5.15625 12.5000005,5.15625 7.343749,0 12.499999,-5.15625 z M 13.492188,-120.28906 q -2.65625,0 -4.0625005,1.40625 -0.9375,0.9375 -0.9375,2.5 0,1.71875 0.78125,2.5 1.5625005,1.5625 4.2187505,1.5625 2.656249,0 4.218749,-1.5625 0.78125,-0.78125 0.78125,-2.5 0,-1.5625 -0.9375,-2.5 -1.40625,-1.40625 -4.062499,-1.40625 z m 3.906249,9.375 q 1.71875,0.625 3.125,2.03125 1.875,1.875 1.875,4.53125 0,3.4375 -2.5,5.937498 -2.1875,2.1875 -6.406249,2.1875 -4.3750005,0 -6.5625005,-2.1875 -2.34375,-2.343748 -2.34375,-5.937498 0,-2.65625 1.875,-4.53125 1.40625,-1.40625 3.125,-2.03125 -1.5625,-0.3125 -2.8125,-1.5625 -1.71875,-1.71875 -1.71875,-3.90625 0,-2.5 1.875,-4.375 2.5,-2.5 6.5625005,-2.5 4.218749,0 6.718749,2.5 1.71875,1.71875 1.71875,4.375 0,2.1875 -1.71875,3.90625 -1.09375,1.09375 -2.8125,1.5625 z m -3.906249,1.71875 q -2.65625,0 -4.0625005,1.40625 -1.40625,1.40625 -1.40625,3.4375 0,2.03125 1.40625,3.4375 1.4062505,1.406248 4.0625005,1.406248 2.656249,0 4.062499,-1.406248 1.25,-1.25 1.25,-3.4375 0,-2.03125 -1.40625,-3.4375 -1.406249,-1.40625 -3.906249,-1.40625 z" />
  </g>
</svg>
