<?xml version="1.0" encoding="UTF-8" standalone="no"?>
<svg
   xmlns:dc="http://purl.org/dc/elements/1.1/"
   xmlns:cc="http://creativecommons.org/ns#"
   xmlns:rdf="http://www.w3.org/1999/02/22-rdf-syntax-ns#"
   xmlns:svg="http://www.w3.org/2000/svg"
   xmlns="http://www.w3.org/2000/svg"
   xmlns:sodipodi="http://sodipodi.sourceforge.net/DTD/sodipodi-0.dtd"
   xmlns:inkscape="http://www.inkscape.org/namespaces/inkscape"
   viewBox="0 0 512 512"
   version="1.1"
   id="svg4524"
   sodipodi:docname="circled-0.svg"
   inkscape:version="0.92.1 r15371">
  <metadata
     id="metadata4530">
    <rdf:RDF>
      <cc:Work
         rdf:about="">
        <dc:format>image/svg+xml</dc:format>
        <dc:type
           rdf:resource="http://purl.org/dc/dcmitype/StillImage" />
        <dc:title></dc:title>
      </cc:Work>
    </rdf:RDF>
  </metadata>
  <defs
     id="defs4528" />
  <sodipodi:namedview
     pagecolor="#ffffff"
     bordercolor="#666666"
     borderopacity="1"
     objecttolerance="10"
     gridtolerance="10"
     guidetolerance="10"
     inkscape:pageopacity="0"
     inkscape:pageshadow="2"
     inkscape:window-width="1920"
     inkscape:window-height="1096"
     id="namedview4526"
     showgrid="false"
     inkscape:zoom="1.3037281"
     inkscape:cx="339.9344"
     inkscape:cy="210.2881"
     inkscape:window-x="1912"
     inkscape:window-y="-8"
     inkscape:window-maximized="1"
     inkscape:current-layer="svg4524" />
  <g
     aria-label="⓪"
     transform="matrix(13.164228,0,0,13.164228,76.328857,1697.5858)"
     style="font-style:normal;font-weight:normal;font-size:40px;line-height:1.25;font-family:sans-serif;letter-spacing:0px;word-spacing:0px;fill:#000000;fill-opacity:1;stroke:none"
     id="flowRoot5075">
    <path
       d="m 16.773437,-118.72656 q -1.406249,-1.40625 -3.281249,-1.40625 -1.875,0 -3.28125,1.40625 -1.8750005,1.875 -1.8750005,8.90625 v 0.15625 q 0,7.03125 1.8750005,8.90625 1.40625,1.406248 3.28125,1.406248 1.875,0 3.281249,-1.406248 1.875,-1.875 1.875,-8.90625 v -0.15625 q 0,-7.03125 -1.875,-8.90625 z m 3.125,-2.1875 q 2.65625,2.65625 2.65625,11.09375 v 0.15625 q 0,8.4375 -2.65625,11.093748 -2.65625,2.65625 -6.406249,2.65625 -3.7500005,0 -6.4062505,-2.65625 -2.65625,-2.656248 -2.65625,-11.093748 v -0.15625 q 0,-8.28125 2.8125,-11.09375 2.65625,-2.65625 6.2500005,-2.65625 3.749999,0 6.406249,2.65625 z m 7.34375,-2.1875 q 5.625,5.625 5.625,13.59375 0,7.96875 -5.625,13.593748 -5.625,5.625 -13.593749,5.625 -7.9687505,0 -13.5937505,-5.625 -5.625,-5.624998 -5.625,-13.593748 0,-7.96875 5.625,-13.59375 5.625,-5.625 13.5937505,-5.625 7.968749,0 13.593749,5.625 z m -1.09375,26.093748 q 5.15625,-5.156248 5.15625,-12.499998 0,-7.34375 -5.15625,-12.5 -5.15625,-5.15625 -12.499999,-5.15625 -7.3437505,0 -12.5000005,5.15625 -5.15625,5.15625 -5.15625,12.5 0,7.34375 5.15625,12.499998 5.15625,5.15625 12.5000005,5.15625 7.343749,0 12.499999,-5.15625 z"
       style=""
       id="path5083" />
  </g>
</svg>
