<?xml version="1.0" encoding="UTF-8" standalone="no"?>
<svg
   xmlns:dc="http://purl.org/dc/elements/1.1/"
   xmlns:cc="http://creativecommons.org/ns#"
   xmlns:rdf="http://www.w3.org/1999/02/22-rdf-syntax-ns#"
   xmlns:svg="http://www.w3.org/2000/svg"
   xmlns="http://www.w3.org/2000/svg"
   id="svg4524"
   version="1.1"
   viewBox="0 0 512 512">
  <metadata
     id="metadata4530">
    <rdf:RDF>
      <cc:Work
         rdf:about="">
        <dc:format>image/svg+xml</dc:format>
        <dc:type
           rdf:resource="http://purl.org/dc/dcmitype/StillImage" />
        <dc:title></dc:title>
      </cc:Work>
    </rdf:RDF>
  </metadata>
  <defs
     id="defs4528" />
  <g
     id="flowRoot5075"
     style="font-style:normal;font-weight:normal;font-size:40px;line-height:1.25;font-family:sans-serif;letter-spacing:0px;word-spacing:0px;fill:#000000;fill-opacity:1;stroke:none"
     transform="matrix(13.164228,0,0,13.164228,76.328857,1697.5858)"
     aria-label="⑦">
    <path
       id="path5107"
       style=""
       d="m 27.242187,-123.10156 q 5.625,5.625 5.625,13.59375 0,7.96875 -5.625,13.593748 -5.625,5.625 -13.593749,5.625 -7.9687505,0 -13.5937505,-5.625 -5.625,-5.624998 -5.625,-13.593748 0,-7.96875 5.625,-13.59375 5.625,-5.625 13.5937505,-5.625 7.968749,0 13.593749,5.625 z m -1.09375,26.093748 q 5.15625,-5.156248 5.15625,-12.499998 0,-7.34375 -5.15625,-12.5 -5.15625,-5.15625 -12.499999,-5.15625 -7.3437505,0 -12.5000005,5.15625 -5.15625,5.15625 -5.15625,12.5 0,7.34375 5.15625,12.499998 5.15625,5.15625 12.5000005,5.15625 7.343749,0 12.499999,-5.15625 z m -4.0625,-25.624998 v 2.34375 l -9.843749,23.906248 H 8.4921875 L 18.179687,-119.19531 H 4.7421875 v -3.4375 z" />
  </g>
</svg>
