<?xml version="1.0" encoding="UTF-8" standalone="no"?>
<svg
   xmlns:dc="http://purl.org/dc/elements/1.1/"
   xmlns:cc="http://creativecommons.org/ns#"
   xmlns:rdf="http://www.w3.org/1999/02/22-rdf-syntax-ns#"
   xmlns:svg="http://www.w3.org/2000/svg"
   xmlns="http://www.w3.org/2000/svg"
   id="svg4524"
   version="1.1"
   viewBox="0 0 512 512">
  <metadata
     id="metadata4530">
    <rdf:RDF>
      <cc:Work
         rdf:about="">
        <dc:format>image/svg+xml</dc:format>
        <dc:type
           rdf:resource="http://purl.org/dc/dcmitype/StillImage" />
        <dc:title></dc:title>
      </cc:Work>
    </rdf:RDF>
  </metadata>
  <defs
     id="defs4528" />
  <g
     id="flowRoot5075"
     style="font-style:normal;font-weight:normal;font-size:40px;line-height:1.25;font-family:sans-serif;letter-spacing:0px;word-spacing:0px;fill:#000000;fill-opacity:1;stroke:none"
     transform="matrix(13.164228,0,0,13.164228,76.328857,1697.5858)"
     aria-label="⑤">
    <path
       id="path5101"
       style=""
       d="m 4.7421875,-108.57031 1.25,-14.0625 H 21.460937 v 3.4375 H 8.9609375 l -0.625,7.1875 q 2.6562505,-1.875 5.6250005,-1.875 3.437499,0 5.781249,2.34375 2.34375,2.34375 2.34375,6.40625 0,4.375 -2.1875,6.562498 -2.5,2.5 -6.562499,2.5 -4.3750005,0 -6.7187505,-2.34375 -1.71875,-1.718748 -2.03125,-4.062498 h 4.375 q 0.3125,1.40625 1.0937505,2.1875 0.9375,0.937498 3.28125,0.937498 2.5,0 3.906249,-1.406248 1.25,-1.25 1.25,-4.375 0,-2.8125 -1.40625,-4.21875 -1.562499,-1.5625 -3.906249,-1.5625 -2.34375,0 -4.5312505,2.34375 z m 22.4999995,-14.53125 q 5.625,5.625 5.625,13.59375 0,7.96875 -5.625,13.593748 -5.625,5.625 -13.593749,5.625 -7.9687505,0 -13.5937505,-5.625 -5.625,-5.624998 -5.625,-13.593748 0,-7.96875 5.625,-13.59375 5.625,-5.625 13.5937505,-5.625 7.968749,0 13.593749,5.625 z m -1.09375,26.093748 q 5.15625,-5.156248 5.15625,-12.499998 0,-7.34375 -5.15625,-12.5 -5.15625,-5.15625 -12.499999,-5.15625 -7.3437505,0 -12.5000005,5.15625 -5.15625,5.15625 -5.15625,12.5 0,7.34375 5.15625,12.499998 5.15625,5.15625 12.5000005,5.15625 7.343749,0 12.499999,-5.15625 z" />
  </g>
</svg>
