<?xml version="1.0" encoding="UTF-8" standalone="no"?>
<svg
   xmlns:dc="http://purl.org/dc/elements/1.1/"
   xmlns:cc="http://creativecommons.org/ns#"
   xmlns:rdf="http://www.w3.org/1999/02/22-rdf-syntax-ns#"
   xmlns:svg="http://www.w3.org/2000/svg"
   xmlns="http://www.w3.org/2000/svg"
   id="svg4524"
   version="1.1"
   viewBox="0 0 512 512">
  <metadata
     id="metadata4530">
    <rdf:RDF>
      <cc:Work
         rdf:about="">
        <dc:format>image/svg+xml</dc:format>
        <dc:type
           rdf:resource="http://purl.org/dc/dcmitype/StillImage" />
        <dc:title></dc:title>
      </cc:Work>
    </rdf:RDF>
  </metadata>
  <defs
     id="defs4528" />
  <g
     id="flowRoot5075"
     style="font-style:normal;font-weight:normal;font-size:40px;line-height:1.25;font-family:sans-serif;letter-spacing:0px;word-spacing:0px;fill:#000000;fill-opacity:1;stroke:none"
     transform="matrix(13.164228,0,0,13.164228,76.328857,1697.5858)"
     aria-label="⑥">
    <path
       id="path5104"
       style=""
       d="m 27.242187,-123.10156 q 5.625,5.625 5.625,13.59375 0,7.96875 -5.625,13.593748 -5.625,5.625 -13.593749,5.625 -7.9687505,0 -13.5937505,-5.625 -5.625,-5.624998 -5.625,-13.593748 0,-7.96875 5.625,-13.59375 5.625,-5.625 13.5937505,-5.625 7.968749,0 13.593749,5.625 z m -1.09375,26.093748 q 5.15625,-5.156248 5.15625,-12.499998 0,-7.34375 -5.15625,-12.5 -5.15625,-5.15625 -12.499999,-5.15625 -7.3437505,0 -12.5000005,5.15625 -5.15625,5.15625 -5.15625,12.5 0,7.34375 5.15625,12.499998 5.15625,5.15625 12.5000005,5.15625 7.343749,0 12.499999,-5.15625 z M 8.1796875,-109.82031 q 2.3437505,-2.65625 5.9375005,-2.65625 3.437499,0 5.624999,2.1875 2.34375,2.34375 2.34375,6.09375 0,3.75 -2.34375,6.093748 -2.1875,2.1875 -5.937499,2.1875 -3.9062505,0 -6.0937505,-2.1875 -3.125,-3.124998 -3.125,-11.406248 0,-8.28125 3.28125,-11.5625 2.3437505,-2.34375 6.0937505,-2.34375 3.281249,0 4.999999,1.71875 2.03125,2.03125 2.65625,5.15625 h -3.90625 q -0.15625,-1.71875 -1.09375,-2.65625 -1.093749,-1.09375 -2.656249,-1.09375 -2.03125,0 -3.4375,1.40625 -2.3437505,2.34375 -2.3437505,7.03125 z m 5.6250005,0.15625 q -2.1875,0 -3.75,1.5625 -1.4062505,1.40625 -1.4062505,3.90625 0,2.34375 1.7187505,4.0625 1.25,1.249998 3.28125,1.249998 2.03125,0 3.281249,-1.249998 1.40625,-1.40625 1.40625,-4.0625 0,-2.65625 -1.5625,-4.21875 -1.249999,-1.25 -2.968749,-1.25 z" />
  </g>
</svg>
