<?xml version="1.0" encoding="UTF-8" standalone="no"?>
<svg
   xmlns:dc="http://purl.org/dc/elements/1.1/"
   xmlns:cc="http://creativecommons.org/ns#"
   xmlns:rdf="http://www.w3.org/1999/02/22-rdf-syntax-ns#"
   xmlns:svg="http://www.w3.org/2000/svg"
   xmlns="http://www.w3.org/2000/svg"
   id="svg4524"
   version="1.1"
   viewBox="0 0 512 512">
  <metadata
     id="metadata4530">
    <rdf:RDF>
      <cc:Work
         rdf:about="">
        <dc:format>image/svg+xml</dc:format>
        <dc:type
           rdf:resource="http://purl.org/dc/dcmitype/StillImage" />
        <dc:title></dc:title>
      </cc:Work>
    </rdf:RDF>
  </metadata>
  <defs
     id="defs4528" />
  <g
     id="flowRoot5075"
     style="font-style:normal;font-weight:normal;font-size:40px;line-height:1.25;font-family:sans-serif;letter-spacing:0px;word-spacing:0px;fill:#000000;fill-opacity:1;stroke:none"
     transform="matrix(13.164228,0,0,13.164228,76.328857,1697.5858)"
     aria-label="②">
    <path
       id="path5089"
       style=""
       d="m 21.773437,-115.60156 q 0,3.125 -2.1875,5.625 -1.875,1.71875 -4.843749,3.90625 -5.3125005,3.90625 -6.0937505,6.249998 H 22.554687 v 3.4375 H 4.5859375 v -3.125 q 1.5625,-3.749998 5.6250005,-7.031248 4.375,-3.4375 6.093749,-5.15625 1.71875,-1.5625 1.71875,-3.90625 0,-2.03125 -1.40625,-3.4375 -0.937499,-0.9375 -3.124999,-0.9375 -2.1875,0 -3.125,0.9375 -1.4062505,1.40625 -1.0937505,3.90625 h -3.90625 q -0.15625,-3.75 2.03125,-5.9375 2.34375,-2.34375 6.0937505,-2.34375 3.749999,0 5.937499,2.1875 2.34375,2.34375 2.34375,5.625 z m 5.46875,-7.5 q 5.625,5.625 5.625,13.59375 0,7.96875 -5.625,13.593748 -5.625,5.625 -13.593749,5.625 -7.9687505,0 -13.5937505,-5.625 -5.625,-5.624998 -5.625,-13.593748 0,-7.96875 5.625,-13.59375 5.625,-5.625 13.5937505,-5.625 7.968749,0 13.593749,5.625 z m -1.09375,26.093748 q 5.15625,-5.156248 5.15625,-12.499998 0,-7.34375 -5.15625,-12.5 -5.15625,-5.15625 -12.499999,-5.15625 -7.3437505,0 -12.5000005,5.15625 -5.15625,5.15625 -5.15625,12.5 0,7.34375 5.15625,12.499998 5.15625,5.15625 12.5000005,5.15625 7.343749,0 12.499999,-5.15625 z" />
  </g>
</svg>
