<?xml version="1.0" encoding="UTF-8" standalone="no"?>
<svg
   xmlns:dc="http://purl.org/dc/elements/1.1/"
   xmlns:cc="http://creativecommons.org/ns#"
   xmlns:rdf="http://www.w3.org/1999/02/22-rdf-syntax-ns#"
   xmlns:svg="http://www.w3.org/2000/svg"
   xmlns="http://www.w3.org/2000/svg"
   xml:space="preserve"
   enable-background="new 0 0 512 512"
   viewBox="0 0 512 512"
   height="512px"
   width="512px"
   y="0px"
   x="0px"
   id="Layer_1"
   version="1.1"><metadata
     id="metadata3473"><rdf:RDF><cc:Work
         rdf:about=""><dc:format>image/svg+xml</dc:format><dc:type
           rdf:resource="http://purl.org/dc/dcmitype/StillImage" /><dc:title></dc:title></cc:Work></rdf:RDF></metadata><defs
     id="defs3471" /><g
     id="g3451"><polygon
       id="polygon3453"
       points="325.3,64 160,64 160,112 112,112 112,448 352,448 352,400 400,400 400,139  " /><polygon
       id="polygon3455"
       points="384,384 176,384 176,80 318.7,80 384,145.6  "
       fill="#FFFFFF" /><path
       id="path3457"
       d="M304,96h-16v80h80v-16h-64V96z" /><polygon
       id="polygon3459"
       points="336,432 128,432 128,128 160,128 160,400 336,400  "
       fill="#FFFFFF" /><g
       id="g3461"><path
         id="path3463"
         d="M204,290.364h110.544v20.73H204V290.364z M204,248.911h138.182v20.728H204V248.911z M204,207.455h152v20.728H204V207.455z    " /><g
         id="g3465"><path
           id="path3467"
           d="M204,331.82h124.362v20.725H204V331.82z" /></g></g></g></svg>