<?xml version="1.0" encoding="UTF-8" standalone="no"?>
<svg
   xmlns:dc="http://purl.org/dc/elements/1.1/"
   xmlns:cc="http://creativecommons.org/ns#"
   xmlns:rdf="http://www.w3.org/1999/02/22-rdf-syntax-ns#"
   xmlns:svg="http://www.w3.org/2000/svg"
   xmlns="http://www.w3.org/2000/svg"
   xml:space="preserve"
   enable-background="new 0 0 512 512"
   viewBox="0 0 512 512"
   height="512px"
   width="512px"
   y="0px"
   x="0px"
   id="Layer_1"
   version="1.1"><metadata
     id="metadata3594"><rdf:RDF><cc:Work
         rdf:about=""><dc:format>image/svg+xml</dc:format><dc:type
           rdf:resource="http://purl.org/dc/dcmitype/StillImage" /><dc:title></dc:title></cc:Work></rdf:RDF></metadata><defs
     id="defs3592" /><g
     id="g3560"><polygon
       id="polygon3562"
       points="325.3,64 160,64 160,112 112,112 112,448 352,448 352,400 400,400 400,139  " /><polygon
       id="polygon3564"
       points="384,384 176,384 176,80 318.7,80 384,145.6  "
       fill="#FFFFFF" /><path
       id="path3566"
       d="M304,96h-16v80h80v-16h-64V96z" /><polygon
       id="polygon3568"
       points="336,432 128,432 128,128 160,128 160,400 336,400  "
       fill="#FFFFFF" /><g
       id="g3570"><rect
         id="rect3572"
         height="38"
         width="38"
         stroke-miterlimit="10"
         stroke-width="5"
         stroke="#000000"
         fill="none"
         y="204"
         x="204" /><rect
         id="rect3574"
         height="38"
         width="38"
         stroke-miterlimit="10"
         stroke-width="5"
         stroke="#000000"
         fill="none"
         y="318"
         x="261" /><rect
         id="rect3576"
         height="38"
         width="38"
         stroke-miterlimit="10"
         stroke-width="5"
         stroke="#000000"
         fill="none"
         y="318"
         x="204" /><rect
         id="rect3578"
         height="38"
         width="38"
         stroke-miterlimit="10"
         stroke-width="5"
         stroke="#000000"
         fill="none"
         y="261"
         x="204" /><rect
         id="rect3580"
         height="38"
         width="38"
         stroke-miterlimit="10"
         stroke-width="5"
         stroke="#000000"
         fill="none"
         y="261"
         x="261" /><rect
         id="rect3582"
         height="38"
         width="38"
         stroke-miterlimit="10"
         stroke-width="5"
         stroke="#000000"
         fill="none"
         y="204"
         x="318" /><rect
         id="rect3584"
         height="38"
         width="38"
         stroke-miterlimit="10"
         stroke-width="5"
         stroke="#000000"
         fill="none"
         y="204"
         x="261" /><rect
         id="rect3586"
         height="38"
         width="38"
         stroke-miterlimit="10"
         stroke-width="5"
         stroke="#000000"
         fill="none"
         y="261"
         x="318" /><rect
         id="rect3588"
         height="38"
         width="38"
         stroke-miterlimit="10"
         stroke-width="5"
         stroke="#000000"
         fill="none"
         y="318"
         x="318" /></g></g></svg>