<?xml version="1.0" encoding="UTF-8" standalone="no"?>
<svg
   xmlns:dc="http://purl.org/dc/elements/1.1/"
   xmlns:cc="http://creativecommons.org/ns#"
   xmlns:rdf="http://www.w3.org/1999/02/22-rdf-syntax-ns#"
   xmlns:svg="http://www.w3.org/2000/svg"
   xmlns="http://www.w3.org/2000/svg"
   xml:space="preserve"
   enable-background="new 0 0 512 512"
   viewBox="0 0 512 512"
   height="512px"
   width="512px"
   y="0px"
   x="0px"
   id="Layer_1"
   version="1.1"><metadata
     id="metadata3502"><rdf:RDF><cc:Work
         rdf:about=""><dc:format>image/svg+xml</dc:format><dc:type
           rdf:resource="http://purl.org/dc/dcmitype/StillImage" /><dc:title></dc:title></cc:Work></rdf:RDF></metadata><defs
     id="defs3500" /><g
     id="g3476"><polygon
       id="polygon3478"
       points="325.3,64 160,64 160,112 112,112 112,448 352,448 352,400 400,400 400,139  " /><polygon
       id="polygon3480"
       points="384,384 176,384 176,80 318.7,80 384,145.6  "
       fill="#FFFFFF" /><path
       id="path3482"
       d="M304,96h-16v80h80v-16h-64V96z" /><polygon
       id="polygon3484"
       points="336,432 128,432 128,128 160,128 160,400 336,400  "
       fill="#FFFFFF" /><g
       id="g3486"><path
         id="path3488"
         d="M349.671,210.345v139.344H210.346V210.345H349.671 M356,204H204v152h152V204z" /><path
         id="path3490"
         d="M254.655,238.845h76.018v6.31h-76.018V238.845z M254.655,276.83h76.018v6.339h-76.018V276.83z M254.655,314.831h76.018    v6.338h-76.018V314.831z" /><path
         id="path3492"
         d="M235.655,235.654c3.487,0,6.345,2.834,6.345,6.346s-2.857,6.345-6.345,6.345c-3.489,0-6.31-2.833-6.31-6.345    S232.166,235.654,235.655,235.654z" /><path
         id="path3494"
         d="M235.655,273.669c3.487,0,6.345,2.845,6.345,6.331s-2.857,6.33-6.345,6.33c-3.489,0-6.31-2.844-6.31-6.33    S232.166,273.669,235.655,273.669z" /><path
         id="path3496"
         d="M235.655,311.669c3.487,0,6.345,2.845,6.345,6.331s-2.857,6.328-6.345,6.328c-3.489,0-6.31-2.842-6.31-6.328    S232.166,311.669,235.655,311.669z" /></g></g></svg>