<?xml version="1.0" encoding="utf-8"?>
<!-- Generator: Adobe Illustrator 16.0.0, SVG Export Plug-In . SVG Version: 6.00 Build 0)  -->
<!DOCTYPE svg PUBLIC "-//W3C//DTD SVG 1.1//EN" "http://www.w3.org/Graphics/SVG/1.1/DTD/svg11.dtd">
<svg version="1.1" id="Layer_1" xmlns="http://www.w3.org/2000/svg" xmlns:xlink="http://www.w3.org/1999/xlink" x="0px" y="0px"
	 width="512px" height="512px" viewBox="0 0 512 512" enable-background="new 0 0 512 512" xml:space="preserve">
<g>
	<path fill-rule="evenodd" clip-rule="evenodd" fill="none" d="M230,0c94,0,188,0,282,0c0,170.667,0,341.333,0,512
		c-39.333,0-78.667,0-118,0c1.278-0.314,2.54-0.782,3.838-0.92c52.138-5.564,96.066-43.454,109.094-94.232
		c1.376-5.363,2.283-10.846,3.468-16.566c-16.578,0-32.188,0-47.74,0c-11.484,48.152-57.367,72.042-98.584,61.233
		c-42.198-11.067-67.423-52.442-58.183-95.112c7.822-36.12,46.833-67.169,78.354-61.771c0,20.711,0,41.534,0,63.107
		c42.853-26.793,84.921-53.096,127.577-79.767c-42.94-26.836-84.954-53.092-127.845-79.896c0,16.547,0,32.081,0,47.441
		c-7.514,0.839-14.485,1.32-21.355,2.431c-57.855,9.354-101.009,57.057-106.308,117.359c-4.905,55.813,31.56,111.218,85.704,129.374
		c10.317,3.46,21.303,4.93,31.979,7.318c-124.545,0-249.091,0-374,0c0-46.333,0-92.666,0-139c4.765,17.7,17.522,28.575,32.337,37.58
		c16.049,9.756,33.495,16.254,51.471,21.408c36.746,10.536,74.388,14.811,112.471,15.813c9.083,0.238,18.177,0.035,27.38,0.035
		c0-11.415,0-21.5,0-31.804c-1.24-0.068-2.209-0.191-3.175-0.164c-27.71,0.787-55.295-0.727-82.701-4.885
		c-26.908-4.082-53.332-10.16-78.098-21.796c-7.625-3.582-14.736-8.353-21.782-13.031c-4.167-2.767-6.217-6.834-6.086-12.347
		c0.351-14.824,0.11-29.662,0.133-44.494c0.002-1.375,0.212-2.75,0.362-4.567c29.442,16.741,60.973,25.226,93.481,30.546
		c32.393,5.301,64.96,7.896,97.84,5.905c0-10.863,0-20.949,0-31.184c-1.113-0.087-1.923-0.229-2.728-0.202
		c-25.368,0.846-50.634-0.448-75.785-3.81c-28.811-3.852-57.102-9.923-83.687-22.044c-8.259-3.765-15.938-8.904-23.583-13.875
		c-4.193-2.727-6.171-6.828-6.029-12.35c0.376-14.655,0.111-29.327,0.126-43.993c0.001-1.526,0.167-3.054,0.207-3.733
		c14.135,5.737,27.686,12.228,41.853,16.81c50.207,16.24,101.989,20.487,154.436,18.628c9.084-0.322,18.153-1.104,27.24-1.673
		c0-10.972,0-21.242,0-31.656c-2.389,0-4.528-0.176-6.631,0.026c-28.455,2.731-56.907,2.461-85.349-0.108
		c-31.789-2.871-62.985-8.611-92.909-20.062c-11.833-4.527-23.361-9.745-33.191-18.037c-3.914-3.302-5.905-7.131-5.783-12.55
		c0.33-14.658,0.116-29.329,0.143-43.994c0.003-1.388,0.178-2.775,0.28-4.256c55.485,29.122,115.147,36.641,176.067,36.61
		c60.844-0.03,120.43-7.636,176.038-36.91c0,12.768,0,24.842,0,36.769c10.764,0,21.018,0,31.585,0c0-2.151,0-3.963,0-5.774
		c0.006-23.331-0.234-46.666,0.117-69.992c0.187-12.33-4.313-22.342-12.628-30.989c-10.101-10.503-22.396-17.793-35.508-23.746
		C331.662,12.646,293.121,5.705,253.818,2.051C245.884,1.313,237.939,0.681,230,0z"/>
	<path fill-rule="evenodd" clip-rule="evenodd" d="M230,0c7.939,0.681,15.884,1.313,23.818,2.051
		c39.303,3.654,77.844,10.595,114.098,27.053c13.112,5.953,25.407,13.243,35.508,23.746c8.315,8.647,12.814,18.659,12.628,30.989
		c-0.352,23.326-0.111,46.661-0.117,69.992c0,1.812,0,3.623,0,5.774c-10.567,0-20.821,0-31.585,0c0-11.927,0-24.001,0-36.769
		c-55.608,29.274-115.194,36.88-176.038,36.91c-60.92,0.03-120.582-7.488-176.067-36.61c-0.102,1.48-0.277,2.868-0.28,4.256
		c-0.026,14.665,0.188,29.336-0.143,43.994c-0.123,5.419,1.869,9.248,5.783,12.55c9.831,8.292,21.359,13.51,33.191,18.037
		c29.924,11.45,61.12,17.19,92.909,20.062c28.442,2.569,56.894,2.84,85.349,0.108c2.103-0.202,4.242-0.026,6.631-0.026
		c0,10.414,0,20.685,0,31.656c-9.087,0.569-18.156,1.351-27.24,1.673c-52.447,1.859-104.229-2.388-154.436-18.628
		c-14.167-4.582-27.718-11.072-41.853-16.81c-0.04,0.68-0.206,2.207-0.207,3.733c-0.015,14.666,0.25,29.338-0.126,43.993
		c-0.142,5.521,1.836,9.623,6.029,12.35c7.645,4.971,15.324,10.11,23.583,13.875c26.585,12.121,54.876,18.192,83.687,22.044
		c25.15,3.361,50.417,4.655,75.785,3.81c0.804-0.027,1.614,0.115,2.728,0.202c0,10.234,0,20.32,0,31.184
		c-32.88,1.99-65.447-0.604-97.84-5.905c-32.508-5.32-64.039-13.805-93.481-30.546c-0.15,1.817-0.36,3.192-0.362,4.567
		c-0.023,14.832,0.218,29.67-0.133,44.494c-0.131,5.513,1.918,9.58,6.086,12.347c7.046,4.679,14.158,9.449,21.782,13.031
		c24.766,11.636,51.19,17.714,78.098,21.796c27.406,4.158,54.991,5.672,82.701,4.885c0.965-0.027,1.935,0.096,3.175,0.164
		c0,10.304,0,20.389,0,31.804c-9.203,0-18.297,0.203-27.38-0.035c-38.083-1.002-75.725-5.276-112.471-15.813
		c-17.976-5.154-35.421-11.652-51.471-21.408C17.522,401.575,4.765,390.7,0,373c0-99.333,0-198.667,0-298
		c4.44-16.52,15.936-27.278,29.783-35.924c6.049-3.777,12.373-7.216,18.866-10.161C84.724,12.556,123.087,5.71,162.188,2.074
		C170.452,1.307,178.729,0.688,187,0C201.333,0,215.667,0,230,0z M211.698,31.865c-42.818,0.153-81.964,4.022-120.147,15.151
		c-18.26,5.322-36.153,11.655-51.625,23.16c-10.189,7.577-10.442,12.72,0.265,19.627c9.714,6.267,20.096,11.88,30.846,16.089
		c37.296,14.605,76.488,20.082,116.231,21.717c46.324,1.905,92.168-1.704,136.941-14.59c18.111-5.212,35.849-11.514,51.254-22.801
		c10.984-8.048,11.315-13.346-0.281-20.476c-11.249-6.917-23.223-13.124-35.608-17.64C297.306,36.694,253.18,32.274,211.698,31.865z
		"/>
	<path fill-rule="evenodd" clip-rule="evenodd" d="M374,512c-10.677-2.389-21.662-3.858-31.979-7.318
		c-54.145-18.156-90.609-73.562-85.704-129.374c5.299-60.303,48.452-108.005,106.308-117.359c6.87-1.11,13.842-1.592,21.355-2.431
		c0-15.36,0-30.895,0-47.441c42.891,26.805,84.904,53.061,127.845,79.896c-42.656,26.671-84.725,52.974-127.577,79.767
		c0-21.573,0-42.396,0-63.107c-31.521-5.398-70.532,25.65-78.354,61.771c-9.24,42.67,15.984,84.045,58.183,95.112
		c41.217,10.809,87.1-13.081,98.584-61.233c15.552,0,31.162,0,47.74,0c-1.185,5.721-2.092,11.203-3.468,16.566
		c-13.027,50.778-56.956,88.668-109.094,94.232c-1.298,0.138-2.56,0.605-3.838,0.92C387.333,512,380.667,512,374,512z"/>
	<path fill-rule="evenodd" clip-rule="evenodd" fill="none" d="M187,0c-8.271,0.688-16.548,1.307-24.812,2.074
		C123.087,5.71,84.724,12.556,48.649,28.915c-6.493,2.945-12.817,6.384-18.866,10.161C15.936,47.722,4.44,58.48,0,75C0,50,0,25,0,0
		C62.333,0,124.667,0,187,0z"/>
	<path fill-rule="evenodd" clip-rule="evenodd" fill="none" d="M211.698,31.865c41.482,0.409,85.607,4.829,127.875,20.238
		c12.386,4.516,24.359,10.723,35.608,17.64c11.597,7.13,11.266,12.428,0.281,20.476c-15.405,11.287-33.143,17.589-51.254,22.801
		c-44.772,12.886-90.617,16.495-136.941,14.59c-39.743-1.635-78.935-7.111-116.231-21.717c-10.75-4.209-21.132-9.822-30.846-16.089
		c-10.707-6.907-10.454-12.05-0.265-19.627c15.471-11.505,33.365-17.838,51.625-23.16C129.734,35.888,168.88,32.019,211.698,31.865z
		"/>
</g>
</svg>
