<?xml version="1.0"?>
<svg xmlns="http://www.w3.org/2000/svg" viewBox="0 0 50 50">
    <path style="line-height:normal;text-indent:0;text-align:start;text-decoration-line:none;text-decoration-style:solid;text-decoration-color:#000;text-transform:none;block-progression:tb;isolation:auto;mix-blend-mode:normal" d="M 23 1 C 15.77381 1 10.445563 3.4910019 7 7.4003906 C 3.554437 11.309779 2 16.559524 2 22 C 2 26.406349 3.3650802 30.506168 5.6757812 33.867188 C 7.7705902 36.914181 9 40.521441 9 44.199219 L 9 49 L 11 49 L 11 44.199219 C 11 40.076997 9.6294098 36.08738 7.3242188 32.734375 C 5.2349198 29.695395 4 25.993651 4 22 C 4 16.940476 5.445563 12.190221 8.5 8.7246094 C 11.554437 5.2589981 16.22619 3 23 3 C 29.802381 3 34.207166 4.9789703 37.117188 8.0058594 C 40.027208 11.032748 41.474081 15.204341 42.007812 19.716797 L 42.03125 19.923828 L 46.826172 28.185547 C 47.074892 28.633244 46.95029 29.078295 46.515625 29.322266 L 42 31.582031 L 42 37.599609 C 42 41.34147 38.921743 44.251123 35.193359 43.904297 L 35.177734 43.902344 L 31 43.632812 L 31 49 L 33 49 L 33 45.765625 L 35.007812 45.896484 C 39.87943 46.349658 44 42.457749 44 37.599609 L 44 32.818359 L 47.466797 31.083984 L 47.486328 31.074219 C 48.848147 30.317653 49.324676 28.565667 48.574219 27.214844 L 48.570312 27.207031 L 43.921875 19.197266 C 43.327137 14.515148 41.805351 9.9962901 38.558594 6.6191406 C 35.243615 3.1710297 30.197619 1 23 1 z M 24.998047 13.986328 A 1.0001 1.0001 0 0 0 24.021484 14.791016 L 21.021484 28.791016 A 1.0005838 1.0005838 0 1 0 22.978516 29.208984 L 25.978516 15.208984 A 1.0001 1.0001 0 0 0 24.998047 13.986328 z M 16.537109 16.988281 A 1.0001 1.0001 0 0 0 15.699219 17.400391 L 12.25 22 L 15.699219 26.599609 A 1.0003905 1.0003905 0 0 0 17.300781 25.400391 L 14.75 22 L 17.300781 18.599609 A 1.0001 1.0001 0 0 0 16.537109 16.988281 z M 30.433594 16.990234 A 1.0001 1.0001 0 0 0 29.699219 18.599609 L 32.25 22 L 29.699219 25.400391 A 1.0003905 1.0003905 0 0 0 31.300781 26.599609 L 34.75 22 L 31.300781 17.400391 A 1.0001 1.0001 0 0 0 30.433594 16.990234 z" font-weight="400" font-family="sans-serif" white-space="normal" overflow="visible"/>
</svg>
