<?xml version="1.0" encoding="utf-8"?>
<!-- Generator: Adobe Illustrator 16.0.0, SVG Export Plug-In . SVG Version: 6.00 Build 0)  -->
<!DOCTYPE svg PUBLIC "-//W3C//DTD SVG 1.1//EN" "http://www.w3.org/Graphics/SVG/1.1/DTD/svg11.dtd">
<svg version="1.1" id="Layer_1" xmlns="http://www.w3.org/2000/svg" xmlns:xlink="http://www.w3.org/1999/xlink" x="0px" y="0px"
	 width="512px" height="512px" viewBox="0 0 512 512" enable-background="new 0 0 512 512" xml:space="preserve">
<g>
	<path fill-rule="evenodd" clip-rule="evenodd" fill="none" d="M0,462.603c0-137.735,0-275.47,0-413.205c170.667,0,341.334,0,512,0
		c0,137.735,0,275.47,0,413.205C341.334,462.603,170.667,462.603,0,462.603z M84.204,362.663c114.694,0,229.04,0,343.591,0
		c0-1.269,0-2.303,0-3.337c0-12.64,0.001-25.28,0.001-37.92c0.001-70.484,0.002-140.967-0.001-211.45
		c0-13.337-7.182-21.546-18.815-21.547c-80.823-0.002-161.646-0.007-242.468-0.008c-21.164,0-42.327,0.008-63.49,0.012
		c-11.706,0.002-18.816,8.121-18.817,21.513c-0.002,83.039-0.001,166.078,0,249.117C84.204,360.17,84.204,361.297,84.204,362.663z
		 M15.504,382.669c0,5.691,0.26,11.114-0.078,16.49c-0.299,4.767,1.565,7.74,5.042,9.443c4.19,2.053,8.451,4.099,12.853,5.367
		c18.839,5.427,38.1,7.384,57.446,7.498c48.077,0.283,96.156,0.175,144.233,0.191c59.077,0.019,118.154,0.036,177.23-0.012
		c21.612-0.018,43.139-1.429,64.261-7.078c5.142-1.375,10.122-3.692,15.033-5.977c3.499-1.628,5.553-4.677,5.008-9.432
		c-0.235-2.058-0.039-4.18-0.039-6.271c0-3.388,0-6.773,0-10.125c-66.039,0-131.724,0-197.555,0c0,1.771,0,3.283,0,4.795
		c0.004,9.217-0.357,9.63-8.437,9.631c-23.831,0.002-47.662,0.005-71.493,0.003c-4.536-0.001-5.947-1.548-5.952-6.481
		c-0.002-2.633,0-5.266,0-8.043C147.125,382.669,81.497,382.669,15.504,382.669z"/>
	<path fill-rule="evenodd" clip-rule="evenodd" d="M84.204,362.663c0-1.366,0-2.493,0-3.62c0-83.039-0.001-166.078,0-249.117
		c0.001-13.392,7.111-21.511,18.817-21.513c21.163-0.004,42.327-0.013,63.49-0.012c80.822,0.001,161.645,0.006,242.468,0.008
		c11.634,0,18.815,8.209,18.815,21.547c0.003,70.483,0.002,140.966,0.001,211.45c0,12.64-0.001,25.28-0.001,37.92
		c0,1.034,0,2.068,0,3.337C313.244,362.663,198.898,362.663,84.204,362.663z M410.497,108.225c-103.156,0-206.01,0-308.84,0
		c0,78.471,0,156.682,0,234.946c103.063,0,205.916,0,308.84,0C410.497,264.795,410.497,186.641,410.497,108.225z"/>
	<path fill-rule="evenodd" clip-rule="evenodd" d="M15.504,382.669c65.992,0,131.621,0,197.554,0c0,2.777-0.002,5.41,0,8.043
		c0.005,4.934,1.417,6.48,5.952,6.481c23.831,0.002,47.662-0.001,71.493-0.003c8.079-0.001,8.44-0.414,8.437-9.631
		c0-1.512,0-3.023,0-4.795c65.831,0,131.516,0,197.555,0c0,3.352,0,6.737,0,10.125c0,2.092-0.196,4.214,0.039,6.271
		c0.545,4.755-1.509,7.804-5.008,9.432c-4.911,2.284-9.892,4.602-15.033,5.977c-21.122,5.649-42.648,7.061-64.261,7.078
		c-59.076,0.048-118.153,0.03-177.23,0.012c-48.078-0.017-96.156,0.092-144.233-0.191c-19.347-0.114-38.607-2.071-57.446-7.498
		c-4.402-1.269-8.663-3.314-12.853-5.367c-3.478-1.703-5.341-4.677-5.042-9.443C15.764,393.783,15.504,388.36,15.504,382.669z"/>
	<path fill-rule="evenodd" clip-rule="evenodd" fill="none" d="M410.497,108.225c0,78.416,0,156.57,0,234.946
		c-102.924,0-205.777,0-308.84,0c0-78.264,0-156.475,0-234.946C204.487,108.225,307.341,108.225,410.497,108.225z M130.554,228.836
		c0.838,0.612,1.305,0.994,1.803,1.31c17.743,11.257,35.486,22.516,53.238,33.756c4.58,2.899,9.138,5.854,13.806,8.561
		c3.573,2.07,6.94,0.813,8.769-2.896c2.002-4.06,1.24-7.711-2.191-10.343c-0.966-0.74-1.969-1.426-2.987-2.07
		c-12.369-7.832-24.747-15.644-37.115-23.479c-2.289-1.45-4.541-2.977-7.123-4.673c0.914-0.763,1.398-1.266,1.956-1.619
		c9.75-6.16,19.522-12.274,29.26-18.46c5.524-3.509,11.088-6.958,16.452-10.767c3.089-2.193,3.633-6.248,1.892-9.776
		c-1.62-3.283-4.979-4.716-8.135-3.36c-1.318,0.565-2.597,1.288-3.831,2.068c-12.805,8.107-25.597,16.243-38.394,24.367
		C148.949,217.172,139.939,222.884,130.554,228.836z M374.468,228.998c-0.709-0.566-1.151-0.988-1.646-1.302
		c-16.436-10.424-32.866-20.856-49.319-31.245c-6.037-3.813-12.049-7.695-18.22-11.209c-3.45-1.964-6.799-0.326-8.626,3.507
		c-1.605,3.365-0.778,7.314,2.303,9.681c2.583,1.984,5.315,3.737,8.08,5.378c0.725,0.43,1.813,0.064,2.335,0.064
		c0.58,0.834,1.002,1.953,1.742,2.428c8.77,5.634,17.592,11.164,26.39,16.741c2.874,1.821,5.72,3.702,9.115,5.903
		c-5.119,3.256-9.678,6.144-14.225,9.05c-11.104,7.098-22.234,14.141-33.282,21.348c-3.146,2.053-4.084,6.232-2.582,9.607
		c1.72,3.863,5.082,5.434,8.579,3.874c1.389-0.618,2.707-1.465,4.015-2.295c17.094-10.835,34.18-21.684,51.264-32.536
		C365.025,235.049,369.647,232.079,374.468,228.998z M229.524,291.977c2.043,0.112,3.91-0.904,5.152-3.226
		c0.736-1.375,1.469-2.767,2.062-4.226c6.018-14.801,11.995-29.625,18.007-44.43c6.226-15.331,12.491-30.642,18.711-45.975
		c2.831-6.979,5.744-13.922,8.34-21.014c1.637-4.472,0.176-8.246-3.301-9.968c-3.3-1.636-6.765-0.279-8.556,3.798
		c-2.943,6.702-5.672,13.527-8.451,20.322c-11.439,27.959-22.873,55.921-34.279,83.896c-1.507,3.696-3.115,7.381-4.202,11.244
		C221.596,287.415,224.683,291.904,229.524,291.977z"/>
	<path fill-rule="evenodd" clip-rule="evenodd" d="M158.755,229.002c2.582,1.697,4.833,3.224,7.123,4.673
		c12.368,7.834,24.746,15.646,37.115,23.479c1.018,0.645,2.021,1.33,2.987,2.07c3.431,2.632,4.193,6.283,2.191,10.343
		c-1.829,3.709-5.196,4.966-8.769,2.896c-4.668-2.707-9.226-5.661-13.806-8.561c-17.752-11.24-35.495-22.499-53.238-33.756
		c-0.499-0.316-0.965-0.698-1.803-1.31c9.385-5.952,18.395-11.664,27.402-17.38c12.797-8.124,25.588-16.259,38.394-24.367
		c1.233-0.78,2.512-1.503,3.831-2.068c3.156-1.356,6.515,0.077,8.135,3.36c1.742,3.529,1.197,7.583-1.892,9.776
		c-5.364,3.809-10.927,7.258-16.452,10.767"/>
	<path fill-rule="evenodd" clip-rule="evenodd" d="M307.04,203.808c-2.765-1.642-5.497-3.395-8.08-5.378
		c-3.081-2.366-3.908-6.315-2.303-9.681c1.827-3.833,5.176-5.471,8.626-3.507c6.171,3.514,12.183,7.396,18.22,11.209
		c16.453,10.389,32.884,20.821,49.319,31.245c0.494,0.313,0.937,0.736,1.646,1.302c-4.82,3.081-9.442,6.051-14.077,8.995
		c-17.084,10.852-34.17,21.701-51.264,32.536c-1.308,0.83-2.626,1.677-4.015,2.295c-3.497,1.56-6.859-0.011-8.579-3.874
		c-1.502-3.375-0.563-7.555,2.582-9.607c11.048-7.207,22.178-14.25,33.282-21.348c4.547-2.906,9.105-5.793,14.225-9.05
		c-3.396-2.201-6.241-4.082-9.115-5.903c-8.798-5.577-17.62-11.107-26.39-16.741"/>
	<path fill-rule="evenodd" clip-rule="evenodd" d="M229.524,291.977c-4.842-0.072-7.928-4.562-6.517-9.578
		c1.087-3.863,2.695-7.548,4.202-11.244c11.407-27.975,22.84-55.936,34.279-83.896c2.779-6.795,5.508-13.62,8.451-20.322
		c1.791-4.078,5.256-5.434,8.556-3.798c3.477,1.723,4.938,5.496,3.301,9.968c-2.596,7.092-5.509,14.036-8.34,21.014
		c-6.221,15.333-12.485,30.644-18.711,45.975c-6.012,14.804-11.989,29.629-18.007,44.43c-0.593,1.459-1.326,2.851-2.062,4.226
		C233.435,291.072,231.567,292.089,229.524,291.977z"/>
</g>
</svg>
