<?xml version="1.0" encoding="UTF-8" standalone="no"?>
<svg
   xmlns:dc="http://purl.org/dc/elements/1.1/"
   xmlns:cc="http://creativecommons.org/ns#"
   xmlns:rdf="http://www.w3.org/1999/02/22-rdf-syntax-ns#"
   xmlns:svg="http://www.w3.org/2000/svg"
   xmlns="http://www.w3.org/2000/svg"
   xml:space="preserve"
   enable-background="new 0 0 512 512"
   viewBox="0 0 512 512"
   height="512px"
   width="512px"
   y="0px"
   x="0px"
   id="Layer_1"
   version="1.1"><metadata
     id="metadata3433"><rdf:RDF><cc:Work
         rdf:about=""><dc:format>image/svg+xml</dc:format><dc:type
           rdf:resource="http://purl.org/dc/dcmitype/StillImage" /><dc:title></dc:title></cc:Work></rdf:RDF></metadata><defs
     id="defs3431" /><g
     id="g3408"><path
       d="M288.31,80.498c45.221,3.708,87.214,23.043,119.616,55.539c36.174,36.28,56.099,84.494,56.099,135.835   c0,25.944-5.069,51.085-15.074,74.766c-9.665,22.877-23.501,43.418-41.127,61.072c-17.625,17.654-38.143,31.506-60.98,41.183   c-23.637,10.02-48.746,15.095-74.633,15.095c-41.127,0-80.339-12.858-113.401-37.177c-15.903-11.693-29.921-25.768-41.564-41.725   c-8.332-11.406-15.375-23.703-21.006-36.665l179.967-45.045l12.104-3.027V80.672 M272.336,63.658v224.184L74.899,337.26   C102.263,420.171,180.325,480,272.21,480C386.901,480,480,386.8,480,271.829C480,156.86,387.15,63.658,272.336,63.658z"
       id="path5" /><g
       id="g3411"><path
         id="path3413"
         d="M182.173,190.208c-2.241-0.764-4.496-1.513-7.25-2.232v29.42c1.65-0.216,2.677-0.507,3.917-0.889    c2.928-0.893,5.444-2.041,7.261-3.45c1.82-1.415,3.13-3.038,3.94-4.871c0.806-1.833,1.176-3.688,1.176-5.568    c0-3.856-0.97-6.7-2.839-8.533C186.506,192.257,184.391,190.966,182.173,190.208z" /><path
         id="path3415"
         d="M146.918,147.904c-1.267,1.693-1.93,3.812-1.93,6.346c0,3.579,1.115,6.37,3.487,8.395    c2.243,1.905,5.523,3.379,8.827,4.401l0.002-25.12c-1.93,0.431-4.039,1.084-5.74,1.96    C149.646,144.873,148.179,146.212,146.918,147.904z" /><path
         id="path3417"
         d="M250.987,32C90.631,32,32,148.231,32,239.255c0,0,0.25,56.658,18.952,88.272L256.5,275.539V32H250.987z M206.438,215.099    c-2.477,3.997-5.77,7.262-9.806,9.798c-4.038,2.542-8.701,4.399-13.849,5.569c-2.637,0.604-5.105,1.049-7.858,1.344v9.485h-17.621    v-9.706c-2.479-0.355-5.245-0.809-7.69-1.442c-5.452-1.406-10.059-3.53-14.097-6.451c-4.04-2.907-7.271-6.58-9.694-11.141    c-2.319-4.359-3.572-9.443-3.764-15.211h18.92c0.092,3.301,0.722,6.402,2.039,8.938c1.414,2.728,3.312,4.822,5.835,6.564    c2.421,1.664,5.421,2.896,8.449,3.702v-32.852c-2.202-0.562-4.828-1.163-7.388-1.804c-4.642-1.131-8.367-2.612-11.445-4.445    c-3.081-1.831-5.531-3.876-7.346-6.138c-1.818-2.25-3.11-4.647-3.867-7.189c-0.76-2.538-1.143-5.122-1.143-7.754    c0-5.075,1.116-9.469,3.388-13.184c2.272-3.715,5.237-6.789,8.976-9.238c3.734-2.444,7.905-4.251,12.653-5.424    c2.004-0.5,4.247-0.88,6.174-1.172v-9.109h17.623v9.168c2.476,0.337,4.396,0.833,6.564,1.426    c4.999,1.362,9.535,3.441,13.321,6.165c3.788,2.729,6.79,6.161,9.015,10.153c2.02,3.644,3.12,7.697,3.3,12.642H188.08    c-0.724-5.769-3.19-10.018-7.12-12.5c-1.838-1.16-3.557-2.21-6.034-2.868v29.046c2.476,0.59,4.679,1.179,7.019,1.748    c3.281,0.801,5.774,1.388,7.189,1.764c3.533,1.034,6.611,2.438,9.236,4.228c2.626,1.788,4.822,3.831,6.592,6.133    c1.763,2.305,3.076,4.771,3.935,7.402c0.857,2.632,1.272,5.268,1.271,7.9C210.167,206.284,208.909,211.103,206.438,215.099z" /></g><g
       id="g3419"><rect
         id="rect3421"
         height="219.784"
         width="25.393"
         y="179.764"
         x="302.106" /><rect
         id="rect3423"
         height="64.097"
         width="25.39"
         y="335.451"
         x="263.985" /><rect
         id="rect3425"
         height="128.193"
         width="25.391"
         y="271.354"
         x="340.246" /><rect
         id="rect3427"
         height="183.169"
         width="25.391"
         y="216.379"
         x="378.368" /></g></g></svg>