<?xml version="1.0" encoding="UTF-8" standalone="no"?>
<svg
   xmlns:dc="http://purl.org/dc/elements/1.1/"
   xmlns:cc="http://creativecommons.org/ns#"
   xmlns:rdf="http://www.w3.org/1999/02/22-rdf-syntax-ns#"
   xmlns:svg="http://www.w3.org/2000/svg"
   xmlns="http://www.w3.org/2000/svg"
   xml:space="preserve"
   enable-background="new 0 0 512 512"
   viewBox="0 0 512 512"
   height="512px"
   width="512px"
   y="0px"
   x="0px"
   id="Layer_1"
   version="1.1"><metadata
     id="metadata3448"><rdf:RDF><cc:Work
         rdf:about=""><dc:format>image/svg+xml</dc:format><dc:type
           rdf:resource="http://purl.org/dc/dcmitype/StillImage" /><dc:title></dc:title></cc:Work></rdf:RDF></metadata><defs
     id="defs3446" /><g
     id="g3436"><path
       id="path3438"
       d="M288,80.826c45.293,3.705,87.354,23.024,119.81,55.494C444.043,172.57,464,220.744,464,272.043   c0,25.924-5.08,51.042-15.1,74.703c-9.681,22.859-23.54,43.384-41.193,61.023c-17.654,17.641-38.204,31.48-61.08,41.15   c-23.673,10.01-48.822,15.082-74.752,15.082c-41.193,0-80.47-12.847-113.584-37.146c-15.929-11.686-29.97-25.747-41.632-41.692   c-8.344-11.397-15.4-23.684-21.04-36.635l180.258-45.008L288,300.496V81 M272,64v224L74.245,337.376   C101.653,420.22,179.84,480,271.875,480C386.75,480,480,386.875,480,272S387,64,272,64z" /><path
       id="path3440"
       d="M240,48.18v214.944L59.658,308.854C50.54,285.286,48.46,251.88,48.5,239.358v-0.071c0-47.31,16.465-93.746,45.173-127.398   c16.735-19.62,37.502-34.982,61.72-45.664C180.1,55.33,208.52,49.274,240,48.18 M256,32h-5.5C90.5,32,32,148.25,32,239.287   c0,0,0.25,56.666,18.91,88.29L256,275.574V32z" /><path
       id="path3442"
       d="M183.303,192.294c-1.426-1.856-3.196-3.513-5.312-4.954c-2.116-1.441-4.593-2.585-7.438-3.417   c-1.144-0.305-3.151-0.773-5.795-1.421c-1.891-0.46-3.658-0.936-5.66-1.417V157.63c2.001,0.534,3.388,1.375,4.866,2.312   c3.168,2.006,5.151,5.438,5.735,10.101h15.352c-0.147-3.998-1.037-7.268-2.665-10.213c-1.79-3.224-4.208-5.997-7.259-8.2   c-3.053-2.201-6.709-3.88-10.734-4.977c-1.75-0.483-3.292-0.883-5.294-1.153v-7.407h-14.193v7.354   c-1.556,0.238-3.362,0.549-4.984,0.948c-3.818,0.954-7.18,2.411-10.194,4.387c-3.01,1.976-5.4,4.458-7.229,7.455   c-1.834,3.007-2.732,6.55-2.732,10.651c0,2.131,0.311,4.218,0.919,6.265c0.615,2.048,1.655,3.987,3.116,5.809   c1.465,1.822,3.439,3.48,5.924,4.954c2.481,1.476,5.478,2.681,9.221,3.59c2.062,0.52,4.18,1.005,5.958,1.456v26.537   c-2.444-0.648-4.859-1.646-6.813-2.992c-2.03-1.405-3.562-3.092-4.698-5.3c-1.067-2.048-1.572-4.551-1.646-7.22H116.5   c0.157,4.661,1.162,8.771,3.034,12.287c1.951,3.687,4.558,6.649,7.813,8.998c3.251,2.357,6.963,4.077,11.358,5.214   c1.973,0.508,4.197,0.879,6.2,1.165v7.835H159.1v-7.661c2.218-0.238,4.212-0.592,6.334-1.079c4.15-0.951,7.904-2.454,11.163-4.504   c3.25-2.044,5.899-4.682,7.903-7.91c1.984-3.231,3-7.124,3-11.676c0.002-2.127-0.33-4.258-1.022-6.379   C185.784,196.149,184.726,194.153,183.303,192.294z M144.907,177.513c-2.665-0.826-5.306-2.014-7.117-3.552   c-1.913-1.636-2.813-3.894-2.813-6.782c0-2.045,0.539-3.755,1.557-5.13c1.016-1.359,2.202-2.443,3.742-3.24   c1.375-0.712,3.075-1.232,4.632-1.582L144.907,177.513z M171.283,210.746c-0.649,1.478-1.708,2.787-3.177,3.929   c-1.458,1.143-3.49,2.072-5.853,2.791c-0.993,0.307-1.82,0.542-3.155,0.718v-23.759c2.22,0.577,4.041,1.182,5.847,1.801   c1.785,0.608,3.492,1.65,4.996,3.128c1.504,1.486,2.289,3.777,2.289,6.895C172.229,207.771,171.934,209.265,171.283,210.746z" /></g></svg>