<?xml version="1.0" encoding="UTF-8" standalone="no"?>
<svg
   xmlns:dc="http://purl.org/dc/elements/1.1/"
   xmlns:cc="http://creativecommons.org/ns#"
   xmlns:rdf="http://www.w3.org/1999/02/22-rdf-syntax-ns#"
   xmlns:svg="http://www.w3.org/2000/svg"
   xmlns="http://www.w3.org/2000/svg"
   xml:space="preserve"
   viewBox="0 0 512 511.99998"
   height="512"
   width="512"
   y="0px"
   x="0px"
   id="Capa_1"
   version="1.1"><metadata
     id="metadata6199"><rdf:RDF><cc:Work
         rdf:about=""><dc:format>image/svg+xml</dc:format><dc:type
           rdf:resource="http://purl.org/dc/dcmitype/StillImage" /><dc:title></dc:title></cc:Work></rdf:RDF></metadata><defs
     id="defs6197" /><g
     transform="matrix(0.9247944,0,0,0.9247944,3.9998412,3.9999996)"
     id="g6162"><path
       d="m 188.208,535.806 110.16,-190.638 -15.912,-15.3 c -18.666,15.3 -41.31,24.174 -65.79,24.174 -22.95,0 -44.676,-7.956 -62.424,-21.726 l -22.644,21.726 h -44.37 c -20.502,0 -36.414,7.038 -48.96,21.42 C 1.854,417.384 7.974,507.96 10.728,535.806 Z M 124.56,242.352 c 3.06,25.398 13.464,47.736 29.07,64.26 3.366,3.365 6.732,6.731 10.404,9.485 4.59,3.672 9.486,6.732 14.688,9.486 11.628,6.12 24.48,9.486 38.25,9.486 13.771,0 26.622,-3.366 38.25,-9.486 5.202,-2.754 10.099,-5.814 14.688,-9.486 3.671,-3.06 7.038,-6.12 10.403,-9.485 15.301,-16.524 26.011,-38.862 28.765,-63.954 0.306,0 0.611,0 0.918,0 16.218,0 29.07,-14.994 29.07,-33.354 0,-11.322 -4.896,-21.114 -12.24,-27.234 H 111.402 c -7.344,6.12 -12.24,15.912 -12.24,27.234 0.306,16.83 11.016,30.6 25.398,33.048 z M 171.684,37.944 c -31.824,16.218 -56.916,48.654 -66.402,80.172 l -2.142,6.732 H 85.698 v 38.25 h 18.972 26.928 11.322 147.492 11.016 41.922 v -1.836 -36.414 h -17.136 l -2.142,-6.732 C 314.586,86.598 289.494,54.468 257.67,38.25 v 71.91 10.098 c 0,0.612 0,0.918 0,1.224 -0.306,3.366 -0.918,6.426 -2.448,9.486 -3.978,7.65 -11.934,13.158 -21.114,13.158 h -4.896 -33.66 c -8.568,0 -16.218,-4.59 -20.196,-11.322 -1.836,-2.754 -2.754,-5.813 -3.366,-9.18 -0.306,-1.224 -0.306,-2.142 -0.306,-3.366 v -8.568 z m 23.868,96.084 h 38.25 c 5.508,0 10.098,-3.06 12.546,-7.65 1.224,-2.142 1.836,-4.284 1.836,-6.732 V 116.892 105.57 33.354 22.95 18.972 c 0,-2.448 -0.612,-4.59 -1.224,-6.732 C 244.206,5.202 237.168,0 229.212,0 h -33.66 c -7.344,0 -13.464,5.508 -14.076,12.546 0,0.612 -0.306,1.224 -0.306,1.836 v 8.568 10.404 73.44 11.628 1.224 c 0,3.06 0.918,5.814 2.448,8.262 2.754,3.672 7.038,6.12 11.934,6.12 z M 357.12,459.306 h 38.556 l 7.344,-59.976 2.143,-17.136 1.224,-9.181 h -7.344 -12.24 -40.393 z m -3.979,9.792 h 47.736 v 47.736 h -47.736 z m 21.42,-205.938 c -3.365,0 -6.731,1.836 -8.567,4.896 l -38.557,67.014 -5.508,9.485 -5.508,9.486 -101.897,176.563 c -0.918,1.53 -1.224,3.366 -1.224,4.896 0,1.53 0.306,3.366 1.224,4.59 1.836,3.061 4.896,4.896 8.568,4.896 h 204.408 9.486 89.657 v 0 c 5.509,0 9.792,-4.284 9.792,-9.792 0,-2.448 -0.918,-4.284 -2.142,-6.12 L 383.129,268.056 c -1.836,-3.06 -4.895,-4.896 -8.568,-4.896 z m 63.648,263.16 h -9.486 -9.485 -179.316 l 99.45,-171.973 5.508,-9.485 5.508,-9.486 24.786,-42.534 134.946,233.478 z"
       id="iconos_43_" /></g><g
     transform="translate(0,-32.986023)"
     id="g6164" /><g
     transform="translate(0,-32.986023)"
     id="g6166" /><g
     transform="translate(0,-32.986023)"
     id="g6168" /><g
     transform="translate(0,-32.986023)"
     id="g6170" /><g
     transform="translate(0,-32.986023)"
     id="g6172" /><g
     transform="translate(0,-32.986023)"
     id="g6174" /><g
     transform="translate(0,-32.986023)"
     id="g6176" /><g
     transform="translate(0,-32.986023)"
     id="g6178" /><g
     transform="translate(0,-32.986023)"
     id="g6180" /><g
     transform="translate(0,-32.986023)"
     id="g6182" /><g
     transform="translate(0,-32.986023)"
     id="g6184" /><g
     transform="translate(0,-32.986023)"
     id="g6186" /><g
     transform="translate(0,-32.986023)"
     id="g6188" /><g
     transform="translate(0,-32.986023)"
     id="g6190" /><g
     transform="translate(0,-32.986023)"
     id="g6192" /></svg>