<?xml version="1.0" encoding="UTF-8" standalone="no"?>
<svg xmlns="http://www.w3.org/2000/svg" width="40" height="50" viewBox="0 0 40 50" version="1.1">
  <path d="m 31.657777,6.790993 c -7.466667,0 -7.635555,-4.863905 -16.304444,-4.863905 -4.684444,0 -9.055555,1.646505 -10.9088886,2.846103 V 0 H 0 V 50 H 4.4444444 V 25.078958 C 7.075555,23.702948 11.064444,22.25471 15.384444,22.25471 c 8.186667,0 9.335555,4.62702 16.631111,4.62702 C 36.731111,26.88173 40,24.598447 40,24.598447 V 4.390126 c 0,0 -3.602223,2.400867 -8.342223,2.400867 z m 3.897778,16.034942 c -0.888889,0.347799 -2.131111,0.695571 -3.54,0.695571 -2.16,0 -3.328889,-0.60988 -5.268889,-1.619632 -2.435555,-1.26848 -5.768889,-3.007387 -11.362222,-3.007387 -4.397778,0 -8.244444,1.140786 -10.9399996,2.249668 V 8.56351 C 6.708889,7.048057 10.811111,5.288976 15.353333,5.288976 c 2.962222,0 4.208889,0.737577 6.091111,1.853162 2.146667,1.270155 5.084444,3.010744 10.213333,3.010744 1.393334,0 2.700001,-0.144488 3.897778,-0.374645 z" />
</svg>
