<?xml version="1.0" encoding="UTF-8" standalone="no"?>
<svg
   xmlns:dc="http://purl.org/dc/elements/1.1/"
   xmlns:cc="http://creativecommons.org/ns#"
   xmlns:rdf="http://www.w3.org/1999/02/22-rdf-syntax-ns#"
   xmlns:svg="http://www.w3.org/2000/svg"
   xmlns="http://www.w3.org/2000/svg"
   id="svg6309"
   version="1.1"
   viewBox="0 0 135.46666 135.46667"
   height="512"
   width="512">
  <defs
     id="defs6303" />
  <metadata
     id="metadata6306">
    <rdf:RDF>
      <cc:Work
         rdf:about="">
        <dc:format>image/svg+xml</dc:format>
        <dc:type
           rdf:resource="http://purl.org/dc/dcmitype/StillImage" />
        <dc:title></dc:title>
      </cc:Work>
    </rdf:RDF>
  </metadata>
  <g
     transform="translate(0,-161.53332)"
     id="layer1">
    <path
       id="path8628"
       d="m 68.310233,293.81281 c -0.48927,-1.17096 -0.889561,-2.59384 -0.889561,-3.16193 0,-0.78421 -0.339345,-0.92666 -1.409565,-0.59165 -2.530787,0.79223 -3.871262,0.66932 -4.083507,-0.37439 -0.138986,-0.68304 0.912813,-1.6511 3.190062,-2.93628 3.613604,-2.03942 3.570179,-1.92351 2.566279,-6.85126 l -0.287136,-1.40954 H 49.565396 31.734011 L 31.566375,262.98273 31.398738,247.4777 H 19.965329 8.531943 l 4.03e-4,-6.10803 3.79e-4,-6.10804 h 5.282744 c 4.494688,0 5.329295,-0.16361 5.594719,-1.09631 0.171661,-0.60297 0.763455,-5.46592 1.315234,-10.80653 0.551803,-5.34064 1.697672,-16.05319 2.54639,-23.8057 0.848742,-7.75251 1.838648,-17.05552 2.1998,-20.67336 0.848552,-8.50037 1.029093,-9.26529 2.244148,-9.50775 0.683331,-0.13638 1.060323,-0.96123 1.154441,-2.52596 0.220674,-3.66905 1.090109,-4.25438 6.319272,-4.25438 5.413681,0 6.545936,0.76625 6.545936,4.43 0,2.04346 0.212623,2.4611 1.252939,2.4611 0.689108,0 1.252916,0.32443 1.252916,0.72093 0,0.3965 0.419516,4.41371 0.932274,8.92713 1.675062,14.74477 3.472345,31.21508 4.381937,40.15597 0.490739,4.82378 1.085114,10.39148 1.320846,12.37269 l 0.428586,3.60217 h 37.814907 37.814906 v 5.9472 5.94719 l -44.009208,0.16077 -44.009187,0.16077 v 12.21609 12.21607 l 9.034554,0.1745 c 4.969018,0.0959 9.239434,-0.045 9.489823,-0.31323 0.250389,-0.26824 0.644997,-1.92152 0.876918,-3.67395 l 0.421695,-3.18628 -4.116702,-2.68214 c -2.663593,-1.73539 -4.116678,-3.0984 -4.116678,-3.86147 0,-1.41436 1.678801,-1.52829 3.394161,-0.23039 0.891456,0.67455 1.416882,0.73045 2.036,0.21666 1.380133,-1.14541 0.94776,-2.44424 -1.04491,-3.13888 -1.159224,-0.4041 -1.879396,-1.09179 -1.879396,-1.79461 0,-1.5857 1.190288,-1.82484 3.758793,-0.75514 1.20594,0.50222 2.839991,1.15953 3.631196,1.46069 l 1.438594,0.54754 -1.595197,2.72198 c -1.9854,3.38781 -1.982962,3.75881 0.03173,4.83699 1.59084,0.85139 1.617359,0.97146 1.199476,5.43082 l -0.427331,4.56018 h 8.160525 c 4.488295,0 8.291413,-0.21167 8.451401,-0.47066 0.160059,-0.25884 -0.0095,-1.98606 -0.37498,-3.83825 -0.618927,-3.13023 -0.570057,-3.43986 0.69356,-4.393 1.330293,-1.00345 1.336852,-1.08286 0.306481,-3.70589 -0.783463,-1.99454 -1.306474,-2.5799 -2.043765,-2.28742 -0.544961,0.21618 -1.932033,0.551 -3.082354,0.744 -1.908093,0.32014 -2.072912,0.22399 -1.879396,-1.09569 0.173555,-1.18368 0.914209,-1.64402 4.075077,-2.53281 l 3.862974,-1.08617 1.381744,3.69474 c 0.759952,2.03212 1.558805,3.6858 1.775216,3.67484 0.216412,-0.0119 0.940681,-0.43382 1.609522,-0.93969 1.579309,-1.19455 3.251267,-1.17291 3.71982,0.0481 0.265945,0.69311 -0.774773,1.6866 -3.665433,3.49903 -3.842873,2.40949 -4.018819,2.62635 -3.661716,4.51366 0.775507,4.09864 0.91544,4.17518 7.633867,4.17518 3.376,0 6.300377,-0.16219 6.498581,-0.3604 0.19818,-0.19818 0.123832,-1.18488 -0.165032,-2.19262 -0.484677,-1.68993 -0.309938,-1.98052 2.249878,-3.74172 1.526461,-1.05024 2.775374,-2.07308 2.775374,-2.27299 0,-0.19983 -0.841803,-1.83481 -1.87066,-3.63304 -1.028855,-1.79825 -1.686638,-3.45354 -1.461749,-3.67845 0.825585,-0.82559 2.576342,-0.37407 3.412605,0.88011 l 0.859489,1.28897 3.02136,-1.33848 c 1.66176,-0.73618 3.42369,-1.18412 3.91542,-0.99543 1.8059,0.69299 0.83591,2.25199 -2.21881,3.56608 l -3.11285,1.33914 0.91189,1.76337 c 0.90171,1.74373 0.87703,1.78897 -2.21211,4.05663 -5.020947,3.6857 -4.031893,5.31883 3.22122,5.31883 5.12245,0 6.81058,0.77639 6.81058,3.13234 0,2.74133 -1.41563,3.13231 -11.340811,3.13231 -6.951767,0 -9.43392,0.20221 -9.612046,0.78308 -0.13212,0.4307 -0.379952,1.79409 -0.550784,3.02977 -0.302646,2.18902 -0.207652,2.30962 3.698463,4.6985 4.373176,2.67449 5.047273,3.53436 3.668062,4.67897 -0.725951,0.6025 -1.387664,0.43443 -3.317304,-0.84253 l -2.410435,-1.59518 -1.602726,1.60275 c -0.977807,0.97781 -1.990373,1.45398 -2.596894,1.22124 -1.278653,-0.49067 -1.270697,-1.93419 0.01894,-3.22265 0.919182,-0.91918 0.922,-1.11129 0.03078,-2.09619 -0.756234,-0.83559 -0.896357,-1.90672 -0.611068,-4.67101 l 0.370173,-3.58678 h -7.960686 c -7.279297,0 -7.93476,0.0938 -7.657899,1.09631 0.166451,0.60298 0.481456,2.41355 0.69981,4.02349 0.319243,2.35391 0.193208,3.04128 -0.643908,3.50969 -0.790306,0.44229 -0.937011,1.05551 -0.609363,2.54722 0.53556,2.43841 0.945677,2.70031 3.221647,2.05735 2.155286,-0.60889 3.378131,-0.29154 3.378131,0.87665 0,1.11573 -0.734355,1.52754 -4.491089,2.51856 l -3.126772,0.82482 z M 42.362032,235.02457 c 0,-0.13046 -1.553263,-1.43537 -3.451721,-2.90001 l -3.451697,-2.66298 -2.446092,1.69514 c -1.345353,0.93232 -2.936784,2.23733 -3.53651,2.90001 -1.069723,1.18205 -0.957824,1.2049 5.897813,1.2049 3.843512,0 6.988207,-0.10679 6.988207,-0.23706 z m -15.151928,-3.28733 c 1.956633,-1.59387 3.910969,-3.03357 4.342988,-3.19936 1.509318,-0.57918 0.71951,-1.75552 -3.14427,-4.68305 -4.508681,-3.41613 -4.43566,-3.47158 -5.120175,3.88921 -0.240302,2.58418 -0.576641,5.19183 -0.747425,5.79482 -0.512191,1.80839 0.911722,1.25893 4.668882,-1.80162 z m 20.742906,1.17514 c -0.02604,-0.94753 -0.378366,-4.07262 -0.783084,-6.94462 l -0.735848,-5.22187 -3.915419,3.00287 c -2.153487,1.65157 -3.905452,3.29663 -3.893282,3.65568 0.02368,0.66233 8.041995,7.14772 8.905014,7.20147 0.258415,0.0166 0.448593,-0.74601 0.422619,-1.69353 z m -7.134155,-11.81767 c 2.95234,-2.27891 5.244885,-4.26649 5.094533,-4.41686 -0.605598,-0.60558 -21.09165,-0.50538 -21.06364,0.10299 0.02131,0.48724 9.826208,8.40959 10.45456,8.44826 0.08074,0.005 2.562207,-1.85553 5.514547,-4.13444 z m 3.422574,-8.26705 c 0,-0.67959 -8.078861,-7.63638 -8.868054,-7.63638 -0.786659,0 -8.672975,6.93687 -8.672975,7.62885 0,0.28335 3.946745,0.5152 8.770527,0.5152 4.823781,0 8.770502,-0.22849 8.770502,-0.50767 z M 27.383471,207.5206 c 0.547967,-0.41973 2.051105,-1.69102 3.340295,-2.8251 l 2.343971,-2.06195 -2.713813,-2.45424 c -1.492602,-1.34983 -2.906264,-2.46579 -3.141452,-2.47993 -0.613293,-0.0369 -0.980601,1.58187 -1.451261,6.39559 -0.418759,4.28275 -0.173319,4.80102 1.62226,3.42563 z m 17.890247,-0.2933 c -0.167873,-0.60297 -0.491141,-2.99922 -0.718539,-5.32496 -0.227304,-2.32576 -0.602449,-4.21707 -0.833446,-4.20296 -0.231092,0.0142 -1.64982,1.13775 -3.152959,2.49693 l -2.732968,2.47122 3.046197,2.80317 c 3.200456,2.94512 4.913092,3.63013 4.391715,1.7566 z m -6.006706,-10.15163 3.408273,-3.1039 -7.047756,-0.0284 c -3.876257,-0.0166 -7.026967,0.18303 -7.001608,0.44142 0.05919,0.60212 6.106719,5.79479 6.748875,5.79479 0.266182,0 2.017697,-1.39673 3.892216,-3.10387 z m 2.468563,-6.68075 c 0,-0.55209 -5.874515,-7.75124 -6.327323,-7.75406 -0.452026,-0.002 -6.828455,7.26123 -6.828455,7.77901 0,0.19937 2.960059,0.36269 6.577901,0.36269 3.617818,0 6.577877,-0.1745 6.577877,-0.38764 z m -10.806526,-7.72555 c 1.119801,-1.34883 2.035999,-2.62377 2.035999,-2.83317 0,-0.87022 -2.804971,-4.08881 -3.56336,-4.08881 -0.486666,0 -0.821891,0.73092 -0.821891,1.79198 0,0.98557 -0.179238,3.0999 -0.398373,4.69848 -0.219016,1.59858 -0.148694,2.90146 0.156508,2.89523 0.30525,-0.007 1.471221,-1.11488 2.591022,-2.46371 z m 11.829154,0.75223 c -0.181369,-0.94752 -0.51515,-3.2243 -0.741601,-5.05951 l -0.411751,-3.33674 -1.55833,1.45734 c -2.735763,2.55849 -2.775943,3.16134 -0.40112,6.0203 2.538411,3.05593 3.580929,3.36357 3.112802,0.91861 z m -5.71088,-8.14404 c 0.833991,-0.94753 1.52523,-1.93421 1.536121,-2.19263 0.01184,-0.25841 -1.545047,-0.46985 -3.45764,-0.46985 H 31.64837 l 1.672384,2.19262 c 0.919822,1.20594 1.793424,2.19263 1.941337,2.19263 0.147985,0 0.951265,-0.77525 1.785232,-1.72277 z"
       style="fill:#000000;stroke-width:0.62646556" />
  </g>
</svg>
