<?xml version="1.0" encoding="UTF-8" standalone="no"?>
<svg
   xmlns:dc="http://purl.org/dc/elements/1.1/"
   xmlns:cc="http://creativecommons.org/ns#"
   xmlns:rdf="http://www.w3.org/1999/02/22-rdf-syntax-ns#"
   xmlns:svg="http://www.w3.org/2000/svg"
   xmlns="http://www.w3.org/2000/svg"
   id="svg6309"
   version="1.1"
   viewBox="0 0 135.46666 135.46667"
   height="512"
   width="512">
  <defs
     id="defs6303" />
  <metadata
     id="metadata6306">
    <rdf:RDF>
      <cc:Work
         rdf:about="">
        <dc:format>image/svg+xml</dc:format>
        <dc:type
           rdf:resource="http://purl.org/dc/dcmitype/StillImage" />
        <dc:title></dc:title>
      </cc:Work>
    </rdf:RDF>
  </metadata>
  <g
     transform="translate(0,-161.53332)"
     id="layer1">
    <path
       id="path7416"
       d="m 18.734262,264.90939 c -2.424477,-0.593 -4.696674,-2.41119 -5.902255,-4.72333 -0.298508,-0.57255 -0.579663,-2.0012 -0.659872,-3.35312 -0.120377,-2.02911 -0.03483,-2.58492 0.61699,-4.0086 1.485234,-3.24425 4.408092,-5.18525 7.816539,-5.19087 3.70049,-0.007 6.486256,1.67588 8.049539,4.85936 1.143331,2.32835 1.198034,5.34454 0.13668,7.53642 -1.801274,3.71968 -6.158106,5.83367 -10.057621,4.88014 z m 3.447282,-4.35349 c 1.32871,-0.50221 2.537378,-1.82362 2.900192,-3.17111 0.933584,-3.46697 -2.967821,-6.65237 -6.131633,-5.00621 -3.010782,1.56654 -3.421521,5.63147 -0.759863,7.52019 1.360798,0.96567 2.624235,1.1736 3.991304,0.65713 z m 78.844566,4.35349 c -2.42446,-0.593 -4.696706,-2.41119 -5.902303,-4.72333 -0.298498,-0.57255 -0.579664,-2.0012 -0.659865,-3.35312 -0.120363,-2.02911 -0.03482,-2.58492 0.616992,-4.0086 1.953357,-4.26678 6.605736,-6.24391 11.093786,-4.71473 4.67606,1.59334 7.06855,7.6125 4.78631,12.04155 -1.92782,3.74128 -6.03984,5.71065 -9.93492,4.75823 z m 3.28783,-4.34322 c 1.41502,-0.39299 2.88149,-2.02837 3.16276,-3.52702 0.29344,-1.56448 -0.80939,-3.75693 -2.2897,-4.55215 -1.70438,-0.91543 -3.77965,-0.60421 -5.15747,0.77361 -2.695261,2.69518 -1.020798,7.15862 2.84578,7.58547 0.16952,0.0211 0.81697,-0.10731 1.43863,-0.27991 z m -53.279825,-6.44246 c -1.614404,-0.99777 -1.941272,-2.00298 -1.941272,-5.96984 0,-3.15058 0.07295,-3.62258 0.704994,-4.56144 1.159453,-1.72242 1.533337,-1.79197 9.853403,-1.83394 6.67845,-0.0342 7.700873,0.0264 8.492111,0.49297 1.511206,0.89275 2.02321,2.13145 2.159626,5.2251 0.148203,3.36023 -0.243669,4.97496 -1.499514,6.17878 l -0.949234,0.91009 -7.916702,0.0846 c -7.432206,0.0789 -7.977088,0.0462 -8.903412,-0.52572 z M 2.4473519,251.90475 c -1.89131087,-1.09943 -1.83710217,-6.31626 0.076275,-7.34032 0.6831292,-0.36554 13.8119081,-0.52364 32.7908721,-0.39482 l 10.416067,0.0703 0.756513,0.75654 c 0.678582,0.67853 0.756509,1.01346 0.756509,3.25094 0,2.30155 -0.0631,2.55289 -0.815516,3.2501 l -0.815535,0.75579 h -7.284281 -7.284278 l -1.175727,-1.61803 c -4.739282,-6.52226 -13.825054,-6.38456 -18.409798,0.27904 l -0.921348,1.3392 -3.7607548,-0.0105 c -2.0976575,-0.005 -4.0120443,-0.15531 -4.3289973,-0.33955 z m 70.4886501,-0.10063 c -1.000453,-0.70069 -1.433267,-2.11261 -1.283299,-4.18608 0.105831,-1.46297 0.299208,-2.02807 0.899527,-2.62824 0.763919,-0.76403 0.771683,-0.76486 7.684562,-0.83665 3.805924,-0.0394 7.093242,-0.18286 7.305135,-0.31854 0.301368,-0.193 0.385364,-4.38696 0.385737,-19.26055 2.97e-4,-17.48433 0.04381,-19.10044 0.539367,-20.09241 1.033817,-2.0695 1.524181,-2.15649 12.163039,-2.15707 l 9.46678,-5.1e-4 1.07415,0.94336 c 0.6331,0.55588 1.3248,1.61258 1.68409,2.57309 0.50843,1.3588 3.96713,14.92912 4.87739,19.137 l 0.26692,1.23291 2.9654,0.0878 c 2.93731,0.0873 2.97128,0.0799 3.56468,-0.77056 1.59664,-2.28676 1.76979,-3.42658 1.76979,-11.64569 v -7.7054 l -1.01279,-2.13868 c -1.17105,-2.47262 -2.95112,-4.31855 -4.60889,-4.7788 -0.76427,-0.21217 -10.26939,-0.32247 -27.906019,-0.32356 -22.662056,-9.2e-4 -26.910267,0.0663 -27.815865,0.44481 -0.587846,0.24553 -1.068809,0.55775 -1.068809,0.69362 0,0.13584 0.221078,1.21791 0.491291,2.4043 0.642831,2.82269 0.96495,18.05244 0.475988,22.50513 -0.610699,5.56117 -2.0422,9.54769 -4.094005,11.40138 l -1.189991,1.07515 -23.654161,0.0699 c -27.1980437,0.0797 -26.0537264,0.0964 -27.2450011,-0.39716 -1.7292398,-0.71619 -3.390084,-3.86324 -4.4630416,-8.45648 -0.505132,-2.16242 -0.5753722,-3.79224 -0.571165,-13.25294 0.00505,-11.48038 0.1314217,-12.75217 1.673042,-16.84586 0.8500095,-2.25713 1.7830087,-3.61939 3.0752624,-4.49036 l 1.0399218,-0.70116 H 34.205591 c 26.194782,0 25.737039,-0.0249 26.890537,1.36668 0.358644,0.43208 3.662367,0.48339 31.568969,0.49023 19.785203,0.005 31.659753,0.12083 32.513633,0.3176 3.07275,0.70858 5.784,3.71063 6.8621,7.59862 0.76409,2.75548 0.84247,14.04181 0.11688,16.82736 -0.58051,2.22885 -1.71118,4.46489 -2.74594,5.42997 -1.02257,0.95377 -1.01122,1.43925 0.046,1.98929 1.20785,0.6279 3.11888,2.61485 3.8077,3.95852 0.88895,1.73405 1.29561,5.42473 1.09081,9.90176 -0.14918,3.26126 -0.30995,4.24048 -0.91099,5.54783 -0.99697,2.16837 -2.02283,3.30142 -3.96202,4.37558 l -1.64383,0.91052 -7.24271,0.096 -7.24288,0.096 -1.09239,-1.62464 c -1.43199,-2.12955 -4.2868,-4.09475 -6.66603,-4.58867 -4.56264,-0.94719 -9.309769,0.99261 -11.704116,4.78242 l -0.879233,1.39166 -9.71706,6.1e-4 c -8.021407,2.1e-4 -9.829171,-0.0782 -10.359572,-0.44948 z m 25.105677,-19.4518 c 0.241049,-0.0763 0.366185,-0.47324 0.308269,-0.97764 l -0.09779,-0.84926 -2.804116,-0.0884 c -2.282528,-0.0719 -2.881144,0.005 -3.218305,0.41109 -0.677579,0.81629 0.0193,1.50085 1.738796,1.70781 1.422568,0.17115 3.162294,0.0842 4.073117,-0.20395 z m 13.838571,-6.12819 c 0.73133,-0.85068 0.77158,-1.06449 0.60971,-3.23611 -0.1616,-2.1657 -2.08831,-10.63905 -3.17386,-13.95638 -0.84448,-2.58143 -1.18565,-2.70071 -7.73047,-2.70071 -5.954064,0 -7.11478,0.22003 -7.665737,1.45253 -0.415724,0.93018 -0.550025,15.81336 -0.155888,17.27699 0.58348,2.16684 0.873346,2.23131 9.677875,2.14741 l 7.65538,-0.073 z m -37.937285,9.56677 c -3.119259,-1.15439 -5.124735,-4.10324 -5.124735,-7.53497 0,-2.51576 0.770237,-4.20577 2.684836,-5.89104 4.106496,-3.61472 10.798847,-1.83355 12.562905,3.34384 1.288525,3.78145 -0.506872,8.05043 -4.119067,9.79361 -1.463626,0.70632 -4.483102,0.85149 -6.003939,0.28856 z m -0.06903,-17.15596 c -1.356348,-0.39366 -3.658411,-2.52336 -4.413486,-4.0831 -0.909006,-1.87787 -0.871945,-4.78668 0.08724,-6.84653 1.607236,-3.4516 5.545351,-5.19081 9.356349,-4.13215 2.073528,0.57597 4.766057,3.27518 5.269863,5.28281 1.008765,4.01997 -0.522355,7.57427 -4.011997,9.31319 -1.701246,0.84773 -4.306734,1.04073 -6.287996,0.46578 z"
       style="fill:#000000;stroke-width:0.30820927" />
  </g>
</svg>
