<?xml version="1.0" encoding="UTF-8" standalone="no"?>
<svg
   xmlns:dc="http://purl.org/dc/elements/1.1/"
   xmlns:cc="http://creativecommons.org/ns#"
   xmlns:rdf="http://www.w3.org/1999/02/22-rdf-syntax-ns#"
   xmlns:svg="http://www.w3.org/2000/svg"
   xmlns="http://www.w3.org/2000/svg"
   viewBox="0 0 512 512"
   height="512"
   width="512"
   id="svg8652"
   version="1.1">
  <metadata
     id="metadata8658">
    <rdf:RDF>
      <cc:Work
         rdf:about="">
        <dc:format>image/svg+xml</dc:format>
        <dc:type
           rdf:resource="http://purl.org/dc/dcmitype/StillImage" />
        <dc:title></dc:title>
      </cc:Work>
    </rdf:RDF>
  </metadata>
  <defs
     id="defs8656" />
  <path
     id="path9207"
     d="M 0,388.4721 V 281.54404 L 25.6,256.0401 51.2,230.53616 v 3.84254 3.84252 L 26.88,262.4401 2.56,286.65898 v 2.14309 2.14309 l 5.76,-1.71559 5.76,-1.71553 18.56,-18.23287 18.56,-18.23289 v 3.69541 3.69542 l -13.44,13.8383 -13.44,13.83832 7.68,-1.78754 7.68,-1.7876 5.76,-5.37647 5.76,-5.37649 v 52.41422 52.41425 l 3.072,3.072 3.072,3.072 H 90.290043 123.2361 l -0.81805,5.76003 -0.81805,5.75997 -9.69531,-0.16024 -9.69538,-0.16025 0.78305,4.00032 0.78301,4.00032 h 6.30463 6.30463 l 0.8991,4.60299 0.89903,4.603 -3.08483,3.71697 -3.08483,3.71704 -5.4466,0.0814 -5.4465,0.0814 -4.63319,3.51283 -4.633188,3.51279 2.825317,1.74621 2.825331,1.74614 3.78971,-3.14522 3.78972,-3.14517 1.58295,1.58294 1.58293,1.58294 -3.23825,3.90185 -3.23823,3.90185 h 4.21679 4.2168 l 2.43331,-6.40012 2.43331,-6.4 h 2.43582 2.43587 l 3.98645,7.99092 3.98635,7.99097 -1.48759,2.40696 -1.48759,2.40697 -6.15131,2.33873 -6.15131,2.33876 v 4.21679 4.2168 l 4.47996,-3.46935 4.48004,-3.46929 -4.87676,5.71583 -4.87676,5.7159 h -4.21127 -4.21121 l -3.072,-3.07199 -3.072,-3.072 v 4.43235 4.43233 l 3.38219,1.29784 3.38222,1.29794 -1.11278,7.58177 -1.11273,7.58177 h 1.63393 1.63386 l 2.51243,-6.60808 2.5124,-6.60806 3.18424,1.04547 3.18424,1.04554 0.78435,6.57641 0.78439,6.57649 4.97563,4.50289 4.97563,4.50292 v -3.72479 -3.72479 l -3.02931,-3.02932 -3.02934,-3.02934 1.58312,-1.58314 1.58314,-1.58313 6.6285,-0.37955 6.62851,-0.37952 -0.8072,-3.84 -0.80728,-3.84001 -5.6551,0.60983 -5.65504,0.60983 v -2.61016 -2.61017 l 4.17912,-1.60367 4.17908,-1.6037 4.78092,2.98575 4.78088,2.9857 v -3.34975 -3.34965 l -3.02931,-3.02931 -3.02935,-3.02935 1.68748,-1.68745 1.68748,-1.68747 3.78972,3.14515 3.78972,3.14523 2.8253,-1.74614 2.82534,-1.74621 -4.59924,-3.36298 -4.5992,-3.36304 4.84281,-5.35118 4.84274,-5.35125 h -2.66414 -2.66413 l -7.3326,3.80821 -7.33262,3.80828 -0.91435,-2.71124 -0.91433,-2.71122 6.02441,-6.41266 6.0244,-6.41272 -7.67005,0.8357 -7.67009,0.83565 -0.76355,-5.34401 -0.76354,-5.34403 3.96357,-3.28944 3.96353,-3.28943 3.84,3.1869 3.84,3.18691 v -4.21681 -4.21678 l -6.66025,-2.53226 -6.66022,-2.5322 1.54023,-4.01383 1.54024,-4.01375 v -4.91065 -4.91062 h 25.6 25.6 v 2.11375 2.11378 l -5.75997,5.18476 -5.76003,5.18477 -5.12,2.11186 -5.12,2.11192 5.97112,1.03529 5.97109,1.03531 5.20644,-4.6857 5.20644,-4.68574 -0.96886,5.10054 -0.96883,5.10046 -7.0087,3.35921 -7.00871,3.35914 v 4.0138 4.01375 l 3.90184,-3.23825 3.90187,-3.23823 1.58296,1.58292 1.58292,1.58296 -3.14516,3.78973 -3.14522,3.78971 1.74614,2.82533 1.74619,2.82531 3.42186,-4.63323 3.42191,-4.63316 2.94255,2.89821 2.94249,2.89814 -3.38597,5.42183 -3.38599,5.42183 3.32278,5.3206 3.32279,5.32061 -2.92734,3.52728 -2.92742,3.52725 1.76772,2.86011 1.76762,2.86017 3.81535,-5.44712 3.81531,-5.44713 -1.53195,-6.10402 -1.53201,-6.10398 2.85556,-1.76483 2.85564,-1.76491 1.95376,3.16132 1.95384,3.1613 1.99103,-3.22168 1.99114,-3.2217 -4.62405,-3.38118 -4.62406,-3.38118 4.21825,-1.61873 4.21822,-1.61865 -1.48068,-2.39589 -1.48076,-2.39589 -5.29184,1.67955 -5.29177,1.67958 1.71138,-4.45996 1.71145,-4.45991 -3.02425,-3.64399 -3.02426,-3.64399 4.56703,-4.35152 4.567,-4.35151 1.19172,3.21596 1.19175,3.21596 2.34131,-1.44708 2.34136,-1.44701 v -2.26921 -2.26927 l -6.85098,-3.33967 -6.85099,-3.33968 -1.04233,-3.19997 -1.04236,-3.20003 h 30.93334 30.93331 v 4.60799 4.60801 l -3.07199,3.072 -3.072,3.072 h 4.66544 4.66546 l -3.40822,4.10669 -3.40828,4.10666 -6.50519,2.75035 -6.50521,2.75036 5.75997,1.00098 5.76003,1.00106 v 4.94191 4.94199 h -2.71109 -2.7111 l 1.64653,2.66414 1.64651,2.66411 4.90458,-1.55661 4.90457,-1.5567 v 2.33577 2.33576 l -4.48003,3.84765 -4.47997,3.84765 -5.12,2.02147 -5.12,2.02154 6.4,1.73797 6.4,1.73795 -0.82539,7.4342 -0.82539,7.43419 5.34154,-4.83404 5.34159,-4.83411 -1.48869,-4.69044 -1.48872,-4.69051 h 2.79591 2.79583 l 2.95368,7.04004 2.95369,7.03997 1.01951,-5.9009 1.01949,-5.90093 -2.97691,-3.58698 -2.97695,-3.58693 1.74913,-2.83004 1.74906,-2.83004 6.1513,-2.33874 6.15132,-2.33875 v -3.70712 -3.70713 l -7.93447,3.9582 -7.93445,3.9582 -5.42427,-5.42426 -5.42429,-5.42428 4.16642,-4.16635 4.16632,-4.16635 5.95508,5.54801 5.95514,5.54798 0.93996,-2.81993 0.93995,-2.81994 -4.70871,-5.20303 -4.70874,-5.20312 4.62622,-3.38274 4.62616,-3.38276 -7.0311,-3.42602 -7.03119,-3.42605 -1.04233,-3.19997 -1.04236,-3.20003 H 289.06668 322.56 v 4.91062 4.91065 l 1.54024,4.01375 1.54022,4.01383 -6.66022,2.5322 -6.66024,2.53226 v 4.21678 4.21681 l 3.84,-3.18691 3.84,-3.1869 3.96352,3.28943 3.96355,3.28944 -0.76352,5.34403 -0.76355,5.34401 -7.67009,-0.83565 -7.67007,-0.8357 6.02442,6.41272 6.02441,6.41266 -0.91434,2.71122 -0.91434,2.71124 -7.33262,-3.80828 -7.33259,-3.80821 h -2.66413 -2.66418 l 4.84277,5.35125 4.84281,5.35118 -4.59924,3.36304 -4.5992,3.36298 2.82532,1.74621 2.82533,1.74614 3.78972,-3.14523 3.78972,-3.14515 1.68748,1.68747 1.68748,1.68745 -3.02935,3.02935 -3.02931,3.02931 v 3.34965 3.34975 l 4.78085,-2.9857 4.78095,-2.98575 4.17905,1.6037 4.17914,1.60367 v 2.61017 2.61016 l -5.65503,-0.60983 -5.65511,-0.60983 -0.99099,4.78316 -0.99107,4.78322 2.78585,-1.72175 2.78579,-1.72169 4.50029,2.51852 4.50028,2.51851 -7.04004,2.67664 -7.03996,2.6767 v 4.21679 4.21681 l 3.83999,-3.1869 3.84001,-3.1869 3.72788,3.09384 3.72786,3.09386 2.11275,-1.3058 2.11278,-1.30573 0.62697,-8.22852 0.62705,-8.22853 1.36339,-2.20612 1.36348,-2.2061 h 2.47228 2.47225 l 2.4333,6.4 2.43332,6.4 h 1.63385 1.63394 l -1.11274,-7.58177 -1.11277,-7.58177 3.3822,-1.29794 3.38221,-1.29784 v -4.43233 -4.43235 l -3.07201,3.072 -3.07199,3.07199 h -4.21122 -4.21127 l -4.87676,-5.7159 -4.87675,-5.71583 4.48003,3.46929 4.47997,3.46935 v -4.2168 -4.21679 l -6.15132,-2.33876 -6.1513,-2.33873 -1.48759,-2.40697 -1.48759,-2.40696 3.98635,-7.99097 3.98641,-7.99092 h 2.4359 2.43583 l 2.43331,6.4 2.43331,6.4 h 4.21678 4.21681 l -3.23826,-3.90186 -3.23823,-3.90185 1.58293,-1.58295 1.58295,-1.58292 3.78973,3.14516 3.78972,3.14523 2.82533,-1.74616 2.82531,-1.74619 -4.63323,-3.51279 -4.63316,-3.51285 -5.44652,-0.0813 -5.44657,-0.0814 -3.08483,-3.71705 -3.08484,-3.71697 0.89903,-4.60299 0.8991,-4.603 h 6.30463 6.30464 l 0.78299,-4.00031 0.78307,-4.00033 -9.69538,0.16024 -9.69531,0.16025 -0.81805,-5.75996 -0.81806,-5.76004 h 31.11141 31.11136 l -1.04237,3.20003 -1.04232,3.19997 -7.0312,3.42606 -7.03109,3.42602 4.62615,3.38276 4.62622,3.38273 -4.70874,5.20311 -4.70871,5.20304 0.93996,2.81994 0.93996,2.81993 5.95514,-5.54797 5.95508,-5.54802 4.16632,4.16636 4.16642,4.16634 -5.4243,5.42429 -5.42427,5.42426 -7.93444,-3.95821 -7.93447,-3.9582 v 3.70714 3.70711 l 6.15131,2.33876 6.15132,2.33874 1.74905,2.83004 1.74912,2.83002 -2.97695,3.58695 -2.97691,3.58697 1.01949,5.90094 1.01951,5.90089 2.9537,-7.03997 2.95367,-7.04003 h 2.79584 2.79591 l -1.48872,4.6905 -1.4887,4.69045 5.34156,4.83411 5.34158,4.83402 -0.82539,-7.43417 -0.8254,-7.4342 6.4,-1.73797 6.40001,-1.73795 -5.12,-2.02154 -5.12,-2.02148 -4.47997,-3.84764 -4.48004,-3.84765 v -2.33577 -2.33576 l 4.90457,1.55669 4.90459,1.55661 1.6465,-2.66411 1.64651,-2.66414 H 407.19109 404.48 v -4.94198 -4.94192 l 5.76003,-1.00106 5.75997,-1.00099 -6.50521,-2.75034 -6.5052,-2.75036 -3.40828,-4.10666 -3.40822,-4.10669 h 4.66547 4.66543 l -3.072,-3.07199 -3.07199,-3.07201 v -4.608 -4.608 h 30.72 30.71999 v -5.12 -5.12 H 440.32 419.84 v -4.608 -4.608 l 3.072,-3.07199 3.07199,-3.07201 h -4.66543 -4.66547 l 3.40823,-4.10668 3.40828,-4.10667 6.50518,-2.75036 6.50521,-2.75034 -5.76003,-1.00098 -5.75997,-1.00107 v -4.94191 -4.94199 h 2.7111 2.71108 l -1.64652,-2.66413 -1.6465,-2.66412 -4.90458,1.55661 -4.90457,1.55669 v -2.33576 -2.33571 l 4.47996,-3.84771 4.48004,-3.84764 5.12,-2.02148 5.11999,-2.02154 -6.39999,-1.73794 -6.4,-1.73797 0.82539,-7.4342 0.82538,-7.43418 -5.34157,4.83402 -5.34155,4.83411 1.48868,4.69045 1.48872,4.6905 h -2.7959 -2.79584 l -2.95368,-7.03997 -2.95369,-7.04003 -1.01951,5.90089 -1.01949,5.90094 2.97691,3.58697 2.97695,3.58695 -1.74911,2.83003 -1.74907,2.83004 -6.1513,2.33873 -6.15133,2.33877 v 3.7071 3.70714 l 7.93448,-3.9582 7.93444,-3.95821 5.42427,5.42427 5.42429,5.42429 -4.16641,4.16634 -4.16633,4.16635 -5.95508,-5.54802 -5.95513,-5.54797 -0.93997,2.81994 -0.93995,2.81993 4.70871,5.20304 4.70874,5.20312 -4.62622,3.38273 -4.62615,3.38275 7.03109,3.42602 7.03119,3.42606 1.04233,3.20003 1.04237,3.19997 H 360.9953 306.8439 l 0.81805,-5.75997 0.81805,-5.76002 9.69531,0.16024 9.69538,0.16025 -0.78308,-4.00033 -0.78298,-4.00032 H 320 313.69537 l -0.89911,-4.60299 -0.89903,-4.60299 3.08484,-3.71698 3.08483,-3.71704 5.44657,-0.0814 5.44653,-0.0813 4.63316,-3.51284 4.63323,-3.51279 -2.82532,-1.7462 -2.82533,-1.74615 -3.78972,3.14523 -3.78972,3.14517 -1.58296,-1.58293 -1.58292,-1.58296 3.23823,-3.90184 3.23825,-3.90187 h -4.21681 -4.21678 l -2.43331,6.4 -2.43331,6.4 h -2.43583 -2.43589 l -3.98642,-7.99092 -3.98635,-7.99097 1.48758,-2.40696 1.48759,-2.40696 6.15131,-2.33873 6.15132,-2.33877 v -4.21678 -4.21681 l -4.48003,3.46935 -4.47997,3.4693 4.87675,-5.71584 4.87677,-5.7159 h 4.21126 4.21122 l 3.072,3.072 3.072,3.07199 v -4.43235 -4.43233 l -3.38222,-1.29784 -3.3822,-1.29794 1.11278,-7.58177 1.11274,-7.58151 h -1.63393 -1.63386 l -2.51244,6.60808 -2.51242,6.60807 -3.18421,-1.04857 -3.18424,-1.04864 -0.88527,-6.19947 -0.88536,-6.19948 -2.7182,-3.3085 -2.7182,-3.30846 2.96351,-2.96351 2.96352,-2.96352 v -4.21121 -4.21121 l -5.12,-4.63358 -5.12,-4.63351 v 3.72472 3.72478 l 3.0293,3.02933 3.02936,3.02934 -1.68749,1.68745 -1.68747,1.68748 -4.32647,-3.56476 -4.32654,-3.56483 1.83468,7.36379 1.8347,7.36381 -3.97,-1.52344 -3.97007,-1.52347 v 3.82304 3.82296 l 7.03997,2.67671 7.04002,2.67664 -4.50027,2.51852 -4.50028,2.51852 -2.78579,-1.72169 -2.78585,-1.72176 0.99105,4.78322 0.99101,4.78314 5.6551,-0.60981 5.65504,-0.60982 v 2.61014 2.61019 l -4.17914,1.60367 -4.17907,1.60369 -4.78093,-2.98574 -4.78086,-2.9857 v 3.34973 3.34966 l 3.02931,3.02932 3.02935,3.02934 -1.68748,1.68744 -1.68748,1.68749 -3.78973,-3.14517 -3.78972,-3.14522 -2.82533,1.74617 -2.82531,1.74617 4.59921,3.36298 4.59923,3.36304 -4.84281,5.35119 -4.84276,5.35125 h 2.66416 2.66414 l 7.3326,-3.80821 7.33262,-3.80829 0.91433,2.71125 0.91435,2.71122 -6.02442,6.41266 -6.02441,6.41272 7.67007,-0.83571 7.67008,-0.83564 0.76355,5.344 0.76352,5.34404 -3.96355,3.28944 -3.96352,3.28943 -3.84001,-3.18692 -3.83999,-3.18689 v 4.21681 4.21679 l 6.66024,2.53224 6.66022,2.5322 -1.54021,4.01385 -1.54026,4.01374 v 4.91065 4.91062 h -33.4933 -33.49335 l 1.04237,-3.19996 1.04232,-3.20004 7.0312,-3.42605 7.03109,-3.42603 -4.62615,-3.38276 -4.62622,-3.38272 4.70874,-5.20312 4.70871,-5.20303 -0.93996,-2.81994 -0.93997,-2.81995 -5.95514,5.548 -5.95508,5.54801 -4.16631,-4.16636 -4.16642,-4.16635 5.42429,-5.42429 5.42428,-5.42426 7.93444,3.9582 7.93446,3.95821 v -3.70714 -3.70711 l -6.15131,-2.33876 -6.15131,-2.33873 -1.74906,-2.83003 -1.74911,-2.83005 2.97695,-3.58693 2.97691,-3.58698 -1.0195,-5.90094 -1.01953,-5.90089 -2.95367,7.04004 -2.95367,7.03995 h -2.79585 -2.7959 l 1.48871,-4.6905 1.4887,-4.69045 -5.34158,-4.83411 -5.34155,-4.83401 0.82539,7.43417 0.82539,7.4342 -6.4,1.73797 -6.40001,1.73796 5.12001,2.02154 5.12,2.02147 4.47997,3.84764 4.48003,3.8477 v 2.33571 2.33578 l -4.90457,-1.5567 -4.90458,-1.55662 -1.6465,2.66412 -1.64654,2.66414 h 2.7111 2.71109 v 4.94198 4.94192 l -5.76004,1.00107 -5.75997,1.00097 6.50522,2.75037 6.50519,2.75034 3.40828,4.10666 3.40822,4.10669 h -4.66546 -4.66544 l 3.072,3.072 3.072,3.072 v 4.60799 4.60801 h -30.72 -30.72 v -4.91062 -4.91065 l -1.54024,-4.01374 -1.54023,-4.01385 6.66022,-2.5322 6.66025,-2.53224 v -4.21679 -4.21681 l -3.84,3.18689 -3.84,3.18692 -3.96353,-3.28943 -3.96357,-3.28944 0.76354,-5.34404 0.76356,-5.344 7.67008,0.83564 7.67005,0.83571 -6.0244,-6.41272 -6.02441,-6.41266 0.91433,-2.71122 0.91435,-2.71125 7.33262,3.80829 7.3326,3.80821 h 2.66413 2.66414 l -4.84274,-5.35125 -4.84281,-5.35119 4.5992,-3.36304 4.59924,-3.36298 -2.82534,-1.74617 -2.8253,-1.74617 -3.78972,3.14522 -3.78973,3.14517 -1.68747,-1.68749 -1.68748,-1.68744 3.02935,-3.02934 3.02931,-3.02932 v -3.34966 -3.34973 l -4.78088,2.9857 -4.78092,2.98574 -4.17908,-1.60369 -4.17912,-1.60367 v -2.61019 -2.61014 l 5.65504,0.60982 5.6551,0.60981 0.991,-4.78314 0.99106,-4.78322 -2.78584,1.72176 -2.78579,1.72169 -4.5003,-2.51852 -4.50027,-2.51852 7.03997,-2.67664 7.04002,-2.67671 v -3.82296 -3.82304 l -3.97007,1.52347 -3.97002,1.52344 1.83472,-7.36381 1.83469,-7.36379 -4.32654,3.56483 -4.32648,3.56476 -1.68747,-1.68748 -1.68748,-1.68745 3.02935,-3.02934 3.02931,-3.02933 v -3.72478 -3.72472 l -5.12001,4.63351 -5.11999,4.63358 v 4.21121 4.21121 l 2.96351,2.96352 2.96351,2.96351 -2.71819,3.30846 -2.71823,3.3085 -0.88531,6.19948 -0.88529,6.19947 -3.18424,1.04864 -3.18425,1.04857 -2.51238,-6.60807 -2.51244,-6.60808 h -1.63386 -1.63394 l 1.11274,7.58177 1.11278,7.58178 -3.38222,1.29791 L 128,292.99966 v 4.43232 4.43236 l 3.072,-3.072 3.07199,-3.07201 h 4.21122 4.21127 l 4.87676,5.71593 4.87676,5.71582 -4.48003,-3.46928 -4.47997,-3.46937 v 4.21682 4.21679 l 6.15132,2.33875 6.1513,2.33874 1.48759,2.40696 1.48759,2.40696 -3.98635,7.99095 -3.98645,7.99094 h -2.43587 -2.43583 l -2.4333,-6.4 -2.43331,-6.4 h -4.2168 -4.21679 l 3.23823,3.90187 3.23825,3.90183 -1.58293,1.58295 -1.58295,1.58294 -3.78972,-3.14517 -3.78972,-3.14523 -2.82533,1.74618 -2.82531,1.74618 4.63322,3.51279 4.63316,3.51283 5.4465,0.0814 5.4466,0.0814 3.08483,3.71705 3.08483,3.71697 -0.89903,4.603 -0.8991,4.603 H 140.8 134.49537 l -0.78301,4.00033 -0.78305,4.00033 9.69538,-0.16026 9.69531,-0.1605 0.81805,5.76003 0.81805,5.75997 H 107.69802 61.44 v -45.39821 -45.39815 l 27.52,-27.86342 27.52,-27.86339 -7.68,1.73765 -7.68,1.73763 -19.84,19.62387 -19.84,19.62393 v -3.8601 -3.86007 L 76.8,245.80018 92.16,230.60044 v -2.00013 -2.00013 H 87.776894 83.393789 L 72.416894,237.37316 61.44,248.14623 v -3.89407 -3.89406 l 7.719063,-7.39536 7.719046,-7.3953 -4.013086,-2.24584 -4.0131,-2.24587 -3.705966,3.07568 L 61.44,227.22706 V 207.71345 188.2 h 5.12 5.12 v -2.56 -2.56 h -5.12 -5.12 v 2.56 2.56 H 56.32 51.2 v -2.56 -2.56 h -5.12 -5.12 v 2.56 2.56 h 5.12 5.12 v 14.768 14.76806 L 25.6,243.24 0,268.74394 v -3.72776 -3.72766 l 17.085125,-17.21709 17.085146,-17.21706 -6.956111,0.7416 -6.956136,0.74168 -10.12901,9.89071 L 0,248.11909 v -3.88056 -3.88062 l 7.719063,-7.39535 7.719036,-7.39531 -4.013076,-2.24584 -4.01311,-2.24587 -3.7059474,3.07569 L 0,227.22688 V 207.71345 188.2 H 4.9474743 9.894961 L 11.281257,183.72004 12.667519,179.24 25.570437,118.09958 38.473324,56.959172 39.994187,50.899574 41.51503,44.84 H 36.117525 30.72 v -5.12 -5.11999 h 6.19658 6.196616 L 44.8,26.92 46.486804,19.24001 H 48.84339 51.2 V 14.12 9 h 5.12 5.12 v 5.12 5.12001 h 2.35658 2.356606 L 67.84,26.92 69.526804,34.60001 H 75.72339 81.92 V 39.72 44.84 H 76.522475 71.12494 l 1.520873,6.059574 1.520843,6.059598 12.902907,61.140408 12.902947,61.14042 1.38625,4.48004 1.38627,4.47996 h 101.34423 101.34426 l -4.23674,-4.68157 -4.23679,-4.68161 v -3.88166 -3.88166 l 4.68156,-4.23673 4.68161,-4.23677 h 3.88166 3.88166 l 4.23673,4.68155 4.23679,4.68161 v 3.43684 3.43682 l -4.23679,4.68161 -4.23673,4.68157 H 325.12 336.15352 l -4.23674,-4.68157 -4.23678,-4.68161 v -3.88166 -3.88166 l 4.68155,-4.23673 4.68161,-4.23677 h 3.88165 3.88167 l 4.23673,4.68155 4.23679,4.68161 v 3.43684 3.43682 l -4.23679,4.68161 -4.23673,4.68157 H 389.12 433.43352 l -4.23674,-4.68157 -4.23679,-4.68161 v -3.88166 -3.88166 l 4.68156,-4.23673 4.68161,-4.23677 h 3.88165 3.88167 l 4.23673,4.68155 4.23679,4.68161 v 3.43684 3.43682 l -4.23679,4.68161 -4.23673,4.68157 H 477.04321 512 v 19.80156 19.80151 l -29.93188,30.01012 -29.93185,30.01002 4.56235,1.75075 4.56235,1.75071 L 486.63052,266.0504 512,240.77606 v 3.73535 3.73532 L 492.16003,268.45091 472.32,288.65514 480,286.9012 487.68,285.14728 499.84003,273.24986 512,261.35248 v 3.98701 3.98699 l -5.12001,4.63352 -5.11999,4.63352 v 2.33577 2.33577 L 506.87999,281.64 512,280.01495 V 387.70751 495.4 H 256 0 Z m 118.84893,-102.78088 4.44249,-4.90892 -0.84568,-5.48784 -0.84574,-5.48787 -10.11957,10.39675 -10.11952,10.39676 h 6.52276 6.52281 z M 271.92576,275.96023 286.72,261.32038 v -6.41606 -6.41604 l -19.2,19.07183 -19.2,19.07181 v 1.9841 1.98408 h 4.40576 4.40578 z m 10.11269,10.40309 4.68155,-4.23674 v -3.44326 -3.44322 h -3.36108 -3.36101 l -7.35792,7.68001 -7.35792,7.67999 h 6.03739 6.03738 z m 172.85675,-29.53995 27.4933,-27.57879 -3.15911,-3.15909 -3.15911,-3.15911 -31.95515,31.87849 -31.95514,31.87844 v 1.73598 1.73604 l 7.62096,-2.87655 7.62094,-2.87659 z m -325.7242,-1.95403 33.09709,-33.17078 -4.5723,-1.75456 -4.57232,-1.75453 -33.04177,32.9684 -33.0417,32.96838 v 1.95693 1.95692 h 4.516946 4.516934 z m 144.78457,-1.6879 34.52443,-34.85868 -7.68,1.72811 -7.68,1.7281 -31.29025,31.10256 -31.29026,31.10262 3.13025,1.98879 3.13026,1.98873 1.31557,0.0392 1.31555,0.0392 z m 162.41543,1.6879 33.09711,-33.17078 -4.57232,-1.75456 -4.57232,-1.75453 -33.04175,32.9684 -33.04173,32.96838 v 1.95693 1.95692 h 4.51693 4.51694 z m -326.25258,-1.68892 31.96158,-32.2997 -7.68,1.73019 -7.68,1.73015 L 97.92003,252.94885 69.12,281.55657 v 1.9618 1.96174 h 4.518403 4.518427 z m 263.00154,3.39367 26.24004,-26.0425 v -1.96579 -1.9657 h -4.52173 -4.5218 l -29.39823,29.74089 -29.39824,29.74091 7.67999,-1.73262 7.68001,-1.73261 z m 44.19848,-3.39367 31.96155,-32.2997 -7.67999,1.73019 -7.68001,1.73015 -28.79996,28.60779 -28.80003,28.60772 v 1.9618 1.96174 h 4.51841 4.51844 z m 60.7246,0.9781 31.39695,-31.32156 v -1.73605 -1.73606 l -7.62094,2.87657 -7.62095,2.8766 -27.26052,27.34533 -27.26057,27.34532 1.75262,2.83575 1.75253,2.83569 h 1.73198 1.73195 z m -247.03756,1.17158 24.92547,-24.72515 -4.12516,-2.30852 -4.12512,-2.30856 -28.48036,28.75717 -28.48031,28.7571 7.68,-1.72343 7.68,-1.72345 z m 22.47628,-2.15088 29.39824,-29.74092 -7.68001,1.73264 -7.67999,1.73261 -26.23997,26.04256 -26.24003,26.04251 v 1.96576 1.96573 h 4.52173 4.5218 z m 142.0819,1.27931 28.11634,-28.46161 -7.68,1.73403 -7.68,1.73401 -24.89614,24.69593 -24.89623,24.69598 3.13623,1.99243 3.13614,1.99236 1.32365,0.0392 1.32368,0.0392 z M 211.7963,254.16582 238.08,227.97158 v -1.96578 -1.9657 h -4.43423 -4.43416 L 204.20577,248.9521 179.2,273.86404 v 3.24807 3.24799 h 3.15629 3.15627 z m 168.03565,-30.97479 -4.09898,-2.29386 -21.46652,21.35494 L 332.8,263.60707 v 6.40848 6.40849 l 25.56545,-25.46951 25.5655,-25.46958 z M 220.16,223.46018 v -1.98007 h -4.41112 -4.41111 L 195.26887,237.40614 179.2,253.33217 v 6.41389 6.41396 l 20.48,-20.35991 20.48,-20.3599 z m 145.92,-2.56355 v -1.97652 h -4.42335 -4.42339 l -19.66809,19.55272 -19.66805,19.55273 2.97143,3.31226 2.97144,3.31229 21.12004,-20.88846 21.11997,-20.88854 z m -177.36051,15.39091 13.5205,-13.35256 v -1.78504 -1.78509 l -7.72513,2.91592 -7.72514,2.91591 -9.20879,9.43062 -9.20871,9.43065 1.72495,2.79103 1.725,2.79112 h 1.68841 1.68843 z m 143.94959,-0.59237 8.55352,-8.82497 -6.9346,0.73938 -6.93456,0.73931 -5.26739,5.26738 -5.26738,5.26739 1.74174,2.81822 1.74176,2.81822 h 1.90672 1.90671 z m -160.38557,-9.35556 -2.87739,-2.87739 -2.78309,1.71998 -2.78303,1.72007 v 6.81778 6.81781 l 5.66046,-5.66042 5.66041,-5.66047 z m 143.55589,5.71517 7.03726,-7.3454 -4.47685,-1.7179 -4.47688,-1.71796 -6.2371,6.23709 -6.23703,6.23709 1.74668,2.8262 1.74669,2.8262 h 1.92999 1.92991 z M 35.84,185.64011 v -2.56001 h -7.68 -7.68 v 2.56001 2.56 h 7.68 7.68 z m 56.32,0 V 183.0801 H 84.48 76.8 v 2.56001 2.56 h 7.68 7.68 z m -56.32,-12.8 v -5.12001 h -6.4 -6.4 v 5.12001 5.11999 h 6.4 6.4 z m 15.36,0 v -5.12001 h -5.12 -5.12 v 5.12001 5.11999 h 5.12 5.12 z m 20.48,0 v -5.12001 h -5.12 -5.12 v 5.12001 5.11999 h 5.12 5.12 z m 17.92,0 v -5.12001 h -6.4 -6.4 v 5.12001 5.11999 h 6.4 6.4 z M 35.84,152.3601 v -5.12 H 32 28.16 v 5.12 5.12001 H 32 35.84 Z m 15.36,0 v -5.12 h -5.12 -5.12 v 5.12 5.12001 h 5.12 5.12 z m 20.48,0 v -5.12 h -5.12 -5.12 v 5.12 5.12001 h 5.12 5.12 z m 12.8,0 v -5.12 H 80.63999 76.8 v 5.12 5.12001 H 80.63999 84.48 Z m -48.679194,-21.11997 -0.03923,-5.76003 -2.481597,3.84 -2.481607,3.84001 -0.03923,1.92002 -0.03923,1.91998 h 2.56 2.55999 l -0.03922,-5.75998 z M 51.2,131.8801 v -5.12 h -5.12 -5.12 v 5.12 5.12001 h 5.12 5.12 z m 20.48,0 v -5.12 h -5.12 -5.12 v 5.12 5.12001 h 5.12 5.12 z m 10.200806,3.20003 -0.03923,-1.92002 -2.481587,-3.84001 -2.481617,-3.84 -0.03923,5.76003 -0.03923,5.75998 h 2.56001 2.56 l -0.03922,-1.91998 z M 51.2,111.23006 v -5.29007 l -7.01812,0.81004 -7.018103,0.81007 -0.849616,4.48004 -0.849585,4.47996 H 43.332275 51.2 Z m 25.125808,0.81008 -0.849585,-4.48004 -7.018113,-0.81007 -7.01811,-0.81004 v 5.29007 5.29004 h 7.867695 7.867729 z M 51.2,90.920112 v -5.120011 h -5.12 -5.12 v 5.120011 5.119989 h 5.12 5.12 z m 20.48,0 v -5.120011 h -5.12 -5.12 v 5.120011 5.119989 h 5.12 5.12 z M 51.2,70.440101 v -5.12 h -2.261427 -2.26143 l -1.338904,5.12 -1.338897,5.120011 H 47.599666 51.2 Z m 16.101761,0 -1.338904,-5.12 H 63.701427 61.44 v 5.12 5.120011 h 3.600334 3.600324 z M 358.4,170.28011 V 162.6001 H 378.87999 399.36 v 7.68001 7.67999 H 378.87999 358.4 Z m 46.08,-25.68666 V 111.2269 l 27.52003,0.72658 27.51997,0.72663 0.7165,32.64003 0.71646,32.63996 h -2.6365 -2.63646 v -5.11999 -5.12001 l -5.12,-5.12 -5.12001,-5.11999 h -8.81483 -8.81481 l -3.98519,5.68958 -3.98516,5.68963 v 4.55038 4.5504 H 412.15999 404.48 Z m 46.08,-17.83335 v -10.24 h -17.92 -17.92 v 10.24 10.24001 h 17.92 17.92 z M 291.84,154.92011 V 152.3601 H 345.59999 399.36 v 2.56001 2.56 H 345.59999 291.84 Z m 0,-28.16001 V 106.28011 H 345.59999 399.36 v 20.47999 20.48 H 345.59999 291.84 Z"
     style="fill:#000000;stroke-width:2.5599997" />
</svg>
