<?xml version="1.0" encoding="UTF-8" standalone="no"?>
<svg
   xmlns:dc="http://purl.org/dc/elements/1.1/"
   xmlns:cc="http://creativecommons.org/ns#"
   xmlns:rdf="http://www.w3.org/1999/02/22-rdf-syntax-ns#"
   xmlns:svg="http://www.w3.org/2000/svg"
   xmlns="http://www.w3.org/2000/svg"
   id="svg6309"
   version="1.1"
   viewBox="0 0 135.46666 135.46667"
   height="512"
   width="512">
  <defs
     id="defs6303" />
  <metadata
     id="metadata6306">
    <rdf:RDF>
      <cc:Work
         rdf:about="">
        <dc:format>image/svg+xml</dc:format>
        <dc:type
           rdf:resource="http://purl.org/dc/dcmitype/StillImage" />
        <dc:title></dc:title>
      </cc:Work>
    </rdf:RDF>
  </metadata>
  <g
     transform="translate(0,-161.53332)"
     id="layer1">
    <path
       id="path9952"
       d="m 103.97197,286.65977 c -7.720737,-9.67211 -15.237665,-21.00169 -19.172658,-28.89721 -4.077014,-8.1805 -5.121283,-13.26078 -3.923165,-19.08601 2.003944,-9.7432 9.223603,-17.34861 19.048166,-20.06593 2.641207,-0.73052 7.859097,-0.98756 10.710317,-0.52761 10.09705,1.62883 18.09253,8.71361 21.11944,18.71388 0.66615,2.20084 0.77313,3.08512 0.79701,6.58781 0.0263,3.86192 -0.0155,4.16903 -0.91925,6.75904 -2.95086,8.45617 -10.76937,19.80322 -23.26919,33.77072 -1.88468,2.10595 -3.44894,3.82901 -3.47616,3.829 -0.0272,0 -0.43874,-0.48766 -0.91451,-1.08369 z m 4.40245,-13.8822 c 10.21869,-12.19518 16.55482,-22.63525 17.04672,-28.08794 0.22921,-2.54077 -0.58756,-6.12989 -2.08457,-9.1602 -3.73682,-7.5642 -12.15244,-11.72616 -20.3913,-10.08454 -5.691677,1.13409 -10.752014,4.95558 -13.237014,9.99638 -1.284523,2.60566 -2.052427,5.56794 -2.060673,7.94924 -0.01791,5.18467 5.478688,15.97433 14.829207,29.10915 1.44263,2.02649 2.71751,3.68452 2.83306,3.68452 0.11554,0 1.4946,-1.53298 3.06457,-3.40661 z m -5.05939,-20.19394 c -1.75427,-0.62083 -4.183458,-2.94364 -5.005297,-4.78614 -1.014035,-2.27336 -0.971209,-5.29989 0.106055,-7.4935 0.882882,-1.79783 2.402482,-3.32902 4.313112,-4.346 1.76897,-0.94157 5.88938,-0.95579 7.63246,-0.0263 2.70897,1.44451 4.16631,3.28204 4.91225,6.19371 1.02273,3.99212 -0.96666,8.11142 -4.85598,10.05492 -1.50023,0.74968 -2.08555,0.88182 -3.82062,0.86249 -1.12692,-0.0126 -2.60381,-0.21917 -3.28195,-0.45916 z M 56.432486,285.53857 C 44.72054,284.71519 33.21037,280.18398 24.066476,272.79705 21.508353,270.73046 16.65072,265.77664 14.777842,263.32447 9.9110125,256.95234 6.1983725,249.19164 4.3933865,241.61743 2.8850795,235.2881 2.4735425,226.25664 3.4077705,219.98699 5.8422115,203.64924 14.810838,189.35853 28.236187,180.42512 c 17.087781,-11.37044 38.92963,-12.77761 57.23901,-3.68764 6.272981,3.1143 9.960773,5.74214 14.984313,10.67744 6.03221,5.92626 10.63407,13.01037 13.58843,20.91806 0.57636,1.54273 1.04794,2.85859 1.04794,2.92413 0,0.0655 -0.74773,-0.0577 -1.66165,-0.27381 -0.9139,-0.21614 -2.75018,-0.47955 -4.08059,-0.58534 l -2.41896,-0.19235 -0.58165,-1.3996 -0.58163,-1.3996 h -8.34196 c -9.457393,0 -8.672045,-0.25453 -7.921026,2.56721 0.227738,0.85568 0.494522,2.22112 0.592844,3.03432 l 0.178763,1.47853 -2.468824,1.62298 -2.468814,1.62297 -0.177867,-1.04501 c -0.419761,-2.4662 -1.295696,-6.63473 -1.646592,-7.83609 l -0.37984,-1.30042 -10.029507,-0.076 -10.029496,-0.076 v 8.91932 8.91931 l 7.385273,0.15543 c 4.061898,0.0855 7.438234,0.2084 7.502959,0.27313 0.06477,0.0647 -0.469872,1.24948 -1.187993,2.63277 l -1.305679,2.51509 h -6.19728 -6.19728 v 9.10294 9.10294 h 5.210746 c 3.918578,0 5.237429,0.0896 5.31833,0.36123 0.0592,0.19867 0.429885,1.43408 0.823837,2.74532 l 0.716275,2.38411 h -6.034594 -6.034594 v 11.29869 11.29868 l 0.850662,-0.53859 c 3.524266,-2.23142 8.77218,-7.69531 12.061772,-12.55817 1.064212,-1.57319 2.02083,-2.76139 2.125814,-2.64044 0.104962,0.12094 0.789323,1.36058 1.520736,2.75475 l 1.32985,2.53483 -2.126425,2.81134 c -1.169534,1.54623 -3.065928,3.82591 -4.214197,5.06597 -1.869842,2.01931 -2.000853,2.23358 -1.255088,2.05275 1.95261,-0.47343 6.730937,-2.26542 8.751013,-3.28183 l 2.184181,-1.09899 1.98956,3.03358 c 1.575347,2.40203 1.907479,3.09104 1.595335,3.30959 -0.884379,0.61918 -5.924619,2.88189 -8.239495,3.69894 -3.444741,1.21584 -7.699689,2.25901 -11.173188,2.73929 -3.187,0.44067 -9.492082,0.7273 -12.047125,0.54767 z M 45.852458,274.08906 c -4.867233,-5.05566 -9.062294,-11.49123 -11.679201,-17.9169 l -0.676726,-1.66165 h -7.903999 c -9.191449,0 -8.537462,-0.504 -5.161454,3.97769 4.522791,6.00406 11.289291,11.53238 18.091221,14.78075 2.806669,1.34037 8.555965,3.44584 9.499924,3.47901 0.222036,0.008 -0.754361,-1.18871 -2.169765,-2.6589 z m 11.735953,-8.45273 v -11.12582 h -8.958446 c -5.909339,0 -8.958447,0.1006 -8.958447,0.29539 0,1.12883 4.34878,8.50028 7.064664,11.97505 3.025188,3.87051 9.432741,9.96402 10.491,9.97682 0.282808,0.003 0.361229,-2.41111 0.361229,-11.12144 z M 31.440717,248.22515 c -1.149022,-4.52165 -2.000743,-9.83438 -2.340215,-14.59755 l -0.201099,-2.82153 -9.279788,0.0762 -9.279798,0.0762 0.09076,1.5894 c 0.123344,2.16134 0.791945,6.04606 1.517067,8.8145 0.644353,2.46007 2.190353,6.70564 2.656882,7.29626 0.216521,0.27412 2.305461,0.36123 8.661768,0.36123 h 8.376426 z m 26.003205,-8.30824 v -8.95845 l -11.487037,-0.0756 -11.487047,-0.0756 v 1.08877 c 0,3.19408 1.125824,10.3179 2.35282,14.88784 l 0.602313,2.24332 10.009476,-0.0759 10.009475,-0.0759 z M 29.099147,222.21675 c 0.23854,-3.72668 0.870704,-8.25637 1.632962,-11.70072 0.307405,-1.38905 0.55892,-2.65696 0.55892,-2.81758 0,-0.18999 -2.915158,-0.29204 -8.342305,-0.29204 H 14.60643 l -1.055944,2.75874 c -1.570728,4.10368 -2.580525,8.47113 -3.187361,13.78549 l -0.156744,1.37267 h 9.346959 9.346959 z m 28.421197,-5.77965 -0.07645,-8.8862 -10.047856,-0.076 -10.047856,-0.076 -0.30475,0.79845 c -0.964831,2.5279 -2.151426,9.35771 -2.469774,14.21562 l -0.190734,2.91033 H 45.989831 57.596739 Z M 34.164203,199.67613 c 2.708686,-6.51999 7.020286,-13.03191 11.95859,-18.06139 1.053399,-1.07284 1.790306,-1.95063 1.637571,-1.95063 -0.774556,0 -6.859349,2.24453 -9.420257,3.4749 -5.275351,2.53451 -11.26831,7.01289 -15.072401,11.2632 -1.839205,2.05494 -4.624182,5.6774 -5.157042,6.70785 l -0.416637,0.80569 h 7.769875 7.769874 z m 23.424208,-9.03069 c 0,-6.19867 -0.07744,-11.27031 -0.172122,-11.27031 -0.297684,0 -1.913116,1.19463 -4.273253,3.1601 -2.729209,2.27283 -6.219692,6.18162 -8.554512,9.57969 -1.670851,2.43174 -4.670886,7.86559 -5.052069,9.15062 l -0.192875,0.65021 h 9.122421 9.12241 z m 23.407563,11.07979 c 0,-0.10478 -0.786964,-1.68882 -1.748802,-3.5201 -3.768485,-7.17485 -8.21586,-12.52516 -14.795426,-17.7993 l -1.372665,-1.10032 v 11.30512 11.30512 h 8.958447 c 4.927152,0 8.958446,-0.0857 8.958446,-0.19052 z m 21.673666,0.0302 c 0,-0.36885 -2.50877,-3.81149 -4.553819,-6.24891 -5.496721,-6.55139 -13.585642,-11.96857 -22.109102,-14.80657 -1.71099,-0.56969 -3.248339,-1.03581 -3.416344,-1.03581 -0.167994,0 0.747808,1.14854 2.035138,2.55231 5.237483,5.71122 9.436345,12.20517 11.943069,18.47115 l 0.491345,1.22818 h 7.804858 c 4.292672,0 7.804855,-0.0721 7.804855,-0.16035 z"
       style="fill:#000000;stroke-width:0.28898224" />
  </g>
</svg>
