<?xml version="1.0" encoding="UTF-8" standalone="no"?>
<svg
   xmlns:dc="http://purl.org/dc/elements/1.1/"
   xmlns:cc="http://creativecommons.org/ns#"
   xmlns:rdf="http://www.w3.org/1999/02/22-rdf-syntax-ns#"
   xmlns:svg="http://www.w3.org/2000/svg"
   xmlns="http://www.w3.org/2000/svg"
   viewBox="0 0 512 512"
   height="512"
   width="512"
   id="svg9976"
   version="1.1">
  <metadata
     id="metadata9982">
    <rdf:RDF>
      <cc:Work
         rdf:about="">
        <dc:format>image/svg+xml</dc:format>
        <dc:type
           rdf:resource="http://purl.org/dc/dcmitype/StillImage" />
        <dc:title></dc:title>
      </cc:Work>
    </rdf:RDF>
  </metadata>
  <defs
     id="defs9980" />
  <path
     id="path10529"
     d="M 241.802,508.04393 C 211.6375,506.16376 184.7224,499.07483 157.30199,485.7882 99.405254,457.73422 56.239924,404.65352 40.918924,342.67115 c -4.2855,-17.33735 -6.12029,-33.22596 -6.09741,-52.80122 0.0403,-34.48142 7.12105,-65.00203 22.06839,-95.12305 25.68258,-51.75401 68.953356,-89.65817 122.543596,-107.345259 23.2786,-7.682922 42.3941,-10.730471 67.306,-10.730471 13.435,0 14.0771,0.0933 15.4807,2.250005 1.2089,1.857601 1.2848,3.645198 0.4351,10.25 -0.566,4.4 -0.8231,11.059575 -0.5712,14.799045 l 0.4579,6.79903 -4.87,2.46781 c -3.8106,1.93098 -4.87,2.99565 -4.87,4.89426 0,3.17473 3.4852,5.53986 8.1635,5.53986 4.0128,0 4.2466,0.18486 5.1786,4.09606 l 0.6187,2.59607 -13.7304,-0.0961 c -7.5517,-0.0528 -14.8945,0.2316 -16.3173,0.63206 -1.5884,0.44706 -3.7545,2.60633 -5.6116,5.59379 -4.6715,7.5148 -9.0199,9.18318 -23.8672,9.15725 -7.122,-0.0124 -14.5553,-0.63649 -18.4343,-1.54763 -11.78654,-2.76855 -11.56638,-2.7666 -16.15265,-0.1435 -6.44848,3.68817 -12.65766,5.40421 -29.84736,8.24893 -28.06041,4.64372 -28.18509,4.68678 -34.59898,11.94717 -6.65255,7.53054 -17.694436,22.39727 -22.392746,30.14944 -3.92799,6.48116 -3.51268,8.11666 2.5893,10.19666 3.30925,1.12804 6.33449,1.07614 19.902426,-0.34143 8.8,-0.91941 19.94875,-2.26045 24.775,-2.98007 4.82625,-0.71963 9.66745,-1.07503 10.75823,-0.78979 2.19264,0.57339 13.19776,15.81456 17.33987,24.01426 4.19116,8.29682 5.6269,15.51408 5.6269,28.28573 0,11.36177 0.0678,11.71135 3.31948,17.11127 5.15336,8.55799 22.42503,31.47705 25.96683,34.45727 l 3.1795,2.67536 0.6674,-2.38142 c 0.3671,-1.30978 0.7411,-4.18142 0.8311,-6.38142 l 0.1636,-4 1.6219,3.5 c 0.892,1.925 2.2972,5.03153 3.1227,6.9034 3.6498,8.27603 12.3012,13.53378 24.897,15.13078 9.4981,1.20423 14.3382,3.40842 21.7329,9.89711 3.2987,2.89455 8.805,6.90664 12.2362,8.91576 3.4313,2.00912 6.5041,4.45602 6.8284,5.43754 0.3264,0.9878 -0.36,3.3942 -1.5373,5.38965 -3.7402,6.33916 -7.0297,15.54774 -7.0297,19.67874 0,2.83497 1.4379,6.80907 4.9126,13.57759 5.1826,10.09524 11.6117,27.6911 14.5447,39.807 l 1.752,7.23754 -3.7059,15.76246 c -2.4016,10.21458 -3.8969,19.37013 -4.2483,26.01246 l -0.5423,10.25 h 3.161 c 1.7386,0 7.5407,-0.92417 12.8936,-2.05371 8.5464,-1.8034 10.0982,-2.46375 12.7326,-5.41797 1.65,-1.85034 7.95,-6.36373 14,-10.02975 6.05,-3.66602 12.2986,-7.86544 13.8858,-9.33203 4.242,-3.91969 10.254,-13.54415 12.1681,-19.47968 2.6034,-8.07279 3.9311,-9.4657 13.0299,-13.66936 12.1143,-5.59683 17.5656,-11.4425 23.8799,-25.6076 2.6747,-6.00045 6.3733,-13.66303 8.219,-17.02796 1.8457,-3.36493 3.1134,-6.74961 2.8172,-7.52151 -0.6231,-1.6239 -1.733,-2.3603 -14.353,-9.52326 -13.9399,-7.91215 -20.7299,-13.11355 -30.1469,-23.09353 l -8.5,-9.00819 -15.5,-3.83669 c -14.8086,-3.66554 -16.2821,-3.84245 -33.032,-3.96588 -12.2976,-0.0906 -18.2689,-0.51979 -20,-1.43742 -1.3574,-0.71952 -5.7305,-3.96676 -9.718,-7.21608 -7.1477,-5.82452 -7.25,-5.97465 -7.25,-10.64362 0,-5.84616 -1.2103,-7.13576 -6.6971,-7.13576 -3.5098,0 -5.0099,0.64394 -8.1874,3.51463 -4.6237,4.17725 -5.1155,3.59524 -5.1155,-6.05426 v -6.37606 l 4.25,-2.47375 c 7.191,-4.18561 8.7983,-4.19875 18.227,-0.14904 5.3868,2.31371 9.7017,3.54915 11.7054,3.35151 2.8863,-0.28471 3.418,-0.91134 5.8769,-6.92571 3.8994,-9.53775 9.2708,-17.4646 16.8642,-24.88731 10.2967,-10.06536 29.2016,-23.02749 33.5078,-22.97458 1.4675,0.018 5.1202,4.01257 12.5687,13.74505 5.775,7.5458 12.6907,16.07158 15.3682,18.94618 9.8169,10.53957 20.0604,14.77829 33.9772,14.05964 12.1941,-0.62968 18.545,-3.4713 27.2249,-12.18141 6.3404,-6.3624 31.5651,-38.93688 36.1116,-46.63356 2.071,-3.50593 5.8593,-4.88841 7.7849,-2.84097 2.8093,2.98709 8.7556,26.49301 11.1003,43.87965 1.8158,13.46465 2.0612,41.94562 0.4664,54.1137 -4.7008,35.86577 -15.8595,66.27552 -34.7982,94.83243 -34.6323,52.22078 -89.6249,86.92749 -151.2353,95.44708 -11.1776,1.54566 -31.9054,2.54644 -41,1.97956 z M 214.4466,123.58548 c 3.7705,-1.14713 7.7533,-2.95759 8.8509,-4.02326 1.9939,-1.9361 1.9939,-1.94031 0,-5.56469 l -1.9955,-3.62712 -10.9783,0.20992 c -9.0886,0.17379 -11.5503,0.5634 -14.3011,2.26349 -4.0203,2.48468 -6.655,6.25307 -5.8459,8.36145 1.7345,4.52 13.4578,5.66973 24.2699,2.38021 z m 159.4215,121.33566 c -10.0048,-10.40768 -39.8672,-52.22039 -54.1002,-75.74998 -9.2339,-15.26521 -20.8078,-38.79756 -24.3439,-49.49669 -5.9491,-18.00026 -5.8133,-33.667203 0.4545,-52.40608 11.0161,-32.93517 39.6382,-57.05028 74.3608,-62.6516496 10.375,-1.67366 28.8494,-0.68932 38.4954,2.05109 26.4985,7.5281496 47.0817,24.7276696 59.0771,49.3653596 11.4333,23.48312 12.3713,45.31151 2.9711,69.13797 -10.4753,26.55152 -31.0866,60.46743 -61.1657,100.64813 -8.3905,11.20837 -16.3371,20.80902 -18.1274,21.90067 -2.0163,1.22939 -5.001,1.9451 -8.1217,1.94746 -4.5804,0.003 -5.2609,-0.3365 -9.5,-4.74628 z m 23.4738,-91.75863 c 20.6085,-5.2165 37.6988,-21.95336 42.9317,-42.04365 1.9257,-7.39316 1.9525,-22.264832 0.053,-29.402362 C 434.7555,60.78192 416.6261,43.6526 395.302,39.17555 c -8.8263,-1.85309 -14.1738,-1.85309 -23,0 -21.7478,4.566 -40.3126,22.52696 -45.4506,43.972094 -1.657,6.916126 -1.4386,20.874796 0.4371,27.931316 5.3434,20.10324 22.7964,37.3162 42.7305,42.14291 7.3155,1.77134 20.2011,1.74334 27.3229,-0.0594 z m -133.9616,36.38815 c -5.0854,-1.19246 -6.3902,-2.35965 -7.1468,-6.39304 -1.0169,-5.42056 0.2034,-7.18555 7.6872,-11.11816 7.7795,-4.08802 10.156,-7.34892 11.3996,-15.64177 0.3898,-2.59959 0.9952,-4.71896 1.3452,-4.70972 0.483,0.0128 7.5994,13.72601 9.9698,19.21178 0.1834,0.42428 -0.3094,0.77141 -1.095,0.77141 -2.4893,0 -4.4919,3.31078 -5.7463,9.5 -1.8119,8.9404 -2.2885,9.51649 -7.7772,9.39955 -2.5931,-0.0553 -6.4796,-0.51427 -8.6365,-1.02005 z"
     style="fill:#000000" />
</svg>
