<?xml version="1.0" encoding="utf-8"?>
<!-- Generator: Adobe Illustrator 16.0.0, SVG Export Plug-In . SVG Version: 6.00 Build 0)  -->
<!DOCTYPE svg PUBLIC "-//W3C//DTD SVG 1.1//EN" "http://www.w3.org/Graphics/SVG/1.1/DTD/svg11.dtd">
<svg version="1.1" id="Layer_1" xmlns="http://www.w3.org/2000/svg" xmlns:xlink="http://www.w3.org/1999/xlink" x="0px" y="0px"
	 width="512px" height="512px" viewBox="0 0 512 512" enable-background="new 0 0 512 512" xml:space="preserve">
<path fill-rule="evenodd" clip-rule="evenodd" fill="none" d="M38.541,266.177c-1.321,0.959-2.696,1.854-3.957,2.89
	c-4.368,3.583-8.838,7.058-13.007,10.86c-7.17,6.543-13.534,13.814-17.574,22.761c-5.726,12.679-4.938,24.678,4.442,35.519
	c4.852,5.608,11.087,9.22,17.854,11.957c16.854,6.822,34.646,8.686,52.566,9.315c10.926,0.383,21.888,0.042,32.823-0.329
	c9.065-0.307,18.135-0.906,27.167-1.772c23.804-2.28,47.423-5.895,70.896-10.461c39.261-7.638,77.91-17.657,115.935-30.051
	c30.706-10.011,60.863-21.436,90.023-35.385c23.563-11.272,46.487-23.621,66.927-40.084c9.148-7.368,17.496-15.529,23.354-25.881
	c4.181-7.389,6.277-15.235,4.756-23.776c-2.089-11.714-9.627-19.096-19.626-24.438c-10.72-5.726-22.415-8.184-34.288-9.97
	c-2.836-0.426-5.7-0.659-8.712-1c2.967,6.557,6.231,12.445,8.302,18.729c1.902,5.787,4.8,8.91,11.087,9.835
	c6.017,0.886,11.754,3.356,16.491,7.555c2.479,2.196,3.109,4.805,1.716,7.753c-1.066,2.254-2.204,4.521-3.647,6.541
	c-5.735,8.022-13.281,14.188-21.123,19.993c-4.228,3.128-8.631,6.015-13.131,9.134C436.02,124.179,333.578,46.439,223.838,64.966
	c-50.986,8.607-92.619,33.831-122.852,75.68C57.445,200.917,52.466,266.15,79.959,335.156c-8.733-0.999-17.301-1.783-25.804-3.007
	c-7.727-1.116-15.325-2.983-22.207-6.858c-7.501-4.225-8.669-7.535-3.991-14.468c3.491-5.177,8-9.702,12.334-14.251
	c1.226-1.287,1.567-2.32,1.287-3.841c-0.15-0.819-0.367-1.63-0.458-2.455C40.255,282.313,39.411,274.347,38.541,266.177z
	 M235.957,364.013c-7.616,1.575-15.222,3.112-22.792,4.808c-0.469,0.104-1.061,1.57-0.91,2.25
	c2.267,10.214,4.583,20.422,7.041,30.59c0.836,3.455,2.104,6.805,3.172,10.2c-0.225,0.178-0.452,0.354-0.679,0.53
	c-4.182-3.474-8.546-6.757-12.51-10.468c-8.25-7.719-14.961-16.716-20.71-26.415c-0.969-1.637-1.986-2.044-3.795-1.72
	c-4.559,0.817-9.155,1.432-13.734,2.133c-3.254,0.496-6.505,0.996-10.383,1.59c5.388,8.662,10.482,16.848,15.588,25.057
	c-0.231-0.081-0.494-0.135-0.718-0.256c-11.024-6.033-21.215-13.247-30.716-21.469c-0.824-0.713-2.228-1.147-3.328-1.083
	c-6.283,0.353-12.555,0.906-18.833,1.375c-3.725,0.279-7.451,0.53-11.404,0.81c46.273,54.352,129.939,84.021,211.855,53.589
	c40.667-15.107,72.535-41.432,95.855-77.966c13.407-21.004,22.208-43.866,26.612-68.64c-0.67,0.13-0.962,0.12-1.19,0.239
	c-8.821,4.559-17.652,9.092-26.414,13.758c-0.905,0.48-1.592,1.688-2.011,2.713c-3.118,7.623-6.162,15.282-9.183,22.948
	c-0.639,1.62-1.675,2.11-3.406,2.099c-10.312-0.082-20.625-0.038-30.938-0.036c-1.181,0-2.362,0-3.765,0
	c0.548-2.47,1.022-4.591,1.607-7.218c-32.125,12.426-64.427,22.679-97.12,31.818c1.177,0.103,2.353,0.202,3.59,0.306
	c0.057,0.516,0.188,0.889,0.123,1.223c-1.875,9.442-3.514,18.945-5.726,28.313c-2.711,11.474-6.042,22.79-12.086,33.064
	c-0.852,1.451-2.06,2.692-3.494,4.531C243.549,404.541,240.365,384.188,235.957,364.013z"/>
<path fill-rule="evenodd" clip-rule="evenodd" d="M41.122,266.177c0.864,8.17,1.703,16.136,2.561,24.1
	c0.09,0.825,0.306,1.636,0.455,2.455c0.278,1.521-0.061,2.554-1.278,3.841c-4.304,4.549-8.781,9.074-12.247,14.251
	c-4.646,6.933-3.486,10.243,3.962,14.468c6.834,3.875,14.378,5.742,22.05,6.858c8.443,1.224,16.95,2.008,25.623,3.007
	c-27.299-69.006-22.355-134.239,20.879-194.511c30.019-41.849,71.357-67.072,121.983-75.68
	c108.964-18.527,210.681,59.213,222.392,170.905c4.469-3.12,8.841-6.006,13.038-9.134c7.787-5.806,15.279-11.971,20.974-19.993
	c1.433-2.02,2.563-4.287,3.622-6.541c1.384-2.948,0.758-5.557-1.704-7.753c-4.703-4.198-10.4-6.668-16.374-7.555
	c-6.243-0.925-9.12-4.048-11.01-9.835c-2.055-6.283-5.296-12.172-8.242-18.729c2.991,0.34,5.834,0.574,8.65,1
	c11.789,1.786,23.401,4.244,34.046,9.97c9.928,5.342,17.413,12.724,19.487,24.438c1.51,8.541-0.571,16.387-4.723,23.776
	c-5.816,10.353-14.105,18.514-23.19,25.881c-20.294,16.463-43.056,28.812-66.453,40.084c-28.953,13.949-58.897,25.374-89.387,35.385
	c-37.756,12.394-76.132,22.413-115.115,30.051c-23.306,4.566-46.759,8.181-70.395,10.461c-8.967,0.866-17.973,1.466-26.974,1.772
	c-10.857,0.371-21.742,0.712-32.591,0.329c-17.794-0.63-35.46-2.493-52.195-9.315c-6.719-2.737-12.911-6.349-17.729-11.957
	c-9.313-10.841-10.096-22.84-4.41-35.519c4.012-8.946,10.33-16.218,17.45-22.761c4.14-3.803,8.578-7.277,12.915-10.86
	C38.445,268.03,39.811,267.136,41.122,266.177z M229.253,242.416c18.555,0,36.85,0,55.971,0
	c-1.213-21.198-2.409-42.121-3.615-63.244c-1.628,0-2.538,0-3.445,0c-10.511,0-21.021-0.001-31.534-0.001
	c-3.965,0.001-7.933-0.084-11.892,0.077c-0.767,0.032-2.094,0.963-2.154,1.579c-0.833,8.558-1.556,17.129-2.168,25.707
	c-0.485,6.828-0.888,13.667-1.127,20.509C229.108,232.119,229.253,237.208,229.253,242.416z M90.217,242.492
	c15.724,0,30.519,0,45.479,0c0.926-21.441,3.86-42.457,9.324-63.325c-1.187,0-2.101,0-3.016,0
	c-10.414,0.001-20.83,0.06-31.245-0.049c-1.929-0.02-2.95,0.576-3.769,2.303c-5.701,11.999-10.233,24.416-12.858,37.458
	C92.587,226.554,91.551,234.333,90.217,242.492z M422.992,242.503c0-0.945,0.047-1.594-0.007-2.234
	c-1.768-20.82-7.403-40.553-16.385-59.36c-0.75-1.566-1.806-1.768-3.295-1.761c-10.507,0.044-21.012,0.022-31.52,0.022
	c-0.894,0-1.789,0-3.035,0c5.602,20.961,8.331,41.982,9.442,63.333C393.289,242.503,407.996,242.503,422.992,242.503z
	 M90.837,267.659c0,0.893-0.039,1.439,0.008,1.979c0.1,1.194,0.245,2.389,0.368,3.58c1.998,19.357,7.382,37.723,15.806,55.216
	c0.771,1.601,1.647,2.29,3.538,2.27c10.511-0.114,21.021-0.05,31.534-0.06c0.877-0.002,1.754-0.098,2.893-0.165
	c-5.483-20.813-8.324-41.718-9.296-62.819C120.626,267.659,105.896,267.659,90.837,267.659z M306.361,179.336
	c1.175,21.163,2.34,42.162,3.507,63.155c14.418,0,28.851,0,43.595,0c-0.291-4.015-0.556-7.859-0.849-11.701
	c-1.281-16.761-4.296-33.208-8.789-49.392c-0.489-1.755-1.332-2.275-3.102-2.261c-10.785,0.08-21.571,0.036-32.359,0.048
	C307.648,179.186,306.934,179.291,306.361,179.336z M207.433,179.343c-0.438-0.056-0.879-0.157-1.322-0.159
	c-11.153-0.01-22.309,0.035-33.46-0.057c-1.882-0.015-2.249,0.959-2.662,2.42c-4.294,15.173-7.145,30.618-8.556,46.328
	c-0.435,4.837-0.73,9.688-1.093,14.571c14.975,0,29.391,0,43.612,0C205.117,221.317,206.271,200.394,207.433,179.343z
	 M160.415,267.629c0.952,20.955,3.968,41.159,9.763,61.283c12.429-2.137,24.61-4.23,36.625-6.298
	c-0.931-18.679-1.836-36.841-2.741-54.985C189.566,267.629,175.211,267.629,160.415,267.629z M228.728,267.677
	c0.816,16.765,1.611,33.098,2.436,50.047c17.295-4.526,33.949-8.856,50.571-13.312c0.742-0.2,1.66-1.496,1.698-2.319
	c0.492-10.361,0.849-20.729,1.213-31.098c0.036-1.072-0.096-2.148-0.152-3.318C265.94,267.677,247.723,267.677,228.728,267.677z
	 M257.607,87.611c-0.475,0.039-0.95,0.078-1.427,0.117c-12.736,20.214-15.969,43.43-20.388,66.462c14.196,0,28.028,0,42.041,0
	c-0.215-1.442-0.377-2.615-0.565-3.784c-0.189-1.186-0.396-2.368-0.607-3.551c-2.895-16.245-6.232-32.383-12.777-47.616
	C262.15,95.206,259.719,91.478,257.607,87.611z M290.313,97.551c2.556,9.76,5.254,19.005,7.357,28.387
	c2.098,9.36,3.601,18.854,5.367,28.295c10.27,0,20.439,0,31.029,0C323.77,131.721,310.954,111.722,290.313,97.551z M210.961,154.282
	c2.918-19.09,6.581-37.991,12.56-56.407c-20.735,13.938-33.531,33.939-43.782,56.407
	C190.24,154.282,200.338,154.282,210.961,154.282z M308.521,296.079c0.636,0,1.028,0.097,1.354-0.017
	c13.764-4.728,27.524-9.466,41.27-14.255c0.573-0.202,1.35-0.882,1.395-1.394c0.368-4.199,0.583-8.413,0.849-12.717
	c-14.736,0-29.165,0-43.826,0C309.213,277.211,308.873,286.524,308.521,296.079z M123.467,154.431c9.942,0,19.127,0.04,28.31-0.083
	c0.672-0.007,1.583-1.067,1.952-1.846c3.886-8.181,7.373-16.571,11.599-24.565c3.735-7.064,8.268-13.7,12.591-20.756
	C156.487,118.878,138.618,134.457,123.467,154.431z M336.156,107.531c4.257,7.02,8.94,14.043,12.889,21.462
	c3.993,7.503,7.315,15.376,10.806,23.145c0.744,1.65,1.525,2.38,3.438,2.352c8.114-0.121,16.232-0.045,24.348-0.058
	c0.682-0.001,1.366-0.121,2.139-0.195C382.681,140.995,350.326,112.978,336.156,107.531z M377.94,271.145
	c2.711-1.133,5.098-2.128,8.119-3.391c-3.11,0-5.433,0-7.77,0C378.171,268.903,378.081,269.794,377.94,271.145z"/>
<path fill-rule="evenodd" clip-rule="evenodd" d="M235.957,364.013c4.409,20.175,7.593,40.528,19.6,58.673
	c1.434-1.839,2.643-3.08,3.494-4.531c6.044-10.274,9.375-21.591,12.086-33.064c2.212-9.367,3.851-18.87,5.726-28.313
	c0.065-0.334-0.066-0.707-0.123-1.223c-1.237-0.104-2.413-0.203-3.59-0.306c32.693-9.14,64.995-19.393,97.12-31.818
	c-0.585,2.627-1.06,4.748-1.607,7.218c1.402,0,2.584,0,3.765,0c10.313-0.002,20.626-0.046,30.938,0.036
	c1.731,0.012,2.768-0.479,3.406-2.099c3.021-7.666,6.064-15.325,9.183-22.948c0.419-1.024,1.105-2.232,2.011-2.713
	c8.762-4.666,17.593-9.199,26.414-13.758c0.229-0.119,0.521-0.109,1.19-0.239c-4.404,24.773-13.205,47.636-26.612,68.64
	c-23.32,36.534-55.188,62.858-95.855,77.966c-81.917,30.432-165.583,0.763-211.855-53.589c3.954-0.279,7.68-0.53,11.404-0.81
	c6.278-0.469,12.549-1.022,18.833-1.375c1.101-0.064,2.504,0.37,3.328,1.083c9.501,8.222,19.692,15.436,30.716,21.469
	c0.224,0.121,0.487,0.175,0.718,0.256c-5.106-8.209-10.201-16.395-15.588-25.057c3.878-0.594,7.129-1.094,10.383-1.59
	c4.58-0.701,9.176-1.315,13.734-2.133c1.81-0.324,2.827,0.083,3.795,1.72c5.749,9.699,12.459,18.696,20.71,26.415
	c3.964,3.711,8.328,6.994,12.51,10.468c0.227-0.176,0.454-0.353,0.679-0.53c-1.069-3.396-2.336-6.745-3.172-10.2
	c-2.458-10.168-4.774-20.376-7.041-30.59c-0.151-0.68,0.441-2.146,0.91-2.25C220.734,367.125,228.34,365.588,235.957,364.013z
	 M289.506,411.973c20.822-13.988,33.888-33.887,44.059-56.426c-10.79,0-21.054,0-31.406,0
	C299.15,374.696,295.559,393.559,289.506,411.973z M390.247,355.379c-1.249,0-1.859,0-2.469,0
	c-8.26-0.003-16.521,0.065-24.779-0.053c-1.929-0.027-2.745,0.666-3.416,2.379c-5.066,12.983-11.315,25.367-19.082,36.964
	c-0.877,1.31-1.722,2.641-2.624,3.932c-0.887,1.271-1.826,2.502-2.742,3.753C356.95,390.916,375.183,375.487,390.247,355.379z"/>
<path fill-rule="evenodd" clip-rule="evenodd" fill="none" d="M228.011,242.416c0-5.208-0.146-10.297,0.035-15.374
	c0.241-6.842,0.646-13.681,1.136-20.509c0.617-8.578,1.345-17.149,2.184-25.707c0.06-0.616,1.396-1.547,2.169-1.579
	c3.986-0.161,7.983-0.076,11.977-0.077c10.587,0,21.172,0.001,31.758,0.001c0.913,0,1.829,0,3.47,0
	c1.215,21.124,2.42,42.046,3.642,63.244C265.122,242.416,246.697,242.416,228.011,242.416z"/>
<path fill-rule="evenodd" clip-rule="evenodd" fill="none" d="M87.985,242.492c1.344-8.159,2.387-15.938,3.943-23.612
	c2.645-13.043,7.208-25.459,12.95-37.458c0.826-1.727,1.853-2.323,3.796-2.303c10.489,0.109,20.979,0.051,31.467,0.049
	c0.921,0,1.841,0,3.037,0c-5.503,20.868-8.458,41.883-9.391,63.325C118.722,242.492,103.821,242.492,87.985,242.492z"/>
<path fill-rule="evenodd" clip-rule="evenodd" fill="none" d="M423.129,242.503c-15.103,0-29.915,0-45.117,0
	c-1.12-21.351-3.869-42.372-9.51-63.333c1.255,0,2.157,0,3.057,0c10.582,0,21.163,0.022,31.744-0.022
	c1.5-0.007,2.563,0.195,3.318,1.761c9.046,18.807,14.721,38.54,16.501,59.36C423.177,240.909,423.129,241.558,423.129,242.503z"/>
<path fill-rule="evenodd" clip-rule="evenodd" fill="none" d="M88.609,267.659c15.167,0,30.001,0,45.169,0
	c0.979,21.102,3.84,42.006,9.362,62.819c-1.146,0.067-2.03,0.163-2.914,0.165c-10.587,0.01-21.173-0.055-31.758,0.06
	c-1.904,0.021-2.786-0.669-3.563-2.27C96.423,310.94,91,292.575,88.988,273.218c-0.124-1.191-0.27-2.386-0.371-3.58
	C88.571,269.099,88.609,268.552,88.609,267.659z"/>
<path fill-rule="evenodd" clip-rule="evenodd" fill="none" d="M305.668,179.336c0.576-0.045,1.297-0.15,2.018-0.152
	c10.865-0.012,21.728,0.032,32.59-0.048c1.781-0.014,2.631,0.506,3.123,2.261c4.525,16.185,7.562,32.631,8.852,49.392
	c0.295,3.842,0.563,7.687,0.854,11.701c-14.849,0-29.385,0-43.905,0C308.025,221.498,306.852,200.499,305.668,179.336z"/>
<path fill-rule="evenodd" clip-rule="evenodd" fill="none" d="M206.035,179.343c-1.169,21.051-2.332,41.974-3.506,63.104
	c-14.322,0-28.84,0-43.922,0c0.365-4.883,0.663-9.734,1.101-14.571c1.421-15.71,4.292-31.154,8.617-46.328
	c0.416-1.461,0.786-2.436,2.681-2.42c11.231,0.091,22.466,0.046,33.698,0.057C205.149,179.186,205.594,179.287,206.035,179.343z"/>
<path fill-rule="evenodd" clip-rule="evenodd" fill="none" d="M158.682,267.629c14.903,0,29.36,0,43.958,0
	c0.911,18.145,1.823,36.307,2.76,54.985c-12.101,2.067-24.369,4.161-36.886,6.298C162.679,308.788,159.641,288.584,158.682,267.629z
	"/>
<path fill-rule="evenodd" clip-rule="evenodd" fill="none" d="M227.482,267.677c19.13,0,37.477,0,56.162,0
	c0.059,1.17,0.19,2.246,0.154,3.318c-0.367,10.368-0.726,20.736-1.222,31.098c-0.038,0.823-0.963,2.119-1.711,2.319
	c-16.739,4.455-33.513,8.785-50.931,13.312C229.105,300.774,228.304,284.441,227.482,267.677z"/>
<path fill-rule="evenodd" clip-rule="evenodd" fill="none" d="M256.567,87.611c2.126,3.867,4.576,7.595,6.321,11.627
	c6.591,15.233,9.953,31.372,12.867,47.616c0.214,1.183,0.422,2.366,0.612,3.551c0.19,1.169,0.354,2.342,0.569,3.784
	c-14.112,0-28.043,0-42.34,0c4.451-23.032,7.707-46.248,20.534-66.462C255.61,87.689,256.088,87.649,256.567,87.611z"/>
<path fill-rule="evenodd" clip-rule="evenodd" fill="none" d="M289.506,97.551c20.788,14.171,33.694,34.17,44.065,56.682
	c-10.665,0-20.907,0-31.25,0c-1.779-9.441-3.293-18.936-5.405-28.295C294.797,116.556,292.08,107.311,289.506,97.551z"/>
<path fill-rule="evenodd" clip-rule="evenodd" fill="none" d="M209.589,154.282c-10.698,0-20.868,0-31.444,0
	c10.323-22.468,23.21-42.47,44.093-56.407C216.217,116.291,212.528,135.192,209.589,154.282z"/>
<path fill-rule="evenodd" clip-rule="evenodd" fill="none" d="M307.844,296.079c0.354-9.555,0.696-18.868,1.048-28.382
	c14.765,0,29.296,0,44.138,0c-0.268,4.304-0.484,8.518-0.854,12.717c-0.045,0.512-0.827,1.191-1.404,1.394
	c-13.843,4.789-27.702,9.527-41.564,14.255C308.88,296.176,308.483,296.079,307.844,296.079z"/>
<path fill-rule="evenodd" clip-rule="evenodd" fill="none" d="M121.472,154.431c15.259-19.974,33.255-35.553,54.839-47.25
	c-4.354,7.056-8.918,13.692-12.681,20.756c-4.256,7.994-7.767,16.384-11.681,24.565c-0.372,0.779-1.289,1.838-1.966,1.846
	C140.735,154.47,131.484,154.431,121.472,154.431z"/>
<path fill-rule="evenodd" clip-rule="evenodd" fill="none" d="M335.676,107.531c14.27,5.447,46.854,33.463,54,46.707
	c-0.777,0.074-1.467,0.193-2.153,0.195c-8.174,0.012-16.349-0.063-24.521,0.058c-1.927,0.028-2.714-0.702-3.463-2.352
	c-3.515-7.768-6.86-15.641-10.883-23.145C344.679,121.574,339.962,114.551,335.676,107.531z"/>
<path fill-rule="evenodd" clip-rule="evenodd" fill="none" d="M377.757,271.145c0.142-1.351,0.231-2.241,0.352-3.391
	c2.354,0,4.692,0,7.825,0C382.891,269.017,380.487,270.012,377.757,271.145z"/>
<path fill-rule="evenodd" clip-rule="evenodd" fill="none" d="M289.506,411.973c6.053-18.414,9.645-37.276,12.652-56.426
	c10.353,0,20.616,0,31.406,0C323.394,378.086,310.328,397.984,289.506,411.973z"/>
<path fill-rule="evenodd" clip-rule="evenodd" fill="none" d="M390.247,355.379c-15.064,20.108-33.297,35.537-55.112,46.975
	c0.916-1.251,1.855-2.482,2.742-3.753c0.902-1.291,1.747-2.622,2.624-3.932c7.767-11.597,14.016-23.98,19.082-36.964
	c0.671-1.713,1.487-2.406,3.416-2.379c8.258,0.118,16.52,0.05,24.779,0.053C388.388,355.379,388.998,355.379,390.247,355.379z"/>
</svg>
