<?xml version="1.0" encoding="utf-8"?>
<!-- Generator: Adobe Illustrator 16.0.0, SVG Export Plug-In . SVG Version: 6.00 Build 0)  -->
<!DOCTYPE svg PUBLIC "-//W3C//DTD SVG 1.1//EN" "http://www.w3.org/Graphics/SVG/1.1/DTD/svg11.dtd">
<svg version="1.1" id="Layer_1" xmlns="http://www.w3.org/2000/svg" xmlns:xlink="http://www.w3.org/1999/xlink" x="0px" y="0px"
	 width="512px" height="512px" viewBox="0 0 512 512" enable-background="new 0 0 512 512" xml:space="preserve">
<path d="M256.91,12.266c-135.113,0-244.644,109.531-244.644,244.644c0,135.112,109.531,244.643,244.644,244.643
	c16.535,0,32.684-1.645,48.299-4.771c-6.294-3.012-6.98-25.596-0.757-38.471c6.929-14.335,28.669-50.648,7.167-62.833
	s-15.529-17.68-28.67-31.774c-13.14-14.097-7.766-16.215-8.6-19.83c-2.867-12.424,12.662-31.059,13.379-32.97
	c0.717-1.912,0.717-9.079,0.477-11.229c-0.238-2.149-9.793-7.884-12.183-8.123c-2.389-0.238-3.584,3.823-6.929,4.062
	c-3.344,0.239-17.918-8.839-21.024-11.228c-3.105-2.39-4.539-8.124-8.84-12.424c-4.3-4.301-4.778-0.955-11.467-3.584
	c-6.689-2.627-28.191-10.512-44.676-17.202c-16.485-6.689-17.919-16.066-18.157-22.696c-0.239-6.63-10.035-16.246-14.628-23.174
	c-4.593-6.928-5.44-16.484-7.113-14.334s8.601,27.235,6.928,27.953c-1.672,0.716-5.256-6.929-10.034-13.141
	c-4.778-6.211,5.017-2.867-10.273-32.969s4.778-45.453,5.734-61.161c0.956-15.708,12.901,5.734,6.689-4.3
	c-6.211-10.034,0.478-31.059-4.3-38.704c-4.778-7.645-32.014,8.601-32.014,8.601c0.716-7.407,23.891-20.068,40.615-31.775
	c16.723-11.707,26.937-2.628,40.375,1.672c13.438,4.3,14.334,2.867,9.795-1.434c-4.54-4.3,1.911-6.451,12.423-4.778
	c10.512,1.673,13.379,14.335,29.386,13.141c16.007-1.195,1.672,3.106,3.823,7.167c2.15,4.061-2.389,3.583-12.901,10.75
	c-10.512,7.168,0.239,7.168,18.874,20.786s12.9-9.079,10.99-19.113c-1.912-10.034,13.617-2.15,13.617-2.15
	c11.469,7.646,9.35,0.42,17.711,3.048c8.361,2.628,31.027,21.799,31.027,21.799c-28.431,15.529-10.512,17.201-5.734,20.785
	c4.778,3.584-9.795,10.512-9.795,10.512c-5.973-5.973-6.929,0.239-10.751,2.389c-3.823,2.15-0.238,7.645-0.238,7.645
	c-19.771,3.106-15.291,23.891-15.052,28.908c0.238,5.017-12.662,12.662-16.007,19.829c-3.345,7.167,8.601,22.697,2.389,23.652
	c-6.211,0.956-12.423-23.414-45.871-14.335c-10.083,2.738-32.491,14.335-20.546,37.987c11.946,23.651,31.775-6.69,38.465-3.345
	c6.689,3.345-1.912,18.396-0.478,18.635s18.874,0.657,19.83,21.024c0.955,20.367,26.52,18.636,32.014,19.112
	c5.495,0.478,23.891-15.051,26.519-15.768s13.141-9.557,36.075,3.584c22.936,13.141,34.643,11.229,42.526,16.723
	c7.885,5.495,2.39,16.485,9.796,20.068c7.406,3.584,37.03-1.194,44.438,10.99c7.406,12.184-30.581,73.346-42.526,80.035
	c-11.946,6.689-17.44,21.979-29.386,31.775c-11.945,9.795-28.67,21.919-44.438,31.295c-13.957,8.301-16.469,23.169-22.687,27.863
	c109.487-24.323,191.356-122.008,191.356-238.819C501.553,121.797,392.021,12.266,256.91,12.266z M314.248,241.858
	c-3.345,0.956-10.273,7.167-27.236-2.867c-16.962-10.034-28.668-8.123-30.102-9.795c0,0-1.434-4.061,5.972-4.778
	c15.208-1.472,34.403,14.096,38.704,14.334s6.449-4.3,14.096-1.837C323.326,239.377,317.592,240.903,314.248,241.858z
	 M234.213,36.635c-1.666-1.212,1.38-2.607,3.195-5.018c1.049-1.393,0.271-3.705,1.583-5.017c3.583-3.584,21.264-8.601,17.806,1.194
	C253.342,37.591,236.841,38.546,234.213,36.635z M276.979,67.693c-5.973-0.239-20.033-1.725-17.441-4.3
	c10.094-10.034-3.822-12.901-12.423-13.618c-8.601-0.717-12.185-5.495-7.884-5.973c4.301-0.478,21.502,0.239,24.37,2.628
	c2.866,2.389,18.396,8.601,19.352,13.14C283.906,64.109,282.951,67.932,276.979,67.693z M328.822,66.021
	c-4.779,3.822-28.823-13.716-33.448-17.679c-20.069-17.202-30.819-11.468-35.034-14.334c-4.216-2.867-2.713-6.69,3.737-12.423
	c6.45-5.734,24.608,1.911,35.119,3.105c10.513,1.194,22.697,9.318,22.936,18.973C322.37,53.317,333.6,62.198,328.822,66.021z"/>
</svg>
