<?xml version="1.0" encoding="UTF-8" standalone="no"?>
<svg
   xmlns:dc="http://purl.org/dc/elements/1.1/"
   xmlns:cc="http://creativecommons.org/ns#"
   xmlns:rdf="http://www.w3.org/1999/02/22-rdf-syntax-ns#"
   xmlns:svg="http://www.w3.org/2000/svg"
   xmlns="http://www.w3.org/2000/svg"
   viewBox="0 0 512 512"
   height="512"
   width="512"
   id="svg12408"
   version="1.1">
  <metadata
     id="metadata12414">
    <rdf:RDF>
      <cc:Work
         rdf:about="">
        <dc:format>image/svg+xml</dc:format>
        <dc:type
           rdf:resource="http://purl.org/dc/dcmitype/StillImage" />
        <dc:title></dc:title>
      </cc:Work>
    </rdf:RDF>
  </metadata>
  <defs
     id="defs12412" />
  <path
     id="path12961"
     d="m 214.56021,507.85002 c -17.16249,-0.7628 -34.68728,-3.6332 -51.28531,-8.4001 -51.55436,-14.8059 -95.896239,-48.0202 -124.979366,-93.6156 -26.975945,-42.292 -38.64528101,-93.2989 -32.8382682,-143.537 4.8467012,-41.9304 21.6477962,-81.6595 48.2540692,-114.1051 5.586025,-6.812 14.253911,-16.1335 16.884385,-18.1576 1.399894,-1.0772 3.793038,-2.3972 5.426691,-2.9933 2.796258,-1.0202 3.751317,-1.1708 7.352272,-1.1601 3.148809,0.01 3.639101,0.063 5.356654,0.5807 7.253772,2.1882 12.336733,7.2094 14.533973,14.3574 0.52444,1.7061 0.56835,2.1328 0.57908,5.6273 0.0132,4.2857 -0.25462,5.6312 -1.76013,8.8438 -1.20372,2.5687 -2.342562,4.1033 -5.362474,7.2261 -10.31948,10.671 -18.622925,21.3994 -25.688353,33.1903 -21.964595,36.6548 -30.04012,79.8458 -22.843359,122.1749 2.371926,13.951 6.322743,27.3249 11.97019,40.5203 14.579407,34.0653 40.218076,63.3642 72.369606,82.7013 35.30649,21.2346 77.7556,29.5465 118.8607,23.2738 28.3316,-4.3234 54.98721,-15.2948 78.21531,-32.1931 6.24586,-4.5438 13.13725,-10.3624 19.5413,-16.4993 3.58157,-3.4321 4.94443,-4.4611 7.58375,-5.7257 2.7734,-1.3289 5.40532,-1.9115 8.65587,-1.9161 5.62327,-0.01 10.33703,1.8322 14.34031,5.5982 5.85081,5.504 7.98874,13.7324 5.56924,21.4346 -1.22636,3.904 -2.83644,6.2222 -7.42514,10.6908 -34.77797,33.8679 -79.77782,55.229 -128.12514,60.8199 -11.32684,1.3098 -23.94884,1.7631 -35.18586,1.2636 z m 5.67175,-69.4335 c -4.4488,-0.2289 -8.81796,-0.5702 -12.07873,-0.9437 -22.34215,-2.5593 -44.02034,-10.127 -63.01947,-21.9997 -25.36737,-15.8523 -45.748856,-39.0832 -57.972616,-66.0775 -12.681722,-28.0057 -16.599874,-58.8362 -11.335984,-89.1989 4.948121,-28.5412 18.193511,-55.3876 37.82918,-76.6737 5.24679,-5.6878 7.78675,-7.7462 11.31909,-9.173 5.92919,-2.3949 12.87648,-1.9072 18.2851,1.2835 9.46622,5.5844 13.00485,17.486 8.12309,27.3205 -0.98941,1.9932 -2.33347,3.7397 -5.15636,6.7004 -4.81139,5.0462 -8.9294,10.1287 -12.39247,15.2949 -16.78796,25.0445 -22.56834,56.0043 -15.99379,85.663 6.88005,31.0369 27.25359,57.8866 55.48868,73.1269 23.90845,12.905 52.29992,16.4408 78.94793,9.8318 12.28731,-3.0473 23.50368,-7.9781 34.12679,-15.0022 5.90861,-3.9068 10.15414,-7.3048 15.97713,-12.7877 3.45435,-3.2525 4.69321,-4.1668 7.30365,-5.3901 3.19389,-1.4967 4.58254,-1.7788 8.75411,-1.7788 3.217,0 3.88555,0.061 5.35284,0.4852 8.91126,2.5796 14.89929,10.0415 15.37214,19.1558 0.21095,4.066 -0.81988,8.1335 -2.99418,11.8144 -1.78639,3.0242 -9.71031,10.5477 -17.4157,16.5354 -23.39562,18.1805 -51.36171,28.9831 -81.32334,31.4131 -3.8244,0.3102 -14.23701,0.5526 -17.19709,0.4004 z m 215.63161,-39.8946 c -3.77535,-0.7692 -6.78623,-2.3234 -9.35482,-4.829 -1.38506,-1.3511 -9.94313,-12.766 -43.65499,-58.2282 -23.06269,-31.1013 -42.36848,-57.2222 -42.90173,-58.0465 -1.8989,-2.9355 -3.64412,-7.1341 -4.40785,-10.6045 -0.46305,-2.1041 -0.62366,-6.6024 -0.31188,-8.7347 0.47517,-3.2498 1.73736,-6.4844 3.64097,-9.3309 1.12916,-1.6884 19.0779,-19.7177 21.2619,-21.3573 2.16006,-1.6216 4.94552,-2.9741 7.57734,-3.6791 1.85573,-0.4972 2.47931,-0.5603 5.65675,-0.5724 2.70425,-0.01 3.99271,0.078 5.30796,0.3658 3.76086,0.8219 7.49384,2.3855 10.48636,4.3923 2.53414,1.6994 112.19618,87.6958 113.44336,88.9616 2.51166,2.5494 4.24955,5.9452 5.13472,10.0333 0.39226,1.8116 0.32503,7.1558 -0.11495,9.1378 -0.79555,3.5839 -2.28695,7.0343 -4.25389,9.8416 -1.36225,1.9442 -45.37908,46.0332 -47.76315,47.8414 -3.07767,2.3343 -7.25713,4.1478 -11.10643,4.819 -2.1577,0.3763 -6.76923,0.3708 -8.63967,-0.01 z m 6.58788,-21.0042 c 0.36552,-0.1735 10.51165,-10.1699 22.54698,-22.2144 19.4518,-19.4665 21.89824,-21.9863 22.0248,-22.6854 0.1807,-0.9978 0.008,-1.6833 -0.58803,-2.3333 -0.25914,-0.2827 -15.97394,-12.6534 -34.9218,-27.4906 -40.56515,-31.7648 -58.00288,-45.4244 -68.04405,-53.3016 -4.12435,-3.2355 -7.68417,-5.8746 -8.13228,-6.029 -1.65496,-0.5702 -1.48758,-0.7031 -10.85861,8.6211 -4.77442,4.7506 -8.81556,8.8926 -8.98028,9.2046 -0.43296,0.82 -0.36459,1.8316 0.18883,2.7938 0.7448,1.2949 83.27298,112.5168 83.97554,113.1724 0.71508,0.6674 1.73353,0.7632 2.7889,0.2624 z m -220.85407,-10.2098 c -34.335,-1.529 -64.32832,-25.3202 -73.82928,-58.5626 -7.89466,-27.6222 -0.65725,-57.3071 19.02873,-78.0481 3.66658,-3.8631 6.82251,-5.8625 11.02895,-6.9874 1.80446,-0.4825 2.48284,-0.5545 5.22469,-0.5545 2.73625,0 3.42182,0.072 5.20888,0.5505 7.61317,2.0367 13.39088,8.0586 15.08526,15.7229 0.62742,2.838 0.48483,7.458 -0.31222,10.1152 -1.03366,3.4461 -2.60566,6.1105 -5.32152,9.0195 -6.43295,6.8906 -9.79269,13.655 -11.08806,22.3247 -0.40238,2.693 -0.40109,8.1723 0.003,11.0125 2.3017,16.1947 14.58581,29.4926 30.45558,32.9689 3.34516,0.7328 5.76376,0.9292 9.9363,0.8069 4.55303,-0.1334 7.40794,-0.6413 11.46181,-2.0391 5.65737,-1.9508 9.86854,-4.5869 15.20927,-9.5208 3.83047,-3.5386 7.79456,-5.361 12.58532,-5.7858 10.54772,-0.9352 19.83378,5.8452 22.25631,16.2509 0.60247,2.5878 0.51477,6.9185 -0.19445,9.6016 -1.11937,4.2348 -3.21687,7.5133 -7.14456,11.1673 -6.38736,5.9424 -11.8677,9.763 -19.47122,13.5743 -12.37792,6.2045 -25.84736,9.0188 -40.12238,8.3831 z m 61.44822,-104.1801 c -4.74238,-0.7446 -9.04464,-2.612 -12.8182,-5.5639 -0.92428,-0.723 -4.8537,-4.5148 -8.732,-8.4262 -8.36012,-8.4314 -9.50412,-9.9515 -11.28069,-14.9891 -1.10608,-3.1363 -1.40204,-4.9904 -1.40828,-8.8227 -0.008,-4.7402 0.71851,-7.9618 2.6751,-11.8669 1.94263,-3.8774 1.22333,-3.1173 34.15863,-36.0968 17.1719,-17.1949 31.78622,-31.7033 32.47625,-32.2407 3.07396,-2.3941 6.95416,-4.2033 10.92916,-5.0959 3.14952,-0.7073 7.94984,-0.6815 11.13344,0.06 3.91452,0.9115 7.19705,2.4105 10.34843,4.7256 0.66284,0.487 4.61802,4.3154 8.7893,8.5077 8.28393,8.3255 9.23941,9.4992 10.9987,13.5107 3.94103,8.9862 2.55981,19.6656 -3.52291,27.2387 -0.58467,0.7279 -15.08321,15.326 -32.21895,32.4401 -25.12562,25.0939 -31.47769,31.3306 -32.81836,32.222 -2.87474,1.9117 -6.2642,3.3482 -9.68107,4.1032 -1.76637,0.3903 -7.27369,0.5698 -9.02855,0.2943 z m 5.68262,-20.917 c 0.953,-0.3133 3.45115,-2.7531 31.45694,-30.7219 23.13126,-23.1008 30.55346,-30.6333 30.9714,-31.432 0.73105,-1.3968 0.76861,-3.5285 0.0871,-4.942 -0.63036,-1.3074 -13.22476,-13.8758 -14.42568,-14.3959 -1.24182,-0.5378 -3.52758,-0.4999 -4.72673,0.078 -0.70803,0.3414 -8.60441,8.1211 -31.43403,30.9693 -29.23685,29.2607 -30.50344,30.5598 -30.8533,31.6453 -0.4549,1.4114 -0.32732,3.2361 0.31398,4.4903 0.49971,0.9773 12.22089,12.8894 13.4239,13.6426 1.66124,1.0401 3.37822,1.2606 5.18643,0.666 z m -42.55325,-65.5494 c -3.64217,-0.6334 -8.31155,-2.4841 -11.57026,-4.5859 -0.76015,-0.4903 -15.88482,-11.6494 -33.61039,-24.798 -17.72555,-13.1486 -43.19365,-32.0393 -56.59579,-41.9793 -13.40214,-9.939998 -24.96724,-18.643698 -25.70022,-19.341498 -3.65929,-3.4837 -5.4858,-8.1917 -5.49166,-14.1552 -0.006,-5.7272 1.70365,-10.8528 5.1249,-15.3678 0.87403,-1.1534 9.37164,-9.7878 24.00318,-24.3894 19.29551,-19.2561 22.91823,-22.7795998 24.46019,-23.7905998 9.37933,-6.1491 21.42082,-5.6565 28.33788,1.1593 1.33336,1.3138998 87.36439,111.0008978 88.99747,113.4691978 2.97477,4.4961 4.61807,9.4742 4.83164,14.6366 0.20847,5.0387 -0.98572,9.4651 -3.64141,13.4974 -1.24629,1.8923 -18.88296,19.7285 -21.37095,21.6127 -2.7921,2.1146 -5.90383,3.4708 -9.34699,4.0738 -2.20074,0.3854 -6.08312,0.3664 -8.42759,-0.041 z m 4.95753,-20.4244 c 0.45059,-0.3343 4.51881,-4.3282 9.04048,-8.8753 6.09692,-6.1312 8.28158,-8.458 8.45484,-9.005 0.31268,-0.9871 0.0413,-1.8641 -1.00606,-3.2514 -2.92773,-3.8777 -85.62966,-109.307398 -85.97818,-109.606298 -0.58318,-0.5001 -1.27549,-0.6495 -2.21811,-0.4788 -0.69868,0.1265 -3.19576,2.5478 -22.39242,21.7123 -11.8833,11.8635 -21.87977,21.9386 -22.21436,22.3892 -0.83305,1.1219 -0.84496,2.3868 -0.0306,3.2587 0.65408,0.7004 111.87327,83.225898 113.17245,83.974898 1.1626,0.6702 2.15919,0.633 3.17199,-0.1183 z"
     style="fill:#000000;stroke-width:0.21006489" />
</svg>
