<?xml version="1.0" encoding="utf-8"?>
<!-- Generator: Adobe Illustrator 16.2.0, SVG Export Plug-In . SVG Version: 6.00 Build 0)  -->
<!DOCTYPE svg PUBLIC "-//W3C//DTD SVG 1.1//EN" "http://www.w3.org/Graphics/SVG/1.1/DTD/svg11.dtd">
<svg version="1.1" id="Layer_1" xmlns="http://www.w3.org/2000/svg" xmlns:xlink="http://www.w3.org/1999/xlink" x="0px" y="0px"
	 width="472.738px" height="512px" viewBox="19.681 0 472.738 512" enable-background="new 19.681 0 472.738 512"
	 xml:space="preserve">
<g>
	<path d="M78.758,0v452.923H98.45V19.692h374.153v454.276c0,10.093-8.246,18.339-18.339,18.339H57.711
		c-10.092,0-18.338-8.246-18.338-18.339V98.461h19.692V78.769H19.681v395.2c0,20.923,16.984,38.031,38.031,38.031h396.677
		c20.923,0,38.03-16.984,38.03-38.031V0H78.758z"/>
	<rect x="118.143" y="134.154" width="175.916" height="19.692"/>
	<rect x="118.143" y="232.615" width="329.846" height="19.692"/>
	<rect x="118.143" y="331.077" width="263.875" height="19.692"/>
	<rect x="118.143" y="429.538" width="329.846" height="19.692"/>
	<path d="M446.722,105.29c-0.858-2.631-2.168-5.099-3.929-7.404c-1.765-2.303-3.956-4.347-6.575-6.135
		c-2.62-1.786-5.692-3.195-9.217-4.23c-1.414-0.375-3.899-0.963-7.172-1.764c-2.34-0.57-4.533-1.154-7.005-1.749V54.963
		c2.472,0.659,4.188,1.704,6.022,2.865c3.923,2.484,6.382,6.732,7.104,12.502h19.004c-0.181-4.945-1.278-9-3.296-12.643
		c-2.218-3.995-5.213-7.424-8.992-10.153c-3.777-2.726-8.304-4.805-13.29-6.169c-2.166-0.591-4.08-1.089-6.552-1.424v-9.172h-17.582
		v9.112c-1.923,0.287-4.162,0.672-6.161,1.168c-4.738,1.177-8.899,2.985-12.625,5.43c-3.729,2.446-6.689,5.525-8.957,9.238
		c-2.267,3.715-3.382,8.11-3.382,13.187c0,2.633,0.386,5.218,1.142,7.757c0.756,2.538,2.045,4.936,3.858,7.192
		c1.813,2.257,4.256,4.303,7.33,6.135c3.073,1.833,6.788,3.315,11.422,4.442c2.552,0.645,5.174,1.247,7.372,1.808v32.854
		c-3.023-0.803-6.014-2.034-8.43-3.704c-2.519-1.738-4.413-3.833-5.822-6.562c-1.314-2.536-1.944-5.639-2.035-8.935h-18.878
		c0.191,5.769,1.442,10.85,3.756,15.211c2.417,4.562,5.641,8.231,9.672,11.143c4.028,2.916,8.625,5.043,14.065,6.453
		c2.44,0.633,5.199,1.088,7.673,1.438v9.71h17.582v-9.489c2.747-0.294,5.208-0.739,7.836-1.34c5.139-1.174,9.794-3.032,13.823-5.571
		c4.028-2.537,7.314-5.804,9.784-9.802c2.466-3.995,3.721-8.815,3.721-14.456C447.988,110.557,447.576,107.923,446.722,105.29
		L446.722,105.29z M395.242,79.588c-3.298-1.028-6.569-2.497-8.806-4.409c-2.369-2.021-3.482-4.817-3.482-8.392
		c0-2.538,0.663-4.654,1.925-6.347c1.258-1.692,2.723-3.032,4.638-4.019c1.696-0.876,3.803-1.529,5.726-1.961V79.588z
		 M427.907,120.733c-0.809,1.834-2.116,3.455-3.93,4.866c-1.814,1.41-4.325,2.563-7.247,3.455c-1.236,0.378-2.259,0.672-3.908,0.889
		v-29.425c2.748,0.72,4.995,1.464,7.233,2.233c2.214,0.754,4.326,2.045,6.191,3.879c1.864,1.834,2.832,4.678,2.832,8.532
		C429.079,117.044,428.712,118.9,427.907,120.733L427.907,120.733z"/>
</g>
</svg>
