<?xml version="1.0" encoding="UTF-8" standalone="no"?>
<svg
   xmlns:dc="http://purl.org/dc/elements/1.1/"
   xmlns:cc="http://creativecommons.org/ns#"
   xmlns:rdf="http://www.w3.org/1999/02/22-rdf-syntax-ns#"
   xmlns:svg="http://www.w3.org/2000/svg"
   xmlns="http://www.w3.org/2000/svg"
   viewBox="0 0 512 426"
   height="426"
   width="512"
   id="svg11195"
   version="1.1">
  <metadata
     id="metadata11201">
    <rdf:RDF>
      <cc:Work
         rdf:about="">
        <dc:format>image/svg+xml</dc:format>
        <dc:type
           rdf:resource="http://purl.org/dc/dcmitype/StillImage" />
        <dc:title></dc:title>
      </cc:Work>
    </rdf:RDF>
  </metadata>
  <defs
     id="defs11199" />
  <path
     id="path11748"
     d="m 434.22461,420.888 c -3.4723,-2.3792 -27.6882,-19.79127 -53.8132,-38.69349 -31.5536,-22.82999 -48.50715,-34.49599 -50.50001,-34.74991 -1.65,-0.21023 -29.34189,0.79771 -61.53754,2.23987 -32.19564,1.44215 -59.50377,2.26373 -60.68472,1.82573 -1.18095,-0.438 -14.8482,-11.59637 -30.37167,-24.79637 -26.26169,-22.33099 -28.47419,-23.98561 -31.81527,-23.79309 -1.97494,0.1138 -33.12803,1.65172 -69.229102,3.41759 -71.7434101,3.50931 -70.4278101,3.54902 -73.4088601,-2.21569 -2.49874003,-4.83203 -1.86862003,-9.50469 1.79716,-13.32671 2.47576,-2.58129 143.3527521,-123.33513 150.8479821,-129.30055 2.28005,-1.81468 81.36437,-20.41494 83.54222,-19.64874 1.02289,0.35987 15.83572,8.91471 32.91739,19.01075 17.08168,10.09604 31.76185,18.35644 32.62261,18.35644 0.86076,0 7.1954,-1.8 14.07698,-4 6.88158,-2.2 12.94577,-4 13.47598,-4 1.57698,0 14.52495,17.14517 13.60895,18.02039 -0.4632,0.44254 -8.7171,3.25108 -18.34211,6.24121 l -17.5,5.43658 -11.25,18.36667 c -6.1875,10.10167 -11.25,18.61033 -11.25,18.90812 0,0.29779 1.95834,0.38569 4.35187,0.19532 l 4.35187,-0.34611 0.67347,5.73023 c 0.37042,3.15163 0.50891,5.8948 0.30777,6.09595 -0.20115,0.20114 -4.52617,0.92504 -9.61118,1.60868 l -9.24546,1.24296 -23.22621,38 c -13.06919,21.38227 -22.7057,38.13114 -22.03594,38.29987 0.65465,0.16493 21.2723,-0.62257 45.817,-1.75 24.5447,-1.12743 48.12448,-2.04987 52.39952,-2.04987 h 7.7728 l 48.9722,35.39724 c 26.9348,19.46848 49.1065,35.27181 49.2704,35.11852 0.164,-0.1533 3.5631,-11.44211 7.5535,-25.08624 l 7.2553,-24.80752 -2.2272,-10.561 c -1.225,-5.80855 -2.9008,-12.72631 -3.7242,-15.3728 -1.1066,-3.55701 -1.1917,-4.90381 -0.3262,-5.16463 0.6439,-0.19405 3.2992,-1.03587 5.9008,-1.87071 l 4.73,-1.51789 1.1783,3.93252 c 0.648,2.16288 1.4491,3.93251 1.7802,3.93251 0.3312,0 6.6323,-20.5875 14.0025,-45.75 7.3702,-25.1625 13.5518,-46.2 13.7369,-46.75 0.185,-0.55 -6.5248,-4.65281 -14.9108,-9.11735 -8.386,-4.46455 -23.0025,-12.25915 -32.4813,-17.32135 l -17.234,-9.204 6.234,-8.05191 c 3.4288,-4.42854 6.7388,-8.24741 7.3557,-8.48637 1.4017,-0.54297 70.5881,36.1502 72.8267,38.62385 3.8934,4.30216 3.7406,4.92809 -25.3992,104.05713 -15.4402,52.525 -28.7944,97.4506 -29.6761,99.83466 -1.7712,4.78923 -6.1265,8.15543 -10.5598,8.1616 -1.5334,0.002 -5.3969,-1.85319 -9,-4.32209 z M 245.9114,263.55786 c 20.35,-33.34846 38.00606,-62.31485 39.23569,-64.36976 l 2.2357,-3.73619 -26.2357,-15.56735 -26.23569,-15.56734 -34.34489,8.16338 -34.34489,8.16338 0.34489,12.78533 0.34489,12.78534 -3.125,-4.1e-4 c -1.71875,-2.3e-4 -4.53125,0.28084 -6.25,0.62459 -3.06326,0.61265 -3.12614,0.54844 -3.18263,-3.25 -0.0317,-2.13125 -0.3692,-5.50932 -0.75,-7.50681 l -0.69237,-3.63181 -54.312252,46.48622 c -29.87174,25.56743 -54.17174,46.60575 -54,46.75182 0.17173,0.14608 24.98383,-1.00182 55.13798,-2.55087 32.416802,-1.66529 55.714422,-2.46721 57.000002,-1.96198 1.19585,0.46996 13.19927,10.32052 26.67427,21.89012 13.475,11.56961 24.725,21.05596 25,21.08078 0.275,0.0248 17.15,-27.23998 37.5,-60.58844 z m -30.25,-5.04686 c -3.24327,-0.42301 -3.25,-0.43586 -3.25,-6.20871 v -5.78482 l 15.23305,-0.58544 c 8.37817,-0.32199 15.29067,-0.50281 15.3611,-0.40182 0.0704,0.10099 0.41706,2.75045 0.77029,5.88768 l 0.64223,5.70406 -3.25333,0.49885 c -5.05198,0.77465 -21.88451,1.36219 -25.50334,0.8902 z m -33.75052,-8.3717 c -6.23012,-3.13288 -14.79742,-10.77409 -17.82355,-15.89694 l -1.74704,-2.95749 4.78556,-3.52601 4.78555,-3.52601 2.48701,3.24049 c 5.21078,6.78946 9.17103,9.81607 18.82961,14.39044 0.17414,0.0825 -0.95109,2.65701 -2.50052,5.72119 l -2.81713,5.57122 z m 250.43793,42.33782 c -1.8399,-2.56194 -6.251,-7.73842 -9.8026,-11.5033 l -6.4575,-6.84523 3.8643,-3.95738 c 2.1254,-2.17656 4.223,-3.95738 4.6613,-3.95738 2.5354,0 21.5242,22.01451 20.4659,23.72688 -0.2774,0.44876 -2.5027,2.2511 -4.9453,4.0052 l -4.441,3.18927 z m -38.4374,-30.96865 c -3.5238,-1.90902 -19.0421,-7.29464 -21.019,-7.29464 -2.3114,0 -2.4766,-1.49024 -0.8133,-7.33694 1.8634,-6.55054 1.032,-6.4918 15.8323,-1.1185 17.7329,6.43801 16.8643,5.59371 13.3007,12.92869 -2.4239,4.98913 -2.9349,5.18662 -7.3007,2.82139 z M 334.2712,249.43773 c -16.51886,-0.31154 -15.81704,0.0859 -15.84615,-8.9739 l -0.0136,-4.25 9.25,0.007 c 5.0875,0.004 12.28751,0.29398 16.00001,0.6446 l 6.75,0.6375 -0.015,5.10539 c -0.01,2.80797 -0.3459,5.5554 -0.75,6.1054 -0.4484,0.61027 -6.4405,0.89239 -15.3749,0.7239 z m 45.67611,-50.18422 c -0.9757,-1.07818 -2.8289,-4.23703 -4.1181,-7.01967 -3.6987,-7.98326 -15.1905,-24.21868 -31.6149,-44.66516 -8.33028,-10.37017 -16.58221,-21.10485 -18.33765,-23.85485 -15.32235,-24.003338 -19.0213,-49.65431 -10.59432,-73.467985 3.93909,-11.131391 8.50212,-18.341206 17.12906,-27.064734 20.52761,-20.757453 50.63061,-27.770273 77.85351,-18.136848 11.5783,4.097241 18.5222,8.576062 28.1698,18.16957 7.0582,7.018666 9.3708,10.155608 13.2699,18 6.6495,13.377926 8.1507,19.888247 8.0706,35 -0.056,10.598721 -0.4793,13.868921 -2.7817,21.5 -4.2849,14.201307 -11.1586,26.149047 -24.7386,42.999997 -22.177,27.51879 -34.0568,44.16586 -37.876,53.07572 -1.1212,2.61564 -2.81,5.34182 -3.753,6.05819 -2.6543,2.01643 -8.6162,1.68467 -10.6786,-0.59423 z m 15.1804,-38.79388 c 5.069,-7.01019 14.0075,-18.5958 19.8633,-25.7458 12.869,-15.71319 17.7528,-22.75097 21.4571,-30.92065 9.7659,-21.538323 8.4686,-43.057904 -3.6691,-60.860892 -2.5429,-3.72985 -6.7034,-8.565926 -9.2455,-10.746836 -5.9482,-5.102976 -16.2192,-10.501394 -23.6744,-12.443226 -7.522,-1.959235 -21.3734,-1.959235 -28.8954,0 -15.2421,3.97005 -29.4189,15.459383 -36.47784,29.56266 -5.13586,10.261133 -6.4275,16.890151 -5.82402,29.890269 0.76181,16.410702 6.51974,29.830475 19.74486,46.018675 12.1819,14.91112 27.3908,34.64136 31.7973,41.25 2.4755,3.7125 4.7723,6.74811 5.1041,6.7458 0.3318,-0.002 4.7506,-5.73981 9.8196,-12.75 z m -13.2163,-68.273533 c -11.8433,-1.760641 -20.8599,-13.852029 -18.9386,-25.396951 3.3531,-20.147921 28.4661,-26.516468 40.7995,-10.346558 12.1273,15.899683 -1.8305,38.721254 -21.8609,35.743509 z"
     style="fill:#000000" />
</svg>
