<?xml version="1.0" encoding="UTF-8" standalone="no"?>
<svg
   xmlns:dc="http://purl.org/dc/elements/1.1/"
   xmlns:cc="http://creativecommons.org/ns#"
   xmlns:rdf="http://www.w3.org/1999/02/22-rdf-syntax-ns#"
   xmlns:svg="http://www.w3.org/2000/svg"
   xmlns="http://www.w3.org/2000/svg"
   height="512"
   width="512"
   xml:space="preserve"
   viewBox="0 0 512 512.00001"
   y="0px"
   x="0px"
   id="Layer_2"
   version="1.1"><metadata
     id="metadata10626"><rdf:RDF><cc:Work
         rdf:about=""><dc:format>image/svg+xml</dc:format><dc:type
           rdf:resource="http://purl.org/dc/dcmitype/StillImage" /><dc:title></dc:title></cc:Work></rdf:RDF></metadata><defs
     id="defs10624" /><g
     transform="translate(0,31.7)"
     id="g10619"><path
       id="path10603"
       d="m 150.5,344.3 c 0,-11.9 0,-22.3 0,-32.6 -9.3,-1.3 -18.6,-2.7 -28.2,-4.1 -2.9,10 -5.7,20 -9,31.2 12.5,1.8 24.4,3.6 37.2,5.5 z M 236.7,286 c 5.4,9.7 10.5,18.8 15.8,28.2 9.5,-5.6 18.7,-10.9 28.2,-16.5 -4.9,-9.5 -9.6,-18.9 -14.7,-28.8 -10,5.9 -19.4,11.4 -29.3,17.1 z m 156.1,5 c 4.8,-9.4 9.6,-18.6 14.9,-28.9 -12.1,-4.2 -23.6,-8.2 -35.8,-12.5 -2.3,11.6 -4.3,21.9 -6.3,31.8 9.4,3.3 18.2,6.4 27.2,9.6 z m -94.3,-35.9 c 3.5,11.1 6.7,21.1 9.7,30.9 10,-2 19.3,-3.9 29.1,-5.9 -0.9,-10.6 -1.7,-20.9 -2.6,-32.2 -12.4,2.4 -24.1,4.7 -36.2,7.2 z m -77.3,74.7 c -4.3,-10.8 -8.3,-20.6 -12.1,-30.1 -10.1,3.1 -19.5,6 -29.1,9 2.2,10.4 4.3,20.4 6.6,31.6 11.7,-3.5 22.8,-6.9 34.6,-10.5 z" /><path
       id="path10605"
       d="m 0,446.4 c 0.7,-1.5 1.5,-2.9 2,-4.4 30.7,-92 61.4,-184 92,-276.1 1.4,-4.1 3,-5.6 7.5,-5.6 21.8,0.3 43.7,0.2 65.5,0.1 3.1,0 4.8,0.8 6.2,3.6 4.5,9.2 9.3,18.3 14.3,28.1 -23,0 -45.3,0 -68.1,0 -1.9,5.8 -3.8,11.2 -5.6,16.7 -8.2,24.5 -16.2,49 -24.7,73.3 -1.8,5.3 -1.1,8.4 3.8,10.8 1.3,0.6 2.4,1.7 3.9,2.8 -5.3,8.5 -10.4,16.8 -15.8,25 -0.6,1 -2.8,0.9 -5,1.6 -10.2,30.6 -20.7,62.1 -31.3,94 141.1,0 281.5,0 422.8,0 -9.9,-29.8 -19.7,-59.2 -29.3,-88 -2,-0.5 -4.1,-0.4 -5,-1.3 -5.5,-6.2 -10.8,-12.6 -16.4,-19.2 2.7,-2.9 5.7,-6 8.3,-9.4 1,-1.2 1.8,-3.4 1.4,-4.7 -11.1,-33.7 -22.3,-67.3 -33.6,-101.2 -22.6,0 -45,0 -68.3,0 4.6,-9 9.2,-17.2 13,-25.8 2.2,-5.1 5.2,-6.4 10.6,-6.3 21,0.4 42,0.3 63,0 4.1,-0.1 5.7,1.3 6.9,5.1 30.6,92.1 61.3,184.1 92,276.1 0.6,1.7 1.4,3.3 2.1,4.9 0,0.7 0,1.3 0,2 -170.7,0 -341.3,0 -512,0 C 0,447.8 0,447.1 0,446.4 Z" /><path
       id="path10607"
       d="m 150.5,344.3 c -12.8,-1.9 -24.7,-3.7 -37.2,-5.5 3.2,-11.2 6.1,-21.2 9,-31.2 9.7,1.4 19,2.8 28.2,4.1 0,10.3 0,20.7 0,32.6 z" /><path
       id="path10609"
       d="m 236.7,286 c 9.9,-5.7 19.3,-11.2 29.3,-17.1 5.1,9.9 9.9,19.3 14.7,28.8 -9.5,5.6 -18.7,10.9 -28.2,16.5 -5.3,-9.4 -10.4,-18.5 -15.8,-28.2 z" /><path
       id="path10611"
       d="m 392.8,291 c -9.1,-3.2 -17.8,-6.3 -27.1,-9.6 2,-9.9 4,-20.3 6.3,-31.8 12.2,4.3 23.7,8.3 35.8,12.5 -5.4,10.3 -10.1,19.5 -15,28.9 z" /><path
       id="path10613"
       d="m 298.5,255.1 c 12.1,-2.4 23.7,-4.8 36.1,-7.3 0.9,11.3 1.8,21.6 2.6,32.2 -9.7,2 -19.1,3.9 -29.1,5.9 -2.9,-9.7 -6.1,-19.7 -9.6,-30.8 z" /><path
       id="path10615"
       d="m 221.2,329.8 c -11.8,3.6 -22.9,7 -34.5,10.5 -2.4,-11.2 -4.5,-21.2 -6.6,-31.6 9.5,-2.9 19,-5.8 29.1,-9 3.7,9.6 7.7,19.3 12,30.1 z" /><path
       id="path10617"
       d="m 181.4,111.5 c -4.1,-9.6 -6.3,-20.2 -6.3,-31.2 0,-44.3 36.2,-80.2 80.8,-80.2 44.6,0 80.8,35.9 80.8,80.2 0,11.2 -2.3,21.8 -6.4,31.4 L 256.6,257.3 Z M 255.8,34 c -24.9,0 -45,20.1 -45,45 0,24.9 20.1,45 45,45 24.9,0 45,-20.1 45,-45 0,-24.9 -20.1,-45 -45,-45 z" /></g></svg>