<?xml version="1.0" encoding="UTF-8" standalone="no"?>
<svg
   xmlns:dc="http://purl.org/dc/elements/1.1/"
   xmlns:cc="http://creativecommons.org/ns#"
   xmlns:rdf="http://www.w3.org/1999/02/22-rdf-syntax-ns#"
   xmlns:svg="http://www.w3.org/2000/svg"
   xmlns="http://www.w3.org/2000/svg"
   height="512"
   width="512"
   xml:space="preserve"
   viewBox="0 0 512 512.00001"
   y="0px"
   x="0px"
   id="Layer_2"
   version="1.1"><metadata
     id="metadata10626"><rdf:RDF><cc:Work
         rdf:about=""><dc:format>image/svg+xml</dc:format><dc:type
           rdf:resource="http://purl.org/dc/dcmitype/StillImage" /><dc:title></dc:title></cc:Work></rdf:RDF></metadata><defs
     id="defs10624" /><path
     id="path11182"
     d="m 250.36825,510.74104 -2.61302,-1.47429 -6.51994,-11.78983 c -39.08722,-70.6803 -69.99876,-126.60891 -97.98746,-177.28984 -10.17526,-18.425 -23.77157,-43.02954 -30.21401,-54.67675 l -11.71353,-21.17676 -3.905615,-9.94917 c -4.90369,-12.49168 -8.52178,-25.81708 -10.50702,-38.69732 l -1.54131,-10 -0.005,-14.5 -0.005,-14.5 1.57362,-10.49759 c 2.9782,-19.86718 8.11091,-35.55861 17.664395,-54.00241 l 5.95674,-11.5 6.71559,-9.48266 6.71559,-9.48267 11,-11.04599 11,-11.046 10,-7.091 10,-7.091 9.53364,-5.10001 9.53363,-5.1 10.46637,-3.92757 10.46636,-3.92757 11.71032,-2.62293 11.71032,-2.62293 13.03214,-1.18104 13.03215,-1.18103 13.66732,1.23443 13.66731,1.23443 9.09022,2.01123 c 4.99962,1.10617 13.81522,3.60891 19.59022,5.56164 l 10.5,3.55043 11.5,5.93953 11.5,5.93953 9.5,6.71448 9.5,6.71447 12.053,12.00112 12.05301,12.00111 6.59548,9.5 6.59549,9.5 5.5067,10.5 5.5067,10.5 3.66064,10.29899 3.66064,10.299 2.38435,10.701 2.38436,10.70101 1.1305,12.5 1.13051,12.5 -0.62904,9 c -0.92235,13.19655 -2.37449,22.74672 -5.16983,34 l -2.48403,10 -4.39721,11.04523 c -2.41847,6.07487 -6.72627,15.29987 -9.57289,20.5 -10.16053,18.56097 -27.40226,49.80491 -39.43177,71.45477 -13.7923,24.82241 -45.43443,82.10093 -73.74883,133.5 -23.35168,42.39025 -27.43237,49.50995 -29.23385,51.00504 l -1.41549,1.17475 -3.78922,0.42423 -3.78922,0.42422 z m 16.10655,-50.30396 c 5.6996,-10.3125 15.83628,-28.65 22.52595,-40.75 6.68968,-12.1 16.12684,-29.2 20.97146,-38 4.84462,-8.8 13.18593,-23.875 18.53623,-33.5 38.20521,-68.72974 58.042,-105.01698 62.59261,-114.5 l 5.27856,-11 2.5925,-9 c 1.42587,-4.95 3.31903,-13.05 4.20702,-18 l 1.61452,-9 -0.004,-15.5 -0.004,-15.5 -1.73235,-10 -1.73235,-10 -3.44118,-10.5 -3.44118,-10.5 -5.47668,-11 -5.47668,-11 -6.4133,-8.90737 -6.4133,-8.90738 -8.83903,-8.93563 -8.83903,-8.93563 -8,-5.98626 c -9.137,-6.83757 -21.01262,-13.54017 -32.84374,-18.5374 l -8.15556,-3.44475 -11.06468,-2.85758 -11.06468,-2.85759 -12.7144,-1.23279 -12.7144,-1.2328 -13.42551,1.1886 -13.4255,1.18859 -9.29541,2.36274 c -5.11248,1.29951 -13.57042,4.01084 -18.79542,6.02518 l -9.5,3.66244 -9,4.97527 C 171.76874,46.4531 162.28091,53.4982 152.09822,63.18665 l -7.88306,7.50043 -6.30932,8.06991 c -16.34542,20.90652 -26.71466,45.30481 -30.46073,71.67249 l -1.03108,7.2576 0.005,13.7372 0.005,13.7372 1.49245,9.27469 c 1.93324,12.014 5.48739,24.16705 10.32923,35.31978 l 3.87654,8.93113 18.55482,33.5 c 10.20515,18.425 26.9984,48.8 37.31833,67.5 10.31993,18.7 25.37849,45.925 33.46348,60.5 8.08498,14.575 21.18502,38.30312 29.11118,52.72915 7.92617,14.42603 14.6656,26.23853 14.97652,26.25 0.31092,0.0115 5.22862,-8.41665 10.92822,-18.72915 z m -29.20811,-173.80065 -8.71458,-1.35694 -9.28326,-3.11018 -9.28326,-3.11017 -9.50216,-4.97509 -9.50216,-4.97509 -8.9671,-7.21094 -8.96709,-7.21094 -6.34,-7.5 -6.33999,-7.5 -4.94085,-8.2772 c -7.13241,-11.94863 -11.61551,-23.244 -14.57516,-36.7228 l -1.53705,-7 -0.51716,-12.5 -0.51715,-12.5 1.63584,-9.95717 1.63585,-9.95717 3.00295,-8.96322 3.00296,-8.96323 4.18449,-8.04311 4.18449,-8.04312 5.61633,-7.53649 5.61634,-7.53649 7.9884,-7.59543 7.9884,-7.59542 6.29259,-4.27322 c 3.46092,-2.35027 10.92442,-6.48579 16.58554,-9.19005 l 10.29295,-4.91683 9.83721,-2.58115 9.83721,-2.58114 14.44604,-0.51523 14.44604,-0.51523 8.55396,1.25071 8.55396,1.25071 7.6588,2.39584 c 10.38259,3.24789 17.82911,6.62938 27.3412,12.41572 l 8,4.86652 7.20947,6.2921 c 16.15548,14.09978 27.92367,31.69656 34.68038,51.85702 l 2.53536,7.56493 1.53741,8.81606 1.53738,8.81607 v 11.83355 11.83355 l -1.91337,9.78546 -1.91339,9.78546 -2.71152,7.5 c -3.57664,9.89285 -7.65348,17.88837 -13.66382,26.79763 l -4.92313,7.29763 -6.61304,7.01018 -6.61305,7.01017 -7.81114,5.88587 c -4.29612,3.23723 -10.78604,7.54954 -14.42206,9.58291 l -6.61091,3.69704 -10.7944,3.80223 -10.79438,3.80223 -10.48624,1.55706 -10.48622,1.55705 -8.37167,-0.0969 -8.37166,-0.0969 -8.71458,-1.35694 z m 31.85098,-20.5316 7.78112,-1.08226 8.04124,-2.53432 c 9.93547,-3.13133 15.943,-6.1144 25.30645,-12.56607 l 7.26522,-5.00593 8.23478,-8.70657 8.23479,-8.70657 3.33052,-5.58947 c 1.83179,-3.07421 4.90961,-9.24189 6.83961,-13.70594 l 3.50908,-8.11646 2.00679,-9.70208 2.00679,-9.70208 -0.50054,-13.5 -0.50054,-13.5 -1.7422,-6.5 c -0.95822,-3.575 -3.16468,-9.875 -4.90326,-14 l -3.16104,-7.5 -4.88133,-7.5 -4.88134,-7.5 -8.06127,-8.04515 -8.06127,-8.04515 -8.49128,-5.22521 -8.49128,-5.22521 -7.50872,-2.89463 -7.50872,-2.89462 -8.5,-1.63073 -8.5,-1.63073 -11,6.4e-4 -11,6.4e-4 -7.09308,1.49831 c -3.90119,0.82408 -10.82231,2.85932 -15.38027,4.52277 l -8.28719,3.02445 -7.25204,4.51999 c -3.98862,2.486 -9.81637,6.6311 -12.95057,9.21135 l -5.69853,4.69134 -6.38282,7.97754 -6.38283,7.97754 -3.45492,6.58343 c -1.9002,3.62089 -4.62842,9.70602 -6.06269,13.52252 l -2.60778,6.93909 -1.46962,9.06091 -1.46962,9.06091 -0.004,7.61901 -0.004,7.61901 1.49229,8.5574 1.49228,8.5574 3.05441,8.44127 3.05441,8.44128 5.15425,8.38231 5.15425,8.38232 8.54906,8.63039 8.54905,8.63038 7.23242,4.65669 c 15.62142,10.05806 32.38461,15.14527 50.94522,15.4606 l 7.1776,0.12194 z m -4.85718,-71.69697 -18.77922,-18.77922 v -36.14406 -36.14405 l 2.52703,-3.00321 2.52704,-3.0032 2.86937,-0.63022 2.86938,-0.63023 3.63958,1.52072 3.63958,1.52071 1.46401,3.50387 1.46401,3.50387 v 30.29506 30.29505 l 14.60281,14.48706 14.60281,14.48707 1.44644,3.33575 1.44644,3.33576 -1.12164,3.39861 -1.12164,3.39861 -2.56247,2.01563 -2.56247,2.01564 h -4.08592 -4.08592 z"
     style="fill:#000000" /></svg>