<?xml version="1.0" encoding="UTF-8" standalone="no"?>
<svg
   xmlns:dc="http://purl.org/dc/elements/1.1/"
   xmlns:cc="http://creativecommons.org/ns#"
   xmlns:rdf="http://www.w3.org/1999/02/22-rdf-syntax-ns#"
   xmlns:svg="http://www.w3.org/2000/svg"
   xmlns="http://www.w3.org/2000/svg"
   id="svg6309"
   version="1.1"
   viewBox="0 0 135.46666 135.46667"
   height="512"
   width="512">
  <defs
     id="defs6303" />
  <metadata
     id="metadata6306">
    <rdf:RDF>
      <cc:Work
         rdf:about="">
        <dc:format>image/svg+xml</dc:format>
        <dc:type
           rdf:resource="http://purl.org/dc/dcmitype/StillImage" />
        <dc:title></dc:title>
      </cc:Work>
    </rdf:RDF>
  </metadata>
  <g
     transform="translate(0,-161.53332)"
     id="layer1">
    <path
       id="path10601"
       d="m 36.624597,295.32634 -0.1977,-3.3e-4 -17.17812,-9.84919 -17.1781095,-9.8492 -0.24188,-0.23852 -0.24189,-0.23852 0.0813,-47.1136 0.0813,-47.1136 17.4711695,9.32271 17.47117,9.32273 3.23888,-1.71684 3.23889,-1.71682 11.81235,-6.16079 11.81235,-6.16079 8.31324,4.27407 8.31325,4.27407 0.33969,1.3354 0.33967,1.33541 1.75555,3.49864 1.75554,3.49863 1.76445,2.33646 1.76443,2.33645 h -0.14645 -0.146449 l -10.91508,-5.47958 -10.91511,-5.4795 v 12.73057 12.73056 h -2.24392 -2.24391 l -0.084,-12.7137 -0.084,-12.71368 -12.763181,6.61572 -12.76317,6.61572 v 12.22109 12.22108 h -2.40814 -2.40816 l -0.002,-12.3268 -0.002,-12.3268 -11.09852,-5.96199 -11.09873,-5.96198 -0.29801,-0.10743 -0.29801,-0.10743 0.005,36.685 0.005,36.68501 11.31362,6.51104 11.3136,6.51104 0.0835,-14.48721 0.0835,-14.4872 h 2.40488 2.40487 v 14.2067 14.20672 l 0.27088,-0.10743 0.27088,-0.10743 12.57258,-8.36766 12.57256,-8.36766 v -12.17702 -12.17702 h 2.24379 2.24378 l 0.0841,12.2292 0.0841,12.22919 12.96288,8.41046 12.96288,8.41045 0.12139,-0.12183 0.12138,-0.12183 v -14.07243 -14.07243 h 2.40486 2.404883 l 0.0835,14.48279 0.0835,14.48279 11.95454,-6.50662 11.95454,-6.50662 0.0862,-23.36454 0.0862,-23.36453 0.82587,-1.96503 0.82588,-1.96503 1.42173,-2.4635 1.42172,-2.46348 2.40815,-3.2545 2.40814,-3.25451 0.0818,33.62319 0.0818,33.6232 -0.66808,0.48592 -0.66808,0.48592 -17.48305,9.63041 -17.483043,9.6304 -1.72564,-1.09026 -1.72562,-1.09026 -13.67695,-8.9323 -13.67695,-8.93231 -14.97492,9.97968 -14.9749,9.97968 -0.19771,-3.2e-4 z m 63.05627,-48.24024 -1.60544,0.14044 -1.95766,-0.25632 -1.95764,-0.25632 -1.16414,-0.4882 -1.16414,-0.48819 0.78516,-1.78193 0.78516,-1.78192 0.45426,-1.09122 0.45427,-1.0912 2.20345,0.45577 2.20346,0.45577 1.1238,-0.20293 1.123803,-0.20293 0.68741,-0.16525 0.68741,-0.16523 0.88484,2.68483 0.88484,2.68484 0.13366,0.36582 0.13365,0.36583 -1.54535,0.33895 -1.54537,0.33897 z m -62.83573,-0.12523 -2.34476,-0.0255 -0.32109,-0.11827 -0.32109,-0.11839 -1.35311,-0.34894 -1.35312,-0.34894 0.92251,-2.48827 0.92252,-2.48828 0.21444,-0.53859 0.21442,-0.53858 0.96284,0.33689 0.96283,0.33688 2.46419,-0.16051 2.46421,-0.16051 0.51015,-0.21631 0.51017,-0.21631 1.17553,2.84654 1.17555,2.84654 v 0.20374 0.20373 l -2.23072,0.50924 -2.23071,0.50923 -2.34476,-0.0255 z m -13.17418,-2.58416 -1.05078,0.22624 -1.1238,-0.19621 -1.1238,-0.19621 -0.87732,-0.57908 -0.87734,-0.57906 -0.64783,-1.05207 -0.64782,-1.05207 v -1.76736 -1.76734 l 0.72353,-1.07761 0.72353,-1.07761 1.05527,-0.61858 1.05527,-0.61859 h 1.57977 1.57978 l 1.0228,0.60116 1.02279,0.60116 0.61678,0.83062 0.61678,0.83061 0.26595,1.18357 0.26596,1.18356 -0.25509,1.13523 -0.2551,1.13521 -0.51827,0.79391 -0.51829,0.79391 -0.79099,0.5202 -0.791,0.52019 z m 90.546313,0 -1.05078,0.22624 -1.1238,-0.19621 -1.1238,-0.19621 -0.87734,-0.57908 -0.87733,-0.57906 -0.64783,-1.05207 -0.64782,-1.05207 v -1.76736 -1.76734 l 0.72353,-1.07761 0.72354,-1.07761 1.05527,-0.61858 1.05525,-0.61859 h 1.57978 1.57977 l 1.0228,0.60116 1.02279,0.60116 0.61678,0.83062 0.61678,0.83061 0.26596,1.18357 0.26596,1.18356 -0.2551,1.13523 -0.25509,1.13521 -0.51828,0.79391 -0.51827,0.79391 -0.791,0.5202 -0.79101,0.52019 z m -64.437753,-1.98703 -0.1881,0.0762 -1.44488,-2.48434 -1.44489,-2.48435 -0.0807,-0.33121 -0.0807,-0.33121 3.13103,-1.84939 3.13105,-1.8494 1.29994,-0.7889 1.29996,-0.78889 1.50955,2.52822 1.50954,2.52823 v 0.31471 0.31471 l -4.22683,2.53464 -4.22684,2.53464 z m 36.00343,0.0519 -0.22988,-0.033 -4.25438,-2.45427 -4.25439,-2.45429 v -0.26707 -0.26709 l 1.47688,-2.56993 1.47689,-2.56994 2.29588,1.29961 2.29586,1.29961 2.16519,1.20478 2.16519,1.20477 -0.004,0.32227 -0.004,0.32226 -1.45002,2.4976 -1.45002,2.49759 -0.22988,-0.033 z m -20.97746,-8.42127 -1.1279,0.31257 -1.02748,-2.9069 -1.02748,-2.9069 0.15051,-0.15106 0.1505,-0.15106 1.86105,-0.43951 1.86105,-0.43952 1.92651,0.002 1.92652,0.002 1.44488,0.32208 1.44489,0.32208 0.84842,0.33931 0.84844,0.3393 -1.16952,2.88931 -1.16951,2.88932 -0.80272,-0.19825 -0.80272,-0.19825 -2.10377,-0.1704 -2.10376,-0.1704 -1.12791,0.31258 z m 48.223843,-6.22356 -0.2236,0.1387 -0.40315,-1.9957 -0.40317,-1.99571 -1.08189,-3.2692 -1.0819,-3.26919 -1.43567,-2.86914 -1.43568,-2.86914 -1.93716,-2.88521 -1.93716,-2.88522 -2.76804,-3.54496 -2.768033,-3.54496 -1.412,-2.11859 -1.41201,-2.11859 -0.95057,-2.39318 -0.95056,-2.39319 -0.38925,-2.6972 -0.38923,-2.69721 0.20179,-2.17927 0.2018,-2.17927 0.66926,-2.21344 0.66925,-2.21346 1.31003,-2.2559 1.31002,-2.25588 2.16097,-2.11682 2.160953,-2.11683 2.68412,-1.34846 2.68414,-1.34846 2.08096,-0.52022 2.08095,-0.52022 3.53805,0.1591 3.53805,0.1591 2.09198,0.67386 2.09196,0.67386 2.00709,1.21893 2.00711,1.21893 2.00301,1.99599 2.00302,1.99598 1.08291,1.79341 1.08293,1.7934 0.76681,2.12033 0.76682,2.12032 0.2668,2.4693 0.2668,2.46928 -0.28732,2.65375 -0.28732,2.65375 -0.62583,1.82569 -0.62582,1.82568 -1.122,2.01373 -1.12202,2.01374 -3.91023,5.10852 -3.91024,5.10854 -1.67265,2.57816 -1.67266,2.57816 -1.14904,2.30162 -1.14903,2.3016 -1.26929,3.82151 -1.26929,3.8215 -0.22609,1.53475 -0.22608,1.53474 z m 0.16843,-36.94527 2.27887,-0.10877 1.5401,-0.96303 1.5401,-0.96303 0.95073,-1.69669 0.95072,-1.6967 0.0109,-1.84827 0.0109,-1.84827 -0.54363,-1.28907 -0.54363,-1.28909 -0.86595,-0.92699 -0.86595,-0.927 -1.60544,-0.76177 -1.60542,-0.76176 -1.30742,-0.004 -1.30742,-0.004 -1.46669,0.50159 -1.46671,0.5016 -1.13788,1.14209 -1.13791,1.14209 -0.50544,1.06907 -0.50545,1.06907 -0.19111,1.39952 -0.19112,1.39951 0.36293,1.35276 0.36291,1.35276 1.0348,1.35866 1.03478,1.35864 1.44488,0.77406 1.4449,0.77407 2.27887,-0.10877 z"
       style="fill:#000000;stroke-width:0.32167727" />
  </g>
</svg>
