<?xml version="1.0" encoding="utf-8"?>
<!-- Generator: Adobe Illustrator 16.2.0, SVG Export Plug-In . SVG Version: 6.00 Build 0)  -->
<!DOCTYPE svg PUBLIC "-//W3C//DTD SVG 1.1//EN" "http://www.w3.org/Graphics/SVG/1.1/DTD/svg11.dtd">
<svg version="1.1" id="Layer_1" xmlns="http://www.w3.org/2000/svg" xmlns:xlink="http://www.w3.org/1999/xlink" x="0px" y="0px"
	 width="307.154px" height="512px" viewBox="0 0 307.154 512" enable-background="new 0 0 307.154 512" xml:space="preserve">
<g>
	<path fill-rule="evenodd" clip-rule="evenodd" d="M153.411,512c-4.198-8.884-7.997-16.888-11.765-24.906
		C99.318,397.031,56.891,307.015,14.699,216.888C-28.554,124.491,27.884,18.16,128.562,2.039
		c82-13.129,158.081,38.39,175.226,119.144c7.016,33.053,3.004,65.104-11.43,95.792c-45.183,96.078-90.31,192.18-135.471,288.269
		C155.953,507.231,154.879,509.154,153.411,512z M153.385,467.711c1.245-2.355,2.064-3.767,2.757-5.239
		c40.026-85.049,80.137-170.057,120-255.181c13.409-28.633,16.056-58.538,8.112-89.172C267.287,52.689,202.828,10.181,135.183,19.62
		C44.51,32.271-7.178,126.893,31.606,209.358c34.739,73.865,69.581,147.681,104.381,221.518
		C141.633,442.853,147.296,454.82,153.385,467.711z"/>
	<path fill-rule="evenodd" clip-rule="evenodd" d="M153.471,219.545c-40.206-0.043-73.084-32.907-73.148-73.114
		c-0.063-40.381,33.215-73.544,73.548-73.293c40.233,0.251,73.002,33.265,72.859,73.407
		C226.589,186.764,193.647,219.589,153.471,219.545z M153.777,92.681c-29.374-0.115-53.658,23.813-53.91,53.118
		c-0.254,29.629,23.844,54.089,53.403,54.204c29.375,0.114,53.667-23.821,53.917-53.126
		C207.439,117.26,183.332,92.797,153.777,92.681z"/>
</g>
</svg>
