<?xml version="1.0" encoding="UTF-8" standalone="no"?>
<svg
   xmlns:dc="http://purl.org/dc/elements/1.1/"
   xmlns:cc="http://creativecommons.org/ns#"
   xmlns:rdf="http://www.w3.org/1999/02/22-rdf-syntax-ns#"
   xmlns:svg="http://www.w3.org/2000/svg"
   xmlns="http://www.w3.org/2000/svg"
   id="svg6309"
   version="1.1"
   viewBox="0 0 135.46666 135.46667"
   height="512"
   width="512">
  <defs
     id="defs6303" />
  <metadata
     id="metadata6306">
    <rdf:RDF>
      <cc:Work
         rdf:about="">
        <dc:format>image/svg+xml</dc:format>
        <dc:type
           rdf:resource="http://purl.org/dc/dcmitype/StillImage" />
        <dc:title></dc:title>
      </cc:Work>
    </rdf:RDF>
  </metadata>
  <g
     transform="translate(0,-161.53332)"
     id="layer1">
    <path
       id="path8559"
       d="m 20.125144,294.55452 c -3.84414,-1.90278 -8.31273,-5.96515 -10.7645603,-9.78602 -2.56428,-3.99604 -3.95784,-9.81628 -4.51975,-18.87654 l -0.43704,-7.04677 2.99038,-2.4504 c 1.64468,-1.3477 5.8120303,-4.07373 9.2607003,-6.05785 l 6.27036,-3.60746 0.18144,12.27119 c 0.0998,6.74919 0.0998,17.82167 0,24.60553 l -0.18144,12.33432 z m 63.4074,-0.49677 c -3.93369,-2.84957 -8.65383,-8.41322 -10.73757,-12.65647 -1.66322,-3.38693 -1.86374,-4.51262 -1.86374,-10.46277 0,-6.1245 0.17464,-7.03604 2.14364,-11.19313 2.78132,-5.8719 8.36799,-11.73317 13.91939,-14.60357 3.05568,-1.57999 4.27465,-2.58555 4.29164,-3.5403 0.0126,-0.73342 -1.24518,-14.72116 -2.79604,-31.0839 -3.24649,-34.25269 -3.28923,-33.45887 2.08175,-38.66889 2.36577,-2.29491 4.04502,-3.28706 6.60144,-3.90033 9.029636,-2.16617 18.037796,4.80607 18.082406,13.99563 0.0126,2.79291 -4.11864,51.06898 -4.9741,58.11205 l -0.37916,3.1218 4.65751,2.44745 c 8.48907,4.46088 14.31609,12.13108 16.14881,21.25695 1.29733,6.45974 -1.02029,14.3482 -6.08895,20.72498 -2.48479,3.12609 -8.63697,8.3344 -9.8448,8.3344 -0.6452,0 -0.83818,-3.08002 -0.83818,-13.37883 0,-7.94732 -0.2802,-13.90241 -0.6902,-14.66852 -0.64054,-1.19687 -1.50013,-1.28966 -11.94697,-1.28966 -6.191206,0 -11.731346,0.1822 -12.311406,0.40472 -0.91624,0.35159 -1.05467,2.27684 -1.05467,14.66849 0,15.9014 0.0942,15.63614 -4.4008,12.3799 z m 19.748256,-109.80932 2.27404,-2.3462 -2.47663,-2.4766 -2.4766,-2.47663 -2.476626,2.47663 -2.47661,2.4766 2.27405,2.3462 c 1.2507,1.29042 2.456336,2.34622 2.679186,2.34622 0.22277,0 1.42846,-1.0558 2.67919,-2.34622 z m -71.354426,75.40026 c 0,-17.52017 -0.58895,-15.69103 5.48027,-17.02084 2.92388,-0.64063 3.36226,-0.55273 6.19149,1.24151 1.67466,1.06203 4.97743,2.4541 7.33947,3.09347 5.8803,1.59174 10.60872,1.02806 16.72229,-1.99344 5.14723,-2.54389 6.47781,-2.77515 9.39537,-1.63291 1.7802,0.69698 1.80974,0.77432 0.57327,1.5002 -0.71704,0.42094 -2.91004,2.25079 -4.87332,4.06635 -5.45739,5.04675 -8.48754,12.18541 -9.84877,23.20229 l -0.3913,3.16706 h -15.29439 -15.29438 z m 17.96329,-17.67929 c -6.36862,-1.93248 -13.4442,-9.73163 -15.95019,-17.58125 -0.48308,-1.51321 -1.44297,-2.83216 -2.36784,-3.25355 -2.12585,-0.96859 -3.09504,-3.65078 -2.85075,-7.88911 0.19127,-3.31662 0.34086,-3.59589 2.20535,-4.11524 1.16122,-0.32344 3.15744,-0.27627 4.75892,0.11239 8.96838,2.17686 26.05708,2.28355 37.75522,0.23562 5.34804,-0.9362 5.98334,-0.93081 7.50096,0.0635 3.0022,1.96711 1.9501,9.84677 -1.51962,11.38115 -0.93217,0.41222 -1.87556,1.82718 -2.52808,3.79172 -1.3567,4.08464 -5.46372,10.39898 -8.34685,12.83284 -5.19921,4.38909 -12.81581,6.19419 -18.65712,4.4217 z m -11.73481,-36.32635 c -6.98193,-1.31425 -11.01015,-2.81214 -13.60102,-5.05759 l -2.29534,-1.98931 2.16693,-1.88211 c 1.6035,-1.39273 2.16694,-2.43843 2.16694,-4.02155 0,-2.83555 2.2962,-9.53749 4.42091,-12.9032 3.76073,-5.95741 10.03792,-10.7003 17.08177,-12.90658 3.21887,-1.00823 3.83383,-1.44867 3.83383,-2.74595 0,-1.40963 0.29229,-1.54511 3.33373,-1.54511 3.04913,0 3.33376,0.13306 3.33376,1.55756 0,1.33011 0.56622,1.71499 3.8775,2.6356 7.34179,2.0412 16.08536,9.35403 17.44886,14.59362 0.31714,1.21872 0.95288,6.51546 1.41273,11.77051 0.96448,11.0212 1.38807,10.14416 -5.73698,11.87888 -6.26492,1.52533 -30.49373,1.92341 -37.44362,0.61523 z"
       style="fill:#000000;stroke-width:0.66674989" />
  </g>
</svg>
