<?xml version="1.0" encoding="UTF-8" standalone="no"?>
<svg
   xmlns:dc="http://purl.org/dc/elements/1.1/"
   xmlns:cc="http://creativecommons.org/ns#"
   xmlns:rdf="http://www.w3.org/1999/02/22-rdf-syntax-ns#"
   xmlns:svg="http://www.w3.org/2000/svg"
   xmlns="http://www.w3.org/2000/svg"
   id="svg6309"
   version="1.1"
   viewBox="0 0 135.46666 135.46667"
   height="512"
   width="512">
  <defs
     id="defs6303" />
  <metadata
     id="metadata6306">
    <rdf:RDF>
      <cc:Work
         rdf:about="">
        <dc:format>image/svg+xml</dc:format>
        <dc:type
           rdf:resource="http://purl.org/dc/dcmitype/StillImage" />
        <dc:title></dc:title>
      </cc:Work>
    </rdf:RDF>
  </metadata>
  <g
     transform="translate(0,-161.53332)"
     id="layer1">
    <path
       id="path8587"
       d="m 53.252273,295.65332 c -2.981248,-0.13743 -5.525364,-0.3547 -5.653578,-0.48283 -0.372606,-0.37234 0.264971,-11.92257 0.686137,-12.43004 0.196242,-0.23647 1.015385,-0.85122 1.820302,-1.36612 2.317668,-1.4826 3.611946,-3.67068 4.119449,-6.96426 0.381033,-2.47283 -0.926221,-6.48443 -2.942754,-9.03052 -1.472218,-1.85883 -1.736508,-1.59889 -2.753572,2.70827 -0.770565,3.26325 -1.022741,3.92865 -1.817258,4.79501 -0.919958,1.00313 -0.929045,1.00593 -3.236523,0.99841 -2.61639,-0.008 -4.061756,-0.5712 -5.325629,-2.07323 -1.083494,-1.28766 -1.141592,-2.27343 -0.342588,-5.81296 0.392429,-1.73847 0.713513,-3.39422 0.713513,-3.67943 0,-1.25549 -2.933266,0.0133 -5.478589,2.36988 -2.519268,2.3324 -3.69447,5.18049 -3.69447,8.95355 0,2.97906 1.459148,5.62075 4.240909,7.67789 2.542591,1.88028 2.430407,1.53528 2.430407,7.47412 v 5.25066 H 34.89126 c -1.441908,0 -8.718665,-1.17259 -12.9383,-2.0849 -6.284212,-1.35869 -12.7490858,-3.50972 -13.8710648,-4.61526 -0.4924797,-0.48525 -0.5471425,-0.85602 -0.4788639,-3.24767 0.090562,-3.17147 1.1320121,-8.62031 2.3224696,-12.1509 1.1581191,-3.43473 3.5388761,-8.34723 5.2329491,-10.7978 1.656378,-2.39603 5.022052,-5.73692 7.377962,-7.32364 3.07056,-2.06805 9.490342,-5.06909 19.319024,-9.03102 l 5.420451,-2.18499 0.955953,1.18711 c 1.802117,2.23786 4.954792,5.14268 7.134589,6.5737 3.51902,2.31019 8.518305,3.92848 12.120154,3.92335 6.873569,-0.009 14.580947,-3.97949 19.100528,-9.83772 0.696791,-0.90316 1.418583,-1.55702 1.718825,-1.55702 1.029137,0 14.684724,5.69026 19.845704,8.26966 4.10587,2.05208 5.69036,3.13388 8.43035,5.75578 3.83355,3.66834 6.8097,8.76676 8.92469,15.2888 1.32967,4.10035 1.85301,6.58921 2.23316,10.62044 0.2966,3.14516 0.17274,4.10594 -0.61343,4.7584 -0.74368,0.6172 -6.35488,2.57357 -10.17909,3.54897 -15.0606,3.84137 -39.990261,5.60902 -63.695047,4.51631 z m 10.284943,-45.2661 c -4.674175,-1.20692 -8.846197,-4.0087 -12.111497,-8.13363 -1.807296,-2.28309 -3.820825,-6.02707 -4.689695,-8.72003 -0.300167,-0.93036 -1.098328,-2.20179 -2.257498,-3.59605 -2.003507,-2.40986 -4.266855,-6.71473 -5.025347,-9.55824 -0.681167,-2.55357 -0.692113,-7.74499 -0.01996,-9.48648 0.27304,-0.70749 0.742387,-1.5089 1.042996,-1.78096 0.525648,-0.4757 0.639963,-0.46597 2.987841,0.25425 6.012769,1.84445 13.993868,2.78084 23.825813,2.79541 9.43647,0.014 16.4459,-0.7814 24.12547,-2.73755 1.496907,-0.38129 2.901603,-0.6242 3.121545,-0.53979 0.720071,0.2763 1.476368,1.86951 1.817572,3.82887 0.973057,5.58771 -1.41868,12.80082 -5.928079,17.87816 -0.832981,0.93789 -1.452037,2.00866 -1.846378,3.19365 -2.253919,6.77304 -7.136242,12.54537 -12.88717,15.23641 -4.044077,1.89235 -8.275479,2.36785 -12.155569,1.36598 z M 62.564318,207.8344 c -3.057689,-0.0963 -6.685215,-0.31792 -8.061177,-0.49241 -9.602053,-1.21769 -16.235555,-3.80961 -18.795984,-7.34417 -1.313756,-1.8136 -1.134786,-2.62027 1.007788,-4.54226 l 1.808788,-1.62257 0.278579,-2.24481 c 1.258504,-10.14108 7.426042,-18.69128 16.741396,-23.20899 1.262296,-0.61219 3.170705,-1.37595 4.240899,-1.69726 2.409006,-0.72326 2.640728,-0.90313 2.640728,-2.04982 0,-0.66138 0.205129,-1.08004 0.732414,-1.4948 0.660188,-0.5193 1.108765,-0.57612 4.54904,-0.57612 3.440268,0 3.888844,0.0568 4.549041,0.57612 0.514038,0.40435 0.733686,0.83946 0.736672,1.45936 0.0063,1.25323 0.207733,1.44555 2.080524,1.9839 8.906692,2.56029 16.353446,9.56358 19.585233,18.4189 0.846607,2.31972 1.679595,6.15856 1.679595,7.74036 0,0.81547 0.23686,1.12158 1.920112,2.4816 1.056054,0.85325 1.994204,1.74448 2.084784,1.9805 0.58597,1.52701 -0.603649,3.36205 -3.352997,5.17218 -6.359719,4.18714 -17.707179,5.98697 -34.425435,5.46029 z"
       style="fill:#000000;stroke-width:0.27797154" />
  </g>
</svg>
