<?xml version="1.0" encoding="UTF-8" standalone="no"?>
<svg
   xmlns:dc="http://purl.org/dc/elements/1.1/"
   xmlns:cc="http://creativecommons.org/ns#"
   xmlns:rdf="http://www.w3.org/1999/02/22-rdf-syntax-ns#"
   xmlns:svg="http://www.w3.org/2000/svg"
   xmlns="http://www.w3.org/2000/svg"
   id="svg6309"
   version="1.1"
   viewBox="0 0 135.46666 135.46667"
   height="512"
   width="512">
  <defs
     id="defs6303" />
  <metadata
     id="metadata6306">
    <rdf:RDF>
      <cc:Work
         rdf:about="">
        <dc:format>image/svg+xml</dc:format>
        <dc:type
           rdf:resource="http://purl.org/dc/dcmitype/StillImage" />
        <dc:title></dc:title>
      </cc:Work>
    </rdf:RDF>
  </metadata>
  <g
     transform="translate(0,-161.53332)"
     id="layer1">
    <g
       transform="matrix(1.1634595,0,0,1.1634595,271.72128,119.42481)"
       id="g9939">
      <path
         d="m -129.02684,111.50177 c 0,-1.16417 0.3175,-2.27542 0.87312,-3.22792 0.15875,-0.29104 0.37042,-0.55563 0.55563,-0.82021 4.60375,-6.87917 7.3025,-15.107709 7.3025,-23.891869 0.0794,-24.39459 -20.50521,-44.18542 -45.95813,-44.18542 -22.19854,0 -40.71937,15.10771 -45.05854,35.16312 -0.635,2.93688 -0.97896,5.92667 -0.97896,9.04875 0,24.421049 19.79084,44.741049 45.24375,44.741049 4.04813,0 9.49854,-1.21709 12.48834,-2.0373 2.98979,-0.8202 5.95312,-1.905 6.72041,-2.19604 0.76729,-0.29104 1.61396,-0.44979 2.46063,-0.44979 0.9525,0 1.85208,0.18521 2.67229,0.52917 l 15.00187,5.31812 c 0,0 0.635,0.26459 1.03188,0.26459 1.16416,0 2.11666,-0.92605 2.11666,-2.11667 0,-0.26458 -0.13229,-0.71438 -0.13229,-0.71438 z m -12.14438,8.73125 c -1.32291,-0.52917 -2.72521,-0.84667 -4.18041,-0.84667 -1.0848,0 -2.6723,0.21167 -3.22792,0.42333 -0.55563,0.21167 -2.98979,1.00542 -2.98979,1.00542 -1.11125,0.37042 -2.61938,1.00542 -4.02167,1.34937 -3.70417,0.9525 -7.96396,1.905 -11.43,1.905 -11.08604,0 -21.45771,-4.25979 -29.18354,-11.98562 -3.73062,-3.73063 -6.64104,-8.06979 -8.67833,-12.885209 -2.09021,-4.97417 -3.14854,-10.23937 -3.14854,-15.63687 0,-2.69875 0.29104,-5.45042 0.87312,-8.14917 1.905,-8.83708 7.01146,-16.88042 14.34042,-22.67479 3.65125,-2.88396 7.77875,-5.15938 12.19729,-6.72042 4.60375,-1.61396 9.44562,-2.43417 14.39333,-2.43417 5.82083,0 11.45646,1.11125 16.74813,3.33375 5.10645,2.14313 9.63083,5.18584 13.49375,9.04875 7.40833,7.48771 11.45645,17.2773 11.45645,27.59605 0,7.64645 -2.27541,15.08125 -6.5352,21.484159 -0.0265,0.0265 -0.0529,0.0794 -0.0794,0.10584 -0.18521,0.23812 -0.42334,0.58208 -0.66146,1.00541 -0.92604,1.61396 -1.42875,3.28084 -1.42875,5.31813 0,2.03729 2.16958,8.59896 3.43958,12.75291 z"
         id="path9354"
         style="stroke-width:0.26458332" />
      <path
         d="m -162.28497,131.37197 c -1.66687,1.61396 -3.20145,2.75167 -3.20145,2.75167 -6.58813,5.34458 -14.9225,8.30792 -23.68021,8.30792 -4.97417,0 -9.81604,-0.9525 -14.41979,-2.83104 -0.10584,-0.0529 -0.21167,-0.0794 -0.26459,-0.10584 -0.15875,-0.0794 -0.3175,-0.13229 -0.47625,-0.15875 -1.85208,-0.60854 -3.88937,-0.52916 -5.66208,0.18521 l -11.24479,4.445 2.46062,-12.83229 c 0.0265,-0.13229 0.0265,-0.26458 0.0265,-0.39688 0,-1.34937 -0.34396,-2.64583 -1.03187,-3.78354 l -0.10584,-0.18521 c -0.13229,-0.21166 -0.26458,-0.47625 -0.44979,-0.71437 -3.81,-5.74146 -5.82083,-12.40896 -5.82083,-19.28813 0,-7.937499 2.80458,-16.615829 10.00125,-24.579789 0.15875,-1.13771 0.34396,-2.27541 0.60854,-3.38666 0.26458,-1.19063 0.58208,-2.38125 0.92604,-3.54542 l -2.11667,1.87854 c -8.65187,7.54063 -13.62604,18.33563 -13.62604,29.580419 0,7.75229 2.27542,15.24 6.56167,21.69583 0.0265,0.0265 0.0529,0.0529 0.0794,0.10583 0.0529,0.0529 0.15875,0.23813 0.21167,0.37042 0.0529,0.0794 0.0794,0.15875 0.13229,0.21167 0.26459,0.44979 0.39688,0.89958 0.42334,1.42875 l -3.14855,16.40416 c -0.15875,0.7673 0.1323,1.53459 0.71438,2.0373 0.39687,0.3175 0.87312,0.47625 1.34937,0.47625 0.26459,0 0.52917,-0.0529 0.7673,-0.15875 l 14.84312,-5.8473 c 0.47625,-0.1852 0.97896,-0.29104 1.50813,-0.29104 0.47625,0 0.9525,0.0794 1.40229,0.23813 0.0529,0.0265 0.13229,0.0529 0.18521,0.0529 0.0265,0.0265 0.0529,0.0265 0.0794,0.0265 5.10645,2.11667 10.53041,3.175 16.0602,3.175 12.32959,0 23.91834,-5.31812 31.77646,-14.57854 0,0 0.84667,-1.16417 1.82563,-2.54 -1.00542,0.3175 -2.11667,0.66146 -3.22792,0.97896 -0.9525,0.29104 -2.14313,0.58208 -3.46604,0.87312 z"
         id="path9356"
         style="stroke-width:0.26458332" />
    </g>
  </g>
</svg>
