<?xml version="1.0" encoding="UTF-8" standalone="no"?>
<!-- Created with Inkscape (http://www.inkscape.org/) -->

<svg
   xmlns:dc="http://purl.org/dc/elements/1.1/"
   xmlns:cc="http://creativecommons.org/ns#"
   xmlns:rdf="http://www.w3.org/1999/02/22-rdf-syntax-ns#"
   xmlns:svg="http://www.w3.org/2000/svg"
   xmlns="http://www.w3.org/2000/svg"
   xmlns:sodipodi="http://sodipodi.sourceforge.net/DTD/sodipodi-0.dtd"
   xmlns:inkscape="http://www.inkscape.org/namespaces/inkscape"
   width="512"
   height="512"
   viewBox="0 0 135.46666 135.46667"
   version="1.1"
   id="svg6309"
   inkscape:version="0.92.1 r15371"
   sodipodi:docname="message-edit-square.svg">
  <defs
     id="defs6303" />
  <sodipodi:namedview
     id="base"
     pagecolor="#ffffff"
     bordercolor="#666666"
     borderopacity="1.0"
     inkscape:pageopacity="0.0"
     inkscape:pageshadow="2"
     inkscape:zoom="0.49497475"
     inkscape:cx="303.69201"
     inkscape:cy="385.82334"
     inkscape:document-units="px"
     inkscape:current-layer="layer1"
     showgrid="false"
     units="px"
     inkscape:window-width="1920"
     inkscape:window-height="1017"
     inkscape:window-x="-8"
     inkscape:window-y="108"
     inkscape:window-maximized="1" />
  <metadata
     id="metadata6306">
    <rdf:RDF>
      <cc:Work
         rdf:about="">
        <dc:format>image/svg+xml</dc:format>
        <dc:type
           rdf:resource="http://purl.org/dc/dcmitype/StillImage" />
        <dc:title></dc:title>
      </cc:Work>
    </rdf:RDF>
  </metadata>
  <g
     inkscape:label="Layer 1"
     inkscape:groupmode="layer"
     id="layer1"
     transform="translate(0,-161.53332)">
    <path
       style="fill:#000000;stroke-width:0.13661134"
       d="m 37.767712,281.82784 c -0.0478,-2.61099 -0.12681,-8.31838 -0.17553,-12.6831 l -0.0887,-7.93586 -4.71607,-0.09 c -2.59383,-0.0495 -10.85353,-0.09 -18.35488,-0.09 H 0.7937225 v -44.53531 -44.5353 H 63.703242 126.61277 v 22.43708 22.43706 l -2.58431,-2.58163 -2.58433,-2.58164 -0.0455,-17.11186 c -0.025,-9.41152 -0.0762,-17.14222 -0.11376,-17.17933 -0.0376,-0.0372 -25.995428,-0.11279 -57.684138,-0.16817 l -57.6158295,-0.1007 v 39.36428 39.36428 l 12.5340895,1.4e-4 c 6.89375,9e-5 15.15367,0.0407 18.35538,0.0902 l 5.8213,0.09 0.0883,5.88649 c 0.0485,3.23757 0.12735,7.23856 0.17517,8.89109 l 0.087,3.00459 1.24392,-1.31033 c 0.68417,-0.72067 4.58856,-4.7645 8.67643,-8.98627 l 7.43249,-7.67594 6.59011,0.039 c 6.25863,0.0372 6.60456,0.0522 6.87754,0.29932 0.1581,0.14313 0.28745,0.35839 0.28745,0.47836 0,0.44295 -1.09337,4.02706 -1.26093,4.13341 -0.0955,0.0606 -2.04848,0.11149 -4.34014,0.11318 -2.29165,0.002 -4.58183,0.0423 -5.08927,0.0902 l -0.92263,0.0872 -7.1415,7.39136 c -3.92784,4.06529 -9.46898,9.80429 -12.31365,12.75339 -2.84468,2.9491 -5.18545,5.362 -5.20173,5.362 -0.0163,0 -0.0687,-2.13626 -0.11655,-4.74725 z m 36.04894,-3.6202 c 0.17537,-0.8275 1.96313,-7.52005 3.64726,-13.65364 l 1.67651,-6.10587 20.34223,-20.37528 20.342218,-20.37529 7.42404,7.42403 7.42403,7.42404 -20.33958,20.33924 -20.339568,20.33923 -4.62616,1.28406 c -7.42381,2.06059 -15.2446,4.14347 -15.55792,4.14347 -0.0479,0 -0.0448,-0.19979 0.007,-0.44399 z m 11.06144,-7.88125 c 3.84974,-1.11228 4.3391,-1.27677 4.40732,-1.48145 0.0636,-0.19103 -4.09734,-4.45444 -5.10984,-5.23557 -0.43616,-0.3365 -0.79298,-0.52279 -0.86238,-0.45025 -0.10413,0.10881 -0.93116,2.98545 -1.9699,6.85184 l -0.3395,1.26365 0.29781,-4e-4 c 0.1638,-2.8e-4 1.77322,-0.42675 3.57649,-0.94776 z m 22.199328,-17.42599 12.9092,-12.90974 -3.79058,-3.79058 -3.79058,-3.7906 -7.18477,7.1717 c -3.95162,3.94444 -9.730218,9.77325 -12.841328,12.95294 -5.14246,5.25581 -5.64275,5.80703 -5.50465,6.06509 0.21491,0.40156 6.95984,7.21095 7.14269,7.21095 0.0829,0 5.95994,-5.80939 13.060018,-12.90976 z m 16.49617,-24.07681 -3.78971,-3.78971 -1.84555,1.84175 -1.84555,1.84175 3.7907,3.79251 3.7907,3.79251 1.84456,-1.84456 1.84455,-1.84455 z"
       id="path9330"
       inkscape:connector-curvature="0" />
  </g>
</svg>
