<?xml version="1.0" encoding="UTF-8" standalone="no"?>
<svg
   xmlns:dc="http://purl.org/dc/elements/1.1/"
   xmlns:cc="http://creativecommons.org/ns#"
   xmlns:rdf="http://www.w3.org/1999/02/22-rdf-syntax-ns#"
   xmlns:svg="http://www.w3.org/2000/svg"
   xmlns="http://www.w3.org/2000/svg"
   id="svg6309"
   version="1.1"
   viewBox="0 0 135.46666 135.46667"
   height="512"
   width="512">
  <defs
     id="defs6303" />
  <metadata
     id="metadata6306">
    <rdf:RDF>
      <cc:Work
         rdf:about="">
        <dc:format>image/svg+xml</dc:format>
        <dc:type
           rdf:resource="http://purl.org/dc/dcmitype/StillImage" />
        <dc:title></dc:title>
      </cc:Work>
    </rdf:RDF>
  </metadata>
  <g
     transform="translate(0,-161.53332)"
     id="layer1">
    <path
       id="path9220"
       d="m 58.807188,291.55974 c -0.730632,-0.34142 -4.317521,-2.63273 -7.970835,-5.09182 -3.653309,-2.45891 -8.645401,-5.8191 -11.093541,-7.46692 -7.911832,-5.32552 -8.235668,-5.41723 -19.992811,-5.66479 l -8.767928,-0.18458 -1.9411514,-0.77539 c -3.2059189,-1.28028 -5.4580232,-3.52517 -6.7570162,-6.7356 l -0.601175,-1.48553 -0.071542,-31.9525 c -0.062055,-27.7322 -0.018578,-32.18105 0.3296244,-33.68263 0.997165,-4.29964 3.6792378,-7.27363 7.8457397,-8.69992 l 1.7270542,-0.59109 44.304665,-0.0718 c 38.828753,-0.0621 44.304638,-0.0238 44.304638,0.31861 0,0.21467 -0.700909,1.50252 -1.557635,2.86158 l -1.557693,2.47113 -42.215602,0.13974 c -34.277236,0.11356 -42.415309,0.20668 -43.277514,0.49555 -0.584068,0.19555 -1.5572312,0.85112 -2.1626058,1.45648 -2.0669961,2.0669 -1.9565713,0.12304 -1.9565713,34.44124 0,34.00372 -0.088629,32.32604 1.8101782,34.22497 1.6051769,1.60519 2.1556779,1.69488 11.7402839,1.91213 9.312597,0.21088 10.063424,0.31063 14.016894,1.86235 2.607041,1.02314 2.719569,1.09363 15.604356,9.75938 5.966761,4.01279 11.025438,7.24005 11.349011,7.24005 0.32377,0 5.702753,-3.43447 12.078907,-7.71263 16.605618,-11.14156 15.956847,-10.89078 28.784971,-11.12605 l 8.63506,-0.15846 1.59412,-0.79712 c 1.69428,-0.847 2.58854,-1.88898 3.05123,-3.5557 0.16936,-0.60923 0.26759,-9.29066 0.26852,-23.7122 l 0.001,-22.75119 2.73104,-4.34979 c 1.50222,-2.39237 2.84729,-4.28998 2.98929,-4.21683 0.16406,0.0847 0.25775,10.07417 0.25775,27.49951 v 27.36645 l -0.60226,1.91577 c -1.20775,3.84236 -3.78586,6.52889 -7.50139,7.81778 -1.60357,0.55605 -2.34385,0.61117 -10.36213,0.7723 -9.469428,0.19019 -10.184843,0.29211 -13.683304,1.95005 -1.596825,0.7567 -8.885778,5.53101 -21.283819,13.94122 -1.738079,1.17908 -3.683321,2.32791 -4.322769,2.55293 -1.75155,0.61667 -4.156353,0.52596 -5.745463,-0.21682 z M 23.735434,252.95269 c -1.604912,-0.35354 -2.524116,-1.45551 -2.524116,-3.02574 0,-0.59743 0.258436,-1.09531 0.903387,-1.74019 l 0.903363,-0.9034 H 61.948546 100.879 l 0.78399,0.78398 c 0.43141,0.43141 0.83981,1.07477 0.90758,1.42997 0.18639,0.97448 -0.36413,2.31846 -1.20524,2.94212 l -0.75009,0.55639 -38.174171,0.0374 c -20.99583,0.0205 -38.413365,-0.0159 -38.705635,-0.0801 z M 85.37675,240.32 c -0.841916,-0.48271 -1.178139,-1.06931 -1.186624,-2.07023 -0.0078,-0.90695 3.680597,-17.27824 4.190117,-18.59865 0.246322,-0.63842 1.973867,-3.46636 10.063351,-16.47325 2.044956,-3.28799 5.610386,-9.02686 7.923076,-12.75343 6.04482,-9.7394 7.51145,-11.95614 7.91013,-11.95614 0.19447,0 1.06486,0.45743 1.93408,1.01676 0.86946,0.55927 3.82259,2.42373 6.56246,4.14313 2.86651,1.79893 4.98177,3.29581 4.98177,3.52559 0,0.21939 -1.35692,2.56955 -3.01566,5.22243 -1.65865,2.65304 -5.50136,8.829 -8.53925,13.72446 -3.03819,4.89538 -7.19739,11.59088 -9.24317,14.87887 -2.04581,3.28791 -4.2708,6.55548 -4.94479,7.26095 -1.81382,1.89932 -13.697189,11.56855 -14.766791,12.01543 -1.092344,0.45642 -1.179598,0.45923 -1.868699,0.0638 z m 10.550922,-12.24183 c 1.649741,-1.35657 2.999528,-2.60499 2.999528,-2.77425 0,-0.36457 -5.808183,-4.05864 -6.381116,-4.05864 -0.216772,0 -0.394105,0.0693 -0.394105,0.15663 0,0.0865 -0.3587,1.7089 -0.797101,3.60601 -0.438389,1.89717 -0.797081,3.61568 -0.797081,3.81917 0,0.34315 1.741768,1.71753 2.17678,1.71753 0.106463,0 1.543341,-1.1099 3.193095,-2.46645 z m -73.812967,5.28288 c -0.723608,-0.72367 -0.903387,-1.11313 -0.903387,-1.95694 0,-1.21274 0.675693,-2.22993 1.784453,-2.68636 0.543679,-0.22369 8.200793,-0.28609 28.899731,-0.23517 27.038712,0.066 28.163791,0.0884 28.253624,0.55515 0.101521,0.52707 -0.674492,4.00642 -1.062018,4.76165 -0.22494,0.43834 -1.835935,0.46485 -28.153826,0.46485 H 23.018068 Z m 0.694471,-18.16075 c -1.830653,-0.91825 -2.155971,-3.01509 -0.694471,-4.47666 l 0.903363,-0.90339 h 32.195174 c 26.231939,0 32.17927,0.0634 32.109275,0.34443 -0.158738,0.63627 -3.004203,5.05203 -3.407092,5.28752 -0.222062,0.12962 -13.635379,0.22829 -30.289264,0.22261 -27.915092,-0.009 -29.951947,-0.0404 -30.816985,-0.47451 z M 123.35328,179.42695 c -3.63624,-2.24673 -6.7227,-4.26166 -6.85895,-4.47772 -0.17923,-0.28394 0.10742,-0.97299 1.03501,-2.48856 2.22565,-3.63699 3.42681,-4.62032 5.644,-4.62032 1.15733,0 1.67089,0.23603 4.99495,2.29546 2.03776,1.26246 3.98548,2.5477 4.32828,2.85621 1.93978,1.74626 1.84664,3.83731 -0.33128,7.43705 -0.83972,1.38799 -1.67843,2.64941 -1.86373,2.80321 -0.25029,0.20769 -2.03761,-0.77091 -6.94828,-3.80533 z"
       style="fill:#000000;stroke-width:0.26569542" />
  </g>
</svg>
