<?xml version="1.0" encoding="UTF-8" standalone="no"?>
<svg
   xmlns:dc="http://purl.org/dc/elements/1.1/"
   xmlns:cc="http://creativecommons.org/ns#"
   xmlns:rdf="http://www.w3.org/1999/02/22-rdf-syntax-ns#"
   xmlns:svg="http://www.w3.org/2000/svg"
   xmlns="http://www.w3.org/2000/svg"
   xml:space="preserve"
   enable-background="new -88.633 -155.999 377.272 512"
   viewBox="0 0 377.272 512"
   height="512px"
   width="377.272px"
   y="0px"
   x="0px"
   id="Layer_1"
   version="1.1"><metadata
     id="metadata23"><rdf:RDF><cc:Work
         rdf:about=""><dc:format>image/svg+xml</dc:format><dc:type
           rdf:resource="http://purl.org/dc/dcmitype/StillImage" /><dc:title></dc:title></cc:Work></rdf:RDF></metadata><defs
     id="defs21" /><g
     transform="translate(88.633,155.998)"
     id="g3"><path
       id="path5"
       d="m 233.381,-100.756 c -35.627,-35.624 -82.982,-55.243 -133.391,-55.243 -50.382,0 -97.75,19.619 -133.38,55.243 -35.63,35.631 -55.243,83.005 -55.243,133.391 0,34.063 7.863,62.61 24.77,89.833 14.918,24.053 34.936,43.908 56.127,64.948 39.095,38.779 83.392,82.754 102.267,164.244 0.587,2.547 2.84,4.342 5.465,4.342 2.626,0 4.884,-1.795 5.463,-4.35 18.877,-81.488 63.201,-125.446 102.275,-164.236 21.189,-21.021 41.2,-40.896 56.116,-64.948 16.926,-27.228 24.789,-55.775 24.789,-89.833 -0.016,-50.386 -19.645,-97.76 -55.258,-133.391 z M 99.99,179.607 c -81.031,0 -146.962,-65.925 -146.962,-146.978 0,-81.054 65.924,-146.973 146.962,-146.973 81.043,0 146.978,65.935 146.978,146.978 0,81.044 -65.935,146.973 -146.978,146.973 z" /><path
       id="path7"
       d="m 158.035,46.658 c 1.003,1.229 1.534,2.754 1.534,4.382 0,3.854 -3.137,6.984 -6.979,6.984 -0.231,0 -0.441,-0.016 -0.642,-0.037 -0.073,-0.005 -0.11,-0.005 -0.187,-0.017 -0.135,-0.016 -0.318,-0.042 -0.453,-0.07 -0.076,-0.016 -0.113,-0.021 -0.2,-0.037 -0.176,-0.043 -0.376,-0.092 -0.561,-0.146 -0.031,-0.016 -0.104,-0.028 -0.113,-0.043 -0.149,-0.059 -0.334,-0.108 -0.474,-0.172 -0.07,-0.028 -0.118,-0.07 -0.21,-0.085 -0.103,-0.061 -0.231,-0.113 -0.34,-0.179 -0.097,-0.026 -0.134,-0.075 -0.2,-0.108 -2.131,-1.191 -3.589,-3.464 -3.589,-6.089 0,-1.132 0.276,-2.227 0.784,-3.207 l -0.753,-9.421 c -4.416,2.479 -7.387,7.206 -7.387,12.628 0,4.926 2.45,9.275 6.208,11.873 l -4.442,6.376 c -0.694,0.964 -0.926,2.167 -0.705,3.222 0.189,0.804 0.642,1.472 1.273,1.918 0.211,0.146 0.453,0.259 0.685,0.362 4.789,1.751 10.368,1.579 15.716,-0.491 5.334,-2.07 10.229,-5.992 13.758,-11.026 3.532,-5.034 5.506,-10.963 5.632,-16.708 0.126,-5.724 -1.632,-11.021 -4.947,-14.912 -0.155,-0.206 -0.343,-0.383 -0.563,-0.529 -0.61,-0.431 -1.402,-0.636 -2.2,-0.522 -1.095,0.139 -2.137,0.781 -2.811,1.751 l -4.805,6.866 c -1.137,-0.803 -2.371,-1.449 -3.719,-1.896 l 0.69,9.333 z" /><path
       id="path9"
       d="m 158.046,6.145 -98.343,-26.02 0.334,2.173 c 0.265,1.626 -0.275,3.319 -1.389,4.51 l -2.167,2.291 99.131,26.246 2.434,-9.2 z" /><path
       id="path11"
       d="m 57.45,83.308 4.948,0 1.45,-4.744 50.414,0 1.461,4.744 5.579,0 -24.498,-79.626 -3.767,0 C 93.425,3.219 93.7,2.648 93.824,1.953 l -9.717,-2.582 c -0.167,0.506 -0.265,0.376 -0.265,0.932 0,1.298 0.496,2.484 1.316,3.384 l -4.232,0 -23.476,79.621 z m 55.464,-9.169 -47.751,0 11.517,-38.244 24.528,0 11.706,38.244 z M 96.48,20.443 l 3.38,11.021 -21.855,0 3.304,-11.021 15.171,0 z" /><path
       id="path13"
       d="m 37.056,1.364 0,75.988 2.592,0 0,-75.772 0,-0.301 16.147,-17.145 c 0.317,-0.339 0.453,-0.781 0.388,-1.229 l -3.17,-20.098 c -0.08,-0.463 -0.355,-0.862 -0.787,-1.083 -0.221,-0.098 -0.442,-0.151 -0.663,-0.151 -0.242,0 -0.463,0.054 -0.674,0.151 -10.126,5.201 -16.432,15.495 -16.432,26.867 0,4.241 0.841,8.25 2.57,12.121 0.04,0.076 0.029,0.652 0.029,0.652 z m 13.613,-35.834 2.399,15.251 -9.286,-9.296 c 1.919,-2.322 4.22,-4.35 6.887,-5.955 z m -8.357,7.917 8.865,8.915 -13.529,5.048 c 0.249,-5.092 1.893,-9.894 4.664,-13.963 z M 51.5,-15.17 39.185,-2.053 39.05,-2.467 C 38.247,-4.897 37.751,-7.409 37.628,-9.99 L 51.5,-15.17 Z" /><path
       id="path15"
       d="m 152.601,54.112 c 1.689,0 3.068,-1.38 3.068,-3.078 0,-1.089 -0.561,-2.042 -1.418,-2.597 l -2.355,-30.037 -4.005,-1.044 2.474,31.545 c -0.542,0.555 -0.871,1.304 -0.871,2.14 0.004,1.691 1.389,3.071 3.107,3.071 z" /><path
       id="path17"
       d="m 42.171,85.689 0,-4.991 c 0,-0.447 -0.35,-0.829 -0.835,-0.829 l -5.95,0 c -0.474,0 -0.862,0.376 -0.862,0.829 l 0,4.991 -15.475,0 -2.307,6.759 166.516,0 -2.308,-6.759 -138.779,0 z" /></g></svg>