<?xml version="1.0" encoding="UTF-8" standalone="no"?>
<svg
   xmlns:dc="http://purl.org/dc/elements/1.1/"
   xmlns:cc="http://creativecommons.org/ns#"
   xmlns:rdf="http://www.w3.org/1999/02/22-rdf-syntax-ns#"
   xmlns:svg="http://www.w3.org/2000/svg"
   xmlns="http://www.w3.org/2000/svg"
   viewBox="0 0 512 512"
   height="512"
   width="512"
   id="svg6755"
   version="1.1">
  <metadata
     id="metadata6761">
    <rdf:RDF>
      <cc:Work
         rdf:about="">
        <dc:format>image/svg+xml</dc:format>
        <dc:type
           rdf:resource="http://purl.org/dc/dcmitype/StillImage" />
        <dc:title></dc:title>
      </cc:Work>
    </rdf:RDF>
  </metadata>
  <defs
     id="defs6759" />
  <g
     id="g7320">
    <path
       style="fill:#000000;stroke-width:2.77966094"
       d="m 47.4379,501.30508 c 0.81043,-2.67542 7.79494,-34.1235 15.52115,-69.88462 7.72618,-35.76112 14.78807,-67.97044 15.6931,-71.57627 1.59433,-6.35236 1.1179,-6.55606 -15.33386,-6.55606 h -16.9793 v -12.50847 -12.50848 h 19.27033 c 15.9644,0 19.5113,-0.8345 20.67512,-4.8644 2.49938,-8.65459 40.66472,-186.59081 40.66472,-189.58901 0,-1.59638 -2.5017,-2.90252 -5.55933,-2.90252 -4.61784,0 -5.55931,-1.85311 -5.55931,-10.94252 0,-10.24533 0.55982,-10.99804 8.78619,-11.81356 l 8.78618,-0.87104 7.82525,-36.135588 c 4.30389,-19.874576 8.50446,-38.95 9.33457,-42.38983 1.37252,-5.68727 3.14241,-6.254238 19.52418,-6.254238 h 18.01481 v -8.338983 c 0,-8.1536624 0.30888,-8.3389824 13.89831,-8.3389824 13.54167,0 13.8983,0.2106983 13.8983,8.2119804 0,8.19166 0.0459,8.214009 18.50775,9.033898 l 18.50779,0.821918 7.83249,36.135593 c 4.30786,19.874576 8.51167,38.95 9.34179,42.389832 1.14619,4.7496 3.50273,6.25423 9.79533,6.25423 7.81394,0 8.28603,0.63349 8.28603,11.11865 0,9.26553 -0.92655,11.11864 -5.55932,11.11864 -3.05763,0 -5.55933,0.97947 -5.55933,2.17662 0,1.19711 9.38136,45.24815 20.84746,97.89118 11.4661,52.64303 20.84746,96.06864 20.84746,96.50135 0,0.43274 8.75593,0.78678 19.45763,0.78678 h 19.45763 v 12.50848 12.50847 h -16.86528 c -14.74531,0 -16.68835,0.61147 -15.45767,4.86441 0.77418,2.67542 7.73718,34.25932 15.47334,70.18644 7.73613,35.92712 14.71592,68.13644 15.51062,71.57627 1.37535,5.9532 0.63958,6.25424 -15.28602,6.25424 -14.40932,0 -16.73093,-0.71165 -16.73093,-5.1285 0,-2.82069 -2.18898,-7.00828 -4.86441,-9.30578 -5.096,-4.37613 -100.43312,-63.39623 -102.406,-63.39623 -0.62502,0 -1.13637,17.51187 -1.13637,38.91526 v 38.91525 h -13.82197 -13.82198 l -0.77124,-38.97699 -0.77125,-38.97699 -50.0339,30.48782 c -37.40631,22.79328 -51.08619,32.61513 -54.20338,38.91684 -3.92205,7.92882 -5.12906,8.43257 -20.33984,8.48917 -14.12312,0.0525 -15.98383,-0.55571 -14.69684,-4.80426 z m 87.85023,-62.70715 c 22.1678,-13.64491 41.98403,-26.38593 44.0361,-28.31335 3.057,-2.87136 -2.71752,-7.51642 -31.96611,-25.71378 -19.63342,-12.21514 -36.04103,-21.92638 -36.46143,-21.58054 -0.77127,0.63452 -22.86279,100.21918 -22.86279,103.06141 0,0.84188 1.56356,0.59118 3.47458,-0.55707 1.91101,-1.14825 21.61186,-13.25176 43.77965,-26.89667 z m 171.01762,-20.45794 c -5.57558,-25.73124 -10.73842,-48.87161 -11.47296,-51.42309 -1.0891,-3.78301 -8.01511,-0.50801 -37.53529,17.74888 -21.03231,13.00751 -35.16769,23.41996 -33.73658,24.85106 4.1127,4.11271 90.94695,57.47981 91.9488,56.51043 0.5134,-0.49675 -3.62838,-21.95604 -9.20397,-47.68728 z M 188.10169,369.9661 v -16.67797 l -28.49152,0.003 -28.49153,0.003 26.40678,16.48706 c 14.52373,9.06787 27.34492,16.57109 28.49153,16.67383 1.14661,0.10535 2.08474,-7.3156 2.08474,-16.48848 z m 56.5603,1.03014 c 13.99183,-8.60633 25.96089,-16.11141 26.59791,-16.67796 0.63698,-0.56658 -11.55877,-1.03015 -27.1017,-1.03015 h -28.25989 v 16.67797 c 0,9.17288 0.74789,16.67797 1.66198,16.67797 0.91407,0 13.10983,-7.04152 27.1017,-15.64783 z m -56.5603,-64.98138 V 283.7585 l -21.54237,13.51933 c -11.84831,7.43562 -27.72879,17.45099 -35.28997,22.25632 l -13.74759,8.73703 h 35.28997 35.28996 z m 73.66102,6.13938 c -13.75932,-8.82832 -29.70763,-18.92238 -35.44067,-22.43126 l -10.42374,-6.37979 v 22.464 22.46399 l 35.44068,-0.0328 35.44069,-0.0328 -25.01696,-16.05145 z M 163.58964,279.0701 c 11.74376,-7.20352 20.81827,-13.96143 20.16552,-15.01759 -0.65274,-1.05616 -11.10694,-8.21843 -23.23154,-15.91614 l -22.04477,-13.99585 -5.53229,24.13313 c -3.04279,13.27321 -6.44652,29.06322 -7.56385,35.08888 l -2.03152,10.95576 9.44307,-6.07545 c 5.19368,-3.34149 19.0516,-11.96922 30.79538,-19.17274 z m 110.68638,-8.4438 c -3.5282,-16.45296 -7.30676,-30.93518 -8.39683,-32.18278 -2.44179,-2.79459 -44.91621,23.02174 -43.73024,26.57965 1.04007,3.12017 55.83555,38.00174 57.41685,36.55029 0.61881,-0.568 -1.76158,-14.49424 -5.28978,-30.94716 z M 187.2067,226.38182 c -0.7079,-0.7079 -7.32277,-0.90036 -14.69971,-0.42768 l -13.41259,0.85942 13.80874,8.98136 13.80872,8.98139 0.89097,-8.55371 c 0.49002,-4.70452 0.31176,-9.13288 -0.39613,-9.84078 z m 52.31872,4.7513 8.33898,-5.67276 -15.98305,-0.0195 -15.98305,-0.0195 v 9.80019 9.8002 l 7.64407,-4.10912 c 4.20424,-2.26 11.39661,-6.66185 15.98305,-9.78188 z m -51.42373,-33.82569 c 0,-14.10408 -0.05,-14.1852 -6.25424,-10.12547 -3.43983,2.25088 -12.82118,8.13084 -20.84745,13.06657 -8.02627,4.93574 -14.59322,9.49221 -14.59322,10.12547 0,0.63329 9.38135,1.15142 20.84745,1.15142 h 20.84746 z m 69.08734,12.88723 c -1.18875,-1.18872 -28.98039,-19.33221 -37.81615,-24.68789 -2.59932,-1.57554 -3.47458,1.4363 -3.47458,11.95629 v 14.06236 h 21.31075 c 11.72088,0 20.71189,-0.59885 19.97998,-1.33076 z m -4.39826,-38.27941 c -2.24283,-11.0839 -4.95497,-21.0889 -6.02697,-22.23334 -1.07203,-1.14447 -8.5936,2.10862 -16.71458,7.22904 l -14.76542,9.30989 20.45978,12.88351 c 11.2529,7.08591 20.60949,12.90149 20.79242,12.92347 0.1829,0.0222 -1.50241,-9.02867 -3.74523,-20.11257 z m -82.68872,6.00507 c 9.89979,-6.25229 17.99964,-11.75071 17.99964,-12.21872 0,-2.99659 -28.5355,-18.43424 -30.34659,-16.41743 -1.93917,2.15941 -8.56866,31.31819 -8.56866,37.6879 0,3.75718 2.01461,2.88528 20.91561,-9.05175 z m 17.09784,-46.05378 c -0.72608,-0.72608 -6.1363,-0.92444 -12.0227,-0.4408 l -10.70262,0.87934 11.11865,7.70617 11.11864,7.70619 0.90409,-7.26539 c 0.49722,-3.99596 0.31001,-7.85944 -0.41606,-8.58551 z m 42.65631,8.40814 c 6.08249,-4.02517 11.05905,-7.77772 11.05905,-8.33899 0,-0.56124 -5.62881,-1.02044 -12.50846,-1.02044 -12.0452,0 -12.50849,0.30885 -12.50849,8.33899 0,4.58644 0.65226,8.33898 1.44943,8.33898 0.79718,0 6.426,-3.29334 12.50847,-7.31854 z M 188.10169,86.440678 c 0,-21.46357 -0.22654,-22.237289 -6.50682,-22.237289 -5.66698,0 -6.95352,2.062954 -9.96767,15.983051 -1.90349,8.790678 -4.11439,18.797458 -4.91317,22.23729 -1.32514,5.70667 -0.45244,6.25423 9.9677,6.25423 h 11.41996 z m 50.0339,19.798582 c 0,-1.34127 -2.01199,-11.348052 -4.47108,-22.23729 -4.01511,-17.779463 -5.14905,-19.798581 -11.11865,-19.798581 -6.45635,0 -6.64756,0.639656 -6.64756,22.237289 v 22.237282 h 11.11865 c 6.11525,0 11.11864,-1.09741 11.11864,-2.4387 z"
       id="path7308" />
    <g
       aria-label="!"
       style="font-style:normal;font-weight:normal;font-size:620.47375488px;line-height:1.25;font-family:sans-serif;letter-spacing:0px;word-spacing:0px;fill:#000000;fill-opacity:1;stroke:none;stroke-width:15.51184464"
       id="text7312"
       transform="matrix(1.3218025,0,0,0.86952959,-113.8688,-32.9783)">
      <path
         d="M 409.63912,357.47259 H 398.12643 L 371.46545,112.07037 q -1.8178,-15.754216 -1.8178,-23.93429 0,-9.391937 2.72669,-17.269045 2.72669,-7.877108 7.27118,-13.330491 4.84745,-5.453383 10.90677,-8.48304 6.36227,-3.029657 13.63345,-3.029657 14.54236,0 24.23726,11.512697 9.6949,11.512697 9.6949,34.235124 0,3.635589 -0.30297,8.786002 -0.30296,4.84745 -0.90889,11.5127 z m -6.05931,50.2923 q 6.66525,0 12.72456,2.7267 6.36228,2.72669 10.90677,7.27117 4.54448,4.54449 7.27117,10.6038 2.72669,6.05932 2.72669,12.72456 0,6.96821 -2.72669,13.02753 -2.72669,6.05931 -7.27117,10.6038 -4.54449,4.54448 -10.6038,7.27117 -6.05932,2.72669 -13.02753,2.72669 -6.96821,0 -13.02752,-2.72669 -6.05932,-2.72669 -10.6038,-7.27117 -4.54449,-4.54449 -7.27118,-10.6038 -2.72669,-6.05932 -2.72669,-13.02753 0,-6.96821 2.72669,-13.02752 2.72669,-6.05932 7.27118,-10.6038 4.54448,-4.54449 10.6038,-6.96821 6.05931,-2.7267 13.02752,-2.7267 z"
         style="font-style:normal;font-variant:normal;font-weight:normal;font-stretch:normal;font-family:'Mongolian Baiti';-inkscape-font-specification:'Mongolian Baiti';stroke-width:15.51184464"
         id="path7314" />
    </g>
  </g>
</svg>
