<?xml version="1.0" encoding="UTF-8" standalone="no"?>
<svg
   xmlns:dc="http://purl.org/dc/elements/1.1/"
   xmlns:cc="http://creativecommons.org/ns#"
   xmlns:rdf="http://www.w3.org/1999/02/22-rdf-syntax-ns#"
   xmlns:svg="http://www.w3.org/2000/svg"
   xmlns="http://www.w3.org/2000/svg"
   xml:space="preserve"
   enable-background="new 0 0 512 512"
   viewBox="0 0 512 512"
   height="512px"
   width="512px"
   y="0px"
   x="0px"
   id="Layer_1"
   version="1.1"><metadata
     id="metadata3405"><rdf:RDF><cc:Work
         rdf:about=""><dc:format>image/svg+xml</dc:format><dc:type
           rdf:resource="http://purl.org/dc/dcmitype/StillImage" /><dc:title></dc:title></cc:Work></rdf:RDF></metadata><defs
     id="defs3403" /><g
     transform="matrix(0.97656256,0,0,0.97656256,0.28019452,0.41717041)"
     id="g3"><path
       d="M448.478,176.123c-0.877-2.701-2.218-5.232-4.019-7.598c-1.804-2.364-4.046-4.461-6.725-6.297   c-2.679-1.833-5.822-3.28-9.427-4.341c-1.445-0.385-3.988-0.99-7.336-1.811c-2.393-0.585-4.637-1.185-7.165-1.796v-29.811   c2.528,0.676,4.283,1.749,6.161,2.941c4.012,2.549,6.527,6.91,7.264,12.831h19.438c-0.186-5.075-1.307-9.237-3.371-12.977   c-2.268-4.101-5.332-7.62-9.198-10.421c-3.863-2.798-8.492-4.932-13.592-6.332c-2.217-0.607-4.174-1.118-6.702-1.462v-9.413   h-17.981v9.352c-1.966,0.294-4.256,0.69-6.302,1.199c-4.846,1.208-9.102,3.064-12.913,5.573c-3.813,2.511-6.841,5.671-9.161,9.482   c-2.319,3.813-3.459,8.324-3.459,13.535c0,2.703,0.394,5.355,1.168,7.961c0.773,2.606,2.091,5.066,3.946,7.383   c1.854,2.316,4.352,4.416,7.497,6.298c3.143,1.881,6.942,3.402,11.682,4.559c2.612,0.661,5.293,1.28,7.541,1.857v33.721   c-3.092-0.824-6.15-2.088-8.622-3.803c-2.575-1.785-4.514-3.934-5.955-6.734c-1.344-2.604-1.989-5.788-2.081-9.171h-19.309   c0.196,5.921,1.476,11.135,3.842,15.613c2.473,4.682,5.769,8.448,9.893,11.438c4.12,2.993,8.821,5.177,14.384,6.624   c2.497,0.65,5.319,1.116,7.848,1.476v9.966h17.984v-9.739c2.81-0.303,5.328-0.76,8.015-1.377   c5.256-1.204,10.016-3.111,14.138-5.718c4.12-2.604,7.483-5.957,10.007-10.06c2.523-4.101,3.805-9.047,3.805-14.837   C449.774,181.53,449.353,178.826,448.478,176.123L448.478,176.123L448.478,176.123z M395.825,149.743   c-3.372-1.055-6.718-2.563-9.006-4.525c-2.423-2.075-3.562-4.945-3.562-8.613c0-2.605,0.678-4.777,1.968-6.514   c1.287-1.738,2.785-3.113,4.744-4.126c1.733-0.899,3.889-1.568,5.854-2.012L395.825,149.743L395.825,149.743z M429.236,191.975   c-0.827,1.883-2.164,3.547-4.02,4.995c-1.855,1.447-4.423,2.63-7.412,3.547c-1.266,0.388-2.311,0.69-3.998,0.913v-30.202   c2.811,0.739,5.111,1.503,7.4,2.292c2.264,0.773,4.424,2.099,6.332,3.98c1.907,1.882,2.897,4.801,2.897,8.758   C430.433,188.189,430.059,190.093,429.236,191.975L429.236,191.975z"
       id="path5" /><path
       d="M371.414,372.083c-13.194-4.721-32.115-6.362-44.184-9.034c-6.956-1.537-17.081-5.441-20.457-9.44   c-3.375-4.108-1.33-41.982-1.33-41.982s6.24-9.853,9.614-18.475c3.375-8.623,7.057-32.23,7.057-32.23s6.955,0,9.409-12.213   c2.66-13.343,6.752-18.886,6.24-28.842c-0.511-9.237-5.319-9.751-5.83-9.751c-0.511,0,5.013-13.958,5.728-43.519   c0.819-34.999-25.876-69.486-75.994-69.486c-50.117,0-76.71,34.384-75.995,69.384c0.613,29.457,5.727,43.519,5.727,43.519   c-0.512,0-5.318,0.514-5.829,9.751c-0.511,9.956,3.682,15.293,6.24,28.636c2.454,12.215,9.409,12.317,9.409,12.317   s3.682,23.711,7.057,32.331c3.376,8.725,9.615,18.476,9.615,18.476s2.046,37.873-1.33,41.98   c-3.375,4.104-13.501,7.904-20.456,9.442c-12.171,2.669-30.991,4.414-44.185,9.136c-13.195,4.721-53.902,20.63-53.902,53.474   h327.299C425.316,392.713,384.609,376.804,371.414,372.083L371.414,372.083z M261.667,409.237v-0.102H121.236   c2.046-3.078,4.807-5.234,8.387-7.799c7.159-5.236,16.467-10.061,27.718-13.959c6.955-2.464,17.08-4.106,25.979-5.44   c5.83-0.926,11.353-1.745,16.263-2.875c3.477-0.82,21.273-5.131,29.456-14.985c4.602-5.542,5.932-13.034,5.727-33.152   c-0.102-10.266-0.613-19.811-0.613-20.222l-0.205-4.31l-2.352-3.592c-1.534-2.362-5.933-9.752-8.183-15.704   c-1.841-4.823-4.704-19.706-6.136-28.842c0,0,0.409,1.027-0.512-3.797c-0.921-4.826-8.591-4.414-9.614-8.212   c-0.921-3.695-1.841-7.082-4.398-18.68c-2.557-11.599,2.865-11.496,3.989-16.628c0.614-3.182,0-5.85,0-5.953   c-0.306-1.026-4.193-13.753-4.807-38.695c-0.307-13.548,4.705-26.276,14.114-35.822c10.842-11.085,26.593-16.935,45.515-16.935   c19.435,0,34.776,5.85,45.617,16.935c9.408,9.545,14.421,22.273,14.114,35.822c-0.511,24.839-4.397,37.566-4.807,38.695   c0,0.103-0.614,1.745-0.409,5.337c0.205,5.543,6.955,5.645,4.398,17.244c-2.558,11.598-3.479,14.985-4.398,18.68   c-0.922,3.693-8.693,3.387-9.614,8.211c-0.921,4.825-0.511,3.799-0.511,3.799c-1.432,9.136-4.297,24.017-6.138,28.841   c-2.352,5.953-6.749,13.343-8.183,15.703l-2.353,3.594l-0.204,4.31c0,0.411-0.511,9.956-0.614,20.22   c-0.204,20.118,1.125,27.611,5.728,33.152c8.181,9.752,25.978,14.166,29.456,14.987c4.91,1.128,10.433,1.949,16.264,2.873   c8.898,1.334,19.023,2.976,25.98,5.442c11.25,4.002,20.658,8.826,27.717,14.06c3.58,2.567,6.341,4.722,8.387,7.799L261.667,409.237   L261.667,409.237z"
       id="path7" /></g></svg>