<?xml version="1.0" encoding="UTF-8" standalone="no"?>
<svg
   xmlns:dc="http://purl.org/dc/elements/1.1/"
   xmlns:cc="http://creativecommons.org/ns#"
   xmlns:rdf="http://www.w3.org/1999/02/22-rdf-syntax-ns#"
   xmlns:svg="http://www.w3.org/2000/svg"
   xmlns="http://www.w3.org/2000/svg"
   id="svg8"
   version="1.1"
   viewBox="0 0 135.46666 135.46667"
   height="512"
   width="512">
  <defs
     id="defs2" />
  <metadata
     id="metadata5">
    <rdf:RDF>
      <cc:Work
         rdf:about="">
        <dc:format>image/svg+xml</dc:format>
        <dc:type
           rdf:resource="http://purl.org/dc/dcmitype/StillImage" />
        <dc:title></dc:title>
      </cc:Work>
    </rdf:RDF>
  </metadata>
  <g
     transform="translate(0,-161.53332)"
     id="layer1">
    <path
       id="path5058"
       d="m 51.157542,295.94126 c -2.012792,-0.47393 -4.075335,-1.8871 -5.269672,-3.61052 -1.405352,-2.02794 -1.551966,-2.82802 -1.706943,-9.31519 L 44.03718,276.99853 37.104524,276.85 c -7.310914,-0.15664 -8.874584,-0.36076 -12.946773,-1.69007 -9.345523,-3.05067 -16.0426575,-9.66589 -19.0617095,-18.82857 -2.2064338,-6.6964 -2.569744,-16.21409 -0.9287185,-24.3297 2.0567414,-10.17149 7.185198,-17.6943 14.624525,-21.45238 2.294645,-1.15917 24.412825,-13.76725 24.91832,-14.20425 0.424111,-0.36666 0.457818,-1.31639 0.457818,-12.89962 0,-12.91984 0.09286,-14.2986 1.096696,-16.28244 0.751421,-1.48502 2.652738,-3.25736 4.345699,-4.05092 l 1.490259,-0.69855 31.261253,-0.0707 c 21.779207,-0.0492 31.677277,0.0157 32.632857,0.21414 2.71717,0.56409 5.46366,3.0516 6.6294,6.00428 0.2904,0.73554 0.38833,4.492 0.49791,19.09751 l 0.13641,18.18186 2.35447,0.15189 c 2.88797,0.1863 4.3156,0.77714 5.80766,2.4036 1.39575,1.52142 2.02886,3.52519 1.84349,5.83445 -0.23073,2.87456 -1.72807,5.01122 -4.36772,6.23256 -1.13555,0.52542 -1.59529,0.55089 -9.95447,0.55089 -4.82014,0 -9.18846,-0.0906 -9.70735,-0.20103 -0.51887,-0.11055 -1.48114,-0.55717 -2.13836,-0.99248 -4.19,-2.77535 -4.24332,-9.6802 -0.0964,-12.46857 1.73737,-1.16817 2.70133,-1.37735 6.35481,-1.37902 2.65453,-9.9e-4 3.20283,-0.0696 3.33552,-0.41528 0.23867,-0.622 0.18318,-28.18139 -0.0575,-28.56049 -0.16551,-0.26069 -6.86575,-0.31441 -32.631797,-0.26161 l -32.42352,0.0665 -0.06951,7.5695 c -0.03892,4.23995 0.03402,7.67304 0.165868,7.80489 0.139406,0.1394 3.260719,-1.42972 7.656171,-3.84885 4.081449,-2.24632 8.168991,-4.31639 9.083433,-4.60015 4.175532,-1.29577 7.69836,-0.0372 9.064651,3.23838 0.617431,1.48023 0.558623,4.55552 -0.11629,6.08126 -0.683111,1.54429 -2.714881,4.05223 -4.653973,5.7447 -3.741091,3.26527 -13.01444,10.30269 -17.771063,13.48624 l -3.492159,2.33726 0.06644,32.36887 0.06644,32.36889 32.42352,0.0665 c 25.766039,0.0528 32.466279,-9.9e-4 32.631789,-0.26162 0.26182,-0.41235 0.27471,-3.6293 0.016,-4.01733 -0.11471,-0.17211 -1.58305,-0.34871 -3.64142,-0.438 -3.92411,-0.17023 -5.29559,-0.60571 -6.93359,-2.20155 -2.94914,-2.87319 -2.83139,-8.36277 0.23726,-11.06393 2.05695,-1.81056 2.49238,-1.87121 12.80206,-1.78286 8.86679,0.0761 9.1459,0.0942 10.21304,0.66456 4.68474,2.50409 5.40507,9.44342 1.31639,12.68171 -1.40921,1.11612 -2.61722,1.48734 -4.8988,1.50532 -1.07915,0.009 -2.09769,0.10198 -2.26342,0.20769 -0.21115,0.1347 -0.33037,2.30656 -0.39829,7.25569 -0.0917,6.67855 -0.12934,7.13475 -0.69191,8.3715 -0.92574,2.03525 -1.8133,3.16145 -3.29666,4.18305 -2.58291,1.77894 -0.91647,1.69944 -35.076456,1.67377 -17.044567,-0.0128 -31.313111,-0.12751 -31.859477,-0.25618 z m 33.093998,-4.43491 c 3.475521,-0.96525 4.509766,-5.36383 1.797772,-7.64583 -1.244402,-1.04707 -2.648774,-1.39456 -4.013332,-0.99301 -2.03593,0.5991 -3.335522,2.28764 -3.335522,4.33379 0,1.97531 1.112105,3.50595 3.049112,4.19657 1.235274,0.44042 1.297043,0.4431 2.50197,0.10848 z M 93.45163,170.3272 c 0.210531,-0.33386 0.210534,-0.58179 8e-6,-0.91564 -0.265043,-0.42031 -1.079516,-0.4638 -9.939827,-0.5307 -5.308123,-0.0401 -9.903024,-0.0117 -10.210897,0.0632 -0.699252,0.16993 -0.961294,0.80616 -0.605698,1.47061 0.262477,0.49044 0.607715,0.50505 10.36961,0.43886 9.288912,-0.063 10.121233,-0.10514 10.386804,-0.52627 z m 14.25744,86.03564 c -3.0089,-1.07523 -4.73703,-3.6636 -4.73703,-7.09493 0,-3.17981 1.43491,-5.56309 4.11306,-6.83134 1.29911,-0.61519 1.37175,-0.61946 10.60922,-0.622 l 9.30119,-0.003 1.35328,0.67438 c 2.38334,1.18768 3.73474,3.34627 3.91801,6.25828 0.20852,3.31356 -1.34276,6.0098 -4.23166,7.35502 -1.31834,0.61387 -1.40376,0.61888 -10.35484,0.61005 -6.69448,-0.007 -9.26978,-0.0963 -9.97123,-0.3469 z m 0.38708,-17.71342 c -1.43113,-0.41479 -3.31613,-1.88325 -4.14274,-3.2273 -0.7513,-1.22165 -0.79244,-1.43254 -0.79244,-4.06142 0,-2.69526 0.0243,-2.81078 0.87015,-4.12838 1.05621,-1.64543 2.75471,-2.82176 4.63913,-3.21297 0.91596,-0.19015 4.30065,-0.26314 9.72042,-0.20964 8.11871,0.0802 8.34784,0.0969 9.69847,0.70714 3.43279,1.55118 5.01253,5.44687 3.82727,9.4381 -0.30808,1.03738 -0.76686,1.74701 -1.7926,2.77276 -2.14432,2.14433 -2.53262,2.21113 -12.68721,2.18302 -4.68612,-0.013 -8.88933,-0.13058 -9.34045,-0.26131 z"
       style="fill:#000000;stroke-width:0.26160964" />
  </g>
</svg>
