<?xml version="1.0" encoding="UTF-8" standalone="no"?>
<svg
   xmlns:dc="http://purl.org/dc/elements/1.1/"
   xmlns:cc="http://creativecommons.org/ns#"
   xmlns:rdf="http://www.w3.org/1999/02/22-rdf-syntax-ns#"
   xmlns:svg="http://www.w3.org/2000/svg"
   xmlns="http://www.w3.org/2000/svg"
   viewBox="0 0 512 512"
   height="512"
   width="512"
   id="svg5051"
   version="1.1">
  <metadata
     id="metadata5057">
    <rdf:RDF>
      <cc:Work
         rdf:about="">
        <dc:format>image/svg+xml</dc:format>
        <dc:type
           rdf:resource="http://purl.org/dc/dcmitype/StillImage" />
        <dc:title></dc:title>
      </cc:Work>
    </rdf:RDF>
  </metadata>
  <defs
     id="defs5055" />
  <path
     id="path5606"
     d="m 20.354271,474.41247 c -7.1788,-2.07834 -10.278,-10.31181 -6.913,-18.36526 0.7809,-1.86907 9.0484,-17.26712 18.3722,-34.21788 9.3237,-16.95076 33.262,-60.51956 53.1962,-96.81956 19.934199,-36.3 47.619599,-86.7 61.522999,-112 13.9035,-25.3 36.3966,-66.25001 49.9847,-91.00001 13.5882,-24.749998 28.9818,-52.756679 34.2081,-62.237067 5.7819,-10.488244 10.8459,-18.416722 12.9339,-20.25 3.8946,-3.419514 8.0564,-3.906518 12.2077,-1.428528 4.3575,2.601088 -9.5466,-21.011722 120.3672,204.415605 28.3684,49.225 67.6752,117.4 87.3484,151.5 33.1404,57.44288 35.8013,62.40426 36.2018,67.5 0.3617,4.60256 0.063,5.96849 -1.8334,8.37118 -4.7494,6.01895 11.9206,5.63687 -241.6476,5.53863 -137.8608,-0.0534 -234.073599,-0.46408 -235.949199,-1.00711 z M 474.44237,454.63751 c 0.2965,-0.47975 -6.5761,-13.19225 -15.2724,-28.25 -154.4017,-267.3478 -199.6584,-345.666056 -203.5683,-352.28185 -2.2442,-3.797257 -4.5249,-6.893362 -5.0682,-6.880234 -0.5433,0.01313 -5.5243,8.294974 -11.069,18.404103 -18.9819,34.608051 -55.6582,101.371231 -66.9549,121.880241 -11.4938,20.86696 -39.6271,72.07184 -85.984999,156.5 -14.1937,25.85 -29.0431,52.85 -32.9986,60 -13.7775,24.90421 -16.4877,30.18363 -15.8316,30.83972 1.006,1.00596 436.125799,0.79476 436.747999,-0.21198 z m -305.4011,-10.82538 c -9.3962,-4.86636 -10.5833,-15.78163 -2.5344,-23.30236 2.2284,-2.08213 3.6622,-2.5 8.5784,-2.5 5.4601,0 6.1767,0.27401 9.557,3.65426 2.9793,2.97935 3.7315,4.54923 4.0723,8.5 0.9348,10.83494 -10.1958,18.55663 -19.6733,13.6481 z m 159.2209,-0.29696 c -13.1218,-8.00049 -7.0506,-27.0321 8.1971,-25.69567 4.1073,0.36 5.4899,1.03508 8.2187,4.01269 3.7896,4.1351 4.8221,7.31202 3.9271,12.08271 -1.7509,9.33302 -12.4781,14.39547 -20.3429,9.60027 z m -170.7151,-49.2554 c -0.5024,-2.20591 -8.5257,-119.07181 -8.5257,-124.18297 v -2.60197 l 24.75,0.26747 24.75,0.26747 -0.2162,8.5 c -0.2008,7.89707 -2.5683,48.29253 -5.6922,97.12529 -0.7257,11.34391 -1.6323,21.13141 -2.0146,21.75 -0.4677,0.75675 -5.9041,1.12471 -16.617,1.12471 -15.6932,0 -15.9293,-0.0323 -16.4343,-2.25 z m 160.5284,0 c -1.0539,-2.62607 -9.2603,-124.60748 -8.4691,-125.88757 0.2931,-0.47433 11.5314,-0.86243 24.974,-0.86243 h 24.441 v 3.76964 c 0,2.0733 -1.3236,25.1358 -2.9412,51.25 -1.6176,26.1142 -3.2496,52.88036 -3.6266,59.48036 -0.377,6.6 -1.1336,12.5625 -1.6813,13.25 -0.7192,0.90277 -5.2734,1.25 -16.3948,1.25 -15.0351,0 -15.4204,-0.0532 -16.302,-2.25 z m -76.1538,-30.74096 c -4.8464,-2.56149 -9.5961,-8.15697 -10.8193,-12.74591 -2.9435,-11.04226 7.5765,-24.26313 19.3065,-24.26313 10.4675,0 18.6125,9.09004 18.6125,20.7721 0,13.22908 -15.3687,22.43728 -27.0997,16.23694 z m -9.7455,-57.89217 c -1.019,-0.6458 -2.5651,-17.2384 -6.3767,-68.43334 -2.7673,-37.16946 -4.7636,-68.27894 -4.4362,-69.13218 0.8814,-2.29687 57.4133,-2.35281 58.294,-0.0577 0.3152,0.82151 0.063,9.03401 -0.5596,18.25 -7.4781,110.61572 -8.1051,118.65703 -9.3119,119.42308 -1.6968,1.0771 -35.9029,1.03173 -37.6096,-0.0499 z"
     style="fill:#000000" />
</svg>
