<?xml version="1.0" encoding="UTF-8" standalone="no"?>
<svg
   xmlns:dc="http://purl.org/dc/elements/1.1/"
   xmlns:cc="http://creativecommons.org/ns#"
   xmlns:rdf="http://www.w3.org/1999/02/22-rdf-syntax-ns#"
   xmlns:svg="http://www.w3.org/2000/svg"
   xmlns="http://www.w3.org/2000/svg"
   xml:space="preserve"
   enable-background="new 0 0 512 512"
   viewBox="0 0 512 512"
   height="512px"
   width="512px"
   y="0px"
   x="0px"
   id="Layer_1"
   version="1.1"><metadata
     id="metadata3557"><rdf:RDF><cc:Work
         rdf:about=""><dc:format>image/svg+xml</dc:format><dc:type
           rdf:resource="http://purl.org/dc/dcmitype/StillImage" /><dc:title></dc:title></cc:Work></rdf:RDF></metadata><defs
     id="defs3555" /><g
     id="g3535"><path
       id="path3537"
       d="M368.787,143.268v225.519H143.268V143.268H368.787    M379,133H133v246h246V133z"
       stroke-miterlimit="10"
       stroke-width="5"
       stroke="#000000"
       fill="none" /><path
       id="path3539"
       d="M214.981,189.393h123.056v10.213H214.981V189.393z    M214.981,250.894h123.056v10.269H214.981V250.894z M214.981,312.339h123.056v10.323H214.981V312.339z"
       stroke-miterlimit="10"
       stroke-width="5"
       stroke="#000000"
       fill="none" /><path
       id="path3541"
       d="M184.231,184.231   c5.666,0,10.269,4.599,10.269,10.269s-4.603,10.269-10.269,10.269c-5.649,0-10.213-4.599-10.213-10.269   S178.583,184.231,184.231,184.231z"
       stroke-miterlimit="10"
       stroke-width="5"
       stroke="#000000"
       fill="none" /><path
       id="path3543"
       d="M184.231,245.731   c5.666,0,10.269,4.599,10.269,10.269c0,5.643-4.603,10.213-10.269,10.213c-5.649,0-10.213-4.57-10.213-10.213   C174.018,250.331,178.583,245.731,184.231,245.731z"
       stroke-miterlimit="10"
       stroke-width="5"
       stroke="#000000"
       fill="none" /><path
       id="path3545"
       d="M184.231,307.287   c5.666,0,10.269,4.571,10.269,10.213c0,5.643-4.603,10.214-10.269,10.214c-5.649,0-10.213-4.571-10.213-10.214   C174.018,311.858,178.583,307.287,184.231,307.287z"
       stroke-miterlimit="10"
       stroke-width="5"
       stroke="#000000"
       fill="none" /></g><g
     id="g3547"><path
       id="path3549"
       d="M356.307,256c0,55.664-45.014,100.407-100.307,100.407c-55.331,0-100.307-45.014-100.307-100.407   c0-55.331,44.976-100.307,100.307-100.307v51.761l89.086-51.661L256,96.407v40.821c-65.603,0-118.771,53.263-118.771,118.889   c0,65.7,53.169,118.773,118.771,118.773s118.771-52.918,118.771-118.773h-18.465V256z" /><path
       id="path3551"
       d="M256,63C149.391,63,63,149.391,63,256c0,106.609,86.391,193,193,193c106.609,0,193-86.391,193-193   C449,149.391,362.609,63,256,63z M256,432.942c-97.55,0-176.945-79.33-176.945-176.942c0-97.55,79.333-176.945,176.945-176.945   c97.512,0,176.942,79.333,176.942,176.945C432.942,353.512,353.512,432.942,256,432.942z" /></g></svg>