<?xml version="1.0" encoding="UTF-8" standalone="no"?>
<svg
   xmlns:dc="http://purl.org/dc/elements/1.1/"
   xmlns:cc="http://creativecommons.org/ns#"
   xmlns:rdf="http://www.w3.org/1999/02/22-rdf-syntax-ns#"
   xmlns:svg="http://www.w3.org/2000/svg"
   xmlns="http://www.w3.org/2000/svg"
   version="1.1"
   id="Layer_1"
   x="0px"
   y="0px"
   width="512px"
   height="512px"
   viewBox="0 0 512 512"
   enable-background="new 0 0 512 512"
   xml:space="preserve"><metadata
     id="metadata5134"><rdf:RDF><cc:Work
         rdf:about=""><dc:format>image/svg+xml</dc:format><dc:type
           rdf:resource="http://purl.org/dc/dcmitype/StillImage" /><dc:title></dc:title></cc:Work></rdf:RDF></metadata><defs
     id="defs5132" /><g
     id="g6387"
     transform="translate(28.03146,-5.670453)"><path
       style="stroke-width:1.25612044"
       id="path21"
       d="M 393.77645,82.045223 V 441.29569 H 62.160636 V 82.045223 H 393.77645 M 408.84989,65.715656 H 47.08719 V 457.62525 h 361.7627 z" /><path
       id="path6347"
       d="m 343.16016,159.01367 c -21.74254,1.21204 -43.75732,0.16142 -65.60352,0.51367 -35.29427,0 -70.58854,0 -105.88281,0 -2.38492,8.49495 2.7634,9.45666 10,8.33008 54.18025,-0.17456 109.05352,0.34908 162.80078,-0.26172 -0.419,-2.55092 1.53808,-6.8163 -0.81055,-8.57031 -0.16709,-0.0204 -0.33603,-0.0215 -0.5039,-0.0117 z"
       style="stroke-width:1.25612044" /><path
       id="path6345"
       d="m 343.16016,256.99219 c -21.74254,1.21204 -43.75732,0.16142 -65.60352,0.51367 -35.29427,0 -70.58854,0 -105.88281,0 -2.38492,8.49494 2.7634,9.45665 10,8.33008 54.18025,-0.17457 109.05352,0.34907 162.80078,-0.26172 -0.419,-2.55093 1.53808,-6.81631 -0.81055,-8.57031 -0.16709,-0.0204 -0.33603,-0.0215 -0.5039,-0.0117 z"
       style="stroke-width:1.25612044" /><path
       id="path23"
       d="m 343.16016,354.96875 c -21.74254,1.21204 -43.75732,0.16142 -65.60352,0.51367 -35.29427,0 -70.58854,0 -105.88281,0 -2.38492,8.49494 2.7634,9.45666 10,8.33008 54.18025,-0.17457 109.05352,0.34907 162.80078,-0.26172 -0.419,-2.55092 1.53808,-6.81631 -0.81055,-8.57031 -0.16709,-0.0204 -0.33603,-0.0215 -0.5039,-0.0117 z"
       style="stroke-width:1.25612044" /><path
       id="circle25"
       d="m 122.13672,151.36719 c -12.87237,0.26093 -14.50697,21.7972 -2.04297,24.41992 10.50297,2.41151 17.813,-12.42666 10.80859,-20.06055 -2.05601,-2.67583 -5.34097,-4.49833 -8.76562,-4.35937 z"
       style="stroke-width:1.25612044" /><path
       id="circle27"
       d="m 122.13477,249.34375 c -12.84584,0.25828 -14.51302,21.76267 -2.07032,24.41211 10.51983,2.46521 17.87751,-12.46195 10.8086,-20.08789 -2.0551,-2.65729 -5.33116,-4.45993 -8.73828,-4.32422 z"
       style="stroke-width:1.25612044" /><path
       id="circle29"
       d="m 122.13672,347.32227 c -12.83116,0.25709 -14.525,21.73947 -2.08789,24.4082 10.50962,2.47484 17.88598,-12.4132 10.84961,-20.05078 -2.04938,-2.67637 -5.34304,-4.49883 -8.76172,-4.35742 z"
       style="stroke-width:1.25612044" /></g><path
     id="path6311"
     d="M 371.28125,7.9765625 C 310.8738,8.8160393 255.09731,58.542558 248.20377,118.7217 c -2.93121,21.85659 -0.0341,44.44936 8.20443,64.89744 -80.05457,81.0085 -161.975166,160.23467 -240.673693,242.54222 -17.6349897,25.55125 -4.157161,65.90079 25.695181,75.10622 20.646412,7.34925 45.422755,-0.20432 58.499355,-17.78203 76.410587,-75.6567 152.229547,-151.90895 228.358067,-227.85078 51.63501,21.6563 116.68469,3.93389 149.64236,-41.51041 25.47599,-33.51274 33.22331,-79.82712 19.31076,-119.620454 0.0511,-4.943094 -6.07158,-10.803256 -10.32812,-6.0625 -26.75643,27.198454 -53.96141,53.954734 -80.88477,80.986324 -15.05136,-6.17047 -30.3222,-11.81225 -45.17968,-18.44921 -6.29945,-14.83412 -12.41593,-29.75139 -17.99024,-44.875 C 371.39134,76.703066 400.60559,47.975051 429.37109,18.802734 410.76872,11.969923 391.24366,7.0514193 371.28125,7.9765625 Z m 1.06641,17.7363285 c 7.19085,-0.05705 14.42857,1.012169 21.18945,3.503906 -23.46716,24.642287 -48.1139,48.117706 -72.09961,72.246093 8.47392,21.2047 16.94955,42.40872 25.42383,63.61328 21.18453,8.47194 42.36821,16.94601 63.55273,25.41797 24.2779,-24.3725 48.55178,-48.74901 72.82813,-73.12305 11.58943,46.38486 -15.21827,97.06495 -57.31055,117.85938 -31.33654,15.84186 -69.9796,16.07872 -101.24219,-0.36914 -46.60098,45.27252 -91.96732,91.81962 -138.00561,137.67438 -36.75659,36.65665 -73.3691,73.48775 -110.890871,109.33148 C 57.444125,493.7579 29.071183,481.73505 25.908203,459.76758 23.179194,446.843 29.513465,433.44581 39.96346,425.83637 118.31653,345.74737 198.32584,267.3025 277.22461,187.75586 254.17813,144.67346 263.94453,86.242925 301.02404,54.40625 320.50951,36.773378 346.31319,26.011243 372.34766,25.712891 Z"
     style="fill:#000000;stroke-width:0.34275457" /></svg>