<?xml version="1.0" encoding="UTF-8" standalone="no"?>
<svg
   xmlns:dc="http://purl.org/dc/elements/1.1/"
   xmlns:cc="http://creativecommons.org/ns#"
   xmlns:rdf="http://www.w3.org/1999/02/22-rdf-syntax-ns#"
   xmlns:svg="http://www.w3.org/2000/svg"
   xmlns="http://www.w3.org/2000/svg"
   xml:space="preserve"
   enable-background="new 0 0 512 512"
   viewBox="0 0 512 512"
   height="512px"
   width="512px"
   y="0px"
   x="0px"
   id="Layer_1"
   version="1.1"><metadata
     id="metadata5134"><rdf:RDF><cc:Work
         rdf:about=""><dc:format>image/svg+xml</dc:format><dc:type
           rdf:resource="http://purl.org/dc/dcmitype/StillImage" /><dc:title></dc:title></cc:Work></rdf:RDF></metadata><defs
     id="defs5132" /><g
     id="g6444"><g
       id="g6387"
       transform="translate(28.03146,-5.670453)"><path
         style="stroke-width:1.25612044"
         id="path21"
         d="M 393.77645,82.045223 V 441.29569 H 62.160636 V 82.045223 H 393.77645 M 408.84989,65.715656 H 47.08719 V 457.62525 h 361.7627 z" /><path
         id="path6347"
         d="m 343.16016,159.01367 c -21.74254,1.21204 -43.75732,0.16142 -65.60352,0.51367 -35.29427,0 -70.58854,0 -105.88281,0 -2.38492,8.49495 2.7634,9.45666 10,8.33008 54.18025,-0.17456 109.05352,0.34908 162.80078,-0.26172 -0.419,-2.55092 1.53808,-6.8163 -0.81055,-8.57031 -0.16709,-0.0204 -0.33603,-0.0215 -0.5039,-0.0117 z"
         style="stroke-width:1.25612044" /><path
         id="path6345"
         d="m 343.16016,256.99219 c -21.74254,1.21204 -43.75732,0.16142 -65.60352,0.51367 -35.29427,0 -70.58854,0 -105.88281,0 -2.38492,8.49494 2.7634,9.45665 10,8.33008 54.18025,-0.17457 109.05352,0.34907 162.80078,-0.26172 -0.419,-2.55093 1.53808,-6.81631 -0.81055,-8.57031 -0.16709,-0.0204 -0.33603,-0.0215 -0.5039,-0.0117 z"
         style="stroke-width:1.25612044" /><path
         id="path23"
         d="m 343.16016,354.96875 c -21.74254,1.21204 -43.75732,0.16142 -65.60352,0.51367 -35.29427,0 -70.58854,0 -105.88281,0 -2.38492,8.49494 2.7634,9.45666 10,8.33008 54.18025,-0.17457 109.05352,0.34907 162.80078,-0.26172 -0.419,-2.55092 1.53808,-6.81631 -0.81055,-8.57031 -0.16709,-0.0204 -0.33603,-0.0215 -0.5039,-0.0117 z"
         style="stroke-width:1.25612044" /><path
         id="circle25"
         d="m 122.13672,151.36719 c -12.87237,0.26093 -14.50697,21.7972 -2.04297,24.41992 10.50297,2.41151 17.813,-12.42666 10.80859,-20.06055 -2.05601,-2.67583 -5.34097,-4.49833 -8.76562,-4.35937 z"
         style="stroke-width:1.25612044" /><path
         id="circle27"
         d="m 122.13477,249.34375 c -12.84584,0.25828 -14.51302,21.76267 -2.07032,24.41211 10.51983,2.46521 17.87751,-12.46195 10.8086,-20.08789 -2.0551,-2.65729 -5.33116,-4.45993 -8.73828,-4.32422 z"
         style="stroke-width:1.25612044" /><path
         id="circle29"
         d="m 122.13672,347.32227 c -12.83116,0.25709 -14.525,21.73947 -2.08789,24.4082 10.50962,2.47484 17.88598,-12.4132 10.84961,-20.05078 -2.04938,-2.67637 -5.34304,-4.49883 -8.76172,-4.35742 z"
         style="stroke-width:1.25612044" /></g><g
       aria-label="?"
       transform="matrix(1.1491305,0,0,1.1491305,1243.2821,74.559173)"
       style="font-style:normal;font-weight:normal;font-size:40px;line-height:1.25;font-family:sans-serif;letter-spacing:0px;word-spacing:0px;fill:#000000;fill-opacity:1;stroke:none"
       id="flowRoot6397"><path
         d="m -817.80859,184.14401 q -0.375,-9 9.1875,-20.0625 9.5625,-11.0625 27.1875,-25.5 17.625,-14.4375 24.9375,-24.5625 7.3125,-10.125 8.4375,-28.499996 -1.875,-19.5 -15.5625,-32.0625 -13.6875,-12.5625 -35.0625,-17.4375 -21.375,-4.875 -43.5,-4.5 -21.375,-0.375 -39.75,3.375 -18.375,3.75 -32.625,10.5 v 38.25 q 4.5,-1.875 15.75,-4.3125 11.25,-2.4375 27,-2.8125 22.5,-1.125 35.8125,4.875 13.3125,6 13.6875,22.124996 -0.375,15.75 -10.5,23.8125 -10.125,8.0625 -18.375,14.25 -8.25,6.1875 -14.8125,16.875 -6.5625,10.6875 -8.8125,25.6875 z m -70.6875,39.1875 h 83.625 v 72.1875 h -83.625 z m 11.0625,9.75 v 51.9375 h 62.0625 v -51.9375 z m 69.1875,-37.875 h -76.875 q 1.5,-26.8125 8.8125,-40.875 7.3125,-14.25 16.6875,-21.1875 9.5625,-7.125 17.625,-13.5 8.25,-6.375 8.25,-16.125 0,-9.749996 -9.75,-12.749996 -9.75,-3 -28.125,-3 -12.9375,0 -28.3125,3.9375 -15.1875,3.75 -25.875,8.812496 V 34.331514 q 22.125,-6.9375 41.4375,-10.5 19.5,-3.5625 42.1875,-3.5625 22.875,0 46.875,5.4375 24,5.25 41.25,19.875 17.25,14.625 17.25,39.9375 0,19.499996 -9.1875,32.437496 -9,12.75 -27.5625,27.75 -18.375,15 -26.625,24.75 -8.0625,9.75 -8.0625,24.75 z"
         style="font-style:normal;font-variant:normal;font-weight:normal;font-stretch:normal;font-size:384px;font-family:'Star Jedi Hollow';-inkscape-font-specification:'Star Jedi Hollow'"
         id="path6431" /></g></g></svg>