<?xml version="1.0" encoding="utf-8"?>
<!-- Generator: Adobe Illustrator 16.0.0, SVG Export Plug-In . SVG Version: 6.00 Build 0)  -->
<!DOCTYPE svg PUBLIC "-//W3C//DTD SVG 1.1//EN" "http://www.w3.org/Graphics/SVG/1.1/DTD/svg11.dtd">
<svg version="1.1"
	 id="Layer_1" xmlns:dc="http://purl.org/dc/elements/1.1/" xmlns:cc="http://creativecommons.org/ns#" xmlns:rdf="http://www.w3.org/1999/02/22-rdf-syntax-ns#" xmlns:svg="http://www.w3.org/2000/svg"
	 xmlns="http://www.w3.org/2000/svg" xmlns:xlink="http://www.w3.org/1999/xlink" x="0px" y="0px" width="512px" height="512px"
	 viewBox="0 0 512 512" enable-background="new 0 0 512 512" xml:space="preserve">
<g id="g3357">
	<rect id="rect5" x="160" y="119.5" width="144" height="13"/>
	<ellipse id="circle7" cx="124" cy="126" rx="12" ry="13"/>
	<ellipse id="circle9" cx="124" cy="204" rx="12" ry="13"/>
	<ellipse id="circle11" cx="124" cy="282" rx="12" ry="13"/>
	<polygon id="polygon13" points="340,61 340,152 352,152 352,48 64,48 64,360 160,360 160,347 76,347 76,61 	"/>
	<path id="path15" d="M436,165v286H172V165H436 M448,152H160v312h288V152z"/>
	<ellipse id="circle17" cx="220" cy="230" rx="12" ry="13"/>
	<ellipse id="circle19" cx="220" cy="308" rx="12" ry="13"/>
	<ellipse id="circle21" cx="220" cy="386" rx="12" ry="13"/>
	<path id="path3368" fill="#990000" d="M278.014,318.244c2.922-1.432,10.613-3.953,25.271-3.953c10.614,0,20.548,4.756,31.114,7.449
		c10.712,2.691,21.813,5.5,33.841,5.5c7.157,0,13.485-1.145,18.843-1.889c2.922-0.402,5.503-0.806,7.791-1.263v-99.355
		c-2.288,0.516-4.918,0.973-7.839,1.433c-5.356,0.803-12.124,2.005-19.331,2.005c-11.248,0-21.424-3.265-31.746-5.843
		c-10.469-2.637-21.279-5.329-32.723-5.329c-22.836,0-30.577,5.787-31.357,6.417l-1.654,1.375v175.562h7.791V318.244
		L278.014,318.244z"/>
</g>
</svg>
