<?xml version="1.0" encoding="utf-8"?>
<!-- Generator: Adobe Illustrator 16.0.0, SVG Export Plug-In . SVG Version: 6.00 Build 0)  -->
<!DOCTYPE svg PUBLIC "-//W3C//DTD SVG 1.1//EN" "http://www.w3.org/Graphics/SVG/1.1/DTD/svg11.dtd">
<svg version="1.1"
	 id="Layer_1" xmlns:dc="http://purl.org/dc/elements/1.1/" xmlns:cc="http://creativecommons.org/ns#" xmlns:rdf="http://www.w3.org/1999/02/22-rdf-syntax-ns#" xmlns:svg="http://www.w3.org/2000/svg"
	 xmlns="http://www.w3.org/2000/svg" xmlns:xlink="http://www.w3.org/1999/xlink" x="0px" y="0px" width="512px" height="512px"
	 viewBox="0 0 512 512" enable-background="new 0 0 512 512" xml:space="preserve">
<g id="g3">
	<rect id="rect5" x="160" y="119.5" width="144" height="13"/>
	<ellipse id="circle7" cx="124" cy="126" rx="12" ry="13"/>
	<ellipse id="circle9" cx="124" cy="204" rx="12" ry="13"/>
	<ellipse id="circle11" cx="124" cy="282" rx="12" ry="13"/>
	<polygon id="polygon13" points="160,347 76,347 76,61 340,61 340,152 352,152 352,48 64,48 64,360 160,360 	"/>
	<g id="g15">
		<g id="g19">
			<path id="path21" d="M436,165v286H172V165H436 M448,152H160v312h288V152z"/>
			<path id="path23" d="M256,223.5h144v13H256V223.5z M256,301.5h144v13H256V301.5z M256,379.5h144v13H256V379.5z"/>
			<ellipse id="circle25" cx="220" cy="230" rx="12" ry="13"/>
			<ellipse id="circle27" cx="220" cy="308" rx="12" ry="13"/>
			<ellipse id="circle29" cx="220" cy="386" rx="12" ry="13"/>
		</g>
	</g>
</g>
</svg>
