<?xml version="1.0" encoding="UTF-8" standalone="no"?>
<svg
   xmlns:dc="http://purl.org/dc/elements/1.1/"
   xmlns:cc="http://creativecommons.org/ns#"
   xmlns:rdf="http://www.w3.org/1999/02/22-rdf-syntax-ns#"
   xmlns:svg="http://www.w3.org/2000/svg"
   xmlns="http://www.w3.org/2000/svg"
   xml:space="preserve"
   enable-background="new 0 0 512 512"
   viewBox="0 0 512 512"
   height="512px"
   width="512px"
   y="0px"
   x="0px"
   id="Layer_1"
   version="1.1"><metadata
     id="metadata3395"><rdf:RDF><cc:Work
         rdf:about=""><dc:format>image/svg+xml</dc:format><dc:type
           rdf:resource="http://purl.org/dc/dcmitype/StillImage" /><dc:title></dc:title></cc:Work></rdf:RDF></metadata><defs
     id="defs3393" /><g
     id="g3"><rect
       height="13"
       width="144"
       y="119.5"
       x="160"
       id="rect5" /><ellipse
       ry="13"
       rx="12"
       cy="126"
       cx="124"
       id="circle7" /><ellipse
       ry="13"
       rx="12"
       cy="204"
       cx="124"
       id="circle9" /><ellipse
       ry="13"
       rx="12"
       cy="282"
       cx="124"
       id="circle11" /><polygon
       points="160,347 76,347 76,61 340,61 340,152 352,152 352,48 64,48 64,360 160,360  "
       id="polygon13" /><g
       id="g15"><rect
         height="312"
         width="288"
         fill="#FFFFFF"
         y="152"
         x="160"
         id="rect17" /><g
         id="g19"><path
           d="M436,165v286H172V165H436 M448,152H160v312h288V152z"
           id="path21" /><path
           d="M256,223.5h144v13H256V223.5z M256,301.5h144v13H256V301.5z M256,379.5h144v13H256V379.5z"
           id="path23" /><ellipse
           ry="13"
           rx="12"
           cy="230"
           cx="220"
           id="circle25" /><ellipse
           ry="13"
           rx="12"
           cy="308"
           cx="220"
           id="circle27" /><ellipse
           ry="13"
           rx="12"
           cy="386"
           cx="220"
           id="circle29" /></g></g></g></svg>