<?xml version="1.0" encoding="UTF-8" standalone="no"?>
<svg
   xmlns:dc="http://purl.org/dc/elements/1.1/"
   xmlns:cc="http://creativecommons.org/ns#"
   xmlns:rdf="http://www.w3.org/1999/02/22-rdf-syntax-ns#"
   xmlns:svg="http://www.w3.org/2000/svg"
   xmlns="http://www.w3.org/2000/svg"
   xml:space="preserve"
   enable-background="new 0 0 512 512"
   viewBox="0 0 512 512"
   height="512px"
   width="512px"
   y="0px"
   x="0px"
   id="Layer_1"
   version="1.1"><metadata
     id="metadata3354"><rdf:RDF><cc:Work
         rdf:about=""><dc:format>image/svg+xml</dc:format><dc:type
           rdf:resource="http://purl.org/dc/dcmitype/StillImage" /><dc:title></dc:title></cc:Work></rdf:RDF></metadata><defs
     id="defs3352" /><g
     id="g3337"><rect
       height="13"
       width="144"
       y="119.5"
       x="160"
       id="rect5" /><ellipse
       ry="13"
       rx="12"
       cy="126"
       cx="124"
       id="circle7" /><ellipse
       ry="13"
       rx="12"
       cy="204"
       cx="124"
       id="circle9" /><ellipse
       ry="13"
       rx="12"
       cy="282"
       cx="124"
       id="circle11" /><polygon
       points="160,347 76,347 76,61 340,61 340,152 352,152 352,48 64,48 64,360 160,360  "
       id="polygon13" /><path
       d="M436,165v286H172V165H436 M448,152H160v312h288V152z"
       id="path17" /><ellipse
       ry="13"
       rx="12"
       cy="230"
       cx="220"
       id="circle19" /><ellipse
       ry="13"
       rx="12"
       cy="308"
       cx="220"
       id="circle21" /><ellipse
       ry="13"
       rx="12"
       cy="386"
       cx="220"
       id="circle23" /><path
       id="path3348"
       d="M284.582,317.567c2.922-1.432,10.613-3.953,25.271-3.953c10.614,0,20.548,4.756,31.114,7.449   c10.712,2.691,21.813,5.5,33.841,5.5c7.157,0,13.485-1.145,18.843-1.889c2.922-0.402,5.503-0.806,7.791-1.263v-99.355   c-2.288,0.516-4.918,0.973-7.839,1.433c-5.356,0.803-12.124,2.005-19.331,2.005c-11.248,0-21.424-3.265-31.746-5.843   c-10.469-2.637-21.279-5.329-32.723-5.329c-22.836,0-30.577,5.787-31.357,6.417l-1.654,1.375v175.562h7.791V317.567   L284.582,317.567z" /></g></svg>