<?xml version="1.0" encoding="utf-8"?>
<!-- Generator: Adobe Illustrator 16.2.0, SVG Export Plug-In . SVG Version: 6.00 Build 0)  -->
<!DOCTYPE svg PUBLIC "-//W3C//DTD SVG 1.1//EN" "http://www.w3.org/Graphics/SVG/1.1/DTD/svg11.dtd">
<svg version="1.1" id="Layer_1" xmlns="http://www.w3.org/2000/svg" xmlns:xlink="http://www.w3.org/1999/xlink" x="0px" y="0px"
	 width="512px" height="512px" viewBox="5 0 512 512" enable-background="new 5 0 512 512" xml:space="preserve">
<g>
	<path d="M389,42.667V0h-21.333v42.667H154.333V0H133v42.667H5V512h512V42.667H389z M495.667,490.667H26.333v-320h469.333V490.667z
		 M495.667,149.333H26.333V64H133v42.667h21.333V64h213.333v42.667H389V64h106.667V149.333z"/>
	<path d="M325.735,377.401c-9.378-3.265-19.519-3.474-28.896-6.737c-2.848-0.973-8.474-2.153-9.654-5.418
		c-1.111-3.194-1.111-6.946-1.32-10.279c-0.139-2.64-0.207-5.278-0.207-7.919c0-1.736,4.445-5.417,5.417-7.015
		c3.751-6.251,4.099-14.655,4.793-21.74c6.043,1.667,6.807-9.516,7.849-12.92c0.764-2.361,5.418-18.614-1.806-16.391
		c1.736-3.057,2.431-6.808,2.916-10.211c1.39-8.891,1.946-18.615-0.763-27.297c-5.626-18.059-22.922-28.2-41.188-28.755
		c-18.546-0.625-37.16,8.265-44.106,26.255c-3.334,8.751-3.057,18.268-1.945,27.436c0.486,4.167,1.181,8.82,3.265,12.572
		c-6.737-2.016-3.125,12.293-2.361,14.793c1.111,3.543,2.084,16.254,8.404,14.518c0.556,5.626,1.181,11.391,2.709,16.878
		c1.042,3.682,3.195,6.808,5.695,9.655c1.25,1.389,1.875,1.527,1.806,3.333c-0.07,5.418,0.069,11.253-1.32,16.531
		s-12.989,7.502-17.643,8.475c-12.502,2.569-24.032,3.75-34.451,11.529c-12.155,8.96-18.476,22.921-18.476,37.994h193.093
		C357.547,402.197,345.183,384.139,325.735,377.401C317.955,374.693,333.584,380.11,325.735,377.401L325.735,377.401z
		 M185.361,397.404c3.889-4.098,8.821-7.709,14.169-9.723c7.293-2.779,15.559-2.641,23.129-4.585
		c6.251-1.598,14.031-4.099,18.893-8.613c4.445-4.167,4.931-10.557,5.348-16.322c0.348-4.862,0.278-9.654,0.278-14.516
		c0-3.404-3.959-5.349-5.904-8.058c-3.126-4.237-3.265-10.558-3.89-15.628c-0.277-2.223-0.347-5.071-2.223-6.599
		c-2.084-1.666-3.611-2.57-4.653-5.209c-1.39-3.612-1.876-7.502-2.987-11.252c-0.694-2.432,1.736-4.724,2.709-6.738
		c1.806-3.682-1.32-9.377-1.945-13.197c-1.944-11.391-1.875-23.824,6.321-32.853c16.462-18.198,54.177-12.433,59.595,13.127
		c1.667,7.987,0.625,17.296-1.598,25.074c-0.973,3.335-2.084,5.765-0.14,9.03c2.917,4.723,1.667,7.779,0.278,13.058
		c-1.111,4.376-2.501,6.32-5.834,9.03c-2.778,2.222-2.361,7.778-2.848,10.974c-0.556,3.89-0.903,7.988-3.266,11.252
		c-0.902,1.251-5.834,5.14-5.834,6.459c0,7.641-0.348,15.421,0.973,22.991c1.806,10.766,10.835,13.336,19.865,17.017
		c9.168,3.543,19.795,2.223,28.687,6.599c9.167,4.515,17.989,12.78,20.628,22.991H176.956
		C178.275,405.949,181.471,401.572,185.361,397.404C191.75,390.668,181.263,401.781,185.361,397.404z"/>
	<path d="M183.277,368.511c4.862-2.431,10.141-2.986,15.489-3.542c1.945-0.209,2.848-1.528,1.389-3.404
		c-2.778-3.542-12.363-4.236-16.392-5.834c-2.5-0.972-3.194-1.875-3.403-4.653c-0.069-1.251-0.764-6.808,0.209-7.71
		c0.694-0.694,5.07-0.417,6.042-0.556c3.959-0.486,7.987-1.32,11.738-2.778c1.598-0.625,3.125-1.39,4.515-2.362
		c1.667-1.25-1.25-4.305-2.014-5.973c-2.361-5.209-3.403-10.905-3.75-16.601c-0.695-11.183,1.042-22.436-1.042-33.549
		c-3.125-17.017-16.253-25.56-32.993-25.56c-10.349,0-20.56,3.542-26.324,12.571c-6.39,9.934-6.043,22.297-5.696,33.618
		c0.208,6.46,0.486,12.989-0.417,19.448c-0.416,2.778-1.042,5.487-2.014,8.126c-0.764,2.015-4.654,7.016-3.126,8.058
		c5.765,4.098,15.489,5.487,22.435,4.932c0.208,3.403,0.833,7.779-0.417,10.975c-1.945,5-16.461,6.32-20.837,7.779
		c-12.225,4.098-21.254,14.308-21.254,27.853h55.219c0.903,0,4.376-6.46,5.349-7.502
		C170.844,376.429,176.817,371.775,183.277,368.511C189.528,365.385,173.136,373.65,183.277,368.511L183.277,368.511z
		 M154.59,378.235h-33.965c4.932-8.196,17.295-7.641,25.422-10.558c7.501-2.709,12.294-7.293,13.058-15.281
		c0.069-0.902,0.139-20.281-0.625-20.281c-6.043-0.209-12.363-0.069-18.406-0.973c4.792-15.489,0.208-31.465,2.778-47.092
		c1.876-11.322,9.099-17.573,20.629-17.573c11.044,0,19.239,5.14,21.602,16.253c3.333,16.114-1.39,32.576,3.75,48.551
		c-3.82,0.973-7.849,1.112-11.808,1.251c-1.945,0.068-3.959,0.139-5.904,0.208c-1.25,0.069-0.833,2.223-0.903,3.265
		c-0.695,7.57-3.473,19.517,2.57,25.63C166.121,365.802,158.897,371.567,154.59,378.235L154.59,378.235z M360.881,389.349h55.705
		c0-13.545-9.1-23.824-21.324-27.853c-5.626-1.807-16.462-2.362-20.49-7.225c-2.014-2.431-0.903-8.613-0.694-11.529
		c3.057,0.277,6.39-0.209,9.516-0.626c2.848-0.416,5.626-0.973,8.335-1.944c1.25-0.486,2.5-0.973,3.682-1.667
		c2.709-1.597,1.458-1.875,0.069-4.236c-7.571-12.712-4.167-28.825-4.515-42.786c-0.278-11.6-3.335-24.311-13.892-30.84
		c-9.516-5.903-23.615-6.112-33.825-1.945c-29.451,11.809-12.086,50.844-22.158,73.209c-1.736,3.751-4.236,5.07,0.139,7.293
		c2.432,1.25,5.07,2.084,7.711,2.709c4.028,0.973,8.195,1.528,12.363,1.667c0.695,0,0.208,8.752,0,9.654
		c-0.765,3.404-8.196,4.376-10.975,5.141c-2.848,0.764-7.571,0.972-8.96,3.959c-2.084,4.445,6.876,3.334,9.099,3.751
		c7.154,1.32,13.476,5.278,19.031,9.793C353.795,379.208,359.353,383.931,360.881,389.349L360.881,389.349z M360.604,370.525
		c-3.543-3.265-7.225-6.461-11.323-9.029c6.113-6.113,3.265-17.99,2.57-25.63c-0.416-4.376-1.389-3.266-5.765-3.404
		c-4.167-0.139-8.891,0.07-12.85-1.25c5.001-15.489,0.902-31.395,3.473-47.161c1.945-11.878,10.071-17.713,21.879-17.713
		c10.697,0,18.06,5.35,20.282,15.976c3.403,16.045-1.807,32.646,3.126,48.621c-5.904,0.903-12.017,0.694-17.99,0.903
		c-1.458,0.068-1.319,17.434-1.181,18.961c0.485,8.127,4.237,13.059,11.946,16.184c8.405,3.403,21.532,2.501,26.672,11.044h-31.048
		C365.465,378.096,364.214,373.789,360.604,370.525C357.13,367.33,363.381,373.025,360.604,370.525L360.604,370.525z"/>
</g>
</svg>
