<?xml version="1.0" encoding="UTF-8" standalone="no"?>
<svg
   xmlns:dc="http://purl.org/dc/elements/1.1/"
   xmlns:cc="http://creativecommons.org/ns#"
   xmlns:rdf="http://www.w3.org/1999/02/22-rdf-syntax-ns#"
   xmlns:svg="http://www.w3.org/2000/svg"
   xmlns="http://www.w3.org/2000/svg"
   id="svg4487"
   version="1.1"
   viewBox="0 0 512 512"
   height="512"
   width="512">
  <metadata
     id="metadata4493">
    <rdf:RDF>
      <cc:Work
         rdf:about="">
        <dc:format>image/svg+xml</dc:format>
        <dc:type
           rdf:resource="http://purl.org/dc/dcmitype/StillImage" />
        <dc:title></dc:title>
      </cc:Work>
    </rdf:RDF>
  </metadata>
  <defs
     id="defs4491" />
  <path
     id="path4485"
     d="M464 144v288H48V144h416m16-16H32v320h448V128zM72 96h368v16H72zM104 64h304v16H104z" />
  <g
     id="g4709"
     style="display:inline"
     transform="matrix(0.5,0,0,0.5,128.00861,155.49943)">
    <path
       style="fill:#000000;stroke-width:1.12162614"
       d="m 247.29311,94.392716 c -7.80213,-4.757017 -10.55086,-15.63637 -5.88435,-23.290055 8.89559,-14.589923 31.4032,-8.352324 31.4032,8.702855 0,9.569898 -7.2461,16.816006 -16.816,16.816006 -3.06225,0 -6.485,-0.876562 -8.70285,-2.228806 z"
       id="path4591" />
    <path
       style="fill:#000000;stroke-width:1.12162614"
       d="m 334.39526,117.63806 c -10.37734,-6.93252 -10.17293,-22.303828 0.3847,-28.931629 2.87469,-1.804662 5.04532,-2.205577 10.16189,-1.876906 5.71861,0.367354 6.99951,0.911118 10.57974,4.49136 3.58025,3.580231 4.12401,4.861128 4.49136,10.579755 0.32868,5.11657 -0.0723,7.28719 -1.8769,10.16189 -5.06297,8.06497 -16.12534,10.66296 -23.74079,5.57553 z"
       id="path4589" />
    <path
       style="fill:#000000;stroke-width:1.12162614"
       d="m 159.80626,118.01351 c -5.995,-3.76447 -8.31387,-8.53799 -7.82729,-16.11287 0.36736,-5.718627 0.91113,-6.999524 4.49136,-10.579755 3.58023,-3.580242 4.86114,-4.124006 10.57976,-4.49136 7.59407,-0.487819 12.40824,1.860507 16.04623,7.82729 4.22646,6.931945 1.98424,17.628325 -4.72645,22.547315 -4.52264,3.31514 -13.9206,3.72488 -18.56361,0.80938 z"
       id="path4587" />
    <path
       style="fill:#000000;stroke-width:1.12162614"
       d="m 95.89081,182.27207 c -7.930771,-3.90971 -11.361883,-16.82813 -6.288498,-23.67672 8.096538,-10.92959 22.876448,-10.72672 29.256398,0.40158 4.55543,7.94586 2.34011,17.37517 -5.3087,22.59617 -4.44896,3.03681 -12.26667,3.33739 -17.6592,0.67897 z"
       id="path4585" />
    <path
       style="fill:#000000;stroke-width:1.12162614"
       d="m 431.23981,269.36641 c -10.83362,-6.60534 -10.83362,-22.56906 0,-29.17439 4.79903,-2.92602 12.60668,-2.92602 17.40571,0 14.58992,8.89558 8.35232,31.4032 -8.70286,31.4032 -3.06225,0 -6.485,-0.87657 -8.70285,-2.22881 z"
       id="path4583" />
    <path
       style="fill:#000000;stroke-width:1.12162614"
       d="m 251.34679,271.20958 c -5.32316,-1.67755 -102.31813,-57.61134 -106.4048,-61.36013 -10.8345,-9.93872 -2.68931,-29.09757 12.37054,-29.09757 4.40104,0 2.81315,-0.84369 54.11665,28.75366 23.91449,13.79641 43.96364,25.08441 44.5537,25.08441 0.59004,0 33.51576,-18.73658 73.16824,-41.63684 47.66163,-27.52572 73.49796,-41.82754 76.23379,-42.19958 5.74421,-0.78112 9.19473,0.30118 13.77145,4.31962 7.12513,6.25594 7.61416,17.23409 1.05964,23.78859 -2.44378,2.44379 -146.43069,86.41252 -155.9612,90.95177 -5.06542,2.41259 -8.50276,2.78435 -12.90801,1.39607 z"
       id="path4581" />
    <path
       style="fill:#000000;stroke-width:1.12162614"
       d="m 77.096586,271.6538 c -8.260649,-1.92991 -13.330096,-8.42545 -13.330096,-17.08 0,-17.17851 24.111546,-22.78895 31.945433,-7.43329 6.529657,12.7992 -4.814503,27.73756 -18.615337,24.51329 z"
       id="path4579" />
    <path
       style="fill:#000000;stroke-width:1.12162614"
       d="m 96.725042,357.75192 c -6.328921,-3.24408 -10.751033,-11.07448 -9.629711,-17.05166 3.02967,-16.14953 21.519139,-20.25262 31.432109,-6.97524 3.20424,4.29172 3.20424,13.91198 0,18.20371 -5.86842,7.86012 -13.73139,9.96024 -21.802398,5.82319 z"
       id="path4577" />
    <path
       style="fill:#000000;stroke-width:1.12162614"
       d="m 160.32968,421.80071 c -12.63274,-6.66694 -11.44016,-25.66666 1.93159,-30.77339 6.1967,-2.36655 11.5843,-1.5589 16.34976,2.45097 9.91698,8.3446 8.59682,22.90064 -2.56714,28.30501 -6.0293,2.91875 -10.20791,2.92336 -15.71421,0.0174 z"
       id="path4575" />
    <path
       style="fill:#000000;stroke-width:1.12162614"
       d="m 248.18483,445.17527 c -15.68619,-8.04347 -9.87235,-31.55653 7.80269,-31.55653 17.64189,0 23.436,23.2842 7.84568,31.52857 -6.06279,3.20607 -9.43872,3.2121 -15.64837,0.0279 z"
       id="path4571" />
    <path
       style="fill:#000000;stroke-width:1.12162614"
       d="M 254.27539,12.667969 C 163.7008,12.424051 74.624904,68.270022 36.931273,151.32077 1.2194902,226.16957 6.620723,319.42745 53.390339,388.2821 91.860138,446.9773 157.04533,488.24505 226.85156,495.625 c 4.88652,-0.4661 12.91042,2.92178 14.70703,-3.83008 2.06938,-4.56982 -1.58839,-8.87982 -6.21178,-8.77591 -16.62055,-3.29838 -33.61434,-5.01848 -49.63783,-10.88034 C 111.78006,448.58785 51.743696,384.99013 34.301561,309.14483 17.522497,240.63566 34.132739,164.39864 79.877929,110.3675 122.82524,58.067444 189.83012,25.071422 257.94726,27.517565 c 57.22038,-0.998272 113.72517,22.497958 154.81128,62.043584 42.41784,40.005161 69.20178,96.562051 71.0931,155.029801 2.33665,51.89668 -13.53408,104.34002 -44.16219,146.27819 -3.41752,6.01099 3.49428,14.69093 9.72461,9.62891 5.91321,-5.33574 8.95032,-13.12613 13.78516,-19.39063 49.11335,-79.62317 46.79026,-187.80035 -7.82076,-264.15906 C 415.10047,58.453767 348.10805,18.992276 277.06994,13.554641 c -7.62625,-0.660954 -15.15935,-0.94408 -22.79455,-0.886672 z"
       id="path4569" />
    <g
       id="g4693"
       transform="matrix(1.1530182,0,0,1.1530182,-61.870262,-77.938532)">
      <path
         id="path4573"
         d="m 356.04696,430.2164 c -17.3809,-8.66127 -33.8547,-41.37805 -32.51221,-64.56886 0.94165,-16.26659 10.75236,-30.90869 25.19641,-37.60465 21.97913,-10.18904 48.24215,-0.98899 58.88381,20.62729 7.92616,16.10032 4.42602,40.96407 -8.69089,61.73689 -12.66553,20.05799 -28.08369,27.18121 -42.87712,19.80933 z"
         style="fill:#000000;stroke-width:1.12162614" />
      <path
         id="path4495"
         d="m 287.87083,508.30168 c -1.2841,-0.51949 -3.68158,-2.54514 -5.32772,-4.50147 -4.77305,-5.67243 -4.23728,-12.48215 1.67909,-21.342 5.57478,-8.3483 13.73504,-14.64705 29.40095,-22.69407 8.36004,-4.29427 13.27281,-7.75795 19.04272,-13.42576 l 7.776,-7.63844 5.16576,3.27888 c 14.22895,9.03159 31.06901,8.91491 44.77754,-0.31025 l 5.57452,-3.75137 3.45576,4.49635 c 4.65367,6.05496 12.60879,11.86483 26.82624,19.59203 24.19337,13.14911 35.2758,28.9226 28.32752,40.31817 -4.49216,7.36739 -0.83298,7.072 -86.63534,6.99352 -42.75056,-0.0392 -78.77893,-0.49613 -80.06304,-1.01559 z"
         style="fill:#000000;stroke-width:1.12162614" />
    </g>
  </g>
</svg>
