<?xml version="1.0" encoding="iso-8859-1"?>
<!-- Generator: Adobe Illustrator 18.1.1, SVG Export Plug-In . SVG Version: 6.00 Build 0)  -->
<svg version="1.1" id="Capa_1" xmlns="http://www.w3.org/2000/svg" xmlns:xlink="http://www.w3.org/1999/xlink" x="0px" y="0px"
	 viewBox="0 0 25.937 25.937" style="enable-background:new 0 0 25.937 25.937;" xml:space="preserve">
<g>
	<path style="fill:#030104;" d="M15.794,25.937h-5.552c-0.092,0-0.169-0.073-0.169-0.165v-8.7c-0.76-0.727-1.74-1.695-2.594-2.74
		c-1.03-1.286-2.22-3.043-2.244-5.255v-2.83H2.274c-0.069,0-0.127-0.036-0.156-0.097C2.091,6.09,2.102,6.022,2.143,5.97l4.993-5.905
		C7.164,0.023,7.212,0,7.261,0l0,0c0.05,0,0.099,0.023,0.128,0.064l4.953,5.876c0.047,0.029,0.074,0.082,0.074,0.136
		c0,0.099-0.082,0.179-0.172,0.17c-0.003,0-0.003,0-0.005,0H9.356v2.829c0,0.354,0.126,0.943,0.716,1.833
		c0.479,0.734,1.226,1.592,2.284,2.634c0.198,0.199,0.403,0.399,0.611,0.599c0.21-0.198,0.416-0.399,0.616-0.599
		c1.04-1.02,1.807-1.909,2.28-2.634c0.59-0.89,0.716-1.477,0.716-1.814V6.246h-2.882c-0.064,0-0.126-0.036-0.151-0.097
		c-0.03-0.06-0.02-0.127,0.02-0.18l4.976-5.905C18.579,0.023,18.625,0,18.674,0l0,0c0.053,0,0.097,0.023,0.128,0.064l4.991,5.906
		c0.043,0.053,0.054,0.12,0.027,0.18c-0.03,0.061-0.089,0.097-0.155,0.097H20.7v2.829c-0.022,2.213-1.211,3.97-2.241,5.256
		c-0.65,0.794-1.421,1.612-2.497,2.644v8.797C15.962,25.863,15.887,25.937,15.794,25.937z"/>
</g>
<g>
</g>
<g>
</g>
<g>
</g>
<g>
</g>
<g>
</g>
<g>
</g>
<g>
</g>
<g>
</g>
<g>
</g>
<g>
</g>
<g>
</g>
<g>
</g>
<g>
</g>
<g>
</g>
<g>
</g>
</svg>
