<?xml version="1.0" encoding="UTF-8" standalone="no"?>
<svg
   xmlns:dc="http://purl.org/dc/elements/1.1/"
   xmlns:cc="http://creativecommons.org/ns#"
   xmlns:rdf="http://www.w3.org/1999/02/22-rdf-syntax-ns#"
   xmlns:svg="http://www.w3.org/2000/svg"
   xmlns="http://www.w3.org/2000/svg"
   id="svg6309"
   version="1.1"
   viewBox="0 0 135.46666 135.46667"
   height="512"
   width="512">
  <defs
     id="defs6303" />
  <metadata
     id="metadata6306">
    <rdf:RDF>
      <cc:Work
         rdf:about="">
        <dc:format>image/svg+xml</dc:format>
        <dc:type
           rdf:resource="http://purl.org/dc/dcmitype/StillImage" />
        <dc:title></dc:title>
      </cc:Work>
    </rdf:RDF>
  </metadata>
  <g
     transform="translate(0,-161.53332)"
     id="layer1">
    <path
       id="path8615"
       d="m 19.668644,295.50761 c -1.41823,-0.86475 -1.50127,-1.18301 -1.62395,-6.22436 l -0.11116,-4.56824 -1.22279,-0.25646 c -0.67254,-0.14106 -1.4944,-0.26612 -1.82638,-0.27791 -0.35322,-0.0125 -0.69903,-0.19981 -0.83371,-0.45148 -0.31023,-0.57965 -0.31023,-11.4552 0,-12.03485 0.22656,-0.42333 1.0619,-0.43003 53.56242,-0.43003 29.332743,0 53.490526,0.0608 53.683936,0.13495 0.30903,0.11858 0.35167,0.88525 0.35167,6.32131 0,5.6999 -0.0306,6.19538 -0.38907,6.30097 -0.21398,0.063 -1.03937,0.22863 -1.83419,0.36798 -0.79481,0.13935 -1.57017,0.35688 -1.72302,0.48341 -0.20502,0.16971 -0.27813,1.37455 -0.27874,4.59376 -8.4e-4,4.91348 -0.14745,5.46267 -1.64827,6.17836 -0.72102,0.34383 -1.1052,0.32559 -7.00894,-0.33279 -3.74553,-0.41771 -6.49825,-0.82697 -6.87593,-1.02227 -1.24092,-0.64171 -1.46331,-1.28322 -1.58515,-4.57261 l -0.11116,-3.0014 H 67.845754 35.497304 l -0.11116,3.0014 c -0.12111,3.26987 -0.3466,3.93213 -1.55087,4.55488 -0.47813,0.24725 -11.65282,1.67266 -13.08768,1.66942 -0.20266,-4.4e-4 -0.68819,-0.19577 -1.07895,-0.43404 z m -5.53152,-26.76384 c -0.20011,-0.52149 1.24523,-8.18641 1.9353,-10.26324 1.62384,-4.88713 5.14223,-9.06065 9.4202,-11.17428 1.75491,-0.86705 2.69389,-1.15918 4.74557,-1.4764 l 1.70189,-0.26315 v -38.6593 -38.65931 l -1.44513,-0.58732 -1.44511,-0.58731 -0.0636,-2.29023 c -0.0555,-1.99981 -0.0197,-2.27334 0.28327,-2.15708 0.19082,0.0732 1.87023,0.59579 3.73204,1.16126 1.8618,0.56546 3.56018,1.12146 3.77417,1.23552 0.35916,0.19146 0.38907,0.80418 0.38907,7.96788 0,4.26826 0.0847,7.81285 0.18831,7.87686 0.10357,0.064 0.47875,-0.19039 0.83373,-0.56532 1.69247,-1.78763 4.88595,-3.61062 7.17489,-4.09579 2.17829,-0.46171 42.78988,-0.46171 44.96816,0 2.28895,0.48517 5.482429,2.30816 7.174903,4.09579 0.35498,0.37493 0.73016,0.62933 0.833725,0.56532 0.103566,-0.064 0.188309,-3.6086 0.188309,-7.87686 0,-7.16391 0.02991,-7.77637 0.38907,-7.9673 0.213987,-0.11375 1.939799,-0.68107 3.835119,-1.2607 1.89533,-0.57962 3.57475,-1.10244 3.73204,-1.16183 0.22403,-0.0846 0.2722,0.38752 0.22233,2.17929 l -0.0637,2.28724 -1.44512,0.57689 -1.44512,0.57688 v 38.67271 38.67271 l 1.70189,0.26315 c 2.06203,0.31882 3.00091,0.61229 4.74557,1.48332 4.60371,2.29841 8.27859,6.80856 9.75399,11.97095 0.45365,1.5873 1.71666,9.32096 1.56287,9.56979 -0.0636,0.10291 -24.224143,0.18711 -53.690096,0.18711 -44.51403,0 -53.59375,-0.0503 -53.68853,-0.29725 z m 79.720795,-4.81625 v -0.66698 H 67.949944 c -22.82422,0 -25.92321,0.0397 -26.03595,0.33348 -0.0704,0.18343 -0.0704,0.48356 0,0.66698 0.11274,0.2938 3.21173,0.33349 26.03595,0.33349 h 25.907975 z m -57.016565,-0.32339 c 0.49846,-0.49846 0.54572,-0.71877 0.54572,-2.54435 0,-1.79224 -0.0555,-2.06307 -0.53656,-2.62244 l -0.53657,-0.62379 h -8.33314 c -10.06827,0 -9.26913,-0.2653 -9.26913,3.07711 0,1.98366 0.0534,2.28691 0.4834,2.74462 l 0.48341,0.51456 h 8.30858 8.30859 z m 79.693836,0.10106 c 0.38779,-0.3878 0.44464,-0.74109 0.44464,-2.76294 0,-3.47936 0.66676,-3.23986 -9.01971,-3.23986 -4.89194,0 -8.077051,0.087 -8.455878,0.23106 -1.012421,0.38492 -1.185066,0.82182 -1.19273,3.01826 -0.0059,1.72018 0.0626,2.11509 0.453714,2.61233 l 0.460788,0.5858 h 8.432266 c 8.13582,0 8.44788,-0.0156 8.87691,-0.44465 z M 93.746757,258.92517 V 258.2582 H 67.845754 41.944764 l -0.075,0.53067 c -0.0413,0.29187 0.0588,0.61573 0.22232,0.71969 0.16356,0.10396 11.85277,0.1653 25.97603,0.13631 l 25.678683,-0.0527 z m 0.07033,-5.05792 0.07033,-0.61139 H 67.860504 41.833594 v 0.51876 c 0,0.28532 0.0671,0.58587 0.14913,0.6679 0.082,0.082 11.76249,0.12372 25.95658,0.0926 l 25.807448,-0.0565 z m 0.04084,-5.05792 v -0.66698 H 67.845754 41.833594 v 0.51876 c 0,0.28532 0.0667,0.58547 0.14822,0.66698 0.0815,0.0815 11.78698,0.14822 26.01216,0.14822 h 25.863944 z m -0.04084,-5.05792 -0.07033,-0.61139 H 67.845754 41.944764 l -0.0703,0.61139 -0.0703,0.61141 h 26.04169 26.041696 z m -0.07033,-5.05792 v -0.66697 H 67.848794 c -24.80662,0 -25.90121,0.017 -25.97537,0.40206 -0.21304,1.10619 -1.71779,1.04904 26.02129,0.9884 l 25.852043,-0.0565 z m 0.07033,-5.05792 0.07033,-0.61139 H 67.860504 41.833594 v 0.51876 c 0,0.28532 0.0671,0.58587 0.14913,0.6679 0.082,0.082 11.76249,0.12371 25.95658,0.0926 l 25.807448,-0.0566 z m 0.04084,-5.05884 v -0.6679 l -25.956583,0.0566 -25.95657,0.0565 -0.0703,0.6114 -0.0703,0.61139 h 26.02693 26.026926 z m -0.04084,-5.05699 -0.07033,-0.61141 H 67.845754 41.944764 l -0.0703,0.61141 -0.0703,0.61139 h 26.04169 26.041696 z m -55.369213,-5.938 c 1.9924,-1.31374 13.15768,-2.87909 22.56308,-3.16331 3.18498,-0.0962 4.6841,-0.22271 4.838,-0.40814 0.1435,-0.1729 0.20232,-3.66781 0.16501,-9.80303 l -0.058,-9.53434 -14.21473,-0.0572 c -11.2246,-0.0452 -14.25207,0.002 -14.39221,0.22233 -0.21322,0.33586 -0.24846,22.92973 -0.036,23.1421 0.20965,0.20965 0.2164,0.20728 1.13493,-0.39836 z m 60.078892,-11.2367 V 194.56175 H 84.210514 c -12.84946,0 -14.33008,0.036 -14.4512,0.35168 -0.19401,0.50559 -0.1603,18.60911 0.0352,18.90149 0.10319,0.15433 1.7253,0.29734 4.40477,0.38835 6.42181,0.21812 11.80879,0.80967 18.65816,2.04884 3.458892,0.62578 4.126879,0.83269 4.687234,1.45188 0.984464,1.08781 0.982086,1.11537 0.982086,-11.35895 z m -75.702052,6.40986 c -0.97596,-0.5786 -0.98602,-0.65873 -0.9934,-7.91056 -0.009,-8.75979 -0.38777,-8.15078 4.98991,-8.02144 4.25013,0.10221 3.89607,-0.63181 3.89607,8.07702 0,6.51251 -0.027,6.98733 -0.42451,7.47888 -0.40731,0.5036 -0.55809,0.52718 -3.72396,0.58228 -2.24155,0.039 -3.44203,-0.0271 -3.74411,-0.20618 z m 83.586906,0.0484 c -1.09545,-0.44402 -1.10391,-0.50505 -1.10391,-7.95678 v -6.98835 l 0.6238,-0.53657 c 0.5969,-0.51343 0.76166,-0.53656 3.82273,-0.53656 3.06106,0 3.22581,0.0231 3.82272,0.53656 l 0.6238,0.53657 v 7.04178 7.04177 l -0.6238,0.53657 c -0.59581,0.51249 -0.76039,0.53593 -3.66838,0.52246 -1.67452,-0.008 -3.24816,-0.0966 -3.49696,-0.19745 z"
       style="fill:#000000;stroke-width:0.22232616" />
  </g>
</svg>
