<?xml version="1.0" encoding="UTF-8" standalone="no"?>
<svg
   xmlns:dc="http://purl.org/dc/elements/1.1/"
   xmlns:cc="http://creativecommons.org/ns#"
   xmlns:rdf="http://www.w3.org/1999/02/22-rdf-syntax-ns#"
   xmlns:svg="http://www.w3.org/2000/svg"
   xmlns="http://www.w3.org/2000/svg"
   viewBox="0 0 512 512"
   height="512"
   width="512"
   id="svg4485"
   version="1.1">
  <metadata
     id="metadata4491">
    <rdf:RDF>
      <cc:Work
         rdf:about="">
        <dc:format>image/svg+xml</dc:format>
        <dc:type
           rdf:resource="http://purl.org/dc/dcmitype/StillImage" />
        <dc:title></dc:title>
      </cc:Work>
    </rdf:RDF>
  </metadata>
  <defs
     id="defs4489" />
  <path
     id="path4495"
     d="m 287.87083,508.30168 c -1.2841,-0.51949 -3.68158,-2.54514 -5.32772,-4.50147 -4.77305,-5.67243 -4.23728,-12.48215 1.67909,-21.342 5.57478,-8.3483 13.73504,-14.64705 29.40095,-22.69407 8.36004,-4.29427 13.27281,-7.75795 19.04272,-13.42576 l 7.776,-7.63844 5.16576,3.27888 c 14.22895,9.03159 31.06901,8.91491 44.77754,-0.31025 l 5.57452,-3.75137 3.45576,4.49635 c 4.65367,6.05496 12.60879,11.86483 26.82624,19.59203 24.19337,13.14911 35.2758,28.9226 28.32752,40.31817 -4.49216,7.36739 -0.83298,7.072 -86.63534,6.99352 -42.75056,-0.0392 -78.77893,-0.49613 -80.06304,-1.01559 z m -57.67227,-1.92477 C 116.01154,493.93695 25.764683,408.75719 6.3980472,295.14212 3.9288881,280.65669 2.9785342,244.96395 4.6658414,230.08503 10.309315,180.32022 29.06972,134.50681 59.21483,96.874977 116.1618,25.784868 208.36816,-9.1276649 298.61776,6.2286756 362.44049,17.088383 420.36945,52.562168 458.26784,103.99313 c 35.37754,48.01 51.59783,99.85236 49.77945,159.10235 -0.99863,32.53954 -6.87146,59.9553 -19.13917,89.34602 -9.975,23.89788 -26.77651,51.68896 -34.36456,56.84172 -6.74488,4.58022 -16.21142,3.0501 -22.45228,-3.62907 -2.42243,-2.59256 -2.79855,-4.01912 -2.76352,-10.48161 0.0401,-7.38671 0.13724,-7.62143 7.74193,-18.69688 40.52394,-59.019 48.37528,-139.02934 20.19677,-205.81841 -10.6385,-25.2155 -24.7153,-46.30959 -44.75847,-67.07058 -29.51036,-30.567262 -63.07951,-50.048821 -103.63571,-60.144085 -20.33104,-5.060823 -26.45115,-5.700497 -53.99794,-5.643889 -24.22187,0.0498 -27.50887,0.298588 -40.55489,3.069892 -46.37373,9.850939 -83.59088,30.23976 -115.364595,63.200652 -77.583937,80.48273 -81.771273,205.81197 -9.743488,291.62813 34.547223,41.16065 82.664173,67.5887 137.443873,75.49054 10.37979,1.49726 16.07561,2.85298 17.98942,4.28184 7.68551,5.73806 9.68293,13.51979 5.53276,21.55506 -3.7647,7.28895 -10.40125,10.39552 -19.97886,9.3521 z m 17.98627,-61.20164 c -15.68619,-8.04347 -9.87235,-31.55653 7.80269,-31.55653 17.64189,0 23.436,23.2842 7.84568,31.52857 -6.06279,3.20607 -9.43872,3.2121 -15.64837,0.0279 z M 356.04696,430.2164 c -17.3809,-8.66127 -33.8547,-41.37805 -32.51221,-64.56886 0.94165,-16.26659 10.75236,-30.90869 25.19641,-37.60465 21.97913,-10.18904 48.24215,-0.98899 58.88381,20.62729 7.92616,16.10032 4.42602,40.96407 -8.69089,61.73689 -12.66553,20.05799 -28.08369,27.18121 -42.87712,19.80933 z m -195.71728,-8.41569 c -12.63274,-6.66694 -11.44016,-25.66666 1.93159,-30.77339 6.1967,-2.36655 11.5843,-1.5589 16.34976,2.45097 9.91698,8.3446 8.59682,22.90064 -2.56714,28.30501 -6.0293,2.91875 -10.20791,2.92336 -15.71421,0.0174 z M 96.72504,357.75192 c -6.328921,-3.24408 -10.751033,-11.07448 -9.629711,-17.05166 3.02967,-16.14953 21.519141,-20.25262 31.432111,-6.97524 3.20424,4.29172 3.20424,13.91198 0,18.20371 -5.86842,7.86012 -13.73139,9.96024 -21.8024,5.82319 z M 77.096584,271.6538 c -8.260649,-1.92991 -13.330096,-8.42545 -13.330096,-17.08 0,-17.17851 24.111546,-22.78895 31.945433,-7.43329 6.529659,12.7992 -4.814503,27.73756 -18.615337,24.51329 z m 174.250206,-0.44422 c -5.32316,-1.67755 -102.31813,-57.61134 -106.4048,-61.36013 -10.8345,-9.93872 -2.68931,-29.09757 12.37054,-29.09757 4.40104,0 2.81315,-0.84369 54.11665,28.75366 23.91449,13.79641 43.96364,25.08441 44.5537,25.08441 0.59004,0 33.51576,-18.73658 73.16824,-41.63684 47.66163,-27.52572 73.49796,-41.82754 76.23379,-42.19958 5.74421,-0.78112 9.19473,0.30118 13.77145,4.31962 7.12513,6.25594 7.61416,17.23409 1.05964,23.78859 -2.44378,2.44379 -146.43069,86.41252 -155.9612,90.95177 -5.06542,2.41259 -8.50276,2.78435 -12.90801,1.39607 z m 179.89302,-1.84317 c -10.83362,-6.60534 -10.83362,-22.56906 0,-29.17439 4.79903,-2.92602 12.60668,-2.92602 17.40571,0 14.58992,8.89558 8.35232,31.4032 -8.70286,31.4032 -3.06225,0 -6.485,-0.87657 -8.70285,-2.22881 z M 95.890808,182.27207 c -7.930771,-3.90971 -11.361883,-16.82813 -6.288498,-23.67672 8.096538,-10.92959 22.87645,-10.72672 29.2564,0.40158 4.55543,7.94586 2.34011,17.37517 -5.3087,22.59617 -4.44896,3.03681 -12.26667,3.33739 -17.659202,0.67897 z m 63.915452,-64.25856 c -5.995,-3.76447 -8.31387,-8.53799 -7.82729,-16.11287 0.36736,-5.718626 0.91113,-6.999523 4.49136,-10.579755 3.58023,-3.580242 4.86114,-4.124006 10.57976,-4.49136 7.59407,-0.487819 12.40824,1.860507 16.04623,7.827291 4.22646,6.931944 1.98424,17.628324 -4.72645,22.547314 -4.52264,3.31514 -13.9206,3.72488 -18.56361,0.80938 z m 174.589,-0.37545 c -10.37734,-6.93252 -10.17293,-22.303827 0.3847,-28.931629 2.87469,-1.804662 5.04532,-2.205577 10.16189,-1.876906 5.71861,0.367354 6.99951,0.911118 10.57974,4.49136 3.58025,3.580232 4.12401,4.861129 4.49136,10.579755 0.32868,5.11657 -0.0723,7.28719 -1.8769,10.16189 -5.06297,8.06497 -16.12534,10.66296 -23.74079,5.57553 z M 247.29311,94.392717 c -7.80213,-4.757018 -10.55086,-15.636371 -5.88435,-23.290056 8.89559,-14.589923 31.4032,-8.352324 31.4032,8.702855 0,9.569898 -7.2461,16.816007 -16.816,16.816007 -3.06225,0 -6.485,-0.876562 -8.70285,-2.228806 z"
     style="fill:#000000;stroke-width:1.12162614" />
</svg>
