<?xml version="1.0" encoding="utf-8"?>
<!-- Generator: Adobe Illustrator 16.0.3, SVG Export Plug-In . SVG Version: 6.00 Build 0)  -->
<!DOCTYPE svg PUBLIC "-//W3C//DTD SVG 1.1//EN" "http://www.w3.org/Graphics/SVG/1.1/DTD/svg11.dtd">
<svg version="1.1" id="Layer_1" xmlns="http://www.w3.org/2000/svg" xmlns:xlink="http://www.w3.org/1999/xlink" x="0px" y="0px"
	 width="108.511px" height="143.499px" viewBox="0 0 108.511 143.499" enable-background="new 0 0 108.511 143.499"
	 xml:space="preserve">
<g>
	<path fill="#D2D3D3" d="M68.537,48.752c-4.216,0.476-7.341,4.01-7.419,8.14c3.078-0.485,6.421-0.974,10.263-1.592
		c1.984-0.204,4.002-0.511,6.014-0.912C76.167,50.735,72.521,48.303,68.537,48.752z"/>
	<path fill="#747474" d="M40.807,61.987c7.295-2.818,13.068-3.953,20.311-5.095c1-1.085,3.759-3.481,7.976-3.958
		c3.984-0.45,6.975,0.684,8.301,1.454c7.959-1.593,15.816-4.707,21.156-9.106c0.854,0.342,1.848,0.301,2.699-0.203
		c1.36-0.807,1.867-2.5,1.223-3.904c0.184-0.254,0.36-0.51,0.527-0.768c0.633-0.984,1.401-1.896,2.402-2.5
		c1.789-1.081,3.449-3.936,3.049-7.092c-0.381-3.012-2.688-5.39-4.521-6.478c-0.854-0.507-1.664-1.097-2.269-1.886
		c-0.396-0.516-0.823-1.007-1.272-1.479c-3.053-1.066-9.799-4.065-14.131-5.1c-4.582-1.094-11.283-1.983-15.466-2.827
		c-1.721,0.173-3.442,0.432-5.153,0.763c-4.067,1.653-8.631,10.814-20.207,16.903c-13.129,6.907-20.993,8.069-27.62,12.208
		c-2.47,3.082-4.694,6.328-6.67,9.703c-0.996,2.912,2.685,8.916,6.116,10.297C22.866,65.175,36.474,62.577,40.807,61.987z"/>
	<path fill="#747474" d="M74.996,48.28c0,0,6.682,12.355,4.068,21.545c-1.48,5.209-6.904,8.232-12.113,6.752L74.996,48.28z"/>
	<path fill="#D2D3D3" d="M74.261,19.159c0,0-8.117-15.103-19.242-18.604c-6.306-1.984-13.026,1.519-15.011,7.824L74.261,19.159z"/>
	<path fill="#D2D3D3" d="M40.598,61.86c0,0,2.385,8.67-0.569,14.024c-1.675,3.034-5.494,4.138-8.529,2.463L40.598,61.86z"/>
	<path fill="#747474" d="M3.972,143.499c0,0,10.17-2.828,11.068-10.407c0.394-3.331-0.294-6.146-1.491-8.472
		c-0.002-0.004,0-0.006,0.004-0.002c2.361,1.519,4.888,2.639,7.254,2.691c7.626,0.17,10.678-10.814,10.678-10.814L4.312,115.89
		c-0.001,0-0.003-0.001-0.003-0.002c0.476-8.288,2.408-16.64,5.804-24.297c-0.377-2.687-1.856-5.083-3.386-6.106
		c-1.759-1.176-4.718-1.846-6.247-0.591c-1.22,11.173-0.133,22.681,3.489,33.781L3.972,143.499z"/>
	<path fill="#D2D3D3" d="M41.583,48.429c16.515-1.863,28.752-13.563,27.334-26.131c-0.351-3.101-1.499-5.963-3.278-8.491
		c-8.426,1.631-16.583,5.01-23.059,8.502c-9.863,5.317-18.177,12.384-24.768,20.609C23.854,47.247,32.413,49.463,41.583,48.429z"/>
	<path fill="#E6E6E5" d="M10.113,91.591C15.601,79.215,24.91,68.65,38.069,63.093c0.94-0.396,1.849-0.763,2.738-1.106
		c-4.312-7.398-13.479-11.951-23.477-10.822c-2.172,0.244-4.246,0.744-6.188,1.457c-5.789,9.89-9.42,20.906-10.661,32.271
		C2.943,87.855,6.273,90.172,10.113,91.591z"/>
	<path fill="#E6E6E5" d="M93.523,22.686c2.425-0.274,4.728-0.863,6.861-1.714c0.002-0.001,0.002-0.003,0.002-0.004
		c-5.908-6.193-16.31-8.643-27.004-8.122c-0.861,0.042-1.724,0.11-2.586,0.196c-0.002,0-0.004,0.003-0.002,0.004
		C75.36,19.741,84.069,23.752,93.523,22.686z"/>
	<path fill="#515151" d="M96.312,26.267c0-0.099,0.051-0.195,0.142-0.249c0.771-0.457,1.671-0.585,2.538-0.364
		c0.867,0.222,1.596,0.768,2.051,1.537c0.942,1.59,0.415,3.648-1.173,4.59c-0.138,0.082-0.315,0.036-0.397-0.102
		c-0.082-0.137-0.035-0.315,0.103-0.396c1.313-0.779,1.75-2.482,0.97-3.796c-0.377-0.637-0.98-1.088-1.697-1.271
		c-0.717-0.184-1.461-0.077-2.098,0.301c-0.138,0.082-0.316,0.036-0.396-0.102C96.325,26.369,96.312,26.318,96.312,26.267z"/>
	<path fill="#747474" d="M18.993,56.968c1.298,1.073,1.48,2.995,0.407,4.294c-1.074,1.298-2.996,1.48-4.294,0.406
		c-1.298-1.073-1.48-2.996-0.407-4.295C15.772,56.077,17.695,55.894,18.993,56.968z"/>
	<path fill="#747474" d="M20.417,65.426c0.621,0.551,0.679,1.502,0.128,2.124c-0.551,0.622-1.502,0.68-2.124,0.128
		c-0.622-0.551-0.679-1.502-0.128-2.124C18.844,64.932,19.795,64.875,20.417,65.426z"/>
	<path fill="#747474" d="M61.992,29.968c1.298,1.073,1.48,2.996,0.406,4.294c-1.073,1.298-2.995,1.48-4.293,0.406
		c-1.299-1.073-1.48-2.996-0.406-4.293C58.771,29.076,60.694,28.894,61.992,29.968z"/>
	<path fill="#747474" d="M49.17,32.954c0.918,0.751,1.053,2.105,0.301,3.023c-0.752,0.917-2.105,1.052-3.023,0.301
		c-0.918-0.752-1.053-2.105-0.301-3.023S48.251,32.203,49.17,32.954z"/>
	<path fill="#747474" d="M56.792,36.816c1.05,0.859,1.203,2.406,0.345,3.455c-0.859,1.05-2.407,1.203-3.456,0.345
		c-1.049-0.859-1.203-2.407-0.344-3.456C54.196,36.111,55.743,35.957,56.792,36.816z"/>
	<path fill="#747474" d="M41.575,39.25c0.586,0.524,0.637,1.424,0.113,2.011c-0.524,0.586-1.424,0.637-2.011,0.112
		c-0.586-0.523-0.637-1.424-0.113-2.01C40.088,38.777,40.988,38.726,41.575,39.25z"/>
</g>
</svg>
