<?xml version="1.0" encoding="utf-8"?>
<!-- Generator: Adobe Illustrator 16.0.3, SVG Export Plug-In . SVG Version: 6.00 Build 0)  -->
<!DOCTYPE svg PUBLIC "-//W3C//DTD SVG 1.1//EN" "http://www.w3.org/Graphics/SVG/1.1/DTD/svg11.dtd">
<svg version="1.1" id="Layer_1" xmlns="http://www.w3.org/2000/svg" xmlns:xlink="http://www.w3.org/1999/xlink" x="0px" y="0px"
	 width="624px" height="351.001px" viewBox="0 0 624 351.001" enable-background="new 0 0 624 351.001" xml:space="preserve">
<g>
	<path fill="#515151" d="M181.968,127.373c0,50.161-40.663,90.825-90.825,90.825c-50.16,0-90.826-40.664-90.826-90.825
		c0-50.162,40.664-90.826,90.826-90.826C141.303,36.547,181.968,77.211,181.968,127.373z"/>
	<path fill="#515151" d="M75.091,43.471c0,50.162,40.664,90.825,90.826,90.825c50.161,0,90.825-40.664,90.825-90.825
		c0-15.748-4.01-30.559-11.061-43.471H86.152C79.102,12.912,75.091,27.723,75.091,43.471z"/>
	<path fill="#515151" d="M428.017,212.076c0,60.355-48.926,109.281-109.279,109.281c-60.354,0-109.281-48.926-109.281-109.281
		c0-60.354,48.927-109.281,109.281-109.281C379.091,102.795,428.017,151.723,428.017,212.076z"/>
	<path fill="#515151" d="M298.342,267.001c0,41.06-33.283,74.344-74.343,74.344s-74.345-33.284-74.345-74.344
		s33.285-74.343,74.345-74.343S298.342,225.941,298.342,267.001z"/>
	<path fill="#010101" d="M624,346.986V134.529c-9.516-2.676-19.552-4.109-29.923-4.109c-60.938,0-110.337,49.4-110.337,110.337
		c0,59.464,47.04,107.933,105.933,110.243h8.806C607.288,350.655,615.836,349.281,624,346.986z"/>
	<path fill="#302F2F" d="M367.13,246.77c-42.12,0-76.262,34.146-76.262,76.265c0,9.874,1.876,19.309,5.291,27.967H438.1
		c3.416-8.658,5.291-18.093,5.291-27.967C443.391,280.914,409.246,246.77,367.13,246.77z"/>
	<path fill="#302F2F" d="M70.667,193.145c-28.549,0-54.019,13.179-70.667,33.776v114.101c2.875,3.558,6.011,6.896,9.382,9.979
		h122.571c18.152-16.606,29.54-40.485,29.54-67.028C161.493,233.809,120.829,193.145,70.667,193.145z"/>
	<path fill="#515151" d="M350.633,21.904c14.342,14.342,14.342,37.595,0,51.937c-14.342,14.342-37.595,14.342-51.938,0
		c-14.342-14.342-14.342-37.595,0-51.937C313.038,7.562,336.291,7.562,350.633,21.904z"/>
	<path fill="#302F2F" d="M419.243,81.171c0,50.161,40.664,90.825,90.825,90.825c50.159,0,90.822-40.664,90.822-90.825
		c0-35.495-20.362-66.229-50.043-81.171h-81.563C439.605,14.941,419.243,45.676,419.243,81.171z"/>
</g>
</svg>
