<?xml version="1.0" encoding="utf-8"?>
<!-- Generator: Adobe Illustrator 16.0.3, SVG Export Plug-In . SVG Version: 6.00 Build 0)  -->
<!DOCTYPE svg PUBLIC "-//W3C//DTD SVG 1.1//EN" "http://www.w3.org/Graphics/SVG/1.1/DTD/svg11.dtd">
<svg version="1.1" id="Layer_1" xmlns="http://www.w3.org/2000/svg" xmlns:xlink="http://www.w3.org/1999/xlink" x="0px" y="0px"
	 width="624.25px" height="351.125px" viewBox="0 0 624.25 351.125" enable-background="new 0 0 624.25 351.125"
	 xml:space="preserve">
<path fill="#4D4D4D" d="M0.125,0h624v351h-624V0z"/>
<g>
	<g>
		<g>
			<path fill="#302F2F" d="M482.142,114.514l-0.521,0.214l0,0c8.676-19.832-11.313-40.244-31.256-31.804
				c-6.113,2.587-11.803,6.497-16.627,11.729c-16.785,18.2-16.871,46.599-0.188,64.887c18.617,20.407,50.285,20.954,69.609,1.644
				c4.488-4.487,7.908-9.64,10.25-15.141C521.802,126.348,501.966,106.406,482.142,114.514z"/>
			<path fill="#515151" d="M479.974,135.201l28.52,19.654c0.125-0.177,0.248-0.356,0.371-0.535l-29.041-20.012l-2.518-14.813
				l5.07-5.065c0.002-0.003,0-0.007-0.004-0.006c-0.113,0.041-0.572,0.175-0.605,0.145c-0.027-0.031,0.07-0.352,0.17-0.612
				c0.006-0.003-0.004-0.006-0.006-0.003l-5.002,5l-15.82-12.056l-2.287-25.908c-0.215,0.009-0.434,0.023-0.65,0.039l2.232,25.332
				l-21.605-16.464c-0.172,0.14-0.346,0.282-0.518,0.425l38.186,29.095l-2.188,2.186l-21.852,0.001L430.028,99.21
				c-0.131,0.179-0.254,0.359-0.381,0.541l21.855,21.854l-30.088,0.002c-0.027,0.216-0.047,0.433-0.068,0.65l52.279-0.003
				l-11.791,11.785l-40.707-8.668c-0.01,0.22-0.02,0.44-0.021,0.66l40.18,8.556l-26.387,26.369c0.152,0.154,0.303,0.31,0.459,0.462
				l33.586-33.565l-12.695,45.664c0.207,0.058,0.416,0.112,0.627,0.167l13.004-46.765l6.863-6.86l8.885,52.308
				c0.205-0.075,0.414-0.156,0.619-0.234L479.974,135.201z"/>
		</g>
		<g>
			<path fill="#747474" d="M54.17,223.517l0.768,0.322l0,0c-29.677,11.607-30.119,53.66-0.573,65.637
				c9.058,3.672,19.047,5.522,29.516,5.1c36.417-1.473,66.066-30.944,67.735-67.348c1.863-40.621-30.531-74.152-70.743-74.167
				c-9.345-0.004-18.266,1.805-26.431,5.09C25.206,169.917,25.095,211.321,54.17,223.517z"/>
			<path fill="#515151" d="M148.341,202.321l-37.277,21.058l-13.036-0.004l34.217-48.221c-0.223-0.235-0.45-0.467-0.676-0.7
				l-20.054,28.258l-8.484-46.103c-0.343-0.113-0.688-0.225-1.034-0.332l8.746,47.523l-13.891,19.573l-43.037-0.014
				c-0.003,0-0.004,0.004-0.001,0.005c0.19,0.108,0.846,0.474,0.846,0.474s-0.506,0.268-0.878,0.471
				c-0.003,0.002-0.001,0.006,0.002,0.006l10.432,0.004l3.92,29.02l-24.588,29.348c0.234,0.215,0.475,0.426,0.715,0.635
				l24.046-28.698l5.355,39.637c0.325,0.033,0.651,0.066,0.978,0.095l-9.461-70.032l4.552,0.002l22.749,22.745l0.004,46.623
				c0.32-0.053,0.638-0.108,0.957-0.168l-0.004-45.498l31.324,31.32c0.252-0.199,0.499-0.404,0.747-0.606l-54.424-54.419
				l24.543,0.009l33.348,51.394c0.238-0.221,0.476-0.439,0.711-0.664l-32.918-50.729l54.915,0.018
				c0.002-0.316,0.007-0.638,0.005-0.955l-38.695-0.014l35.636-20.128C148.538,202.94,148.44,202.631,148.341,202.321z"/>
		</g>
		<g>
			<path fill="#747474" d="M624.122,35.848c-11.908-9.084-26.777-14.486-42.908-14.492c-9.342-0.004-18.264,1.804-26.428,5.09
				c-29.238,11.766-29.348,53.17-0.273,65.365l0.77,0.322l0,0c-29.676,11.608-30.119,53.66-0.574,65.637
				c9.059,3.672,19.049,5.522,29.52,5.1c14.924-0.604,28.705-5.911,39.896-14.467V35.848H624.122z"/>
			<path fill="#515151" d="M624.122,91.678l-10.777-0.004l10.777-6.087v-1.096l-12.713,7.182l-13.037-0.004l25.75-36.288v-1.654
				L611.86,71.006l-8.486-46.104c-0.342-0.112-0.686-0.224-1.035-0.332l8.748,47.524l-13.891,19.573l-43.037-0.016
				c0.145,0.095,0.775,0.447,0.822,0.473c0.004,0.001,0.004,0.002,0,0.003c-0.039,0.022-0.498,0.276-0.859,0.481l10.438,0.004
				l3.92,29.02l-24.586,29.346c0.232,0.215,0.475,0.426,0.715,0.635l24.047-28.698l5.352,39.637c0.328,0.033,0.654,0.065,0.98,0.095
				l-9.461-70.033l4.553,0.003l22.746,22.745l0.008,46.623c0.318-0.053,0.637-0.109,0.955-0.166l-0.004-45.5l30.338,30.336v-1.354
				l-52.693-52.684l24.545,0.008l28.148,43.38v-1.759l-27.008-41.621l27.008,0.009V91.678z"/>
		</g>
		<g>
			<path fill="#747474" d="M328.21,267.685l-0.521,0.215l0,0c8.68-19.832-11.309-40.244-31.254-31.805
				c-6.114,2.588-11.802,6.497-16.627,11.729c-16.786,18.2-16.871,46.599-0.186,64.887c18.617,20.405,50.286,20.954,69.606,1.646
				c4.49-4.487,7.906-9.642,10.25-15.142C367.868,279.519,348.034,259.577,328.21,267.685z"/>
			<path fill="#515151" d="M326.046,288.373l28.514,19.653c0.129-0.178,0.246-0.356,0.371-0.534l-29.039-20.015l-2.516-14.813
				l5.072-5.072c0.002-0.002,0-0.007-0.004-0.006c-0.121,0.039-0.646,0.199-0.646,0.199s0.174-0.546,0.217-0.668
				c0-0.003-0.004-0.008-0.006-0.003l-5.01,5.008l-15.823-12.056l-2.285-25.906c-0.216,0.009-0.433,0.021-0.649,0.038l2.235,25.336
				l-21.612-16.47c-0.172,0.143-0.344,0.283-0.515,0.427l38.186,29.096l-2.189,2.187l-21.853,0.002l-22.396-22.396
				c-0.128,0.181-0.253,0.359-0.379,0.54l21.858,21.854l-30.091,0.002c-0.025,0.218-0.046,0.434-0.068,0.649l52.281-0.003
				l-11.792,11.785l-40.705-8.668c-0.009,0.22-0.018,0.439-0.023,0.66l40.181,8.556l-26.387,26.369
				c0.153,0.155,0.303,0.312,0.457,0.463l33.588-33.563l-12.697,45.664c0.209,0.058,0.419,0.108,0.629,0.164l13.001-46.764
				l6.865-6.859l8.885,52.308c0.207-0.075,0.412-0.156,0.619-0.233L326.046,288.373z"/>
		</g>
		<g>
			<path fill="#302F2F" d="M496.493,253.946l0.293,0.71l0,0c-26.893-11.771-54.574,15.335-43.131,42.383
				c3.51,8.292,8.811,16.005,15.906,22.549c24.68,22.765,63.191,22.878,87.992,0.253c27.672-25.246,28.414-68.191,2.23-94.395
				c-6.084-6.09-13.076-10.723-20.535-13.902C512.542,200.163,485.499,227.062,496.493,253.946z"/>
			<path fill="#515151" d="M513.257,270.68l-9.482-9.489l71.133-12.082c-0.078-0.207-0.156-0.414-0.234-0.621l-50.375,8.558
				l26.811-38.897c-0.18-0.125-0.357-0.248-0.535-0.369l-27.164,39.42l-20.199,3.43l-6.73-6.736c-0.002-0.003-0.006,0-0.006,0.002
				c0.039,0.125,0.162,0.615,0.162,0.615s-0.498-0.145-0.627-0.184c-0.004-0.002-0.008,0.003-0.004,0.006l6.666,6.674
				l-16.441,21.578l-35.189,3.104c0.008,0.215,0.029,0.434,0.041,0.648l34.619-3.057l-22.51,29.543
				c0.141,0.173,0.279,0.345,0.424,0.516l39.521-51.868l3.092,3.095v29.73l-30.389,30.393c0.182,0.129,0.361,0.254,0.543,0.381
				l29.846-29.854l0.002,41.102c0.219,0.021,0.434,0.041,0.65,0.063l-0.004-71.165l16.225,16.235l-11.766,55.241
				c0.221,0.007,0.439,0.02,0.66,0.025l11.652-54.72l35.906,35.937c0.156-0.154,0.314-0.304,0.467-0.457l-45.824-45.855
				l62.344,17.333c0.059-0.209,0.111-0.42,0.166-0.629L513.257,270.68z"/>
		</g>
		<g>
			<path fill="#302F2F" d="M302.984,45.938l-0.523,0.215l0,0c8.679-19.832-11.308-40.244-31.254-31.805
				c-6.114,2.588-11.802,6.497-16.628,11.729c-16.785,18.2-16.871,46.599-0.186,64.887c18.617,20.407,50.285,20.954,69.607,1.644
				c4.492-4.486,7.908-9.641,10.25-15.141C342.644,57.771,322.81,37.829,302.984,45.938z"/>
			<path fill="#515151" d="M300.817,66.625l28.52,19.654c0.125-0.178,0.244-0.356,0.367-0.535L300.666,65.73l-2.515-14.812
				l5.07-5.065c0.002-0.002,0-0.006-0.004-0.006c-0.112,0.039-0.567,0.159-0.589,0.137c-0.022-0.021,0.052-0.344,0.154-0.604
				c0.001-0.003-0.003-0.006-0.005-0.003l-5.003,5L281.951,38.32l-2.285-25.907c-0.216,0.009-0.432,0.022-0.649,0.039l2.235,25.336
				L259.64,21.32c-0.173,0.141-0.344,0.281-0.515,0.425l38.184,29.096l-2.187,2.187h-21.854l-22.397-22.393
				c-0.128,0.18-0.254,0.359-0.379,0.54l21.858,21.854l-30.092,0.002c-0.025,0.216-0.045,0.433-0.068,0.65l52.282-0.004
				l-11.794,11.785l-40.705-8.667c-0.008,0.22-0.018,0.44-0.023,0.66l40.18,8.556l-26.387,26.367
				c0.152,0.154,0.303,0.311,0.457,0.462l33.588-33.563l-12.696,45.662c0.209,0.059,0.418,0.112,0.628,0.168l13.002-46.765
				l6.865-6.86l8.885,52.309c0.207-0.075,0.413-0.156,0.619-0.234L300.817,66.625z"/>
		</g>
	</g>
	<rect x="0.125" fill="none" width="624" height="12.391"/>
</g>
</svg>
