<svg xmlns="http://www.w3.org/2000/svg" viewBox="0 0 624 351">
<g id="bamboo-tl" class="bamboo-cluster">
	<path fill="#302F2F" d="M32.834,99.477c-0.289,0.027-0.561,0.053-0.561,0.053l-12.383-2.533L0,64.994v2.108l19.197,30.886
		c1.973,6.546,7.633,23.137,18.596,39.74c14.09,21.34,31.604,34.616,31.604,34.616L20.473,98.252l11.34,2.32
		c4.855,2.693,21.477,11.314,42.451,15.605c25.053,5.127,46.824,2.131,46.824,2.131s-18.846-11.306-43.898-16.432
		C57.148,97.777,39.209,98.873,32.834,99.477z"/>
	<path fill="#302F2F" d="M99.111,0H71.918c-5.496,2.904-11.203,6.223-16.912,9.992C27.871,27.908,10.09,49.79,7.168,53.505L0,52.234
		v1.131l6.346,1.125c3.996,2.305,28.695,16.041,60.635,22.576c34.932,7.146,65.287,2.971,65.287,2.971s-26.275-15.764-61.207-22.911
		c-29.092-5.952-55.006-4.05-62.859-3.248l-0.053-0.199c6.223-1.731,32.135-9.576,58.072-26.702
		C79.729,18.058,90.918,8.154,99.111,0z"/>
</g>
<g id="bamboo-bl" class="bamboo-cluster">
	<path fill="#515151" d="M140.785,275.331c0,0-19.502,10.13-36.992,28.786c-17.488,18.654-26.342,38.771-26.342,38.771
		s19.502-10.135,36.99-28.789C131.932,295.445,140.785,275.331,140.785,275.331z"/>
	<path fill="#515151" d="M62.463,285.896c-20.309,21.662-32.264,44.732-35.693,51.84l-0.199-0.055
		c1.785-6.211,8.676-32.393,7.674-63.455c-1.148-35.637-12.252-64.196-12.252-64.196s-9.238,29.216-8.09,64.852
		c1.049,32.493,10.371,59.099,12.006,63.541L14.688,351h1.492l10.131-11.355c4.035-2.185,28.689-16.03,51-39.828
		c24.385-26.012,36.73-54.058,36.73-54.058S86.848,259.885,62.463,285.896z"/>
</g>
<g id="bamboo-tr" class="bamboo-cluster">
	<path fill="#515151" d="M488.229,0.096L483.1,9.127c-3.514,2.996-24.732,21.686-41.59,49.611
		c-18.432,30.54-24.658,60.56-24.658,60.56s23.66-19.497,42.094-50.037c14.902-24.688,21.824-49.032,23.93-57.458l0.375-0.66
		c0.002-0.003,0.006-0.002,0.006,0.002c-0.451,6.525-1.709,33.527,5.736,63.646c8.561,34.631,25.385,60.26,25.385,60.26
		s2.945-30.516-5.619-65.146c-7.797-31.548-22.453-55.623-24.998-59.658l5.756-10.15H488.229z"/>
	<path fill="#515151" d="M437.145,7.867l-5.986,9.91c-4.172,3.684-17.85,16.457-28.906,34.773
		c-13.211,21.893-17.676,43.411-17.676,43.411s16.961-13.976,30.176-35.868c10.881-18.027,15.828-35.798,17.236-41.512l6.539-10.85
		l34.965-7.631c0.008-0.002,0.004-0.007,0-0.007h-5.189l-30.479,6.651c-6.828-0.332-24.359-0.55-43.674,4.225
		c-24.822,6.137-43.195,18.197-43.195,18.197l86.186-21.306C437.141,7.865,437.141,7.865,437.145,7.867z"/>
</g>
</svg>
