<svg xmlns="http://www.w3.org/2000/svg" viewBox="0 0 624 351">
<path id="bubble-0" fill="#747474" d="M127.393,23.658c0,4.039-3.274,7.313-7.313,7.313c-4.039,0-7.313-3.273-7.313-7.313s3.273-7.313,7.313-7.313
	C124.118,16.345,127.393,19.619,127.393,23.658z"/>
<path id="bubble-1" fill="#515151" d="M427.043,313.559c0,4.037-3.273,7.313-7.313,7.313c-4.038,0-7.313-3.273-7.313-7.313
	s3.274-7.313,7.313-7.313C423.77,306.245,427.043,309.52,427.043,313.559z"/>
<path id="bubble-2" fill="#CFD0D0" d="M195.484,330.2c0,4.039-3.273,7.312-7.313,7.312s-7.313-3.271-7.313-7.312s3.273-7.313,7.313-7.313
	S195.484,326.161,195.484,330.2z"/>
<path id="bubble-3" fill="#D2D3D3" d="M238.063,128.034c0,4.038-3.274,7.312-7.313,7.312c-4.039,0-7.313-3.273-7.313-7.312
	c0-4.039,3.273-7.313,7.313-7.313C234.788,120.721,238.063,123.995,238.063,128.034z"/>
<path id="bubble-4" fill="#747474" d="M101.393,37.633c0,6.91-5.603,12.512-12.513,12.512c-6.911,0-12.513-5.602-12.513-12.512
	S81.969,25.12,88.88,25.12C95.79,25.12,101.393,30.723,101.393,37.633z"/>
<path id="bubble-5" fill="#747474" d="M295.092,218.658c0,6.91-5.602,12.512-12.512,12.512c-6.911,0-12.514-5.602-12.514-12.512
	c0-6.911,5.603-12.514,12.514-12.514C289.49,206.145,295.092,211.747,295.092,218.658z"/>
<path id="bubble-6" fill="#302F2F" d="M389.607,61.684c0,7.332-5.942,13.273-13.273,13.273s-13.274-5.943-13.274-13.273
	s5.943-13.273,13.274-13.273S389.607,54.354,389.607,61.684z"/>
<path id="bubble-7" fill="#E6E6E5" d="M108.227,272.928c0,2.246-1.822,4.067-4.067,4.067c-2.246,0-4.067-1.821-4.067-4.067
	s1.821-4.066,4.067-4.066C106.404,268.861,108.227,270.682,108.227,272.928z"/>
<path id="bubble-8" fill="#E6E6E5" d="M87.9,284.313c0,1.614-1.31,2.924-2.924,2.924c-1.615,0-2.926-1.31-2.926-2.924
	c0-1.615,1.311-2.926,2.926-2.926C86.591,281.387,87.9,282.696,87.9,284.313z"/>
<path id="bubble-9" fill="#CFD0D0" d="M81.082,266.968c2.217,0.36,3.723,2.449,3.363,4.666c-0.36,2.218-2.449,3.722-4.666,3.363
	c-2.217-0.36-3.723-2.449-3.363-4.666S78.865,266.607,81.082,266.968z"/>
<path id="bubble-10" fill="#CFD0D0" d="M567.776,144.563c0,2.246-1.821,4.065-4.067,4.065s-4.067-1.819-4.067-4.065s1.821-4.067,4.067-4.067
	S567.776,142.316,567.776,144.563z"/>
<path id="bubble-11" fill="#CFD0D0" d="M587.926,139.361c0,2.246-1.819,4.066-4.065,4.066s-4.067-1.82-4.067-4.066c0-2.245,1.821-4.066,4.067-4.066
	S587.926,137.116,587.926,139.361z"/>
<path id="bubble-12" fill="#747474" d="M567.141,294.22c0,3.96-3.21,7.169-7.169,7.169c-3.96,0-7.169-3.209-7.169-7.169
	c0-3.959,3.209-7.169,7.169-7.169C563.931,287.051,567.141,290.261,567.141,294.22z"/>
<path id="bubble-13" fill="#515151" d="M621.166,296.253c0,4.035-3.271,7.306-7.306,7.306c-4.035,0-7.308-3.271-7.308-7.306
	c0-4.034,3.271-7.305,7.308-7.305C617.895,288.948,621.166,292.219,621.166,296.253z"/>
<path id="bubble-14" fill="#515151" d="M588.347,324.846c0,5.649-4.579,10.229-10.227,10.229c-5.649,0-10.229-4.579-10.229-10.229
	c0-5.647,4.579-10.228,10.229-10.228C583.768,314.618,588.347,319.197,588.347,324.846z"/>
</svg>
