<svg xmlns="http://www.w3.org/2000/svg" viewBox="0 0 375.271 374.525">
<g id="koi01-orbit">
	<g id="koi01-fins">
		<g id="koi01-fin-dorsal">
			<path fill="#139DD4" d="M255.543,68.844c0,0-7.428,12.947-0.801,21.467c2.911,3.745,6.399,5.892,9.916,7.044
				c0.003,0.001,0.003,0.005,0,0.006c-3.888,0.815-7.544,2.201-9.976,4.498c-7.842,7.405-0.002,21.489-0.002,21.489l27.941-26.387
				c0-0.002,0.004-0.002,0.004,0"/>
			<path fill="#515151" d="M282.233,96.536l-0.701-0.738l-18.131,0.989c0.375,0.148,0.752,0.285,1.127,0.412l17.183-0.938
				c0.003,0,0.006,0.005,0.003,0.007l-30.517,15.143c0.006,0.17,0.016,0.342,0.026,0.512L282.233,96.536z"/>
			<path fill="#515151" d="M253.489,72.002l13.109,8.308c0.014,0.009,0.014,0.011,0,0L265.25,78.9l-11.584-7.34
				C253.608,71.702,253.552,71.851,253.489,72.002z"/>
			<path fill="#515151" d="M271.563,85.398l-0.498-0.534l-18.97-1.208c0.021,0.16,0.042,0.318,0.068,0.477L271.563,85.398z"/>
			<path fill="#515151" d="M279.533,93.682l-25.941-5.228c0.097,0.183,0.201,0.365,0.312,0.543l26.332,5.423
				C280.238,94.421,279.533,93.682,279.533,93.682z"/>
			<path fill="#515151" d="M274.552,88.488l-22.176-3.273c0.036,0.166,0.078,0.332,0.124,0.496l22.562,3.332L274.552,88.488z"/>
			<path fill="#515151" d="M251.817,115.684l17.14-5.818l0.866-0.817c0.003-0.002-18.11,6.176-18.11,6.176
				C251.746,115.377,251.782,115.531,251.817,115.684z"/>
		</g>
		<g id="koi01-fin-lower">
			<path fill="#139DD4" d="M282.087,237.063c0,0-23.189-7.073-31.122-21.529c-4.498-8.194-1.502-18.483,6.692-22.981
				L282.087,237.063z"/>
			<path fill="#515151" d="M255.866,193.693l23.38,42.382c0.237,0.089,0.465,0.172,0.676,0.249l-23.67-42.908
				C256.119,193.507,255.993,193.601,255.866,193.693z"/>
			<path fill="#515151" d="M251.322,198.626l28.649,34.674c0.016,0.017,0.019,0.015,0.008-0.004l-1.188-2.17l-27.209-32.925
				C251.494,198.341,251.41,198.484,251.322,198.626z"/>
			<path fill="#515151" d="M250.035,201.24l24.149,32.543l0.379-0.282l-24.317-32.771
				C250.175,200.899,250.103,201.068,250.035,201.24z"/>
		</g>
		<g id="koi01-fin-tail">
			<path fill="#E3E3E3" d="M317.739,260.692c0,0,23.173,7.134,37.843-0.396c8.314-4.269,11.599-14.47,7.332-22.785L317.739,260.692z
				"/>
			<path fill="#515151" d="M323.449,262.094l40.853-20.853c-0.039-0.155-0.075-0.313-0.12-0.47l-41.467,21.166
				C322.952,261.99,323.199,262.042,323.449,262.094z"/>
			<path fill="#515151" d="M319.998,261.308l44.512-13.064c0.032-0.172,0.059-0.345,0.084-0.518l-45.49,13.351
				C319.371,261.146,319.666,261.224,319.998,261.308z"/>
			<path fill="#515151" d="M329.858,263.163l33.801-11.865c0.069-0.188,0.14-0.382,0.205-0.573l-35.035,12.302
				C329.166,263.072,329.511,263.118,329.858,263.163z"/>
		</g>
		<path fill="#E3E3E3" d="M300.563,189.862c0,0-11.015-6.354-13.359-14.678c-1.329-4.718,1.417-9.62,6.136-10.95L300.563,189.862z"
			/>
	</g>
	<g id="koi01-body-group">
		<g id="koi01-orbit-rig">
			<circle fill="none" cx="187.635" cy="187.263" r="187.262"/>
			<g>
				<path fill="none" d="M364.295,240.533l0.014-0.007c-0.039-0.155-0.074-0.313-0.119-0.47l-0.002,0.001
					c-0.304-1.107-0.722-2.199-1.267-3.262l-35.979,18.461c4.858-8.397,8.481-17.354,10.925-25.321
					c4.641-15.148,5.983-30.521,4.443-45.345c-0.001,0-0.002,0-0.002,0s0-0.001,0-0.002c-0.574-5.596-1.553-10.996-2.926-16.395
					c0-0.001,0-0.002,0.001-0.003c-4.001-15.698-11.291-30.389-21.33-43.057c-0.001,0-0.003,0-0.003,0
					c-0.001,0-0.001-0.002-0.001-0.002c-9.866-12.448-22.393-22.945-37.059-30.519l-24.668-24.979c0,0-0.663,1.159-1.415,3.006
					l-0.003-0.002c-0.059,0.143-0.115,0.291-0.178,0.441l0.004,0.002c-1.131,2.892-2.355,7.217-1.827,11.482l-0.009-0.001
					c0.021,0.148,0.041,0.298,0.063,0.443c0.058,0.373,0.132,0.745,0.218,1.115h-0.001c0.036,0.166,0.078,0.332,0.124,0.496h0.004
					c0.256,0.937,0.609,1.855,1.088,2.744l0,0c0.002,0.002,0.004,0.004,0.004,0.007c0.053,0.095,0.107,0.189,0.162,0.284
					c0.049,0.084,0.094,0.169,0.146,0.252l0.009,0.002c0.245,0.404,0.51,0.805,0.811,1.192c2.57,3.306,5.59,5.362,8.682,6.594
					h-0.001c0.376,0.148,0.753,0.286,1.127,0.412h0.005c0.034,0.012,0.069,0.025,0.104,0.038c0.004,0.001,0.004,0.005,0,0.006
					c-3.887,0.815-7.543,2.201-9.975,4.498c-2.835,2.677-3.615,6.227-3.463,9.668l-0.003,0.001c0.003,0.082,0.009,0.165,0.015,0.247
					c0.002,0.063,0.006,0.126,0.01,0.188c0.002,0.025,0.002,0.051,0.004,0.076l0.002-0.001c0.08,1.129,0.254,2.241,0.486,3.302l0,0
					c0,0.002,0,0.003,0,0.004c0.01,0.041,0.02,0.08,0.027,0.12c0.023,0.112,0.051,0.227,0.076,0.337l0.003-0.001
					c1.006,4.245,2.84,7.547,2.84,7.547l27.942-26.386c0-0.002,0.004-0.002,0.004,0c7.759,8.813,14.107,19.129,18.299,30.211
					c0,0,0.001,0.001,0.002,0.002c-0.001,0-0.001,0-0.001,0c6.771,17.906,7.898,37.785,0.179,56.447
					c-0.531,1.292-1.068,2.524-1.604,3.717l-6.938-24.611c-4.72,1.329-7.466,6.232-6.137,10.949
					c2.021,7.17,10.466,12.874,12.771,14.318c-2.901,6.362-5.901,11.509-9.281,16.539c-0.005,0.007-0.008,0.017-0.012,0.022
					c-4.063,6.036-8.723,12-14.58,19.999c-0.01,0.014-0.02,0.025-0.029,0.038l-18.414-33.551c-0.486,0.269-0.954,0.56-1.404,0.866
					l-0.001-0.002c-0.007,0.005-0.014,0.01-0.021,0.015c-0.055,0.037-0.104,0.076-0.157,0.113c-0.069,0.05-0.14,0.1-0.208,0.149
					l0.004,0.007c-1.73,1.253-3.177,2.78-4.286,4.503l-0.002-0.002c-0.088,0.14-0.172,0.283-0.26,0.425l0.009,0.011
					c-0.408,0.677-0.77,1.379-1.078,2.104l-0.007-0.01c-0.036,0.087-0.069,0.173-0.106,0.259c-0.027,0.069-0.06,0.139-0.086,0.209
					c-0.006,0.015-0.013,0.027-0.019,0.043l0.002,0.003c-1.753,4.504-1.58,9.722,0.929,14.29c4.305,7.846,13.1,13.512,20.246,17.058
					c-5.975,8.747-10.601,18.741-12.142,27.91c0,0.005-0.004,0.011-0.005,0.016c-1.055,6.24-0.67,12.063,1.681,16.88
					c-1.054,3.771,0.335,8.12,3.813,10.854c3.729,2.928,8.688,3.082,12.158,0.694c4.358,0.885,8.885,0.572,13.403-0.688
					c0.127-0.035,0.38-0.107,0.38-0.107l0.021,0.043c1.104,2.074,3.678,2.863,5.753,1.763c1.834-0.973,2.661-3.095,2.069-5.007
					c6.373-3.332,12.515-8.302,17.914-14.182c2.47-2.687,4.747-5.605,6.837-8.654c0,0,0.003,0.001,0.004,0.001
					c0.019-0.027,0.034-0.057,0.054-0.082c0.099,0.021,0.194,0.041,0.295,0.063l0.002-0.001c1.564,0.322,3.389,0.65,5.382,0.932
					l-0.004,0.001c0.197,0.026,0.401,0.054,0.604,0.08c0.132,0.019,0.261,0.035,0.395,0.054c0.011,0.001,0.021,0.003,0.031,0.004
					h0.001c7.829,0.996,17.965,1.116,25.723-2.865c3.855-1.979,6.611-5.24,8.053-8.991l0.024-0.009
					c0.07-0.188,0.14-0.382,0.205-0.574l-0.013,0.004c0.276-0.809,0.487-1.637,0.641-2.479l0.018-0.005
					c0.032-0.172,0.059-0.345,0.084-0.519l-0.014,0.004C364.906,244.885,364.819,242.688,364.295,240.533z"/>
				<g>
					<line fill="none" x1="187.636" y1="187.263" x2="0" y2="187.263"/>
					<line fill="none" x1="375.271" y1="187.263" x2="187.636" y2="187.263"/>
				</g>
			</g>
		</g>
		<g id="koi01-body">
			<path fill="#139DD4" d="M342.234,185.383c-0.575-5.598-1.555-11-2.929-16.399c-0.103-0.392-2.739-0.599-2.844-0.988
				c-4.013-15.065-9.292-26.843-18.894-39.087c-0.124-0.155,0.525-2.825,0.405-2.979c-9.733-12.282-22.063-22.659-36.477-30.206
				l1.9,2.905c7.729,8.797,14.054,19.082,18.231,30.131c0.115,0.312,2.392,0.882,2.505,1.191c6.461,17.658,8.28,35.311,0.694,53.646
				c-0.332,0.8-1.315,3.055-1.646,3.813c-0.222,0.509-2.81,1.138-3.029,1.632c-2.979,6.617-6.055,11.903-9.531,17.078
				c-0.62,0.924,0.3,4.282-0.352,5.21c-3.621,5.157-7.758,10.007-12.74,16.813c-7.625,9.247-13.047,18.989-15.516,29.813
				c-0.205,0.9-2.871,1.752-3.021,2.639c-1.054,6.24-0.67,12.063,1.681,16.881c-1.054,3.77,0.335,8.119,3.814,10.854
				c3.729,2.928,8.688,3.082,12.158,0.694c4.357,0.885,8.885,0.572,13.402-0.688c0.127-0.035,0.381-0.107,0.381-0.107l0.021,0.043
				c1.104,2.074,3.678,2.863,5.753,1.763c1.834-0.973,2.661-3.095,2.07-5.007c6.373-3.332,12.514-8.301,17.914-14.182
				c2.47-2.688,4.747-5.607,6.838-8.657c0.571-0.839-1.241-3.028-0.695-3.888c5.979-9.385,9.772-18.875,12.567-27.991
				c4.321-14.106,6.175-27.472,5.111-41.341C339.939,187.981,342.335,186.365,342.234,185.383z"/>
			<g>
				<path fill="#E3E3E3" d="M289.103,247.245c10.42-12.9,10.772-30.309,1.584-41.23c-4.066,6.044-8.73,12.013-14.596,20.021
					c-8.268,10.028-15.099,22.901-17.033,34.454C269.677,261.646,281.247,256.971,289.103,247.245z"/>
				<path fill="#E3E3E3" d="M312.902,203.349c-14.768,18.279-15.458,42.211-1.544,53.447c3.432,2.772,7.433,4.514,11.73,5.288
					c6.857-10.014,11.71-21.516,14.76-31.463c4.642-15.147,5.984-30.52,4.444-45.344
					C331.918,186.927,321.104,193.199,312.902,203.349z"/>
				<path fill="#E3E3E3" d="M334.589,176.502c1.944-2.407,3.53-4.974,4.778-7.623c-4.001-15.697-11.291-30.388-21.33-43.056
					c-5.421-0.533-11.073,0.445-16.347,2.83c6.771,17.906,7.897,37.785,0.178,56.447c-0.549,1.334-1.104,2.604-1.654,3.834
					C311.901,192.096,325.648,187.569,334.589,176.502z"/>
				<path fill="#515151" d="M268.926,273.894c-0.468,0-0.936-0.067-1.391-0.209c-1.209-0.371-2.2-1.188-2.792-2.305
					c-0.592-1.115-0.714-2.396-0.344-3.603c0.369-1.207,1.186-2.198,2.304-2.791l0.442,0.836c-0.893,0.474-1.55,1.267-1.846,2.23
					c-0.295,0.969-0.195,1.989,0.277,2.883c0.473,0.893,1.267,1.547,2.232,1.844c0.965,0.296,1.987,0.197,2.883-0.276l0.439,0.835
					C270.444,273.707,269.688,273.894,268.926,273.894z"/>
				<path fill="#010101" d="M334.775,217.963c1.777,1.583,1.938,4.309,0.355,6.089c-1.583,1.78-4.309,1.94-6.089,0.357
					c-1.78-1.582-1.938-4.309-0.356-6.088C330.27,216.541,332.995,216.381,334.775,217.963z"/>
				<path fill="#010101" d="M316.73,211.269c1.777,1.584,1.938,4.31,0.355,6.09c-1.582,1.779-4.308,1.938-6.088,0.356
					c-1.78-1.583-1.938-4.309-0.356-6.089C312.224,209.847,314.95,209.687,316.73,211.269z"/>
				<path fill="#010101" d="M322.479,247.569c1.25,1.117,1.356,3.037,0.239,4.289c-1.116,1.252-3.036,1.357-4.29,0.242
					c-1.251-1.117-1.356-3.039-0.24-4.289C319.305,246.56,321.227,246.452,322.479,247.569z"/>
				<path fill="#010101" d="M321.082,236.653c1.251,1.117,1.36,3.039,0.242,4.289c-1.118,1.252-3.038,1.358-4.289,0.242
					c-1.252-1.117-1.36-3.037-0.242-4.289S319.831,235.536,321.082,236.653z"/>
				<path fill="#010101" d="M332.848,236.521c1.252,1.117,1.359,3.037,0.241,4.289c-1.116,1.252-3.038,1.358-4.289,0.24
					c-1.251-1.115-1.356-3.037-0.241-4.289C329.676,235.51,331.596,235.403,332.848,236.521z"/>
				<path fill="#010101" d="M315.047,227.944c1.432,1.274,1.557,3.472,0.277,4.898c-1.278,1.432-3.473,1.557-4.902,0.277
					c-1.43-1.277-1.554-3.474-0.275-4.902C311.424,226.79,313.617,226.666,315.047,227.944z"/>
				<path fill="#010101" d="M313.291,237.642c0.894,0.767,0.995,2.107,0.23,3c-0.768,0.893-2.108,0.993-3,0.229
					c-0.895-0.765-0.995-2.107-0.23-3C311.057,236.979,312.4,236.877,313.291,237.642z"/>
				<path fill="#010101" d="M323.251,209.019c0.847,0.723,0.946,1.992,0.224,2.838c-0.722,0.847-1.99,0.945-2.839,0.225
					c-0.845-0.723-0.942-1.993-0.223-2.839C321.135,208.397,322.406,208.297,323.251,209.019z"/>
			</g>
		</g>
	</g>
</g>
</svg>
