<svg xmlns="http://www.w3.org/2000/svg" viewBox="0 0 103.792 148.561">
<g>
	<path fill="#747474" d="M82.713,50.307c-4.148-4.528-10.87-6.934-16.283-8.192c-0.242-0.058-0.48-0.11-0.717-0.161
		c-1.383-0.304-2.666-0.532-3.776-0.703c-0.181-0.025-0.354-0.053-0.524-0.078c-0.75-0.107-1.408-0.188-1.949-0.248
		c-0.239-0.025-0.454-0.047-0.646-0.064c-0.636-0.063-0.996-0.081-0.996-0.081l24.15,26.37c0.62-0.566,1.164-1.187,1.636-1.842
		c0.067-0.094,0.13-0.188,0.194-0.281c0.875-1.295,1.47-2.727,1.78-4.209c0.025-0.12,0.049-0.24,0.071-0.361
		c0.106-0.594,0.166-1.195,0.181-1.797c0.004-0.143,0.006-0.286,0.006-0.43C85.809,55.395,84.776,52.561,82.713,50.307z"/>
	<path fill="#515151" d="M66.43,42.115c-0.242-0.058-0.48-0.11-0.717-0.162l20.121,16.704c0.004-0.143,0.006-0.285,0.004-0.428
		L66.43,42.115z"/>
	<path fill="#515151" d="M61.937,41.25c-0.181-0.027-0.354-0.054-0.524-0.078l3.504,3.812c0.014,0.014,0.012,0.016-0.004,0.005
		l-5.449-4.063c-0.239-0.025-0.453-0.049-0.645-0.065l7.337,5.471l17.453,18.978c0.066-0.094,0.13-0.188,0.193-0.282L67.619,47.428
		c-0.014-0.014-0.012-0.016,0.004-0.005l17.959,13.392c0.025-0.118,0.049-0.239,0.071-0.36L66.379,46.083L61.937,41.25z"/>
	<path fill="#747474" d="M28.941,29.121c-0.191-0.004-0.408-0.007-0.648-0.008c-0.543-0.004-1.207,0-1.965,0.021
		c-0.173,0.006-0.349,0.01-0.529,0.019c-1.124,0.041-2.424,0.118-3.834,0.261c-0.24,0.023-0.482,0.05-0.729,0.078
		c-5.522,0.626-12.477,2.236-17.12,6.257c-2.311,2.001-3.664,4.695-4.021,7.506c-0.019,0.144-0.032,0.284-0.045,0.427
		c-0.054,0.601-0.065,1.205-0.028,1.807c0.007,0.123,0.018,0.244,0.029,0.367c0.138,1.51,0.563,3,1.281,4.387
		c0.054,0.102,0.104,0.201,0.16,0.302c0.394,0.706,0.863,1.384,1.414,2.019L29.94,29.159C29.94,29.156,29.58,29.133,28.941,29.121z"
		/>
	<path fill="#515151" d="M28.293,29.112l-5.883,3.406c-0.017,0.011-0.019,0.008-0.005-0.004l3.923-3.381
		c-0.173,0.004-0.349,0.01-0.529,0.016l-4.973,4.287L0.021,45.484c0.007,0.122,0.018,0.245,0.029,0.368l19.386-11.228
		c0.017-0.01,0.019-0.008,0.004,0.005L1.334,50.238c0.052,0.101,0.104,0.2,0.158,0.302l19.528-16.833l7.921-4.587
		C28.75,29.117,28.533,29.114,28.293,29.112z"/>
	<path fill="#515151" d="M0.049,43.678l21.916-14.267c-0.24,0.024-0.482,0.05-0.729,0.078L0.095,43.252
		C0.076,43.395,0.063,43.537,0.049,43.678z"/>
	<path fill="#F3F3F3" d="M53.343,2.147c-0.288,0.635-0.464,1.293-0.532,1.957c-0.148,1.42-3.371,3.959-4.411,5.39
		c-14.213,6.587-20.502,30.905-21.493,48.013c-1.135,19.581,5.768,40.153,18.721,54.428c10.168,11.205,24.158,19.694,37.401,24.275
		l20.05,12.352c0,0,2.916-10.098-3.041-14.817c-2.617-2.074-5.36-2.961-7.957-3.162c-0.006-0.001-0.006-0.003,0-0.006
		c2.521-1.208,4.789-2.767,6.069-4.742c4.128-6.376-3.588-14.702-3.588-14.702L79.91,133.969c0,0.002-0.002,0.002-0.004,0
		C62.5,121.535,49.953,100.702,53.41,78.219c0.01-0.003-0.004,0,0.006-0.003l2.615,12.108c3.375-0.729,5.521-4.057,4.79-7.432
		c-0.836-3.871-4.282-7.313-6.593-9.25c2.048-9.938,5.27-16.366,9.98-27.752c6.029-12.478,8.72-28.869,2.259-37.275
		c0.073-0.137,0.149-0.27,0.214-0.41c1.55-3.415-0.673-4.839-4.355-6.512C58.642,0.02,54.894-1.267,53.343,2.147z"/>
	<path fill="#CECECD" d="M89.455,140.169l13.465-2.392c-0.039-0.104-0.076-0.211-0.12-0.315l-13.771,2.444L89.455,140.169z"/>
	<path fill="#CECECD" d="M94.438,143.199l9.105,3.075c0.017-0.111,0.033-0.219,0.047-0.332l-10.365-3.497
		c-0.016-0.007-0.018-0.003-0.003,0.006L94.438,143.199z"/>
	<path fill="#CECECD" d="M79.805,134.666l13.179-3.979c0.009-0.002,0.009-0.006,0-0.006c-0.276-0.039-0.553-0.068-0.827-0.092
		l-12.766,3.816c-0.006,0.002-0.007,0.01-0.002,0.013L79.805,134.666z"/>
	<path fill="#CECECD" d="M86.354,138.258l16.119-1.502c-0.055-0.104-0.111-0.212-0.169-0.318l-16.421,1.531L86.354,138.258z"/>
	<path fill="#CECECD" d="M81.276,135.555l19.816-0.813c0.003,0,0.004-0.003,0.002-0.006c-0.097-0.107-0.201-0.211-0.306-0.314
		l-20.023,0.821c-0.008,0.001-0.01,0.01-0.003,0.015L81.276,135.555z"/>
	<path fill="#CECECD" d="M37.67,54.024c1.119-19.315,8.393-36.812,19.797-50.701c0.001-0.002,0-0.005-0.002-0.005
		c-11.125-2.3-21.604,6.726-28.198,18.694c-5.312,9.642-7.519,21.512-8.072,31.057c-2.301,39.682,24.485,74.316,61.87,83.168
		c0.014,0.003,0.014,0.001,0.002-0.006C54.317,120.369,35.643,88.991,37.67,54.024z"/>
	<path fill="#CECECD" d="M48.23,55.756c0.163,1.172-0.654,2.252-1.824,2.414c-1.171,0.163-2.251-0.654-2.414-1.824
		c-0.162-1.17,0.654-2.252,1.825-2.414C46.987,53.77,48.068,54.586,48.23,55.756z"/>
	<path fill="#CECECD" d="M50.804,43.048c0.163,1.171-0.654,2.251-1.825,2.413c-1.17,0.163-2.25-0.654-2.413-1.824
		s0.654-2.252,1.825-2.414C49.561,41.061,50.642,41.877,50.804,43.048z"/>
	<path fill="#CECECD" d="M49.076,34.944c0.161,1.171-0.656,2.251-1.826,2.414c-1.17,0.162-2.25-0.654-2.412-1.825
		c-0.163-1.17,0.654-2.251,1.824-2.413C47.832,32.957,48.912,33.774,49.076,34.944z"/>
	<path fill="#CECECD" d="M46.193,48.538c0.186,1.338-0.747,2.573-2.085,2.759c-1.337,0.185-2.571-0.748-2.758-2.086
		c-0.187-1.337,0.748-2.571,2.085-2.758C44.773,46.266,46.009,47.201,46.193,48.538z"/>
	<path fill="#CECECD" d="M43.699,60.026c-0.001,0.644-0.521,1.166-1.166,1.166c-0.644,0-1.164-0.522-1.164-1.166
		c0-0.643,0.521-1.165,1.164-1.165C43.178,58.861,43.699,59.383,43.699,60.026z"/>
	<path fill="#CECECD" d="M51.396,48.078c0.092,0.823-0.499,1.563-1.321,1.657c-0.822,0.092-1.564-0.5-1.656-1.322
		c-0.092-0.823,0.498-1.564,1.321-1.656C50.562,46.664,51.304,47.255,51.396,48.078z"/>
	<path fill="#E1E1E1" d="M37.651,36.516c0.226,1.662-0.94,3.192-2.602,3.418c-1.662,0.226-3.192-0.939-3.417-2.603
		c-0.225-1.662,0.938-3.192,2.602-3.417C35.896,33.688,37.427,34.854,37.651,36.516z"/>
	<path fill="#E1E1E1" d="M35.541,49.905c0.225,1.663-0.94,3.191-2.603,3.418c-1.662,0.225-3.192-0.939-3.417-2.602
		c-0.225-1.664,0.939-3.192,2.602-3.418C33.785,47.077,35.315,48.243,35.541,49.905z"/>
	<path fill="#E1E1E1" d="M33.011,68.155c0.128,1.167-0.716,2.217-1.882,2.345c-1.168,0.128-2.219-0.714-2.346-1.882
		c-0.129-1.167,0.713-2.219,1.881-2.346C31.832,66.143,32.883,66.987,33.011,68.155z"/>
	<path fill="#E1E1E1" d="M30.094,45.143c0.086,0.776-0.477,1.479-1.254,1.563c-0.779,0.085-1.479-0.477-1.565-1.255
		c-0.085-0.778,0.478-1.479,1.255-1.563C29.309,43.803,30.009,44.365,30.094,45.143z"/>
	<path fill="#E1E1E1" d="M29.199,56.458c0.1,0.908-0.557,1.726-1.465,1.825s-1.725-0.557-1.824-1.464
		c-0.1-0.908,0.557-1.726,1.465-1.825S29.1,55.551,29.199,56.458z"/>
	<path fill="#CECECD" d="M63.625,12.33c0.283,0.17,0.545,0.384,0.775,0.644c1.221,1.371,1.1,3.479-0.271,4.7l-0.443-0.497
		c1.098-0.977,1.193-2.664,0.218-3.761c-0.977-1.098-2.664-1.194-3.761-0.218L59.699,12.7C60.813,11.71,62.41,11.604,63.625,12.33z"
		/>
</g>
</svg>
