<svg xmlns="http://www.w3.org/2000/svg" viewBox="0 0 203.245 126.932">
<g>
	<path fill="#747474" d="M98.369,81.478c-0.051,1.139,0.021,2.256,0.197,3.337c0.025,0.153,0.055,0.304,0.084,0.456
		c0.402,2.081,1.205,4.025,2.329,5.747c0.093,0.14,0.185,0.279,0.279,0.415c0.469,0.672,0.987,1.305,1.551,1.898
		c0.134,0.14,0.269,0.279,0.407,0.414c2.747,2.69,6.456,4.418,10.6,4.601c8.326,0.367,17.082-3.776,23.485-7.761
		c0.286-0.178,0.565-0.355,0.841-0.532c1.62-1.037,3.069-2.048,4.299-2.95c0.198-0.146,0.391-0.289,0.577-0.429
		c0.823-0.615,1.533-1.169,2.108-1.631c0.255-0.205,0.481-0.39,0.683-0.556c0.668-0.554,1.033-0.879,1.033-0.879L98.369,81.478z"/>
	<path fill="#515151" d="M103.217,93.748l34.085-3.162c0.286-0.178,0.565-0.355,0.841-0.532l-35.333,3.278
		C102.943,93.472,103.078,93.611,103.217,93.748z"/>
	<path fill="#515151" d="M145.81,84.488l-12.289,1.789l-34.954-1.462c0.025,0.153,0.055,0.304,0.084,0.456l32.424,1.356
		c0.019,0.001,0.019,0.004,0,0.007l-30.095,4.384c0.093,0.14,0.185,0.279,0.279,0.416l32.284-4.703l8.898,0.372
		c0.198-0.146,0.391-0.288,0.577-0.428l-7.03-0.294c-0.019-0.001-0.019-0.004,0-0.006l9.139-1.332
		C145.382,84.838,145.608,84.654,145.81,84.488z"/>
	<path fill="#302F2F" d="M0.005,23.61C0.002,23.612,0,23.612,0,23.612c0.09,0.16,6.957,12.479,17.136,11.303
		c4.504-0.521,7.989-2.305,10.673-4.604c0.005-0.004,0.007-0.002,0.005,0.004c-1.261,3.579-1.944,7.253-1.276,10.378
		c2.145,10.02,17.369,10.657,17.549,10.665c0.002,0,0.001-0.002,0.001-0.004l-8.158-37.094c-0.004-0.021-0.026-0.031-0.044-0.022
		l-4.794,1.991L0.005,23.61z"/>
	<path fill="#515151" d="M21.123,18.594L10.498,33.809c0.14,0.063,0.279,0.129,0.42,0.188l10.867-15.56L21.123,18.594z"/>
	<path fill="#515151" d="M13.535,20.419L1.752,26.258c0.089,0.12,0.18,0.24,0.275,0.365l13.424-6.652
		c0.016-0.007,0.015-0.01-0.002-0.006L13.535,20.419z"/>
	<path fill="#515151" d="M35.412,15.077l-8.545,15.951c-0.004,0.008-0.002,0.01,0.004,0.006c0.304-0.23,0.598-0.467,0.883-0.707
		l8.313-15.414L35.412,15.077z"/>
	<path fill="#515151" d="M25.934,17.452L11.908,34.36c0.154,0.051,0.311,0.096,0.467,0.143L26.664,17.28L25.934,17.452z"/>
	<path fill="#515151" d="M32.9,15.72L15.158,34.974c0.198,0.011,0.401,0.011,0.604,0.011l17.949-19.481L32.9,15.72z"/>
	<path fill="#302F2F" d="M199.856,25.844c-0.117-0.152-0.241-0.303-0.364-0.452c-0.521-0.628-1.095-1.216-1.704-1.759
		c-0.128-0.111-0.256-0.219-0.382-0.326c-1.58-1.314-3.42-2.337-5.439-2.979c-0.146-0.045-0.292-0.094-0.442-0.135
		c-1.056-0.302-2.153-0.5-3.292-0.582l-3.482,48.396c0,0,0.362-0.325,0.989-0.925c0.188-0.18,0.396-0.385,0.632-0.613
		c0.525-0.518,1.155-1.159,1.864-1.906c0.159-0.17,0.322-0.344,0.491-0.523c1.04-1.118,2.21-2.441,3.428-3.93
		c0.205-0.254,0.417-0.512,0.624-0.774c4.7-5.899,9.825-14.118,10.425-22.431C203.5,32.768,202.213,28.884,199.856,25.844z"/>
	<path fill="#515151" d="M197.406,23.307l-7.833,29.387c-0.006,0.018-0.01,0.018-0.006-0.002l2.398-32.361
		c-0.146-0.047-0.292-0.094-0.442-0.137l-2.587,34.887l-3.198,12.002c0.187-0.18,0.396-0.385,0.631-0.613l2.381-8.926
		c0.003-0.018,0.006-0.018,0.006,0.001l-0.521,7.019c0.159-0.169,0.322-0.344,0.491-0.523l0.656-8.885l8.405-31.521
		C197.66,23.522,197.532,23.415,197.406,23.307z"/>
	<path fill="#515151" d="M199.492,25.392l-7.339,34.718c0.208-0.254,0.417-0.511,0.624-0.773l7.079-33.491
		C199.739,25.692,199.615,25.542,199.492,25.392z"/>
	<path fill="#747474" d="M188.206,116.376c-0.438-1.159-1.101-2.172-1.926-3.012c-1.155-1.178-1.586-3.787-1.586-3.787
		s4.569-8.444,3.032-19.152c-2.385-16.636-12.347-39.44-21.753-50.007C147.975,20.206,119.549,6.603,91.527,4.366
		c-16.385-1.31-32.24,2.6-46.801,6.76c-2.02,0.576-5.633,1.992-7.572,2.722c-0.459,0.172-1.187,0.569-1.078,1.063
		c28.634-4.77,60.826,3.652,79.08,28.548c-0.006,0.007,0.002-0.003-0.004,0.005l-14.133-9.111
		c-2.538,3.938-1.404,9.188,2.533,11.725c4.518,2.912,11.129,2.91,15.203,2.551c7.57,11.502,10.648,20.759,17.05,36.204
		c6.188,17.757,19.335,36.064,33.601,37.934c0.061,0.2,0.114,0.4,0.188,0.598c1.788,4.767,5.288,3.998,10.429,2.068
		C185.164,123.502,189.996,121.141,188.206,116.376z"/>
	<path fill="#CECECD" d="M153.469,51.562c17.46,19.608,27.268,43.373,29.654,67.645c0,0.005,0.003,0.006,0.003,0.004
		c12.883-8.467,14.275-27.182,9.123-44.995c-4.154-14.348-13.428-27.854-22.057-37.544C134.322-3.613,75.386-11.142,31.021,16.241
		c-0.011,0.008-0.01,0.01,0.003,0.006C73.83,3.877,121.861,16.065,153.469,51.562z"/>
	<path fill="#E1E1E1" d="M175.672,62.167c1.607,1.608,1.607,4.218,0,5.827c-1.609,1.609-4.219,1.609-5.828,0
		c-1.609-1.608-1.609-4.219,0-5.827C171.453,60.558,174.063,60.558,175.672,62.167z"/>
	<path fill="#E1E1E1" d="M164.849,47.295c1.61,1.609,1.61,4.219,0,5.828c-1.609,1.608-4.218,1.609-5.828,0
		c-1.607-1.609-1.607-4.219,0-5.828C160.631,45.686,163.239,45.686,164.849,47.295z"/>
	<path fill="#E1E1E1" d="M148.207,29.247c1.127,1.127,1.127,2.955,0,4.082s-2.954,1.127-4.082,0c-1.127-1.127-1.127-2.955,0-4.082
		C145.253,28.12,147.08,28.12,148.207,29.247z"/>
	<path fill="#E1E1E1" d="M171.805,49.958c0.751,0.752,0.751,1.97,0,2.721c-0.752,0.752-1.97,0.752-2.721,0
		c-0.752-0.751-0.752-1.969,0-2.721C169.835,49.208,171.053,49.208,171.805,49.958z"/>
	<path fill="#E1E1E1" d="M162.231,37.765c0.876,0.877,0.876,2.298,0,3.175c-0.877,0.877-2.298,0.877-3.175,0
		c-0.876-0.877-0.876-2.298,0-3.175C159.934,36.889,161.354,36.889,162.231,37.765z"/>
	<path fill="#010101" d="M145.477,55.651c1.135,1.135,1.135,2.973,0,4.105c-1.133,1.134-2.971,1.134-4.105,0
		c-1.133-1.133-1.133-2.971,0-4.105C142.506,54.517,144.344,54.517,145.477,55.651z"/>
	<path fill="#010101" d="M155.201,70.314c1.135,1.134,1.135,2.972,0,4.105c-1.134,1.134-2.972,1.134-4.104,0
		c-1.134-1.134-1.134-2.972,0-4.105C152.229,69.18,154.067,69.18,155.201,70.314z"/>
	<path fill="#010101" d="M164.636,76.432c1.134,1.133,1.134,2.971,0,4.105c-1.133,1.133-2.971,1.133-4.105,0
		c-1.134-1.135-1.134-2.973,0-4.105C161.664,75.298,163.502,75.298,164.636,76.432z"/>
	<path fill="#010101" d="M154.9,59.999c1.296,1.297,1.296,3.396,0,4.693c-1.295,1.295-3.396,1.295-4.691,0
		c-1.295-1.297-1.295-3.396,0-4.693C151.505,58.704,153.605,58.704,154.9,59.999z"/>
	<path fill="#010101" d="M144.158,49.354c0.617,0.617,0.617,1.618,0,2.236c-0.617,0.617-1.619,0.617-2.236,0
		c-0.617-0.618-0.617-1.619,0-2.236S143.541,48.737,144.158,49.354z"/>
	<path fill="#010101" d="M148.726,67.392c0.794,0.794,0.794,2.081,0,2.875s-2.082,0.795-2.875,0.001
		c-0.794-0.794-0.794-2.081,0-2.875S147.932,66.598,148.726,67.392z"/>
	<path fill="#515151" d="M168.57,116.472c-0.434,0.109-0.892,0.155-1.359,0.128c-2.487-0.144-4.395-2.285-4.249-4.772l0.9,0.055
		c-0.113,1.988,1.41,3.702,3.399,3.816c1.991,0.115,3.702-1.41,3.816-3.398l0.902,0.052
		C171.864,114.369,170.435,116.003,168.57,116.472z"/>
</g>
</svg>
