<svg xmlns="http://www.w3.org/2000/svg" viewBox="0 0 624 351">
<g>
	<g id="ripple-1" class="ripple-group">
		<path fill="#747474" stroke="#B4B4B4" stroke-width="3" d="M264.624,219.309c-21.985,0-42.654-8.563-58.2-24.106c-15.545-15.546-24.105-36.215-24.105-58.2
			s8.561-42.653,24.105-58.199c15.546-15.546,36.215-24.107,58.2-24.107s42.653,8.562,58.199,24.107
			c15.544,15.546,24.106,36.214,24.106,58.199s-8.563,42.654-24.106,58.2C307.277,210.746,286.607,219.309,264.624,219.309z
			 M264.624,55.345c-45.026,0-81.656,36.631-81.656,81.656c0,45.026,36.63,81.656,81.656,81.656
			c45.025,0,81.657-36.632,81.657-81.656C346.281,91.976,309.649,55.345,264.624,55.345z"/>
		<path fill="#747474" stroke="#B4B4B4" stroke-width="3" d="M264.624,198.813c-34.083,0-61.812-27.729-61.812-61.812s27.729-61.811,61.812-61.811
			s61.809,27.728,61.809,61.811S298.706,198.813,264.624,198.813z M264.624,75.84c-33.724,0-61.161,27.437-61.161,61.161
			c0,33.725,27.436,61.162,61.161,61.162c33.724,0,61.159-27.437,61.159-61.162C325.783,103.277,298.348,75.84,264.624,75.84z"/>
	</g>
	<g id="ripple-2" class="ripple-group">
		<path fill="#302F2F" stroke="#706F6F" stroke-width="3" d="M143.758,182.934c-19.613,0-38.054-7.638-51.922-21.507c-13.869-13.869-21.507-32.308-21.507-51.922
			c0-19.614,7.638-38.053,21.507-51.922s32.309-21.507,51.922-21.507s38.053,7.638,51.922,21.507s21.506,32.309,21.506,51.922
			c0,19.614-7.637,38.053-21.506,51.922C181.811,175.296,163.371,182.934,143.758,182.934z M143.758,36.454
			c-40.281,0-73.052,32.771-73.052,73.051c0,40.281,32.771,73.052,73.052,73.052c40.28,0,73.051-32.771,73.051-73.052
			C216.809,69.224,184.038,36.454,143.758,36.454z"/>
		<path fill="#302F2F" stroke="#706F6F" stroke-width="3" d="M143.758,164.624c-30.393,0-55.119-24.726-55.119-55.119s24.728-55.119,55.119-55.119
			c30.393,0,55.119,24.727,55.119,55.119C198.877,139.898,174.15,164.624,143.758,164.624z M143.758,54.764
			c-30.185,0-54.742,24.557-54.742,54.741s24.558,54.741,54.742,54.741c30.184,0,54.741-24.557,54.741-54.741
			C198.499,79.32,173.941,54.764,143.758,54.764z"/>
	</g>
	<g id="ripple-3" class="ripple-group">
		<path fill="#CFD0D0" stroke="#FFFFFF" stroke-width="3" d="M135.548,339.131c-29.586,0-53.655-24.068-53.655-53.654s24.069-53.655,53.655-53.655
			s53.657,24.069,53.657,53.655S165.134,339.131,135.548,339.131z M135.548,232.145c-29.407,0-53.331,23.924-53.331,53.332
			c0,29.406,23.924,53.33,53.331,53.33s53.332-23.924,53.332-53.33C188.88,256.068,164.955,232.145,135.548,232.145z"/>
		<path fill="#CFD0D0" stroke="#FFFFFF" stroke-width="3" d="M135.548,325.76c-22.212,0-40.282-18.072-40.282-40.283c0-22.213,18.07-40.283,40.282-40.283
			c22.213,0,40.283,18.072,40.283,40.283S157.761,325.76,135.548,325.76z M135.548,245.518c-22.032,0-39.957,17.926-39.957,39.959
			c0,22.032,17.925,39.955,39.957,39.955c22.033,0,39.958-17.923,39.958-39.955C175.506,263.443,157.581,245.518,135.548,245.518z"
			/>
	</g>
	<g id="ripple-4" class="ripple-group">
		<path fill="#747474" stroke="#B4B4B4" stroke-width="3" d="M452.514,299.098c-27.703,0-53.749-10.787-73.34-30.378c-19.591-19.59-30.378-45.636-30.378-73.34
			c0-27.705,10.787-53.751,30.378-73.341s45.637-30.379,73.34-30.379c27.706,0,53.751,10.789,73.345,30.379
			c19.587,19.59,30.377,45.636,30.377,73.341c0,27.704-10.79,53.75-30.377,73.34C506.265,288.311,480.22,299.098,452.514,299.098z
			 M452.514,92.479c-56.737,0-102.897,46.161-102.897,102.9c0,56.739,46.16,102.898,102.897,102.898
			c56.738,0,102.901-46.159,102.901-102.898C555.415,138.64,509.252,92.479,452.514,92.479z"/>
		<path fill="#747474" stroke="#B4B4B4" stroke-width="3" d="M452.514,273.271c-20.807,0-40.363-8.104-55.078-22.814c-14.713-14.712-22.812-34.271-22.812-55.077
			s8.102-40.366,22.812-55.078c14.715-14.712,34.271-22.813,55.078-22.813c20.808,0,40.365,8.102,55.077,22.813
			c14.713,14.712,22.815,34.272,22.815,55.078s-8.104,40.365-22.815,55.077S473.32,273.271,452.514,273.271z M452.514,118.307
			c-42.497,0-77.069,34.574-77.069,77.072s34.572,77.073,77.069,77.073s77.073-34.575,77.073-77.073
			C529.587,152.882,495.011,118.307,452.514,118.307z"/>
		<path fill="#747474" stroke="#B4B4B4" stroke-width="3" d="M452.514,244.215c-26.927,0-48.835-21.906-48.835-48.835s21.908-48.837,48.835-48.837
			c26.931,0,48.837,21.908,48.837,48.837C501.348,222.307,479.443,244.215,452.514,244.215z M452.514,147.363
			c-26.475,0-48.016,21.54-48.016,48.017c0,26.476,21.541,48.017,48.016,48.017c26.479,0,48.02-21.541,48.02-48.017
			C500.532,168.903,478.991,147.363,452.514,147.363z"/>
	</g>
	<rect fill="none" width="70.329" height="351"/>
</g>
</svg>
