<svg xmlns="http://www.w3.org/2000/svg" viewBox="0 0 624 351">
<g>
	<rect fill="none" width="624" height="41.48"/>
	<g>
		<g>
			<path fill="#F2F2F2" d="M53.65,204.28c8.189,11.266,7.908,25.454,7.904,25.635c0,0.004,0,0.002-0.002,0.002
				c-0.174-0.053-13.756-4.158-21.947-15.426c-8.244-11.338-7.904-25.637-7.904-25.637S45.404,192.94,53.65,204.28z"/>
			<path fill="#F2F2F2" d="M70.222,204.53c0.004,13.93-8.563,25.243-8.672,25.387c-0.002,0.002-0.002,0.002-0.002,0
				c-0.109-0.145-8.686-11.449-8.689-25.379c-0.004-14.02,8.674-25.388,8.674-25.388S70.216,190.511,70.222,204.53z"/>
			<path fill="#FFFFFF" d="M83.488,214.476c-8.184,11.273-21.764,15.389-21.938,15.441c-0.002,0-0.002,0.002-0.002-0.002
				c-0.004-0.182-0.295-14.367,7.887-25.639c8.238-11.346,21.94-15.44,21.94-15.44S91.725,203.133,83.488,214.476z"/>
			<path fill="#139DD4" d="M69.128,225.322c0-4.354-3.529-7.883-7.881-7.883c-4.354,0-7.883,3.529-7.883,7.883l8.182,4.598
				c0.002,0,0.002,0,0.004,0L69.128,225.322z"/>
			<path fill="#CECECD" d="M88.373,224.394c-13.204,4.297-26.565,5.502-26.821,5.523c-0.004,0.002-0.004,0-0.002-0.002
				c0.168-0.242,8.258-11.814,21.451-16.105c13.331-4.336,26.823,0.404,26.823,0.404S101.703,220.058,88.373,224.394z"/>
			<path fill="#CECECD" d="M40.083,213.826c13.195,4.281,21.295,15.848,21.461,16.09c0.002,0.002,0.002,0.004,0,0.004
				c-0.258-0.023-13.615-1.219-26.82-5.506c-13.334-4.328-21.465-10.166-21.465-10.166S26.748,209.498,40.083,213.826z"/>
		</g>
		<g>
			<path fill="#F2F2F2" d="M570.643,66.841c0.006,13.93-8.561,25.242-8.672,25.387c-0.002,0.001-0.002,0.001-0.002,0
				c-0.111-0.145-8.686-11.45-8.691-25.379c-0.004-14.02,8.676-25.389,8.676-25.389S570.639,52.822,570.643,66.841z"/>
			<path fill="#F2F2F2" d="M554.063,72.828c8.191,11.267,7.908,25.455,7.904,25.637c0,0.002,0,0.001,0,0.001
				c-0.174-0.052-13.756-4.158-21.947-15.424c-8.244-11.339-7.906-25.638-7.906-25.638S545.819,61.488,554.063,72.828z"/>
			<path fill="#FFFFFF" d="M583.901,83.025c-8.182,11.272-21.762,15.389-21.936,15.44c-0.004,0-0.004,0.001-0.004-0.001
				c-0.004-0.182-0.295-14.368,7.887-25.641c8.24-11.344,21.941-15.44,21.941-15.44S592.141,71.681,583.901,83.025z"/>
			<path fill="#139DD4" d="M569.543,93.869c0-4.354-3.529-7.881-7.881-7.881c-4.355,0-7.887,3.528-7.887,7.881l8.186,4.598
				c0,0,0,0,0.004,0L569.543,93.869z"/>
			<path fill="#CECECD" d="M588.788,92.943c-13.201,4.295-26.566,5.502-26.822,5.523c0,0,0-0.001,0-0.003
				c0.168-0.241,8.258-11.813,21.449-16.104c13.332-4.336,26.826,0.404,26.826,0.404S602.12,88.607,588.788,92.943z"/>
			<path fill="#EDEDED" d="M540.499,82.374c13.193,4.282,21.295,15.85,21.459,16.091c0.004,0.002,0.004,0.004,0,0.003
				c-0.256-0.022-13.613-1.22-26.818-5.506c-13.334-4.328-21.467-10.167-21.467-10.167S527.165,78.046,540.499,82.374z"/>
		</g>
	</g>
</g>
</svg>
